<?xml version="1.0" encoding="UTF-8" standalone="no"?>
<!DOCTYPE svg PUBLIC "-//W3C//DTD SVG 1.1//EN"
 "http://www.w3.org/Graphics/SVG/1.1/DTD/svg11.dtd">
<!-- Generated by graphviz version 2.40.1 (20161225.0304)
 -->
<!-- Title: oneDegreeRelationshipsDiagram Pages: 1 -->
<svg width="905pt" height="593pt"
 viewBox="0.00 0.00 905.00 592.94" xmlns="http://www.w3.org/2000/svg" xmlns:xlink="http://www.w3.org/1999/xlink">
<g id="graph0" class="graph" transform="scale(1 1) rotate(0) translate(4 588.9376)">
<title>oneDegreeRelationshipsDiagram</title>
<polygon fill="#ffffff" stroke="transparent" points="-4,4 -4,-588.9376 901,-588.9376 901,4 -4,4"/>
<!-- APPLICABLE -->
<g id="node1" class="node">
<title>APPLICABLE</title>
<g id="a_node1"><a xlink:href="../../tables/APPLICABLE.html" xlink:title="APPLICABLE" target="_top">
<polygon fill="#ffffff" stroke="transparent" points="647,-108.4376 647,-528.4376 889,-528.4376 889,-108.4376 647,-108.4376"/>
<polygon fill="#f5f5f5" stroke="transparent" points="649,-503.4376 649,-526.4376 887,-526.4376 887,-503.4376 649,-503.4376"/>
<polygon fill="none" stroke="#000000" points="649,-503.4376 649,-526.4376 887,-526.4376 887,-503.4376 649,-503.4376"/>
<text text-anchor="start" x="654" y="-512.0376" font-family="Helvetica,sans-Serif" font-weight="bold" font-size="11.00" fill="#000000">APPLICABLE</text>
<text text-anchor="start" x="852.0437" y="-511.5376" font-family="Helvetica,sans-Serif" font-size="11.00" fill="#000000">[table]</text>
<polygon fill="none" stroke="#000000" points="649,-481.4376 649,-503.4376 821,-503.4376 821,-481.4376 649,-481.4376"/>
<image xlink:href="../../images/primaryKeys.png" width="11px" height="12px" preserveAspectRatio="xMinYMin meet" x="654" y="-498.438"/>
<text text-anchor="start" x="669" y="-488.5376" font-family="Helvetica,sans-Serif" font-size="11.00" fill="#000000">ID</text>
<polygon fill="none" stroke="#000000" points="821,-481.4376 821,-503.4376 887,-503.4376 887,-481.4376 821,-481.4376"/>
<text text-anchor="start" x="824" y="-489.1376" font-family="Helvetica,sans-Serif" font-size="11.00" fill="#000000">int[10]</text>
<polygon fill="none" stroke="#000000" points="649,-459.4376 649,-481.4376 821,-481.4376 821,-459.4376 649,-459.4376"/>
<text text-anchor="start" x="669" y="-466.5376" font-family="Helvetica,sans-Serif" font-size="11.00" fill="#000000">WORKSPACE_ID</text>
<polygon fill="none" stroke="#000000" points="821,-459.4376 821,-481.4376 887,-481.4376 887,-459.4376 821,-459.4376"/>
<text text-anchor="start" x="824" y="-467.1376" font-family="Helvetica,sans-Serif" font-size="11.00" fill="#000000">int[10]</text>
<polygon fill="none" stroke="#000000" points="649,-437.4376 649,-459.4376 821,-459.4376 821,-437.4376 649,-437.4376"/>
<text text-anchor="start" x="669" y="-444.5376" font-family="Helvetica,sans-Serif" font-size="11.00" fill="#000000">GENDER</text>
<polygon fill="none" stroke="#000000" points="821,-437.4376 821,-459.4376 887,-459.4376 887,-437.4376 821,-437.4376"/>
<text text-anchor="start" x="824" y="-445.1376" font-family="Helvetica,sans-Serif" font-size="11.00" fill="#000000">enum[6]</text>
<polygon fill="none" stroke="#000000" points="649,-415.4376 649,-437.4376 821,-437.4376 821,-415.4376 649,-415.4376"/>
<text text-anchor="start" x="669" y="-422.5376" font-family="Helvetica,sans-Serif" font-size="11.00" fill="#000000">MARITAL_STATUS</text>
<polygon fill="none" stroke="#000000" points="821,-415.4376 821,-437.4376 887,-437.4376 887,-415.4376 821,-415.4376"/>
<text text-anchor="start" x="824" y="-423.1376" font-family="Helvetica,sans-Serif" font-size="11.00" fill="#000000">enum[10]</text>
<polygon fill="#ffffff" stroke="transparent" points="649,-393.4376 649,-415.4376 821,-415.4376 821,-393.4376 649,-393.4376"/>
<polygon fill="none" stroke="#000000" points="649,-393.4376 649,-415.4376 821,-415.4376 821,-393.4376 649,-393.4376"/>
<image xlink:href="../../images/foreignKeys.png" width="11px" height="12px" preserveAspectRatio="xMinYMin meet" x="654" y="-410.438"/>
<text text-anchor="start" x="669" y="-400.5376" font-family="Helvetica,sans-Serif" font-size="11.00" fill="#000000">DEPARTMENT_ID</text>
<polygon fill="none" stroke="#000000" points="821,-393.4376 821,-415.4376 887,-415.4376 887,-393.4376 821,-393.4376"/>
<text text-anchor="start" x="824" y="-401.1376" font-family="Helvetica,sans-Serif" font-size="11.00" fill="#000000">int[10]</text>
<polygon fill="#ffffff" stroke="transparent" points="649,-371.4376 649,-393.4376 821,-393.4376 821,-371.4376 649,-371.4376"/>
<polygon fill="none" stroke="#000000" points="649,-371.4376 649,-393.4376 821,-393.4376 821,-371.4376 649,-371.4376"/>
<image xlink:href="../../images/foreignKeys.png" width="11px" height="12px" preserveAspectRatio="xMinYMin meet" x="654" y="-388.438"/>
<text text-anchor="start" x="669" y="-378.5376" font-family="Helvetica,sans-Serif" font-size="11.00" fill="#000000">DESIGNATION_ID</text>
<polygon fill="none" stroke="#000000" points="821,-371.4376 821,-393.4376 887,-393.4376 887,-371.4376 821,-371.4376"/>
<text text-anchor="start" x="824" y="-379.1376" font-family="Helvetica,sans-Serif" font-size="11.00" fill="#000000">int[10]</text>
<polygon fill="#ffffff" stroke="transparent" points="649,-349.4376 649,-371.4376 821,-371.4376 821,-349.4376 649,-349.4376"/>
<polygon fill="none" stroke="#000000" points="649,-349.4376 649,-371.4376 821,-371.4376 821,-349.4376 649,-349.4376"/>
<image xlink:href="../../images/foreignKeys.png" width="11px" height="12px" preserveAspectRatio="xMinYMin meet" x="654" y="-366.438"/>
<text text-anchor="start" x="669" y="-356.5376" font-family="Helvetica,sans-Serif" font-size="11.00" fill="#000000">LOCATION_ID</text>
<polygon fill="none" stroke="#000000" points="821,-349.4376 821,-371.4376 887,-371.4376 887,-349.4376 821,-349.4376"/>
<text text-anchor="start" x="824" y="-357.1376" font-family="Helvetica,sans-Serif" font-size="11.00" fill="#000000">int[10]</text>
<polygon fill="none" stroke="#000000" points="649,-327.4376 649,-349.4376 821,-349.4376 821,-327.4376 649,-327.4376"/>
<text text-anchor="start" x="669" y="-334.5376" font-family="Helvetica,sans-Serif" font-size="11.00" fill="#000000">ROLE</text>
<polygon fill="none" stroke="#000000" points="821,-327.4376 821,-349.4376 887,-349.4376 887,-327.4376 821,-327.4376"/>
<text text-anchor="start" x="824" y="-335.1376" font-family="Helvetica,sans-Serif" font-size="11.00" fill="#000000">varchar[50]</text>
<polygon fill="none" stroke="#000000" points="649,-305.4376 649,-327.4376 821,-327.4376 821,-305.4376 649,-305.4376"/>
<text text-anchor="start" x="669" y="-312.5376" font-family="Helvetica,sans-Serif" font-size="11.00" fill="#000000">ADD_FIELD</text>
<polygon fill="none" stroke="#000000" points="821,-305.4376 821,-327.4376 887,-327.4376 887,-305.4376 821,-305.4376"/>
<text text-anchor="start" x="824" y="-313.1376" font-family="Helvetica,sans-Serif" font-size="11.00" fill="#000000">enum[3]</text>
<polygon fill="none" stroke="#000000" points="649,-283.4376 649,-305.4376 821,-305.4376 821,-283.4376 649,-283.4376"/>
<text text-anchor="start" x="669" y="-290.5376" font-family="Helvetica,sans-Serif" font-size="11.00" fill="#000000">EMPLOYMENT_TYPE</text>
<polygon fill="none" stroke="#000000" points="821,-283.4376 821,-305.4376 887,-305.4376 887,-283.4376 821,-283.4376"/>
<text text-anchor="start" x="824" y="-291.1376" font-family="Helvetica,sans-Serif" font-size="11.00" fill="#000000">enum[9]</text>
<polygon fill="none" stroke="#000000" points="649,-261.4376 649,-283.4376 821,-283.4376 821,-261.4376 649,-261.4376"/>
<text text-anchor="start" x="669" y="-268.5376" font-family="Helvetica,sans-Serif" font-size="11.00" fill="#000000">SOURCE_OF_HIRE</text>
<polygon fill="none" stroke="#000000" points="821,-261.4376 821,-283.4376 887,-283.4376 887,-261.4376 821,-261.4376"/>
<text text-anchor="start" x="824" y="-269.1376" font-family="Helvetica,sans-Serif" font-size="11.00" fill="#000000">enum[18]</text>
<polygon fill="none" stroke="#000000" points="649,-239.4376 649,-261.4376 821,-261.4376 821,-239.4376 649,-239.4376"/>
<text text-anchor="start" x="669" y="-246.5376" font-family="Helvetica,sans-Serif" font-size="11.00" fill="#000000">ONBOARDING_STATUS</text>
<polygon fill="none" stroke="#000000" points="821,-239.4376 821,-261.4376 887,-261.4376 887,-239.4376 821,-239.4376"/>
<text text-anchor="start" x="824" y="-247.1376" font-family="Helvetica,sans-Serif" font-size="11.00" fill="#000000">enum[14]</text>
<polygon fill="#ffffff" stroke="transparent" points="649,-217.4376 649,-239.4376 821,-239.4376 821,-217.4376 649,-217.4376"/>
<polygon fill="none" stroke="#000000" points="649,-217.4376 649,-239.4376 821,-239.4376 821,-217.4376 649,-217.4376"/>
<image xlink:href="../../images/foreignKeys.png" width="11px" height="12px" preserveAspectRatio="xMinYMin meet" x="654" y="-234.438"/>
<text text-anchor="start" x="669" y="-224.5376" font-family="Helvetica,sans-Serif" font-size="11.00" fill="#000000">EMPLOYEE_ID</text>
<polygon fill="none" stroke="#000000" points="821,-217.4376 821,-239.4376 887,-239.4376 887,-217.4376 821,-217.4376"/>
<text text-anchor="start" x="824" y="-225.1376" font-family="Helvetica,sans-Serif" font-size="11.00" fill="#000000">int[10]</text>
<polygon fill="none" stroke="#000000" points="649,-195.4376 649,-217.4376 821,-217.4376 821,-195.4376 649,-195.4376"/>
<text text-anchor="start" x="669" y="-202.5376" font-family="Helvetica,sans-Serif" font-size="11.00" fill="#000000">CREATED_TIME</text>
<polygon fill="none" stroke="#000000" points="821,-195.4376 821,-217.4376 887,-217.4376 887,-195.4376 821,-195.4376"/>
<text text-anchor="start" x="823.7401" y="-203.1376" font-family="Helvetica,sans-Serif" font-size="11.00" fill="#000000">datetime[26]</text>
<polygon fill="none" stroke="#000000" points="649,-173.4376 649,-195.4376 821,-195.4376 821,-173.4376 649,-173.4376"/>
<text text-anchor="start" x="669" y="-180.5376" font-family="Helvetica,sans-Serif" font-size="11.00" fill="#000000">MODIFIED_TIME</text>
<polygon fill="none" stroke="#000000" points="821,-173.4376 821,-195.4376 887,-195.4376 887,-173.4376 821,-173.4376"/>
<text text-anchor="start" x="823.7401" y="-181.1376" font-family="Helvetica,sans-Serif" font-size="11.00" fill="#000000">datetime[26]</text>
<polygon fill="#ffffff" stroke="transparent" points="649,-151.4376 649,-173.4376 821,-173.4376 821,-151.4376 649,-151.4376"/>
<polygon fill="none" stroke="#000000" points="649,-151.4376 649,-173.4376 821,-173.4376 821,-151.4376 649,-151.4376"/>
<image xlink:href="../../images/foreignKeys.png" width="11px" height="12px" preserveAspectRatio="xMinYMin meet" x="654" y="-168.438"/>
<text text-anchor="start" x="669" y="-158.5376" font-family="Helvetica,sans-Serif" font-size="11.00" fill="#000000">CREATOR</text>
<polygon fill="none" stroke="#000000" points="821,-151.4376 821,-173.4376 887,-173.4376 887,-151.4376 821,-151.4376"/>
<text text-anchor="start" x="824" y="-159.1376" font-family="Helvetica,sans-Serif" font-size="11.00" fill="#000000">int[10]</text>
<polygon fill="#ffffff" stroke="transparent" points="649,-129.4376 649,-151.4376 821,-151.4376 821,-129.4376 649,-129.4376"/>
<polygon fill="none" stroke="#000000" points="649,-129.4376 649,-151.4376 821,-151.4376 821,-129.4376 649,-129.4376"/>
<image xlink:href="../../images/foreignKeys.png" width="11px" height="12px" preserveAspectRatio="xMinYMin meet" x="654" y="-146.438"/>
<text text-anchor="start" x="669" y="-136.5376" font-family="Helvetica,sans-Serif" font-size="11.00" fill="#000000">LAST_MODIFIER</text>
<polygon fill="none" stroke="#000000" points="821,-129.4376 821,-151.4376 887,-151.4376 887,-129.4376 821,-129.4376"/>
<text text-anchor="start" x="824" y="-137.1376" font-family="Helvetica,sans-Serif" font-size="11.00" fill="#000000">int[10]</text>
<polygon fill="#ffffff" stroke="transparent" points="649,-110.4376 649,-129.4376 726,-129.4376 726,-110.4376 649,-110.4376"/>
<polygon fill="none" stroke="#000000" points="649,-110.4376 649,-129.4376 726,-129.4376 726,-110.4376 649,-110.4376"/>
<text text-anchor="start" x="652" y="-116.5376" font-family="Helvetica,sans-Serif" font-size="11.00" fill="#000000">&lt; 6</text>
<polygon fill="#ffffff" stroke="transparent" points="726,-110.4376 726,-129.4376 821,-129.4376 821,-110.4376 726,-110.4376"/>
<polygon fill="none" stroke="#000000" points="726,-110.4376 726,-129.4376 821,-129.4376 821,-110.4376 726,-110.4376"/>
<text text-anchor="start" x="785.6105" y="-116.5376" font-family="Helvetica,sans-Serif" font-size="11.00" fill="#000000">0 rows</text>
<polygon fill="#ffffff" stroke="transparent" points="821,-110.4376 821,-129.4376 887,-129.4376 887,-110.4376 821,-110.4376"/>
<polygon fill="none" stroke="#000000" points="821,-110.4376 821,-129.4376 887,-129.4376 887,-110.4376 821,-110.4376"/>
<text text-anchor="start" x="868.4053" y="-116.5376" font-family="Helvetica,sans-Serif" font-size="11.00" fill="#000000">0 &gt;</text>
<polygon fill="none" stroke="#000000" stroke-width="2" points="648,-109.4376 648,-527.4376 888,-527.4376 888,-109.4376 648,-109.4376"/>
</a>
</g>
</g>
<!-- User -->
<g id="node2" class="node">
<title>User</title>
<g id="a_node2"><a xlink:href="../../tables/User.html" xlink:title="User" target="_top">
<polygon fill="#ffffff" stroke="transparent" points="8,-168.9376 8,-251.9376 112,-251.9376 112,-168.9376 8,-168.9376"/>
<polygon fill="#f5f5f5" stroke="transparent" points="8,-228.4376 8,-251.4376 112,-251.4376 112,-228.4376 8,-228.4376"/>
<polygon fill="none" stroke="#000000" points="8,-228.4376 8,-251.4376 112,-251.4376 112,-228.4376 8,-228.4376"/>
<text text-anchor="start" x="13" y="-237.0376" font-family="Helvetica,sans-Serif" font-weight="bold" font-size="11.00" fill="#000000">User</text>
<text text-anchor="start" x="77.0437" y="-236.5376" font-family="Helvetica,sans-Serif" font-size="11.00" fill="#000000">[table]</text>
<polygon fill="none" stroke="#000000" points="8,-206.4376 8,-228.4376 112,-228.4376 112,-206.4376 8,-206.4376"/>
<image xlink:href="../../images/primaryKeys.png" width="11px" height="12px" preserveAspectRatio="xMinYMin meet" x="13" y="-223.438"/>
<text text-anchor="start" x="28" y="-213.5376" font-family="Helvetica,sans-Serif" font-size="11.00" fill="#000000">userid_pk</text>
<polygon fill="none" stroke="#000000" points="8,-187.4376 8,-206.4376 112,-206.4376 112,-187.4376 8,-187.4376"/>
<text text-anchor="start" x="11" y="-193.5376" font-family="Helvetica,sans-Serif" font-size="11.00" fill="#000000">...</text>
<polygon fill="#ffffff" stroke="transparent" points="8,-168.4376 8,-187.4376 30,-187.4376 30,-168.4376 8,-168.4376"/>
<polygon fill="none" stroke="#000000" points="8,-168.4376 8,-187.4376 30,-187.4376 30,-168.4376 8,-168.4376"/>
<text text-anchor="start" x="11" y="-174.5376" font-family="Helvetica,sans-Serif" font-size="11.00" fill="#000000"> &#160;</text>
<polygon fill="#ffffff" stroke="transparent" points="30,-168.4376 30,-187.4376 73,-187.4376 73,-168.4376 30,-168.4376"/>
<polygon fill="none" stroke="#000000" points="30,-168.4376 30,-187.4376 73,-187.4376 73,-168.4376 30,-168.4376"/>
<text text-anchor="start" x="37.6105" y="-174.5376" font-family="Helvetica,sans-Serif" font-size="11.00" fill="#000000">0 rows</text>
<polygon fill="#ffffff" stroke="transparent" points="73,-168.4376 73,-187.4376 112,-187.4376 112,-168.4376 73,-168.4376"/>
<polygon fill="none" stroke="#000000" points="73,-168.4376 73,-187.4376 112,-187.4376 112,-168.4376 73,-168.4376"/>
<text text-anchor="start" x="81.1755" y="-174.5376" font-family="Helvetica,sans-Serif" font-size="11.00" fill="#000000">102 &gt;</text>
</a>
</g>
</g>
<!-- APPLICABLE&#45;&gt;User -->
<g id="edge1" class="edge">
<title>APPLICABLE:w&#45;&gt;User:e</title>
<path fill="none" stroke="#000000" d="M634.971,-157.792C622.9097,-146.9689 627.3881,-120.1811 606,-109.4376 516.0178,-64.2385 234.9839,-39.9707 153,-98.4376 107.4553,-130.9179 167.94,-217.4376 112,-217.4376"/>
<polygon fill="#000000" stroke="#000000" points="641.4056,-159.9227 647.8683,-165.8551 645.2028,-161.1802 649,-162.4376 649,-162.4376 649,-162.4376 645.2028,-161.1802 650.1317,-159.0202 641.4056,-159.9227 641.4056,-159.9227"/>
<ellipse fill="none" stroke="#000000" cx="638.3678" cy="-158.9167" rx="3.2" ry="3.2"/>
</g>
<!-- APPLICABLE&#45;&gt;User -->
<g id="edge5" class="edge">
<title>APPLICABLE:w&#45;&gt;User:e</title>
<path fill="none" stroke="#000000" d="M634.7082,-136.2393C617.9299,-122.6867 634.2585,-80.0232 606,-63.4376 519.1822,-12.4824 232.8151,-2.0917 153,-63.4376 96.8424,-106.6003 182.8286,-217.4376 112,-217.4376"/>
<polygon fill="#000000" stroke="#000000" points="641.3243,-138.1828 647.9853,-143.8917 645.1622,-139.3102 649,-140.4376 649,-140.4376 649,-140.4376 645.1622,-139.3102 650.0147,-136.9836 641.3243,-138.1828 641.3243,-138.1828"/>
<ellipse fill="none" stroke="#000000" cx="638.2541" cy="-137.2809" rx="3.2" ry="3.2"/>
</g>
<!-- DEPARTMENT -->
<g id="node3" class="node">
<title>DEPARTMENT</title>
<g id="a_node3"><a xlink:href="../../tables/DEPARTMENT.html" xlink:title="DEPARTMENT" target="_top">
<polygon fill="#ffffff" stroke="transparent" points="162,-453.9376 162,-580.9376 334,-580.9376 334,-453.9376 162,-453.9376"/>
<polygon fill="#f5f5f5" stroke="transparent" points="162,-557.4376 162,-580.4376 334,-580.4376 334,-557.4376 162,-557.4376"/>
<polygon fill="none" stroke="#000000" points="162,-557.4376 162,-580.4376 334,-580.4376 334,-557.4376 162,-557.4376"/>
<text text-anchor="start" x="167" y="-566.0376" font-family="Helvetica,sans-Serif" font-weight="bold" font-size="11.00" fill="#000000">DEPARTMENT</text>
<text text-anchor="start" x="299.0437" y="-565.5376" font-family="Helvetica,sans-Serif" font-size="11.00" fill="#000000">[table]</text>
<polygon fill="none" stroke="#000000" points="162,-535.4376 162,-557.4376 334,-557.4376 334,-535.4376 162,-535.4376"/>
<image xlink:href="../../images/primaryKeys.png" width="11px" height="12px" preserveAspectRatio="xMinYMin meet" x="167" y="-552.438"/>
<text text-anchor="start" x="182" y="-542.5376" font-family="Helvetica,sans-Serif" font-size="11.00" fill="#000000">ID</text>
<polygon fill="#ffffff" stroke="transparent" points="162,-513.4376 162,-535.4376 334,-535.4376 334,-513.4376 162,-513.4376"/>
<polygon fill="none" stroke="#000000" points="162,-513.4376 162,-535.4376 334,-535.4376 334,-513.4376 162,-513.4376"/>
<image xlink:href="../../images/foreignKeys.png" width="11px" height="12px" preserveAspectRatio="xMinYMin meet" x="167" y="-530.438"/>
<text text-anchor="start" x="182" y="-520.5376" font-family="Helvetica,sans-Serif" font-size="11.00" fill="#000000">CREATOR</text>
<polygon fill="#ffffff" stroke="transparent" points="162,-491.4376 162,-513.4376 334,-513.4376 334,-491.4376 162,-491.4376"/>
<polygon fill="none" stroke="#000000" points="162,-491.4376 162,-513.4376 334,-513.4376 334,-491.4376 162,-491.4376"/>
<image xlink:href="../../images/foreignKeys.png" width="11px" height="12px" preserveAspectRatio="xMinYMin meet" x="167" y="-508.438"/>
<text text-anchor="start" x="182" y="-498.5376" font-family="Helvetica,sans-Serif" font-size="11.00" fill="#000000">LAST_MODIFIER</text>
<polygon fill="none" stroke="#000000" points="162,-472.4376 162,-491.4376 334,-491.4376 334,-472.4376 162,-472.4376"/>
<text text-anchor="start" x="165" y="-478.5376" font-family="Helvetica,sans-Serif" font-size="11.00" fill="#000000">...</text>
<polygon fill="#ffffff" stroke="transparent" points="162,-453.4376 162,-472.4376 229,-472.4376 229,-453.4376 162,-453.4376"/>
<polygon fill="none" stroke="#000000" points="162,-453.4376 162,-472.4376 229,-472.4376 229,-453.4376 162,-453.4376"/>
<text text-anchor="start" x="165" y="-459.5376" font-family="Helvetica,sans-Serif" font-size="11.00" fill="#000000">&lt; 2</text>
<polygon fill="#ffffff" stroke="transparent" points="229,-453.4376 229,-472.4376 290,-472.4376 290,-453.4376 229,-453.4376"/>
<polygon fill="none" stroke="#000000" points="229,-453.4376 229,-472.4376 290,-472.4376 290,-453.4376 229,-453.4376"/>
<text text-anchor="start" x="254.6105" y="-459.5376" font-family="Helvetica,sans-Serif" font-size="11.00" fill="#000000">0 rows</text>
<polygon fill="#ffffff" stroke="transparent" points="290,-453.4376 290,-472.4376 334,-472.4376 334,-453.4376 290,-453.4376"/>
<polygon fill="none" stroke="#000000" points="290,-453.4376 290,-472.4376 334,-472.4376 334,-453.4376 290,-453.4376"/>
<text text-anchor="start" x="315.4053" y="-459.5376" font-family="Helvetica,sans-Serif" font-size="11.00" fill="#000000">7 &gt;</text>
</a>
</g>
</g>
<!-- APPLICABLE&#45;&gt;DEPARTMENT -->
<g id="edge2" class="edge">
<title>APPLICABLE:w&#45;&gt;DEPARTMENT:e</title>
<path fill="none" stroke="#000000" d="M634.5973,-404.8706C494.7742,-413.4425 482.6187,-546.4376 334,-546.4376"/>
<polygon fill="#000000" stroke="#000000" points="641.0036,-404.6781 649.1082,-408.036 645.0018,-404.5579 649,-404.4376 649,-404.4376 649,-404.4376 645.0018,-404.5579 648.8918,-400.8393 641.0036,-404.6781 641.0036,-404.6781"/>
<ellipse fill="none" stroke="#000000" cx="637.8051" cy="-404.7742" rx="3.2" ry="3.2"/>
</g>
<!-- DESIGNATION -->
<g id="node4" class="node">
<title>DESIGNATION</title>
<g id="a_node4"><a xlink:href="../../tables/DESIGNATION.html" xlink:title="DESIGNATION" target="_top">
<polygon fill="#ffffff" stroke="transparent" points="161,-305.9376 161,-432.9376 335,-432.9376 335,-305.9376 161,-305.9376"/>
<polygon fill="#f5f5f5" stroke="transparent" points="161,-409.4376 161,-432.4376 335,-432.4376 335,-409.4376 161,-409.4376"/>
<polygon fill="none" stroke="#000000" points="161,-409.4376 161,-432.4376 335,-432.4376 335,-409.4376 161,-409.4376"/>
<text text-anchor="start" x="166" y="-418.0376" font-family="Helvetica,sans-Serif" font-weight="bold" font-size="11.00" fill="#000000">DESIGNATION</text>
<text text-anchor="start" x="300.0437" y="-417.5376" font-family="Helvetica,sans-Serif" font-size="11.00" fill="#000000">[table]</text>
<polygon fill="none" stroke="#000000" points="161,-387.4376 161,-409.4376 335,-409.4376 335,-387.4376 161,-387.4376"/>
<image xlink:href="../../images/primaryKeys.png" width="11px" height="12px" preserveAspectRatio="xMinYMin meet" x="166" y="-404.438"/>
<text text-anchor="start" x="181" y="-394.5376" font-family="Helvetica,sans-Serif" font-size="11.00" fill="#000000">ID</text>
<polygon fill="#ffffff" stroke="transparent" points="161,-365.4376 161,-387.4376 335,-387.4376 335,-365.4376 161,-365.4376"/>
<polygon fill="none" stroke="#000000" points="161,-365.4376 161,-387.4376 335,-387.4376 335,-365.4376 161,-365.4376"/>
<image xlink:href="../../images/foreignKeys.png" width="11px" height="12px" preserveAspectRatio="xMinYMin meet" x="166" y="-382.438"/>
<text text-anchor="start" x="181" y="-372.5376" font-family="Helvetica,sans-Serif" font-size="11.00" fill="#000000">CREATOR</text>
<polygon fill="#ffffff" stroke="transparent" points="161,-343.4376 161,-365.4376 335,-365.4376 335,-343.4376 161,-343.4376"/>
<polygon fill="none" stroke="#000000" points="161,-343.4376 161,-365.4376 335,-365.4376 335,-343.4376 161,-343.4376"/>
<image xlink:href="../../images/foreignKeys.png" width="11px" height="12px" preserveAspectRatio="xMinYMin meet" x="166" y="-360.438"/>
<text text-anchor="start" x="181" y="-350.5376" font-family="Helvetica,sans-Serif" font-size="11.00" fill="#000000">LAST_MODIFIER</text>
<polygon fill="none" stroke="#000000" points="161,-324.4376 161,-343.4376 335,-343.4376 335,-324.4376 161,-324.4376"/>
<text text-anchor="start" x="164" y="-330.5376" font-family="Helvetica,sans-Serif" font-size="11.00" fill="#000000">...</text>
<polygon fill="#ffffff" stroke="transparent" points="161,-305.4376 161,-324.4376 229,-324.4376 229,-305.4376 161,-305.4376"/>
<polygon fill="none" stroke="#000000" points="161,-305.4376 161,-324.4376 229,-324.4376 229,-305.4376 161,-305.4376"/>
<text text-anchor="start" x="164" y="-311.5376" font-family="Helvetica,sans-Serif" font-size="11.00" fill="#000000">&lt; 2</text>
<polygon fill="#ffffff" stroke="transparent" points="229,-305.4376 229,-324.4376 290,-324.4376 290,-305.4376 229,-305.4376"/>
<polygon fill="none" stroke="#000000" points="229,-305.4376 229,-324.4376 290,-324.4376 290,-305.4376 229,-305.4376"/>
<text text-anchor="start" x="254.6105" y="-311.5376" font-family="Helvetica,sans-Serif" font-size="11.00" fill="#000000">0 rows</text>
<polygon fill="#ffffff" stroke="transparent" points="290,-305.4376 290,-324.4376 335,-324.4376 335,-305.4376 290,-305.4376"/>
<polygon fill="none" stroke="#000000" points="290,-305.4376 290,-324.4376 335,-324.4376 335,-305.4376 290,-305.4376"/>
<text text-anchor="start" x="316.4053" y="-311.5376" font-family="Helvetica,sans-Serif" font-size="11.00" fill="#000000">3 &gt;</text>
</a>
</g>
</g>
<!-- APPLICABLE&#45;&gt;DESIGNATION -->
<g id="edge3" class="edge">
<title>APPLICABLE:w&#45;&gt;DESIGNATION:e</title>
<path fill="none" stroke="#000000" d="M634.2549,-382.4988C506.6309,-383.573 469.6875,-398.4376 335,-398.4376"/>
<polygon fill="#000000" stroke="#000000" points="641.0001,-382.4709 649.015,-386.0376 645,-382.4543 649,-382.4376 649,-382.4376 649,-382.4376 645,-382.4543 648.985,-378.8377 641.0001,-382.4709 641.0001,-382.4709"/>
<ellipse fill="none" stroke="#000000" cx="637.8001" cy="-382.4842" rx="3.2" ry="3.2"/>
</g>
<!-- EMPLOYEE -->
<g id="node5" class="node">
<title>EMPLOYEE</title>
<g id="a_node5"><a xlink:href="../../tables/EMPLOYEE.html" xlink:title="EMPLOYEE" target="_top">
<polygon fill="#ffffff" stroke="transparent" points="384,-119.9376 384,-312.9376 598,-312.9376 598,-119.9376 384,-119.9376"/>
<polygon fill="#f5f5f5" stroke="transparent" points="384,-289.4376 384,-312.4376 598,-312.4376 598,-289.4376 384,-289.4376"/>
<polygon fill="none" stroke="#000000" points="384,-289.4376 384,-312.4376 598,-312.4376 598,-289.4376 384,-289.4376"/>
<text text-anchor="start" x="389" y="-298.0376" font-family="Helvetica,sans-Serif" font-weight="bold" font-size="11.00" fill="#000000">EMPLOYEE</text>
<text text-anchor="start" x="563.0437" y="-297.5376" font-family="Helvetica,sans-Serif" font-size="11.00" fill="#000000">[table]</text>
<polygon fill="none" stroke="#000000" points="384,-267.4376 384,-289.4376 598,-289.4376 598,-267.4376 384,-267.4376"/>
<image xlink:href="../../images/primaryKeys.png" width="11px" height="12px" preserveAspectRatio="xMinYMin meet" x="389" y="-284.438"/>
<text text-anchor="start" x="404" y="-274.5376" font-family="Helvetica,sans-Serif" font-size="11.00" fill="#000000">ID</text>
<polygon fill="#ffffff" stroke="transparent" points="384,-245.4376 384,-267.4376 598,-267.4376 598,-245.4376 384,-245.4376"/>
<polygon fill="none" stroke="#000000" points="384,-245.4376 384,-267.4376 598,-267.4376 598,-245.4376 384,-245.4376"/>
<image xlink:href="../../images/foreignKeys.png" width="11px" height="12px" preserveAspectRatio="xMinYMin meet" x="389" y="-262.438"/>
<text text-anchor="start" x="404" y="-252.5376" font-family="Helvetica,sans-Serif" font-size="11.00" fill="#000000">DEPARTMENT_ID</text>
<polygon fill="#ffffff" stroke="transparent" points="384,-223.4376 384,-245.4376 598,-245.4376 598,-223.4376 384,-223.4376"/>
<polygon fill="none" stroke="#000000" points="384,-223.4376 384,-245.4376 598,-245.4376 598,-223.4376 384,-223.4376"/>
<image xlink:href="../../images/foreignKeys.png" width="11px" height="12px" preserveAspectRatio="xMinYMin meet" x="389" y="-240.438"/>
<text text-anchor="start" x="404" y="-230.5376" font-family="Helvetica,sans-Serif" font-size="11.00" fill="#000000">LOCATION_ID</text>
<polygon fill="#ffffff" stroke="transparent" points="384,-201.4376 384,-223.4376 598,-223.4376 598,-201.4376 384,-201.4376"/>
<polygon fill="none" stroke="#000000" points="384,-201.4376 384,-223.4376 598,-223.4376 598,-201.4376 384,-201.4376"/>
<image xlink:href="../../images/foreignKeys.png" width="11px" height="12px" preserveAspectRatio="xMinYMin meet" x="389" y="-218.438"/>
<text text-anchor="start" x="404" y="-208.5376" font-family="Helvetica,sans-Serif" font-size="11.00" fill="#000000">DESIGNATION_ID</text>
<polygon fill="#ffffff" stroke="transparent" points="384,-179.4376 384,-201.4376 598,-201.4376 598,-179.4376 384,-179.4376"/>
<polygon fill="none" stroke="#000000" points="384,-179.4376 384,-201.4376 598,-201.4376 598,-179.4376 384,-179.4376"/>
<image xlink:href="../../images/foreignKeys.png" width="11px" height="12px" preserveAspectRatio="xMinYMin meet" x="389" y="-196.438"/>
<text text-anchor="start" x="404" y="-186.5376" font-family="Helvetica,sans-Serif" font-size="11.00" fill="#000000">CREATOR</text>
<polygon fill="#ffffff" stroke="transparent" points="384,-157.4376 384,-179.4376 598,-179.4376 598,-157.4376 384,-157.4376"/>
<polygon fill="none" stroke="#000000" points="384,-157.4376 384,-179.4376 598,-179.4376 598,-157.4376 384,-157.4376"/>
<image xlink:href="../../images/foreignKeys.png" width="11px" height="12px" preserveAspectRatio="xMinYMin meet" x="389" y="-174.438"/>
<text text-anchor="start" x="404" y="-164.5376" font-family="Helvetica,sans-Serif" font-size="11.00" fill="#000000">LAST_MODIFIER</text>
<polygon fill="none" stroke="#000000" points="384,-138.4376 384,-157.4376 598,-157.4376 598,-138.4376 384,-138.4376"/>
<text text-anchor="start" x="387" y="-144.5376" font-family="Helvetica,sans-Serif" font-size="11.00" fill="#000000">...</text>
<polygon fill="#ffffff" stroke="transparent" points="384,-119.4376 384,-138.4376 469,-138.4376 469,-119.4376 384,-119.4376"/>
<polygon fill="none" stroke="#000000" points="384,-119.4376 384,-138.4376 469,-138.4376 469,-119.4376 384,-119.4376"/>
<text text-anchor="start" x="387" y="-125.5376" font-family="Helvetica,sans-Serif" font-size="11.00" fill="#000000">&lt; 5</text>
<polygon fill="#ffffff" stroke="transparent" points="469,-119.4376 469,-138.4376 539,-138.4376 539,-119.4376 469,-119.4376"/>
<polygon fill="none" stroke="#000000" points="469,-119.4376 469,-138.4376 539,-138.4376 539,-119.4376 469,-119.4376"/>
<text text-anchor="start" x="503.6105" y="-125.5376" font-family="Helvetica,sans-Serif" font-size="11.00" fill="#000000">0 rows</text>
<polygon fill="#ffffff" stroke="transparent" points="539,-119.4376 539,-138.4376 598,-138.4376 598,-119.4376 539,-119.4376"/>
<polygon fill="none" stroke="#000000" points="539,-119.4376 539,-138.4376 598,-138.4376 598,-119.4376 539,-119.4376"/>
<text text-anchor="start" x="573.2904" y="-125.5376" font-family="Helvetica,sans-Serif" font-size="11.00" fill="#000000">15 &gt;</text>
</a>
</g>
</g>
<!-- APPLICABLE&#45;&gt;EMPLOYEE -->
<g id="edge4" class="edge">
<title>APPLICABLE:w&#45;&gt;EMPLOYEE:e</title>
<path fill="none" stroke="#000000" d="M635.2263,-233.0519C620.3844,-245.4298 623.791,-278.4376 598,-278.4376"/>
<polygon fill="#000000" stroke="#000000" points="641.4143,-230.9789 650.1436,-231.8512 645.2072,-229.7083 649,-228.4376 649,-228.4376 649,-228.4376 645.2072,-229.7083 647.8564,-225.0241 641.4143,-230.9789 641.4143,-230.9789"/>
<ellipse fill="none" stroke="#000000" cx="638.3801" cy="-231.9954" rx="3.2" ry="3.2"/>
</g>
<!-- LOCATION -->
<g id="node6" class="node">
<title>LOCATION</title>
<g id="a_node6"><a xlink:href="../../tables/LOCATION.html" xlink:title="LOCATION" target="_top">
<polygon fill="#ffffff" stroke="transparent" points="172,-157.9376 172,-284.9376 324,-284.9376 324,-157.9376 172,-157.9376"/>
<polygon fill="#f5f5f5" stroke="transparent" points="172,-261.4376 172,-284.4376 324,-284.4376 324,-261.4376 172,-261.4376"/>
<polygon fill="none" stroke="#000000" points="172,-261.4376 172,-284.4376 324,-284.4376 324,-261.4376 172,-261.4376"/>
<text text-anchor="start" x="177" y="-270.0376" font-family="Helvetica,sans-Serif" font-weight="bold" font-size="11.00" fill="#000000">LOCATION</text>
<text text-anchor="start" x="289.0437" y="-269.5376" font-family="Helvetica,sans-Serif" font-size="11.00" fill="#000000">[table]</text>
<polygon fill="none" stroke="#000000" points="172,-239.4376 172,-261.4376 324,-261.4376 324,-239.4376 172,-239.4376"/>
<image xlink:href="../../images/primaryKeys.png" width="11px" height="12px" preserveAspectRatio="xMinYMin meet" x="177" y="-256.438"/>
<text text-anchor="start" x="192" y="-246.5376" font-family="Helvetica,sans-Serif" font-size="11.00" fill="#000000">ID</text>
<polygon fill="#ffffff" stroke="transparent" points="172,-217.4376 172,-239.4376 324,-239.4376 324,-217.4376 172,-217.4376"/>
<polygon fill="none" stroke="#000000" points="172,-217.4376 172,-239.4376 324,-239.4376 324,-217.4376 172,-217.4376"/>
<image xlink:href="../../images/foreignKeys.png" width="11px" height="12px" preserveAspectRatio="xMinYMin meet" x="177" y="-234.438"/>
<text text-anchor="start" x="192" y="-224.5376" font-family="Helvetica,sans-Serif" font-size="11.00" fill="#000000">CREATOR</text>
<polygon fill="#ffffff" stroke="transparent" points="172,-195.4376 172,-217.4376 324,-217.4376 324,-195.4376 172,-195.4376"/>
<polygon fill="none" stroke="#000000" points="172,-195.4376 172,-217.4376 324,-217.4376 324,-195.4376 172,-195.4376"/>
<image xlink:href="../../images/foreignKeys.png" width="11px" height="12px" preserveAspectRatio="xMinYMin meet" x="177" y="-212.438"/>
<text text-anchor="start" x="192" y="-202.5376" font-family="Helvetica,sans-Serif" font-size="11.00" fill="#000000">LAST_MODIFIER</text>
<polygon fill="none" stroke="#000000" points="172,-176.4376 172,-195.4376 324,-195.4376 324,-176.4376 172,-176.4376"/>
<text text-anchor="start" x="175" y="-182.5376" font-family="Helvetica,sans-Serif" font-size="11.00" fill="#000000">...</text>
<polygon fill="#ffffff" stroke="transparent" points="172,-157.4376 172,-176.4376 229,-176.4376 229,-157.4376 172,-157.4376"/>
<polygon fill="none" stroke="#000000" points="172,-157.4376 172,-176.4376 229,-176.4376 229,-157.4376 172,-157.4376"/>
<text text-anchor="start" x="175" y="-163.5376" font-family="Helvetica,sans-Serif" font-size="11.00" fill="#000000">&lt; 2</text>
<polygon fill="#ffffff" stroke="transparent" points="229,-157.4376 229,-176.4376 285,-176.4376 285,-157.4376 229,-157.4376"/>
<polygon fill="none" stroke="#000000" points="229,-157.4376 229,-176.4376 285,-176.4376 285,-157.4376 229,-157.4376"/>
<text text-anchor="start" x="249.6105" y="-163.5376" font-family="Helvetica,sans-Serif" font-size="11.00" fill="#000000">0 rows</text>
<polygon fill="#ffffff" stroke="transparent" points="285,-157.4376 285,-176.4376 324,-176.4376 324,-157.4376 285,-157.4376"/>
<polygon fill="none" stroke="#000000" points="285,-157.4376 285,-176.4376 324,-176.4376 324,-157.4376 285,-157.4376"/>
<text text-anchor="start" x="305.4053" y="-163.5376" font-family="Helvetica,sans-Serif" font-size="11.00" fill="#000000">5 &gt;</text>
</a>
</g>
</g>
<!-- APPLICABLE&#45;&gt;LOCATION -->
<g id="edge6" class="edge">
<title>APPLICABLE:w&#45;&gt;LOCATION:e</title>
<path fill="none" stroke="#000000" d="M634.3115,-360.5624C522.7056,-362.444 476.5143,-384.1375 376,-323.4376 341.9011,-302.8456 363.8342,-250.4376 324,-250.4376"/>
<polygon fill="#000000" stroke="#000000" points="641.0003,-360.5056 649.0306,-364.0375 645.0001,-360.4716 649,-360.4376 649,-360.4376 649,-360.4376 645.0001,-360.4716 648.9694,-356.8378 641.0003,-360.5056 641.0003,-360.5056"/>
<ellipse fill="none" stroke="#000000" cx="637.8004" cy="-360.5328" rx="3.2" ry="3.2"/>
</g>
<!-- DEPARTMENT&#45;&gt;User -->
<g id="edge7" class="edge">
<title>DEPARTMENT:w&#45;&gt;User:e</title>
<path fill="none" stroke="#000000" d="M148.5311,-519.1091C105.7063,-478.3427 175.721,-217.4376 112,-217.4376"/>
<polygon fill="#000000" stroke="#000000" points="154.561,-521.4946 160.6756,-527.7852 158.2805,-522.9661 162,-524.4376 162,-524.4376 162,-524.4376 158.2805,-522.9661 163.3244,-521.0901 154.561,-521.4946 154.561,-521.4946"/>
<ellipse fill="none" stroke="#000000" cx="151.5854" cy="-520.3174" rx="3.2" ry="3.2"/>
</g>
<!-- DEPARTMENT&#45;&gt;User -->
<g id="edge8" class="edge">
<title>DEPARTMENT:w&#45;&gt;User:e</title>
<path fill="none" stroke="#000000" d="M148.6538,-496.7447C109.894,-456.5768 170.9004,-217.4376 112,-217.4376"/>
<polygon fill="#000000" stroke="#000000" points="154.6415,-499.2988 160.5875,-505.749 158.3207,-500.8682 162,-502.4376 162,-502.4376 162,-502.4376 158.3207,-500.8682 163.4125,-499.1263 154.6415,-499.2988 154.6415,-499.2988"/>
<ellipse fill="none" stroke="#000000" cx="151.6981" cy="-498.0432" rx="3.2" ry="3.2"/>
</g>
<!-- DESIGNATION&#45;&gt;User -->
<g id="edge9" class="edge">
<title>DESIGNATION:w&#45;&gt;User:e</title>
<path fill="none" stroke="#000000" d="M146.6688,-373.6779C101.4508,-352.5644 180.1692,-217.4376 112,-217.4376"/>
<polygon fill="#000000" stroke="#000000" points="153.1443,-374.9248 160.3192,-379.9727 157.0722,-375.6812 161,-376.4376 161,-376.4376 161,-376.4376 157.0722,-375.6812 161.6808,-372.9026 153.1443,-374.9248 153.1443,-374.9248"/>
<ellipse fill="none" stroke="#000000" cx="150.0021" cy="-374.3197" rx="3.2" ry="3.2"/>
</g>
<!-- DESIGNATION&#45;&gt;User -->
<g id="edge10" class="edge">
<title>DESIGNATION:w&#45;&gt;User:e</title>
<path fill="none" stroke="#000000" d="M146.8714,-351.3188C109.5981,-330.9263 170.8564,-217.4376 112,-217.4376"/>
<polygon fill="#000000" stroke="#000000" points="153.1881,-352.7132 160.224,-357.953 157.094,-353.5754 161,-354.4376 161,-354.4376 161,-354.4376 157.094,-353.5754 161.776,-350.9223 153.1881,-352.7132 153.1881,-352.7132"/>
<ellipse fill="none" stroke="#000000" cx="150.0633" cy="-352.0234" rx="3.2" ry="3.2"/>
</g>
<!-- EMPLOYEE&#45;&gt;User -->
<g id="edge11" class="edge">
<title>EMPLOYEE:w&#45;&gt;User:e</title>
<path fill="none" stroke="#000000" d="M370.1692,-185.479C360.2911,-175.9473 361.3952,-155.315 343,-147.4376 265.3737,-114.1959 226.2626,-105.4442 153,-147.4376 121.7194,-165.3674 148.0548,-217.4376 112,-217.4376"/>
<polygon fill="#000000" stroke="#000000" points="376.4694,-187.7377 382.785,-193.8264 380.2347,-189.0877 384,-190.4376 384,-190.4376 384,-190.4376 380.2347,-189.0877 385.215,-187.0489 376.4694,-187.7377 376.4694,-187.7377"/>
<ellipse fill="none" stroke="#000000" cx="373.4571" cy="-186.6577" rx="3.2" ry="3.2"/>
</g>
<!-- EMPLOYEE&#45;&gt;User -->
<g id="edge14" class="edge">
<title>EMPLOYEE:w&#45;&gt;User:e</title>
<path fill="none" stroke="#000000" d="M370.265,-163.5935C359.238,-152.861 363.4904,-127.2558 343,-117.4376 304.9232,-99.1929 188.0642,-93.9171 153,-117.4376 113.1085,-144.1963 160.035,-217.4376 112,-217.4376"/>
<polygon fill="#000000" stroke="#000000" points="376.4555,-165.7767 382.8026,-171.8327 380.2277,-167.1072 384,-168.4376 384,-168.4376 384,-168.4376 380.2277,-167.1072 385.1974,-165.0426 376.4555,-165.7767 376.4555,-165.7767"/>
<ellipse fill="none" stroke="#000000" cx="373.4377" cy="-164.7124" rx="3.2" ry="3.2"/>
</g>
<!-- EMPLOYEE&#45;&gt;DEPARTMENT -->
<g id="edge12" class="edge">
<title>EMPLOYEE:w&#45;&gt;DEPARTMENT:e</title>
<path fill="none" stroke="#000000" d="M370.6963,-261.9718C330.8757,-302.0643 394.0308,-546.4376 334,-546.4376"/>
<polygon fill="#000000" stroke="#000000" points="376.6136,-259.5103 385.3827,-259.7615 380.3068,-257.974 384,-256.4376 384,-256.4376 384,-256.4376 380.3068,-257.974 382.6173,-253.1138 376.6136,-259.5103 376.6136,-259.5103"/>
<ellipse fill="none" stroke="#000000" cx="373.659" cy="-260.7394" rx="3.2" ry="3.2"/>
</g>
<!-- EMPLOYEE&#45;&gt;DESIGNATION -->
<g id="edge13" class="edge">
<title>EMPLOYEE:w&#45;&gt;DESIGNATION:e</title>
<path fill="none" stroke="#000000" d="M369.5924,-214.7894C313.7977,-236.3206 414.8103,-398.4376 335,-398.4376"/>
<polygon fill="#000000" stroke="#000000" points="376.1045,-213.7265 384.58,-215.9906 380.0522,-213.0821 384,-212.4376 384,-212.4376 384,-212.4376 380.0522,-213.0821 383.42,-208.8847 376.1045,-213.7265 376.1045,-213.7265"/>
<ellipse fill="none" stroke="#000000" cx="372.9463" cy="-214.242" rx="3.2" ry="3.2"/>
</g>
<!-- EMPLOYEE&#45;&gt;LOCATION -->
<g id="edge15" class="edge">
<title>EMPLOYEE:w&#45;&gt;LOCATION:e</title>
<path fill="none" stroke="#000000" d="M369.6217,-236.1499C353.5097,-240.2775 345.9926,-250.4376 324,-250.4376"/>
<polygon fill="#000000" stroke="#000000" points="376.0561,-235.3837 384.4257,-238.0124 380.0281,-234.9107 384,-234.4376 384,-234.4376 384,-234.4376 380.0281,-234.9107 383.5743,-230.8629 376.0561,-235.3837 376.0561,-235.3837"/>
<ellipse fill="none" stroke="#000000" cx="372.8786" cy="-235.7621" rx="3.2" ry="3.2"/>
</g>
<!-- LOCATION&#45;&gt;User -->
<g id="edge16" class="edge">
<title>LOCATION:w&#45;&gt;User:e</title>
<path fill="none" stroke="#000000" d="M157.291,-227.1758C141.5022,-224.2865 133.3924,-217.4376 112,-217.4376"/>
<polygon fill="#000000" stroke="#000000" points="164.0293,-227.7538 171.6923,-232.0245 168.0146,-228.0957 172,-228.4376 172,-228.4376 172,-228.4376 168.0146,-228.0957 172.3077,-224.8508 164.0293,-227.7538 164.0293,-227.7538"/>
<ellipse fill="none" stroke="#000000" cx="160.841" cy="-227.4803" rx="3.2" ry="3.2"/>
</g>
<!-- LOCATION&#45;&gt;User -->
<g id="edge17" class="edge">
<title>LOCATION:w&#45;&gt;User:e</title>
<path fill="none" stroke="#000000" d="M157.291,-207.6995C141.5022,-210.5888 133.3924,-217.4376 112,-217.4376"/>
<polygon fill="#000000" stroke="#000000" points="164.0293,-207.1215 172.3077,-210.0245 168.0146,-206.7796 172,-206.4376 172,-206.4376 172,-206.4376 168.0146,-206.7796 171.6923,-202.8508 164.0293,-207.1215 164.0293,-207.1215"/>
<ellipse fill="none" stroke="#000000" cx="160.841" cy="-207.395" rx="3.2" ry="3.2"/>
</g>
</g>
</svg>
