<?xml version="1.0" encoding="UTF-8" standalone="no"?>
<!DOCTYPE svg PUBLIC "-//W3C//DTD SVG 1.1//EN"
 "http://www.w3.org/Graphics/SVG/1.1/DTD/svg11.dtd">
<!-- Generated by graphviz version 2.40.1 (20161225.0304)
 -->
<!-- Title: oneDegreeRelationshipsDiagram Pages: 1 -->
<svg width="727pt" height="1194pt"
 viewBox="0.00 0.00 727.00 1194.00" xmlns="http://www.w3.org/2000/svg" xmlns:xlink="http://www.w3.org/1999/xlink">
<g id="graph0" class="graph" transform="scale(1 1) rotate(0) translate(4 1190)">
<title>oneDegreeRelationshipsDiagram</title>
<polygon fill="#ffffff" stroke="transparent" points="-4,4 -4,-1190 723,-1190 723,4 -4,4"/>
<!-- APPLICANT -->
<g id="node1" class="node">
<title>APPLICANT</title>
<g id="a_node1"><a xlink:href="../../tables/APPLICANT.html" xlink:title="APPLICANT" target="_top">
<polygon fill="#ffffff" stroke="transparent" points="161,-175.5 161,-991.5 423,-991.5 423,-175.5 161,-175.5"/>
<polygon fill="#f5f5f5" stroke="transparent" points="163,-966.5 163,-989.5 421,-989.5 421,-966.5 163,-966.5"/>
<polygon fill="none" stroke="#000000" points="163,-966.5 163,-989.5 421,-989.5 421,-966.5 163,-966.5"/>
<text text-anchor="start" x="168" y="-975.1" font-family="Helvetica,sans-Serif" font-weight="bold" font-size="11.00" fill="#000000">APPLICANT</text>
<text text-anchor="start" x="386.0437" y="-974.6" font-family="Helvetica,sans-Serif" font-size="11.00" fill="#000000">[table]</text>
<polygon fill="none" stroke="#000000" points="163,-944.5 163,-966.5 354,-966.5 354,-944.5 163,-944.5"/>
<image xlink:href="../../images/primaryKeys.png" width="11px" height="12px" preserveAspectRatio="xMinYMin meet" x="168" y="-961.5"/>
<text text-anchor="start" x="183" y="-951.6" font-family="Helvetica,sans-Serif" font-size="11.00" fill="#000000">ID</text>
<polygon fill="none" stroke="#000000" points="354,-944.5 354,-966.5 421,-966.5 421,-944.5 354,-944.5"/>
<text text-anchor="start" x="357" y="-952.2" font-family="Helvetica,sans-Serif" font-size="11.00" fill="#000000">int[10]</text>
<polygon fill="none" stroke="#000000" points="163,-922.5 163,-944.5 354,-944.5 354,-922.5 163,-922.5"/>
<text text-anchor="start" x="183" y="-929.6" font-family="Helvetica,sans-Serif" font-size="11.00" fill="#000000">DELETED</text>
<polygon fill="none" stroke="#000000" points="354,-922.5 354,-944.5 421,-944.5 421,-922.5 354,-922.5"/>
<text text-anchor="start" x="357" y="-930.2" font-family="Helvetica,sans-Serif" font-size="11.00" fill="#000000">bit[1]</text>
<polygon fill="none" stroke="#000000" points="163,-900.5 163,-922.5 354,-922.5 354,-900.5 163,-900.5"/>
<text text-anchor="start" x="183" y="-907.6" font-family="Helvetica,sans-Serif" font-size="11.00" fill="#000000">WORKSPACE_ID</text>
<polygon fill="none" stroke="#000000" points="354,-900.5 354,-922.5 421,-922.5 421,-900.5 354,-900.5"/>
<text text-anchor="start" x="357" y="-908.2" font-family="Helvetica,sans-Serif" font-size="11.00" fill="#000000">int[10]</text>
<polygon fill="none" stroke="#000000" points="163,-878.5 163,-900.5 354,-900.5 354,-878.5 163,-878.5"/>
<text text-anchor="start" x="183" y="-885.6" font-family="Helvetica,sans-Serif" font-size="11.00" fill="#000000">FIRST_NAME</text>
<polygon fill="none" stroke="#000000" points="354,-878.5 354,-900.5 421,-900.5 421,-878.5 354,-878.5"/>
<text text-anchor="start" x="356.9365" y="-886.2" font-family="Helvetica,sans-Serif" font-size="11.00" fill="#000000">varchar[255]</text>
<polygon fill="none" stroke="#000000" points="163,-856.5 163,-878.5 354,-878.5 354,-856.5 163,-856.5"/>
<text text-anchor="start" x="183" y="-863.6" font-family="Helvetica,sans-Serif" font-size="11.00" fill="#000000">LAST_NAME</text>
<polygon fill="none" stroke="#000000" points="354,-856.5 354,-878.5 421,-878.5 421,-856.5 354,-856.5"/>
<text text-anchor="start" x="356.9365" y="-864.2" font-family="Helvetica,sans-Serif" font-size="11.00" fill="#000000">varchar[255]</text>
<polygon fill="none" stroke="#000000" points="163,-834.5 163,-856.5 354,-856.5 354,-834.5 163,-834.5"/>
<text text-anchor="start" x="183" y="-841.6" font-family="Helvetica,sans-Serif" font-size="11.00" fill="#000000">EMAIL_ID</text>
<polygon fill="none" stroke="#000000" points="354,-834.5 354,-856.5 421,-856.5 421,-834.5 354,-834.5"/>
<text text-anchor="start" x="357" y="-842.2" font-family="Helvetica,sans-Serif" font-size="11.00" fill="#000000">varchar[50]</text>
<polygon fill="none" stroke="#000000" points="163,-812.5 163,-834.5 354,-834.5 354,-812.5 163,-812.5"/>
<text text-anchor="start" x="183" y="-819.6" font-family="Helvetica,sans-Serif" font-size="11.00" fill="#000000">MOBILE</text>
<polygon fill="none" stroke="#000000" points="354,-812.5 354,-834.5 421,-834.5 421,-812.5 354,-812.5"/>
<text text-anchor="start" x="357" y="-820.2" font-family="Helvetica,sans-Serif" font-size="11.00" fill="#000000">varchar[20]</text>
<polygon fill="none" stroke="#000000" points="163,-790.5 163,-812.5 354,-812.5 354,-790.5 163,-790.5"/>
<text text-anchor="start" x="183" y="-797.6" font-family="Helvetica,sans-Serif" font-size="11.00" fill="#000000">PHONE</text>
<polygon fill="none" stroke="#000000" points="354,-790.5 354,-812.5 421,-812.5 421,-790.5 354,-790.5"/>
<text text-anchor="start" x="357" y="-798.2" font-family="Helvetica,sans-Serif" font-size="11.00" fill="#000000">varchar[20]</text>
<polygon fill="none" stroke="#000000" points="163,-768.5 163,-790.5 354,-790.5 354,-768.5 163,-768.5"/>
<text text-anchor="start" x="183" y="-775.6" font-family="Helvetica,sans-Serif" font-size="11.00" fill="#000000">FAX</text>
<polygon fill="none" stroke="#000000" points="354,-768.5 354,-790.5 421,-790.5 421,-768.5 354,-768.5"/>
<text text-anchor="start" x="357" y="-776.2" font-family="Helvetica,sans-Serif" font-size="11.00" fill="#000000">varchar[20]</text>
<polygon fill="none" stroke="#000000" points="163,-746.5 163,-768.5 354,-768.5 354,-746.5 163,-746.5"/>
<text text-anchor="start" x="183" y="-753.6" font-family="Helvetica,sans-Serif" font-size="11.00" fill="#000000">WEBSITE</text>
<polygon fill="none" stroke="#000000" points="354,-746.5 354,-768.5 421,-768.5 421,-746.5 354,-746.5"/>
<text text-anchor="start" x="356.9365" y="-754.2" font-family="Helvetica,sans-Serif" font-size="11.00" fill="#000000">varchar[255]</text>
<polygon fill="none" stroke="#000000" points="163,-724.5 163,-746.5 354,-746.5 354,-724.5 163,-724.5"/>
<text text-anchor="start" x="183" y="-731.6" font-family="Helvetica,sans-Serif" font-size="11.00" fill="#000000">SECONDARY_EMAIL</text>
<polygon fill="none" stroke="#000000" points="354,-724.5 354,-746.5 421,-746.5 421,-724.5 354,-724.5"/>
<text text-anchor="start" x="356.9365" y="-732.2" font-family="Helvetica,sans-Serif" font-size="11.00" fill="#000000">varchar[255]</text>
<polygon fill="none" stroke="#000000" points="163,-702.5 163,-724.5 354,-724.5 354,-702.5 163,-702.5"/>
<text text-anchor="start" x="183" y="-709.6" font-family="Helvetica,sans-Serif" font-size="11.00" fill="#000000">PRESENT_ADDRESS</text>
<polygon fill="none" stroke="#000000" points="354,-702.5 354,-724.5 421,-724.5 421,-702.5 354,-702.5"/>
<text text-anchor="start" x="356.9365" y="-710.2" font-family="Helvetica,sans-Serif" font-size="11.00" fill="#000000">varchar[255]</text>
<polygon fill="none" stroke="#000000" points="163,-680.5 163,-702.5 354,-702.5 354,-680.5 163,-680.5"/>
<text text-anchor="start" x="183" y="-687.6" font-family="Helvetica,sans-Serif" font-size="11.00" fill="#000000">STREET</text>
<polygon fill="none" stroke="#000000" points="354,-680.5 354,-702.5 421,-702.5 421,-680.5 354,-680.5"/>
<text text-anchor="start" x="356.9365" y="-688.2" font-family="Helvetica,sans-Serif" font-size="11.00" fill="#000000">varchar[255]</text>
<polygon fill="none" stroke="#000000" points="163,-658.5 163,-680.5 354,-680.5 354,-658.5 163,-658.5"/>
<text text-anchor="start" x="183" y="-665.6" font-family="Helvetica,sans-Serif" font-size="11.00" fill="#000000">CITY</text>
<polygon fill="none" stroke="#000000" points="354,-658.5 354,-680.5 421,-680.5 421,-658.5 354,-658.5"/>
<text text-anchor="start" x="356.9365" y="-666.2" font-family="Helvetica,sans-Serif" font-size="11.00" fill="#000000">varchar[255]</text>
<polygon fill="none" stroke="#000000" points="163,-636.5 163,-658.5 354,-658.5 354,-636.5 163,-636.5"/>
<text text-anchor="start" x="183" y="-643.6" font-family="Helvetica,sans-Serif" font-size="11.00" fill="#000000">PROVINCE</text>
<polygon fill="none" stroke="#000000" points="354,-636.5 354,-658.5 421,-658.5 421,-636.5 354,-636.5"/>
<text text-anchor="start" x="356.9365" y="-644.2" font-family="Helvetica,sans-Serif" font-size="11.00" fill="#000000">varchar[255]</text>
<polygon fill="none" stroke="#000000" points="163,-614.5 163,-636.5 354,-636.5 354,-614.5 163,-614.5"/>
<text text-anchor="start" x="183" y="-621.6" font-family="Helvetica,sans-Serif" font-size="11.00" fill="#000000">POSTAL_CODE</text>
<polygon fill="none" stroke="#000000" points="354,-614.5 354,-636.5 421,-636.5 421,-614.5 354,-614.5"/>
<text text-anchor="start" x="357" y="-622.2" font-family="Helvetica,sans-Serif" font-size="11.00" fill="#000000">varchar[20]</text>
<polygon fill="none" stroke="#000000" points="163,-592.5 163,-614.5 354,-614.5 354,-592.5 163,-592.5"/>
<text text-anchor="start" x="183" y="-599.6" font-family="Helvetica,sans-Serif" font-size="11.00" fill="#000000">COUNTRY</text>
<polygon fill="none" stroke="#000000" points="354,-592.5 354,-614.5 421,-614.5 421,-592.5 354,-592.5"/>
<text text-anchor="start" x="356.9365" y="-600.2" font-family="Helvetica,sans-Serif" font-size="11.00" fill="#000000">varchar[255]</text>
<polygon fill="none" stroke="#000000" points="163,-570.5 163,-592.5 354,-592.5 354,-570.5 163,-570.5"/>
<text text-anchor="start" x="183" y="-577.6" font-family="Helvetica,sans-Serif" font-size="11.00" fill="#000000">EXPERIENCE_IN_YEARS</text>
<polygon fill="none" stroke="#000000" points="354,-570.5 354,-592.5 421,-592.5 421,-570.5 354,-570.5"/>
<text text-anchor="start" x="357" y="-578.2" font-family="Helvetica,sans-Serif" font-size="11.00" fill="#000000">int[10]</text>
<polygon fill="none" stroke="#000000" points="163,-548.5 163,-570.5 354,-570.5 354,-548.5 163,-548.5"/>
<text text-anchor="start" x="183" y="-555.6" font-family="Helvetica,sans-Serif" font-size="11.00" fill="#000000">HIGHEST_QUALIFICATION</text>
<polygon fill="none" stroke="#000000" points="354,-548.5 354,-570.5 421,-570.5 421,-548.5 354,-548.5"/>
<text text-anchor="start" x="356.9365" y="-556.2" font-family="Helvetica,sans-Serif" font-size="11.00" fill="#000000">varchar[255]</text>
<polygon fill="none" stroke="#000000" points="163,-526.5 163,-548.5 354,-548.5 354,-526.5 163,-526.5"/>
<text text-anchor="start" x="183" y="-533.6" font-family="Helvetica,sans-Serif" font-size="11.00" fill="#000000">CURRENT_JOB_TITLE</text>
<polygon fill="none" stroke="#000000" points="354,-526.5 354,-548.5 421,-548.5 421,-526.5 354,-526.5"/>
<text text-anchor="start" x="356.9365" y="-534.2" font-family="Helvetica,sans-Serif" font-size="11.00" fill="#000000">varchar[255]</text>
<polygon fill="none" stroke="#000000" points="163,-504.5 163,-526.5 354,-526.5 354,-504.5 163,-504.5"/>
<text text-anchor="start" x="183" y="-511.6" font-family="Helvetica,sans-Serif" font-size="11.00" fill="#000000">CURRENT_EMPLOYER</text>
<polygon fill="none" stroke="#000000" points="354,-504.5 354,-526.5 421,-526.5 421,-504.5 354,-504.5"/>
<text text-anchor="start" x="356.9365" y="-512.2" font-family="Helvetica,sans-Serif" font-size="11.00" fill="#000000">varchar[255]</text>
<polygon fill="none" stroke="#000000" points="163,-482.5 163,-504.5 354,-504.5 354,-482.5 163,-482.5"/>
<text text-anchor="start" x="183" y="-489.6" font-family="Helvetica,sans-Serif" font-size="11.00" fill="#000000">EXPECTED_SALARY</text>
<polygon fill="none" stroke="#000000" points="354,-482.5 354,-504.5 421,-504.5 421,-482.5 354,-482.5"/>
<text text-anchor="start" x="357" y="-490.2" font-family="Helvetica,sans-Serif" font-size="11.00" fill="#000000">int[10]</text>
<polygon fill="none" stroke="#000000" points="163,-460.5 163,-482.5 354,-482.5 354,-460.5 163,-460.5"/>
<text text-anchor="start" x="183" y="-467.6" font-family="Helvetica,sans-Serif" font-size="11.00" fill="#000000">CURRENT_SALARY</text>
<polygon fill="none" stroke="#000000" points="354,-460.5 354,-482.5 421,-482.5 421,-460.5 354,-460.5"/>
<text text-anchor="start" x="357" y="-468.2" font-family="Helvetica,sans-Serif" font-size="11.00" fill="#000000">int[10]</text>
<polygon fill="none" stroke="#000000" points="163,-438.5 163,-460.5 354,-460.5 354,-438.5 163,-438.5"/>
<text text-anchor="start" x="183" y="-445.6" font-family="Helvetica,sans-Serif" font-size="11.00" fill="#000000">SKILL_SET</text>
<polygon fill="none" stroke="#000000" points="354,-438.5 354,-460.5 421,-460.5 421,-438.5 354,-438.5"/>
<text text-anchor="start" x="356.9365" y="-446.2" font-family="Helvetica,sans-Serif" font-size="11.00" fill="#000000">varchar[255]</text>
<polygon fill="none" stroke="#000000" points="163,-416.5 163,-438.5 354,-438.5 354,-416.5 163,-416.5"/>
<text text-anchor="start" x="183" y="-423.6" font-family="Helvetica,sans-Serif" font-size="11.00" fill="#000000">UNIQUE_ID_CANDIDATE</text>
<polygon fill="none" stroke="#000000" points="354,-416.5 354,-438.5 421,-438.5 421,-416.5 354,-416.5"/>
<text text-anchor="start" x="356.9365" y="-424.2" font-family="Helvetica,sans-Serif" font-size="11.00" fill="#000000">varchar[255]</text>
<polygon fill="none" stroke="#000000" points="163,-394.5 163,-416.5 354,-416.5 354,-394.5 163,-394.5"/>
<text text-anchor="start" x="183" y="-401.6" font-family="Helvetica,sans-Serif" font-size="11.00" fill="#000000">CANDIDATE_SOURCE</text>
<polygon fill="none" stroke="#000000" points="354,-394.5 354,-416.5 421,-416.5 421,-394.5 354,-394.5"/>
<text text-anchor="start" x="356.9365" y="-402.2" font-family="Helvetica,sans-Serif" font-size="11.00" fill="#000000">varchar[255]</text>
<polygon fill="none" stroke="#000000" points="163,-372.5 163,-394.5 354,-394.5 354,-372.5 163,-372.5"/>
<text text-anchor="start" x="183" y="-379.6" font-family="Helvetica,sans-Serif" font-size="11.00" fill="#000000">CANDIDATE_STATUS</text>
<polygon fill="none" stroke="#000000" points="354,-372.5 354,-394.5 421,-394.5 421,-372.5 354,-372.5"/>
<text text-anchor="start" x="357" y="-380.2" font-family="Helvetica,sans-Serif" font-size="11.00" fill="#000000">enum[21]</text>
<polygon fill="none" stroke="#000000" points="163,-350.5 163,-372.5 354,-372.5 354,-350.5 163,-350.5"/>
<text text-anchor="start" x="183" y="-357.6" font-family="Helvetica,sans-Serif" font-size="11.00" fill="#000000">APPLCIANT_SOURCE</text>
<polygon fill="none" stroke="#000000" points="354,-350.5 354,-372.5 421,-372.5 421,-350.5 354,-350.5"/>
<text text-anchor="start" x="357" y="-358.2" font-family="Helvetica,sans-Serif" font-size="11.00" fill="#000000">enum[26]</text>
<polygon fill="none" stroke="#000000" points="163,-328.5 163,-350.5 354,-350.5 354,-328.5 163,-328.5"/>
<text text-anchor="start" x="183" y="-335.6" font-family="Helvetica,sans-Serif" font-size="11.00" fill="#000000">CANDIDATE_OWNER</text>
<polygon fill="none" stroke="#000000" points="354,-328.5 354,-350.5 421,-350.5 421,-328.5 354,-328.5"/>
<text text-anchor="start" x="356.9365" y="-336.2" font-family="Helvetica,sans-Serif" font-size="11.00" fill="#000000">varchar[255]</text>
<polygon fill="none" stroke="#000000" points="163,-306.5 163,-328.5 354,-328.5 354,-306.5 163,-306.5"/>
<text text-anchor="start" x="183" y="-313.6" font-family="Helvetica,sans-Serif" font-size="11.00" fill="#000000">CREATED_TIME</text>
<polygon fill="none" stroke="#000000" points="354,-306.5 354,-328.5 421,-328.5 421,-306.5 354,-306.5"/>
<text text-anchor="start" x="357" y="-314.2" font-family="Helvetica,sans-Serif" font-size="11.00" fill="#000000">datetime[26]</text>
<polygon fill="none" stroke="#000000" points="163,-284.5 163,-306.5 354,-306.5 354,-284.5 163,-284.5"/>
<text text-anchor="start" x="183" y="-291.6" font-family="Helvetica,sans-Serif" font-size="11.00" fill="#000000">MODIFIED_TIME</text>
<polygon fill="none" stroke="#000000" points="354,-284.5 354,-306.5 421,-306.5 421,-284.5 354,-284.5"/>
<text text-anchor="start" x="357" y="-292.2" font-family="Helvetica,sans-Serif" font-size="11.00" fill="#000000">datetime[26]</text>
<polygon fill="none" stroke="#000000" points="163,-262.5 163,-284.5 354,-284.5 354,-262.5 163,-262.5"/>
<text text-anchor="start" x="183" y="-269.6" font-family="Helvetica,sans-Serif" font-size="11.00" fill="#000000">PROCESS_INSTANCE_ID</text>
<polygon fill="none" stroke="#000000" points="354,-262.5 354,-284.5 421,-284.5 421,-262.5 354,-262.5"/>
<text text-anchor="start" x="356.9365" y="-270.2" font-family="Helvetica,sans-Serif" font-size="11.00" fill="#000000">varchar[255]</text>
<polygon fill="none" stroke="#000000" points="163,-240.5 163,-262.5 354,-262.5 354,-240.5 163,-240.5"/>
<text text-anchor="start" x="183" y="-247.6" font-family="Helvetica,sans-Serif" font-size="11.00" fill="#000000">WORKFLOW_STAGE</text>
<polygon fill="none" stroke="#000000" points="354,-240.5 354,-262.5 421,-262.5 421,-240.5 354,-240.5"/>
<text text-anchor="start" x="356.9365" y="-248.2" font-family="Helvetica,sans-Serif" font-size="11.00" fill="#000000">varchar[255]</text>
<polygon fill="#ffffff" stroke="transparent" points="163,-218.5 163,-240.5 354,-240.5 354,-218.5 163,-218.5"/>
<polygon fill="none" stroke="#000000" points="163,-218.5 163,-240.5 354,-240.5 354,-218.5 163,-218.5"/>
<image xlink:href="../../images/foreignKeys.png" width="11px" height="12px" preserveAspectRatio="xMinYMin meet" x="168" y="-235.5"/>
<text text-anchor="start" x="183" y="-225.6" font-family="Helvetica,sans-Serif" font-size="11.00" fill="#000000">CREATOR</text>
<polygon fill="none" stroke="#000000" points="354,-218.5 354,-240.5 421,-240.5 421,-218.5 354,-218.5"/>
<text text-anchor="start" x="357" y="-226.2" font-family="Helvetica,sans-Serif" font-size="11.00" fill="#000000">int[10]</text>
<polygon fill="#ffffff" stroke="transparent" points="163,-196.5 163,-218.5 354,-218.5 354,-196.5 163,-196.5"/>
<polygon fill="none" stroke="#000000" points="163,-196.5 163,-218.5 354,-218.5 354,-196.5 163,-196.5"/>
<image xlink:href="../../images/foreignKeys.png" width="11px" height="12px" preserveAspectRatio="xMinYMin meet" x="168" y="-213.5"/>
<text text-anchor="start" x="183" y="-203.6" font-family="Helvetica,sans-Serif" font-size="11.00" fill="#000000">LAST_MODIFIER</text>
<polygon fill="none" stroke="#000000" points="354,-196.5 354,-218.5 421,-218.5 421,-196.5 354,-196.5"/>
<text text-anchor="start" x="357" y="-204.2" font-family="Helvetica,sans-Serif" font-size="11.00" fill="#000000">int[10]</text>
<polygon fill="#ffffff" stroke="transparent" points="163,-177.5 163,-196.5 250,-196.5 250,-177.5 163,-177.5"/>
<polygon fill="none" stroke="#000000" points="163,-177.5 163,-196.5 250,-196.5 250,-177.5 163,-177.5"/>
<text text-anchor="start" x="166" y="-183.6" font-family="Helvetica,sans-Serif" font-size="11.00" fill="#000000">&lt; 2</text>
<polygon fill="#ffffff" stroke="transparent" points="250,-177.5 250,-196.5 354,-196.5 354,-177.5 250,-177.5"/>
<polygon fill="none" stroke="#000000" points="250,-177.5 250,-196.5 354,-196.5 354,-177.5 250,-177.5"/>
<text text-anchor="start" x="318.6105" y="-183.6" font-family="Helvetica,sans-Serif" font-size="11.00" fill="#000000">0 rows</text>
<polygon fill="#ffffff" stroke="transparent" points="354,-177.5 354,-196.5 421,-196.5 421,-177.5 354,-177.5"/>
<polygon fill="none" stroke="#000000" points="354,-177.5 354,-196.5 421,-196.5 421,-177.5 354,-177.5"/>
<text text-anchor="start" x="402.4053" y="-183.6" font-family="Helvetica,sans-Serif" font-size="11.00" fill="#000000">3 &gt;</text>
<polygon fill="none" stroke="#000000" stroke-width="2" points="162,-176.5 162,-990.5 422,-990.5 422,-176.5 162,-176.5"/>
</a>
</g>
</g>
<!-- User -->
<g id="node2" class="node">
<title>User</title>
<g id="a_node2"><a xlink:href="../../tables/User.html" xlink:title="User" target="_top">
<polygon fill="#ffffff" stroke="transparent" points="8,-131 8,-214 112,-214 112,-131 8,-131"/>
<polygon fill="#f5f5f5" stroke="transparent" points="8,-190.5 8,-213.5 112,-213.5 112,-190.5 8,-190.5"/>
<polygon fill="none" stroke="#000000" points="8,-190.5 8,-213.5 112,-213.5 112,-190.5 8,-190.5"/>
<text text-anchor="start" x="13" y="-199.1" font-family="Helvetica,sans-Serif" font-weight="bold" font-size="11.00" fill="#000000">User</text>
<text text-anchor="start" x="77.0437" y="-198.6" font-family="Helvetica,sans-Serif" font-size="11.00" fill="#000000">[table]</text>
<polygon fill="none" stroke="#000000" points="8,-168.5 8,-190.5 112,-190.5 112,-168.5 8,-168.5"/>
<image xlink:href="../../images/primaryKeys.png" width="11px" height="12px" preserveAspectRatio="xMinYMin meet" x="13" y="-185.5"/>
<text text-anchor="start" x="28" y="-175.6" font-family="Helvetica,sans-Serif" font-size="11.00" fill="#000000">userid_pk</text>
<polygon fill="none" stroke="#000000" points="8,-149.5 8,-168.5 112,-168.5 112,-149.5 8,-149.5"/>
<text text-anchor="start" x="11" y="-155.6" font-family="Helvetica,sans-Serif" font-size="11.00" fill="#000000">...</text>
<polygon fill="#ffffff" stroke="transparent" points="8,-130.5 8,-149.5 30,-149.5 30,-130.5 8,-130.5"/>
<polygon fill="none" stroke="#000000" points="8,-130.5 8,-149.5 30,-149.5 30,-130.5 8,-130.5"/>
<text text-anchor="start" x="11" y="-136.6" font-family="Helvetica,sans-Serif" font-size="11.00" fill="#000000"> &#160;</text>
<polygon fill="#ffffff" stroke="transparent" points="30,-130.5 30,-149.5 73,-149.5 73,-130.5 30,-130.5"/>
<polygon fill="none" stroke="#000000" points="30,-130.5 30,-149.5 73,-149.5 73,-130.5 30,-130.5"/>
<text text-anchor="start" x="37.6105" y="-136.6" font-family="Helvetica,sans-Serif" font-size="11.00" fill="#000000">0 rows</text>
<polygon fill="#ffffff" stroke="transparent" points="73,-130.5 73,-149.5 112,-149.5 112,-130.5 73,-130.5"/>
<polygon fill="none" stroke="#000000" points="73,-130.5 73,-149.5 112,-149.5 112,-130.5 73,-130.5"/>
<text text-anchor="start" x="81.1755" y="-136.6" font-family="Helvetica,sans-Serif" font-size="11.00" fill="#000000">102 &gt;</text>
</a>
</g>
</g>
<!-- APPLICANT&#45;&gt;User -->
<g id="edge1" class="edge">
<title>APPLICANT:w&#45;&gt;User:e</title>
<path fill="none" stroke="#000000" d="M149.2263,-224.8857C134.3844,-212.5078 137.791,-179.5 112,-179.5"/>
<polygon fill="#000000" stroke="#000000" points="155.4143,-226.9587 161.8564,-232.9135 159.2072,-228.2294 163,-229.5 163,-229.5 163,-229.5 159.2072,-228.2294 164.1436,-226.0865 155.4143,-226.9587 155.4143,-226.9587"/>
<ellipse fill="none" stroke="#000000" cx="152.3801" cy="-225.9422" rx="3.2" ry="3.2"/>
</g>
<!-- APPLICANT&#45;&gt;User -->
<g id="edge2" class="edge">
<title>APPLICANT:w&#45;&gt;User:e</title>
<path fill="none" stroke="#000000" d="M148.8987,-203.8395C136.1024,-196.2498 131.9996,-179.5 112,-179.5"/>
<polygon fill="#000000" stroke="#000000" points="155.2566,-205.4899 162.0954,-210.9845 159.1283,-206.4949 163,-207.5 163,-207.5 163,-207.5 159.1283,-206.4949 163.9046,-204.0155 155.2566,-205.4899 155.2566,-205.4899"/>
<ellipse fill="none" stroke="#000000" cx="152.1593" cy="-204.6858" rx="3.2" ry="3.2"/>
</g>
<!-- INTERVIEW -->
<g id="node3" class="node">
<title>INTERVIEW</title>
<g id="a_node3"><a xlink:href="../../tables/INTERVIEW.html" xlink:title="INTERVIEW" target="_top">
<polygon fill="#ffffff" stroke="transparent" points="472,-967 472,-1182 711,-1182 711,-967 472,-967"/>
<polygon fill="#f5f5f5" stroke="transparent" points="472.5,-1158.5 472.5,-1181.5 711.5,-1181.5 711.5,-1158.5 472.5,-1158.5"/>
<polygon fill="none" stroke="#000000" points="472.5,-1158.5 472.5,-1181.5 711.5,-1181.5 711.5,-1158.5 472.5,-1158.5"/>
<text text-anchor="start" x="477.5" y="-1167.1" font-family="Helvetica,sans-Serif" font-weight="bold" font-size="11.00" fill="#000000">INTERVIEW</text>
<text text-anchor="start" x="676.5437" y="-1166.6" font-family="Helvetica,sans-Serif" font-size="11.00" fill="#000000">[table]</text>
<polygon fill="none" stroke="#000000" points="472.5,-1136.5 472.5,-1158.5 711.5,-1158.5 711.5,-1136.5 472.5,-1136.5"/>
<image xlink:href="../../images/primaryKeys.png" width="11px" height="12px" preserveAspectRatio="xMinYMin meet" x="477.5" y="-1153.5"/>
<text text-anchor="start" x="492.5" y="-1143.6" font-family="Helvetica,sans-Serif" font-size="11.00" fill="#000000">ID</text>
<polygon fill="#ffffff" stroke="transparent" points="472.5,-1114.5 472.5,-1136.5 711.5,-1136.5 711.5,-1114.5 472.5,-1114.5"/>
<polygon fill="none" stroke="#000000" points="472.5,-1114.5 472.5,-1136.5 711.5,-1136.5 711.5,-1114.5 472.5,-1114.5"/>
<image xlink:href="../../images/foreignKeys.png" width="11px" height="12px" preserveAspectRatio="xMinYMin meet" x="477.5" y="-1131.5"/>
<text text-anchor="start" x="492.5" y="-1121.6" font-family="Helvetica,sans-Serif" font-size="11.00" fill="#000000">CANDIDATE_ID</text>
<polygon fill="#ffffff" stroke="transparent" points="472.5,-1092.5 472.5,-1114.5 711.5,-1114.5 711.5,-1092.5 472.5,-1092.5"/>
<polygon fill="none" stroke="#000000" points="472.5,-1092.5 472.5,-1114.5 711.5,-1114.5 711.5,-1092.5 472.5,-1092.5"/>
<image xlink:href="../../images/foreignKeys.png" width="11px" height="12px" preserveAspectRatio="xMinYMin meet" x="477.5" y="-1109.5"/>
<text text-anchor="start" x="492.5" y="-1099.6" font-family="Helvetica,sans-Serif" font-size="11.00" fill="#000000">JOB_OPENING_ID</text>
<polygon fill="#ffffff" stroke="transparent" points="472.5,-1070.5 472.5,-1092.5 711.5,-1092.5 711.5,-1070.5 472.5,-1070.5"/>
<polygon fill="none" stroke="#000000" points="472.5,-1070.5 472.5,-1092.5 711.5,-1092.5 711.5,-1070.5 472.5,-1070.5"/>
<image xlink:href="../../images/foreignKeys.png" width="11px" height="12px" preserveAspectRatio="xMinYMin meet" x="477.5" y="-1087.5"/>
<text text-anchor="start" x="492.5" y="-1077.6" font-family="Helvetica,sans-Serif" font-size="11.00" fill="#000000">DEPARTMENT_ID</text>
<polygon fill="#ffffff" stroke="transparent" points="472.5,-1048.5 472.5,-1070.5 711.5,-1070.5 711.5,-1048.5 472.5,-1048.5"/>
<polygon fill="none" stroke="#000000" points="472.5,-1048.5 472.5,-1070.5 711.5,-1070.5 711.5,-1048.5 472.5,-1048.5"/>
<image xlink:href="../../images/foreignKeys.png" width="11px" height="12px" preserveAspectRatio="xMinYMin meet" x="477.5" y="-1065.5"/>
<text text-anchor="start" x="492.5" y="-1055.6" font-family="Helvetica,sans-Serif" font-size="11.00" fill="#000000">INTERVIEWER</text>
<polygon fill="#ffffff" stroke="transparent" points="472.5,-1026.5 472.5,-1048.5 711.5,-1048.5 711.5,-1026.5 472.5,-1026.5"/>
<polygon fill="none" stroke="#000000" points="472.5,-1026.5 472.5,-1048.5 711.5,-1048.5 711.5,-1026.5 472.5,-1026.5"/>
<image xlink:href="../../images/foreignKeys.png" width="11px" height="12px" preserveAspectRatio="xMinYMin meet" x="477.5" y="-1043.5"/>
<text text-anchor="start" x="492.5" y="-1033.6" font-family="Helvetica,sans-Serif" font-size="11.00" fill="#000000">CREATOR</text>
<polygon fill="#ffffff" stroke="transparent" points="472.5,-1004.5 472.5,-1026.5 711.5,-1026.5 711.5,-1004.5 472.5,-1004.5"/>
<polygon fill="none" stroke="#000000" points="472.5,-1004.5 472.5,-1026.5 711.5,-1026.5 711.5,-1004.5 472.5,-1004.5"/>
<image xlink:href="../../images/foreignKeys.png" width="11px" height="12px" preserveAspectRatio="xMinYMin meet" x="477.5" y="-1021.5"/>
<text text-anchor="start" x="492.5" y="-1011.6" font-family="Helvetica,sans-Serif" font-size="11.00" fill="#000000">LAST_MODIFIER</text>
<polygon fill="none" stroke="#000000" points="472.5,-985.5 472.5,-1004.5 711.5,-1004.5 711.5,-985.5 472.5,-985.5"/>
<text text-anchor="start" x="475.5" y="-991.6" font-family="Helvetica,sans-Serif" font-size="11.00" fill="#000000">...</text>
<polygon fill="#ffffff" stroke="transparent" points="472.5,-966.5 472.5,-985.5 577.5,-985.5 577.5,-966.5 472.5,-966.5"/>
<polygon fill="none" stroke="#000000" points="472.5,-966.5 472.5,-985.5 577.5,-985.5 577.5,-966.5 472.5,-966.5"/>
<text text-anchor="start" x="475.5" y="-972.6" font-family="Helvetica,sans-Serif" font-size="11.00" fill="#000000">&lt; 6</text>
<polygon fill="#ffffff" stroke="transparent" points="577.5,-966.5 577.5,-985.5 657.5,-985.5 657.5,-966.5 577.5,-966.5"/>
<polygon fill="none" stroke="#000000" points="577.5,-966.5 577.5,-985.5 657.5,-985.5 657.5,-966.5 577.5,-966.5"/>
<text text-anchor="start" x="622.1105" y="-972.6" font-family="Helvetica,sans-Serif" font-size="11.00" fill="#000000">0 rows</text>
<polygon fill="#ffffff" stroke="transparent" points="657.5,-966.5 657.5,-985.5 711.5,-985.5 711.5,-966.5 657.5,-966.5"/>
<polygon fill="none" stroke="#000000" points="657.5,-966.5 657.5,-985.5 711.5,-985.5 711.5,-966.5 657.5,-966.5"/>
<text text-anchor="start" x="702.3862" y="-972.6" font-family="Helvetica,sans-Serif" font-size="11.00" fill="#000000"> &#160;</text>
</a>
</g>
</g>
<!-- INTERVIEW&#45;&gt;APPLICANT -->
<g id="edge3" class="edge">
<title>INTERVIEW:w&#45;&gt;APPLICANT:e</title>
<path fill="none" stroke="#000000" d="M458.1485,-1122.9649C407.9627,-1101.8175 494.2413,-955.5 421,-955.5"/>
<polygon fill="#000000" stroke="#000000" points="464.622,-1124.1084 471.8738,-1129.0451 468.561,-1124.8042 472.5,-1125.5 472.5,-1125.5 472.5,-1125.5 468.561,-1124.8042 473.1262,-1121.9549 464.622,-1124.1084 464.622,-1124.1084"/>
<ellipse fill="none" stroke="#000000" cx="461.4707" cy="-1123.5517" rx="3.2" ry="3.2"/>
</g>
<!-- INTERVIEW&#45;&gt;User -->
<g id="edge4" class="edge">
<title>INTERVIEW:w&#45;&gt;User:e</title>
<path fill="none" stroke="#000000" d="M457.7527,-1037.8141C324.9993,-1043.4505 250.4736,-1121.9184 153,-1025.5 86.0928,-959.3171 206.1103,-179.5 112,-179.5"/>
<polygon fill="#000000" stroke="#000000" points="464.5018,-1037.6704 472.5767,-1041.0992 468.5009,-1037.5852 472.5,-1037.5 472.5,-1037.5 472.5,-1037.5 468.5009,-1037.5852 472.4233,-1033.9008 464.5018,-1037.6704 464.5018,-1037.6704"/>
<ellipse fill="none" stroke="#000000" cx="461.3025" cy="-1037.7385" rx="3.2" ry="3.2"/>
</g>
<!-- INTERVIEW&#45;&gt;User -->
<g id="edge5" class="edge">
<title>INTERVIEW:w&#45;&gt;User:e</title>
<path fill="none" stroke="#000000" d="M457.8499,-1015.7552C392.3642,-1017.359 175.9698,-1025.2615 153,-1002.5 87.9646,-938.0544 203.5578,-179.5 112,-179.5"/>
<polygon fill="#000000" stroke="#000000" points="464.5012,-1015.6394 472.5627,-1019.0995 468.5006,-1015.5697 472.5,-1015.5 472.5,-1015.5 472.5,-1015.5 468.5006,-1015.5697 472.4373,-1011.9005 464.5012,-1015.6394 464.5012,-1015.6394"/>
<ellipse fill="none" stroke="#000000" cx="461.3017" cy="-1015.6952" rx="3.2" ry="3.2"/>
</g>
<!-- JOB_APPLICATION -->
<g id="node4" class="node">
<title>JOB_APPLICATION</title>
<g id="a_node4"><a xlink:href="../../tables/JOB_APPLICATION.html" xlink:title="JOB_APPLICATION" target="_top">
<polygon fill="#ffffff" stroke="transparent" points="507,-239 507,-410 676,-410 676,-239 507,-239"/>
<polygon fill="#f5f5f5" stroke="transparent" points="507.5,-386.5 507.5,-409.5 676.5,-409.5 676.5,-386.5 507.5,-386.5"/>
<polygon fill="none" stroke="#000000" points="507.5,-386.5 507.5,-409.5 676.5,-409.5 676.5,-386.5 507.5,-386.5"/>
<text text-anchor="start" x="512.5" y="-395.1" font-family="Helvetica,sans-Serif" font-weight="bold" font-size="11.00" fill="#000000">JOB_APPLICATION</text>
<text text-anchor="start" x="641.5437" y="-394.6" font-family="Helvetica,sans-Serif" font-size="11.00" fill="#000000">[table]</text>
<polygon fill="none" stroke="#000000" points="507.5,-364.5 507.5,-386.5 676.5,-386.5 676.5,-364.5 507.5,-364.5"/>
<image xlink:href="../../images/primaryKeys.png" width="11px" height="12px" preserveAspectRatio="xMinYMin meet" x="512.5" y="-381.5"/>
<text text-anchor="start" x="527.5" y="-371.6" font-family="Helvetica,sans-Serif" font-size="11.00" fill="#000000">ID</text>
<polygon fill="#ffffff" stroke="transparent" points="507.5,-342.5 507.5,-364.5 676.5,-364.5 676.5,-342.5 507.5,-342.5"/>
<polygon fill="none" stroke="#000000" points="507.5,-342.5 507.5,-364.5 676.5,-364.5 676.5,-342.5 507.5,-342.5"/>
<image xlink:href="../../images/foreignKeys.png" width="11px" height="12px" preserveAspectRatio="xMinYMin meet" x="512.5" y="-359.5"/>
<text text-anchor="start" x="527.5" y="-349.6" font-family="Helvetica,sans-Serif" font-size="11.00" fill="#000000">APPLICANT_ID</text>
<polygon fill="#ffffff" stroke="transparent" points="507.5,-320.5 507.5,-342.5 676.5,-342.5 676.5,-320.5 507.5,-320.5"/>
<polygon fill="none" stroke="#000000" points="507.5,-320.5 507.5,-342.5 676.5,-342.5 676.5,-320.5 507.5,-320.5"/>
<image xlink:href="../../images/foreignKeys.png" width="11px" height="12px" preserveAspectRatio="xMinYMin meet" x="512.5" y="-337.5"/>
<text text-anchor="start" x="527.5" y="-327.6" font-family="Helvetica,sans-Serif" font-size="11.00" fill="#000000">JOB_OPENING_ID</text>
<polygon fill="#ffffff" stroke="transparent" points="507.5,-298.5 507.5,-320.5 676.5,-320.5 676.5,-298.5 507.5,-298.5"/>
<polygon fill="none" stroke="#000000" points="507.5,-298.5 507.5,-320.5 676.5,-320.5 676.5,-298.5 507.5,-298.5"/>
<image xlink:href="../../images/foreignKeys.png" width="11px" height="12px" preserveAspectRatio="xMinYMin meet" x="512.5" y="-315.5"/>
<text text-anchor="start" x="527.5" y="-305.6" font-family="Helvetica,sans-Serif" font-size="11.00" fill="#000000">CREATOR</text>
<polygon fill="#ffffff" stroke="transparent" points="507.5,-276.5 507.5,-298.5 676.5,-298.5 676.5,-276.5 507.5,-276.5"/>
<polygon fill="none" stroke="#000000" points="507.5,-276.5 507.5,-298.5 676.5,-298.5 676.5,-276.5 507.5,-276.5"/>
<image xlink:href="../../images/foreignKeys.png" width="11px" height="12px" preserveAspectRatio="xMinYMin meet" x="512.5" y="-293.5"/>
<text text-anchor="start" x="527.5" y="-283.6" font-family="Helvetica,sans-Serif" font-size="11.00" fill="#000000">LAST_MODIFIER</text>
<polygon fill="none" stroke="#000000" points="507.5,-257.5 507.5,-276.5 676.5,-276.5 676.5,-257.5 507.5,-257.5"/>
<text text-anchor="start" x="510.5" y="-263.6" font-family="Helvetica,sans-Serif" font-size="11.00" fill="#000000">...</text>
<polygon fill="#ffffff" stroke="transparent" points="507.5,-238.5 507.5,-257.5 577.5,-257.5 577.5,-238.5 507.5,-238.5"/>
<polygon fill="none" stroke="#000000" points="507.5,-238.5 507.5,-257.5 577.5,-257.5 577.5,-238.5 507.5,-238.5"/>
<text text-anchor="start" x="510.5" y="-244.6" font-family="Helvetica,sans-Serif" font-size="11.00" fill="#000000">&lt; 4</text>
<polygon fill="#ffffff" stroke="transparent" points="577.5,-238.5 577.5,-257.5 639.5,-257.5 639.5,-238.5 577.5,-238.5"/>
<polygon fill="none" stroke="#000000" points="577.5,-238.5 577.5,-257.5 639.5,-257.5 639.5,-238.5 577.5,-238.5"/>
<text text-anchor="start" x="604.1105" y="-244.6" font-family="Helvetica,sans-Serif" font-size="11.00" fill="#000000">0 rows</text>
<polygon fill="#ffffff" stroke="transparent" points="639.5,-238.5 639.5,-257.5 676.5,-257.5 676.5,-238.5 639.5,-238.5"/>
<polygon fill="none" stroke="#000000" points="639.5,-238.5 639.5,-257.5 676.5,-257.5 676.5,-238.5 639.5,-238.5"/>
<text text-anchor="start" x="667.3862" y="-244.6" font-family="Helvetica,sans-Serif" font-size="11.00" fill="#000000"> &#160;</text>
</a>
</g>
</g>
<!-- JOB_APPLICATION&#45;&gt;APPLICANT -->
<g id="edge6" class="edge">
<title>JOB_APPLICATION:w&#45;&gt;APPLICANT:e</title>
<path fill="none" stroke="#000000" d="M493.0839,-356.184C386.2212,-399.6127 550.8724,-955.5 421,-955.5"/>
<polygon fill="#000000" stroke="#000000" points="499.6351,-354.9643 508.1589,-357.0392 503.5676,-354.2322 507.5,-353.5 507.5,-353.5 507.5,-353.5 503.5676,-354.2322 506.8411,-349.9608 499.6351,-354.9643 499.6351,-354.9643"/>
<ellipse fill="none" stroke="#000000" cx="496.4892" cy="-355.55" rx="3.2" ry="3.2"/>
</g>
<!-- JOB_APPLICATION&#45;&gt;User -->
<g id="edge7" class="edge">
<title>JOB_APPLICATION:w&#45;&gt;User:e</title>
<path fill="none" stroke="#000000" d="M493.0992,-307.724C443.1652,-293.6781 488.2809,-200.1592 431,-165.5 378.1447,-133.5186 213.9435,-155.3818 153,-165.5 134.0047,-168.6537 131.2553,-179.5 112,-179.5"/>
<polygon fill="#000000" stroke="#000000" points="499.5601,-308.5208 507.0594,-313.0729 503.5301,-309.0104 507.5,-309.5 507.5,-309.5 507.5,-309.5 503.5301,-309.0104 507.9406,-305.9271 499.5601,-308.5208 499.5601,-308.5208"/>
<ellipse fill="none" stroke="#000000" cx="496.3842" cy="-308.1291" rx="3.2" ry="3.2"/>
</g>
<!-- JOB_APPLICATION&#45;&gt;User -->
<g id="edge8" class="edge">
<title>JOB_APPLICATION:w&#45;&gt;User:e</title>
<path fill="none" stroke="#000000" d="M493.2301,-284.7329C476.0113,-276.5985 476.9734,-251.8647 464,-228.5 444.729,-193.7937 463.8491,-167.7898 431,-145.5 379.8799,-110.8124 211.1131,-124.5391 153,-145.5 130.7316,-153.532 135.6727,-179.5 112,-179.5"/>
<polygon fill="#000000" stroke="#000000" points="499.6463,-285.977 506.8147,-291.0342 503.5731,-286.7385 507.5,-287.5 507.5,-287.5 507.5,-287.5 503.5731,-286.7385 508.1853,-283.9658 499.6463,-285.977 499.6463,-285.977"/>
<ellipse fill="none" stroke="#000000" cx="496.5048" cy="-285.3678" rx="3.2" ry="3.2"/>
</g>
<!-- OFFERS -->
<g id="node5" class="node">
<title>OFFERS</title>
<g id="a_node5"><a xlink:href="../../tables/OFFERS.html" xlink:title="OFFERS" target="_top">
<polygon fill="#ffffff" stroke="transparent" points="494,-25 494,-218 689,-218 689,-25 494,-25"/>
<polygon fill="#f5f5f5" stroke="transparent" points="494.5,-194.5 494.5,-217.5 689.5,-217.5 689.5,-194.5 494.5,-194.5"/>
<polygon fill="none" stroke="#000000" points="494.5,-194.5 494.5,-217.5 689.5,-217.5 689.5,-194.5 494.5,-194.5"/>
<text text-anchor="start" x="499.5" y="-203.1" font-family="Helvetica,sans-Serif" font-weight="bold" font-size="11.00" fill="#000000">OFFERS</text>
<text text-anchor="start" x="654.5437" y="-202.6" font-family="Helvetica,sans-Serif" font-size="11.00" fill="#000000">[table]</text>
<polygon fill="none" stroke="#000000" points="494.5,-172.5 494.5,-194.5 689.5,-194.5 689.5,-172.5 494.5,-172.5"/>
<image xlink:href="../../images/primaryKeys.png" width="11px" height="12px" preserveAspectRatio="xMinYMin meet" x="499.5" y="-189.5"/>
<text text-anchor="start" x="514.5" y="-179.6" font-family="Helvetica,sans-Serif" font-size="11.00" fill="#000000">ID</text>
<polygon fill="#ffffff" stroke="transparent" points="494.5,-150.5 494.5,-172.5 689.5,-172.5 689.5,-150.5 494.5,-150.5"/>
<polygon fill="none" stroke="#000000" points="494.5,-150.5 494.5,-172.5 689.5,-172.5 689.5,-150.5 494.5,-150.5"/>
<image xlink:href="../../images/foreignKeys.png" width="11px" height="12px" preserveAspectRatio="xMinYMin meet" x="499.5" y="-167.5"/>
<text text-anchor="start" x="514.5" y="-157.6" font-family="Helvetica,sans-Serif" font-size="11.00" fill="#000000">POSTING_TITLE</text>
<polygon fill="#ffffff" stroke="transparent" points="494.5,-128.5 494.5,-150.5 689.5,-150.5 689.5,-128.5 494.5,-128.5"/>
<polygon fill="none" stroke="#000000" points="494.5,-128.5 494.5,-150.5 689.5,-150.5 689.5,-128.5 494.5,-128.5"/>
<image xlink:href="../../images/foreignKeys.png" width="11px" height="12px" preserveAspectRatio="xMinYMin meet" x="499.5" y="-145.5"/>
<text text-anchor="start" x="514.5" y="-135.6" font-family="Helvetica,sans-Serif" font-size="11.00" fill="#000000">DEPARTMENT_ID</text>
<polygon fill="#ffffff" stroke="transparent" points="494.5,-106.5 494.5,-128.5 689.5,-128.5 689.5,-106.5 494.5,-106.5"/>
<polygon fill="none" stroke="#000000" points="494.5,-106.5 494.5,-128.5 689.5,-128.5 689.5,-106.5 494.5,-106.5"/>
<image xlink:href="../../images/foreignKeys.png" width="11px" height="12px" preserveAspectRatio="xMinYMin meet" x="499.5" y="-123.5"/>
<text text-anchor="start" x="514.5" y="-113.6" font-family="Helvetica,sans-Serif" font-size="11.00" fill="#000000">CANDIDATE_ID</text>
<polygon fill="#ffffff" stroke="transparent" points="494.5,-84.5 494.5,-106.5 689.5,-106.5 689.5,-84.5 494.5,-84.5"/>
<polygon fill="none" stroke="#000000" points="494.5,-84.5 494.5,-106.5 689.5,-106.5 689.5,-84.5 494.5,-84.5"/>
<image xlink:href="../../images/foreignKeys.png" width="11px" height="12px" preserveAspectRatio="xMinYMin meet" x="499.5" y="-101.5"/>
<text text-anchor="start" x="514.5" y="-91.6" font-family="Helvetica,sans-Serif" font-size="11.00" fill="#000000">CREATOR</text>
<polygon fill="#ffffff" stroke="transparent" points="494.5,-62.5 494.5,-84.5 689.5,-84.5 689.5,-62.5 494.5,-62.5"/>
<polygon fill="none" stroke="#000000" points="494.5,-62.5 494.5,-84.5 689.5,-84.5 689.5,-62.5 494.5,-62.5"/>
<image xlink:href="../../images/foreignKeys.png" width="11px" height="12px" preserveAspectRatio="xMinYMin meet" x="499.5" y="-79.5"/>
<text text-anchor="start" x="514.5" y="-69.6" font-family="Helvetica,sans-Serif" font-size="11.00" fill="#000000">LAST_MODIFIER</text>
<polygon fill="none" stroke="#000000" points="494.5,-43.5 494.5,-62.5 689.5,-62.5 689.5,-43.5 494.5,-43.5"/>
<text text-anchor="start" x="497.5" y="-49.6" font-family="Helvetica,sans-Serif" font-size="11.00" fill="#000000">...</text>
<polygon fill="#ffffff" stroke="transparent" points="494.5,-24.5 494.5,-43.5 577.5,-43.5 577.5,-24.5 494.5,-24.5"/>
<polygon fill="none" stroke="#000000" points="494.5,-24.5 494.5,-43.5 577.5,-43.5 577.5,-24.5 494.5,-24.5"/>
<text text-anchor="start" x="497.5" y="-30.6" font-family="Helvetica,sans-Serif" font-size="11.00" fill="#000000">&lt; 5</text>
<polygon fill="#ffffff" stroke="transparent" points="577.5,-24.5 577.5,-43.5 646.5,-43.5 646.5,-24.5 577.5,-24.5"/>
<polygon fill="none" stroke="#000000" points="577.5,-24.5 577.5,-43.5 646.5,-43.5 646.5,-24.5 577.5,-24.5"/>
<text text-anchor="start" x="611.1105" y="-30.6" font-family="Helvetica,sans-Serif" font-size="11.00" fill="#000000">0 rows</text>
<polygon fill="#ffffff" stroke="transparent" points="646.5,-24.5 646.5,-43.5 689.5,-43.5 689.5,-24.5 646.5,-24.5"/>
<polygon fill="none" stroke="#000000" points="646.5,-24.5 646.5,-43.5 689.5,-43.5 689.5,-24.5 646.5,-24.5"/>
<text text-anchor="start" x="680.3862" y="-30.6" font-family="Helvetica,sans-Serif" font-size="11.00" fill="#000000"> &#160;</text>
</a>
</g>
</g>
<!-- OFFERS&#45;&gt;APPLICANT -->
<g id="edge9" class="edge">
<title>OFFERS:w&#45;&gt;APPLICANT:e</title>
<path fill="none" stroke="#000000" d="M481.3785,-124.2454C412.4201,-203.5524 509.5396,-955.5 421,-955.5"/>
<polygon fill="#000000" stroke="#000000" points="487.3851,-121.1576 496.1459,-120.7017 490.9425,-119.3288 494.5,-117.5 494.5,-117.5 494.5,-117.5 490.9425,-119.3288 492.8541,-114.2983 487.3851,-121.1576 487.3851,-121.1576"/>
<ellipse fill="none" stroke="#000000" cx="484.5391" cy="-122.6207" rx="3.2" ry="3.2"/>
</g>
<!-- OFFERS&#45;&gt;User -->
<g id="edge10" class="edge">
<title>OFFERS:w&#45;&gt;User:e</title>
<path fill="none" stroke="#000000" d="M479.9146,-95.3143C395.5197,-93.4092 214.6703,-78.2154 153,-114.5 123.5616,-131.8205 146.1558,-179.5 112,-179.5"/>
<polygon fill="#000000" stroke="#000000" points="486.5006,-95.3981 494.4542,-99.0997 490.5003,-95.4491 494.5,-95.5 494.5,-95.5 494.5,-95.5 490.5003,-95.4491 494.5458,-91.9003 486.5006,-95.3981 486.5006,-95.3981"/>
<ellipse fill="none" stroke="#000000" cx="483.3009" cy="-95.3574" rx="3.2" ry="3.2"/>
</g>
<!-- OFFERS&#45;&gt;User -->
<g id="edge11" class="edge">
<title>OFFERS:w&#45;&gt;User:e</title>
<path fill="none" stroke="#000000" d="M480.0815,-73.2887C338.3982,-69.1342 274.7042,-6.0054 153,-88.5 116.2806,-113.3895 156.3599,-179.5 112,-179.5"/>
<polygon fill="#000000" stroke="#000000" points="486.5009,-73.3827 494.4472,-77.0996 490.5004,-73.4414 494.5,-73.5 494.5,-73.5 494.5,-73.5 490.5004,-73.4414 494.5528,-69.9004 486.5009,-73.3827 486.5009,-73.3827"/>
<ellipse fill="none" stroke="#000000" cx="483.3012" cy="-73.3358" rx="3.2" ry="3.2"/>
</g>
</g>
</svg>
