<?xml version="1.0" encoding="UTF-8" standalone="no"?>
<!DOCTYPE svg PUBLIC "-//W3C//DTD SVG 1.1//EN"
 "http://www.w3.org/Graphics/SVG/1.1/DTD/svg11.dtd">
<!-- Generated by graphviz version 2.40.1 (20161225.0304)
 -->
<!-- Title: oneDegreeRelationshipsDiagram Pages: 1 -->
<svg width="698pt" height="457pt"
 viewBox="0.00 0.00 698.00 457.00" xmlns="http://www.w3.org/2000/svg" xmlns:xlink="http://www.w3.org/1999/xlink">
<g id="graph0" class="graph" transform="scale(1 1) rotate(0) translate(4 453)">
<title>oneDegreeRelationshipsDiagram</title>
<polygon fill="#ffffff" stroke="transparent" points="-4,4 -4,-453 694,-453 694,4 -4,4"/>
<!-- ASSET -->
<g id="node1" class="node">
<title>ASSET</title>
<g id="a_node1"><a xlink:href="../../tables/ASSET.html" xlink:title="ASSET" target="_top">
<polygon fill="#ffffff" stroke="transparent" points="424,-25 424,-445 682,-445 682,-25 424,-25"/>
<polygon fill="#f5f5f5" stroke="transparent" points="426,-420 426,-443 680,-443 680,-420 426,-420"/>
<polygon fill="none" stroke="#000000" points="426,-420 426,-443 680,-443 680,-420 426,-420"/>
<text text-anchor="start" x="431" y="-428.6" font-family="Helvetica,sans-Serif" font-weight="bold" font-size="11.00" fill="#000000">ASSET</text>
<text text-anchor="start" x="645.0437" y="-428.1" font-family="Helvetica,sans-Serif" font-size="11.00" fill="#000000">[table]</text>
<polygon fill="none" stroke="#000000" points="426,-398 426,-420 613,-420 613,-398 426,-398"/>
<image xlink:href="../../images/primaryKeys.png" width="11px" height="12px" preserveAspectRatio="xMinYMin meet" x="431" y="-415"/>
<text text-anchor="start" x="446" y="-405.1" font-family="Helvetica,sans-Serif" font-size="11.00" fill="#000000">ID</text>
<polygon fill="none" stroke="#000000" points="613,-398 613,-420 680,-420 680,-398 613,-398"/>
<text text-anchor="start" x="616" y="-405.7" font-family="Helvetica,sans-Serif" font-size="11.00" fill="#000000">int[10]</text>
<polygon fill="none" stroke="#000000" points="426,-376 426,-398 613,-398 613,-376 426,-376"/>
<text text-anchor="start" x="446" y="-383.1" font-family="Helvetica,sans-Serif" font-size="11.00" fill="#000000">DELETED</text>
<polygon fill="none" stroke="#000000" points="613,-376 613,-398 680,-398 680,-376 613,-376"/>
<text text-anchor="start" x="616" y="-383.7" font-family="Helvetica,sans-Serif" font-size="11.00" fill="#000000">bit[1]</text>
<polygon fill="none" stroke="#000000" points="426,-354 426,-376 613,-376 613,-354 426,-354"/>
<text text-anchor="start" x="446" y="-361.1" font-family="Helvetica,sans-Serif" font-size="11.00" fill="#000000">WORKSPACE_ID</text>
<polygon fill="none" stroke="#000000" points="613,-354 613,-376 680,-376 680,-354 613,-354"/>
<text text-anchor="start" x="616" y="-361.7" font-family="Helvetica,sans-Serif" font-size="11.00" fill="#000000">int[10]</text>
<polygon fill="none" stroke="#000000" points="426,-332 426,-354 613,-354 613,-332 426,-332"/>
<text text-anchor="start" x="446" y="-339.1" font-family="Helvetica,sans-Serif" font-size="11.00" fill="#000000">DEVICE_NAME</text>
<polygon fill="none" stroke="#000000" points="613,-332 613,-354 680,-354 680,-332 613,-332"/>
<text text-anchor="start" x="616" y="-339.7" font-family="Helvetica,sans-Serif" font-size="11.00" fill="#000000">varchar[30]</text>
<polygon fill="none" stroke="#000000" points="426,-310 426,-332 613,-332 613,-310 426,-310"/>
<text text-anchor="start" x="446" y="-317.1" font-family="Helvetica,sans-Serif" font-size="11.00" fill="#000000">DEVICE_SERIAL_NUMBER</text>
<polygon fill="none" stroke="#000000" points="613,-310 613,-332 680,-332 680,-310 613,-310"/>
<text text-anchor="start" x="615.9365" y="-317.7" font-family="Helvetica,sans-Serif" font-size="11.00" fill="#000000">varchar[255]</text>
<polygon fill="#ffffff" stroke="transparent" points="426,-288 426,-310 613,-310 613,-288 426,-288"/>
<polygon fill="none" stroke="#000000" points="426,-288 426,-310 613,-310 613,-288 426,-288"/>
<image xlink:href="../../images/foreignKeys.png" width="11px" height="12px" preserveAspectRatio="xMinYMin meet" x="431" y="-305"/>
<text text-anchor="start" x="446" y="-295.1" font-family="Helvetica,sans-Serif" font-size="11.00" fill="#000000">EMPLOYEE_ID</text>
<polygon fill="none" stroke="#000000" points="613,-288 613,-310 680,-310 680,-288 613,-288"/>
<text text-anchor="start" x="616" y="-295.7" font-family="Helvetica,sans-Serif" font-size="11.00" fill="#000000">int[10]</text>
<polygon fill="none" stroke="#000000" points="426,-266 426,-288 613,-288 613,-266 426,-266"/>
<text text-anchor="start" x="446" y="-273.1" font-family="Helvetica,sans-Serif" font-size="11.00" fill="#000000">REMARK</text>
<polygon fill="none" stroke="#000000" points="613,-266 613,-288 680,-288 680,-266 613,-266"/>
<text text-anchor="start" x="615.9365" y="-273.7" font-family="Helvetica,sans-Serif" font-size="11.00" fill="#000000">varchar[255]</text>
<polygon fill="none" stroke="#000000" points="426,-244 426,-266 613,-266 613,-244 426,-244"/>
<text text-anchor="start" x="446" y="-251.1" font-family="Helvetica,sans-Serif" font-size="11.00" fill="#000000">TEXT1</text>
<polygon fill="none" stroke="#000000" points="613,-244 613,-266 680,-266 680,-244 613,-244"/>
<text text-anchor="start" x="615.9365" y="-251.7" font-family="Helvetica,sans-Serif" font-size="11.00" fill="#000000">varchar[255]</text>
<polygon fill="none" stroke="#000000" points="426,-222 426,-244 613,-244 613,-222 426,-222"/>
<text text-anchor="start" x="446" y="-229.1" font-family="Helvetica,sans-Serif" font-size="11.00" fill="#000000">TEXT2</text>
<polygon fill="none" stroke="#000000" points="613,-222 613,-244 680,-244 680,-222 613,-222"/>
<text text-anchor="start" x="615.9365" y="-229.7" font-family="Helvetica,sans-Serif" font-size="11.00" fill="#000000">varchar[255]</text>
<polygon fill="none" stroke="#000000" points="426,-200 426,-222 613,-222 613,-200 426,-200"/>
<text text-anchor="start" x="446" y="-207.1" font-family="Helvetica,sans-Serif" font-size="11.00" fill="#000000">TEXT3</text>
<polygon fill="none" stroke="#000000" points="613,-200 613,-222 680,-222 680,-200 613,-200"/>
<text text-anchor="start" x="615.9365" y="-207.7" font-family="Helvetica,sans-Serif" font-size="11.00" fill="#000000">varchar[255]</text>
<polygon fill="none" stroke="#000000" points="426,-178 426,-200 613,-200 613,-178 426,-178"/>
<text text-anchor="start" x="446" y="-185.1" font-family="Helvetica,sans-Serif" font-size="11.00" fill="#000000">TEXT4</text>
<polygon fill="none" stroke="#000000" points="613,-178 613,-200 680,-200 680,-178 613,-178"/>
<text text-anchor="start" x="615.9365" y="-185.7" font-family="Helvetica,sans-Serif" font-size="11.00" fill="#000000">varchar[255]</text>
<polygon fill="none" stroke="#000000" points="426,-156 426,-178 613,-178 613,-156 426,-156"/>
<text text-anchor="start" x="446" y="-163.1" font-family="Helvetica,sans-Serif" font-size="11.00" fill="#000000">CREATED_TIME</text>
<polygon fill="none" stroke="#000000" points="613,-156 613,-178 680,-178 680,-156 613,-156"/>
<text text-anchor="start" x="616" y="-163.7" font-family="Helvetica,sans-Serif" font-size="11.00" fill="#000000">datetime[26]</text>
<polygon fill="none" stroke="#000000" points="426,-134 426,-156 613,-156 613,-134 426,-134"/>
<text text-anchor="start" x="446" y="-141.1" font-family="Helvetica,sans-Serif" font-size="11.00" fill="#000000">MODIFIED_TIME</text>
<polygon fill="none" stroke="#000000" points="613,-134 613,-156 680,-156 680,-134 613,-134"/>
<text text-anchor="start" x="616" y="-141.7" font-family="Helvetica,sans-Serif" font-size="11.00" fill="#000000">datetime[26]</text>
<polygon fill="none" stroke="#000000" points="426,-112 426,-134 613,-134 613,-112 426,-112"/>
<text text-anchor="start" x="446" y="-119.1" font-family="Helvetica,sans-Serif" font-size="11.00" fill="#000000">PROCESS_INSTANCE_ID</text>
<polygon fill="none" stroke="#000000" points="613,-112 613,-134 680,-134 680,-112 613,-112"/>
<text text-anchor="start" x="615.9365" y="-119.7" font-family="Helvetica,sans-Serif" font-size="11.00" fill="#000000">varchar[255]</text>
<polygon fill="none" stroke="#000000" points="426,-90 426,-112 613,-112 613,-90 426,-90"/>
<text text-anchor="start" x="446" y="-97.1" font-family="Helvetica,sans-Serif" font-size="11.00" fill="#000000">WORKFLOW_STAGE</text>
<polygon fill="none" stroke="#000000" points="613,-90 613,-112 680,-112 680,-90 613,-90"/>
<text text-anchor="start" x="615.9365" y="-97.7" font-family="Helvetica,sans-Serif" font-size="11.00" fill="#000000">varchar[255]</text>
<polygon fill="#ffffff" stroke="transparent" points="426,-68 426,-90 613,-90 613,-68 426,-68"/>
<polygon fill="none" stroke="#000000" points="426,-68 426,-90 613,-90 613,-68 426,-68"/>
<image xlink:href="../../images/foreignKeys.png" width="11px" height="12px" preserveAspectRatio="xMinYMin meet" x="431" y="-85"/>
<text text-anchor="start" x="446" y="-75.1" font-family="Helvetica,sans-Serif" font-size="11.00" fill="#000000">CREATOR</text>
<polygon fill="none" stroke="#000000" points="613,-68 613,-90 680,-90 680,-68 613,-68"/>
<text text-anchor="start" x="616" y="-75.7" font-family="Helvetica,sans-Serif" font-size="11.00" fill="#000000">int[10]</text>
<polygon fill="#ffffff" stroke="transparent" points="426,-46 426,-68 613,-68 613,-46 426,-46"/>
<polygon fill="none" stroke="#000000" points="426,-46 426,-68 613,-68 613,-46 426,-46"/>
<image xlink:href="../../images/foreignKeys.png" width="11px" height="12px" preserveAspectRatio="xMinYMin meet" x="431" y="-63"/>
<text text-anchor="start" x="446" y="-53.1" font-family="Helvetica,sans-Serif" font-size="11.00" fill="#000000">LAST_MODIFIER</text>
<polygon fill="none" stroke="#000000" points="613,-46 613,-68 680,-68 680,-46 613,-46"/>
<text text-anchor="start" x="616" y="-53.7" font-family="Helvetica,sans-Serif" font-size="11.00" fill="#000000">int[10]</text>
<polygon fill="#ffffff" stroke="transparent" points="426,-27 426,-46 511,-46 511,-27 426,-27"/>
<polygon fill="none" stroke="#000000" points="426,-27 426,-46 511,-46 511,-27 426,-27"/>
<text text-anchor="start" x="429" y="-33.1" font-family="Helvetica,sans-Serif" font-size="11.00" fill="#000000">&lt; 3</text>
<polygon fill="#ffffff" stroke="transparent" points="511,-27 511,-46 613,-46 613,-27 511,-27"/>
<polygon fill="none" stroke="#000000" points="511,-27 511,-46 613,-46 613,-27 511,-27"/>
<text text-anchor="start" x="577.6105" y="-33.1" font-family="Helvetica,sans-Serif" font-size="11.00" fill="#000000">0 rows</text>
<polygon fill="#ffffff" stroke="transparent" points="613,-27 613,-46 680,-46 680,-27 613,-27"/>
<polygon fill="none" stroke="#000000" points="613,-27 613,-46 680,-46 680,-27 613,-27"/>
<text text-anchor="start" x="661.4053" y="-33.1" font-family="Helvetica,sans-Serif" font-size="11.00" fill="#000000">0 &gt;</text>
<polygon fill="none" stroke="#000000" stroke-width="2" points="425,-26 425,-444 681,-444 681,-26 425,-26"/>
</a>
</g>
</g>
<!-- User -->
<g id="node2" class="node">
<title>User</title>
<g id="a_node2"><a xlink:href="../../tables/User.html" xlink:title="User" target="_top">
<polygon fill="#ffffff" stroke="transparent" points="8,-71.5 8,-154.5 112,-154.5 112,-71.5 8,-71.5"/>
<polygon fill="#f5f5f5" stroke="transparent" points="8,-131 8,-154 112,-154 112,-131 8,-131"/>
<polygon fill="none" stroke="#000000" points="8,-131 8,-154 112,-154 112,-131 8,-131"/>
<text text-anchor="start" x="13" y="-139.6" font-family="Helvetica,sans-Serif" font-weight="bold" font-size="11.00" fill="#000000">User</text>
<text text-anchor="start" x="77.0437" y="-139.1" font-family="Helvetica,sans-Serif" font-size="11.00" fill="#000000">[table]</text>
<polygon fill="none" stroke="#000000" points="8,-109 8,-131 112,-131 112,-109 8,-109"/>
<image xlink:href="../../images/primaryKeys.png" width="11px" height="12px" preserveAspectRatio="xMinYMin meet" x="13" y="-126"/>
<text text-anchor="start" x="28" y="-116.1" font-family="Helvetica,sans-Serif" font-size="11.00" fill="#000000">userid_pk</text>
<polygon fill="none" stroke="#000000" points="8,-90 8,-109 112,-109 112,-90 8,-90"/>
<text text-anchor="start" x="11" y="-96.1" font-family="Helvetica,sans-Serif" font-size="11.00" fill="#000000">...</text>
<polygon fill="#ffffff" stroke="transparent" points="8,-71 8,-90 30,-90 30,-71 8,-71"/>
<polygon fill="none" stroke="#000000" points="8,-71 8,-90 30,-90 30,-71 8,-71"/>
<text text-anchor="start" x="11" y="-77.1" font-family="Helvetica,sans-Serif" font-size="11.00" fill="#000000"> &#160;</text>
<polygon fill="#ffffff" stroke="transparent" points="30,-71 30,-90 73,-90 73,-71 30,-71"/>
<polygon fill="none" stroke="#000000" points="30,-71 30,-90 73,-90 73,-71 30,-71"/>
<text text-anchor="start" x="37.6105" y="-77.1" font-family="Helvetica,sans-Serif" font-size="11.00" fill="#000000">0 rows</text>
<polygon fill="#ffffff" stroke="transparent" points="73,-71 73,-90 112,-90 112,-71 73,-71"/>
<polygon fill="none" stroke="#000000" points="73,-71 73,-90 112,-90 112,-71 73,-71"/>
<text text-anchor="start" x="81.1755" y="-77.1" font-family="Helvetica,sans-Serif" font-size="11.00" fill="#000000">102 &gt;</text>
</a>
</g>
</g>
<!-- ASSET&#45;&gt;User -->
<g id="edge1" class="edge">
<title>ASSET:w&#45;&gt;User:e</title>
<path fill="none" stroke="#000000" d="M411.4621,-78.93C301.4032,-77.8734 265.064,-65.6559 153,-98 133.1312,-103.7346 132.6798,-120 112,-120"/>
<polygon fill="#000000" stroke="#000000" points="418.0001,-78.9614 425.9826,-82.6 422,-78.9807 426,-79 426,-79 426,-79 422,-78.9807 426.0174,-75.4 418.0001,-78.9614 418.0001,-78.9614"/>
<ellipse fill="none" stroke="#000000" cx="414.8001" cy="-78.946" rx="3.2" ry="3.2"/>
</g>
<!-- ASSET&#45;&gt;User -->
<g id="edge3" class="edge">
<title>ASSET:w&#45;&gt;User:e</title>
<path fill="none" stroke="#000000" d="M411.4344,-56.8195C300.8732,-54.0751 257.6464,-21.6723 153,-73 128.1125,-85.207 139.7199,-120 112,-120"/>
<polygon fill="#000000" stroke="#000000" points="418.0006,-56.9008 425.9554,-60.5997 422.0003,-56.9504 426,-57 426,-57 426,-57 422.0003,-56.9504 426.0446,-53.4003 418.0006,-56.9008 418.0006,-56.9008"/>
<ellipse fill="none" stroke="#000000" cx="414.8009" cy="-56.8611" rx="3.2" ry="3.2"/>
</g>
<!-- EMPLOYEE -->
<g id="node3" class="node">
<title>EMPLOYEE</title>
<g id="a_node3"><a xlink:href="../../tables/EMPLOYEE.html" xlink:title="EMPLOYEE" target="_top">
<polygon fill="#ffffff" stroke="transparent" points="161,-108.5 161,-301.5 375,-301.5 375,-108.5 161,-108.5"/>
<polygon fill="#f5f5f5" stroke="transparent" points="161,-278 161,-301 375,-301 375,-278 161,-278"/>
<polygon fill="none" stroke="#000000" points="161,-278 161,-301 375,-301 375,-278 161,-278"/>
<text text-anchor="start" x="166" y="-286.6" font-family="Helvetica,sans-Serif" font-weight="bold" font-size="11.00" fill="#000000">EMPLOYEE</text>
<text text-anchor="start" x="340.0437" y="-286.1" font-family="Helvetica,sans-Serif" font-size="11.00" fill="#000000">[table]</text>
<polygon fill="none" stroke="#000000" points="161,-256 161,-278 375,-278 375,-256 161,-256"/>
<image xlink:href="../../images/primaryKeys.png" width="11px" height="12px" preserveAspectRatio="xMinYMin meet" x="166" y="-273"/>
<text text-anchor="start" x="181" y="-263.1" font-family="Helvetica,sans-Serif" font-size="11.00" fill="#000000">ID</text>
<polygon fill="#ffffff" stroke="transparent" points="161,-234 161,-256 375,-256 375,-234 161,-234"/>
<polygon fill="none" stroke="#000000" points="161,-234 161,-256 375,-256 375,-234 161,-234"/>
<image xlink:href="../../images/foreignKeys.png" width="11px" height="12px" preserveAspectRatio="xMinYMin meet" x="166" y="-251"/>
<text text-anchor="start" x="181" y="-241.1" font-family="Helvetica,sans-Serif" font-size="11.00" fill="#000000">DEPARTMENT_ID</text>
<polygon fill="#ffffff" stroke="transparent" points="161,-212 161,-234 375,-234 375,-212 161,-212"/>
<polygon fill="none" stroke="#000000" points="161,-212 161,-234 375,-234 375,-212 161,-212"/>
<image xlink:href="../../images/foreignKeys.png" width="11px" height="12px" preserveAspectRatio="xMinYMin meet" x="166" y="-229"/>
<text text-anchor="start" x="181" y="-219.1" font-family="Helvetica,sans-Serif" font-size="11.00" fill="#000000">LOCATION_ID</text>
<polygon fill="#ffffff" stroke="transparent" points="161,-190 161,-212 375,-212 375,-190 161,-190"/>
<polygon fill="none" stroke="#000000" points="161,-190 161,-212 375,-212 375,-190 161,-190"/>
<image xlink:href="../../images/foreignKeys.png" width="11px" height="12px" preserveAspectRatio="xMinYMin meet" x="166" y="-207"/>
<text text-anchor="start" x="181" y="-197.1" font-family="Helvetica,sans-Serif" font-size="11.00" fill="#000000">DESIGNATION_ID</text>
<polygon fill="#ffffff" stroke="transparent" points="161,-168 161,-190 375,-190 375,-168 161,-168"/>
<polygon fill="none" stroke="#000000" points="161,-168 161,-190 375,-190 375,-168 161,-168"/>
<image xlink:href="../../images/foreignKeys.png" width="11px" height="12px" preserveAspectRatio="xMinYMin meet" x="166" y="-185"/>
<text text-anchor="start" x="181" y="-175.1" font-family="Helvetica,sans-Serif" font-size="11.00" fill="#000000">CREATOR</text>
<polygon fill="#ffffff" stroke="transparent" points="161,-146 161,-168 375,-168 375,-146 161,-146"/>
<polygon fill="none" stroke="#000000" points="161,-146 161,-168 375,-168 375,-146 161,-146"/>
<image xlink:href="../../images/foreignKeys.png" width="11px" height="12px" preserveAspectRatio="xMinYMin meet" x="166" y="-163"/>
<text text-anchor="start" x="181" y="-153.1" font-family="Helvetica,sans-Serif" font-size="11.00" fill="#000000">LAST_MODIFIER</text>
<polygon fill="none" stroke="#000000" points="161,-127 161,-146 375,-146 375,-127 161,-127"/>
<text text-anchor="start" x="164" y="-133.1" font-family="Helvetica,sans-Serif" font-size="11.00" fill="#000000">...</text>
<polygon fill="#ffffff" stroke="transparent" points="161,-108 161,-127 246,-127 246,-108 161,-108"/>
<polygon fill="none" stroke="#000000" points="161,-108 161,-127 246,-127 246,-108 161,-108"/>
<text text-anchor="start" x="164" y="-114.1" font-family="Helvetica,sans-Serif" font-size="11.00" fill="#000000">&lt; 5</text>
<polygon fill="#ffffff" stroke="transparent" points="246,-108 246,-127 316,-127 316,-108 246,-108"/>
<polygon fill="none" stroke="#000000" points="246,-108 246,-127 316,-127 316,-108 246,-108"/>
<text text-anchor="start" x="280.6105" y="-114.1" font-family="Helvetica,sans-Serif" font-size="11.00" fill="#000000">0 rows</text>
<polygon fill="#ffffff" stroke="transparent" points="316,-108 316,-127 375,-127 375,-108 316,-108"/>
<polygon fill="none" stroke="#000000" points="316,-108 316,-127 375,-127 375,-108 316,-108"/>
<text text-anchor="start" x="350.2904" y="-114.1" font-family="Helvetica,sans-Serif" font-size="11.00" fill="#000000">15 &gt;</text>
</a>
</g>
</g>
<!-- ASSET&#45;&gt;EMPLOYEE -->
<g id="edge2" class="edge">
<title>ASSET:w&#45;&gt;EMPLOYEE:e</title>
<path fill="none" stroke="#000000" d="M412.0293,-295.0762C398.9416,-286.5313 395.9055,-267 375,-267"/>
<polygon fill="#000000" stroke="#000000" points="418.298,-296.8368 425.0265,-302.4659 422.149,-297.9184 426,-299 426,-299 426,-299 422.149,-297.9184 426.9735,-295.5341 418.298,-296.8368 418.298,-296.8368"/>
<ellipse fill="none" stroke="#000000" cx="415.2172" cy="-295.9715" rx="3.2" ry="3.2"/>
</g>
<!-- EMPLOYEE&#45;&gt;User -->
<g id="edge4" class="edge">
<title>EMPLOYEE:w&#45;&gt;User:e</title>
<path fill="none" stroke="#000000" d="M147.1662,-173.9697C132.0842,-159.7018 139.9614,-120 112,-120"/>
<polygon fill="#000000" stroke="#000000" points="153.4816,-176.2661 159.7697,-182.3833 157.2408,-177.6331 161,-179 161,-179 161,-179 157.2408,-177.6331 162.2303,-175.6167 153.4816,-176.2661 153.4816,-176.2661"/>
<ellipse fill="none" stroke="#000000" cx="150.4743" cy="-175.1725" rx="3.2" ry="3.2"/>
</g>
<!-- EMPLOYEE&#45;&gt;User -->
<g id="edge5" class="edge">
<title>EMPLOYEE:w&#45;&gt;User:e</title>
<path fill="none" stroke="#000000" d="M147.1217,-152.4631C134.5786,-142.583 133.3196,-120 112,-120"/>
<polygon fill="#000000" stroke="#000000" points="153.396,-154.5142 159.8814,-160.4218 157.198,-155.7571 161,-157 161,-157 161,-157 157.198,-155.7571 162.1186,-153.5782 153.396,-154.5142 153.396,-154.5142"/>
<ellipse fill="none" stroke="#000000" cx="150.3544" cy="-153.5198" rx="3.2" ry="3.2"/>
</g>
</g>
</svg>
