<?xml version="1.0" encoding="UTF-8" standalone="no"?>
<!DOCTYPE svg PUBLIC "-//W3C//DTD SVG 1.1//EN"
 "http://www.w3.org/Graphics/SVG/1.1/DTD/svg11.dtd">
<!-- Generated by graphviz version 2.40.1 (20161225.0304)
 -->
<!-- Title: oneDegreeRelationshipsDiagram Pages: 1 -->
<svg width="560pt" height="397pt"
 viewBox="0.00 0.00 560.00 396.50" xmlns="http://www.w3.org/2000/svg" xmlns:xlink="http://www.w3.org/1999/xlink">
<g id="graph0" class="graph" transform="scale(1 1) rotate(0) translate(4 392.5)">
<title>oneDegreeRelationshipsDiagram</title>
<polygon fill="#ffffff" stroke="transparent" points="-4,4 -4,-392.5 556,-392.5 556,4 -4,4"/>
<!-- CALENDAR_DEFINITION -->
<g id="node1" class="node">
<title>CALENDAR_DEFINITION</title>
<g id="a_node1"><a xlink:href="../../tables/CALENDAR_DEFINITION.html" xlink:title="CALENDAR_DEFINITION" target="_top">
<polygon fill="#ffffff" stroke="transparent" points="161,-30.5 161,-384.5 544,-384.5 544,-30.5 161,-30.5"/>
<polygon fill="#f5f5f5" stroke="transparent" points="163.5,-359.5 163.5,-382.5 542.5,-382.5 542.5,-359.5 163.5,-359.5"/>
<polygon fill="none" stroke="#000000" points="163.5,-359.5 163.5,-382.5 542.5,-382.5 542.5,-359.5 163.5,-359.5"/>
<text text-anchor="start" x="168.5" y="-368.1" font-family="Helvetica,sans-Serif" font-weight="bold" font-size="11.00" fill="#000000">CALENDAR_DEFINITION</text>
<text text-anchor="start" x="507.5437" y="-367.6" font-family="Helvetica,sans-Serif" font-size="11.00" fill="#000000">[table]</text>
<polygon fill="none" stroke="#000000" points="163.5,-337.5 163.5,-359.5 475.5,-359.5 475.5,-337.5 163.5,-337.5"/>
<image xlink:href="../../images/primaryKeys.png" width="11px" height="12px" preserveAspectRatio="xMinYMin meet" x="168.5" y="-354.5"/>
<text text-anchor="start" x="183.5" y="-344.6" font-family="Helvetica,sans-Serif" font-size="11.00" fill="#000000">ID</text>
<polygon fill="none" stroke="#000000" points="475.5,-337.5 475.5,-359.5 542.5,-359.5 542.5,-337.5 475.5,-337.5"/>
<text text-anchor="start" x="478.5" y="-345.2" font-family="Helvetica,sans-Serif" font-size="11.00" fill="#000000">int[10]</text>
<polygon fill="none" stroke="#000000" points="163.5,-315.5 163.5,-337.5 475.5,-337.5 475.5,-315.5 163.5,-315.5"/>
<text text-anchor="start" x="183.5" y="-322.6" font-family="Helvetica,sans-Serif" font-size="11.00" fill="#000000">WORKSPACE_ID</text>
<polygon fill="none" stroke="#000000" points="475.5,-315.5 475.5,-337.5 542.5,-337.5 542.5,-315.5 475.5,-315.5"/>
<text text-anchor="start" x="478.5" y="-323.2" font-family="Helvetica,sans-Serif" font-size="11.00" fill="#000000">int[10]</text>
<polygon fill="none" stroke="#000000" points="163.5,-293.5 163.5,-315.5 475.5,-315.5 475.5,-293.5 163.5,-293.5"/>
<text text-anchor="start" x="183.5" y="-300.6" font-family="Helvetica,sans-Serif" font-size="11.00" fill="#000000">WEEK_STARTS_ON</text>
<polygon fill="none" stroke="#000000" points="475.5,-293.5 475.5,-315.5 542.5,-315.5 542.5,-293.5 475.5,-293.5"/>
<text text-anchor="start" x="478.5" y="-301.2" font-family="Helvetica,sans-Serif" font-size="11.00" fill="#000000">enum[9]</text>
<polygon fill="none" stroke="#000000" points="163.5,-271.5 163.5,-293.5 475.5,-293.5 475.5,-271.5 163.5,-271.5"/>
<text text-anchor="start" x="183.5" y="-278.6" font-family="Helvetica,sans-Serif" font-size="11.00" fill="#000000">WORK_WEEK_STARTS_ON</text>
<polygon fill="none" stroke="#000000" points="475.5,-271.5 475.5,-293.5 542.5,-293.5 542.5,-271.5 475.5,-271.5"/>
<text text-anchor="start" x="478.5" y="-279.2" font-family="Helvetica,sans-Serif" font-size="11.00" fill="#000000">enum[9]</text>
<polygon fill="none" stroke="#000000" points="163.5,-249.5 163.5,-271.5 475.5,-271.5 475.5,-249.5 163.5,-249.5"/>
<text text-anchor="start" x="183.5" y="-256.6" font-family="Helvetica,sans-Serif" font-size="11.00" fill="#000000">WORK_WEEK_ENDS_ON</text>
<polygon fill="none" stroke="#000000" points="475.5,-249.5 475.5,-271.5 542.5,-271.5 542.5,-249.5 475.5,-249.5"/>
<text text-anchor="start" x="478.5" y="-257.2" font-family="Helvetica,sans-Serif" font-size="11.00" fill="#000000">enum[9]</text>
<polygon fill="none" stroke="#000000" points="163.5,-227.5 163.5,-249.5 475.5,-249.5 475.5,-227.5 163.5,-227.5"/>
<text text-anchor="start" x="183.5" y="-234.6" font-family="Helvetica,sans-Serif" font-size="11.00" fill="#000000">HALF_WORKING_DAY_AND_HALF_WEEKEND</text>
<polygon fill="none" stroke="#000000" points="475.5,-227.5 475.5,-249.5 542.5,-249.5 542.5,-227.5 475.5,-227.5"/>
<text text-anchor="start" x="478.5" y="-235.2" font-family="Helvetica,sans-Serif" font-size="11.00" fill="#000000">bit[1]</text>
<polygon fill="none" stroke="#000000" points="163.5,-205.5 163.5,-227.5 475.5,-227.5 475.5,-205.5 163.5,-205.5"/>
<text text-anchor="start" x="183.5" y="-212.6" font-family="Helvetica,sans-Serif" font-size="11.00" fill="#000000">CURRENT_YEAR</text>
<polygon fill="none" stroke="#000000" points="475.5,-205.5 475.5,-227.5 542.5,-227.5 542.5,-205.5 475.5,-205.5"/>
<text text-anchor="start" x="478.5" y="-213.2" font-family="Helvetica,sans-Serif" font-size="11.00" fill="#000000">int[10]</text>
<polygon fill="none" stroke="#000000" points="163.5,-183.5 163.5,-205.5 475.5,-205.5 475.5,-183.5 163.5,-183.5"/>
<text text-anchor="start" x="183.5" y="-190.6" font-family="Helvetica,sans-Serif" font-size="11.00" fill="#000000">YEAR_STARTS_FROM</text>
<polygon fill="none" stroke="#000000" points="475.5,-183.5 475.5,-205.5 542.5,-205.5 542.5,-183.5 475.5,-183.5"/>
<text text-anchor="start" x="478.5" y="-191.2" font-family="Helvetica,sans-Serif" font-size="11.00" fill="#000000">datetime[26]</text>
<polygon fill="none" stroke="#000000" points="163.5,-161.5 163.5,-183.5 475.5,-183.5 475.5,-161.5 163.5,-161.5"/>
<text text-anchor="start" x="183.5" y="-168.6" font-family="Helvetica,sans-Serif" font-size="11.00" fill="#000000">YEAR_ENDS_ON</text>
<polygon fill="none" stroke="#000000" points="475.5,-161.5 475.5,-183.5 542.5,-183.5 542.5,-161.5 475.5,-161.5"/>
<text text-anchor="start" x="478.5" y="-169.2" font-family="Helvetica,sans-Serif" font-size="11.00" fill="#000000">datetime[26]</text>
<polygon fill="none" stroke="#000000" points="163.5,-139.5 163.5,-161.5 475.5,-161.5 475.5,-139.5 163.5,-139.5"/>
<text text-anchor="start" x="183.5" y="-146.6" font-family="Helvetica,sans-Serif" font-size="11.00" fill="#000000">STATUTORY_WEEKEND</text>
<polygon fill="none" stroke="#000000" points="475.5,-139.5 475.5,-161.5 542.5,-161.5 542.5,-139.5 475.5,-139.5"/>
<text text-anchor="start" x="478.4365" y="-147.2" font-family="Helvetica,sans-Serif" font-size="11.00" fill="#000000">varchar[255]</text>
<polygon fill="none" stroke="#000000" points="163.5,-117.5 163.5,-139.5 475.5,-139.5 475.5,-117.5 163.5,-117.5"/>
<text text-anchor="start" x="183.5" y="-124.6" font-family="Helvetica,sans-Serif" font-size="11.00" fill="#000000">CREATED_TIME</text>
<polygon fill="none" stroke="#000000" points="475.5,-117.5 475.5,-139.5 542.5,-139.5 542.5,-117.5 475.5,-117.5"/>
<text text-anchor="start" x="478.5" y="-125.2" font-family="Helvetica,sans-Serif" font-size="11.00" fill="#000000">datetime[26]</text>
<polygon fill="none" stroke="#000000" points="163.5,-95.5 163.5,-117.5 475.5,-117.5 475.5,-95.5 163.5,-95.5"/>
<text text-anchor="start" x="183.5" y="-102.6" font-family="Helvetica,sans-Serif" font-size="11.00" fill="#000000">MODIFIED_TIME</text>
<polygon fill="none" stroke="#000000" points="475.5,-95.5 475.5,-117.5 542.5,-117.5 542.5,-95.5 475.5,-95.5"/>
<text text-anchor="start" x="478.5" y="-103.2" font-family="Helvetica,sans-Serif" font-size="11.00" fill="#000000">datetime[26]</text>
<polygon fill="#ffffff" stroke="transparent" points="163.5,-73.5 163.5,-95.5 475.5,-95.5 475.5,-73.5 163.5,-73.5"/>
<polygon fill="none" stroke="#000000" points="163.5,-73.5 163.5,-95.5 475.5,-95.5 475.5,-73.5 163.5,-73.5"/>
<image xlink:href="../../images/foreignKeys.png" width="11px" height="12px" preserveAspectRatio="xMinYMin meet" x="168.5" y="-90.5"/>
<text text-anchor="start" x="183.5" y="-80.6" font-family="Helvetica,sans-Serif" font-size="11.00" fill="#000000">CREATOR</text>
<polygon fill="none" stroke="#000000" points="475.5,-73.5 475.5,-95.5 542.5,-95.5 542.5,-73.5 475.5,-73.5"/>
<text text-anchor="start" x="478.5" y="-81.2" font-family="Helvetica,sans-Serif" font-size="11.00" fill="#000000">int[10]</text>
<polygon fill="#ffffff" stroke="transparent" points="163.5,-51.5 163.5,-73.5 475.5,-73.5 475.5,-51.5 163.5,-51.5"/>
<polygon fill="none" stroke="#000000" points="163.5,-51.5 163.5,-73.5 475.5,-73.5 475.5,-51.5 163.5,-51.5"/>
<image xlink:href="../../images/foreignKeys.png" width="11px" height="12px" preserveAspectRatio="xMinYMin meet" x="168.5" y="-68.5"/>
<text text-anchor="start" x="183.5" y="-58.6" font-family="Helvetica,sans-Serif" font-size="11.00" fill="#000000">LAST_MODIFIER</text>
<polygon fill="none" stroke="#000000" points="475.5,-51.5 475.5,-73.5 542.5,-73.5 542.5,-51.5 475.5,-51.5"/>
<text text-anchor="start" x="478.5" y="-59.2" font-family="Helvetica,sans-Serif" font-size="11.00" fill="#000000">int[10]</text>
<polygon fill="#ffffff" stroke="transparent" points="163.5,-32.5 163.5,-51.5 310.5,-51.5 310.5,-32.5 163.5,-32.5"/>
<polygon fill="none" stroke="#000000" points="163.5,-32.5 163.5,-51.5 310.5,-51.5 310.5,-32.5 163.5,-32.5"/>
<text text-anchor="start" x="166.5" y="-38.6" font-family="Helvetica,sans-Serif" font-size="11.00" fill="#000000">&lt; 2</text>
<polygon fill="#ffffff" stroke="transparent" points="310.5,-32.5 310.5,-51.5 475.5,-51.5 475.5,-32.5 310.5,-32.5"/>
<polygon fill="none" stroke="#000000" points="310.5,-32.5 310.5,-51.5 475.5,-51.5 475.5,-32.5 310.5,-32.5"/>
<text text-anchor="start" x="440.1105" y="-38.6" font-family="Helvetica,sans-Serif" font-size="11.00" fill="#000000">0 rows</text>
<polygon fill="#ffffff" stroke="transparent" points="475.5,-32.5 475.5,-51.5 542.5,-51.5 542.5,-32.5 475.5,-32.5"/>
<polygon fill="none" stroke="#000000" points="475.5,-32.5 475.5,-51.5 542.5,-51.5 542.5,-32.5 475.5,-32.5"/>
<text text-anchor="start" x="523.9053" y="-38.6" font-family="Helvetica,sans-Serif" font-size="11.00" fill="#000000">0 &gt;</text>
<polygon fill="none" stroke="#000000" stroke-width="2" points="162,-31.5 162,-383.5 543,-383.5 543,-31.5 162,-31.5"/>
</a>
</g>
</g>
<!-- User -->
<g id="node2" class="node">
<title>User</title>
<g id="a_node2"><a xlink:href="../../tables/User.html" xlink:title="User" target="_top">
<polygon fill="#ffffff" stroke="transparent" points="8,-25 8,-108 112,-108 112,-25 8,-25"/>
<polygon fill="#f5f5f5" stroke="transparent" points="8,-84.5 8,-107.5 112,-107.5 112,-84.5 8,-84.5"/>
<polygon fill="none" stroke="#000000" points="8,-84.5 8,-107.5 112,-107.5 112,-84.5 8,-84.5"/>
<text text-anchor="start" x="13" y="-93.1" font-family="Helvetica,sans-Serif" font-weight="bold" font-size="11.00" fill="#000000">User</text>
<text text-anchor="start" x="77.0437" y="-92.6" font-family="Helvetica,sans-Serif" font-size="11.00" fill="#000000">[table]</text>
<polygon fill="none" stroke="#000000" points="8,-62.5 8,-84.5 112,-84.5 112,-62.5 8,-62.5"/>
<image xlink:href="../../images/primaryKeys.png" width="11px" height="12px" preserveAspectRatio="xMinYMin meet" x="13" y="-79.5"/>
<text text-anchor="start" x="28" y="-69.6" font-family="Helvetica,sans-Serif" font-size="11.00" fill="#000000">userid_pk</text>
<polygon fill="none" stroke="#000000" points="8,-43.5 8,-62.5 112,-62.5 112,-43.5 8,-43.5"/>
<text text-anchor="start" x="11" y="-49.6" font-family="Helvetica,sans-Serif" font-size="11.00" fill="#000000">...</text>
<polygon fill="#ffffff" stroke="transparent" points="8,-24.5 8,-43.5 30,-43.5 30,-24.5 8,-24.5"/>
<polygon fill="none" stroke="#000000" points="8,-24.5 8,-43.5 30,-43.5 30,-24.5 8,-24.5"/>
<text text-anchor="start" x="11" y="-30.6" font-family="Helvetica,sans-Serif" font-size="11.00" fill="#000000"> &#160;</text>
<polygon fill="#ffffff" stroke="transparent" points="30,-24.5 30,-43.5 73,-43.5 73,-24.5 30,-24.5"/>
<polygon fill="none" stroke="#000000" points="30,-24.5 30,-43.5 73,-43.5 73,-24.5 30,-24.5"/>
<text text-anchor="start" x="37.6105" y="-30.6" font-family="Helvetica,sans-Serif" font-size="11.00" fill="#000000">0 rows</text>
<polygon fill="#ffffff" stroke="transparent" points="73,-24.5 73,-43.5 112,-43.5 112,-24.5 73,-24.5"/>
<polygon fill="none" stroke="#000000" points="73,-24.5 73,-43.5 112,-43.5 112,-24.5 73,-24.5"/>
<text text-anchor="start" x="81.1755" y="-30.6" font-family="Helvetica,sans-Serif" font-size="11.00" fill="#000000">102 &gt;</text>
</a>
</g>
</g>
<!-- CALENDAR_DEFINITION&#45;&gt;User -->
<g id="edge1" class="edge">
<title>CALENDAR_DEFINITION:w&#45;&gt;User:e</title>
<path fill="none" stroke="#000000" d="M148.8704,-82.7813C136.5803,-79.6875 129.5539,-73.5 112,-73.5"/>
<polygon fill="#000000" stroke="#000000" points="155.5546,-83.5665 163.0799,-88.0754 159.5273,-84.0332 163.5,-84.5 163.5,-84.5 163.5,-84.5 159.5273,-84.0332 163.9201,-80.9246 155.5546,-83.5665 155.5546,-83.5665"/>
<ellipse fill="none" stroke="#000000" cx="152.3765" cy="-83.1931" rx="3.2" ry="3.2"/>
</g>
<!-- CALENDAR_DEFINITION&#45;&gt;User -->
<g id="edge2" class="edge">
<title>CALENDAR_DEFINITION:w&#45;&gt;User:e</title>
<path fill="none" stroke="#000000" d="M148.8704,-64.2188C136.5803,-67.3125 129.5539,-73.5 112,-73.5"/>
<polygon fill="#000000" stroke="#000000" points="155.5546,-63.4335 163.9201,-66.0754 159.5273,-62.9668 163.5,-62.5 163.5,-62.5 163.5,-62.5 159.5273,-62.9668 163.0799,-58.9246 155.5546,-63.4335 155.5546,-63.4335"/>
<ellipse fill="none" stroke="#000000" cx="152.3765" cy="-63.8069" rx="3.2" ry="3.2"/>
</g>
</g>
</svg>
