<?xml version="1.0" encoding="UTF-8" standalone="no"?>
<!DOCTYPE svg PUBLIC "-//W3C//DTD SVG 1.1//EN"
 "http://www.w3.org/Graphics/SVG/1.1/DTD/svg11.dtd">
<!-- Generated by graphviz version 2.40.1 (20161225.0304)
 -->
<!-- Title: oneDegreeRelationshipsDiagram Pages: 1 -->
<svg width="731pt" height="347pt"
 viewBox="0.00 0.00 731.00 347.00" xmlns="http://www.w3.org/2000/svg" xmlns:xlink="http://www.w3.org/1999/xlink">
<g id="graph0" class="graph" transform="scale(1 1) rotate(0) translate(4 343)">
<title>oneDegreeRelationshipsDiagram</title>
<polygon fill="#ffffff" stroke="transparent" points="-4,4 -4,-343 727,-343 727,4 -4,4"/>
<!-- CANDIDATE -->
<g id="node1" class="node">
<title>CANDIDATE</title>
<g id="a_node1"><a xlink:href="../../tables/CANDIDATE.html" xlink:title="CANDIDATE" target="_top">
<polygon fill="#ffffff" stroke="transparent" points="161,-103.5 161,-274.5 367,-274.5 367,-103.5 161,-103.5"/>
<polygon fill="#f5f5f5" stroke="transparent" points="161,-251 161,-274 367,-274 367,-251 161,-251"/>
<polygon fill="none" stroke="#000000" points="161,-251 161,-274 367,-274 367,-251 161,-251"/>
<text text-anchor="start" x="166" y="-259.6" font-family="Helvetica,sans-Serif" font-weight="bold" font-size="11.00" fill="#000000">CANDIDATE</text>
<text text-anchor="start" x="332.0437" y="-259.1" font-family="Helvetica,sans-Serif" font-size="11.00" fill="#000000">[table]</text>
<polygon fill="none" stroke="#000000" points="161,-229 161,-251 367,-251 367,-229 161,-229"/>
<image xlink:href="../../images/primaryKeys.png" width="11px" height="12px" preserveAspectRatio="xMinYMin meet" x="166" y="-246"/>
<text text-anchor="start" x="181" y="-236.1" font-family="Helvetica,sans-Serif" font-size="11.00" fill="#000000">ID</text>
<polygon fill="#ffffff" stroke="transparent" points="161,-207 161,-229 367,-229 367,-207 161,-207"/>
<polygon fill="none" stroke="#000000" points="161,-207 161,-229 367,-229 367,-207 161,-207"/>
<image xlink:href="../../images/foreignKeys.png" width="11px" height="12px" preserveAspectRatio="xMinYMin meet" x="166" y="-224"/>
<text text-anchor="start" x="181" y="-214.1" font-family="Helvetica,sans-Serif" font-size="11.00" fill="#000000">LOCATION_ID</text>
<polygon fill="#ffffff" stroke="transparent" points="161,-185 161,-207 367,-207 367,-185 161,-185"/>
<polygon fill="none" stroke="#000000" points="161,-185 161,-207 367,-207 367,-185 161,-185"/>
<image xlink:href="../../images/foreignKeys.png" width="11px" height="12px" preserveAspectRatio="xMinYMin meet" x="166" y="-202"/>
<text text-anchor="start" x="181" y="-192.1" font-family="Helvetica,sans-Serif" font-size="11.00" fill="#000000">DEPARTMENT_ID</text>
<polygon fill="#ffffff" stroke="transparent" points="161,-163 161,-185 367,-185 367,-163 161,-163"/>
<polygon fill="none" stroke="#000000" points="161,-163 161,-185 367,-185 367,-163 161,-163"/>
<image xlink:href="../../images/foreignKeys.png" width="11px" height="12px" preserveAspectRatio="xMinYMin meet" x="166" y="-180"/>
<text text-anchor="start" x="181" y="-170.1" font-family="Helvetica,sans-Serif" font-size="11.00" fill="#000000">CREATOR</text>
<polygon fill="#ffffff" stroke="transparent" points="161,-141 161,-163 367,-163 367,-141 161,-141"/>
<polygon fill="none" stroke="#000000" points="161,-141 161,-163 367,-163 367,-141 161,-141"/>
<image xlink:href="../../images/foreignKeys.png" width="11px" height="12px" preserveAspectRatio="xMinYMin meet" x="166" y="-158"/>
<text text-anchor="start" x="181" y="-148.1" font-family="Helvetica,sans-Serif" font-size="11.00" fill="#000000">LAST_MODIFIER</text>
<polygon fill="none" stroke="#000000" points="161,-122 161,-141 367,-141 367,-122 161,-122"/>
<text text-anchor="start" x="164" y="-128.1" font-family="Helvetica,sans-Serif" font-size="11.00" fill="#000000">...</text>
<polygon fill="#ffffff" stroke="transparent" points="161,-103 161,-122 245,-122 245,-103 161,-103"/>
<polygon fill="none" stroke="#000000" points="161,-103 161,-122 245,-122 245,-103 161,-103"/>
<text text-anchor="start" x="164" y="-109.1" font-family="Helvetica,sans-Serif" font-size="11.00" fill="#000000">&lt; 4</text>
<polygon fill="#ffffff" stroke="transparent" points="245,-103 245,-122 314,-122 314,-103 245,-103"/>
<polygon fill="none" stroke="#000000" points="245,-103 245,-122 314,-122 314,-103 245,-103"/>
<text text-anchor="start" x="278.6105" y="-109.1" font-family="Helvetica,sans-Serif" font-size="11.00" fill="#000000">0 rows</text>
<polygon fill="#ffffff" stroke="transparent" points="314,-103 314,-122 367,-122 367,-103 314,-103"/>
<polygon fill="none" stroke="#000000" points="314,-103 314,-122 367,-122 367,-103 314,-103"/>
<text text-anchor="start" x="348.4053" y="-109.1" font-family="Helvetica,sans-Serif" font-size="11.00" fill="#000000">2 &gt;</text>
</a>
</g>
</g>
<!-- User -->
<g id="node2" class="node">
<title>User</title>
<g id="a_node2"><a xlink:href="../../tables/User.html" xlink:title="User" target="_top">
<polygon fill="#ffffff" stroke="transparent" points="8,-66.5 8,-149.5 112,-149.5 112,-66.5 8,-66.5"/>
<polygon fill="#f5f5f5" stroke="transparent" points="8,-126 8,-149 112,-149 112,-126 8,-126"/>
<polygon fill="none" stroke="#000000" points="8,-126 8,-149 112,-149 112,-126 8,-126"/>
<text text-anchor="start" x="13" y="-134.6" font-family="Helvetica,sans-Serif" font-weight="bold" font-size="11.00" fill="#000000">User</text>
<text text-anchor="start" x="77.0437" y="-134.1" font-family="Helvetica,sans-Serif" font-size="11.00" fill="#000000">[table]</text>
<polygon fill="none" stroke="#000000" points="8,-104 8,-126 112,-126 112,-104 8,-104"/>
<image xlink:href="../../images/primaryKeys.png" width="11px" height="12px" preserveAspectRatio="xMinYMin meet" x="13" y="-121"/>
<text text-anchor="start" x="28" y="-111.1" font-family="Helvetica,sans-Serif" font-size="11.00" fill="#000000">userid_pk</text>
<polygon fill="none" stroke="#000000" points="8,-85 8,-104 112,-104 112,-85 8,-85"/>
<text text-anchor="start" x="11" y="-91.1" font-family="Helvetica,sans-Serif" font-size="11.00" fill="#000000">...</text>
<polygon fill="#ffffff" stroke="transparent" points="8,-66 8,-85 30,-85 30,-66 8,-66"/>
<polygon fill="none" stroke="#000000" points="8,-66 8,-85 30,-85 30,-66 8,-66"/>
<text text-anchor="start" x="11" y="-72.1" font-family="Helvetica,sans-Serif" font-size="11.00" fill="#000000"> &#160;</text>
<polygon fill="#ffffff" stroke="transparent" points="30,-66 30,-85 73,-85 73,-66 30,-66"/>
<polygon fill="none" stroke="#000000" points="30,-66 30,-85 73,-85 73,-66 30,-66"/>
<text text-anchor="start" x="37.6105" y="-72.1" font-family="Helvetica,sans-Serif" font-size="11.00" fill="#000000">0 rows</text>
<polygon fill="#ffffff" stroke="transparent" points="73,-66 73,-85 112,-85 112,-66 73,-66"/>
<polygon fill="none" stroke="#000000" points="73,-66 73,-85 112,-85 112,-66 73,-66"/>
<text text-anchor="start" x="81.1755" y="-72.1" font-family="Helvetica,sans-Serif" font-size="11.00" fill="#000000">102 &gt;</text>
</a>
</g>
</g>
<!-- CANDIDATE&#45;&gt;User -->
<g id="edge1" class="edge">
<title>CANDIDATE:w&#45;&gt;User:e</title>
<path fill="none" stroke="#000000" d="M147.1662,-168.9697C132.0842,-154.7018 139.9614,-115 112,-115"/>
<polygon fill="#000000" stroke="#000000" points="153.4816,-171.2661 159.7697,-177.3833 157.2408,-172.6331 161,-174 161,-174 161,-174 157.2408,-172.6331 162.2303,-170.6167 153.4816,-171.2661 153.4816,-171.2661"/>
<ellipse fill="none" stroke="#000000" cx="150.4743" cy="-170.1725" rx="3.2" ry="3.2"/>
</g>
<!-- CANDIDATE&#45;&gt;User -->
<g id="edge2" class="edge">
<title>CANDIDATE:w&#45;&gt;User:e</title>
<path fill="none" stroke="#000000" d="M147.1217,-147.4631C134.5786,-137.583 133.3196,-115 112,-115"/>
<polygon fill="#000000" stroke="#000000" points="153.396,-149.5142 159.8814,-155.4218 157.198,-150.7571 161,-152 161,-152 161,-152 157.198,-150.7571 162.1186,-148.5782 153.396,-149.5142 153.396,-149.5142"/>
<ellipse fill="none" stroke="#000000" cx="150.3544" cy="-148.5198" rx="3.2" ry="3.2"/>
</g>
<!-- CANDIDATE_EDUCATION -->
<g id="node3" class="node">
<title>CANDIDATE_EDUCATION</title>
<g id="a_node3"><a xlink:href="../../tables/CANDIDATE_EDUCATION.html" xlink:title="CANDIDATE_EDUCATION" target="_top">
<polygon fill="#ffffff" stroke="transparent" points="416,-25 416,-335 715,-335 715,-25 416,-25"/>
<polygon fill="#f5f5f5" stroke="transparent" points="418.5,-310 418.5,-333 713.5,-333 713.5,-310 418.5,-310"/>
<polygon fill="none" stroke="#000000" points="418.5,-310 418.5,-333 713.5,-333 713.5,-310 418.5,-310"/>
<text text-anchor="start" x="423.5" y="-318.6" font-family="Helvetica,sans-Serif" font-weight="bold" font-size="11.00" fill="#000000">CANDIDATE_EDUCATION</text>
<text text-anchor="start" x="678.5437" y="-318.1" font-family="Helvetica,sans-Serif" font-size="11.00" fill="#000000">[table]</text>
<polygon fill="none" stroke="#000000" points="418.5,-288 418.5,-310 602.5,-310 602.5,-288 418.5,-288"/>
<image xlink:href="../../images/primaryKeys.png" width="11px" height="12px" preserveAspectRatio="xMinYMin meet" x="423.5" y="-305"/>
<text text-anchor="start" x="438.5" y="-295.1" font-family="Helvetica,sans-Serif" font-size="11.00" fill="#000000">ID</text>
<polygon fill="none" stroke="#000000" points="602.5,-288 602.5,-310 713.5,-310 713.5,-288 602.5,-288"/>
<text text-anchor="start" x="605.5" y="-295.7" font-family="Helvetica,sans-Serif" font-size="11.00" fill="#000000">int[10]</text>
<polygon fill="none" stroke="#000000" points="418.5,-266 418.5,-288 602.5,-288 602.5,-266 418.5,-266"/>
<text text-anchor="start" x="438.5" y="-273.1" font-family="Helvetica,sans-Serif" font-size="11.00" fill="#000000">WORKSPACE_ID</text>
<polygon fill="none" stroke="#000000" points="602.5,-266 602.5,-288 713.5,-288 713.5,-266 602.5,-266"/>
<text text-anchor="start" x="605.5" y="-273.7" font-family="Helvetica,sans-Serif" font-size="11.00" fill="#000000">int[10]</text>
<polygon fill="none" stroke="#000000" points="418.5,-244 418.5,-266 602.5,-266 602.5,-244 418.5,-244"/>
<text text-anchor="start" x="438.5" y="-251.1" font-family="Helvetica,sans-Serif" font-size="11.00" fill="#000000">SCHOOL_NAME</text>
<polygon fill="none" stroke="#000000" points="602.5,-244 602.5,-266 713.5,-266 713.5,-244 602.5,-244"/>
<text text-anchor="start" x="605.5" y="-251.7" font-family="Helvetica,sans-Serif" font-size="11.00" fill="#000000">varchar[100]</text>
<polygon fill="none" stroke="#000000" points="418.5,-222 418.5,-244 602.5,-244 602.5,-222 418.5,-222"/>
<text text-anchor="start" x="438.5" y="-229.1" font-family="Helvetica,sans-Serif" font-size="11.00" fill="#000000">DEGREE_DIPLOMA</text>
<polygon fill="none" stroke="#000000" points="602.5,-222 602.5,-244 713.5,-244 713.5,-222 602.5,-222"/>
<text text-anchor="start" x="605.5" y="-229.7" font-family="Helvetica,sans-Serif" font-size="11.00" fill="#000000">varchar[50]</text>
<polygon fill="none" stroke="#000000" points="418.5,-200 418.5,-222 602.5,-222 602.5,-200 418.5,-200"/>
<text text-anchor="start" x="438.5" y="-207.1" font-family="Helvetica,sans-Serif" font-size="11.00" fill="#000000">FIELD_OF_STUDY</text>
<polygon fill="none" stroke="#000000" points="602.5,-200 602.5,-222 713.5,-222 713.5,-200 602.5,-200"/>
<text text-anchor="start" x="605.5" y="-207.7" font-family="Helvetica,sans-Serif" font-size="11.00" fill="#000000">varchar[100]</text>
<polygon fill="none" stroke="#000000" points="418.5,-178 418.5,-200 602.5,-200 602.5,-178 418.5,-178"/>
<text text-anchor="start" x="438.5" y="-185.1" font-family="Helvetica,sans-Serif" font-size="11.00" fill="#000000">DATE_OF_COMPLETION</text>
<polygon fill="none" stroke="#000000" points="602.5,-178 602.5,-200 713.5,-200 713.5,-178 602.5,-178"/>
<text text-anchor="start" x="605.5" y="-185.7" font-family="Helvetica,sans-Serif" font-size="11.00" fill="#000000">datetime[26]</text>
<polygon fill="none" stroke="#000000" points="418.5,-156 418.5,-178 602.5,-178 602.5,-156 418.5,-156"/>
<text text-anchor="start" x="438.5" y="-163.1" font-family="Helvetica,sans-Serif" font-size="11.00" fill="#000000">ADDITIONAL_NOTES</text>
<polygon fill="none" stroke="#000000" points="602.5,-156 602.5,-178 713.5,-178 713.5,-156 602.5,-156"/>
<text text-anchor="start" x="605.1115" y="-163.7" font-family="Helvetica,sans-Serif" font-size="11.00" fill="#000000">longtext[2147483647]</text>
<polygon fill="#ffffff" stroke="transparent" points="418.5,-134 418.5,-156 602.5,-156 602.5,-134 418.5,-134"/>
<polygon fill="none" stroke="#000000" points="418.5,-134 418.5,-156 602.5,-156 602.5,-134 418.5,-134"/>
<image xlink:href="../../images/foreignKeys.png" width="11px" height="12px" preserveAspectRatio="xMinYMin meet" x="423.5" y="-151"/>
<text text-anchor="start" x="438.5" y="-141.1" font-family="Helvetica,sans-Serif" font-size="11.00" fill="#000000">CANDIDATE_ID</text>
<polygon fill="none" stroke="#000000" points="602.5,-134 602.5,-156 713.5,-156 713.5,-134 602.5,-134"/>
<text text-anchor="start" x="605.5" y="-141.7" font-family="Helvetica,sans-Serif" font-size="11.00" fill="#000000">int[10]</text>
<polygon fill="none" stroke="#000000" points="418.5,-112 418.5,-134 602.5,-134 602.5,-112 418.5,-112"/>
<text text-anchor="start" x="438.5" y="-119.1" font-family="Helvetica,sans-Serif" font-size="11.00" fill="#000000">CREATED_TIME</text>
<polygon fill="none" stroke="#000000" points="602.5,-112 602.5,-134 713.5,-134 713.5,-112 602.5,-112"/>
<text text-anchor="start" x="605.5" y="-119.7" font-family="Helvetica,sans-Serif" font-size="11.00" fill="#000000">datetime[26]</text>
<polygon fill="none" stroke="#000000" points="418.5,-90 418.5,-112 602.5,-112 602.5,-90 418.5,-90"/>
<text text-anchor="start" x="438.5" y="-97.1" font-family="Helvetica,sans-Serif" font-size="11.00" fill="#000000">MODIFIED_TIME</text>
<polygon fill="none" stroke="#000000" points="602.5,-90 602.5,-112 713.5,-112 713.5,-90 602.5,-90"/>
<text text-anchor="start" x="605.5" y="-97.7" font-family="Helvetica,sans-Serif" font-size="11.00" fill="#000000">datetime[26]</text>
<polygon fill="#ffffff" stroke="transparent" points="418.5,-68 418.5,-90 602.5,-90 602.5,-68 418.5,-68"/>
<polygon fill="none" stroke="#000000" points="418.5,-68 418.5,-90 602.5,-90 602.5,-68 418.5,-68"/>
<image xlink:href="../../images/foreignKeys.png" width="11px" height="12px" preserveAspectRatio="xMinYMin meet" x="423.5" y="-85"/>
<text text-anchor="start" x="438.5" y="-75.1" font-family="Helvetica,sans-Serif" font-size="11.00" fill="#000000">CREATOR</text>
<polygon fill="none" stroke="#000000" points="602.5,-68 602.5,-90 713.5,-90 713.5,-68 602.5,-68"/>
<text text-anchor="start" x="605.5" y="-75.7" font-family="Helvetica,sans-Serif" font-size="11.00" fill="#000000">int[10]</text>
<polygon fill="#ffffff" stroke="transparent" points="418.5,-46 418.5,-68 602.5,-68 602.5,-46 418.5,-46"/>
<polygon fill="none" stroke="#000000" points="418.5,-46 418.5,-68 602.5,-68 602.5,-46 418.5,-46"/>
<image xlink:href="../../images/foreignKeys.png" width="11px" height="12px" preserveAspectRatio="xMinYMin meet" x="423.5" y="-63"/>
<text text-anchor="start" x="438.5" y="-53.1" font-family="Helvetica,sans-Serif" font-size="11.00" fill="#000000">LAST_MODIFIER</text>
<polygon fill="none" stroke="#000000" points="602.5,-46 602.5,-68 713.5,-68 713.5,-46 602.5,-46"/>
<text text-anchor="start" x="605.5" y="-53.7" font-family="Helvetica,sans-Serif" font-size="11.00" fill="#000000">int[10]</text>
<polygon fill="#ffffff" stroke="transparent" points="418.5,-27 418.5,-46 501.5,-46 501.5,-27 418.5,-27"/>
<polygon fill="none" stroke="#000000" points="418.5,-27 418.5,-46 501.5,-46 501.5,-27 418.5,-27"/>
<text text-anchor="start" x="421.5" y="-33.1" font-family="Helvetica,sans-Serif" font-size="11.00" fill="#000000">&lt; 3</text>
<polygon fill="#ffffff" stroke="transparent" points="501.5,-27 501.5,-46 602.5,-46 602.5,-27 501.5,-27"/>
<polygon fill="none" stroke="#000000" points="501.5,-27 501.5,-46 602.5,-46 602.5,-27 501.5,-27"/>
<text text-anchor="start" x="567.1105" y="-33.1" font-family="Helvetica,sans-Serif" font-size="11.00" fill="#000000">0 rows</text>
<polygon fill="#ffffff" stroke="transparent" points="602.5,-27 602.5,-46 713.5,-46 713.5,-27 602.5,-27"/>
<polygon fill="none" stroke="#000000" points="602.5,-27 602.5,-46 713.5,-46 713.5,-27 602.5,-27"/>
<text text-anchor="start" x="694.9053" y="-33.1" font-family="Helvetica,sans-Serif" font-size="11.00" fill="#000000">0 &gt;</text>
<polygon fill="none" stroke="#000000" stroke-width="2" points="417,-26 417,-334 714,-334 714,-26 417,-26"/>
</a>
</g>
</g>
<!-- CANDIDATE_EDUCATION&#45;&gt;CANDIDATE -->
<g id="edge3" class="edge">
<title>CANDIDATE_EDUCATION:w&#45;&gt;CANDIDATE:e</title>
<path fill="none" stroke="#000000" d="M404.4679,-149.082C380.1648,-167.2656 409.0238,-240 367,-240"/>
<polygon fill="#000000" stroke="#000000" points="410.8184,-147.2347 419.5056,-148.4567 414.6592,-146.1173 418.5,-145 418.5,-145 418.5,-145 414.6592,-146.1173 417.4944,-141.5433 410.8184,-147.2347 410.8184,-147.2347"/>
<ellipse fill="none" stroke="#000000" cx="407.7458" cy="-148.1285" rx="3.2" ry="3.2"/>
</g>
<!-- CANDIDATE_EDUCATION&#45;&gt;User -->
<g id="edge4" class="edge">
<title>CANDIDATE_EDUCATION:w&#45;&gt;User:e</title>
<path fill="none" stroke="#000000" d="M404.0496,-78.9108C297.3781,-77.5916 262.0224,-62.5237 153,-93 133.0837,-98.5674 132.6798,-115 112,-115"/>
<polygon fill="#000000" stroke="#000000" points="410.5002,-78.9505 418.4777,-82.5999 414.5001,-78.9753 418.5,-79 418.5,-79 418.5,-79 414.5001,-78.9753 418.5223,-75.4001 410.5002,-78.9505 410.5002,-78.9505"/>
<ellipse fill="none" stroke="#000000" cx="407.3002" cy="-78.9308" rx="3.2" ry="3.2"/>
</g>
<!-- CANDIDATE_EDUCATION&#45;&gt;User -->
<g id="edge5" class="edge">
<title>CANDIDATE_EDUCATION:w&#45;&gt;User:e</title>
<path fill="none" stroke="#000000" d="M404.0155,-56.8187C296.837,-54.1302 255.5792,-23.1231 153,-71 128.7787,-82.3048 138.7296,-115 112,-115"/>
<polygon fill="#000000" stroke="#000000" points="410.5006,-56.8998 418.4549,-60.5997 414.5003,-56.9499 418.5,-57 418.5,-57 418.5,-57 414.5003,-56.9499 418.5451,-53.4003 410.5006,-56.8998 410.5006,-56.8998"/>
<ellipse fill="none" stroke="#000000" cx="407.3009" cy="-56.8598" rx="3.2" ry="3.2"/>
</g>
</g>
</svg>
