<?xml version="1.0" encoding="UTF-8" standalone="no"?>
<!DOCTYPE svg PUBLIC "-//W3C//DTD SVG 1.1//EN"
 "http://www.w3.org/Graphics/SVG/1.1/DTD/svg11.dtd">
<!-- Generated by graphviz version 2.40.1 (20161225.0304)
 -->
<!-- Title: oneDegreeRelationshipsDiagram Pages: 1 -->
<svg width="550pt" height="281pt"
 viewBox="0.00 0.00 550.00 281.00" xmlns="http://www.w3.org/2000/svg" xmlns:xlink="http://www.w3.org/1999/xlink">
<g id="graph0" class="graph" transform="scale(1 1) rotate(0) translate(4 277)">
<title>oneDegreeRelationshipsDiagram</title>
<polygon fill="#ffffff" stroke="transparent" points="-4,4 -4,-277 546,-277 546,4 -4,4"/>
<!-- CITY -->
<g id="node1" class="node">
<title>CITY</title>
<g id="a_node1"><a xlink:href="../../tables/CITY.html" xlink:title="CITY" target="_top">
<polygon fill="#ffffff" stroke="transparent" points="337,-25 337,-269 534,-269 534,-25 337,-25"/>
<polygon fill="#f5f5f5" stroke="transparent" points="339.5,-244 339.5,-267 532.5,-267 532.5,-244 339.5,-244"/>
<polygon fill="none" stroke="#000000" points="339.5,-244 339.5,-267 532.5,-267 532.5,-244 339.5,-244"/>
<text text-anchor="start" x="344.5" y="-252.6" font-family="Helvetica,sans-Serif" font-weight="bold" font-size="11.00" fill="#000000">CITY</text>
<text text-anchor="start" x="497.5437" y="-252.1" font-family="Helvetica,sans-Serif" font-size="11.00" fill="#000000">[table]</text>
<polygon fill="none" stroke="#000000" points="339.5,-222 339.5,-244 466.5,-244 466.5,-222 339.5,-222"/>
<image xlink:href="../../images/primaryKeys.png" width="11px" height="12px" preserveAspectRatio="xMinYMin meet" x="344.5" y="-239"/>
<text text-anchor="start" x="359.5" y="-229.1" font-family="Helvetica,sans-Serif" font-size="11.00" fill="#000000">ID</text>
<polygon fill="none" stroke="#000000" points="466.5,-222 466.5,-244 532.5,-244 532.5,-222 466.5,-222"/>
<text text-anchor="start" x="469.5" y="-229.7" font-family="Helvetica,sans-Serif" font-size="11.00" fill="#000000">int[10]</text>
<polygon fill="none" stroke="#000000" points="339.5,-200 339.5,-222 466.5,-222 466.5,-200 339.5,-200"/>
<text text-anchor="start" x="359.5" y="-207.1" font-family="Helvetica,sans-Serif" font-size="11.00" fill="#000000">WORKSPACE_ID</text>
<polygon fill="none" stroke="#000000" points="466.5,-200 466.5,-222 532.5,-222 532.5,-200 466.5,-200"/>
<text text-anchor="start" x="469.5" y="-207.7" font-family="Helvetica,sans-Serif" font-size="11.00" fill="#000000">int[10]</text>
<polygon fill="#ffffff" stroke="transparent" points="339.5,-178 339.5,-200 466.5,-200 466.5,-178 339.5,-178"/>
<polygon fill="none" stroke="#000000" points="339.5,-178 339.5,-200 466.5,-200 466.5,-178 339.5,-178"/>
<image xlink:href="../../images/foreignKeys.png" width="11px" height="12px" preserveAspectRatio="xMinYMin meet" x="344.5" y="-195"/>
<text text-anchor="start" x="359.5" y="-185.1" font-family="Helvetica,sans-Serif" font-size="11.00" fill="#000000">STATE_ID</text>
<polygon fill="none" stroke="#000000" points="466.5,-178 466.5,-200 532.5,-200 532.5,-178 466.5,-178"/>
<text text-anchor="start" x="469.5" y="-185.7" font-family="Helvetica,sans-Serif" font-size="11.00" fill="#000000">int[10]</text>
<polygon fill="none" stroke="#000000" points="339.5,-156 339.5,-178 466.5,-178 466.5,-156 339.5,-156"/>
<text text-anchor="start" x="359.5" y="-163.1" font-family="Helvetica,sans-Serif" font-size="11.00" fill="#000000">NAME</text>
<polygon fill="none" stroke="#000000" points="466.5,-156 466.5,-178 532.5,-178 532.5,-156 466.5,-156"/>
<text text-anchor="start" x="469.5" y="-163.7" font-family="Helvetica,sans-Serif" font-size="11.00" fill="#000000">varchar[50]</text>
<polygon fill="none" stroke="#000000" points="339.5,-134 339.5,-156 466.5,-156 466.5,-134 339.5,-134"/>
<text text-anchor="start" x="359.5" y="-141.1" font-family="Helvetica,sans-Serif" font-size="11.00" fill="#000000">DISPLAY_NAME</text>
<polygon fill="none" stroke="#000000" points="466.5,-134 466.5,-156 532.5,-156 532.5,-134 466.5,-134"/>
<text text-anchor="start" x="469.5" y="-141.7" font-family="Helvetica,sans-Serif" font-size="11.00" fill="#000000">varchar[50]</text>
<polygon fill="none" stroke="#000000" points="339.5,-112 339.5,-134 466.5,-134 466.5,-112 339.5,-112"/>
<text text-anchor="start" x="359.5" y="-119.1" font-family="Helvetica,sans-Serif" font-size="11.00" fill="#000000">CREATED_TIME</text>
<polygon fill="none" stroke="#000000" points="466.5,-112 466.5,-134 532.5,-134 532.5,-112 466.5,-112"/>
<text text-anchor="start" x="469.2401" y="-119.7" font-family="Helvetica,sans-Serif" font-size="11.00" fill="#000000">datetime[26]</text>
<polygon fill="none" stroke="#000000" points="339.5,-90 339.5,-112 466.5,-112 466.5,-90 339.5,-90"/>
<text text-anchor="start" x="359.5" y="-97.1" font-family="Helvetica,sans-Serif" font-size="11.00" fill="#000000">MODIFIED_TIME</text>
<polygon fill="none" stroke="#000000" points="466.5,-90 466.5,-112 532.5,-112 532.5,-90 466.5,-90"/>
<text text-anchor="start" x="469.2401" y="-97.7" font-family="Helvetica,sans-Serif" font-size="11.00" fill="#000000">datetime[26]</text>
<polygon fill="#ffffff" stroke="transparent" points="339.5,-68 339.5,-90 466.5,-90 466.5,-68 339.5,-68"/>
<polygon fill="none" stroke="#000000" points="339.5,-68 339.5,-90 466.5,-90 466.5,-68 339.5,-68"/>
<image xlink:href="../../images/foreignKeys.png" width="11px" height="12px" preserveAspectRatio="xMinYMin meet" x="344.5" y="-85"/>
<text text-anchor="start" x="359.5" y="-75.1" font-family="Helvetica,sans-Serif" font-size="11.00" fill="#000000">CREATOR</text>
<polygon fill="none" stroke="#000000" points="466.5,-68 466.5,-90 532.5,-90 532.5,-68 466.5,-68"/>
<text text-anchor="start" x="469.5" y="-75.7" font-family="Helvetica,sans-Serif" font-size="11.00" fill="#000000">int[10]</text>
<polygon fill="#ffffff" stroke="transparent" points="339.5,-46 339.5,-68 466.5,-68 466.5,-46 339.5,-46"/>
<polygon fill="none" stroke="#000000" points="339.5,-46 339.5,-68 466.5,-68 466.5,-46 339.5,-46"/>
<image xlink:href="../../images/foreignKeys.png" width="11px" height="12px" preserveAspectRatio="xMinYMin meet" x="344.5" y="-63"/>
<text text-anchor="start" x="359.5" y="-53.1" font-family="Helvetica,sans-Serif" font-size="11.00" fill="#000000">LAST_MODIFIER</text>
<polygon fill="none" stroke="#000000" points="466.5,-46 466.5,-68 532.5,-68 532.5,-46 466.5,-46"/>
<text text-anchor="start" x="469.5" y="-53.7" font-family="Helvetica,sans-Serif" font-size="11.00" fill="#000000">int[10]</text>
<polygon fill="#ffffff" stroke="transparent" points="339.5,-27 339.5,-46 394.5,-46 394.5,-27 339.5,-27"/>
<polygon fill="none" stroke="#000000" points="339.5,-27 339.5,-46 394.5,-46 394.5,-27 339.5,-27"/>
<text text-anchor="start" x="342.5" y="-33.1" font-family="Helvetica,sans-Serif" font-size="11.00" fill="#000000">&lt; 3</text>
<polygon fill="#ffffff" stroke="transparent" points="394.5,-27 394.5,-46 466.5,-46 466.5,-27 394.5,-27"/>
<polygon fill="none" stroke="#000000" points="394.5,-27 394.5,-46 466.5,-46 466.5,-27 394.5,-27"/>
<text text-anchor="start" x="431.1105" y="-33.1" font-family="Helvetica,sans-Serif" font-size="11.00" fill="#000000">0 rows</text>
<polygon fill="#ffffff" stroke="transparent" points="466.5,-27 466.5,-46 532.5,-46 532.5,-27 466.5,-27"/>
<polygon fill="none" stroke="#000000" points="466.5,-27 466.5,-46 532.5,-46 532.5,-27 466.5,-27"/>
<text text-anchor="start" x="513.9053" y="-33.1" font-family="Helvetica,sans-Serif" font-size="11.00" fill="#000000">0 &gt;</text>
<polygon fill="none" stroke="#000000" stroke-width="2" points="338,-26 338,-268 533,-268 533,-26 338,-26"/>
</a>
</g>
</g>
<!-- User -->
<g id="node2" class="node">
<title>User</title>
<g id="a_node2"><a xlink:href="../../tables/User.html" xlink:title="User" target="_top">
<polygon fill="#ffffff" stroke="transparent" points="8,-66.5 8,-149.5 112,-149.5 112,-66.5 8,-66.5"/>
<polygon fill="#f5f5f5" stroke="transparent" points="8,-126 8,-149 112,-149 112,-126 8,-126"/>
<polygon fill="none" stroke="#000000" points="8,-126 8,-149 112,-149 112,-126 8,-126"/>
<text text-anchor="start" x="13" y="-134.6" font-family="Helvetica,sans-Serif" font-weight="bold" font-size="11.00" fill="#000000">User</text>
<text text-anchor="start" x="77.0437" y="-134.1" font-family="Helvetica,sans-Serif" font-size="11.00" fill="#000000">[table]</text>
<polygon fill="none" stroke="#000000" points="8,-104 8,-126 112,-126 112,-104 8,-104"/>
<image xlink:href="../../images/primaryKeys.png" width="11px" height="12px" preserveAspectRatio="xMinYMin meet" x="13" y="-121"/>
<text text-anchor="start" x="28" y="-111.1" font-family="Helvetica,sans-Serif" font-size="11.00" fill="#000000">userid_pk</text>
<polygon fill="none" stroke="#000000" points="8,-85 8,-104 112,-104 112,-85 8,-85"/>
<text text-anchor="start" x="11" y="-91.1" font-family="Helvetica,sans-Serif" font-size="11.00" fill="#000000">...</text>
<polygon fill="#ffffff" stroke="transparent" points="8,-66 8,-85 30,-85 30,-66 8,-66"/>
<polygon fill="none" stroke="#000000" points="8,-66 8,-85 30,-85 30,-66 8,-66"/>
<text text-anchor="start" x="11" y="-72.1" font-family="Helvetica,sans-Serif" font-size="11.00" fill="#000000"> &#160;</text>
<polygon fill="#ffffff" stroke="transparent" points="30,-66 30,-85 73,-85 73,-66 30,-66"/>
<polygon fill="none" stroke="#000000" points="30,-66 30,-85 73,-85 73,-66 30,-66"/>
<text text-anchor="start" x="37.6105" y="-72.1" font-family="Helvetica,sans-Serif" font-size="11.00" fill="#000000">0 rows</text>
<polygon fill="#ffffff" stroke="transparent" points="73,-66 73,-85 112,-85 112,-66 73,-66"/>
<polygon fill="none" stroke="#000000" points="73,-66 73,-85 112,-85 112,-66 73,-66"/>
<text text-anchor="start" x="81.1755" y="-72.1" font-family="Helvetica,sans-Serif" font-size="11.00" fill="#000000">102 &gt;</text>
</a>
</g>
</g>
<!-- CITY&#45;&gt;User -->
<g id="edge1" class="edge">
<title>CITY:w&#45;&gt;User:e</title>
<path fill="none" stroke="#000000" d="M325.0308,-78.9074C253.3166,-77.9971 227.9677,-71.1416 153,-93 133.1469,-98.7886 132.6798,-115 112,-115"/>
<polygon fill="#000000" stroke="#000000" points="331.5002,-78.9487 339.4769,-82.5999 335.5001,-78.9744 339.5,-79 339.5,-79 339.5,-79 335.5001,-78.9744 339.5231,-75.4001 331.5002,-78.9487 331.5002,-78.9487"/>
<ellipse fill="none" stroke="#000000" cx="328.3002" cy="-78.9282" rx="3.2" ry="3.2"/>
</g>
<!-- CITY&#45;&gt;User -->
<g id="edge2" class="edge">
<title>CITY:w&#45;&gt;User:e</title>
<path fill="none" stroke="#000000" d="M324.9623,-56.8277C252.697,-55.1246 223.9584,-42.0581 153,-75 129.9092,-85.7197 137.4578,-115 112,-115"/>
<polygon fill="#000000" stroke="#000000" points="331.5006,-56.9051 339.4573,-60.5997 335.5003,-56.9526 339.5,-57 339.5,-57 339.5,-57 335.5003,-56.9526 339.5427,-53.4003 331.5006,-56.9051 331.5006,-56.9051"/>
<ellipse fill="none" stroke="#000000" cx="328.3008" cy="-56.8672" rx="3.2" ry="3.2"/>
</g>
<!-- STATE -->
<g id="node3" class="node">
<title>STATE</title>
<g id="a_node3"><a xlink:href="../../tables/STATE.html" xlink:title="STATE" target="_top">
<polygon fill="#ffffff" stroke="transparent" points="161,-103.5 161,-252.5 288,-252.5 288,-103.5 161,-103.5"/>
<polygon fill="#f5f5f5" stroke="transparent" points="161.5,-229 161.5,-252 288.5,-252 288.5,-229 161.5,-229"/>
<polygon fill="none" stroke="#000000" points="161.5,-229 161.5,-252 288.5,-252 288.5,-229 161.5,-229"/>
<text text-anchor="start" x="166.5" y="-237.6" font-family="Helvetica,sans-Serif" font-weight="bold" font-size="11.00" fill="#000000">STATE</text>
<text text-anchor="start" x="253.5437" y="-237.1" font-family="Helvetica,sans-Serif" font-size="11.00" fill="#000000">[table]</text>
<polygon fill="none" stroke="#000000" points="161.5,-207 161.5,-229 288.5,-229 288.5,-207 161.5,-207"/>
<image xlink:href="../../images/primaryKeys.png" width="11px" height="12px" preserveAspectRatio="xMinYMin meet" x="166.5" y="-224"/>
<text text-anchor="start" x="181.5" y="-214.1" font-family="Helvetica,sans-Serif" font-size="11.00" fill="#000000">ID</text>
<polygon fill="#ffffff" stroke="transparent" points="161.5,-185 161.5,-207 288.5,-207 288.5,-185 161.5,-185"/>
<polygon fill="none" stroke="#000000" points="161.5,-185 161.5,-207 288.5,-207 288.5,-185 161.5,-185"/>
<image xlink:href="../../images/foreignKeys.png" width="11px" height="12px" preserveAspectRatio="xMinYMin meet" x="166.5" y="-202"/>
<text text-anchor="start" x="181.5" y="-192.1" font-family="Helvetica,sans-Serif" font-size="11.00" fill="#000000">COUNTRY_ID</text>
<polygon fill="#ffffff" stroke="transparent" points="161.5,-163 161.5,-185 288.5,-185 288.5,-163 161.5,-163"/>
<polygon fill="none" stroke="#000000" points="161.5,-163 161.5,-185 288.5,-185 288.5,-163 161.5,-163"/>
<image xlink:href="../../images/foreignKeys.png" width="11px" height="12px" preserveAspectRatio="xMinYMin meet" x="166.5" y="-180"/>
<text text-anchor="start" x="181.5" y="-170.1" font-family="Helvetica,sans-Serif" font-size="11.00" fill="#000000">CREATOR</text>
<polygon fill="#ffffff" stroke="transparent" points="161.5,-141 161.5,-163 288.5,-163 288.5,-141 161.5,-141"/>
<polygon fill="none" stroke="#000000" points="161.5,-141 161.5,-163 288.5,-163 288.5,-141 161.5,-141"/>
<image xlink:href="../../images/foreignKeys.png" width="11px" height="12px" preserveAspectRatio="xMinYMin meet" x="166.5" y="-158"/>
<text text-anchor="start" x="181.5" y="-148.1" font-family="Helvetica,sans-Serif" font-size="11.00" fill="#000000">LAST_MODIFIER</text>
<polygon fill="none" stroke="#000000" points="161.5,-122 161.5,-141 288.5,-141 288.5,-122 161.5,-122"/>
<text text-anchor="start" x="164.5" y="-128.1" font-family="Helvetica,sans-Serif" font-size="11.00" fill="#000000">...</text>
<polygon fill="#ffffff" stroke="transparent" points="161.5,-103 161.5,-122 205.5,-122 205.5,-103 161.5,-103"/>
<polygon fill="none" stroke="#000000" points="161.5,-103 161.5,-122 205.5,-122 205.5,-103 161.5,-103"/>
<text text-anchor="start" x="164.5" y="-109.1" font-family="Helvetica,sans-Serif" font-size="11.00" fill="#000000">&lt; 3</text>
<polygon fill="#ffffff" stroke="transparent" points="205.5,-103 205.5,-122 255.5,-122 255.5,-103 205.5,-103"/>
<polygon fill="none" stroke="#000000" points="205.5,-103 205.5,-122 255.5,-122 255.5,-103 205.5,-103"/>
<text text-anchor="start" x="220.1105" y="-109.1" font-family="Helvetica,sans-Serif" font-size="11.00" fill="#000000">0 rows</text>
<polygon fill="#ffffff" stroke="transparent" points="255.5,-103 255.5,-122 288.5,-122 288.5,-103 255.5,-103"/>
<polygon fill="none" stroke="#000000" points="255.5,-103 255.5,-122 288.5,-122 288.5,-103 255.5,-103"/>
<text text-anchor="start" x="269.9053" y="-109.1" font-family="Helvetica,sans-Serif" font-size="11.00" fill="#000000">1 &gt;</text>
</a>
</g>
</g>
<!-- CITY&#45;&gt;STATE -->
<g id="edge3" class="edge">
<title>CITY:w&#45;&gt;STATE:e</title>
<path fill="none" stroke="#000000" d="M325.3364,-192.7912C312.5486,-200.652 308.6673,-218 288.5,-218"/>
<polygon fill="#000000" stroke="#000000" points="331.7721,-191.0686 340.4309,-192.4776 335.636,-190.0343 339.5,-189 339.5,-189 339.5,-189 335.636,-190.0343 338.5691,-185.5224 331.7721,-191.0686 331.7721,-191.0686"/>
<ellipse fill="none" stroke="#000000" cx="328.6809" cy="-191.8961" rx="3.2" ry="3.2"/>
</g>
<!-- STATE&#45;&gt;User -->
<g id="edge4" class="edge">
<title>STATE:w&#45;&gt;User:e</title>
<path fill="none" stroke="#000000" d="M147.5832,-168.9697C132.3669,-154.7018 140.0782,-115 112,-115"/>
<polygon fill="#000000" stroke="#000000" points="153.9764,-171.2805 160.2762,-177.3856 157.7382,-172.6403 161.5,-174 161.5,-174 161.5,-174 157.7382,-172.6403 162.7238,-170.6144 153.9764,-171.2805 153.9764,-171.2805"/>
<ellipse fill="none" stroke="#000000" cx="150.967" cy="-170.1927" rx="3.2" ry="3.2"/>
</g>
<!-- STATE&#45;&gt;User -->
<g id="edge5" class="edge">
<title>STATE:w&#45;&gt;User:e</title>
<path fill="none" stroke="#000000" d="M147.5092,-147.4631C134.8361,-137.583 133.4584,-115 112,-115"/>
<polygon fill="#000000" stroke="#000000" points="153.8901,-149.5322 160.3895,-155.4244 157.6951,-150.7661 161.5,-152 161.5,-152 161.5,-152 157.6951,-150.7661 162.6105,-148.5756 153.8901,-149.5322 153.8901,-149.5322"/>
<ellipse fill="none" stroke="#000000" cx="150.8462" cy="-148.5451" rx="3.2" ry="3.2"/>
</g>
</g>
</svg>
