<?xml version="1.0" encoding="UTF-8" standalone="no"?>
<!DOCTYPE svg PUBLIC "-//W3C//DTD SVG 1.1//EN"
 "http://www.w3.org/Graphics/SVG/1.1/DTD/svg11.dtd">
<!-- Generated by graphviz version 2.40.1 (20161225.0304)
 -->
<!-- Title: oneDegreeRelationshipsDiagram Pages: 1 -->
<svg width="469pt" height="661pt"
 viewBox="0.00 0.00 469.00 660.50" xmlns="http://www.w3.org/2000/svg" xmlns:xlink="http://www.w3.org/1999/xlink">
<g id="graph0" class="graph" transform="scale(1 1) rotate(0) translate(4 656.5)">
<title>oneDegreeRelationshipsDiagram</title>
<polygon fill="#ffffff" stroke="transparent" points="-4,4 -4,-656.5 465,-656.5 465,4 -4,4"/>
<!-- CLIENTS -->
<g id="node1" class="node">
<title>CLIENTS</title>
<g id="a_node1"><a xlink:href="../../tables/CLIENTS.html" xlink:title="CLIENTS" target="_top">
<polygon fill="#ffffff" stroke="transparent" points="161,-30.5 161,-648.5 453,-648.5 453,-30.5 161,-30.5"/>
<polygon fill="#f5f5f5" stroke="transparent" points="163,-623.5 163,-646.5 451,-646.5 451,-623.5 163,-623.5"/>
<polygon fill="none" stroke="#000000" points="163,-623.5 163,-646.5 451,-646.5 451,-623.5 163,-623.5"/>
<text text-anchor="start" x="168" y="-632.1" font-family="Helvetica,sans-Serif" font-weight="bold" font-size="11.00" fill="#000000">CLIENTS</text>
<text text-anchor="start" x="416.0437" y="-631.6" font-family="Helvetica,sans-Serif" font-size="11.00" fill="#000000">[table]</text>
<polygon fill="none" stroke="#000000" points="163,-601.5 163,-623.5 340,-623.5 340,-601.5 163,-601.5"/>
<image xlink:href="../../images/primaryKeys.png" width="11px" height="12px" preserveAspectRatio="xMinYMin meet" x="168" y="-618.5"/>
<text text-anchor="start" x="183" y="-608.6" font-family="Helvetica,sans-Serif" font-size="11.00" fill="#000000">ID</text>
<polygon fill="none" stroke="#000000" points="340,-601.5 340,-623.5 451,-623.5 451,-601.5 340,-601.5"/>
<text text-anchor="start" x="343" y="-609.2" font-family="Helvetica,sans-Serif" font-size="11.00" fill="#000000">int[10]</text>
<polygon fill="none" stroke="#000000" points="163,-579.5 163,-601.5 340,-601.5 340,-579.5 163,-579.5"/>
<text text-anchor="start" x="183" y="-586.6" font-family="Helvetica,sans-Serif" font-size="11.00" fill="#000000">WORKSPACE_ID</text>
<polygon fill="none" stroke="#000000" points="340,-579.5 340,-601.5 451,-601.5 451,-579.5 340,-579.5"/>
<text text-anchor="start" x="343" y="-587.2" font-family="Helvetica,sans-Serif" font-size="11.00" fill="#000000">int[10]</text>
<polygon fill="none" stroke="#000000" points="163,-557.5 163,-579.5 340,-579.5 340,-557.5 163,-557.5"/>
<text text-anchor="start" x="183" y="-564.6" font-family="Helvetica,sans-Serif" font-size="11.00" fill="#000000">CLIENT_NAME</text>
<polygon fill="none" stroke="#000000" points="340,-557.5 340,-579.5 451,-579.5 451,-557.5 340,-557.5"/>
<text text-anchor="start" x="343" y="-565.2" font-family="Helvetica,sans-Serif" font-size="11.00" fill="#000000">varchar[50]</text>
<polygon fill="none" stroke="#000000" points="163,-535.5 163,-557.5 340,-557.5 340,-535.5 163,-535.5"/>
<text text-anchor="start" x="183" y="-542.6" font-family="Helvetica,sans-Serif" font-size="11.00" fill="#000000">CURRENCY</text>
<polygon fill="none" stroke="#000000" points="340,-535.5 340,-557.5 451,-557.5 451,-535.5 340,-535.5"/>
<text text-anchor="start" x="343" y="-543.2" font-family="Helvetica,sans-Serif" font-size="11.00" fill="#000000">varchar[50]</text>
<polygon fill="none" stroke="#000000" points="163,-513.5 163,-535.5 340,-535.5 340,-513.5 163,-513.5"/>
<text text-anchor="start" x="183" y="-520.6" font-family="Helvetica,sans-Serif" font-size="11.00" fill="#000000">BILLING_METHOD</text>
<polygon fill="none" stroke="#000000" points="340,-513.5 340,-535.5 451,-535.5 451,-513.5 340,-513.5"/>
<text text-anchor="start" x="343" y="-521.2" font-family="Helvetica,sans-Serif" font-size="11.00" fill="#000000">varchar[100]</text>
<polygon fill="none" stroke="#000000" points="163,-491.5 163,-513.5 340,-513.5 340,-491.5 163,-491.5"/>
<text text-anchor="start" x="183" y="-498.6" font-family="Helvetica,sans-Serif" font-size="11.00" fill="#000000">EMAIL_ID</text>
<polygon fill="none" stroke="#000000" points="340,-491.5 340,-513.5 451,-513.5 451,-491.5 340,-491.5"/>
<text text-anchor="start" x="343" y="-499.2" font-family="Helvetica,sans-Serif" font-size="11.00" fill="#000000">varchar[100]</text>
<polygon fill="none" stroke="#000000" points="163,-469.5 163,-491.5 340,-491.5 340,-469.5 163,-469.5"/>
<text text-anchor="start" x="183" y="-476.6" font-family="Helvetica,sans-Serif" font-size="11.00" fill="#000000">FIRST_NAME</text>
<polygon fill="none" stroke="#000000" points="340,-469.5 340,-491.5 451,-491.5 451,-469.5 340,-469.5"/>
<text text-anchor="start" x="343" y="-477.2" font-family="Helvetica,sans-Serif" font-size="11.00" fill="#000000">varchar[100]</text>
<polygon fill="none" stroke="#000000" points="163,-447.5 163,-469.5 340,-469.5 340,-447.5 163,-447.5"/>
<text text-anchor="start" x="183" y="-454.6" font-family="Helvetica,sans-Serif" font-size="11.00" fill="#000000">LAST_NAME</text>
<polygon fill="none" stroke="#000000" points="340,-447.5 340,-469.5 451,-469.5 451,-447.5 340,-447.5"/>
<text text-anchor="start" x="343" y="-455.2" font-family="Helvetica,sans-Serif" font-size="11.00" fill="#000000">varchar[50]</text>
<polygon fill="none" stroke="#000000" points="163,-425.5 163,-447.5 340,-447.5 340,-425.5 163,-425.5"/>
<text text-anchor="start" x="183" y="-432.6" font-family="Helvetica,sans-Serif" font-size="11.00" fill="#000000">PHONE</text>
<polygon fill="none" stroke="#000000" points="340,-425.5 340,-447.5 451,-447.5 451,-425.5 340,-425.5"/>
<text text-anchor="start" x="343" y="-433.2" font-family="Helvetica,sans-Serif" font-size="11.00" fill="#000000">varchar[20]</text>
<polygon fill="none" stroke="#000000" points="163,-403.5 163,-425.5 340,-425.5 340,-403.5 163,-403.5"/>
<text text-anchor="start" x="183" y="-410.6" font-family="Helvetica,sans-Serif" font-size="11.00" fill="#000000">MOBILE</text>
<polygon fill="none" stroke="#000000" points="340,-403.5 340,-425.5 451,-425.5 451,-403.5 340,-403.5"/>
<text text-anchor="start" x="343" y="-411.2" font-family="Helvetica,sans-Serif" font-size="11.00" fill="#000000">varchar[20]</text>
<polygon fill="none" stroke="#000000" points="163,-381.5 163,-403.5 340,-403.5 340,-381.5 163,-381.5"/>
<text text-anchor="start" x="183" y="-388.6" font-family="Helvetica,sans-Serif" font-size="11.00" fill="#000000">FAX</text>
<polygon fill="none" stroke="#000000" points="340,-381.5 340,-403.5 451,-403.5 451,-381.5 340,-381.5"/>
<text text-anchor="start" x="343" y="-389.2" font-family="Helvetica,sans-Serif" font-size="11.00" fill="#000000">varchar[20]</text>
<polygon fill="none" stroke="#000000" points="163,-359.5 163,-381.5 340,-381.5 340,-359.5 163,-359.5"/>
<text text-anchor="start" x="183" y="-366.6" font-family="Helvetica,sans-Serif" font-size="11.00" fill="#000000">STREET_ADDRESS</text>
<polygon fill="none" stroke="#000000" points="340,-359.5 340,-381.5 451,-381.5 451,-359.5 340,-359.5"/>
<text text-anchor="start" x="343" y="-367.2" font-family="Helvetica,sans-Serif" font-size="11.00" fill="#000000">varchar[100]</text>
<polygon fill="none" stroke="#000000" points="163,-337.5 163,-359.5 340,-359.5 340,-337.5 163,-337.5"/>
<text text-anchor="start" x="183" y="-344.6" font-family="Helvetica,sans-Serif" font-size="11.00" fill="#000000">CITY</text>
<polygon fill="none" stroke="#000000" points="340,-337.5 340,-359.5 451,-359.5 451,-337.5 340,-337.5"/>
<text text-anchor="start" x="343" y="-345.2" font-family="Helvetica,sans-Serif" font-size="11.00" fill="#000000">varchar[50]</text>
<polygon fill="none" stroke="#000000" points="163,-315.5 163,-337.5 340,-337.5 340,-315.5 163,-315.5"/>
<text text-anchor="start" x="183" y="-322.6" font-family="Helvetica,sans-Serif" font-size="11.00" fill="#000000">STATE_PROVINCE</text>
<polygon fill="none" stroke="#000000" points="340,-315.5 340,-337.5 451,-337.5 451,-315.5 340,-315.5"/>
<text text-anchor="start" x="343" y="-323.2" font-family="Helvetica,sans-Serif" font-size="11.00" fill="#000000">varchar[50]</text>
<polygon fill="none" stroke="#000000" points="163,-293.5 163,-315.5 340,-315.5 340,-293.5 163,-293.5"/>
<text text-anchor="start" x="183" y="-300.6" font-family="Helvetica,sans-Serif" font-size="11.00" fill="#000000">ZIPCODE</text>
<polygon fill="none" stroke="#000000" points="340,-293.5 340,-315.5 451,-315.5 451,-293.5 340,-293.5"/>
<text text-anchor="start" x="343" y="-301.2" font-family="Helvetica,sans-Serif" font-size="11.00" fill="#000000">int[10]</text>
<polygon fill="none" stroke="#000000" points="163,-271.5 163,-293.5 340,-293.5 340,-271.5 163,-271.5"/>
<text text-anchor="start" x="183" y="-278.6" font-family="Helvetica,sans-Serif" font-size="11.00" fill="#000000">COUNTRY</text>
<polygon fill="none" stroke="#000000" points="340,-271.5 340,-293.5 451,-293.5 451,-271.5 340,-271.5"/>
<text text-anchor="start" x="343" y="-279.2" font-family="Helvetica,sans-Serif" font-size="11.00" fill="#000000">varchar[50]</text>
<polygon fill="none" stroke="#000000" points="163,-249.5 163,-271.5 340,-271.5 340,-249.5 163,-249.5"/>
<text text-anchor="start" x="183" y="-256.6" font-family="Helvetica,sans-Serif" font-size="11.00" fill="#000000">INDUSTRY</text>
<polygon fill="none" stroke="#000000" points="340,-249.5 340,-271.5 451,-271.5 451,-249.5 340,-249.5"/>
<text text-anchor="start" x="343" y="-257.2" font-family="Helvetica,sans-Serif" font-size="11.00" fill="#000000">varchar[100]</text>
<polygon fill="none" stroke="#000000" points="163,-227.5 163,-249.5 340,-249.5 340,-227.5 163,-227.5"/>
<text text-anchor="start" x="183" y="-234.6" font-family="Helvetica,sans-Serif" font-size="11.00" fill="#000000">APPROVAL_STATUS</text>
<polygon fill="none" stroke="#000000" points="340,-227.5 340,-249.5 451,-249.5 451,-227.5 340,-227.5"/>
<text text-anchor="start" x="343" y="-235.2" font-family="Helvetica,sans-Serif" font-size="11.00" fill="#000000">enum[12]</text>
<polygon fill="none" stroke="#000000" points="163,-205.5 163,-227.5 340,-227.5 340,-205.5 163,-205.5"/>
<text text-anchor="start" x="183" y="-212.6" font-family="Helvetica,sans-Serif" font-size="11.00" fill="#000000">COMPANY_SIZE</text>
<polygon fill="none" stroke="#000000" points="340,-205.5 340,-227.5 451,-227.5 451,-205.5 340,-205.5"/>
<text text-anchor="start" x="343" y="-213.2" font-family="Helvetica,sans-Serif" font-size="11.00" fill="#000000">int[10]</text>
<polygon fill="none" stroke="#000000" points="163,-183.5 163,-205.5 340,-205.5 340,-183.5 163,-183.5"/>
<text text-anchor="start" x="183" y="-190.6" font-family="Helvetica,sans-Serif" font-size="11.00" fill="#000000">DESCRIPTION</text>
<polygon fill="none" stroke="#000000" points="340,-183.5 340,-205.5 451,-205.5 451,-183.5 340,-183.5"/>
<text text-anchor="start" x="342.6115" y="-191.2" font-family="Helvetica,sans-Serif" font-size="11.00" fill="#000000">longtext[2147483647]</text>
<polygon fill="none" stroke="#000000" points="163,-161.5 163,-183.5 340,-183.5 340,-161.5 163,-161.5"/>
<text text-anchor="start" x="183" y="-168.6" font-family="Helvetica,sans-Serif" font-size="11.00" fill="#000000">CREATED_TIME</text>
<polygon fill="none" stroke="#000000" points="340,-161.5 340,-183.5 451,-183.5 451,-161.5 340,-161.5"/>
<text text-anchor="start" x="343" y="-169.2" font-family="Helvetica,sans-Serif" font-size="11.00" fill="#000000">datetime[26]</text>
<polygon fill="none" stroke="#000000" points="163,-139.5 163,-161.5 340,-161.5 340,-139.5 163,-139.5"/>
<text text-anchor="start" x="183" y="-146.6" font-family="Helvetica,sans-Serif" font-size="11.00" fill="#000000">MODIFIED_TIME</text>
<polygon fill="none" stroke="#000000" points="340,-139.5 340,-161.5 451,-161.5 451,-139.5 340,-139.5"/>
<text text-anchor="start" x="343" y="-147.2" font-family="Helvetica,sans-Serif" font-size="11.00" fill="#000000">datetime[26]</text>
<polygon fill="none" stroke="#000000" points="163,-117.5 163,-139.5 340,-139.5 340,-117.5 163,-117.5"/>
<text text-anchor="start" x="183" y="-124.6" font-family="Helvetica,sans-Serif" font-size="11.00" fill="#000000">PROCESS_INSTANCE_ID</text>
<polygon fill="none" stroke="#000000" points="340,-117.5 340,-139.5 451,-139.5 451,-117.5 340,-117.5"/>
<text text-anchor="start" x="343" y="-125.2" font-family="Helvetica,sans-Serif" font-size="11.00" fill="#000000">varchar[255]</text>
<polygon fill="none" stroke="#000000" points="163,-95.5 163,-117.5 340,-117.5 340,-95.5 163,-95.5"/>
<text text-anchor="start" x="183" y="-102.6" font-family="Helvetica,sans-Serif" font-size="11.00" fill="#000000">WORKFLOW_STAGE</text>
<polygon fill="none" stroke="#000000" points="340,-95.5 340,-117.5 451,-117.5 451,-95.5 340,-95.5"/>
<text text-anchor="start" x="343" y="-103.2" font-family="Helvetica,sans-Serif" font-size="11.00" fill="#000000">varchar[255]</text>
<polygon fill="#ffffff" stroke="transparent" points="163,-73.5 163,-95.5 340,-95.5 340,-73.5 163,-73.5"/>
<polygon fill="none" stroke="#000000" points="163,-73.5 163,-95.5 340,-95.5 340,-73.5 163,-73.5"/>
<image xlink:href="../../images/foreignKeys.png" width="11px" height="12px" preserveAspectRatio="xMinYMin meet" x="168" y="-90.5"/>
<text text-anchor="start" x="183" y="-80.6" font-family="Helvetica,sans-Serif" font-size="11.00" fill="#000000">CREATOR</text>
<polygon fill="none" stroke="#000000" points="340,-73.5 340,-95.5 451,-95.5 451,-73.5 340,-73.5"/>
<text text-anchor="start" x="343" y="-81.2" font-family="Helvetica,sans-Serif" font-size="11.00" fill="#000000">int[10]</text>
<polygon fill="#ffffff" stroke="transparent" points="163,-51.5 163,-73.5 340,-73.5 340,-51.5 163,-51.5"/>
<polygon fill="none" stroke="#000000" points="163,-51.5 163,-73.5 340,-73.5 340,-51.5 163,-51.5"/>
<image xlink:href="../../images/foreignKeys.png" width="11px" height="12px" preserveAspectRatio="xMinYMin meet" x="168" y="-68.5"/>
<text text-anchor="start" x="183" y="-58.6" font-family="Helvetica,sans-Serif" font-size="11.00" fill="#000000">LAST_MODIFIER</text>
<polygon fill="none" stroke="#000000" points="340,-51.5 340,-73.5 451,-73.5 451,-51.5 340,-51.5"/>
<text text-anchor="start" x="343" y="-59.2" font-family="Helvetica,sans-Serif" font-size="11.00" fill="#000000">int[10]</text>
<polygon fill="#ffffff" stroke="transparent" points="163,-32.5 163,-51.5 243,-51.5 243,-32.5 163,-32.5"/>
<polygon fill="none" stroke="#000000" points="163,-32.5 163,-51.5 243,-51.5 243,-32.5 163,-32.5"/>
<text text-anchor="start" x="166" y="-38.6" font-family="Helvetica,sans-Serif" font-size="11.00" fill="#000000">&lt; 2</text>
<polygon fill="#ffffff" stroke="transparent" points="243,-32.5 243,-51.5 340,-51.5 340,-32.5 243,-32.5"/>
<polygon fill="none" stroke="#000000" points="243,-32.5 243,-51.5 340,-51.5 340,-32.5 243,-32.5"/>
<text text-anchor="start" x="304.6105" y="-38.6" font-family="Helvetica,sans-Serif" font-size="11.00" fill="#000000">0 rows</text>
<polygon fill="#ffffff" stroke="transparent" points="340,-32.5 340,-51.5 451,-51.5 451,-32.5 340,-32.5"/>
<polygon fill="none" stroke="#000000" points="340,-32.5 340,-51.5 451,-51.5 451,-32.5 340,-32.5"/>
<text text-anchor="start" x="432.4053" y="-38.6" font-family="Helvetica,sans-Serif" font-size="11.00" fill="#000000">0 &gt;</text>
<polygon fill="none" stroke="#000000" stroke-width="2" points="162,-31.5 162,-647.5 452,-647.5 452,-31.5 162,-31.5"/>
</a>
</g>
</g>
<!-- User -->
<g id="node2" class="node">
<title>User</title>
<g id="a_node2"><a xlink:href="../../tables/User.html" xlink:title="User" target="_top">
<polygon fill="#ffffff" stroke="transparent" points="8,-25 8,-108 112,-108 112,-25 8,-25"/>
<polygon fill="#f5f5f5" stroke="transparent" points="8,-84.5 8,-107.5 112,-107.5 112,-84.5 8,-84.5"/>
<polygon fill="none" stroke="#000000" points="8,-84.5 8,-107.5 112,-107.5 112,-84.5 8,-84.5"/>
<text text-anchor="start" x="13" y="-93.1" font-family="Helvetica,sans-Serif" font-weight="bold" font-size="11.00" fill="#000000">User</text>
<text text-anchor="start" x="77.0437" y="-92.6" font-family="Helvetica,sans-Serif" font-size="11.00" fill="#000000">[table]</text>
<polygon fill="none" stroke="#000000" points="8,-62.5 8,-84.5 112,-84.5 112,-62.5 8,-62.5"/>
<image xlink:href="../../images/primaryKeys.png" width="11px" height="12px" preserveAspectRatio="xMinYMin meet" x="13" y="-79.5"/>
<text text-anchor="start" x="28" y="-69.6" font-family="Helvetica,sans-Serif" font-size="11.00" fill="#000000">userid_pk</text>
<polygon fill="none" stroke="#000000" points="8,-43.5 8,-62.5 112,-62.5 112,-43.5 8,-43.5"/>
<text text-anchor="start" x="11" y="-49.6" font-family="Helvetica,sans-Serif" font-size="11.00" fill="#000000">...</text>
<polygon fill="#ffffff" stroke="transparent" points="8,-24.5 8,-43.5 30,-43.5 30,-24.5 8,-24.5"/>
<polygon fill="none" stroke="#000000" points="8,-24.5 8,-43.5 30,-43.5 30,-24.5 8,-24.5"/>
<text text-anchor="start" x="11" y="-30.6" font-family="Helvetica,sans-Serif" font-size="11.00" fill="#000000"> &#160;</text>
<polygon fill="#ffffff" stroke="transparent" points="30,-24.5 30,-43.5 73,-43.5 73,-24.5 30,-24.5"/>
<polygon fill="none" stroke="#000000" points="30,-24.5 30,-43.5 73,-43.5 73,-24.5 30,-24.5"/>
<text text-anchor="start" x="37.6105" y="-30.6" font-family="Helvetica,sans-Serif" font-size="11.00" fill="#000000">0 rows</text>
<polygon fill="#ffffff" stroke="transparent" points="73,-24.5 73,-43.5 112,-43.5 112,-24.5 73,-24.5"/>
<polygon fill="none" stroke="#000000" points="73,-24.5 73,-43.5 112,-43.5 112,-24.5 73,-24.5"/>
<text text-anchor="start" x="81.1755" y="-30.6" font-family="Helvetica,sans-Serif" font-size="11.00" fill="#000000">102 &gt;</text>
</a>
</g>
</g>
<!-- CLIENTS&#45;&gt;User -->
<g id="edge1" class="edge">
<title>CLIENTS:w&#45;&gt;User:e</title>
<path fill="none" stroke="#000000" d="M148.5097,-82.7813C136.3398,-79.6875 129.3909,-73.5 112,-73.5"/>
<polygon fill="#000000" stroke="#000000" points="155.0557,-83.5576 162.5759,-88.0749 159.0278,-84.0288 163,-84.5 163,-84.5 163,-84.5 159.0278,-84.0288 163.4241,-80.9251 155.0557,-83.5576 155.0557,-83.5576"/>
<ellipse fill="none" stroke="#000000" cx="151.878" cy="-83.1807" rx="3.2" ry="3.2"/>
</g>
<!-- CLIENTS&#45;&gt;User -->
<g id="edge2" class="edge">
<title>CLIENTS:w&#45;&gt;User:e</title>
<path fill="none" stroke="#000000" d="M148.5097,-64.2188C136.3398,-67.3125 129.3909,-73.5 112,-73.5"/>
<polygon fill="#000000" stroke="#000000" points="155.0557,-63.4424 163.4241,-66.0749 159.0278,-62.9712 163,-62.5 163,-62.5 163,-62.5 159.0278,-62.9712 162.5759,-58.9251 155.0557,-63.4424 155.0557,-63.4424"/>
<ellipse fill="none" stroke="#000000" cx="151.878" cy="-63.8193" rx="3.2" ry="3.2"/>
</g>
</g>
</svg>
