<?xml version="1.0" encoding="UTF-8" standalone="no"?>
<!DOCTYPE svg PUBLIC "-//W3C//DTD SVG 1.1//EN"
 "http://www.w3.org/Graphics/SVG/1.1/DTD/svg11.dtd">
<!-- Generated by graphviz version 2.40.1 (20161225.0304)
 -->
<!-- Title: oneDegreeRelationshipsDiagram Pages: 1 -->
<svg width="580pt" height="375pt"
 viewBox="0.00 0.00 580.00 374.50" xmlns="http://www.w3.org/2000/svg" xmlns:xlink="http://www.w3.org/1999/xlink">
<g id="graph0" class="graph" transform="scale(1 1) rotate(0) translate(4 370.5)">
<title>oneDegreeRelationshipsDiagram</title>
<polygon fill="#ffffff" stroke="transparent" points="-4,4 -4,-370.5 576,-370.5 576,4 -4,4"/>
<!-- COMPENSATORY_REQUEST_SCHEDULER -->
<g id="node1" class="node">
<title>COMPENSATORY_REQUEST_SCHEDULER</title>
<g id="a_node1"><a xlink:href="../../tables/COMPENSATORY_REQUEST_SCHEDULER.html" xlink:title="COMPENSATORY_REQUEST_SCHEDULER" target="_top">
<polygon fill="#ffffff" stroke="transparent" points="161,-30.5 161,-362.5 564,-362.5 564,-30.5 161,-30.5"/>
<polygon fill="#f5f5f5" stroke="transparent" points="163.5,-337.5 163.5,-360.5 562.5,-360.5 562.5,-337.5 163.5,-337.5"/>
<polygon fill="none" stroke="#000000" points="163.5,-337.5 163.5,-360.5 562.5,-360.5 562.5,-337.5 163.5,-337.5"/>
<text text-anchor="start" x="168.5" y="-346.1" font-family="Helvetica,sans-Serif" font-weight="bold" font-size="11.00" fill="#000000">COMPENSATORY_REQUEST_SCHEDULER</text>
<text text-anchor="start" x="527.5437" y="-345.6" font-family="Helvetica,sans-Serif" font-size="11.00" fill="#000000">[table]</text>
<polygon fill="none" stroke="#000000" points="163.5,-315.5 163.5,-337.5 451.5,-337.5 451.5,-315.5 163.5,-315.5"/>
<image xlink:href="../../images/primaryKeys.png" width="11px" height="12px" preserveAspectRatio="xMinYMin meet" x="168.5" y="-332.5"/>
<text text-anchor="start" x="183.5" y="-322.6" font-family="Helvetica,sans-Serif" font-size="11.00" fill="#000000">ID</text>
<polygon fill="none" stroke="#000000" points="451.5,-315.5 451.5,-337.5 562.5,-337.5 562.5,-315.5 451.5,-315.5"/>
<text text-anchor="start" x="454.5" y="-323.2" font-family="Helvetica,sans-Serif" font-size="11.00" fill="#000000">int[10]</text>
<polygon fill="none" stroke="#000000" points="163.5,-293.5 163.5,-315.5 451.5,-315.5 451.5,-293.5 163.5,-293.5"/>
<text text-anchor="start" x="183.5" y="-300.6" font-family="Helvetica,sans-Serif" font-size="11.00" fill="#000000">WORKSPACE_ID</text>
<polygon fill="none" stroke="#000000" points="451.5,-293.5 451.5,-315.5 562.5,-315.5 562.5,-293.5 451.5,-293.5"/>
<text text-anchor="start" x="454.5" y="-301.2" font-family="Helvetica,sans-Serif" font-size="11.00" fill="#000000">int[10]</text>
<polygon fill="none" stroke="#000000" points="163.5,-271.5 163.5,-293.5 451.5,-293.5 451.5,-271.5 163.5,-271.5"/>
<text text-anchor="start" x="183.5" y="-278.6" font-family="Helvetica,sans-Serif" font-size="11.00" fill="#000000">EMPLOYEE_NAME</text>
<polygon fill="none" stroke="#000000" points="451.5,-271.5 451.5,-293.5 562.5,-293.5 562.5,-271.5 451.5,-271.5"/>
<text text-anchor="start" x="454.5" y="-279.2" font-family="Helvetica,sans-Serif" font-size="11.00" fill="#000000">varchar[50]</text>
<polygon fill="none" stroke="#000000" points="163.5,-249.5 163.5,-271.5 451.5,-271.5 451.5,-249.5 163.5,-249.5"/>
<text text-anchor="start" x="183.5" y="-256.6" font-family="Helvetica,sans-Serif" font-size="11.00" fill="#000000">WORKED_DATE</text>
<polygon fill="none" stroke="#000000" points="451.5,-249.5 451.5,-271.5 562.5,-271.5 562.5,-249.5 451.5,-249.5"/>
<text text-anchor="start" x="454.5" y="-257.2" font-family="Helvetica,sans-Serif" font-size="11.00" fill="#000000">datetime[26]</text>
<polygon fill="none" stroke="#000000" points="163.5,-227.5 163.5,-249.5 451.5,-249.5 451.5,-227.5 163.5,-227.5"/>
<text text-anchor="start" x="183.5" y="-234.6" font-family="Helvetica,sans-Serif" font-size="11.00" fill="#000000">UNIT</text>
<polygon fill="none" stroke="#000000" points="451.5,-227.5 451.5,-249.5 562.5,-249.5 562.5,-227.5 451.5,-227.5"/>
<text text-anchor="start" x="454.5" y="-235.2" font-family="Helvetica,sans-Serif" font-size="11.00" fill="#000000">bit[1]</text>
<polygon fill="none" stroke="#000000" points="163.5,-205.5 163.5,-227.5 451.5,-227.5 451.5,-205.5 163.5,-205.5"/>
<text text-anchor="start" x="183.5" y="-212.6" font-family="Helvetica,sans-Serif" font-size="11.00" fill="#000000">DURATION</text>
<polygon fill="none" stroke="#000000" points="451.5,-205.5 451.5,-227.5 562.5,-227.5 562.5,-205.5 451.5,-205.5"/>
<text text-anchor="start" x="454.5" y="-213.2" font-family="Helvetica,sans-Serif" font-size="11.00" fill="#000000">enum[8]</text>
<polygon fill="none" stroke="#000000" points="163.5,-183.5 163.5,-205.5 451.5,-205.5 451.5,-183.5 163.5,-183.5"/>
<text text-anchor="start" x="183.5" y="-190.6" font-family="Helvetica,sans-Serif" font-size="11.00" fill="#000000">EXPIRY_DATE</text>
<polygon fill="none" stroke="#000000" points="451.5,-183.5 451.5,-205.5 562.5,-205.5 562.5,-183.5 451.5,-183.5"/>
<text text-anchor="start" x="454.5" y="-191.2" font-family="Helvetica,sans-Serif" font-size="11.00" fill="#000000">datetime[26]</text>
<polygon fill="none" stroke="#000000" points="163.5,-161.5 163.5,-183.5 451.5,-183.5 451.5,-161.5 163.5,-161.5"/>
<text text-anchor="start" x="183.5" y="-168.6" font-family="Helvetica,sans-Serif" font-size="11.00" fill="#000000">ATTENDANCE_DETAILS</text>
<polygon fill="none" stroke="#000000" points="451.5,-161.5 451.5,-183.5 562.5,-183.5 562.5,-161.5 451.5,-161.5"/>
<text text-anchor="start" x="454.1115" y="-169.2" font-family="Helvetica,sans-Serif" font-size="11.00" fill="#000000">longtext[2147483647]</text>
<polygon fill="none" stroke="#000000" points="163.5,-139.5 163.5,-161.5 451.5,-161.5 451.5,-139.5 163.5,-139.5"/>
<text text-anchor="start" x="183.5" y="-146.6" font-family="Helvetica,sans-Serif" font-size="11.00" fill="#000000">REASON</text>
<polygon fill="none" stroke="#000000" points="451.5,-139.5 451.5,-161.5 562.5,-161.5 562.5,-139.5 451.5,-139.5"/>
<text text-anchor="start" x="454.5" y="-147.2" font-family="Helvetica,sans-Serif" font-size="11.00" fill="#000000">varchar[255]</text>
<polygon fill="none" stroke="#000000" points="163.5,-117.5 163.5,-139.5 451.5,-139.5 451.5,-117.5 163.5,-117.5"/>
<text text-anchor="start" x="183.5" y="-124.6" font-family="Helvetica,sans-Serif" font-size="11.00" fill="#000000">CREATED_TIME</text>
<polygon fill="none" stroke="#000000" points="451.5,-117.5 451.5,-139.5 562.5,-139.5 562.5,-117.5 451.5,-117.5"/>
<text text-anchor="start" x="454.5" y="-125.2" font-family="Helvetica,sans-Serif" font-size="11.00" fill="#000000">datetime[26]</text>
<polygon fill="none" stroke="#000000" points="163.5,-95.5 163.5,-117.5 451.5,-117.5 451.5,-95.5 163.5,-95.5"/>
<text text-anchor="start" x="183.5" y="-102.6" font-family="Helvetica,sans-Serif" font-size="11.00" fill="#000000">MODIFIED_TIME</text>
<polygon fill="none" stroke="#000000" points="451.5,-95.5 451.5,-117.5 562.5,-117.5 562.5,-95.5 451.5,-95.5"/>
<text text-anchor="start" x="454.5" y="-103.2" font-family="Helvetica,sans-Serif" font-size="11.00" fill="#000000">datetime[26]</text>
<polygon fill="#ffffff" stroke="transparent" points="163.5,-73.5 163.5,-95.5 451.5,-95.5 451.5,-73.5 163.5,-73.5"/>
<polygon fill="none" stroke="#000000" points="163.5,-73.5 163.5,-95.5 451.5,-95.5 451.5,-73.5 163.5,-73.5"/>
<image xlink:href="../../images/foreignKeys.png" width="11px" height="12px" preserveAspectRatio="xMinYMin meet" x="168.5" y="-90.5"/>
<text text-anchor="start" x="183.5" y="-80.6" font-family="Helvetica,sans-Serif" font-size="11.00" fill="#000000">CREATOR</text>
<polygon fill="none" stroke="#000000" points="451.5,-73.5 451.5,-95.5 562.5,-95.5 562.5,-73.5 451.5,-73.5"/>
<text text-anchor="start" x="454.5" y="-81.2" font-family="Helvetica,sans-Serif" font-size="11.00" fill="#000000">int[10]</text>
<polygon fill="#ffffff" stroke="transparent" points="163.5,-51.5 163.5,-73.5 451.5,-73.5 451.5,-51.5 163.5,-51.5"/>
<polygon fill="none" stroke="#000000" points="163.5,-51.5 163.5,-73.5 451.5,-73.5 451.5,-51.5 163.5,-51.5"/>
<image xlink:href="../../images/foreignKeys.png" width="11px" height="12px" preserveAspectRatio="xMinYMin meet" x="168.5" y="-68.5"/>
<text text-anchor="start" x="183.5" y="-58.6" font-family="Helvetica,sans-Serif" font-size="11.00" fill="#000000">LAST_MODIFIER</text>
<polygon fill="none" stroke="#000000" points="451.5,-51.5 451.5,-73.5 562.5,-73.5 562.5,-51.5 451.5,-51.5"/>
<text text-anchor="start" x="454.5" y="-59.2" font-family="Helvetica,sans-Serif" font-size="11.00" fill="#000000">int[10]</text>
<polygon fill="#ffffff" stroke="transparent" points="163.5,-32.5 163.5,-51.5 298.5,-51.5 298.5,-32.5 163.5,-32.5"/>
<polygon fill="none" stroke="#000000" points="163.5,-32.5 163.5,-51.5 298.5,-51.5 298.5,-32.5 163.5,-32.5"/>
<text text-anchor="start" x="166.5" y="-38.6" font-family="Helvetica,sans-Serif" font-size="11.00" fill="#000000">&lt; 2</text>
<polygon fill="#ffffff" stroke="transparent" points="298.5,-32.5 298.5,-51.5 451.5,-51.5 451.5,-32.5 298.5,-32.5"/>
<polygon fill="none" stroke="#000000" points="298.5,-32.5 298.5,-51.5 451.5,-51.5 451.5,-32.5 298.5,-32.5"/>
<text text-anchor="start" x="416.1105" y="-38.6" font-family="Helvetica,sans-Serif" font-size="11.00" fill="#000000">0 rows</text>
<polygon fill="#ffffff" stroke="transparent" points="451.5,-32.5 451.5,-51.5 562.5,-51.5 562.5,-32.5 451.5,-32.5"/>
<polygon fill="none" stroke="#000000" points="451.5,-32.5 451.5,-51.5 562.5,-51.5 562.5,-32.5 451.5,-32.5"/>
<text text-anchor="start" x="543.9053" y="-38.6" font-family="Helvetica,sans-Serif" font-size="11.00" fill="#000000">0 &gt;</text>
<polygon fill="none" stroke="#000000" stroke-width="2" points="162,-31.5 162,-361.5 563,-361.5 563,-31.5 162,-31.5"/>
</a>
</g>
</g>
<!-- User -->
<g id="node2" class="node">
<title>User</title>
<g id="a_node2"><a xlink:href="../../tables/User.html" xlink:title="User" target="_top">
<polygon fill="#ffffff" stroke="transparent" points="8,-25 8,-108 112,-108 112,-25 8,-25"/>
<polygon fill="#f5f5f5" stroke="transparent" points="8,-84.5 8,-107.5 112,-107.5 112,-84.5 8,-84.5"/>
<polygon fill="none" stroke="#000000" points="8,-84.5 8,-107.5 112,-107.5 112,-84.5 8,-84.5"/>
<text text-anchor="start" x="13" y="-93.1" font-family="Helvetica,sans-Serif" font-weight="bold" font-size="11.00" fill="#000000">User</text>
<text text-anchor="start" x="77.0437" y="-92.6" font-family="Helvetica,sans-Serif" font-size="11.00" fill="#000000">[table]</text>
<polygon fill="none" stroke="#000000" points="8,-62.5 8,-84.5 112,-84.5 112,-62.5 8,-62.5"/>
<image xlink:href="../../images/primaryKeys.png" width="11px" height="12px" preserveAspectRatio="xMinYMin meet" x="13" y="-79.5"/>
<text text-anchor="start" x="28" y="-69.6" font-family="Helvetica,sans-Serif" font-size="11.00" fill="#000000">userid_pk</text>
<polygon fill="none" stroke="#000000" points="8,-43.5 8,-62.5 112,-62.5 112,-43.5 8,-43.5"/>
<text text-anchor="start" x="11" y="-49.6" font-family="Helvetica,sans-Serif" font-size="11.00" fill="#000000">...</text>
<polygon fill="#ffffff" stroke="transparent" points="8,-24.5 8,-43.5 30,-43.5 30,-24.5 8,-24.5"/>
<polygon fill="none" stroke="#000000" points="8,-24.5 8,-43.5 30,-43.5 30,-24.5 8,-24.5"/>
<text text-anchor="start" x="11" y="-30.6" font-family="Helvetica,sans-Serif" font-size="11.00" fill="#000000"> &#160;</text>
<polygon fill="#ffffff" stroke="transparent" points="30,-24.5 30,-43.5 73,-43.5 73,-24.5 30,-24.5"/>
<polygon fill="none" stroke="#000000" points="30,-24.5 30,-43.5 73,-43.5 73,-24.5 30,-24.5"/>
<text text-anchor="start" x="37.6105" y="-30.6" font-family="Helvetica,sans-Serif" font-size="11.00" fill="#000000">0 rows</text>
<polygon fill="#ffffff" stroke="transparent" points="73,-24.5 73,-43.5 112,-43.5 112,-24.5 73,-24.5"/>
<polygon fill="none" stroke="#000000" points="73,-24.5 73,-43.5 112,-43.5 112,-24.5 73,-24.5"/>
<text text-anchor="start" x="81.1755" y="-30.6" font-family="Helvetica,sans-Serif" font-size="11.00" fill="#000000">102 &gt;</text>
</a>
</g>
</g>
<!-- COMPENSATORY_REQUEST_SCHEDULER&#45;&gt;User -->
<g id="edge1" class="edge">
<title>COMPENSATORY_REQUEST_SCHEDULER:w&#45;&gt;User:e</title>
<path fill="none" stroke="#000000" d="M148.8704,-82.7813C136.5803,-79.6875 129.5539,-73.5 112,-73.5"/>
<polygon fill="#000000" stroke="#000000" points="155.5546,-83.5665 163.0799,-88.0754 159.5273,-84.0332 163.5,-84.5 163.5,-84.5 163.5,-84.5 159.5273,-84.0332 163.9201,-80.9246 155.5546,-83.5665 155.5546,-83.5665"/>
<ellipse fill="none" stroke="#000000" cx="152.3765" cy="-83.1931" rx="3.2" ry="3.2"/>
</g>
<!-- COMPENSATORY_REQUEST_SCHEDULER&#45;&gt;User -->
<g id="edge2" class="edge">
<title>COMPENSATORY_REQUEST_SCHEDULER:w&#45;&gt;User:e</title>
<path fill="none" stroke="#000000" d="M148.8704,-64.2188C136.5803,-67.3125 129.5539,-73.5 112,-73.5"/>
<polygon fill="#000000" stroke="#000000" points="155.5546,-63.4335 163.9201,-66.0754 159.5273,-62.9668 163.5,-62.5 163.5,-62.5 163.5,-62.5 159.5273,-62.9668 163.0799,-58.9246 155.5546,-63.4335 155.5546,-63.4335"/>
<ellipse fill="none" stroke="#000000" cx="152.3765" cy="-63.8069" rx="3.2" ry="3.2"/>
</g>
</g>
</svg>
