<?xml version="1.0" encoding="UTF-8" standalone="no"?>
<!DOCTYPE svg PUBLIC "-//W3C//DTD SVG 1.1//EN"
 "http://www.w3.org/Graphics/SVG/1.1/DTD/svg11.dtd">
<!-- Generated by graphviz version 2.40.1 (20161225.0304)
 -->
<!-- Title: oneDegreeRelationshipsDiagram Pages: 1 -->
<svg width="552pt" height="376pt"
 viewBox="0.00 0.00 552.00 375.50" xmlns="http://www.w3.org/2000/svg" xmlns:xlink="http://www.w3.org/1999/xlink">
<g id="graph0" class="graph" transform="scale(1 1) rotate(0) translate(4 371.5)">
<title>oneDegreeRelationshipsDiagram</title>
<polygon fill="#ffffff" stroke="transparent" points="-4,4 -4,-371.5 548,-371.5 548,4 -4,4"/>
<!-- COUNTRY -->
<g id="node1" class="node">
<title>COUNTRY</title>
<g id="a_node1"><a xlink:href="../../tables/COUNTRY.html" xlink:title="COUNTRY" target="_top">
<polygon fill="#ffffff" stroke="transparent" points="161,-119.5 161,-363.5 360,-363.5 360,-119.5 161,-119.5"/>
<polygon fill="#f5f5f5" stroke="transparent" points="163.5,-338.5 163.5,-361.5 358.5,-361.5 358.5,-338.5 163.5,-338.5"/>
<polygon fill="none" stroke="#000000" points="163.5,-338.5 163.5,-361.5 358.5,-361.5 358.5,-338.5 163.5,-338.5"/>
<text text-anchor="start" x="168.5" y="-347.1" font-family="Helvetica,sans-Serif" font-weight="bold" font-size="11.00" fill="#000000">COUNTRY</text>
<text text-anchor="start" x="323.5437" y="-346.6" font-family="Helvetica,sans-Serif" font-size="11.00" fill="#000000">[table]</text>
<polygon fill="none" stroke="#000000" points="163.5,-316.5 163.5,-338.5 292.5,-338.5 292.5,-316.5 163.5,-316.5"/>
<image xlink:href="../../images/primaryKeys.png" width="11px" height="12px" preserveAspectRatio="xMinYMin meet" x="168.5" y="-333.5"/>
<text text-anchor="start" x="183.5" y="-323.6" font-family="Helvetica,sans-Serif" font-size="11.00" fill="#000000">ID</text>
<polygon fill="none" stroke="#000000" points="292.5,-316.5 292.5,-338.5 358.5,-338.5 358.5,-316.5 292.5,-316.5"/>
<text text-anchor="start" x="295.5" y="-324.2" font-family="Helvetica,sans-Serif" font-size="11.00" fill="#000000">int[10]</text>
<polygon fill="none" stroke="#000000" points="163.5,-294.5 163.5,-316.5 292.5,-316.5 292.5,-294.5 163.5,-294.5"/>
<text text-anchor="start" x="183.5" y="-301.6" font-family="Helvetica,sans-Serif" font-size="11.00" fill="#000000">WORKSPACE_ID</text>
<polygon fill="none" stroke="#000000" points="292.5,-294.5 292.5,-316.5 358.5,-316.5 358.5,-294.5 292.5,-294.5"/>
<text text-anchor="start" x="295.5" y="-302.2" font-family="Helvetica,sans-Serif" font-size="11.00" fill="#000000">int[10]</text>
<polygon fill="none" stroke="#000000" points="163.5,-272.5 163.5,-294.5 292.5,-294.5 292.5,-272.5 163.5,-272.5"/>
<text text-anchor="start" x="183.5" y="-279.6" font-family="Helvetica,sans-Serif" font-size="11.00" fill="#000000">NAME</text>
<polygon fill="none" stroke="#000000" points="292.5,-272.5 292.5,-294.5 358.5,-294.5 358.5,-272.5 292.5,-272.5"/>
<text text-anchor="start" x="295.5" y="-280.2" font-family="Helvetica,sans-Serif" font-size="11.00" fill="#000000">varchar[50]</text>
<polygon fill="none" stroke="#000000" points="163.5,-250.5 163.5,-272.5 292.5,-272.5 292.5,-250.5 163.5,-250.5"/>
<text text-anchor="start" x="183.5" y="-257.6" font-family="Helvetica,sans-Serif" font-size="11.00" fill="#000000">DISPLAY_NAME</text>
<polygon fill="none" stroke="#000000" points="292.5,-250.5 292.5,-272.5 358.5,-272.5 358.5,-250.5 292.5,-250.5"/>
<text text-anchor="start" x="295.5" y="-258.2" font-family="Helvetica,sans-Serif" font-size="11.00" fill="#000000">varchar[50]</text>
<polygon fill="none" stroke="#000000" points="163.5,-228.5 163.5,-250.5 292.5,-250.5 292.5,-228.5 163.5,-228.5"/>
<text text-anchor="start" x="183.5" y="-235.6" font-family="Helvetica,sans-Serif" font-size="11.00" fill="#000000">COUNTRY_CODE</text>
<polygon fill="none" stroke="#000000" points="292.5,-228.5 292.5,-250.5 358.5,-250.5 358.5,-228.5 292.5,-228.5"/>
<text text-anchor="start" x="295.5" y="-236.2" font-family="Helvetica,sans-Serif" font-size="11.00" fill="#000000">varchar[50]</text>
<polygon fill="none" stroke="#000000" points="163.5,-206.5 163.5,-228.5 292.5,-228.5 292.5,-206.5 163.5,-206.5"/>
<text text-anchor="start" x="183.5" y="-213.6" font-family="Helvetica,sans-Serif" font-size="11.00" fill="#000000">CREATED_TIME</text>
<polygon fill="none" stroke="#000000" points="292.5,-206.5 292.5,-228.5 358.5,-228.5 358.5,-206.5 292.5,-206.5"/>
<text text-anchor="start" x="295.2401" y="-214.2" font-family="Helvetica,sans-Serif" font-size="11.00" fill="#000000">datetime[26]</text>
<polygon fill="none" stroke="#000000" points="163.5,-184.5 163.5,-206.5 292.5,-206.5 292.5,-184.5 163.5,-184.5"/>
<text text-anchor="start" x="183.5" y="-191.6" font-family="Helvetica,sans-Serif" font-size="11.00" fill="#000000">MODIFIED_TIME</text>
<polygon fill="none" stroke="#000000" points="292.5,-184.5 292.5,-206.5 358.5,-206.5 358.5,-184.5 292.5,-184.5"/>
<text text-anchor="start" x="295.2401" y="-192.2" font-family="Helvetica,sans-Serif" font-size="11.00" fill="#000000">datetime[26]</text>
<polygon fill="#ffffff" stroke="transparent" points="163.5,-162.5 163.5,-184.5 292.5,-184.5 292.5,-162.5 163.5,-162.5"/>
<polygon fill="none" stroke="#000000" points="163.5,-162.5 163.5,-184.5 292.5,-184.5 292.5,-162.5 163.5,-162.5"/>
<image xlink:href="../../images/foreignKeys.png" width="11px" height="12px" preserveAspectRatio="xMinYMin meet" x="168.5" y="-179.5"/>
<text text-anchor="start" x="183.5" y="-169.6" font-family="Helvetica,sans-Serif" font-size="11.00" fill="#000000">CREATOR</text>
<polygon fill="none" stroke="#000000" points="292.5,-162.5 292.5,-184.5 358.5,-184.5 358.5,-162.5 292.5,-162.5"/>
<text text-anchor="start" x="295.5" y="-170.2" font-family="Helvetica,sans-Serif" font-size="11.00" fill="#000000">int[10]</text>
<polygon fill="#ffffff" stroke="transparent" points="163.5,-140.5 163.5,-162.5 292.5,-162.5 292.5,-140.5 163.5,-140.5"/>
<polygon fill="none" stroke="#000000" points="163.5,-140.5 163.5,-162.5 292.5,-162.5 292.5,-140.5 163.5,-140.5"/>
<image xlink:href="../../images/foreignKeys.png" width="11px" height="12px" preserveAspectRatio="xMinYMin meet" x="168.5" y="-157.5"/>
<text text-anchor="start" x="183.5" y="-147.6" font-family="Helvetica,sans-Serif" font-size="11.00" fill="#000000">LAST_MODIFIER</text>
<polygon fill="none" stroke="#000000" points="292.5,-140.5 292.5,-162.5 358.5,-162.5 358.5,-140.5 292.5,-140.5"/>
<text text-anchor="start" x="295.5" y="-148.2" font-family="Helvetica,sans-Serif" font-size="11.00" fill="#000000">int[10]</text>
<polygon fill="#ffffff" stroke="transparent" points="163.5,-121.5 163.5,-140.5 219.5,-140.5 219.5,-121.5 163.5,-121.5"/>
<polygon fill="none" stroke="#000000" points="163.5,-121.5 163.5,-140.5 219.5,-140.5 219.5,-121.5 163.5,-121.5"/>
<text text-anchor="start" x="166.5" y="-127.6" font-family="Helvetica,sans-Serif" font-size="11.00" fill="#000000">&lt; 2</text>
<polygon fill="#ffffff" stroke="transparent" points="219.5,-121.5 219.5,-140.5 292.5,-140.5 292.5,-121.5 219.5,-121.5"/>
<polygon fill="none" stroke="#000000" points="219.5,-121.5 219.5,-140.5 292.5,-140.5 292.5,-121.5 219.5,-121.5"/>
<text text-anchor="start" x="257.1105" y="-127.6" font-family="Helvetica,sans-Serif" font-size="11.00" fill="#000000">0 rows</text>
<polygon fill="#ffffff" stroke="transparent" points="292.5,-121.5 292.5,-140.5 358.5,-140.5 358.5,-121.5 292.5,-121.5"/>
<polygon fill="none" stroke="#000000" points="292.5,-121.5 292.5,-140.5 358.5,-140.5 358.5,-121.5 292.5,-121.5"/>
<text text-anchor="start" x="339.9053" y="-127.6" font-family="Helvetica,sans-Serif" font-size="11.00" fill="#000000">1 &gt;</text>
<polygon fill="none" stroke="#000000" stroke-width="2" points="162,-120.5 162,-362.5 359,-362.5 359,-120.5 162,-120.5"/>
</a>
</g>
</g>
<!-- User -->
<g id="node2" class="node">
<title>User</title>
<g id="a_node2"><a xlink:href="../../tables/User.html" xlink:title="User" target="_top">
<polygon fill="#ffffff" stroke="transparent" points="8,-75 8,-158 112,-158 112,-75 8,-75"/>
<polygon fill="#f5f5f5" stroke="transparent" points="8,-134.5 8,-157.5 112,-157.5 112,-134.5 8,-134.5"/>
<polygon fill="none" stroke="#000000" points="8,-134.5 8,-157.5 112,-157.5 112,-134.5 8,-134.5"/>
<text text-anchor="start" x="13" y="-143.1" font-family="Helvetica,sans-Serif" font-weight="bold" font-size="11.00" fill="#000000">User</text>
<text text-anchor="start" x="77.0437" y="-142.6" font-family="Helvetica,sans-Serif" font-size="11.00" fill="#000000">[table]</text>
<polygon fill="none" stroke="#000000" points="8,-112.5 8,-134.5 112,-134.5 112,-112.5 8,-112.5"/>
<image xlink:href="../../images/primaryKeys.png" width="11px" height="12px" preserveAspectRatio="xMinYMin meet" x="13" y="-129.5"/>
<text text-anchor="start" x="28" y="-119.6" font-family="Helvetica,sans-Serif" font-size="11.00" fill="#000000">userid_pk</text>
<polygon fill="none" stroke="#000000" points="8,-93.5 8,-112.5 112,-112.5 112,-93.5 8,-93.5"/>
<text text-anchor="start" x="11" y="-99.6" font-family="Helvetica,sans-Serif" font-size="11.00" fill="#000000">...</text>
<polygon fill="#ffffff" stroke="transparent" points="8,-74.5 8,-93.5 30,-93.5 30,-74.5 8,-74.5"/>
<polygon fill="none" stroke="#000000" points="8,-74.5 8,-93.5 30,-93.5 30,-74.5 8,-74.5"/>
<text text-anchor="start" x="11" y="-80.6" font-family="Helvetica,sans-Serif" font-size="11.00" fill="#000000"> &#160;</text>
<polygon fill="#ffffff" stroke="transparent" points="30,-74.5 30,-93.5 73,-93.5 73,-74.5 30,-74.5"/>
<polygon fill="none" stroke="#000000" points="30,-74.5 30,-93.5 73,-93.5 73,-74.5 30,-74.5"/>
<text text-anchor="start" x="37.6105" y="-80.6" font-family="Helvetica,sans-Serif" font-size="11.00" fill="#000000">0 rows</text>
<polygon fill="#ffffff" stroke="transparent" points="73,-74.5 73,-93.5 112,-93.5 112,-74.5 73,-74.5"/>
<polygon fill="none" stroke="#000000" points="73,-74.5 73,-93.5 112,-93.5 112,-74.5 73,-74.5"/>
<text text-anchor="start" x="81.1755" y="-80.6" font-family="Helvetica,sans-Serif" font-size="11.00" fill="#000000">102 &gt;</text>
</a>
</g>
</g>
<!-- COUNTRY&#45;&gt;User -->
<g id="edge1" class="edge">
<title>COUNTRY:w&#45;&gt;User:e</title>
<path fill="none" stroke="#000000" d="M149.6347,-168.8857C134.6579,-156.5078 137.9203,-123.5 112,-123.5"/>
<polygon fill="#000000" stroke="#000000" points="155.9093,-170.9738 162.3632,-176.9158 159.7046,-172.2369 163.5,-173.5 163.5,-173.5 163.5,-173.5 159.7046,-172.2369 164.6368,-170.0842 155.9093,-170.9738 155.9093,-170.9738"/>
<ellipse fill="none" stroke="#000000" cx="152.873" cy="-169.9634" rx="3.2" ry="3.2"/>
</g>
<!-- COUNTRY&#45;&gt;User -->
<g id="edge2" class="edge">
<title>COUNTRY:w&#45;&gt;User:e</title>
<path fill="none" stroke="#000000" d="M149.2773,-147.8395C136.3531,-140.2498 132.1505,-123.5 112,-123.5"/>
<polygon fill="#000000" stroke="#000000" points="155.7525,-149.506 162.6027,-154.9864 159.6262,-150.503 163.5,-151.5 163.5,-151.5 163.5,-151.5 159.6262,-150.503 164.3973,-148.0136 155.7525,-149.506 155.7525,-149.506"/>
<ellipse fill="none" stroke="#000000" cx="152.6535" cy="-148.7084" rx="3.2" ry="3.2"/>
</g>
<!-- STATE -->
<g id="node3" class="node">
<title>STATE</title>
<g id="a_node3"><a xlink:href="../../tables/STATE.html" xlink:title="STATE" target="_top">
<polygon fill="#ffffff" stroke="transparent" points="409,-25 409,-174 536,-174 536,-25 409,-25"/>
<polygon fill="#f5f5f5" stroke="transparent" points="409.5,-150.5 409.5,-173.5 536.5,-173.5 536.5,-150.5 409.5,-150.5"/>
<polygon fill="none" stroke="#000000" points="409.5,-150.5 409.5,-173.5 536.5,-173.5 536.5,-150.5 409.5,-150.5"/>
<text text-anchor="start" x="414.5" y="-159.1" font-family="Helvetica,sans-Serif" font-weight="bold" font-size="11.00" fill="#000000">STATE</text>
<text text-anchor="start" x="501.5437" y="-158.6" font-family="Helvetica,sans-Serif" font-size="11.00" fill="#000000">[table]</text>
<polygon fill="none" stroke="#000000" points="409.5,-128.5 409.5,-150.5 536.5,-150.5 536.5,-128.5 409.5,-128.5"/>
<image xlink:href="../../images/primaryKeys.png" width="11px" height="12px" preserveAspectRatio="xMinYMin meet" x="414.5" y="-145.5"/>
<text text-anchor="start" x="429.5" y="-135.6" font-family="Helvetica,sans-Serif" font-size="11.00" fill="#000000">ID</text>
<polygon fill="#ffffff" stroke="transparent" points="409.5,-106.5 409.5,-128.5 536.5,-128.5 536.5,-106.5 409.5,-106.5"/>
<polygon fill="none" stroke="#000000" points="409.5,-106.5 409.5,-128.5 536.5,-128.5 536.5,-106.5 409.5,-106.5"/>
<image xlink:href="../../images/foreignKeys.png" width="11px" height="12px" preserveAspectRatio="xMinYMin meet" x="414.5" y="-123.5"/>
<text text-anchor="start" x="429.5" y="-113.6" font-family="Helvetica,sans-Serif" font-size="11.00" fill="#000000">COUNTRY_ID</text>
<polygon fill="#ffffff" stroke="transparent" points="409.5,-84.5 409.5,-106.5 536.5,-106.5 536.5,-84.5 409.5,-84.5"/>
<polygon fill="none" stroke="#000000" points="409.5,-84.5 409.5,-106.5 536.5,-106.5 536.5,-84.5 409.5,-84.5"/>
<image xlink:href="../../images/foreignKeys.png" width="11px" height="12px" preserveAspectRatio="xMinYMin meet" x="414.5" y="-101.5"/>
<text text-anchor="start" x="429.5" y="-91.6" font-family="Helvetica,sans-Serif" font-size="11.00" fill="#000000">CREATOR</text>
<polygon fill="#ffffff" stroke="transparent" points="409.5,-62.5 409.5,-84.5 536.5,-84.5 536.5,-62.5 409.5,-62.5"/>
<polygon fill="none" stroke="#000000" points="409.5,-62.5 409.5,-84.5 536.5,-84.5 536.5,-62.5 409.5,-62.5"/>
<image xlink:href="../../images/foreignKeys.png" width="11px" height="12px" preserveAspectRatio="xMinYMin meet" x="414.5" y="-79.5"/>
<text text-anchor="start" x="429.5" y="-69.6" font-family="Helvetica,sans-Serif" font-size="11.00" fill="#000000">LAST_MODIFIER</text>
<polygon fill="none" stroke="#000000" points="409.5,-43.5 409.5,-62.5 536.5,-62.5 536.5,-43.5 409.5,-43.5"/>
<text text-anchor="start" x="412.5" y="-49.6" font-family="Helvetica,sans-Serif" font-size="11.00" fill="#000000">...</text>
<polygon fill="#ffffff" stroke="transparent" points="409.5,-24.5 409.5,-43.5 453.5,-43.5 453.5,-24.5 409.5,-24.5"/>
<polygon fill="none" stroke="#000000" points="409.5,-24.5 409.5,-43.5 453.5,-43.5 453.5,-24.5 409.5,-24.5"/>
<text text-anchor="start" x="412.5" y="-30.6" font-family="Helvetica,sans-Serif" font-size="11.00" fill="#000000">&lt; 3</text>
<polygon fill="#ffffff" stroke="transparent" points="453.5,-24.5 453.5,-43.5 503.5,-43.5 503.5,-24.5 453.5,-24.5"/>
<polygon fill="none" stroke="#000000" points="453.5,-24.5 453.5,-43.5 503.5,-43.5 503.5,-24.5 453.5,-24.5"/>
<text text-anchor="start" x="468.1105" y="-30.6" font-family="Helvetica,sans-Serif" font-size="11.00" fill="#000000">0 rows</text>
<polygon fill="#ffffff" stroke="transparent" points="503.5,-24.5 503.5,-43.5 536.5,-43.5 536.5,-24.5 503.5,-24.5"/>
<polygon fill="none" stroke="#000000" points="503.5,-24.5 503.5,-43.5 536.5,-43.5 536.5,-24.5 503.5,-24.5"/>
<text text-anchor="start" x="517.9053" y="-30.6" font-family="Helvetica,sans-Serif" font-size="11.00" fill="#000000">1 &gt;</text>
</a>
</g>
</g>
<!-- STATE&#45;&gt;COUNTRY -->
<g id="edge3" class="edge">
<title>STATE:w&#45;&gt;COUNTRY:e</title>
<path fill="none" stroke="#000000" d="M394.9639,-119.5784C329.1738,-141.3884 448.9186,-327.5 358.5,-327.5"/>
<polygon fill="#000000" stroke="#000000" points="401.5805,-118.6324 410.0096,-121.0638 405.5403,-118.0662 409.5,-117.5 409.5,-117.5 409.5,-117.5 405.5403,-118.0662 408.9904,-113.9362 401.5805,-118.6324 401.5805,-118.6324"/>
<ellipse fill="none" stroke="#000000" cx="398.4128" cy="-119.0854" rx="3.2" ry="3.2"/>
</g>
<!-- STATE&#45;&gt;User -->
<g id="edge4" class="edge">
<title>STATE:w&#45;&gt;User:e</title>
<path fill="none" stroke="#000000" d="M394.9204,-95.4582C292.5133,-94.8748 260.1511,-88.6939 153,-109.5 134.0978,-113.1703 131.2553,-123.5 112,-123.5"/>
<polygon fill="#000000" stroke="#000000" points="401.5,-95.477 409.4897,-99.1 405.5,-95.4885 409.5,-95.5 409.5,-95.5 409.5,-95.5 405.5,-95.4885 409.5103,-91.9 401.5,-95.477 401.5,-95.477"/>
<ellipse fill="none" stroke="#000000" cx="398.3" cy="-95.4678" rx="3.2" ry="3.2"/>
</g>
<!-- STATE&#45;&gt;User -->
<g id="edge5" class="edge">
<title>STATE:w&#45;&gt;User:e</title>
<path fill="none" stroke="#000000" d="M394.8773,-73.3745C291.9599,-71.6071 255.0062,-52.358 153,-91.5 131.4189,-99.7811 135.1154,-123.5 112,-123.5"/>
<polygon fill="#000000" stroke="#000000" points="401.5003,-73.4313 409.4691,-77.0999 405.5001,-73.4656 409.5,-73.5 409.5,-73.5 409.5,-73.5 405.5001,-73.4656 409.5309,-69.9001 401.5003,-73.4313 401.5003,-73.4313"/>
<ellipse fill="none" stroke="#000000" cx="398.3004" cy="-73.4038" rx="3.2" ry="3.2"/>
</g>
</g>
</svg>
