<?xml version="1.0" encoding="UTF-8" standalone="no"?>
<!DOCTYPE svg PUBLIC "-//W3C//DTD SVG 1.1//EN"
 "http://www.w3.org/Graphics/SVG/1.1/DTD/svg11.dtd">
<!-- Generated by graphviz version 2.40.1 (20161225.0304)
 -->
<!-- Title: oneDegreeRelationshipsDiagram Pages: 1 -->
<svg width="638pt" height="369pt"
 viewBox="0.00 0.00 638.00 369.00" xmlns="http://www.w3.org/2000/svg" xmlns:xlink="http://www.w3.org/1999/xlink">
<g id="graph0" class="graph" transform="scale(1 1) rotate(0) translate(4 365)">
<title>oneDegreeRelationshipsDiagram</title>
<polygon fill="#ffffff" stroke="transparent" points="-4,4 -4,-365 634,-365 634,4 -4,4"/>
<!-- DELEGATIONS -->
<g id="node1" class="node">
<title>DELEGATIONS</title>
<g id="a_node1"><a xlink:href="../../tables/DELEGATIONS.html" xlink:title="DELEGATIONS" target="_top">
<polygon fill="#ffffff" stroke="transparent" points="424,-25 424,-357 622,-357 622,-25 424,-25"/>
<polygon fill="#f5f5f5" stroke="transparent" points="426,-332 426,-355 620,-355 620,-332 426,-332"/>
<polygon fill="none" stroke="#000000" points="426,-332 426,-355 620,-355 620,-332 426,-332"/>
<text text-anchor="start" x="431" y="-340.6" font-family="Helvetica,sans-Serif" font-weight="bold" font-size="11.00" fill="#000000">DELEGATIONS</text>
<text text-anchor="start" x="585.0437" y="-340.1" font-family="Helvetica,sans-Serif" font-size="11.00" fill="#000000">[table]</text>
<polygon fill="none" stroke="#000000" points="426,-310 426,-332 553,-332 553,-310 426,-310"/>
<image xlink:href="../../images/primaryKeys.png" width="11px" height="12px" preserveAspectRatio="xMinYMin meet" x="431" y="-327"/>
<text text-anchor="start" x="446" y="-317.1" font-family="Helvetica,sans-Serif" font-size="11.00" fill="#000000">ID</text>
<polygon fill="none" stroke="#000000" points="553,-310 553,-332 620,-332 620,-310 553,-310"/>
<text text-anchor="start" x="556" y="-317.7" font-family="Helvetica,sans-Serif" font-size="11.00" fill="#000000">int[10]</text>
<polygon fill="none" stroke="#000000" points="426,-288 426,-310 553,-310 553,-288 426,-288"/>
<text text-anchor="start" x="446" y="-295.1" font-family="Helvetica,sans-Serif" font-size="11.00" fill="#000000">WORKSPACE_ID</text>
<polygon fill="none" stroke="#000000" points="553,-288 553,-310 620,-310 620,-288 553,-288"/>
<text text-anchor="start" x="556" y="-295.7" font-family="Helvetica,sans-Serif" font-size="11.00" fill="#000000">int[10]</text>
<polygon fill="#ffffff" stroke="transparent" points="426,-266 426,-288 553,-288 553,-266 426,-266"/>
<polygon fill="none" stroke="#000000" points="426,-266 426,-288 553,-288 553,-266 426,-266"/>
<image xlink:href="../../images/foreignKeys.png" width="11px" height="12px" preserveAspectRatio="xMinYMin meet" x="431" y="-283"/>
<text text-anchor="start" x="446" y="-273.1" font-family="Helvetica,sans-Serif" font-size="11.00" fill="#000000">DELEGATOR_ID</text>
<polygon fill="none" stroke="#000000" points="553,-266 553,-288 620,-288 620,-266 553,-266"/>
<text text-anchor="start" x="556" y="-273.7" font-family="Helvetica,sans-Serif" font-size="11.00" fill="#000000">int[10]</text>
<polygon fill="#ffffff" stroke="transparent" points="426,-244 426,-266 553,-266 553,-244 426,-244"/>
<polygon fill="none" stroke="#000000" points="426,-244 426,-266 553,-266 553,-244 426,-244"/>
<image xlink:href="../../images/foreignKeys.png" width="11px" height="12px" preserveAspectRatio="xMinYMin meet" x="431" y="-261"/>
<text text-anchor="start" x="446" y="-251.1" font-family="Helvetica,sans-Serif" font-size="11.00" fill="#000000">DELEGATEE_ID</text>
<polygon fill="none" stroke="#000000" points="553,-244 553,-266 620,-266 620,-244 553,-244"/>
<text text-anchor="start" x="556" y="-251.7" font-family="Helvetica,sans-Serif" font-size="11.00" fill="#000000">int[10]</text>
<polygon fill="none" stroke="#000000" points="426,-222 426,-244 553,-244 553,-222 426,-222"/>
<text text-anchor="start" x="446" y="-229.1" font-family="Helvetica,sans-Serif" font-size="11.00" fill="#000000">TYPE</text>
<polygon fill="none" stroke="#000000" points="553,-222 553,-244 620,-244 620,-222 553,-222"/>
<text text-anchor="start" x="556" y="-229.7" font-family="Helvetica,sans-Serif" font-size="11.00" fill="#000000">enum[9]</text>
<polygon fill="none" stroke="#000000" points="426,-200 426,-222 553,-222 553,-200 426,-200"/>
<text text-anchor="start" x="446" y="-207.1" font-family="Helvetica,sans-Serif" font-size="11.00" fill="#000000">FROM_DATE</text>
<polygon fill="none" stroke="#000000" points="553,-200 553,-222 620,-222 620,-200 553,-200"/>
<text text-anchor="start" x="556" y="-207.7" font-family="Helvetica,sans-Serif" font-size="11.00" fill="#000000">datetime[26]</text>
<polygon fill="none" stroke="#000000" points="426,-178 426,-200 553,-200 553,-178 426,-178"/>
<text text-anchor="start" x="446" y="-185.1" font-family="Helvetica,sans-Serif" font-size="11.00" fill="#000000">TO_DATE</text>
<polygon fill="none" stroke="#000000" points="553,-178 553,-200 620,-200 620,-178 553,-178"/>
<text text-anchor="start" x="556" y="-185.7" font-family="Helvetica,sans-Serif" font-size="11.00" fill="#000000">datetime[26]</text>
<polygon fill="none" stroke="#000000" points="426,-156 426,-178 553,-178 553,-156 426,-156"/>
<text text-anchor="start" x="446" y="-163.1" font-family="Helvetica,sans-Serif" font-size="11.00" fill="#000000">NOTIFICATION</text>
<polygon fill="none" stroke="#000000" points="553,-156 553,-178 620,-178 620,-156 553,-156"/>
<text text-anchor="start" x="556" y="-163.7" font-family="Helvetica,sans-Serif" font-size="11.00" fill="#000000">enum[23]</text>
<polygon fill="none" stroke="#000000" points="426,-134 426,-156 553,-156 553,-134 426,-134"/>
<text text-anchor="start" x="446" y="-141.1" font-family="Helvetica,sans-Serif" font-size="11.00" fill="#000000">DESCRIPTION</text>
<polygon fill="none" stroke="#000000" points="553,-134 553,-156 620,-156 620,-134 553,-134"/>
<text text-anchor="start" x="555.9365" y="-141.7" font-family="Helvetica,sans-Serif" font-size="11.00" fill="#000000">varchar[255]</text>
<polygon fill="none" stroke="#000000" points="426,-112 426,-134 553,-134 553,-112 426,-112"/>
<text text-anchor="start" x="446" y="-119.1" font-family="Helvetica,sans-Serif" font-size="11.00" fill="#000000">CREATED_TIME</text>
<polygon fill="none" stroke="#000000" points="553,-112 553,-134 620,-134 620,-112 553,-112"/>
<text text-anchor="start" x="556" y="-119.7" font-family="Helvetica,sans-Serif" font-size="11.00" fill="#000000">datetime[26]</text>
<polygon fill="none" stroke="#000000" points="426,-90 426,-112 553,-112 553,-90 426,-90"/>
<text text-anchor="start" x="446" y="-97.1" font-family="Helvetica,sans-Serif" font-size="11.00" fill="#000000">MODIFIED_TIME</text>
<polygon fill="none" stroke="#000000" points="553,-90 553,-112 620,-112 620,-90 553,-90"/>
<text text-anchor="start" x="556" y="-97.7" font-family="Helvetica,sans-Serif" font-size="11.00" fill="#000000">datetime[26]</text>
<polygon fill="#ffffff" stroke="transparent" points="426,-68 426,-90 553,-90 553,-68 426,-68"/>
<polygon fill="none" stroke="#000000" points="426,-68 426,-90 553,-90 553,-68 426,-68"/>
<image xlink:href="../../images/foreignKeys.png" width="11px" height="12px" preserveAspectRatio="xMinYMin meet" x="431" y="-85"/>
<text text-anchor="start" x="446" y="-75.1" font-family="Helvetica,sans-Serif" font-size="11.00" fill="#000000">CREATOR</text>
<polygon fill="none" stroke="#000000" points="553,-68 553,-90 620,-90 620,-68 553,-68"/>
<text text-anchor="start" x="556" y="-75.7" font-family="Helvetica,sans-Serif" font-size="11.00" fill="#000000">int[10]</text>
<polygon fill="#ffffff" stroke="transparent" points="426,-46 426,-68 553,-68 553,-46 426,-46"/>
<polygon fill="none" stroke="#000000" points="426,-46 426,-68 553,-68 553,-46 426,-46"/>
<image xlink:href="../../images/foreignKeys.png" width="11px" height="12px" preserveAspectRatio="xMinYMin meet" x="431" y="-63"/>
<text text-anchor="start" x="446" y="-53.1" font-family="Helvetica,sans-Serif" font-size="11.00" fill="#000000">LAST_MODIFIER</text>
<polygon fill="none" stroke="#000000" points="553,-46 553,-68 620,-68 620,-46 553,-46"/>
<text text-anchor="start" x="556" y="-53.7" font-family="Helvetica,sans-Serif" font-size="11.00" fill="#000000">int[10]</text>
<polygon fill="#ffffff" stroke="transparent" points="426,-27 426,-46 481,-46 481,-27 426,-27"/>
<polygon fill="none" stroke="#000000" points="426,-27 426,-46 481,-46 481,-27 426,-27"/>
<text text-anchor="start" x="429" y="-33.1" font-family="Helvetica,sans-Serif" font-size="11.00" fill="#000000">&lt; 4</text>
<polygon fill="#ffffff" stroke="transparent" points="481,-27 481,-46 553,-46 553,-27 481,-27"/>
<polygon fill="none" stroke="#000000" points="481,-27 481,-46 553,-46 553,-27 481,-27"/>
<text text-anchor="start" x="517.6105" y="-33.1" font-family="Helvetica,sans-Serif" font-size="11.00" fill="#000000">0 rows</text>
<polygon fill="#ffffff" stroke="transparent" points="553,-27 553,-46 620,-46 620,-27 553,-27"/>
<polygon fill="none" stroke="#000000" points="553,-27 553,-46 620,-46 620,-27 553,-27"/>
<text text-anchor="start" x="601.4053" y="-33.1" font-family="Helvetica,sans-Serif" font-size="11.00" fill="#000000">0 &gt;</text>
<polygon fill="none" stroke="#000000" stroke-width="2" points="425,-26 425,-356 621,-356 621,-26 425,-26"/>
</a>
</g>
</g>
<!-- User -->
<g id="node2" class="node">
<title>User</title>
<g id="a_node2"><a xlink:href="../../tables/User.html" xlink:title="User" target="_top">
<polygon fill="#ffffff" stroke="transparent" points="8,-69.5 8,-152.5 112,-152.5 112,-69.5 8,-69.5"/>
<polygon fill="#f5f5f5" stroke="transparent" points="8,-129 8,-152 112,-152 112,-129 8,-129"/>
<polygon fill="none" stroke="#000000" points="8,-129 8,-152 112,-152 112,-129 8,-129"/>
<text text-anchor="start" x="13" y="-137.6" font-family="Helvetica,sans-Serif" font-weight="bold" font-size="11.00" fill="#000000">User</text>
<text text-anchor="start" x="77.0437" y="-137.1" font-family="Helvetica,sans-Serif" font-size="11.00" fill="#000000">[table]</text>
<polygon fill="none" stroke="#000000" points="8,-107 8,-129 112,-129 112,-107 8,-107"/>
<image xlink:href="../../images/primaryKeys.png" width="11px" height="12px" preserveAspectRatio="xMinYMin meet" x="13" y="-124"/>
<text text-anchor="start" x="28" y="-114.1" font-family="Helvetica,sans-Serif" font-size="11.00" fill="#000000">userid_pk</text>
<polygon fill="none" stroke="#000000" points="8,-88 8,-107 112,-107 112,-88 8,-88"/>
<text text-anchor="start" x="11" y="-94.1" font-family="Helvetica,sans-Serif" font-size="11.00" fill="#000000">...</text>
<polygon fill="#ffffff" stroke="transparent" points="8,-69 8,-88 30,-88 30,-69 8,-69"/>
<polygon fill="none" stroke="#000000" points="8,-69 8,-88 30,-88 30,-69 8,-69"/>
<text text-anchor="start" x="11" y="-75.1" font-family="Helvetica,sans-Serif" font-size="11.00" fill="#000000"> &#160;</text>
<polygon fill="#ffffff" stroke="transparent" points="30,-69 30,-88 73,-88 73,-69 30,-69"/>
<polygon fill="none" stroke="#000000" points="30,-69 30,-88 73,-88 73,-69 30,-69"/>
<text text-anchor="start" x="37.6105" y="-75.1" font-family="Helvetica,sans-Serif" font-size="11.00" fill="#000000">0 rows</text>
<polygon fill="#ffffff" stroke="transparent" points="73,-69 73,-88 112,-88 112,-69 73,-69"/>
<polygon fill="none" stroke="#000000" points="73,-69 73,-88 112,-88 112,-69 73,-69"/>
<text text-anchor="start" x="81.1755" y="-75.1" font-family="Helvetica,sans-Serif" font-size="11.00" fill="#000000">102 &gt;</text>
</a>
</g>
</g>
<!-- DELEGATIONS&#45;&gt;User -->
<g id="edge1" class="edge">
<title>DELEGATIONS:w&#45;&gt;User:e</title>
<path fill="none" stroke="#000000" d="M411.4691,-78.9224C301.4622,-77.7475 265.1273,-64.0802 153,-96 133.1104,-101.6621 132.6798,-118 112,-118"/>
<polygon fill="#000000" stroke="#000000" points="418.0001,-78.9572 425.9807,-82.5999 422.0001,-78.9786 426,-79 426,-79 426,-79 422.0001,-78.9786 426.0193,-75.4001 418.0001,-78.9572 418.0001,-78.9572"/>
<ellipse fill="none" stroke="#000000" cx="414.8002" cy="-78.9401" rx="3.2" ry="3.2"/>
</g>
<!-- DELEGATIONS&#45;&gt;User -->
<g id="edge4" class="edge">
<title>DELEGATIONS:w&#45;&gt;User:e</title>
<path fill="none" stroke="#000000" d="M411.4371,-56.8252C300.9182,-54.1681 258.1946,-22.8054 153,-73 128.581,-84.6517 139.0564,-118 112,-118"/>
<polygon fill="#000000" stroke="#000000" points="418.0006,-56.9039 425.9568,-60.5997 422.0003,-56.952 426,-57 426,-57 426,-57 422.0003,-56.952 426.0432,-53.4003 418.0006,-56.9039 418.0006,-56.9039"/>
<ellipse fill="none" stroke="#000000" cx="414.8008" cy="-56.8655" rx="3.2" ry="3.2"/>
</g>
<!-- EMPLOYEE -->
<g id="node3" class="node">
<title>EMPLOYEE</title>
<g id="a_node3"><a xlink:href="../../tables/EMPLOYEE.html" xlink:title="EMPLOYEE" target="_top">
<polygon fill="#ffffff" stroke="transparent" points="161,-106.5 161,-299.5 375,-299.5 375,-106.5 161,-106.5"/>
<polygon fill="#f5f5f5" stroke="transparent" points="161,-276 161,-299 375,-299 375,-276 161,-276"/>
<polygon fill="none" stroke="#000000" points="161,-276 161,-299 375,-299 375,-276 161,-276"/>
<text text-anchor="start" x="166" y="-284.6" font-family="Helvetica,sans-Serif" font-weight="bold" font-size="11.00" fill="#000000">EMPLOYEE</text>
<text text-anchor="start" x="340.0437" y="-284.1" font-family="Helvetica,sans-Serif" font-size="11.00" fill="#000000">[table]</text>
<polygon fill="none" stroke="#000000" points="161,-254 161,-276 375,-276 375,-254 161,-254"/>
<image xlink:href="../../images/primaryKeys.png" width="11px" height="12px" preserveAspectRatio="xMinYMin meet" x="166" y="-271"/>
<text text-anchor="start" x="181" y="-261.1" font-family="Helvetica,sans-Serif" font-size="11.00" fill="#000000">ID</text>
<polygon fill="#ffffff" stroke="transparent" points="161,-232 161,-254 375,-254 375,-232 161,-232"/>
<polygon fill="none" stroke="#000000" points="161,-232 161,-254 375,-254 375,-232 161,-232"/>
<image xlink:href="../../images/foreignKeys.png" width="11px" height="12px" preserveAspectRatio="xMinYMin meet" x="166" y="-249"/>
<text text-anchor="start" x="181" y="-239.1" font-family="Helvetica,sans-Serif" font-size="11.00" fill="#000000">DEPARTMENT_ID</text>
<polygon fill="#ffffff" stroke="transparent" points="161,-210 161,-232 375,-232 375,-210 161,-210"/>
<polygon fill="none" stroke="#000000" points="161,-210 161,-232 375,-232 375,-210 161,-210"/>
<image xlink:href="../../images/foreignKeys.png" width="11px" height="12px" preserveAspectRatio="xMinYMin meet" x="166" y="-227"/>
<text text-anchor="start" x="181" y="-217.1" font-family="Helvetica,sans-Serif" font-size="11.00" fill="#000000">LOCATION_ID</text>
<polygon fill="#ffffff" stroke="transparent" points="161,-188 161,-210 375,-210 375,-188 161,-188"/>
<polygon fill="none" stroke="#000000" points="161,-188 161,-210 375,-210 375,-188 161,-188"/>
<image xlink:href="../../images/foreignKeys.png" width="11px" height="12px" preserveAspectRatio="xMinYMin meet" x="166" y="-205"/>
<text text-anchor="start" x="181" y="-195.1" font-family="Helvetica,sans-Serif" font-size="11.00" fill="#000000">DESIGNATION_ID</text>
<polygon fill="#ffffff" stroke="transparent" points="161,-166 161,-188 375,-188 375,-166 161,-166"/>
<polygon fill="none" stroke="#000000" points="161,-166 161,-188 375,-188 375,-166 161,-166"/>
<image xlink:href="../../images/foreignKeys.png" width="11px" height="12px" preserveAspectRatio="xMinYMin meet" x="166" y="-183"/>
<text text-anchor="start" x="181" y="-173.1" font-family="Helvetica,sans-Serif" font-size="11.00" fill="#000000">CREATOR</text>
<polygon fill="#ffffff" stroke="transparent" points="161,-144 161,-166 375,-166 375,-144 161,-144"/>
<polygon fill="none" stroke="#000000" points="161,-144 161,-166 375,-166 375,-144 161,-144"/>
<image xlink:href="../../images/foreignKeys.png" width="11px" height="12px" preserveAspectRatio="xMinYMin meet" x="166" y="-161"/>
<text text-anchor="start" x="181" y="-151.1" font-family="Helvetica,sans-Serif" font-size="11.00" fill="#000000">LAST_MODIFIER</text>
<polygon fill="none" stroke="#000000" points="161,-125 161,-144 375,-144 375,-125 161,-125"/>
<text text-anchor="start" x="164" y="-131.1" font-family="Helvetica,sans-Serif" font-size="11.00" fill="#000000">...</text>
<polygon fill="#ffffff" stroke="transparent" points="161,-106 161,-125 246,-125 246,-106 161,-106"/>
<polygon fill="none" stroke="#000000" points="161,-106 161,-125 246,-125 246,-106 161,-106"/>
<text text-anchor="start" x="164" y="-112.1" font-family="Helvetica,sans-Serif" font-size="11.00" fill="#000000">&lt; 5</text>
<polygon fill="#ffffff" stroke="transparent" points="246,-106 246,-125 316,-125 316,-106 246,-106"/>
<polygon fill="none" stroke="#000000" points="246,-106 246,-125 316,-125 316,-106 246,-106"/>
<text text-anchor="start" x="280.6105" y="-112.1" font-family="Helvetica,sans-Serif" font-size="11.00" fill="#000000">0 rows</text>
<polygon fill="#ffffff" stroke="transparent" points="316,-106 316,-125 375,-125 375,-106 316,-106"/>
<polygon fill="none" stroke="#000000" points="316,-106 316,-125 375,-125 375,-106 316,-106"/>
<text text-anchor="start" x="350.2904" y="-112.1" font-family="Helvetica,sans-Serif" font-size="11.00" fill="#000000">15 &gt;</text>
</a>
</g>
</g>
<!-- DELEGATIONS&#45;&gt;EMPLOYEE -->
<g id="edge2" class="edge">
<title>DELEGATIONS:w&#45;&gt;EMPLOYEE:e</title>
<path fill="none" stroke="#000000" d="M411.5349,-256.5625C399.3566,-259.375 392.3237,-265 375,-265"/>
<polygon fill="#000000" stroke="#000000" points="418.0463,-255.8592 426.3866,-258.5792 422.0231,-255.4296 426,-255 426,-255 426,-255 422.0231,-255.4296 425.6134,-251.4208 418.0463,-255.8592 418.0463,-255.8592"/>
<ellipse fill="none" stroke="#000000" cx="414.8648" cy="-256.2029" rx="3.2" ry="3.2"/>
</g>
<!-- DELEGATIONS&#45;&gt;EMPLOYEE -->
<g id="edge3" class="edge">
<title>DELEGATIONS:w&#45;&gt;EMPLOYEE:e</title>
<path fill="none" stroke="#000000" d="M411.4822,-275.125C399.3214,-271.75 392.4642,-265 375,-265"/>
<polygon fill="#000000" stroke="#000000" points="418.0659,-275.9753 425.5389,-280.5703 422.0329,-276.4876 426,-277 426,-277 426,-277 422.0329,-276.4876 426.4611,-273.4297 418.0659,-275.9753 418.0659,-275.9753"/>
<ellipse fill="none" stroke="#000000" cx="414.8923" cy="-275.5654" rx="3.2" ry="3.2"/>
</g>
<!-- EMPLOYEE&#45;&gt;User -->
<g id="edge5" class="edge">
<title>EMPLOYEE:w&#45;&gt;User:e</title>
<path fill="none" stroke="#000000" d="M147.1662,-171.9697C132.0842,-157.7018 139.9614,-118 112,-118"/>
<polygon fill="#000000" stroke="#000000" points="153.4816,-174.2661 159.7697,-180.3833 157.2408,-175.6331 161,-177 161,-177 161,-177 157.2408,-175.6331 162.2303,-173.6167 153.4816,-174.2661 153.4816,-174.2661"/>
<ellipse fill="none" stroke="#000000" cx="150.4743" cy="-173.1725" rx="3.2" ry="3.2"/>
</g>
<!-- EMPLOYEE&#45;&gt;User -->
<g id="edge6" class="edge">
<title>EMPLOYEE:w&#45;&gt;User:e</title>
<path fill="none" stroke="#000000" d="M147.1217,-150.4631C134.5786,-140.583 133.3196,-118 112,-118"/>
<polygon fill="#000000" stroke="#000000" points="153.396,-152.5142 159.8814,-158.4218 157.198,-153.7571 161,-155 161,-155 161,-155 157.198,-153.7571 162.1186,-151.5782 153.396,-152.5142 153.396,-152.5142"/>
<ellipse fill="none" stroke="#000000" cx="150.3544" cy="-151.5198" rx="3.2" ry="3.2"/>
</g>
</g>
</svg>
