<?xml version="1.0" encoding="UTF-8" standalone="no"?>
<!DOCTYPE svg PUBLIC "-//W3C//DTD SVG 1.1//EN"
 "http://www.w3.org/Graphics/SVG/1.1/DTD/svg11.dtd">
<!-- Generated by graphviz version 2.40.1 (20161225.0304)
 -->
<!-- Title: oneDegreeRelationshipsDiagram Pages: 1 -->
<svg width="981pt" height="1193pt"
 viewBox="0.00 0.00 981.00 1193.15" xmlns="http://www.w3.org/2000/svg" xmlns:xlink="http://www.w3.org/1999/xlink">
<g id="graph0" class="graph" transform="scale(1 1) rotate(0) translate(4 1189.1497)">
<title>oneDegreeRelationshipsDiagram</title>
<polygon fill="#ffffff" stroke="transparent" points="-4,4 -4,-1189.1497 977,-1189.1497 977,4 -4,4"/>
<!-- APPLICABLE -->
<g id="node1" class="node">
<title>APPLICABLE</title>
<g id="a_node1"><a xlink:href="../../tables/APPLICABLE.html" xlink:title="APPLICABLE" target="_top">
<polygon fill="#ffffff" stroke="transparent" points="759.5,-966.1497 759.5,-1181.1497 931.5,-1181.1497 931.5,-966.1497 759.5,-966.1497"/>
<polygon fill="#f5f5f5" stroke="transparent" points="759.5,-1157.6497 759.5,-1180.6497 931.5,-1180.6497 931.5,-1157.6497 759.5,-1157.6497"/>
<polygon fill="none" stroke="#000000" points="759.5,-1157.6497 759.5,-1180.6497 931.5,-1180.6497 931.5,-1157.6497 759.5,-1157.6497"/>
<text text-anchor="start" x="764.5" y="-1166.2497" font-family="Helvetica,sans-Serif" font-weight="bold" font-size="11.00" fill="#000000">APPLICABLE</text>
<text text-anchor="start" x="896.5437" y="-1165.7497" font-family="Helvetica,sans-Serif" font-size="11.00" fill="#000000">[table]</text>
<polygon fill="none" stroke="#000000" points="759.5,-1135.6497 759.5,-1157.6497 931.5,-1157.6497 931.5,-1135.6497 759.5,-1135.6497"/>
<image xlink:href="../../images/primaryKeys.png" width="11px" height="12px" preserveAspectRatio="xMinYMin meet" x="764.5" y="-1152.65"/>
<text text-anchor="start" x="779.5" y="-1142.7497" font-family="Helvetica,sans-Serif" font-size="11.00" fill="#000000">ID</text>
<polygon fill="#ffffff" stroke="transparent" points="759.5,-1113.6497 759.5,-1135.6497 931.5,-1135.6497 931.5,-1113.6497 759.5,-1113.6497"/>
<polygon fill="none" stroke="#000000" points="759.5,-1113.6497 759.5,-1135.6497 931.5,-1135.6497 931.5,-1113.6497 759.5,-1113.6497"/>
<image xlink:href="../../images/foreignKeys.png" width="11px" height="12px" preserveAspectRatio="xMinYMin meet" x="764.5" y="-1130.65"/>
<text text-anchor="start" x="779.5" y="-1120.7497" font-family="Helvetica,sans-Serif" font-size="11.00" fill="#000000">DEPARTMENT_ID</text>
<polygon fill="#ffffff" stroke="transparent" points="759.5,-1091.6497 759.5,-1113.6497 931.5,-1113.6497 931.5,-1091.6497 759.5,-1091.6497"/>
<polygon fill="none" stroke="#000000" points="759.5,-1091.6497 759.5,-1113.6497 931.5,-1113.6497 931.5,-1091.6497 759.5,-1091.6497"/>
<image xlink:href="../../images/foreignKeys.png" width="11px" height="12px" preserveAspectRatio="xMinYMin meet" x="764.5" y="-1108.65"/>
<text text-anchor="start" x="779.5" y="-1098.7497" font-family="Helvetica,sans-Serif" font-size="11.00" fill="#000000">DESIGNATION_ID</text>
<polygon fill="#ffffff" stroke="transparent" points="759.5,-1069.6497 759.5,-1091.6497 931.5,-1091.6497 931.5,-1069.6497 759.5,-1069.6497"/>
<polygon fill="none" stroke="#000000" points="759.5,-1069.6497 759.5,-1091.6497 931.5,-1091.6497 931.5,-1069.6497 759.5,-1069.6497"/>
<image xlink:href="../../images/foreignKeys.png" width="11px" height="12px" preserveAspectRatio="xMinYMin meet" x="764.5" y="-1086.65"/>
<text text-anchor="start" x="779.5" y="-1076.7497" font-family="Helvetica,sans-Serif" font-size="11.00" fill="#000000">LOCATION_ID</text>
<polygon fill="#ffffff" stroke="transparent" points="759.5,-1047.6497 759.5,-1069.6497 931.5,-1069.6497 931.5,-1047.6497 759.5,-1047.6497"/>
<polygon fill="none" stroke="#000000" points="759.5,-1047.6497 759.5,-1069.6497 931.5,-1069.6497 931.5,-1047.6497 759.5,-1047.6497"/>
<image xlink:href="../../images/foreignKeys.png" width="11px" height="12px" preserveAspectRatio="xMinYMin meet" x="764.5" y="-1064.65"/>
<text text-anchor="start" x="779.5" y="-1054.7497" font-family="Helvetica,sans-Serif" font-size="11.00" fill="#000000">EMPLOYEE_ID</text>
<polygon fill="#ffffff" stroke="transparent" points="759.5,-1025.6497 759.5,-1047.6497 931.5,-1047.6497 931.5,-1025.6497 759.5,-1025.6497"/>
<polygon fill="none" stroke="#000000" points="759.5,-1025.6497 759.5,-1047.6497 931.5,-1047.6497 931.5,-1025.6497 759.5,-1025.6497"/>
<image xlink:href="../../images/foreignKeys.png" width="11px" height="12px" preserveAspectRatio="xMinYMin meet" x="764.5" y="-1042.65"/>
<text text-anchor="start" x="779.5" y="-1032.7497" font-family="Helvetica,sans-Serif" font-size="11.00" fill="#000000">CREATOR</text>
<polygon fill="#ffffff" stroke="transparent" points="759.5,-1003.6497 759.5,-1025.6497 931.5,-1025.6497 931.5,-1003.6497 759.5,-1003.6497"/>
<polygon fill="none" stroke="#000000" points="759.5,-1003.6497 759.5,-1025.6497 931.5,-1025.6497 931.5,-1003.6497 759.5,-1003.6497"/>
<image xlink:href="../../images/foreignKeys.png" width="11px" height="12px" preserveAspectRatio="xMinYMin meet" x="764.5" y="-1020.65"/>
<text text-anchor="start" x="779.5" y="-1010.7497" font-family="Helvetica,sans-Serif" font-size="11.00" fill="#000000">LAST_MODIFIER</text>
<polygon fill="none" stroke="#000000" points="759.5,-984.6497 759.5,-1003.6497 931.5,-1003.6497 931.5,-984.6497 759.5,-984.6497"/>
<text text-anchor="start" x="762.5" y="-990.7497" font-family="Helvetica,sans-Serif" font-size="11.00" fill="#000000">...</text>
<polygon fill="#ffffff" stroke="transparent" points="759.5,-965.6497 759.5,-984.6497 830.5,-984.6497 830.5,-965.6497 759.5,-965.6497"/>
<polygon fill="none" stroke="#000000" points="759.5,-965.6497 759.5,-984.6497 830.5,-984.6497 830.5,-965.6497 759.5,-965.6497"/>
<text text-anchor="start" x="762.5" y="-971.7497" font-family="Helvetica,sans-Serif" font-size="11.00" fill="#000000">&lt; 6</text>
<polygon fill="#ffffff" stroke="transparent" points="830.5,-965.6497 830.5,-984.6497 893.5,-984.6497 893.5,-965.6497 830.5,-965.6497"/>
<polygon fill="none" stroke="#000000" points="830.5,-965.6497 830.5,-984.6497 893.5,-984.6497 893.5,-965.6497 830.5,-965.6497"/>
<text text-anchor="start" x="858.1105" y="-971.7497" font-family="Helvetica,sans-Serif" font-size="11.00" fill="#000000">0 rows</text>
<polygon fill="#ffffff" stroke="transparent" points="893.5,-965.6497 893.5,-984.6497 931.5,-984.6497 931.5,-965.6497 893.5,-965.6497"/>
<polygon fill="none" stroke="#000000" points="893.5,-965.6497 893.5,-984.6497 931.5,-984.6497 931.5,-965.6497 893.5,-965.6497"/>
<text text-anchor="start" x="922.3862" y="-971.7497" font-family="Helvetica,sans-Serif" font-size="11.00" fill="#000000"> &#160;</text>
</a>
</g>
</g>
<!-- User -->
<g id="node2" class="node">
<title>User</title>
<g id="a_node2"><a xlink:href="../../tables/User.html" xlink:title="User" target="_top">
<polygon fill="#ffffff" stroke="transparent" points="8,-396.1497 8,-479.1497 112,-479.1497 112,-396.1497 8,-396.1497"/>
<polygon fill="#f5f5f5" stroke="transparent" points="8,-455.6497 8,-478.6497 112,-478.6497 112,-455.6497 8,-455.6497"/>
<polygon fill="none" stroke="#000000" points="8,-455.6497 8,-478.6497 112,-478.6497 112,-455.6497 8,-455.6497"/>
<text text-anchor="start" x="13" y="-464.2497" font-family="Helvetica,sans-Serif" font-weight="bold" font-size="11.00" fill="#000000">User</text>
<text text-anchor="start" x="77.0437" y="-463.7497" font-family="Helvetica,sans-Serif" font-size="11.00" fill="#000000">[table]</text>
<polygon fill="none" stroke="#000000" points="8,-433.6497 8,-455.6497 112,-455.6497 112,-433.6497 8,-433.6497"/>
<image xlink:href="../../images/primaryKeys.png" width="11px" height="12px" preserveAspectRatio="xMinYMin meet" x="13" y="-450.65"/>
<text text-anchor="start" x="28" y="-440.7497" font-family="Helvetica,sans-Serif" font-size="11.00" fill="#000000">userid_pk</text>
<polygon fill="none" stroke="#000000" points="8,-414.6497 8,-433.6497 112,-433.6497 112,-414.6497 8,-414.6497"/>
<text text-anchor="start" x="11" y="-420.7497" font-family="Helvetica,sans-Serif" font-size="11.00" fill="#000000">...</text>
<polygon fill="#ffffff" stroke="transparent" points="8,-395.6497 8,-414.6497 30,-414.6497 30,-395.6497 8,-395.6497"/>
<polygon fill="none" stroke="#000000" points="8,-395.6497 8,-414.6497 30,-414.6497 30,-395.6497 8,-395.6497"/>
<text text-anchor="start" x="11" y="-401.7497" font-family="Helvetica,sans-Serif" font-size="11.00" fill="#000000"> &#160;</text>
<polygon fill="#ffffff" stroke="transparent" points="30,-395.6497 30,-414.6497 73,-414.6497 73,-395.6497 30,-395.6497"/>
<polygon fill="none" stroke="#000000" points="30,-395.6497 30,-414.6497 73,-414.6497 73,-395.6497 30,-395.6497"/>
<text text-anchor="start" x="37.6105" y="-401.7497" font-family="Helvetica,sans-Serif" font-size="11.00" fill="#000000">0 rows</text>
<polygon fill="#ffffff" stroke="transparent" points="73,-395.6497 73,-414.6497 112,-414.6497 112,-395.6497 73,-395.6497"/>
<polygon fill="none" stroke="#000000" points="73,-395.6497 73,-414.6497 112,-414.6497 112,-395.6497 73,-395.6497"/>
<text text-anchor="start" x="81.1755" y="-401.7497" font-family="Helvetica,sans-Serif" font-size="11.00" fill="#000000">102 &gt;</text>
</a>
</g>
</g>
<!-- APPLICABLE&#45;&gt;User -->
<g id="edge1" class="edge">
<title>APPLICABLE:w&#45;&gt;User:e</title>
<path fill="none" stroke="#000000" d="M744.9784,-1038.5161C720.9856,-1045.3262 716.0369,-1068.8445 685,-1076.6497 455.6952,-1134.3149 325.5184,-1238.3388 153,-1076.6497 101.6556,-1028.5282 182.3698,-444.6497 112,-444.6497"/>
<polygon fill="#000000" stroke="#000000" points="751.5653,-1037.6696 759.959,-1040.2203 755.5326,-1037.1596 759.5,-1036.6497 759.5,-1036.6497 759.5,-1036.6497 755.5326,-1037.1596 759.041,-1033.079 751.5653,-1037.6696 751.5653,-1037.6696"/>
<ellipse fill="none" stroke="#000000" cx="748.3914" cy="-1038.0775" rx="3.2" ry="3.2"/>
</g>
<!-- APPLICABLE&#45;&gt;User -->
<g id="edge4" class="edge">
<title>APPLICABLE:w&#45;&gt;User:e</title>
<path fill="none" stroke="#000000" d="M745.0942,-1016.4241C721.2071,-1022.898 715.7761,-1045.254 685,-1052.6497 581.2859,-1077.5728 548.8802,-1076.8713 445,-1052.6497 304.0795,-1019.7913 234.7505,-1028.0445 153,-908.6497 123.7595,-865.9446 163.7564,-444.6497 112,-444.6497"/>
<polygon fill="#000000" stroke="#000000" points="751.56,-1015.6277 759.9401,-1018.2227 755.53,-1015.1387 759.5,-1014.6497 759.5,-1014.6497 759.5,-1014.6497 755.53,-1015.1387 759.0599,-1011.0767 751.56,-1015.6277 751.56,-1015.6277"/>
<ellipse fill="none" stroke="#000000" cx="748.384" cy="-1016.0189" rx="3.2" ry="3.2"/>
</g>
<!-- DEPARTMENT -->
<g id="node3" class="node">
<title>DEPARTMENT</title>
<g id="a_node3"><a xlink:href="../../tables/DEPARTMENT.html" xlink:title="DEPARTMENT" target="_top">
<polygon fill="#ffffff" stroke="transparent" points="161,-509.6497 161,-819.6497 404,-819.6497 404,-509.6497 161,-509.6497"/>
<polygon fill="#f5f5f5" stroke="transparent" points="163.5,-794.6497 163.5,-817.6497 402.5,-817.6497 402.5,-794.6497 163.5,-794.6497"/>
<polygon fill="none" stroke="#000000" points="163.5,-794.6497 163.5,-817.6497 402.5,-817.6497 402.5,-794.6497 163.5,-794.6497"/>
<text text-anchor="start" x="168.5" y="-803.2497" font-family="Helvetica,sans-Serif" font-weight="bold" font-size="11.00" fill="#000000">DEPARTMENT</text>
<text text-anchor="start" x="367.5437" y="-802.7497" font-family="Helvetica,sans-Serif" font-size="11.00" fill="#000000">[table]</text>
<polygon fill="none" stroke="#000000" points="163.5,-772.6497 163.5,-794.6497 335.5,-794.6497 335.5,-772.6497 163.5,-772.6497"/>
<image xlink:href="../../images/primaryKeys.png" width="11px" height="12px" preserveAspectRatio="xMinYMin meet" x="168.5" y="-789.65"/>
<text text-anchor="start" x="183.5" y="-779.7497" font-family="Helvetica,sans-Serif" font-size="11.00" fill="#000000">ID</text>
<polygon fill="none" stroke="#000000" points="335.5,-772.6497 335.5,-794.6497 402.5,-794.6497 402.5,-772.6497 335.5,-772.6497"/>
<text text-anchor="start" x="338.5" y="-780.3497" font-family="Helvetica,sans-Serif" font-size="11.00" fill="#000000">int[10]</text>
<polygon fill="none" stroke="#000000" points="163.5,-750.6497 163.5,-772.6497 335.5,-772.6497 335.5,-750.6497 163.5,-750.6497"/>
<text text-anchor="start" x="183.5" y="-757.7497" font-family="Helvetica,sans-Serif" font-size="11.00" fill="#000000">WORKSPACE_ID</text>
<polygon fill="none" stroke="#000000" points="335.5,-750.6497 335.5,-772.6497 402.5,-772.6497 402.5,-750.6497 335.5,-750.6497"/>
<text text-anchor="start" x="338.5" y="-758.3497" font-family="Helvetica,sans-Serif" font-size="11.00" fill="#000000">int[10]</text>
<polygon fill="none" stroke="#000000" points="163.5,-728.6497 163.5,-750.6497 335.5,-750.6497 335.5,-728.6497 163.5,-728.6497"/>
<text text-anchor="start" x="183.5" y="-735.7497" font-family="Helvetica,sans-Serif" font-size="11.00" fill="#000000">DEPARTMENT_CODE</text>
<polygon fill="none" stroke="#000000" points="335.5,-728.6497 335.5,-750.6497 402.5,-750.6497 402.5,-728.6497 335.5,-728.6497"/>
<text text-anchor="start" x="338.5" y="-736.3497" font-family="Helvetica,sans-Serif" font-size="11.00" fill="#000000">varchar[50]</text>
<polygon fill="none" stroke="#000000" points="163.5,-706.6497 163.5,-728.6497 335.5,-728.6497 335.5,-706.6497 163.5,-706.6497"/>
<text text-anchor="start" x="183.5" y="-713.7497" font-family="Helvetica,sans-Serif" font-size="11.00" fill="#000000">NAME</text>
<polygon fill="none" stroke="#000000" points="335.5,-706.6497 335.5,-728.6497 402.5,-728.6497 402.5,-706.6497 335.5,-706.6497"/>
<text text-anchor="start" x="338.5" y="-714.3497" font-family="Helvetica,sans-Serif" font-size="11.00" fill="#000000">varchar[50]</text>
<polygon fill="none" stroke="#000000" points="163.5,-684.6497 163.5,-706.6497 335.5,-706.6497 335.5,-684.6497 163.5,-684.6497"/>
<text text-anchor="start" x="183.5" y="-691.7497" font-family="Helvetica,sans-Serif" font-size="11.00" fill="#000000">MAIL_ALIAS</text>
<polygon fill="none" stroke="#000000" points="335.5,-684.6497 335.5,-706.6497 402.5,-706.6497 402.5,-684.6497 335.5,-684.6497"/>
<text text-anchor="start" x="338.4365" y="-692.3497" font-family="Helvetica,sans-Serif" font-size="11.00" fill="#000000">varchar[100]</text>
<polygon fill="none" stroke="#000000" points="163.5,-662.6497 163.5,-684.6497 335.5,-684.6497 335.5,-662.6497 163.5,-662.6497"/>
<text text-anchor="start" x="183.5" y="-669.7497" font-family="Helvetica,sans-Serif" font-size="11.00" fill="#000000">DEPARTMENT_LEAD</text>
<polygon fill="none" stroke="#000000" points="335.5,-662.6497 335.5,-684.6497 402.5,-684.6497 402.5,-662.6497 335.5,-662.6497"/>
<text text-anchor="start" x="338.5" y="-670.3497" font-family="Helvetica,sans-Serif" font-size="11.00" fill="#000000">int[10]</text>
<polygon fill="none" stroke="#000000" points="163.5,-640.6497 163.5,-662.6497 335.5,-662.6497 335.5,-640.6497 163.5,-640.6497"/>
<text text-anchor="start" x="183.5" y="-647.7497" font-family="Helvetica,sans-Serif" font-size="11.00" fill="#000000">PARENT_DEPARTMENT</text>
<polygon fill="none" stroke="#000000" points="335.5,-640.6497 335.5,-662.6497 402.5,-662.6497 402.5,-640.6497 335.5,-640.6497"/>
<text text-anchor="start" x="338.5" y="-648.3497" font-family="Helvetica,sans-Serif" font-size="11.00" fill="#000000">int[10]</text>
<polygon fill="none" stroke="#000000" points="163.5,-618.6497 163.5,-640.6497 335.5,-640.6497 335.5,-618.6497 163.5,-618.6497"/>
<text text-anchor="start" x="183.5" y="-625.7497" font-family="Helvetica,sans-Serif" font-size="11.00" fill="#000000">APPROVAL_STATUS</text>
<polygon fill="none" stroke="#000000" points="335.5,-618.6497 335.5,-640.6497 402.5,-640.6497 402.5,-618.6497 335.5,-618.6497"/>
<text text-anchor="start" x="338.5" y="-626.3497" font-family="Helvetica,sans-Serif" font-size="11.00" fill="#000000">enum[12]</text>
<polygon fill="none" stroke="#000000" points="163.5,-596.6497 163.5,-618.6497 335.5,-618.6497 335.5,-596.6497 163.5,-596.6497"/>
<text text-anchor="start" x="183.5" y="-603.7497" font-family="Helvetica,sans-Serif" font-size="11.00" fill="#000000">CREATED_TIME</text>
<polygon fill="none" stroke="#000000" points="335.5,-596.6497 335.5,-618.6497 402.5,-618.6497 402.5,-596.6497 335.5,-596.6497"/>
<text text-anchor="start" x="338.5" y="-604.3497" font-family="Helvetica,sans-Serif" font-size="11.00" fill="#000000">datetime[26]</text>
<polygon fill="none" stroke="#000000" points="163.5,-574.6497 163.5,-596.6497 335.5,-596.6497 335.5,-574.6497 163.5,-574.6497"/>
<text text-anchor="start" x="183.5" y="-581.7497" font-family="Helvetica,sans-Serif" font-size="11.00" fill="#000000">MODIFIED_TIME</text>
<polygon fill="none" stroke="#000000" points="335.5,-574.6497 335.5,-596.6497 402.5,-596.6497 402.5,-574.6497 335.5,-574.6497"/>
<text text-anchor="start" x="338.5" y="-582.3497" font-family="Helvetica,sans-Serif" font-size="11.00" fill="#000000">datetime[26]</text>
<polygon fill="#ffffff" stroke="transparent" points="163.5,-552.6497 163.5,-574.6497 335.5,-574.6497 335.5,-552.6497 163.5,-552.6497"/>
<polygon fill="none" stroke="#000000" points="163.5,-552.6497 163.5,-574.6497 335.5,-574.6497 335.5,-552.6497 163.5,-552.6497"/>
<image xlink:href="../../images/foreignKeys.png" width="11px" height="12px" preserveAspectRatio="xMinYMin meet" x="168.5" y="-569.65"/>
<text text-anchor="start" x="183.5" y="-559.7497" font-family="Helvetica,sans-Serif" font-size="11.00" fill="#000000">CREATOR</text>
<polygon fill="none" stroke="#000000" points="335.5,-552.6497 335.5,-574.6497 402.5,-574.6497 402.5,-552.6497 335.5,-552.6497"/>
<text text-anchor="start" x="338.5" y="-560.3497" font-family="Helvetica,sans-Serif" font-size="11.00" fill="#000000">int[10]</text>
<polygon fill="#ffffff" stroke="transparent" points="163.5,-530.6497 163.5,-552.6497 335.5,-552.6497 335.5,-530.6497 163.5,-530.6497"/>
<polygon fill="none" stroke="#000000" points="163.5,-530.6497 163.5,-552.6497 335.5,-552.6497 335.5,-530.6497 163.5,-530.6497"/>
<image xlink:href="../../images/foreignKeys.png" width="11px" height="12px" preserveAspectRatio="xMinYMin meet" x="168.5" y="-547.65"/>
<text text-anchor="start" x="183.5" y="-537.7497" font-family="Helvetica,sans-Serif" font-size="11.00" fill="#000000">LAST_MODIFIER</text>
<polygon fill="none" stroke="#000000" points="335.5,-530.6497 335.5,-552.6497 402.5,-552.6497 402.5,-530.6497 335.5,-530.6497"/>
<text text-anchor="start" x="338.5" y="-538.3497" font-family="Helvetica,sans-Serif" font-size="11.00" fill="#000000">int[10]</text>
<polygon fill="#ffffff" stroke="transparent" points="163.5,-511.6497 163.5,-530.6497 240.5,-530.6497 240.5,-511.6497 163.5,-511.6497"/>
<polygon fill="none" stroke="#000000" points="163.5,-511.6497 163.5,-530.6497 240.5,-530.6497 240.5,-511.6497 163.5,-511.6497"/>
<text text-anchor="start" x="166.5" y="-517.7497" font-family="Helvetica,sans-Serif" font-size="11.00" fill="#000000">&lt; 2</text>
<polygon fill="#ffffff" stroke="transparent" points="240.5,-511.6497 240.5,-530.6497 335.5,-530.6497 335.5,-511.6497 240.5,-511.6497"/>
<polygon fill="none" stroke="#000000" points="240.5,-511.6497 240.5,-530.6497 335.5,-530.6497 335.5,-511.6497 240.5,-511.6497"/>
<text text-anchor="start" x="300.1105" y="-517.7497" font-family="Helvetica,sans-Serif" font-size="11.00" fill="#000000">0 rows</text>
<polygon fill="#ffffff" stroke="transparent" points="335.5,-511.6497 335.5,-530.6497 402.5,-530.6497 402.5,-511.6497 335.5,-511.6497"/>
<polygon fill="none" stroke="#000000" points="335.5,-511.6497 335.5,-530.6497 402.5,-530.6497 402.5,-511.6497 335.5,-511.6497"/>
<text text-anchor="start" x="383.9053" y="-517.7497" font-family="Helvetica,sans-Serif" font-size="11.00" fill="#000000">7 &gt;</text>
<polygon fill="none" stroke="#000000" stroke-width="2" points="162,-510.6497 162,-818.6497 403,-818.6497 403,-510.6497 162,-510.6497"/>
</a>
</g>
</g>
<!-- APPLICABLE&#45;&gt;DEPARTMENT -->
<g id="edge2" class="edge">
<title>APPLICABLE:w&#45;&gt;DEPARTMENT:e</title>
<path fill="none" stroke="#000000" d="M745.0601,-1123.7191C640.0752,-1109.0034 778.241,-923.5362 685,-838.6497 605.0898,-765.8995 549.4177,-827.4914 445,-799.6497 425.4982,-794.4497 422.6831,-783.6497 402.5,-783.6497"/>
<polygon fill="#000000" stroke="#000000" points="751.5166,-1124.1351 759.2685,-1128.2422 755.5083,-1124.3924 759.5,-1124.6497 759.5,-1124.6497 759.5,-1124.6497 755.5083,-1124.3924 759.7315,-1121.0571 751.5166,-1124.1351 751.5166,-1124.1351"/>
<ellipse fill="none" stroke="#000000" cx="748.3232" cy="-1123.9293" rx="3.2" ry="3.2"/>
</g>
<!-- EMPLOYEE -->
<g id="node4" class="node">
<title>EMPLOYEE</title>
<g id="a_node4"><a xlink:href="../../tables/EMPLOYEE.html" xlink:title="EMPLOYEE" target="_top">
<polygon fill="#ffffff" stroke="transparent" points="458,-849.1497 458,-1042.1497 672,-1042.1497 672,-849.1497 458,-849.1497"/>
<polygon fill="#f5f5f5" stroke="transparent" points="458,-1018.6497 458,-1041.6497 672,-1041.6497 672,-1018.6497 458,-1018.6497"/>
<polygon fill="none" stroke="#000000" points="458,-1018.6497 458,-1041.6497 672,-1041.6497 672,-1018.6497 458,-1018.6497"/>
<text text-anchor="start" x="463" y="-1027.2497" font-family="Helvetica,sans-Serif" font-weight="bold" font-size="11.00" fill="#000000">EMPLOYEE</text>
<text text-anchor="start" x="637.0437" y="-1026.7497" font-family="Helvetica,sans-Serif" font-size="11.00" fill="#000000">[table]</text>
<polygon fill="none" stroke="#000000" points="458,-996.6497 458,-1018.6497 672,-1018.6497 672,-996.6497 458,-996.6497"/>
<image xlink:href="../../images/primaryKeys.png" width="11px" height="12px" preserveAspectRatio="xMinYMin meet" x="463" y="-1013.65"/>
<text text-anchor="start" x="478" y="-1003.7497" font-family="Helvetica,sans-Serif" font-size="11.00" fill="#000000">ID</text>
<polygon fill="#ffffff" stroke="transparent" points="458,-974.6497 458,-996.6497 672,-996.6497 672,-974.6497 458,-974.6497"/>
<polygon fill="none" stroke="#000000" points="458,-974.6497 458,-996.6497 672,-996.6497 672,-974.6497 458,-974.6497"/>
<image xlink:href="../../images/foreignKeys.png" width="11px" height="12px" preserveAspectRatio="xMinYMin meet" x="463" y="-991.65"/>
<text text-anchor="start" x="478" y="-981.7497" font-family="Helvetica,sans-Serif" font-size="11.00" fill="#000000">DEPARTMENT_ID</text>
<polygon fill="#ffffff" stroke="transparent" points="458,-952.6497 458,-974.6497 672,-974.6497 672,-952.6497 458,-952.6497"/>
<polygon fill="none" stroke="#000000" points="458,-952.6497 458,-974.6497 672,-974.6497 672,-952.6497 458,-952.6497"/>
<image xlink:href="../../images/foreignKeys.png" width="11px" height="12px" preserveAspectRatio="xMinYMin meet" x="463" y="-969.65"/>
<text text-anchor="start" x="478" y="-959.7497" font-family="Helvetica,sans-Serif" font-size="11.00" fill="#000000">LOCATION_ID</text>
<polygon fill="#ffffff" stroke="transparent" points="458,-930.6497 458,-952.6497 672,-952.6497 672,-930.6497 458,-930.6497"/>
<polygon fill="none" stroke="#000000" points="458,-930.6497 458,-952.6497 672,-952.6497 672,-930.6497 458,-930.6497"/>
<image xlink:href="../../images/foreignKeys.png" width="11px" height="12px" preserveAspectRatio="xMinYMin meet" x="463" y="-947.65"/>
<text text-anchor="start" x="478" y="-937.7497" font-family="Helvetica,sans-Serif" font-size="11.00" fill="#000000">DESIGNATION_ID</text>
<polygon fill="#ffffff" stroke="transparent" points="458,-908.6497 458,-930.6497 672,-930.6497 672,-908.6497 458,-908.6497"/>
<polygon fill="none" stroke="#000000" points="458,-908.6497 458,-930.6497 672,-930.6497 672,-908.6497 458,-908.6497"/>
<image xlink:href="../../images/foreignKeys.png" width="11px" height="12px" preserveAspectRatio="xMinYMin meet" x="463" y="-925.65"/>
<text text-anchor="start" x="478" y="-915.7497" font-family="Helvetica,sans-Serif" font-size="11.00" fill="#000000">CREATOR</text>
<polygon fill="#ffffff" stroke="transparent" points="458,-886.6497 458,-908.6497 672,-908.6497 672,-886.6497 458,-886.6497"/>
<polygon fill="none" stroke="#000000" points="458,-886.6497 458,-908.6497 672,-908.6497 672,-886.6497 458,-886.6497"/>
<image xlink:href="../../images/foreignKeys.png" width="11px" height="12px" preserveAspectRatio="xMinYMin meet" x="463" y="-903.65"/>
<text text-anchor="start" x="478" y="-893.7497" font-family="Helvetica,sans-Serif" font-size="11.00" fill="#000000">LAST_MODIFIER</text>
<polygon fill="none" stroke="#000000" points="458,-867.6497 458,-886.6497 672,-886.6497 672,-867.6497 458,-867.6497"/>
<text text-anchor="start" x="461" y="-873.7497" font-family="Helvetica,sans-Serif" font-size="11.00" fill="#000000">...</text>
<polygon fill="#ffffff" stroke="transparent" points="458,-848.6497 458,-867.6497 543,-867.6497 543,-848.6497 458,-848.6497"/>
<polygon fill="none" stroke="#000000" points="458,-848.6497 458,-867.6497 543,-867.6497 543,-848.6497 458,-848.6497"/>
<text text-anchor="start" x="461" y="-854.7497" font-family="Helvetica,sans-Serif" font-size="11.00" fill="#000000">&lt; 5</text>
<polygon fill="#ffffff" stroke="transparent" points="543,-848.6497 543,-867.6497 613,-867.6497 613,-848.6497 543,-848.6497"/>
<polygon fill="none" stroke="#000000" points="543,-848.6497 543,-867.6497 613,-867.6497 613,-848.6497 543,-848.6497"/>
<text text-anchor="start" x="577.6105" y="-854.7497" font-family="Helvetica,sans-Serif" font-size="11.00" fill="#000000">0 rows</text>
<polygon fill="#ffffff" stroke="transparent" points="613,-848.6497 613,-867.6497 672,-867.6497 672,-848.6497 613,-848.6497"/>
<polygon fill="none" stroke="#000000" points="613,-848.6497 613,-867.6497 672,-867.6497 672,-848.6497 613,-848.6497"/>
<text text-anchor="start" x="647.2904" y="-854.7497" font-family="Helvetica,sans-Serif" font-size="11.00" fill="#000000">15 &gt;</text>
</a>
</g>
</g>
<!-- APPLICABLE&#45;&gt;EMPLOYEE -->
<g id="edge3" class="edge">
<title>APPLICABLE:w&#45;&gt;EMPLOYEE:e</title>
<path fill="none" stroke="#000000" d="M745.0702,-1056.5872C714.402,-1047.0459 711.5618,-1007.6497 672,-1007.6497"/>
<polygon fill="#000000" stroke="#000000" points="751.5805,-1057.5177 758.9906,-1062.2134 755.5402,-1058.0837 759.5,-1058.6497 759.5,-1058.6497 759.5,-1058.6497 755.5402,-1058.0837 760.0094,-1055.0859 751.5805,-1057.5177 751.5805,-1057.5177"/>
<ellipse fill="none" stroke="#000000" cx="748.4127" cy="-1057.0649" rx="3.2" ry="3.2"/>
</g>
<!-- DEPARTMENT&#45;&gt;User -->
<g id="edge8" class="edge">
<title>DEPARTMENT:w&#45;&gt;User:e</title>
<path fill="none" stroke="#000000" d="M149.4431,-560.2166C117.5696,-540.7053 163.7763,-444.6497 112,-444.6497"/>
<polygon fill="#000000" stroke="#000000" points="155.7284,-561.7516 162.6459,-567.1469 159.6142,-562.7006 163.5,-563.6497 163.5,-563.6497 163.5,-563.6497 159.6142,-562.7006 164.3541,-560.1524 155.7284,-561.7516 155.7284,-561.7516"/>
<ellipse fill="none" stroke="#000000" cx="152.6198" cy="-560.9923" rx="3.2" ry="3.2"/>
</g>
<!-- DEPARTMENT&#45;&gt;User -->
<g id="edge9" class="edge">
<title>DEPARTMENT:w&#45;&gt;User:e</title>
<path fill="none" stroke="#000000" d="M149.6071,-537.727C124.4674,-519.5798 154.8999,-444.6497 112,-444.6497"/>
<polygon fill="#000000" stroke="#000000" points="155.801,-539.4758 162.5218,-545.1142 159.6505,-540.5627 163.5,-541.6497 163.5,-541.6497 163.5,-541.6497 159.6505,-540.5627 164.4782,-538.1851 155.801,-539.4758 155.801,-539.4758"/>
<ellipse fill="none" stroke="#000000" cx="152.7214" cy="-538.6063" rx="3.2" ry="3.2"/>
</g>
<!-- EMPLOYEE&#45;&gt;User -->
<g id="edge10" class="edge">
<title>EMPLOYEE:w&#45;&gt;User:e</title>
<path fill="none" stroke="#000000" d="M443.3315,-919.8279C315.0505,-922.9153 243.182,-963.8818 153,-866.6497 88.9284,-797.5692 206.2193,-444.6497 112,-444.6497"/>
<polygon fill="#000000" stroke="#000000" points="450.0006,-919.7469 458.0438,-923.2494 454.0003,-919.6983 458,-919.6497 458,-919.6497 458,-919.6497 454.0003,-919.6983 457.9562,-916.0499 450.0006,-919.7469 450.0006,-919.7469"/>
<ellipse fill="none" stroke="#000000" cx="446.8008" cy="-919.7858" rx="3.2" ry="3.2"/>
</g>
<!-- EMPLOYEE&#45;&gt;User -->
<g id="edge12" class="edge">
<title>EMPLOYEE:w&#45;&gt;User:e</title>
<path fill="none" stroke="#000000" d="M443.7278,-894.171C432.7121,-887.7482 429.1332,-874.0967 412,-867.6497 357.585,-847.1739 193.3629,-872.4956 153,-830.6497 93.1149,-768.5642 198.2603,-444.6497 112,-444.6497"/>
<polygon fill="#000000" stroke="#000000" points="450.2275,-895.7552 457.1475,-901.1473 454.1138,-896.7024 458,-897.6497 458,-897.6497 458,-897.6497 454.1138,-896.7024 458.8525,-894.152 450.2275,-895.7552 450.2275,-895.7552"/>
<ellipse fill="none" stroke="#000000" cx="447.1186" cy="-894.9974" rx="3.2" ry="3.2"/>
</g>
<!-- EMPLOYEE&#45;&gt;DEPARTMENT -->
<g id="edge11" class="edge">
<title>EMPLOYEE:w&#45;&gt;DEPARTMENT:e</title>
<path fill="none" stroke="#000000" d="M443.4505,-983.5178C379.9029,-961.9292 489.9675,-783.6497 402.5,-783.6497"/>
<polygon fill="#000000" stroke="#000000" points="450.0845,-984.4898 457.4781,-989.2116 454.0423,-985.0697 458,-985.6497 458,-985.6497 458,-985.6497 454.0423,-985.0697 458.5219,-982.0877 450.0845,-984.4898 450.0845,-984.4898"/>
<ellipse fill="none" stroke="#000000" cx="446.9183" cy="-984.0258" rx="3.2" ry="3.2"/>
</g>
<!-- CANDIDATE -->
<g id="node5" class="node">
<title>CANDIDATE</title>
<g id="a_node5"><a xlink:href="../../tables/CANDIDATE.html" xlink:title="CANDIDATE" target="_top">
<polygon fill="#ffffff" stroke="transparent" points="462,-575.1497 462,-746.1497 668,-746.1497 668,-575.1497 462,-575.1497"/>
<polygon fill="#f5f5f5" stroke="transparent" points="462,-722.6497 462,-745.6497 668,-745.6497 668,-722.6497 462,-722.6497"/>
<polygon fill="none" stroke="#000000" points="462,-722.6497 462,-745.6497 668,-745.6497 668,-722.6497 462,-722.6497"/>
<text text-anchor="start" x="467" y="-731.2497" font-family="Helvetica,sans-Serif" font-weight="bold" font-size="11.00" fill="#000000">CANDIDATE</text>
<text text-anchor="start" x="633.0437" y="-730.7497" font-family="Helvetica,sans-Serif" font-size="11.00" fill="#000000">[table]</text>
<polygon fill="none" stroke="#000000" points="462,-700.6497 462,-722.6497 668,-722.6497 668,-700.6497 462,-700.6497"/>
<image xlink:href="../../images/primaryKeys.png" width="11px" height="12px" preserveAspectRatio="xMinYMin meet" x="467" y="-717.65"/>
<text text-anchor="start" x="482" y="-707.7497" font-family="Helvetica,sans-Serif" font-size="11.00" fill="#000000">ID</text>
<polygon fill="#ffffff" stroke="transparent" points="462,-678.6497 462,-700.6497 668,-700.6497 668,-678.6497 462,-678.6497"/>
<polygon fill="none" stroke="#000000" points="462,-678.6497 462,-700.6497 668,-700.6497 668,-678.6497 462,-678.6497"/>
<image xlink:href="../../images/foreignKeys.png" width="11px" height="12px" preserveAspectRatio="xMinYMin meet" x="467" y="-695.65"/>
<text text-anchor="start" x="482" y="-685.7497" font-family="Helvetica,sans-Serif" font-size="11.00" fill="#000000">LOCATION_ID</text>
<polygon fill="#ffffff" stroke="transparent" points="462,-656.6497 462,-678.6497 668,-678.6497 668,-656.6497 462,-656.6497"/>
<polygon fill="none" stroke="#000000" points="462,-656.6497 462,-678.6497 668,-678.6497 668,-656.6497 462,-656.6497"/>
<image xlink:href="../../images/foreignKeys.png" width="11px" height="12px" preserveAspectRatio="xMinYMin meet" x="467" y="-673.65"/>
<text text-anchor="start" x="482" y="-663.7497" font-family="Helvetica,sans-Serif" font-size="11.00" fill="#000000">DEPARTMENT_ID</text>
<polygon fill="#ffffff" stroke="transparent" points="462,-634.6497 462,-656.6497 668,-656.6497 668,-634.6497 462,-634.6497"/>
<polygon fill="none" stroke="#000000" points="462,-634.6497 462,-656.6497 668,-656.6497 668,-634.6497 462,-634.6497"/>
<image xlink:href="../../images/foreignKeys.png" width="11px" height="12px" preserveAspectRatio="xMinYMin meet" x="467" y="-651.65"/>
<text text-anchor="start" x="482" y="-641.7497" font-family="Helvetica,sans-Serif" font-size="11.00" fill="#000000">CREATOR</text>
<polygon fill="#ffffff" stroke="transparent" points="462,-612.6497 462,-634.6497 668,-634.6497 668,-612.6497 462,-612.6497"/>
<polygon fill="none" stroke="#000000" points="462,-612.6497 462,-634.6497 668,-634.6497 668,-612.6497 462,-612.6497"/>
<image xlink:href="../../images/foreignKeys.png" width="11px" height="12px" preserveAspectRatio="xMinYMin meet" x="467" y="-629.65"/>
<text text-anchor="start" x="482" y="-619.7497" font-family="Helvetica,sans-Serif" font-size="11.00" fill="#000000">LAST_MODIFIER</text>
<polygon fill="none" stroke="#000000" points="462,-593.6497 462,-612.6497 668,-612.6497 668,-593.6497 462,-593.6497"/>
<text text-anchor="start" x="465" y="-599.7497" font-family="Helvetica,sans-Serif" font-size="11.00" fill="#000000">...</text>
<polygon fill="#ffffff" stroke="transparent" points="462,-574.6497 462,-593.6497 546,-593.6497 546,-574.6497 462,-574.6497"/>
<polygon fill="none" stroke="#000000" points="462,-574.6497 462,-593.6497 546,-593.6497 546,-574.6497 462,-574.6497"/>
<text text-anchor="start" x="465" y="-580.7497" font-family="Helvetica,sans-Serif" font-size="11.00" fill="#000000">&lt; 4</text>
<polygon fill="#ffffff" stroke="transparent" points="546,-574.6497 546,-593.6497 615,-593.6497 615,-574.6497 546,-574.6497"/>
<polygon fill="none" stroke="#000000" points="546,-574.6497 546,-593.6497 615,-593.6497 615,-574.6497 546,-574.6497"/>
<text text-anchor="start" x="579.6105" y="-580.7497" font-family="Helvetica,sans-Serif" font-size="11.00" fill="#000000">0 rows</text>
<polygon fill="#ffffff" stroke="transparent" points="615,-574.6497 615,-593.6497 668,-593.6497 668,-574.6497 615,-574.6497"/>
<polygon fill="none" stroke="#000000" points="615,-574.6497 615,-593.6497 668,-593.6497 668,-574.6497 615,-574.6497"/>
<text text-anchor="start" x="649.4053" y="-580.7497" font-family="Helvetica,sans-Serif" font-size="11.00" fill="#000000">2 &gt;</text>
</a>
</g>
</g>
<!-- CANDIDATE&#45;&gt;User -->
<g id="edge5" class="edge">
<title>CANDIDATE:w&#45;&gt;User:e</title>
<path fill="none" stroke="#000000" d="M447.7301,-643.6477C404.0687,-629.0497 461.2927,-538.4396 412,-498.6497 366.9153,-462.2565 207.9542,-487.0106 153,-468.6497 132.9736,-461.9586 133.1146,-444.6497 112,-444.6497"/>
<polygon fill="#000000" stroke="#000000" points="454.0776,-644.5381 461.4998,-649.2147 458.0388,-645.0939 462,-645.6497 462,-645.6497 462,-645.6497 458.0388,-645.0939 462.5002,-642.0846 454.0776,-644.5381 454.0776,-644.5381"/>
<ellipse fill="none" stroke="#000000" cx="450.9086" cy="-644.0935" rx="3.2" ry="3.2"/>
</g>
<!-- CANDIDATE&#45;&gt;User -->
<g id="edge7" class="edge">
<title>CANDIDATE:w&#45;&gt;User:e</title>
<path fill="none" stroke="#000000" d="M447.4579,-621.6361C401.7251,-606.5569 463.8882,-510.7583 412,-469.6497 410.3614,-468.3514 114.0906,-444.6497 112,-444.6497"/>
<polygon fill="#000000" stroke="#000000" points="454.0756,-622.5523 461.5062,-627.2156 458.0378,-623.101 462,-623.6497 462,-623.6497 462,-623.6497 458.0378,-623.101 462.4938,-620.0837 454.0756,-622.5523 454.0756,-622.5523"/>
<ellipse fill="none" stroke="#000000" cx="450.9058" cy="-622.1134" rx="3.2" ry="3.2"/>
</g>
<!-- CANDIDATE&#45;&gt;DEPARTMENT -->
<g id="edge6" class="edge">
<title>CANDIDATE:w&#45;&gt;DEPARTMENT:e</title>
<path fill="none" stroke="#000000" d="M447.644,-670.9962C414.3317,-690.0156 454.5573,-783.6497 402.5,-783.6497"/>
<polygon fill="#000000" stroke="#000000" points="454.2089,-669.4659 462.8173,-671.1557 458.1044,-668.5578 462,-667.6497 462,-667.6497 462,-667.6497 458.1044,-668.5578 461.1827,-664.1437 454.2089,-669.4659 454.2089,-669.4659"/>
<ellipse fill="none" stroke="#000000" cx="451.0924" cy="-670.1924" rx="3.2" ry="3.2"/>
</g>
<!-- EXCEPTIONS -->
<g id="node6" class="node">
<title>EXCEPTIONS</title>
<g id="a_node6"><a xlink:href="../../tables/EXCEPTIONS.html" xlink:title="EXCEPTIONS" target="_top">
<polygon fill="#ffffff" stroke="transparent" points="498,-361.1497 498,-554.1497 632,-554.1497 632,-361.1497 498,-361.1497"/>
<polygon fill="#f5f5f5" stroke="transparent" points="498,-530.6497 498,-553.6497 632,-553.6497 632,-530.6497 498,-530.6497"/>
<polygon fill="none" stroke="#000000" points="498,-530.6497 498,-553.6497 632,-553.6497 632,-530.6497 498,-530.6497"/>
<text text-anchor="start" x="503" y="-539.2497" font-family="Helvetica,sans-Serif" font-weight="bold" font-size="11.00" fill="#000000">EXCEPTIONS</text>
<text text-anchor="start" x="597.0437" y="-538.7497" font-family="Helvetica,sans-Serif" font-size="11.00" fill="#000000">[table]</text>
<polygon fill="none" stroke="#000000" points="498,-508.6497 498,-530.6497 632,-530.6497 632,-508.6497 498,-508.6497"/>
<image xlink:href="../../images/primaryKeys.png" width="11px" height="12px" preserveAspectRatio="xMinYMin meet" x="503" y="-525.65"/>
<text text-anchor="start" x="518" y="-515.7497" font-family="Helvetica,sans-Serif" font-size="11.00" fill="#000000">ID</text>
<polygon fill="#ffffff" stroke="transparent" points="498,-486.6497 498,-508.6497 632,-508.6497 632,-486.6497 498,-486.6497"/>
<polygon fill="none" stroke="#000000" points="498,-486.6497 498,-508.6497 632,-508.6497 632,-486.6497 498,-486.6497"/>
<image xlink:href="../../images/foreignKeys.png" width="11px" height="12px" preserveAspectRatio="xMinYMin meet" x="503" y="-503.65"/>
<text text-anchor="start" x="518" y="-493.7497" font-family="Helvetica,sans-Serif" font-size="11.00" fill="#000000">DEPARTMENT_ID</text>
<polygon fill="#ffffff" stroke="transparent" points="498,-464.6497 498,-486.6497 632,-486.6497 632,-464.6497 498,-464.6497"/>
<polygon fill="none" stroke="#000000" points="498,-464.6497 498,-486.6497 632,-486.6497 632,-464.6497 498,-464.6497"/>
<image xlink:href="../../images/foreignKeys.png" width="11px" height="12px" preserveAspectRatio="xMinYMin meet" x="503" y="-481.65"/>
<text text-anchor="start" x="518" y="-471.7497" font-family="Helvetica,sans-Serif" font-size="11.00" fill="#000000">DESIGNATION_ID</text>
<polygon fill="#ffffff" stroke="transparent" points="498,-442.6497 498,-464.6497 632,-464.6497 632,-442.6497 498,-442.6497"/>
<polygon fill="none" stroke="#000000" points="498,-442.6497 498,-464.6497 632,-464.6497 632,-442.6497 498,-442.6497"/>
<image xlink:href="../../images/foreignKeys.png" width="11px" height="12px" preserveAspectRatio="xMinYMin meet" x="503" y="-459.65"/>
<text text-anchor="start" x="518" y="-449.7497" font-family="Helvetica,sans-Serif" font-size="11.00" fill="#000000">LOCATION_ID</text>
<polygon fill="#ffffff" stroke="transparent" points="498,-420.6497 498,-442.6497 632,-442.6497 632,-420.6497 498,-420.6497"/>
<polygon fill="none" stroke="#000000" points="498,-420.6497 498,-442.6497 632,-442.6497 632,-420.6497 498,-420.6497"/>
<image xlink:href="../../images/foreignKeys.png" width="11px" height="12px" preserveAspectRatio="xMinYMin meet" x="503" y="-437.65"/>
<text text-anchor="start" x="518" y="-427.7497" font-family="Helvetica,sans-Serif" font-size="11.00" fill="#000000">CREATOR</text>
<polygon fill="#ffffff" stroke="transparent" points="498,-398.6497 498,-420.6497 632,-420.6497 632,-398.6497 498,-398.6497"/>
<polygon fill="none" stroke="#000000" points="498,-398.6497 498,-420.6497 632,-420.6497 632,-398.6497 498,-398.6497"/>
<image xlink:href="../../images/foreignKeys.png" width="11px" height="12px" preserveAspectRatio="xMinYMin meet" x="503" y="-415.65"/>
<text text-anchor="start" x="518" y="-405.7497" font-family="Helvetica,sans-Serif" font-size="11.00" fill="#000000">LAST_MODIFIER</text>
<polygon fill="none" stroke="#000000" points="498,-379.6497 498,-398.6497 632,-398.6497 632,-379.6497 498,-379.6497"/>
<text text-anchor="start" x="501" y="-385.7497" font-family="Helvetica,sans-Serif" font-size="11.00" fill="#000000">...</text>
<polygon fill="#ffffff" stroke="transparent" points="498,-360.6497 498,-379.6497 550,-379.6497 550,-360.6497 498,-360.6497"/>
<polygon fill="none" stroke="#000000" points="498,-360.6497 498,-379.6497 550,-379.6497 550,-360.6497 498,-360.6497"/>
<text text-anchor="start" x="501" y="-366.7497" font-family="Helvetica,sans-Serif" font-size="11.00" fill="#000000">&lt; 5</text>
<polygon fill="#ffffff" stroke="transparent" points="550,-360.6497 550,-379.6497 604,-379.6497 604,-360.6497 550,-360.6497"/>
<polygon fill="none" stroke="#000000" points="550,-360.6497 550,-379.6497 604,-379.6497 604,-360.6497 550,-360.6497"/>
<text text-anchor="start" x="568.6105" y="-366.7497" font-family="Helvetica,sans-Serif" font-size="11.00" fill="#000000">0 rows</text>
<polygon fill="#ffffff" stroke="transparent" points="604,-360.6497 604,-379.6497 632,-379.6497 632,-360.6497 604,-360.6497"/>
<polygon fill="none" stroke="#000000" points="604,-360.6497 604,-379.6497 632,-379.6497 632,-360.6497 604,-360.6497"/>
<text text-anchor="start" x="622.8862" y="-366.7497" font-family="Helvetica,sans-Serif" font-size="11.00" fill="#000000"> &#160;</text>
</a>
</g>
</g>
<!-- EXCEPTIONS&#45;&gt;User -->
<g id="edge13" class="edge">
<title>EXCEPTIONS:w&#45;&gt;User:e</title>
<path fill="none" stroke="#000000" d="M483.2389,-431.6825C323.7349,-432.4002 278.6239,-444.6497 112,-444.6497"/>
<polygon fill="#000000" stroke="#000000" points="490,-431.6675 498.008,-435.2496 494,-431.6586 498,-431.6497 498,-431.6497 498,-431.6497 494,-431.6586 497.992,-428.0497 490,-431.6675 490,-431.6675"/>
<ellipse fill="none" stroke="#000000" cx="486.8" cy="-431.6746" rx="3.2" ry="3.2"/>
</g>
<!-- EXCEPTIONS&#45;&gt;User -->
<g id="edge15" class="edge">
<title>EXCEPTIONS:w&#45;&gt;User:e</title>
<path fill="none" stroke="#000000" d="M483.4928,-409.624C341.647,-409.1254 298.8512,-401.8544 153,-430.6497 134.1094,-434.3792 131.2553,-444.6497 112,-444.6497"/>
<polygon fill="#000000" stroke="#000000" points="490,-409.6354 497.9936,-413.2496 494,-409.6425 498,-409.6497 498,-409.6497 498,-409.6497 494,-409.6425 498.0064,-406.0497 490,-409.6354 490,-409.6354"/>
<ellipse fill="none" stroke="#000000" cx="486.8" cy="-409.6297" rx="3.2" ry="3.2"/>
</g>
<!-- EXCEPTIONS&#45;&gt;DEPARTMENT -->
<g id="edge14" class="edge">
<title>EXCEPTIONS:w&#45;&gt;DEPARTMENT:e</title>
<path fill="none" stroke="#000000" d="M483.4744,-499.6979C459.906,-507.3411 458.4922,-535.2671 445,-564.6497 424.3127,-609.7016 452.0746,-783.6497 402.5,-783.6497"/>
<polygon fill="#000000" stroke="#000000" points="490.0784,-498.7667 498.5027,-501.2144 494.0392,-498.2082 498,-497.6497 498,-497.6497 498,-497.6497 494.0392,-498.2082 497.4973,-494.0849 490.0784,-498.7667 490.0784,-498.7667"/>
<ellipse fill="none" stroke="#000000" cx="486.9097" cy="-499.2136" rx="3.2" ry="3.2"/>
</g>
<!-- INTERVIEW -->
<g id="node7" class="node">
<title>INTERVIEW</title>
<g id="a_node7"><a xlink:href="../../tables/INTERVIEW.html" xlink:title="INTERVIEW" target="_top">
<polygon fill="#ffffff" stroke="transparent" points="726,-266.1497 726,-481.1497 965,-481.1497 965,-266.1497 726,-266.1497"/>
<polygon fill="#f5f5f5" stroke="transparent" points="726.5,-457.6497 726.5,-480.6497 965.5,-480.6497 965.5,-457.6497 726.5,-457.6497"/>
<polygon fill="none" stroke="#000000" points="726.5,-457.6497 726.5,-480.6497 965.5,-480.6497 965.5,-457.6497 726.5,-457.6497"/>
<text text-anchor="start" x="731.5" y="-466.2497" font-family="Helvetica,sans-Serif" font-weight="bold" font-size="11.00" fill="#000000">INTERVIEW</text>
<text text-anchor="start" x="930.5437" y="-465.7497" font-family="Helvetica,sans-Serif" font-size="11.00" fill="#000000">[table]</text>
<polygon fill="none" stroke="#000000" points="726.5,-435.6497 726.5,-457.6497 965.5,-457.6497 965.5,-435.6497 726.5,-435.6497"/>
<image xlink:href="../../images/primaryKeys.png" width="11px" height="12px" preserveAspectRatio="xMinYMin meet" x="731.5" y="-452.65"/>
<text text-anchor="start" x="746.5" y="-442.7497" font-family="Helvetica,sans-Serif" font-size="11.00" fill="#000000">ID</text>
<polygon fill="#ffffff" stroke="transparent" points="726.5,-413.6497 726.5,-435.6497 965.5,-435.6497 965.5,-413.6497 726.5,-413.6497"/>
<polygon fill="none" stroke="#000000" points="726.5,-413.6497 726.5,-435.6497 965.5,-435.6497 965.5,-413.6497 726.5,-413.6497"/>
<image xlink:href="../../images/foreignKeys.png" width="11px" height="12px" preserveAspectRatio="xMinYMin meet" x="731.5" y="-430.65"/>
<text text-anchor="start" x="746.5" y="-420.7497" font-family="Helvetica,sans-Serif" font-size="11.00" fill="#000000">CANDIDATE_ID</text>
<polygon fill="#ffffff" stroke="transparent" points="726.5,-391.6497 726.5,-413.6497 965.5,-413.6497 965.5,-391.6497 726.5,-391.6497"/>
<polygon fill="none" stroke="#000000" points="726.5,-391.6497 726.5,-413.6497 965.5,-413.6497 965.5,-391.6497 726.5,-391.6497"/>
<image xlink:href="../../images/foreignKeys.png" width="11px" height="12px" preserveAspectRatio="xMinYMin meet" x="731.5" y="-408.65"/>
<text text-anchor="start" x="746.5" y="-398.7497" font-family="Helvetica,sans-Serif" font-size="11.00" fill="#000000">JOB_OPENING_ID</text>
<polygon fill="#ffffff" stroke="transparent" points="726.5,-369.6497 726.5,-391.6497 965.5,-391.6497 965.5,-369.6497 726.5,-369.6497"/>
<polygon fill="none" stroke="#000000" points="726.5,-369.6497 726.5,-391.6497 965.5,-391.6497 965.5,-369.6497 726.5,-369.6497"/>
<image xlink:href="../../images/foreignKeys.png" width="11px" height="12px" preserveAspectRatio="xMinYMin meet" x="731.5" y="-386.65"/>
<text text-anchor="start" x="746.5" y="-376.7497" font-family="Helvetica,sans-Serif" font-size="11.00" fill="#000000">DEPARTMENT_ID</text>
<polygon fill="#ffffff" stroke="transparent" points="726.5,-347.6497 726.5,-369.6497 965.5,-369.6497 965.5,-347.6497 726.5,-347.6497"/>
<polygon fill="none" stroke="#000000" points="726.5,-347.6497 726.5,-369.6497 965.5,-369.6497 965.5,-347.6497 726.5,-347.6497"/>
<image xlink:href="../../images/foreignKeys.png" width="11px" height="12px" preserveAspectRatio="xMinYMin meet" x="731.5" y="-364.65"/>
<text text-anchor="start" x="746.5" y="-354.7497" font-family="Helvetica,sans-Serif" font-size="11.00" fill="#000000">INTERVIEWER</text>
<polygon fill="#ffffff" stroke="transparent" points="726.5,-325.6497 726.5,-347.6497 965.5,-347.6497 965.5,-325.6497 726.5,-325.6497"/>
<polygon fill="none" stroke="#000000" points="726.5,-325.6497 726.5,-347.6497 965.5,-347.6497 965.5,-325.6497 726.5,-325.6497"/>
<image xlink:href="../../images/foreignKeys.png" width="11px" height="12px" preserveAspectRatio="xMinYMin meet" x="731.5" y="-342.65"/>
<text text-anchor="start" x="746.5" y="-332.7497" font-family="Helvetica,sans-Serif" font-size="11.00" fill="#000000">CREATOR</text>
<polygon fill="#ffffff" stroke="transparent" points="726.5,-303.6497 726.5,-325.6497 965.5,-325.6497 965.5,-303.6497 726.5,-303.6497"/>
<polygon fill="none" stroke="#000000" points="726.5,-303.6497 726.5,-325.6497 965.5,-325.6497 965.5,-303.6497 726.5,-303.6497"/>
<image xlink:href="../../images/foreignKeys.png" width="11px" height="12px" preserveAspectRatio="xMinYMin meet" x="731.5" y="-320.65"/>
<text text-anchor="start" x="746.5" y="-310.7497" font-family="Helvetica,sans-Serif" font-size="11.00" fill="#000000">LAST_MODIFIER</text>
<polygon fill="none" stroke="#000000" points="726.5,-284.6497 726.5,-303.6497 965.5,-303.6497 965.5,-284.6497 726.5,-284.6497"/>
<text text-anchor="start" x="729.5" y="-290.7497" font-family="Helvetica,sans-Serif" font-size="11.00" fill="#000000">...</text>
<polygon fill="#ffffff" stroke="transparent" points="726.5,-265.6497 726.5,-284.6497 831.5,-284.6497 831.5,-265.6497 726.5,-265.6497"/>
<polygon fill="none" stroke="#000000" points="726.5,-265.6497 726.5,-284.6497 831.5,-284.6497 831.5,-265.6497 726.5,-265.6497"/>
<text text-anchor="start" x="729.5" y="-271.7497" font-family="Helvetica,sans-Serif" font-size="11.00" fill="#000000">&lt; 6</text>
<polygon fill="#ffffff" stroke="transparent" points="831.5,-265.6497 831.5,-284.6497 911.5,-284.6497 911.5,-265.6497 831.5,-265.6497"/>
<polygon fill="none" stroke="#000000" points="831.5,-265.6497 831.5,-284.6497 911.5,-284.6497 911.5,-265.6497 831.5,-265.6497"/>
<text text-anchor="start" x="876.1105" y="-271.7497" font-family="Helvetica,sans-Serif" font-size="11.00" fill="#000000">0 rows</text>
<polygon fill="#ffffff" stroke="transparent" points="911.5,-265.6497 911.5,-284.6497 965.5,-284.6497 965.5,-265.6497 911.5,-265.6497"/>
<polygon fill="none" stroke="#000000" points="911.5,-265.6497 911.5,-284.6497 965.5,-284.6497 965.5,-265.6497 911.5,-265.6497"/>
<text text-anchor="start" x="956.3862" y="-271.7497" font-family="Helvetica,sans-Serif" font-size="11.00" fill="#000000"> &#160;</text>
</a>
</g>
</g>
<!-- INTERVIEW&#45;&gt;User -->
<g id="edge16" class="edge">
<title>INTERVIEW:w&#45;&gt;User:e</title>
<path fill="none" stroke="#000000" d="M712.0146,-336.5989C466.3603,-334.8806 377.1546,-290.8577 153,-405.6497 130.6151,-417.1132 137.1494,-444.6497 112,-444.6497"/>
<polygon fill="#000000" stroke="#000000" points="718.5,-336.6216 726.4874,-340.2496 722.5,-336.6356 726.5,-336.6497 726.5,-336.6497 726.5,-336.6497 722.5,-336.6356 726.5126,-333.0497 718.5,-336.6216 718.5,-336.6216"/>
<ellipse fill="none" stroke="#000000" cx="715.3001" cy="-336.6103" rx="3.2" ry="3.2"/>
</g>
<!-- INTERVIEW&#45;&gt;User -->
<g id="edge20" class="edge">
<title>INTERVIEW:w&#45;&gt;User:e</title>
<path fill="none" stroke="#000000" d="M712.0189,-314.411C612.1616,-311.8529 201.6142,-290.2723 153,-325.6497 107.7689,-358.5651 167.94,-444.6497 112,-444.6497"/>
<polygon fill="#000000" stroke="#000000" points="718.5011,-314.5178 726.4407,-318.2492 722.5005,-314.5837 726.5,-314.6497 726.5,-314.6497 726.5,-314.6497 722.5005,-314.5837 726.5593,-311.0501 718.5011,-314.5178 718.5011,-314.5178"/>
<ellipse fill="none" stroke="#000000" cx="715.3015" cy="-314.465" rx="3.2" ry="3.2"/>
</g>
<!-- INTERVIEW&#45;&gt;DEPARTMENT -->
<g id="edge17" class="edge">
<title>INTERVIEW:w&#45;&gt;DEPARTMENT:e</title>
<path fill="none" stroke="#000000" d="M712.4181,-384.2493C650.2691,-420.773 747.0538,-724.1006 685,-780.6497 638.5964,-822.9368 465.2813,-783.6497 402.5,-783.6497"/>
<polygon fill="#000000" stroke="#000000" points="718.7492,-382.631 727.3916,-384.1375 722.6246,-381.6403 726.5,-380.6497 726.5,-380.6497 726.5,-380.6497 722.6246,-381.6403 725.6084,-377.1618 718.7492,-382.631 718.7492,-382.631"/>
<ellipse fill="none" stroke="#000000" cx="715.6489" cy="-383.4235" rx="3.2" ry="3.2"/>
</g>
<!-- INTERVIEW&#45;&gt;EMPLOYEE -->
<g id="edge18" class="edge">
<title>INTERVIEW:w&#45;&gt;EMPLOYEE:e</title>
<path fill="none" stroke="#000000" d="M714.1393,-366.8554C665.4017,-441.983 739.5594,-1007.6497 672,-1007.6497"/>
<polygon fill="#000000" stroke="#000000" points="719.835,-363.0743 728.4911,-361.6489 723.1675,-360.862 726.5,-358.6497 726.5,-358.6497 726.5,-358.6497 723.1675,-360.862 724.5089,-355.6504 719.835,-363.0743 719.835,-363.0743"/>
<ellipse fill="none" stroke="#000000" cx="717.169" cy="-364.8442" rx="3.2" ry="3.2"/>
</g>
<!-- JOB_OPENING -->
<g id="node8" class="node">
<title>JOB_OPENING</title>
<g id="a_node8"><a xlink:href="../../tables/JOB_OPENING.html" xlink:title="JOB_OPENING" target="_top">
<polygon fill="#ffffff" stroke="transparent" points="453,-136.1497 453,-285.1497 677,-285.1497 677,-136.1497 453,-136.1497"/>
<polygon fill="#f5f5f5" stroke="transparent" points="453,-261.6497 453,-284.6497 677,-284.6497 677,-261.6497 453,-261.6497"/>
<polygon fill="none" stroke="#000000" points="453,-261.6497 453,-284.6497 677,-284.6497 677,-261.6497 453,-261.6497"/>
<text text-anchor="start" x="458" y="-270.2497" font-family="Helvetica,sans-Serif" font-weight="bold" font-size="11.00" fill="#000000">JOB_OPENING</text>
<text text-anchor="start" x="642.0437" y="-269.7497" font-family="Helvetica,sans-Serif" font-size="11.00" fill="#000000">[table]</text>
<polygon fill="none" stroke="#000000" points="453,-239.6497 453,-261.6497 677,-261.6497 677,-239.6497 453,-239.6497"/>
<image xlink:href="../../images/primaryKeys.png" width="11px" height="12px" preserveAspectRatio="xMinYMin meet" x="458" y="-256.65"/>
<text text-anchor="start" x="473" y="-246.7497" font-family="Helvetica,sans-Serif" font-size="11.00" fill="#000000">ID</text>
<polygon fill="#ffffff" stroke="transparent" points="453,-217.6497 453,-239.6497 677,-239.6497 677,-217.6497 453,-217.6497"/>
<polygon fill="none" stroke="#000000" points="453,-217.6497 453,-239.6497 677,-239.6497 677,-217.6497 453,-217.6497"/>
<image xlink:href="../../images/foreignKeys.png" width="11px" height="12px" preserveAspectRatio="xMinYMin meet" x="458" y="-234.65"/>
<text text-anchor="start" x="473" y="-224.7497" font-family="Helvetica,sans-Serif" font-size="11.00" fill="#000000">DEPARTMENT_ID</text>
<polygon fill="#ffffff" stroke="transparent" points="453,-195.6497 453,-217.6497 677,-217.6497 677,-195.6497 453,-195.6497"/>
<polygon fill="none" stroke="#000000" points="453,-195.6497 453,-217.6497 677,-217.6497 677,-195.6497 453,-195.6497"/>
<image xlink:href="../../images/foreignKeys.png" width="11px" height="12px" preserveAspectRatio="xMinYMin meet" x="458" y="-212.65"/>
<text text-anchor="start" x="473" y="-202.7497" font-family="Helvetica,sans-Serif" font-size="11.00" fill="#000000">CREATOR</text>
<polygon fill="#ffffff" stroke="transparent" points="453,-173.6497 453,-195.6497 677,-195.6497 677,-173.6497 453,-173.6497"/>
<polygon fill="none" stroke="#000000" points="453,-173.6497 453,-195.6497 677,-195.6497 677,-173.6497 453,-173.6497"/>
<image xlink:href="../../images/foreignKeys.png" width="11px" height="12px" preserveAspectRatio="xMinYMin meet" x="458" y="-190.65"/>
<text text-anchor="start" x="473" y="-180.7497" font-family="Helvetica,sans-Serif" font-size="11.00" fill="#000000">LAST_MODIFIER</text>
<polygon fill="none" stroke="#000000" points="453,-154.6497 453,-173.6497 677,-173.6497 677,-154.6497 453,-154.6497"/>
<text text-anchor="start" x="456" y="-160.7497" font-family="Helvetica,sans-Serif" font-size="11.00" fill="#000000">...</text>
<polygon fill="#ffffff" stroke="transparent" points="453,-135.6497 453,-154.6497 546,-154.6497 546,-135.6497 453,-135.6497"/>
<polygon fill="none" stroke="#000000" points="453,-135.6497 453,-154.6497 546,-154.6497 546,-135.6497 453,-135.6497"/>
<text text-anchor="start" x="456" y="-141.7497" font-family="Helvetica,sans-Serif" font-size="11.00" fill="#000000">&lt; 3</text>
<polygon fill="#ffffff" stroke="transparent" points="546,-135.6497 546,-154.6497 620,-154.6497 620,-135.6497 546,-135.6497"/>
<polygon fill="none" stroke="#000000" points="546,-135.6497 546,-154.6497 620,-154.6497 620,-135.6497 546,-135.6497"/>
<text text-anchor="start" x="584.6105" y="-141.7497" font-family="Helvetica,sans-Serif" font-size="11.00" fill="#000000">0 rows</text>
<polygon fill="#ffffff" stroke="transparent" points="620,-135.6497 620,-154.6497 677,-154.6497 677,-135.6497 620,-135.6497"/>
<polygon fill="none" stroke="#000000" points="620,-135.6497 620,-154.6497 677,-154.6497 677,-135.6497 620,-135.6497"/>
<text text-anchor="start" x="658.4053" y="-141.7497" font-family="Helvetica,sans-Serif" font-size="11.00" fill="#000000">3 &gt;</text>
</a>
</g>
</g>
<!-- INTERVIEW&#45;&gt;JOB_OPENING -->
<g id="edge19" class="edge">
<title>INTERVIEW:w&#45;&gt;JOB_OPENING:e</title>
<path fill="none" stroke="#000000" d="M712.1385,-399.749C669.5427,-378.735 742.2194,-250.6497 677,-250.6497"/>
<polygon fill="#000000" stroke="#000000" points="718.6583,-401.0658 725.7873,-406.1784 722.5792,-401.8577 726.5,-402.6497 726.5,-402.6497 726.5,-402.6497 722.5792,-401.8577 727.2127,-399.1209 718.6583,-401.0658 718.6583,-401.0658"/>
<ellipse fill="none" stroke="#000000" cx="715.5217" cy="-400.4322" rx="3.2" ry="3.2"/>
</g>
<!-- JOB_OPENING&#45;&gt;User -->
<g id="edge21" class="edge">
<title>JOB_OPENING:w&#45;&gt;User:e</title>
<path fill="none" stroke="#000000" d="M438.5124,-208.2832C375.7274,-218.7744 175.1292,-276.9593 153,-299.6497 106.2408,-347.5946 178.9712,-444.6497 112,-444.6497"/>
<polygon fill="#000000" stroke="#000000" points="445.0504,-207.5461 453.4034,-210.227 449.0252,-207.0979 453,-206.6497 453,-206.6497 453,-206.6497 449.0252,-207.0979 452.5966,-203.0723 445.0504,-207.5461 445.0504,-207.5461"/>
<ellipse fill="none" stroke="#000000" cx="441.8705" cy="-207.9046" rx="3.2" ry="3.2"/>
</g>
<!-- JOB_OPENING&#45;&gt;User -->
<g id="edge23" class="edge">
<title>JOB_OPENING:w&#45;&gt;User:e</title>
<path fill="none" stroke="#000000" d="M438.356,-184.4049C313.9823,-180.2665 247.7487,-126.131 153,-213.6497 76.4046,-284.4002 216.2713,-444.6497 112,-444.6497"/>
<polygon fill="#000000" stroke="#000000" points="445.0011,-184.5159 452.9398,-188.2492 449.0006,-184.5828 453,-184.6497 453,-184.6497 453,-184.6497 449.0006,-184.5828 453.0602,-181.0502 445.0011,-184.5159 445.0011,-184.5159"/>
<ellipse fill="none" stroke="#000000" cx="441.8016" cy="-184.4624" rx="3.2" ry="3.2"/>
</g>
<!-- JOB_OPENING&#45;&gt;DEPARTMENT -->
<g id="edge22" class="edge">
<title>JOB_OPENING:w&#45;&gt;DEPARTMENT:e</title>
<path fill="none" stroke="#000000" d="M441.3375,-237.3674C401.2203,-307.9753 459.8257,-783.6497 402.5,-783.6497"/>
<polygon fill="#000000" stroke="#000000" points="446.5923,-233.4394 455.1554,-231.5331 449.7962,-231.0445 453,-228.6497 453,-228.6497 453,-228.6497 449.7962,-231.0445 450.8446,-225.7662 446.5923,-233.4394 446.5923,-233.4394"/>
<ellipse fill="none" stroke="#000000" cx="444.0292" cy="-235.3553" rx="3.2" ry="3.2"/>
</g>
<!-- OFFERS -->
<g id="node9" class="node">
<title>OFFERS</title>
<g id="a_node9"><a xlink:href="../../tables/OFFERS.html" xlink:title="OFFERS" target="_top">
<polygon fill="#ffffff" stroke="transparent" points="748,-46.1497 748,-239.1497 943,-239.1497 943,-46.1497 748,-46.1497"/>
<polygon fill="#f5f5f5" stroke="transparent" points="748.5,-215.6497 748.5,-238.6497 943.5,-238.6497 943.5,-215.6497 748.5,-215.6497"/>
<polygon fill="none" stroke="#000000" points="748.5,-215.6497 748.5,-238.6497 943.5,-238.6497 943.5,-215.6497 748.5,-215.6497"/>
<text text-anchor="start" x="753.5" y="-224.2497" font-family="Helvetica,sans-Serif" font-weight="bold" font-size="11.00" fill="#000000">OFFERS</text>
<text text-anchor="start" x="908.5437" y="-223.7497" font-family="Helvetica,sans-Serif" font-size="11.00" fill="#000000">[table]</text>
<polygon fill="none" stroke="#000000" points="748.5,-193.6497 748.5,-215.6497 943.5,-215.6497 943.5,-193.6497 748.5,-193.6497"/>
<image xlink:href="../../images/primaryKeys.png" width="11px" height="12px" preserveAspectRatio="xMinYMin meet" x="753.5" y="-210.65"/>
<text text-anchor="start" x="768.5" y="-200.7497" font-family="Helvetica,sans-Serif" font-size="11.00" fill="#000000">ID</text>
<polygon fill="#ffffff" stroke="transparent" points="748.5,-171.6497 748.5,-193.6497 943.5,-193.6497 943.5,-171.6497 748.5,-171.6497"/>
<polygon fill="none" stroke="#000000" points="748.5,-171.6497 748.5,-193.6497 943.5,-193.6497 943.5,-171.6497 748.5,-171.6497"/>
<image xlink:href="../../images/foreignKeys.png" width="11px" height="12px" preserveAspectRatio="xMinYMin meet" x="753.5" y="-188.65"/>
<text text-anchor="start" x="768.5" y="-178.7497" font-family="Helvetica,sans-Serif" font-size="11.00" fill="#000000">POSTING_TITLE</text>
<polygon fill="#ffffff" stroke="transparent" points="748.5,-149.6497 748.5,-171.6497 943.5,-171.6497 943.5,-149.6497 748.5,-149.6497"/>
<polygon fill="none" stroke="#000000" points="748.5,-149.6497 748.5,-171.6497 943.5,-171.6497 943.5,-149.6497 748.5,-149.6497"/>
<image xlink:href="../../images/foreignKeys.png" width="11px" height="12px" preserveAspectRatio="xMinYMin meet" x="753.5" y="-166.65"/>
<text text-anchor="start" x="768.5" y="-156.7497" font-family="Helvetica,sans-Serif" font-size="11.00" fill="#000000">DEPARTMENT_ID</text>
<polygon fill="#ffffff" stroke="transparent" points="748.5,-127.6497 748.5,-149.6497 943.5,-149.6497 943.5,-127.6497 748.5,-127.6497"/>
<polygon fill="none" stroke="#000000" points="748.5,-127.6497 748.5,-149.6497 943.5,-149.6497 943.5,-127.6497 748.5,-127.6497"/>
<image xlink:href="../../images/foreignKeys.png" width="11px" height="12px" preserveAspectRatio="xMinYMin meet" x="753.5" y="-144.65"/>
<text text-anchor="start" x="768.5" y="-134.7497" font-family="Helvetica,sans-Serif" font-size="11.00" fill="#000000">CANDIDATE_ID</text>
<polygon fill="#ffffff" stroke="transparent" points="748.5,-105.6497 748.5,-127.6497 943.5,-127.6497 943.5,-105.6497 748.5,-105.6497"/>
<polygon fill="none" stroke="#000000" points="748.5,-105.6497 748.5,-127.6497 943.5,-127.6497 943.5,-105.6497 748.5,-105.6497"/>
<image xlink:href="../../images/foreignKeys.png" width="11px" height="12px" preserveAspectRatio="xMinYMin meet" x="753.5" y="-122.65"/>
<text text-anchor="start" x="768.5" y="-112.7497" font-family="Helvetica,sans-Serif" font-size="11.00" fill="#000000">CREATOR</text>
<polygon fill="#ffffff" stroke="transparent" points="748.5,-83.6497 748.5,-105.6497 943.5,-105.6497 943.5,-83.6497 748.5,-83.6497"/>
<polygon fill="none" stroke="#000000" points="748.5,-83.6497 748.5,-105.6497 943.5,-105.6497 943.5,-83.6497 748.5,-83.6497"/>
<image xlink:href="../../images/foreignKeys.png" width="11px" height="12px" preserveAspectRatio="xMinYMin meet" x="753.5" y="-100.65"/>
<text text-anchor="start" x="768.5" y="-90.7497" font-family="Helvetica,sans-Serif" font-size="11.00" fill="#000000">LAST_MODIFIER</text>
<polygon fill="none" stroke="#000000" points="748.5,-64.6497 748.5,-83.6497 943.5,-83.6497 943.5,-64.6497 748.5,-64.6497"/>
<text text-anchor="start" x="751.5" y="-70.7497" font-family="Helvetica,sans-Serif" font-size="11.00" fill="#000000">...</text>
<polygon fill="#ffffff" stroke="transparent" points="748.5,-45.6497 748.5,-64.6497 831.5,-64.6497 831.5,-45.6497 748.5,-45.6497"/>
<polygon fill="none" stroke="#000000" points="748.5,-45.6497 748.5,-64.6497 831.5,-64.6497 831.5,-45.6497 748.5,-45.6497"/>
<text text-anchor="start" x="751.5" y="-51.7497" font-family="Helvetica,sans-Serif" font-size="11.00" fill="#000000">&lt; 5</text>
<polygon fill="#ffffff" stroke="transparent" points="831.5,-45.6497 831.5,-64.6497 900.5,-64.6497 900.5,-45.6497 831.5,-45.6497"/>
<polygon fill="none" stroke="#000000" points="831.5,-45.6497 831.5,-64.6497 900.5,-64.6497 900.5,-45.6497 831.5,-45.6497"/>
<text text-anchor="start" x="865.1105" y="-51.7497" font-family="Helvetica,sans-Serif" font-size="11.00" fill="#000000">0 rows</text>
<polygon fill="#ffffff" stroke="transparent" points="900.5,-45.6497 900.5,-64.6497 943.5,-64.6497 943.5,-45.6497 900.5,-45.6497"/>
<polygon fill="none" stroke="#000000" points="900.5,-45.6497 900.5,-64.6497 943.5,-64.6497 943.5,-45.6497 900.5,-45.6497"/>
<text text-anchor="start" x="934.3862" y="-51.7497" font-family="Helvetica,sans-Serif" font-size="11.00" fill="#000000"> &#160;</text>
</a>
</g>
</g>
<!-- OFFERS&#45;&gt;User -->
<g id="edge24" class="edge">
<title>OFFERS:w&#45;&gt;User:e</title>
<path fill="none" stroke="#000000" d="M734.0878,-116.4895C590.955,-113.5437 244.589,-71.9826 153,-161.6497 107.5927,-206.1041 175.5455,-444.6497 112,-444.6497"/>
<polygon fill="#000000" stroke="#000000" points="740.5005,-116.5607 748.46,-120.2494 744.5002,-116.6052 748.5,-116.6497 748.5,-116.6497 748.5,-116.6497 744.5002,-116.6052 748.54,-113.0499 740.5005,-116.5607 740.5005,-116.5607"/>
<ellipse fill="none" stroke="#000000" cx="737.3007" cy="-116.5251" rx="3.2" ry="3.2"/>
</g>
<!-- OFFERS&#45;&gt;User -->
<g id="edge26" class="edge">
<title>OFFERS:w&#45;&gt;User:e</title>
<path fill="none" stroke="#000000" d="M733.9004,-94.4775C478.8246,-88.4655 346.2663,71.932 153,-101.6497 95.8886,-152.9441 188.7648,-444.6497 112,-444.6497"/>
<polygon fill="#000000" stroke="#000000" points="740.5006,-94.5553 748.4575,-98.2494 744.5003,-94.6025 748.5,-94.6497 748.5,-94.6497 748.5,-94.6497 744.5003,-94.6025 748.5425,-91.0499 740.5006,-94.5553 740.5006,-94.5553"/>
<ellipse fill="none" stroke="#000000" cx="737.3008" cy="-94.5175" rx="3.2" ry="3.2"/>
</g>
<!-- OFFERS&#45;&gt;DEPARTMENT -->
<g id="edge25" class="edge">
<title>OFFERS:w&#45;&gt;DEPARTMENT:e</title>
<path fill="none" stroke="#000000" d="M734.212,-162.8865C627.6099,-199.1286 774.1581,-664.8206 685,-756.6497 674.0175,-767.9612 418.266,-783.6497 402.5,-783.6497"/>
<polygon fill="#000000" stroke="#000000" points="740.5963,-161.8871 749.0568,-164.2063 744.5481,-161.2684 748.5,-160.6497 748.5,-160.6497 748.5,-160.6497 744.5481,-161.2684 747.9432,-157.093 740.5963,-161.8871 740.5963,-161.8871"/>
<ellipse fill="none" stroke="#000000" cx="737.4348" cy="-162.382" rx="3.2" ry="3.2"/>
</g>
<!-- OFFERS&#45;&gt;JOB_OPENING -->
<g id="edge27" class="edge">
<title>OFFERS:w&#45;&gt;JOB_OPENING:e</title>
<path fill="none" stroke="#000000" d="M734.2775,-185.7482C707.8264,-199.051 715.2013,-250.6497 677,-250.6497"/>
<polygon fill="#000000" stroke="#000000" points="740.6834,-184.3526 749.2663,-186.1671 744.5917,-183.5011 748.5,-182.6497 748.5,-182.6497 748.5,-182.6497 744.5917,-183.5011 747.7337,-179.1322 740.6834,-184.3526 740.6834,-184.3526"/>
<ellipse fill="none" stroke="#000000" cx="737.5567" cy="-185.0338" rx="3.2" ry="3.2"/>
</g>
</g>
</svg>
