<?xml version="1.0" encoding="UTF-8" standalone="no"?>
<!DOCTYPE svg PUBLIC "-//W3C//DTD SVG 1.1//EN"
 "http://www.w3.org/Graphics/SVG/1.1/DTD/svg11.dtd">
<!-- Generated by graphviz version 2.40.1 (20161225.0304)
 -->
<!-- Title: oneDegreeRelationshipsDiagram Pages: 1 -->
<svg width="906pt" height="648pt"
 viewBox="0.00 0.00 906.00 647.50" xmlns="http://www.w3.org/2000/svg" xmlns:xlink="http://www.w3.org/1999/xlink">
<g id="graph0" class="graph" transform="scale(1 1) rotate(0) translate(4 643.5)">
<title>oneDegreeRelationshipsDiagram</title>
<polygon fill="#ffffff" stroke="transparent" points="-4,4 -4,-643.5 902,-643.5 902,4 -4,4"/>
<!-- APPLICABLE -->
<g id="node1" class="node">
<title>APPLICABLE</title>
<g id="a_node1"><a xlink:href="../../tables/APPLICABLE.html" xlink:title="APPLICABLE" target="_top">
<polygon fill="#ffffff" stroke="transparent" points="718,-279 718,-494 890,-494 890,-279 718,-279"/>
<polygon fill="#f5f5f5" stroke="transparent" points="718,-470.5 718,-493.5 890,-493.5 890,-470.5 718,-470.5"/>
<polygon fill="none" stroke="#000000" points="718,-470.5 718,-493.5 890,-493.5 890,-470.5 718,-470.5"/>
<text text-anchor="start" x="723" y="-479.1" font-family="Helvetica,sans-Serif" font-weight="bold" font-size="11.00" fill="#000000">APPLICABLE</text>
<text text-anchor="start" x="855.0437" y="-478.6" font-family="Helvetica,sans-Serif" font-size="11.00" fill="#000000">[table]</text>
<polygon fill="none" stroke="#000000" points="718,-448.5 718,-470.5 890,-470.5 890,-448.5 718,-448.5"/>
<image xlink:href="../../images/primaryKeys.png" width="11px" height="12px" preserveAspectRatio="xMinYMin meet" x="723" y="-465.5"/>
<text text-anchor="start" x="738" y="-455.6" font-family="Helvetica,sans-Serif" font-size="11.00" fill="#000000">ID</text>
<polygon fill="#ffffff" stroke="transparent" points="718,-426.5 718,-448.5 890,-448.5 890,-426.5 718,-426.5"/>
<polygon fill="none" stroke="#000000" points="718,-426.5 718,-448.5 890,-448.5 890,-426.5 718,-426.5"/>
<image xlink:href="../../images/foreignKeys.png" width="11px" height="12px" preserveAspectRatio="xMinYMin meet" x="723" y="-443.5"/>
<text text-anchor="start" x="738" y="-433.6" font-family="Helvetica,sans-Serif" font-size="11.00" fill="#000000">DEPARTMENT_ID</text>
<polygon fill="#ffffff" stroke="transparent" points="718,-404.5 718,-426.5 890,-426.5 890,-404.5 718,-404.5"/>
<polygon fill="none" stroke="#000000" points="718,-404.5 718,-426.5 890,-426.5 890,-404.5 718,-404.5"/>
<image xlink:href="../../images/foreignKeys.png" width="11px" height="12px" preserveAspectRatio="xMinYMin meet" x="723" y="-421.5"/>
<text text-anchor="start" x="738" y="-411.6" font-family="Helvetica,sans-Serif" font-size="11.00" fill="#000000">DESIGNATION_ID</text>
<polygon fill="#ffffff" stroke="transparent" points="718,-382.5 718,-404.5 890,-404.5 890,-382.5 718,-382.5"/>
<polygon fill="none" stroke="#000000" points="718,-382.5 718,-404.5 890,-404.5 890,-382.5 718,-382.5"/>
<image xlink:href="../../images/foreignKeys.png" width="11px" height="12px" preserveAspectRatio="xMinYMin meet" x="723" y="-399.5"/>
<text text-anchor="start" x="738" y="-389.6" font-family="Helvetica,sans-Serif" font-size="11.00" fill="#000000">LOCATION_ID</text>
<polygon fill="#ffffff" stroke="transparent" points="718,-360.5 718,-382.5 890,-382.5 890,-360.5 718,-360.5"/>
<polygon fill="none" stroke="#000000" points="718,-360.5 718,-382.5 890,-382.5 890,-360.5 718,-360.5"/>
<image xlink:href="../../images/foreignKeys.png" width="11px" height="12px" preserveAspectRatio="xMinYMin meet" x="723" y="-377.5"/>
<text text-anchor="start" x="738" y="-367.6" font-family="Helvetica,sans-Serif" font-size="11.00" fill="#000000">EMPLOYEE_ID</text>
<polygon fill="#ffffff" stroke="transparent" points="718,-338.5 718,-360.5 890,-360.5 890,-338.5 718,-338.5"/>
<polygon fill="none" stroke="#000000" points="718,-338.5 718,-360.5 890,-360.5 890,-338.5 718,-338.5"/>
<image xlink:href="../../images/foreignKeys.png" width="11px" height="12px" preserveAspectRatio="xMinYMin meet" x="723" y="-355.5"/>
<text text-anchor="start" x="738" y="-345.6" font-family="Helvetica,sans-Serif" font-size="11.00" fill="#000000">CREATOR</text>
<polygon fill="#ffffff" stroke="transparent" points="718,-316.5 718,-338.5 890,-338.5 890,-316.5 718,-316.5"/>
<polygon fill="none" stroke="#000000" points="718,-316.5 718,-338.5 890,-338.5 890,-316.5 718,-316.5"/>
<image xlink:href="../../images/foreignKeys.png" width="11px" height="12px" preserveAspectRatio="xMinYMin meet" x="723" y="-333.5"/>
<text text-anchor="start" x="738" y="-323.6" font-family="Helvetica,sans-Serif" font-size="11.00" fill="#000000">LAST_MODIFIER</text>
<polygon fill="none" stroke="#000000" points="718,-297.5 718,-316.5 890,-316.5 890,-297.5 718,-297.5"/>
<text text-anchor="start" x="721" y="-303.6" font-family="Helvetica,sans-Serif" font-size="11.00" fill="#000000">...</text>
<polygon fill="#ffffff" stroke="transparent" points="718,-278.5 718,-297.5 789,-297.5 789,-278.5 718,-278.5"/>
<polygon fill="none" stroke="#000000" points="718,-278.5 718,-297.5 789,-297.5 789,-278.5 718,-278.5"/>
<text text-anchor="start" x="721" y="-284.6" font-family="Helvetica,sans-Serif" font-size="11.00" fill="#000000">&lt; 6</text>
<polygon fill="#ffffff" stroke="transparent" points="789,-278.5 789,-297.5 852,-297.5 852,-278.5 789,-278.5"/>
<polygon fill="none" stroke="#000000" points="789,-278.5 789,-297.5 852,-297.5 852,-278.5 789,-278.5"/>
<text text-anchor="start" x="816.6105" y="-284.6" font-family="Helvetica,sans-Serif" font-size="11.00" fill="#000000">0 rows</text>
<polygon fill="#ffffff" stroke="transparent" points="852,-278.5 852,-297.5 890,-297.5 890,-278.5 852,-278.5"/>
<polygon fill="none" stroke="#000000" points="852,-278.5 852,-297.5 890,-297.5 890,-278.5 852,-278.5"/>
<text text-anchor="start" x="880.8862" y="-284.6" font-family="Helvetica,sans-Serif" font-size="11.00" fill="#000000"> &#160;</text>
</a>
</g>
</g>
<!-- User -->
<g id="node2" class="node">
<title>User</title>
<g id="a_node2"><a xlink:href="../../tables/User.html" xlink:title="User" target="_top">
<polygon fill="#ffffff" stroke="transparent" points="8,-234 8,-317 112,-317 112,-234 8,-234"/>
<polygon fill="#f5f5f5" stroke="transparent" points="8,-293.5 8,-316.5 112,-316.5 112,-293.5 8,-293.5"/>
<polygon fill="none" stroke="#000000" points="8,-293.5 8,-316.5 112,-316.5 112,-293.5 8,-293.5"/>
<text text-anchor="start" x="13" y="-302.1" font-family="Helvetica,sans-Serif" font-weight="bold" font-size="11.00" fill="#000000">User</text>
<text text-anchor="start" x="77.0437" y="-301.6" font-family="Helvetica,sans-Serif" font-size="11.00" fill="#000000">[table]</text>
<polygon fill="none" stroke="#000000" points="8,-271.5 8,-293.5 112,-293.5 112,-271.5 8,-271.5"/>
<image xlink:href="../../images/primaryKeys.png" width="11px" height="12px" preserveAspectRatio="xMinYMin meet" x="13" y="-288.5"/>
<text text-anchor="start" x="28" y="-278.6" font-family="Helvetica,sans-Serif" font-size="11.00" fill="#000000">userid_pk</text>
<polygon fill="none" stroke="#000000" points="8,-252.5 8,-271.5 112,-271.5 112,-252.5 8,-252.5"/>
<text text-anchor="start" x="11" y="-258.6" font-family="Helvetica,sans-Serif" font-size="11.00" fill="#000000">...</text>
<polygon fill="#ffffff" stroke="transparent" points="8,-233.5 8,-252.5 30,-252.5 30,-233.5 8,-233.5"/>
<polygon fill="none" stroke="#000000" points="8,-233.5 8,-252.5 30,-252.5 30,-233.5 8,-233.5"/>
<text text-anchor="start" x="11" y="-239.6" font-family="Helvetica,sans-Serif" font-size="11.00" fill="#000000"> &#160;</text>
<polygon fill="#ffffff" stroke="transparent" points="30,-233.5 30,-252.5 73,-252.5 73,-233.5 30,-233.5"/>
<polygon fill="none" stroke="#000000" points="30,-233.5 30,-252.5 73,-252.5 73,-233.5 30,-233.5"/>
<text text-anchor="start" x="37.6105" y="-239.6" font-family="Helvetica,sans-Serif" font-size="11.00" fill="#000000">0 rows</text>
<polygon fill="#ffffff" stroke="transparent" points="73,-233.5 73,-252.5 112,-252.5 112,-233.5 73,-233.5"/>
<polygon fill="none" stroke="#000000" points="73,-233.5 73,-252.5 112,-252.5 112,-233.5 73,-233.5"/>
<text text-anchor="start" x="81.1755" y="-239.6" font-family="Helvetica,sans-Serif" font-size="11.00" fill="#000000">102 &gt;</text>
</a>
</g>
</g>
<!-- APPLICABLE&#45;&gt;User -->
<g id="edge1" class="edge">
<title>APPLICABLE:w&#45;&gt;User:e</title>
<path fill="none" stroke="#000000" d="M703.9711,-344.862C690.4359,-332.2358 701.4437,-297.2746 677,-283.5 575.5526,-226.3321 269.4118,-277.6624 153,-280.5 134.7615,-280.9446 130.2439,-282.5 112,-282.5"/>
<polygon fill="#000000" stroke="#000000" points="710.4043,-346.9888 716.87,-352.918 714.2022,-348.2444 718,-349.5 718,-349.5 718,-349.5 714.2022,-348.2444 719.13,-346.082 710.4043,-346.9888 710.4043,-346.9888"/>
<ellipse fill="none" stroke="#000000" cx="707.3661" cy="-345.9843" rx="3.2" ry="3.2"/>
</g>
<!-- APPLICABLE&#45;&gt;User -->
<g id="edge4" class="edge">
<title>APPLICABLE:w&#45;&gt;User:e</title>
<path fill="none" stroke="#000000" d="M703.8647,-323.0941C688.5538,-309.6818 703.8271,-269.3059 677,-253.5 655.5838,-240.8821 190.4701,-245.4132 153,-256.5 132.3094,-262.622 133.5773,-282.5 112,-282.5"/>
<polygon fill="#000000" stroke="#000000" points="710.3624,-325.1194 716.9287,-330.9369 714.1812,-326.3097 718,-327.5 718,-327.5 718,-327.5 714.1812,-326.3097 719.0713,-324.0631 710.3624,-325.1194 710.3624,-325.1194"/>
<ellipse fill="none" stroke="#000000" cx="707.3074" cy="-324.1671" rx="3.2" ry="3.2"/>
</g>
<!-- DESIGNATION -->
<g id="node3" class="node">
<title>DESIGNATION</title>
<g id="a_node3"><a xlink:href="../../tables/DESIGNATION.html" xlink:title="DESIGNATION" target="_top">
<polygon fill="#ffffff" stroke="transparent" points="161,-347.5 161,-635.5 406,-635.5 406,-347.5 161,-347.5"/>
<polygon fill="#f5f5f5" stroke="transparent" points="163.5,-610.5 163.5,-633.5 404.5,-633.5 404.5,-610.5 163.5,-610.5"/>
<polygon fill="none" stroke="#000000" points="163.5,-610.5 163.5,-633.5 404.5,-633.5 404.5,-610.5 163.5,-610.5"/>
<text text-anchor="start" x="168.5" y="-619.1" font-family="Helvetica,sans-Serif" font-weight="bold" font-size="11.00" fill="#000000">DESIGNATION</text>
<text text-anchor="start" x="369.5437" y="-618.6" font-family="Helvetica,sans-Serif" font-size="11.00" fill="#000000">[table]</text>
<polygon fill="none" stroke="#000000" points="163.5,-588.5 163.5,-610.5 337.5,-610.5 337.5,-588.5 163.5,-588.5"/>
<image xlink:href="../../images/primaryKeys.png" width="11px" height="12px" preserveAspectRatio="xMinYMin meet" x="168.5" y="-605.5"/>
<text text-anchor="start" x="183.5" y="-595.6" font-family="Helvetica,sans-Serif" font-size="11.00" fill="#000000">ID</text>
<polygon fill="none" stroke="#000000" points="337.5,-588.5 337.5,-610.5 404.5,-610.5 404.5,-588.5 337.5,-588.5"/>
<text text-anchor="start" x="340.5" y="-596.2" font-family="Helvetica,sans-Serif" font-size="11.00" fill="#000000">int[10]</text>
<polygon fill="none" stroke="#000000" points="163.5,-566.5 163.5,-588.5 337.5,-588.5 337.5,-566.5 163.5,-566.5"/>
<text text-anchor="start" x="183.5" y="-573.6" font-family="Helvetica,sans-Serif" font-size="11.00" fill="#000000">WORKSPACE_ID</text>
<polygon fill="none" stroke="#000000" points="337.5,-566.5 337.5,-588.5 404.5,-588.5 404.5,-566.5 337.5,-566.5"/>
<text text-anchor="start" x="340.5" y="-574.2" font-family="Helvetica,sans-Serif" font-size="11.00" fill="#000000">int[10]</text>
<polygon fill="none" stroke="#000000" points="163.5,-544.5 163.5,-566.5 337.5,-566.5 337.5,-544.5 163.5,-544.5"/>
<text text-anchor="start" x="183.5" y="-551.6" font-family="Helvetica,sans-Serif" font-size="11.00" fill="#000000">NAME</text>
<polygon fill="none" stroke="#000000" points="337.5,-544.5 337.5,-566.5 404.5,-566.5 404.5,-544.5 337.5,-544.5"/>
<text text-anchor="start" x="340.5" y="-552.2" font-family="Helvetica,sans-Serif" font-size="11.00" fill="#000000">varchar[50]</text>
<polygon fill="none" stroke="#000000" points="163.5,-522.5 163.5,-544.5 337.5,-544.5 337.5,-522.5 163.5,-522.5"/>
<text text-anchor="start" x="183.5" y="-529.6" font-family="Helvetica,sans-Serif" font-size="11.00" fill="#000000">MAIL_ALIAS</text>
<polygon fill="none" stroke="#000000" points="337.5,-522.5 337.5,-544.5 404.5,-544.5 404.5,-522.5 337.5,-522.5"/>
<text text-anchor="start" x="340.4365" y="-530.2" font-family="Helvetica,sans-Serif" font-size="11.00" fill="#000000">varchar[100]</text>
<polygon fill="none" stroke="#000000" points="163.5,-500.5 163.5,-522.5 337.5,-522.5 337.5,-500.5 163.5,-500.5"/>
<text text-anchor="start" x="183.5" y="-507.6" font-family="Helvetica,sans-Serif" font-size="11.00" fill="#000000">DESIGNATION_CODE</text>
<polygon fill="none" stroke="#000000" points="337.5,-500.5 337.5,-522.5 404.5,-522.5 404.5,-500.5 337.5,-500.5"/>
<text text-anchor="start" x="340.5" y="-508.2" font-family="Helvetica,sans-Serif" font-size="11.00" fill="#000000">varchar[50]</text>
<polygon fill="none" stroke="#000000" points="163.5,-478.5 163.5,-500.5 337.5,-500.5 337.5,-478.5 163.5,-478.5"/>
<text text-anchor="start" x="183.5" y="-485.6" font-family="Helvetica,sans-Serif" font-size="11.00" fill="#000000">APPROVAL_STATUS</text>
<polygon fill="none" stroke="#000000" points="337.5,-478.5 337.5,-500.5 404.5,-500.5 404.5,-478.5 337.5,-478.5"/>
<text text-anchor="start" x="340.5" y="-486.2" font-family="Helvetica,sans-Serif" font-size="11.00" fill="#000000">enum[12]</text>
<polygon fill="none" stroke="#000000" points="163.5,-456.5 163.5,-478.5 337.5,-478.5 337.5,-456.5 163.5,-456.5"/>
<text text-anchor="start" x="183.5" y="-463.6" font-family="Helvetica,sans-Serif" font-size="11.00" fill="#000000">PARENT_DESIGNATION</text>
<polygon fill="none" stroke="#000000" points="337.5,-456.5 337.5,-478.5 404.5,-478.5 404.5,-456.5 337.5,-456.5"/>
<text text-anchor="start" x="340.5" y="-464.2" font-family="Helvetica,sans-Serif" font-size="11.00" fill="#000000">int[10]</text>
<polygon fill="none" stroke="#000000" points="163.5,-434.5 163.5,-456.5 337.5,-456.5 337.5,-434.5 163.5,-434.5"/>
<text text-anchor="start" x="183.5" y="-441.6" font-family="Helvetica,sans-Serif" font-size="11.00" fill="#000000">CREATED_TIME</text>
<polygon fill="none" stroke="#000000" points="337.5,-434.5 337.5,-456.5 404.5,-456.5 404.5,-434.5 337.5,-434.5"/>
<text text-anchor="start" x="340.5" y="-442.2" font-family="Helvetica,sans-Serif" font-size="11.00" fill="#000000">datetime[26]</text>
<polygon fill="none" stroke="#000000" points="163.5,-412.5 163.5,-434.5 337.5,-434.5 337.5,-412.5 163.5,-412.5"/>
<text text-anchor="start" x="183.5" y="-419.6" font-family="Helvetica,sans-Serif" font-size="11.00" fill="#000000">MODIFIED_TIME</text>
<polygon fill="none" stroke="#000000" points="337.5,-412.5 337.5,-434.5 404.5,-434.5 404.5,-412.5 337.5,-412.5"/>
<text text-anchor="start" x="340.5" y="-420.2" font-family="Helvetica,sans-Serif" font-size="11.00" fill="#000000">datetime[26]</text>
<polygon fill="#ffffff" stroke="transparent" points="163.5,-390.5 163.5,-412.5 337.5,-412.5 337.5,-390.5 163.5,-390.5"/>
<polygon fill="none" stroke="#000000" points="163.5,-390.5 163.5,-412.5 337.5,-412.5 337.5,-390.5 163.5,-390.5"/>
<image xlink:href="../../images/foreignKeys.png" width="11px" height="12px" preserveAspectRatio="xMinYMin meet" x="168.5" y="-407.5"/>
<text text-anchor="start" x="183.5" y="-397.6" font-family="Helvetica,sans-Serif" font-size="11.00" fill="#000000">CREATOR</text>
<polygon fill="none" stroke="#000000" points="337.5,-390.5 337.5,-412.5 404.5,-412.5 404.5,-390.5 337.5,-390.5"/>
<text text-anchor="start" x="340.5" y="-398.2" font-family="Helvetica,sans-Serif" font-size="11.00" fill="#000000">int[10]</text>
<polygon fill="#ffffff" stroke="transparent" points="163.5,-368.5 163.5,-390.5 337.5,-390.5 337.5,-368.5 163.5,-368.5"/>
<polygon fill="none" stroke="#000000" points="163.5,-368.5 163.5,-390.5 337.5,-390.5 337.5,-368.5 163.5,-368.5"/>
<image xlink:href="../../images/foreignKeys.png" width="11px" height="12px" preserveAspectRatio="xMinYMin meet" x="168.5" y="-385.5"/>
<text text-anchor="start" x="183.5" y="-375.6" font-family="Helvetica,sans-Serif" font-size="11.00" fill="#000000">LAST_MODIFIER</text>
<polygon fill="none" stroke="#000000" points="337.5,-368.5 337.5,-390.5 404.5,-390.5 404.5,-368.5 337.5,-368.5"/>
<text text-anchor="start" x="340.5" y="-376.2" font-family="Helvetica,sans-Serif" font-size="11.00" fill="#000000">int[10]</text>
<polygon fill="#ffffff" stroke="transparent" points="163.5,-349.5 163.5,-368.5 241.5,-368.5 241.5,-349.5 163.5,-349.5"/>
<polygon fill="none" stroke="#000000" points="163.5,-349.5 163.5,-368.5 241.5,-368.5 241.5,-349.5 163.5,-349.5"/>
<text text-anchor="start" x="166.5" y="-355.6" font-family="Helvetica,sans-Serif" font-size="11.00" fill="#000000">&lt; 2</text>
<polygon fill="#ffffff" stroke="transparent" points="241.5,-349.5 241.5,-368.5 337.5,-368.5 337.5,-349.5 241.5,-349.5"/>
<polygon fill="none" stroke="#000000" points="241.5,-349.5 241.5,-368.5 337.5,-368.5 337.5,-349.5 241.5,-349.5"/>
<text text-anchor="start" x="302.1105" y="-355.6" font-family="Helvetica,sans-Serif" font-size="11.00" fill="#000000">0 rows</text>
<polygon fill="#ffffff" stroke="transparent" points="337.5,-349.5 337.5,-368.5 404.5,-368.5 404.5,-349.5 337.5,-349.5"/>
<polygon fill="none" stroke="#000000" points="337.5,-349.5 337.5,-368.5 404.5,-368.5 404.5,-349.5 337.5,-349.5"/>
<text text-anchor="start" x="385.9053" y="-355.6" font-family="Helvetica,sans-Serif" font-size="11.00" fill="#000000">3 &gt;</text>
<polygon fill="none" stroke="#000000" stroke-width="2" points="162,-348.5 162,-634.5 405,-634.5 405,-348.5 162,-348.5"/>
</a>
</g>
</g>
<!-- APPLICABLE&#45;&gt;DESIGNATION -->
<g id="edge2" class="edge">
<title>APPLICABLE:w&#45;&gt;DESIGNATION:e</title>
<path fill="none" stroke="#000000" d="M703.8425,-419.021C685.0056,-431.5426 702.6761,-474.3989 677,-497.5 580.8655,-583.9937 533.8175,-599.5 404.5,-599.5"/>
<polygon fill="#000000" stroke="#000000" points="710.2365,-417.4309 718.8689,-418.9936 714.1182,-416.4654 718,-415.5 718,-415.5 718,-415.5 714.1182,-416.4654 717.1311,-412.0064 710.2365,-417.4309 710.2365,-417.4309"/>
<ellipse fill="none" stroke="#000000" cx="707.1311" cy="-418.2032" rx="3.2" ry="3.2"/>
</g>
<!-- EMPLOYEE -->
<g id="node4" class="node">
<title>EMPLOYEE</title>
<g id="a_node4"><a xlink:href="../../tables/EMPLOYEE.html" xlink:title="EMPLOYEE" target="_top">
<polygon fill="#ffffff" stroke="transparent" points="455,-294 455,-487 669,-487 669,-294 455,-294"/>
<polygon fill="#f5f5f5" stroke="transparent" points="455,-463.5 455,-486.5 669,-486.5 669,-463.5 455,-463.5"/>
<polygon fill="none" stroke="#000000" points="455,-463.5 455,-486.5 669,-486.5 669,-463.5 455,-463.5"/>
<text text-anchor="start" x="460" y="-472.1" font-family="Helvetica,sans-Serif" font-weight="bold" font-size="11.00" fill="#000000">EMPLOYEE</text>
<text text-anchor="start" x="634.0437" y="-471.6" font-family="Helvetica,sans-Serif" font-size="11.00" fill="#000000">[table]</text>
<polygon fill="none" stroke="#000000" points="455,-441.5 455,-463.5 669,-463.5 669,-441.5 455,-441.5"/>
<image xlink:href="../../images/primaryKeys.png" width="11px" height="12px" preserveAspectRatio="xMinYMin meet" x="460" y="-458.5"/>
<text text-anchor="start" x="475" y="-448.6" font-family="Helvetica,sans-Serif" font-size="11.00" fill="#000000">ID</text>
<polygon fill="#ffffff" stroke="transparent" points="455,-419.5 455,-441.5 669,-441.5 669,-419.5 455,-419.5"/>
<polygon fill="none" stroke="#000000" points="455,-419.5 455,-441.5 669,-441.5 669,-419.5 455,-419.5"/>
<image xlink:href="../../images/foreignKeys.png" width="11px" height="12px" preserveAspectRatio="xMinYMin meet" x="460" y="-436.5"/>
<text text-anchor="start" x="475" y="-426.6" font-family="Helvetica,sans-Serif" font-size="11.00" fill="#000000">DEPARTMENT_ID</text>
<polygon fill="#ffffff" stroke="transparent" points="455,-397.5 455,-419.5 669,-419.5 669,-397.5 455,-397.5"/>
<polygon fill="none" stroke="#000000" points="455,-397.5 455,-419.5 669,-419.5 669,-397.5 455,-397.5"/>
<image xlink:href="../../images/foreignKeys.png" width="11px" height="12px" preserveAspectRatio="xMinYMin meet" x="460" y="-414.5"/>
<text text-anchor="start" x="475" y="-404.6" font-family="Helvetica,sans-Serif" font-size="11.00" fill="#000000">LOCATION_ID</text>
<polygon fill="#ffffff" stroke="transparent" points="455,-375.5 455,-397.5 669,-397.5 669,-375.5 455,-375.5"/>
<polygon fill="none" stroke="#000000" points="455,-375.5 455,-397.5 669,-397.5 669,-375.5 455,-375.5"/>
<image xlink:href="../../images/foreignKeys.png" width="11px" height="12px" preserveAspectRatio="xMinYMin meet" x="460" y="-392.5"/>
<text text-anchor="start" x="475" y="-382.6" font-family="Helvetica,sans-Serif" font-size="11.00" fill="#000000">DESIGNATION_ID</text>
<polygon fill="#ffffff" stroke="transparent" points="455,-353.5 455,-375.5 669,-375.5 669,-353.5 455,-353.5"/>
<polygon fill="none" stroke="#000000" points="455,-353.5 455,-375.5 669,-375.5 669,-353.5 455,-353.5"/>
<image xlink:href="../../images/foreignKeys.png" width="11px" height="12px" preserveAspectRatio="xMinYMin meet" x="460" y="-370.5"/>
<text text-anchor="start" x="475" y="-360.6" font-family="Helvetica,sans-Serif" font-size="11.00" fill="#000000">CREATOR</text>
<polygon fill="#ffffff" stroke="transparent" points="455,-331.5 455,-353.5 669,-353.5 669,-331.5 455,-331.5"/>
<polygon fill="none" stroke="#000000" points="455,-331.5 455,-353.5 669,-353.5 669,-331.5 455,-331.5"/>
<image xlink:href="../../images/foreignKeys.png" width="11px" height="12px" preserveAspectRatio="xMinYMin meet" x="460" y="-348.5"/>
<text text-anchor="start" x="475" y="-338.6" font-family="Helvetica,sans-Serif" font-size="11.00" fill="#000000">LAST_MODIFIER</text>
<polygon fill="none" stroke="#000000" points="455,-312.5 455,-331.5 669,-331.5 669,-312.5 455,-312.5"/>
<text text-anchor="start" x="458" y="-318.6" font-family="Helvetica,sans-Serif" font-size="11.00" fill="#000000">...</text>
<polygon fill="#ffffff" stroke="transparent" points="455,-293.5 455,-312.5 540,-312.5 540,-293.5 455,-293.5"/>
<polygon fill="none" stroke="#000000" points="455,-293.5 455,-312.5 540,-312.5 540,-293.5 455,-293.5"/>
<text text-anchor="start" x="458" y="-299.6" font-family="Helvetica,sans-Serif" font-size="11.00" fill="#000000">&lt; 5</text>
<polygon fill="#ffffff" stroke="transparent" points="540,-293.5 540,-312.5 610,-312.5 610,-293.5 540,-293.5"/>
<polygon fill="none" stroke="#000000" points="540,-293.5 540,-312.5 610,-312.5 610,-293.5 540,-293.5"/>
<text text-anchor="start" x="574.6105" y="-299.6" font-family="Helvetica,sans-Serif" font-size="11.00" fill="#000000">0 rows</text>
<polygon fill="#ffffff" stroke="transparent" points="610,-293.5 610,-312.5 669,-312.5 669,-293.5 610,-293.5"/>
<polygon fill="none" stroke="#000000" points="610,-293.5 610,-312.5 669,-312.5 669,-293.5 610,-293.5"/>
<text text-anchor="start" x="644.2904" y="-299.6" font-family="Helvetica,sans-Serif" font-size="11.00" fill="#000000">15 &gt;</text>
</a>
</g>
</g>
<!-- APPLICABLE&#45;&gt;EMPLOYEE -->
<g id="edge3" class="edge">
<title>APPLICABLE:w&#45;&gt;EMPLOYEE:e</title>
<path fill="none" stroke="#000000" d="M704.1299,-376.087C684.4726,-393.222 704.9935,-452.5 669,-452.5"/>
<polygon fill="#000000" stroke="#000000" points="710.4046,-374.0119 719.1304,-374.9179 714.2023,-372.756 718,-371.5 718,-371.5 718,-371.5 714.2023,-372.756 716.8696,-368.0821 710.4046,-374.0119 710.4046,-374.0119"/>
<ellipse fill="none" stroke="#000000" cx="707.3664" cy="-375.0167" rx="3.2" ry="3.2"/>
</g>
<!-- DESIGNATION&#45;&gt;User -->
<g id="edge5" class="edge">
<title>DESIGNATION:w&#45;&gt;User:e</title>
<path fill="none" stroke="#000000" d="M149.4431,-398.0669C117.5696,-378.5556 163.7763,-282.5 112,-282.5"/>
<polygon fill="#000000" stroke="#000000" points="155.7284,-399.6019 162.6459,-404.9972 159.6142,-400.551 163.5,-401.5 163.5,-401.5 163.5,-401.5 159.6142,-400.551 164.3541,-398.0028 155.7284,-399.6019 155.7284,-399.6019"/>
<ellipse fill="none" stroke="#000000" cx="152.6198" cy="-398.8427" rx="3.2" ry="3.2"/>
</g>
<!-- DESIGNATION&#45;&gt;User -->
<g id="edge6" class="edge">
<title>DESIGNATION:w&#45;&gt;User:e</title>
<path fill="none" stroke="#000000" d="M149.6071,-375.5773C124.4674,-357.4302 154.8999,-282.5 112,-282.5"/>
<polygon fill="#000000" stroke="#000000" points="155.801,-377.3262 162.5218,-382.9646 159.6505,-378.4131 163.5,-379.5 163.5,-379.5 163.5,-379.5 159.6505,-378.4131 164.4782,-376.0354 155.801,-377.3262 155.801,-377.3262"/>
<ellipse fill="none" stroke="#000000" cx="152.7214" cy="-376.4566" rx="3.2" ry="3.2"/>
</g>
<!-- EMPLOYEE&#45;&gt;User -->
<g id="edge7" class="edge">
<title>EMPLOYEE:w&#45;&gt;User:e</title>
<path fill="none" stroke="#000000" d="M441.0799,-360.5712C432.1947,-354.4754 428.7298,-342.8816 414,-337.5 304.2783,-297.4128 263.7409,-343.6789 153,-306.5 132.9833,-299.7798 133.1146,-282.5 112,-282.5"/>
<polygon fill="#000000" stroke="#000000" points="447.3008,-362.3269 454.0221,-367.9646 451.1504,-363.4135 455,-364.5 455,-364.5 455,-364.5 451.1504,-363.4135 455.9779,-361.0354 447.3008,-362.3269 447.3008,-362.3269"/>
<ellipse fill="none" stroke="#000000" cx="444.2211" cy="-361.4577" rx="3.2" ry="3.2"/>
</g>
<!-- EMPLOYEE&#45;&gt;User -->
<g id="edge9" class="edge">
<title>EMPLOYEE:w&#45;&gt;User:e</title>
<path fill="none" stroke="#000000" d="M440.9999,-337.8352C431.8193,-329.9692 430.2426,-314.2642 414,-307.5 351.8345,-281.6114 179.3407,-282.5 112,-282.5"/>
<polygon fill="#000000" stroke="#000000" points="447.4102,-339.9711 453.862,-345.9154 451.2051,-341.2355 455,-342.5 455,-342.5 455,-342.5 451.2051,-341.2355 456.138,-339.0846 447.4102,-339.9711 447.4102,-339.9711"/>
<ellipse fill="none" stroke="#000000" cx="444.3743" cy="-338.9595" rx="3.2" ry="3.2"/>
</g>
<!-- EMPLOYEE&#45;&gt;DESIGNATION -->
<g id="edge8" class="edge">
<title>EMPLOYEE:w&#45;&gt;DESIGNATION:e</title>
<path fill="none" stroke="#000000" d="M440.7035,-388.4726C373.2565,-409.9456 496.2803,-599.5 404.5,-599.5"/>
<polygon fill="#000000" stroke="#000000" points="447.0751,-387.5935 455.4921,-390.0662 451.0375,-387.0468 455,-386.5 455,-386.5 455,-386.5 451.0375,-387.0468 454.5079,-382.9338 447.0751,-387.5935 447.0751,-387.5935"/>
<ellipse fill="none" stroke="#000000" cx="443.9051" cy="-388.0309" rx="3.2" ry="3.2"/>
</g>
<!-- EXCEPTIONS -->
<g id="node5" class="node">
<title>EXCEPTIONS</title>
<g id="a_node5"><a xlink:href="../../tables/EXCEPTIONS.html" xlink:title="EXCEPTIONS" target="_top">
<polygon fill="#ffffff" stroke="transparent" points="495,-25 495,-218 629,-218 629,-25 495,-25"/>
<polygon fill="#f5f5f5" stroke="transparent" points="495,-194.5 495,-217.5 629,-217.5 629,-194.5 495,-194.5"/>
<polygon fill="none" stroke="#000000" points="495,-194.5 495,-217.5 629,-217.5 629,-194.5 495,-194.5"/>
<text text-anchor="start" x="500" y="-203.1" font-family="Helvetica,sans-Serif" font-weight="bold" font-size="11.00" fill="#000000">EXCEPTIONS</text>
<text text-anchor="start" x="594.0437" y="-202.6" font-family="Helvetica,sans-Serif" font-size="11.00" fill="#000000">[table]</text>
<polygon fill="none" stroke="#000000" points="495,-172.5 495,-194.5 629,-194.5 629,-172.5 495,-172.5"/>
<image xlink:href="../../images/primaryKeys.png" width="11px" height="12px" preserveAspectRatio="xMinYMin meet" x="500" y="-189.5"/>
<text text-anchor="start" x="515" y="-179.6" font-family="Helvetica,sans-Serif" font-size="11.00" fill="#000000">ID</text>
<polygon fill="#ffffff" stroke="transparent" points="495,-150.5 495,-172.5 629,-172.5 629,-150.5 495,-150.5"/>
<polygon fill="none" stroke="#000000" points="495,-150.5 495,-172.5 629,-172.5 629,-150.5 495,-150.5"/>
<image xlink:href="../../images/foreignKeys.png" width="11px" height="12px" preserveAspectRatio="xMinYMin meet" x="500" y="-167.5"/>
<text text-anchor="start" x="515" y="-157.6" font-family="Helvetica,sans-Serif" font-size="11.00" fill="#000000">DEPARTMENT_ID</text>
<polygon fill="#ffffff" stroke="transparent" points="495,-128.5 495,-150.5 629,-150.5 629,-128.5 495,-128.5"/>
<polygon fill="none" stroke="#000000" points="495,-128.5 495,-150.5 629,-150.5 629,-128.5 495,-128.5"/>
<image xlink:href="../../images/foreignKeys.png" width="11px" height="12px" preserveAspectRatio="xMinYMin meet" x="500" y="-145.5"/>
<text text-anchor="start" x="515" y="-135.6" font-family="Helvetica,sans-Serif" font-size="11.00" fill="#000000">DESIGNATION_ID</text>
<polygon fill="#ffffff" stroke="transparent" points="495,-106.5 495,-128.5 629,-128.5 629,-106.5 495,-106.5"/>
<polygon fill="none" stroke="#000000" points="495,-106.5 495,-128.5 629,-128.5 629,-106.5 495,-106.5"/>
<image xlink:href="../../images/foreignKeys.png" width="11px" height="12px" preserveAspectRatio="xMinYMin meet" x="500" y="-123.5"/>
<text text-anchor="start" x="515" y="-113.6" font-family="Helvetica,sans-Serif" font-size="11.00" fill="#000000">LOCATION_ID</text>
<polygon fill="#ffffff" stroke="transparent" points="495,-84.5 495,-106.5 629,-106.5 629,-84.5 495,-84.5"/>
<polygon fill="none" stroke="#000000" points="495,-84.5 495,-106.5 629,-106.5 629,-84.5 495,-84.5"/>
<image xlink:href="../../images/foreignKeys.png" width="11px" height="12px" preserveAspectRatio="xMinYMin meet" x="500" y="-101.5"/>
<text text-anchor="start" x="515" y="-91.6" font-family="Helvetica,sans-Serif" font-size="11.00" fill="#000000">CREATOR</text>
<polygon fill="#ffffff" stroke="transparent" points="495,-62.5 495,-84.5 629,-84.5 629,-62.5 495,-62.5"/>
<polygon fill="none" stroke="#000000" points="495,-62.5 495,-84.5 629,-84.5 629,-62.5 495,-62.5"/>
<image xlink:href="../../images/foreignKeys.png" width="11px" height="12px" preserveAspectRatio="xMinYMin meet" x="500" y="-79.5"/>
<text text-anchor="start" x="515" y="-69.6" font-family="Helvetica,sans-Serif" font-size="11.00" fill="#000000">LAST_MODIFIER</text>
<polygon fill="none" stroke="#000000" points="495,-43.5 495,-62.5 629,-62.5 629,-43.5 495,-43.5"/>
<text text-anchor="start" x="498" y="-49.6" font-family="Helvetica,sans-Serif" font-size="11.00" fill="#000000">...</text>
<polygon fill="#ffffff" stroke="transparent" points="495,-24.5 495,-43.5 547,-43.5 547,-24.5 495,-24.5"/>
<polygon fill="none" stroke="#000000" points="495,-24.5 495,-43.5 547,-43.5 547,-24.5 495,-24.5"/>
<text text-anchor="start" x="498" y="-30.6" font-family="Helvetica,sans-Serif" font-size="11.00" fill="#000000">&lt; 5</text>
<polygon fill="#ffffff" stroke="transparent" points="547,-24.5 547,-43.5 601,-43.5 601,-24.5 547,-24.5"/>
<polygon fill="none" stroke="#000000" points="547,-24.5 547,-43.5 601,-43.5 601,-24.5 547,-24.5"/>
<text text-anchor="start" x="565.6105" y="-30.6" font-family="Helvetica,sans-Serif" font-size="11.00" fill="#000000">0 rows</text>
<polygon fill="#ffffff" stroke="transparent" points="601,-24.5 601,-43.5 629,-43.5 629,-24.5 601,-24.5"/>
<polygon fill="none" stroke="#000000" points="601,-24.5 601,-43.5 629,-43.5 629,-24.5 601,-24.5"/>
<text text-anchor="start" x="619.8862" y="-30.6" font-family="Helvetica,sans-Serif" font-size="11.00" fill="#000000"> &#160;</text>
</a>
</g>
</g>
<!-- EXCEPTIONS&#45;&gt;User -->
<g id="edge10" class="edge">
<title>EXCEPTIONS:w&#45;&gt;User:e</title>
<path fill="none" stroke="#000000" d="M480.5963,-97.666C411.6695,-113.4101 183.3083,-210.2857 153,-232.5 129.8212,-249.4888 140.7381,-282.5 112,-282.5"/>
<polygon fill="#000000" stroke="#000000" points="487.0889,-96.6897 495.5354,-99.06 491.0445,-96.0948 495,-95.5 495,-95.5 495,-95.5 491.0445,-96.0948 494.4646,-91.94 487.0889,-96.6897 487.0889,-96.6897"/>
<ellipse fill="none" stroke="#000000" cx="483.9245" cy="-97.1656" rx="3.2" ry="3.2"/>
</g>
<!-- EXCEPTIONS&#45;&gt;User -->
<g id="edge12" class="edge">
<title>EXCEPTIONS:w&#45;&gt;User:e</title>
<path fill="none" stroke="#000000" d="M480.4256,-73.3268C336.9165,-69.9326 263.757,-18.8596 153,-117.5 96.5712,-167.7555 187.5634,-282.5 112,-282.5"/>
<polygon fill="#000000" stroke="#000000" points="487.0006,-73.4049 494.9572,-77.0997 491.0003,-73.4524 495,-73.5 495,-73.5 495,-73.5 491.0003,-73.4524 495.0428,-69.9003 487.0006,-73.4049 487.0006,-73.4049"/>
<ellipse fill="none" stroke="#000000" cx="483.8008" cy="-73.3668" rx="3.2" ry="3.2"/>
</g>
<!-- EXCEPTIONS&#45;&gt;DESIGNATION -->
<g id="edge11" class="edge">
<title>EXCEPTIONS:w&#45;&gt;DESIGNATION:e</title>
<path fill="none" stroke="#000000" d="M480.3763,-141.0301C432.8938,-152.2583 460.9807,-223.1708 447,-283.5 431.004,-352.5253 475.3545,-599.5 404.5,-599.5"/>
<polygon fill="#000000" stroke="#000000" points="487.0434,-140.3326 495.3747,-143.0805 491.0217,-139.9163 495,-139.5 495,-139.5 495,-139.5 491.0217,-139.9163 494.6253,-135.9195 487.0434,-140.3326 487.0434,-140.3326"/>
<ellipse fill="none" stroke="#000000" cx="483.8608" cy="-140.6656" rx="3.2" ry="3.2"/>
</g>
</g>
</svg>
