<?xml version="1.0" encoding="UTF-8" standalone="no"?>
<!DOCTYPE svg PUBLIC "-//W3C//DTD SVG 1.1//EN"
 "http://www.w3.org/Graphics/SVG/1.1/DTD/svg11.dtd">
<!-- Generated by graphviz version 2.40.1 (20161225.0304)
 -->
<!-- Title: oneDegreeRelationshipsDiagram Pages: 1 -->
<svg width="739pt" height="479pt"
 viewBox="0.00 0.00 739.00 479.00" xmlns="http://www.w3.org/2000/svg" xmlns:xlink="http://www.w3.org/1999/xlink">
<g id="graph0" class="graph" transform="scale(1 1) rotate(0) translate(4 475)">
<title>oneDegreeRelationshipsDiagram</title>
<polygon fill="#ffffff" stroke="transparent" points="-4,4 -4,-475 735,-475 735,4 -4,4"/>
<!-- EMPLOYEE -->
<g id="node1" class="node">
<title>EMPLOYEE</title>
<g id="a_node1"><a xlink:href="../../tables/EMPLOYEE.html" xlink:title="EMPLOYEE" target="_top">
<polygon fill="#ffffff" stroke="transparent" points="161,-103.5 161,-296.5 375,-296.5 375,-103.5 161,-103.5"/>
<polygon fill="#f5f5f5" stroke="transparent" points="161,-273 161,-296 375,-296 375,-273 161,-273"/>
<polygon fill="none" stroke="#000000" points="161,-273 161,-296 375,-296 375,-273 161,-273"/>
<text text-anchor="start" x="166" y="-281.6" font-family="Helvetica,sans-Serif" font-weight="bold" font-size="11.00" fill="#000000">EMPLOYEE</text>
<text text-anchor="start" x="340.0437" y="-281.1" font-family="Helvetica,sans-Serif" font-size="11.00" fill="#000000">[table]</text>
<polygon fill="none" stroke="#000000" points="161,-251 161,-273 375,-273 375,-251 161,-251"/>
<image xlink:href="../../images/primaryKeys.png" width="11px" height="12px" preserveAspectRatio="xMinYMin meet" x="166" y="-268"/>
<text text-anchor="start" x="181" y="-258.1" font-family="Helvetica,sans-Serif" font-size="11.00" fill="#000000">ID</text>
<polygon fill="#ffffff" stroke="transparent" points="161,-229 161,-251 375,-251 375,-229 161,-229"/>
<polygon fill="none" stroke="#000000" points="161,-229 161,-251 375,-251 375,-229 161,-229"/>
<image xlink:href="../../images/foreignKeys.png" width="11px" height="12px" preserveAspectRatio="xMinYMin meet" x="166" y="-246"/>
<text text-anchor="start" x="181" y="-236.1" font-family="Helvetica,sans-Serif" font-size="11.00" fill="#000000">DEPARTMENT_ID</text>
<polygon fill="#ffffff" stroke="transparent" points="161,-207 161,-229 375,-229 375,-207 161,-207"/>
<polygon fill="none" stroke="#000000" points="161,-207 161,-229 375,-229 375,-207 161,-207"/>
<image xlink:href="../../images/foreignKeys.png" width="11px" height="12px" preserveAspectRatio="xMinYMin meet" x="166" y="-224"/>
<text text-anchor="start" x="181" y="-214.1" font-family="Helvetica,sans-Serif" font-size="11.00" fill="#000000">LOCATION_ID</text>
<polygon fill="#ffffff" stroke="transparent" points="161,-185 161,-207 375,-207 375,-185 161,-185"/>
<polygon fill="none" stroke="#000000" points="161,-185 161,-207 375,-207 375,-185 161,-185"/>
<image xlink:href="../../images/foreignKeys.png" width="11px" height="12px" preserveAspectRatio="xMinYMin meet" x="166" y="-202"/>
<text text-anchor="start" x="181" y="-192.1" font-family="Helvetica,sans-Serif" font-size="11.00" fill="#000000">DESIGNATION_ID</text>
<polygon fill="#ffffff" stroke="transparent" points="161,-163 161,-185 375,-185 375,-163 161,-163"/>
<polygon fill="none" stroke="#000000" points="161,-163 161,-185 375,-185 375,-163 161,-163"/>
<image xlink:href="../../images/foreignKeys.png" width="11px" height="12px" preserveAspectRatio="xMinYMin meet" x="166" y="-180"/>
<text text-anchor="start" x="181" y="-170.1" font-family="Helvetica,sans-Serif" font-size="11.00" fill="#000000">CREATOR</text>
<polygon fill="#ffffff" stroke="transparent" points="161,-141 161,-163 375,-163 375,-141 161,-141"/>
<polygon fill="none" stroke="#000000" points="161,-141 161,-163 375,-163 375,-141 161,-141"/>
<image xlink:href="../../images/foreignKeys.png" width="11px" height="12px" preserveAspectRatio="xMinYMin meet" x="166" y="-158"/>
<text text-anchor="start" x="181" y="-148.1" font-family="Helvetica,sans-Serif" font-size="11.00" fill="#000000">LAST_MODIFIER</text>
<polygon fill="none" stroke="#000000" points="161,-122 161,-141 375,-141 375,-122 161,-122"/>
<text text-anchor="start" x="164" y="-128.1" font-family="Helvetica,sans-Serif" font-size="11.00" fill="#000000">...</text>
<polygon fill="#ffffff" stroke="transparent" points="161,-103 161,-122 246,-122 246,-103 161,-103"/>
<polygon fill="none" stroke="#000000" points="161,-103 161,-122 246,-122 246,-103 161,-103"/>
<text text-anchor="start" x="164" y="-109.1" font-family="Helvetica,sans-Serif" font-size="11.00" fill="#000000">&lt; 5</text>
<polygon fill="#ffffff" stroke="transparent" points="246,-103 246,-122 316,-122 316,-103 246,-103"/>
<polygon fill="none" stroke="#000000" points="246,-103 246,-122 316,-122 316,-103 246,-103"/>
<text text-anchor="start" x="280.6105" y="-109.1" font-family="Helvetica,sans-Serif" font-size="11.00" fill="#000000">0 rows</text>
<polygon fill="#ffffff" stroke="transparent" points="316,-103 316,-122 375,-122 375,-103 316,-103"/>
<polygon fill="none" stroke="#000000" points="316,-103 316,-122 375,-122 375,-103 316,-103"/>
<text text-anchor="start" x="350.2904" y="-109.1" font-family="Helvetica,sans-Serif" font-size="11.00" fill="#000000">15 &gt;</text>
</a>
</g>
</g>
<!-- User -->
<g id="node2" class="node">
<title>User</title>
<g id="a_node2"><a xlink:href="../../tables/User.html" xlink:title="User" target="_top">
<polygon fill="#ffffff" stroke="transparent" points="8,-66.5 8,-149.5 112,-149.5 112,-66.5 8,-66.5"/>
<polygon fill="#f5f5f5" stroke="transparent" points="8,-126 8,-149 112,-149 112,-126 8,-126"/>
<polygon fill="none" stroke="#000000" points="8,-126 8,-149 112,-149 112,-126 8,-126"/>
<text text-anchor="start" x="13" y="-134.6" font-family="Helvetica,sans-Serif" font-weight="bold" font-size="11.00" fill="#000000">User</text>
<text text-anchor="start" x="77.0437" y="-134.1" font-family="Helvetica,sans-Serif" font-size="11.00" fill="#000000">[table]</text>
<polygon fill="none" stroke="#000000" points="8,-104 8,-126 112,-126 112,-104 8,-104"/>
<image xlink:href="../../images/primaryKeys.png" width="11px" height="12px" preserveAspectRatio="xMinYMin meet" x="13" y="-121"/>
<text text-anchor="start" x="28" y="-111.1" font-family="Helvetica,sans-Serif" font-size="11.00" fill="#000000">userid_pk</text>
<polygon fill="none" stroke="#000000" points="8,-85 8,-104 112,-104 112,-85 8,-85"/>
<text text-anchor="start" x="11" y="-91.1" font-family="Helvetica,sans-Serif" font-size="11.00" fill="#000000">...</text>
<polygon fill="#ffffff" stroke="transparent" points="8,-66 8,-85 30,-85 30,-66 8,-66"/>
<polygon fill="none" stroke="#000000" points="8,-66 8,-85 30,-85 30,-66 8,-66"/>
<text text-anchor="start" x="11" y="-72.1" font-family="Helvetica,sans-Serif" font-size="11.00" fill="#000000"> &#160;</text>
<polygon fill="#ffffff" stroke="transparent" points="30,-66 30,-85 73,-85 73,-66 30,-66"/>
<polygon fill="none" stroke="#000000" points="30,-66 30,-85 73,-85 73,-66 30,-66"/>
<text text-anchor="start" x="37.6105" y="-72.1" font-family="Helvetica,sans-Serif" font-size="11.00" fill="#000000">0 rows</text>
<polygon fill="#ffffff" stroke="transparent" points="73,-66 73,-85 112,-85 112,-66 73,-66"/>
<polygon fill="none" stroke="#000000" points="73,-66 73,-85 112,-85 112,-66 73,-66"/>
<text text-anchor="start" x="81.1755" y="-72.1" font-family="Helvetica,sans-Serif" font-size="11.00" fill="#000000">102 &gt;</text>
</a>
</g>
</g>
<!-- EMPLOYEE&#45;&gt;User -->
<g id="edge1" class="edge">
<title>EMPLOYEE:w&#45;&gt;User:e</title>
<path fill="none" stroke="#000000" d="M147.1662,-168.9697C132.0842,-154.7018 139.9614,-115 112,-115"/>
<polygon fill="#000000" stroke="#000000" points="153.4816,-171.2661 159.7697,-177.3833 157.2408,-172.6331 161,-174 161,-174 161,-174 157.2408,-172.6331 162.2303,-170.6167 153.4816,-171.2661 153.4816,-171.2661"/>
<ellipse fill="none" stroke="#000000" cx="150.4743" cy="-170.1725" rx="3.2" ry="3.2"/>
</g>
<!-- EMPLOYEE&#45;&gt;User -->
<g id="edge2" class="edge">
<title>EMPLOYEE:w&#45;&gt;User:e</title>
<path fill="none" stroke="#000000" d="M147.1217,-147.4631C134.5786,-137.583 133.3196,-115 112,-115"/>
<polygon fill="#000000" stroke="#000000" points="153.396,-149.5142 159.8814,-155.4218 157.198,-150.7571 161,-152 161,-152 161,-152 157.198,-150.7571 162.1186,-148.5782 153.396,-149.5142 153.396,-149.5142"/>
<ellipse fill="none" stroke="#000000" cx="150.3544" cy="-148.5198" rx="3.2" ry="3.2"/>
</g>
<!-- EMPLOYEEEDUCATIONDETAILS -->
<g id="node3" class="node">
<title>EMPLOYEEEDUCATIONDETAILS</title>
<g id="a_node3"><a xlink:href="../../tables/EMPLOYEEEDUCATIONDETAILS.html" xlink:title="EMPLOYEEEDUCATIONDETAILS" target="_top">
<polygon fill="#ffffff" stroke="transparent" points="424,-25 424,-467 723,-467 723,-25 424,-25"/>
<polygon fill="#f5f5f5" stroke="transparent" points="426.5,-442 426.5,-465 721.5,-465 721.5,-442 426.5,-442"/>
<polygon fill="none" stroke="#000000" points="426.5,-442 426.5,-465 721.5,-465 721.5,-442 426.5,-442"/>
<text text-anchor="start" x="431.5" y="-450.6" font-family="Helvetica,sans-Serif" font-weight="bold" font-size="11.00" fill="#000000">EMPLOYEEEDUCATIONDETAILS</text>
<text text-anchor="start" x="686.5437" y="-450.1" font-family="Helvetica,sans-Serif" font-size="11.00" fill="#000000">[table]</text>
<polygon fill="none" stroke="#000000" points="426.5,-420 426.5,-442 654.5,-442 654.5,-420 426.5,-420"/>
<image xlink:href="../../images/primaryKeys.png" width="11px" height="12px" preserveAspectRatio="xMinYMin meet" x="431.5" y="-437"/>
<text text-anchor="start" x="446.5" y="-427.1" font-family="Helvetica,sans-Serif" font-size="11.00" fill="#000000">ID</text>
<polygon fill="none" stroke="#000000" points="654.5,-420 654.5,-442 721.5,-442 721.5,-420 654.5,-420"/>
<text text-anchor="start" x="657.5" y="-427.7" font-family="Helvetica,sans-Serif" font-size="11.00" fill="#000000">int[10]</text>
<polygon fill="none" stroke="#000000" points="426.5,-398 426.5,-420 654.5,-420 654.5,-398 426.5,-398"/>
<text text-anchor="start" x="446.5" y="-405.1" font-family="Helvetica,sans-Serif" font-size="11.00" fill="#000000">WORKSPACE_ID</text>
<polygon fill="none" stroke="#000000" points="654.5,-398 654.5,-420 721.5,-420 721.5,-398 654.5,-398"/>
<text text-anchor="start" x="657.5" y="-405.7" font-family="Helvetica,sans-Serif" font-size="11.00" fill="#000000">int[10]</text>
<polygon fill="none" stroke="#000000" points="426.5,-376 426.5,-398 654.5,-398 654.5,-376 426.5,-376"/>
<text text-anchor="start" x="446.5" y="-383.1" font-family="Helvetica,sans-Serif" font-size="11.00" fill="#000000">INSTITUTE_NAME</text>
<polygon fill="none" stroke="#000000" points="654.5,-376 654.5,-398 721.5,-398 721.5,-376 654.5,-376"/>
<text text-anchor="start" x="657.4365" y="-383.7" font-family="Helvetica,sans-Serif" font-size="11.00" fill="#000000">varchar[100]</text>
<polygon fill="none" stroke="#000000" points="426.5,-354 426.5,-376 654.5,-376 654.5,-354 426.5,-354"/>
<text text-anchor="start" x="446.5" y="-361.1" font-family="Helvetica,sans-Serif" font-size="11.00" fill="#000000">DEGREE_DIPLOMA</text>
<polygon fill="none" stroke="#000000" points="654.5,-354 654.5,-376 721.5,-376 721.5,-354 654.5,-354"/>
<text text-anchor="start" x="657.5" y="-361.7" font-family="Helvetica,sans-Serif" font-size="11.00" fill="#000000">varchar[50]</text>
<polygon fill="none" stroke="#000000" points="426.5,-332 426.5,-354 654.5,-354 654.5,-332 426.5,-332"/>
<text text-anchor="start" x="446.5" y="-339.1" font-family="Helvetica,sans-Serif" font-size="11.00" fill="#000000">SPECIALIZATION</text>
<polygon fill="none" stroke="#000000" points="654.5,-332 654.5,-354 721.5,-354 721.5,-332 654.5,-332"/>
<text text-anchor="start" x="657.5" y="-339.7" font-family="Helvetica,sans-Serif" font-size="11.00" fill="#000000">varchar[50]</text>
<polygon fill="none" stroke="#000000" points="426.5,-310 426.5,-332 654.5,-332 654.5,-310 426.5,-310"/>
<text text-anchor="start" x="446.5" y="-317.1" font-family="Helvetica,sans-Serif" font-size="11.00" fill="#000000">ATTACHMENT1</text>
<polygon fill="none" stroke="#000000" points="654.5,-310 654.5,-332 721.5,-332 721.5,-310 654.5,-310"/>
<text text-anchor="start" x="657.4365" y="-317.7" font-family="Helvetica,sans-Serif" font-size="11.00" fill="#000000">varchar[255]</text>
<polygon fill="none" stroke="#000000" points="426.5,-288 426.5,-310 654.5,-310 654.5,-288 426.5,-288"/>
<text text-anchor="start" x="446.5" y="-295.1" font-family="Helvetica,sans-Serif" font-size="11.00" fill="#000000">ATTACHMENT2</text>
<polygon fill="none" stroke="#000000" points="654.5,-288 654.5,-310 721.5,-310 721.5,-288 654.5,-288"/>
<text text-anchor="start" x="657.4365" y="-295.7" font-family="Helvetica,sans-Serif" font-size="11.00" fill="#000000">varchar[255]</text>
<polygon fill="none" stroke="#000000" points="426.5,-266 426.5,-288 654.5,-288 654.5,-266 426.5,-266"/>
<text text-anchor="start" x="446.5" y="-273.1" font-family="Helvetica,sans-Serif" font-size="11.00" fill="#000000">ATTACHMENT3</text>
<polygon fill="none" stroke="#000000" points="654.5,-266 654.5,-288 721.5,-288 721.5,-266 654.5,-266"/>
<text text-anchor="start" x="657.4365" y="-273.7" font-family="Helvetica,sans-Serif" font-size="11.00" fill="#000000">varchar[255]</text>
<polygon fill="none" stroke="#000000" points="426.5,-244 426.5,-266 654.5,-266 654.5,-244 426.5,-244"/>
<text text-anchor="start" x="446.5" y="-251.1" font-family="Helvetica,sans-Serif" font-size="11.00" fill="#000000">ATTACHMENT4</text>
<polygon fill="none" stroke="#000000" points="654.5,-244 654.5,-266 721.5,-266 721.5,-244 654.5,-244"/>
<text text-anchor="start" x="657.4365" y="-251.7" font-family="Helvetica,sans-Serif" font-size="11.00" fill="#000000">varchar[255]</text>
<polygon fill="none" stroke="#000000" points="426.5,-222 426.5,-244 654.5,-244 654.5,-222 426.5,-222"/>
<text text-anchor="start" x="446.5" y="-229.1" font-family="Helvetica,sans-Serif" font-size="11.00" fill="#000000">ATTACHMENT5</text>
<polygon fill="none" stroke="#000000" points="654.5,-222 654.5,-244 721.5,-244 721.5,-222 654.5,-222"/>
<text text-anchor="start" x="657.4365" y="-229.7" font-family="Helvetica,sans-Serif" font-size="11.00" fill="#000000">varchar[255]</text>
<polygon fill="none" stroke="#000000" points="426.5,-200 426.5,-222 654.5,-222 654.5,-200 426.5,-200"/>
<text text-anchor="start" x="446.5" y="-207.1" font-family="Helvetica,sans-Serif" font-size="11.00" fill="#000000">COURSE_NAME</text>
<polygon fill="none" stroke="#000000" points="654.5,-200 654.5,-222 721.5,-222 721.5,-200 654.5,-200"/>
<text text-anchor="start" x="657.4365" y="-207.7" font-family="Helvetica,sans-Serif" font-size="11.00" fill="#000000">varchar[100]</text>
<polygon fill="none" stroke="#000000" points="426.5,-178 426.5,-200 654.5,-200 654.5,-178 426.5,-178"/>
<text text-anchor="start" x="446.5" y="-185.1" font-family="Helvetica,sans-Serif" font-size="11.00" fill="#000000">DATE_OF_COMPLETION</text>
<polygon fill="none" stroke="#000000" points="654.5,-178 654.5,-200 721.5,-200 721.5,-178 654.5,-178"/>
<text text-anchor="start" x="657.5" y="-185.7" font-family="Helvetica,sans-Serif" font-size="11.00" fill="#000000">datetime[26]</text>
<polygon fill="none" stroke="#000000" points="426.5,-156 426.5,-178 654.5,-178 654.5,-156 426.5,-156"/>
<text text-anchor="start" x="446.5" y="-163.1" font-family="Helvetica,sans-Serif" font-size="11.00" fill="#000000">ROW_ID</text>
<polygon fill="none" stroke="#000000" points="654.5,-156 654.5,-178 721.5,-178 721.5,-156 654.5,-156"/>
<text text-anchor="start" x="657.5" y="-163.7" font-family="Helvetica,sans-Serif" font-size="11.00" fill="#000000">int[10]</text>
<polygon fill="#ffffff" stroke="transparent" points="426.5,-134 426.5,-156 654.5,-156 654.5,-134 426.5,-134"/>
<polygon fill="none" stroke="#000000" points="426.5,-134 426.5,-156 654.5,-156 654.5,-134 426.5,-134"/>
<image xlink:href="../../images/foreignKeys.png" width="11px" height="12px" preserveAspectRatio="xMinYMin meet" x="431.5" y="-151"/>
<text text-anchor="start" x="446.5" y="-141.1" font-family="Helvetica,sans-Serif" font-size="11.00" fill="#000000">EMPLOYEE_ID</text>
<polygon fill="none" stroke="#000000" points="654.5,-134 654.5,-156 721.5,-156 721.5,-134 654.5,-134"/>
<text text-anchor="start" x="657.5" y="-141.7" font-family="Helvetica,sans-Serif" font-size="11.00" fill="#000000">int[10]</text>
<polygon fill="none" stroke="#000000" points="426.5,-112 426.5,-134 654.5,-134 654.5,-112 426.5,-112"/>
<text text-anchor="start" x="446.5" y="-119.1" font-family="Helvetica,sans-Serif" font-size="11.00" fill="#000000">CREATED_TIME</text>
<polygon fill="none" stroke="#000000" points="654.5,-112 654.5,-134 721.5,-134 721.5,-112 654.5,-112"/>
<text text-anchor="start" x="657.5" y="-119.7" font-family="Helvetica,sans-Serif" font-size="11.00" fill="#000000">datetime[26]</text>
<polygon fill="none" stroke="#000000" points="426.5,-90 426.5,-112 654.5,-112 654.5,-90 426.5,-90"/>
<text text-anchor="start" x="446.5" y="-97.1" font-family="Helvetica,sans-Serif" font-size="11.00" fill="#000000">MODIFIED_TIME</text>
<polygon fill="none" stroke="#000000" points="654.5,-90 654.5,-112 721.5,-112 721.5,-90 654.5,-90"/>
<text text-anchor="start" x="657.5" y="-97.7" font-family="Helvetica,sans-Serif" font-size="11.00" fill="#000000">datetime[26]</text>
<polygon fill="#ffffff" stroke="transparent" points="426.5,-68 426.5,-90 654.5,-90 654.5,-68 426.5,-68"/>
<polygon fill="none" stroke="#000000" points="426.5,-68 426.5,-90 654.5,-90 654.5,-68 426.5,-68"/>
<image xlink:href="../../images/foreignKeys.png" width="11px" height="12px" preserveAspectRatio="xMinYMin meet" x="431.5" y="-85"/>
<text text-anchor="start" x="446.5" y="-75.1" font-family="Helvetica,sans-Serif" font-size="11.00" fill="#000000">CREATOR</text>
<polygon fill="none" stroke="#000000" points="654.5,-68 654.5,-90 721.5,-90 721.5,-68 654.5,-68"/>
<text text-anchor="start" x="657.5" y="-75.7" font-family="Helvetica,sans-Serif" font-size="11.00" fill="#000000">int[10]</text>
<polygon fill="#ffffff" stroke="transparent" points="426.5,-46 426.5,-68 654.5,-68 654.5,-46 426.5,-46"/>
<polygon fill="none" stroke="#000000" points="426.5,-46 426.5,-68 654.5,-68 654.5,-46 426.5,-46"/>
<image xlink:href="../../images/foreignKeys.png" width="11px" height="12px" preserveAspectRatio="xMinYMin meet" x="431.5" y="-63"/>
<text text-anchor="start" x="446.5" y="-53.1" font-family="Helvetica,sans-Serif" font-size="11.00" fill="#000000">LAST_MODIFIER</text>
<polygon fill="none" stroke="#000000" points="654.5,-46 654.5,-68 721.5,-68 721.5,-46 654.5,-46"/>
<text text-anchor="start" x="657.5" y="-53.7" font-family="Helvetica,sans-Serif" font-size="11.00" fill="#000000">int[10]</text>
<polygon fill="#ffffff" stroke="transparent" points="426.5,-27 426.5,-46 531.5,-46 531.5,-27 426.5,-27"/>
<polygon fill="none" stroke="#000000" points="426.5,-27 426.5,-46 531.5,-46 531.5,-27 426.5,-27"/>
<text text-anchor="start" x="429.5" y="-33.1" font-family="Helvetica,sans-Serif" font-size="11.00" fill="#000000">&lt; 3</text>
<polygon fill="#ffffff" stroke="transparent" points="531.5,-27 531.5,-46 654.5,-46 654.5,-27 531.5,-27"/>
<polygon fill="none" stroke="#000000" points="531.5,-27 531.5,-46 654.5,-46 654.5,-27 531.5,-27"/>
<text text-anchor="start" x="619.1105" y="-33.1" font-family="Helvetica,sans-Serif" font-size="11.00" fill="#000000">0 rows</text>
<polygon fill="#ffffff" stroke="transparent" points="654.5,-27 654.5,-46 721.5,-46 721.5,-27 654.5,-27"/>
<polygon fill="none" stroke="#000000" points="654.5,-27 654.5,-46 721.5,-46 721.5,-27 654.5,-27"/>
<text text-anchor="start" x="702.9053" y="-33.1" font-family="Helvetica,sans-Serif" font-size="11.00" fill="#000000">0 &gt;</text>
<polygon fill="none" stroke="#000000" stroke-width="2" points="425,-26 425,-466 722,-466 722,-26 425,-26"/>
</a>
</g>
</g>
<!-- EMPLOYEEEDUCATIONDETAILS&#45;&gt;EMPLOYEE -->
<g id="edge4" class="edge">
<title>EMPLOYEEEDUCATIONDETAILS:w&#45;&gt;EMPLOYEE:e</title>
<path fill="none" stroke="#000000" d="M412.2137,-148.6299C381.4677,-168.3782 425.8225,-262 375,-262"/>
<polygon fill="#000000" stroke="#000000" points="418.7464,-146.9701 427.3865,-148.4891 422.6232,-145.985 426.5,-145 426.5,-145 426.5,-145 422.6232,-145.985 425.6135,-141.5109 418.7464,-146.9701 418.7464,-146.9701"/>
<ellipse fill="none" stroke="#000000" cx="415.6449" cy="-147.7581" rx="3.2" ry="3.2"/>
</g>
<!-- EMPLOYEEEDUCATIONDETAILS&#45;&gt;User -->
<g id="edge3" class="edge">
<title>EMPLOYEEEDUCATIONDETAILS:w&#45;&gt;User:e</title>
<path fill="none" stroke="#000000" d="M411.9516,-78.9106C301.8129,-77.5542 265.4371,-61.6623 153,-93 133.0794,-98.5521 132.6798,-115 112,-115"/>
<polygon fill="#000000" stroke="#000000" points="418.5002,-78.9508 426.4778,-82.5999 422.5001,-78.9754 426.5,-79 426.5,-79 426.5,-79 422.5001,-78.9754 426.5222,-75.4001 418.5002,-78.9508 418.5002,-78.9508"/>
<ellipse fill="none" stroke="#000000" cx="415.3002" cy="-78.9311" rx="3.2" ry="3.2"/>
</g>
<!-- EMPLOYEEEDUCATIONDETAILS&#45;&gt;User -->
<g id="edge5" class="edge">
<title>EMPLOYEEEDUCATIONDETAILS:w&#45;&gt;User:e</title>
<path fill="none" stroke="#000000" d="M411.9196,-56.8131C301.2723,-53.9697 258.6015,-20.3254 153,-70 128.5171,-81.5167 139.0564,-115 112,-115"/>
<polygon fill="#000000" stroke="#000000" points="418.5007,-56.8974 426.4538,-60.5997 422.5003,-56.9487 426.5,-57 426.5,-57 426.5,-57 422.5003,-56.9487 426.5462,-53.4003 418.5007,-56.8974 418.5007,-56.8974"/>
<ellipse fill="none" stroke="#000000" cx="415.3009" cy="-56.8564" rx="3.2" ry="3.2"/>
</g>
</g>
</svg>
