<?xml version="1.0" encoding="UTF-8" standalone="no"?>
<!DOCTYPE svg PUBLIC "-//W3C//DTD SVG 1.1//EN"
 "http://www.w3.org/Graphics/SVG/1.1/DTD/svg11.dtd">
<!-- Generated by graphviz version 2.40.1 (20161225.0304)
 -->
<!-- Title: oneDegreeRelationshipsDiagram Pages: 1 -->
<svg width="771pt" height="655pt"
 viewBox="0.00 0.00 771.00 655.00" xmlns="http://www.w3.org/2000/svg" xmlns:xlink="http://www.w3.org/1999/xlink">
<g id="graph0" class="graph" transform="scale(1 1) rotate(0) translate(4 651)">
<title>oneDegreeRelationshipsDiagram</title>
<polygon fill="#ffffff" stroke="transparent" points="-4,4 -4,-651 767,-651 767,4 -4,4"/>
<!-- EMPLOYEE -->
<g id="node1" class="node">
<title>EMPLOYEE</title>
<g id="a_node1"><a xlink:href="../../tables/EMPLOYEE.html" xlink:title="EMPLOYEE" target="_top">
<polygon fill="#ffffff" stroke="transparent" points="161,-108.5 161,-301.5 375,-301.5 375,-108.5 161,-108.5"/>
<polygon fill="#f5f5f5" stroke="transparent" points="161,-278 161,-301 375,-301 375,-278 161,-278"/>
<polygon fill="none" stroke="#000000" points="161,-278 161,-301 375,-301 375,-278 161,-278"/>
<text text-anchor="start" x="166" y="-286.6" font-family="Helvetica,sans-Serif" font-weight="bold" font-size="11.00" fill="#000000">EMPLOYEE</text>
<text text-anchor="start" x="340.0437" y="-286.1" font-family="Helvetica,sans-Serif" font-size="11.00" fill="#000000">[table]</text>
<polygon fill="none" stroke="#000000" points="161,-256 161,-278 375,-278 375,-256 161,-256"/>
<image xlink:href="../../images/primaryKeys.png" width="11px" height="12px" preserveAspectRatio="xMinYMin meet" x="166" y="-273"/>
<text text-anchor="start" x="181" y="-263.1" font-family="Helvetica,sans-Serif" font-size="11.00" fill="#000000">ID</text>
<polygon fill="#ffffff" stroke="transparent" points="161,-234 161,-256 375,-256 375,-234 161,-234"/>
<polygon fill="none" stroke="#000000" points="161,-234 161,-256 375,-256 375,-234 161,-234"/>
<image xlink:href="../../images/foreignKeys.png" width="11px" height="12px" preserveAspectRatio="xMinYMin meet" x="166" y="-251"/>
<text text-anchor="start" x="181" y="-241.1" font-family="Helvetica,sans-Serif" font-size="11.00" fill="#000000">DEPARTMENT_ID</text>
<polygon fill="#ffffff" stroke="transparent" points="161,-212 161,-234 375,-234 375,-212 161,-212"/>
<polygon fill="none" stroke="#000000" points="161,-212 161,-234 375,-234 375,-212 161,-212"/>
<image xlink:href="../../images/foreignKeys.png" width="11px" height="12px" preserveAspectRatio="xMinYMin meet" x="166" y="-229"/>
<text text-anchor="start" x="181" y="-219.1" font-family="Helvetica,sans-Serif" font-size="11.00" fill="#000000">LOCATION_ID</text>
<polygon fill="#ffffff" stroke="transparent" points="161,-190 161,-212 375,-212 375,-190 161,-190"/>
<polygon fill="none" stroke="#000000" points="161,-190 161,-212 375,-212 375,-190 161,-190"/>
<image xlink:href="../../images/foreignKeys.png" width="11px" height="12px" preserveAspectRatio="xMinYMin meet" x="166" y="-207"/>
<text text-anchor="start" x="181" y="-197.1" font-family="Helvetica,sans-Serif" font-size="11.00" fill="#000000">DESIGNATION_ID</text>
<polygon fill="#ffffff" stroke="transparent" points="161,-168 161,-190 375,-190 375,-168 161,-168"/>
<polygon fill="none" stroke="#000000" points="161,-168 161,-190 375,-190 375,-168 161,-168"/>
<image xlink:href="../../images/foreignKeys.png" width="11px" height="12px" preserveAspectRatio="xMinYMin meet" x="166" y="-185"/>
<text text-anchor="start" x="181" y="-175.1" font-family="Helvetica,sans-Serif" font-size="11.00" fill="#000000">CREATOR</text>
<polygon fill="#ffffff" stroke="transparent" points="161,-146 161,-168 375,-168 375,-146 161,-146"/>
<polygon fill="none" stroke="#000000" points="161,-146 161,-168 375,-168 375,-146 161,-146"/>
<image xlink:href="../../images/foreignKeys.png" width="11px" height="12px" preserveAspectRatio="xMinYMin meet" x="166" y="-163"/>
<text text-anchor="start" x="181" y="-153.1" font-family="Helvetica,sans-Serif" font-size="11.00" fill="#000000">LAST_MODIFIER</text>
<polygon fill="none" stroke="#000000" points="161,-127 161,-146 375,-146 375,-127 161,-127"/>
<text text-anchor="start" x="164" y="-133.1" font-family="Helvetica,sans-Serif" font-size="11.00" fill="#000000">...</text>
<polygon fill="#ffffff" stroke="transparent" points="161,-108 161,-127 246,-127 246,-108 161,-108"/>
<polygon fill="none" stroke="#000000" points="161,-108 161,-127 246,-127 246,-108 161,-108"/>
<text text-anchor="start" x="164" y="-114.1" font-family="Helvetica,sans-Serif" font-size="11.00" fill="#000000">&lt; 5</text>
<polygon fill="#ffffff" stroke="transparent" points="246,-108 246,-127 316,-127 316,-108 246,-108"/>
<polygon fill="none" stroke="#000000" points="246,-108 246,-127 316,-127 316,-108 246,-108"/>
<text text-anchor="start" x="280.6105" y="-114.1" font-family="Helvetica,sans-Serif" font-size="11.00" fill="#000000">0 rows</text>
<polygon fill="#ffffff" stroke="transparent" points="316,-108 316,-127 375,-127 375,-108 316,-108"/>
<polygon fill="none" stroke="#000000" points="316,-108 316,-127 375,-127 375,-108 316,-108"/>
<text text-anchor="start" x="350.2904" y="-114.1" font-family="Helvetica,sans-Serif" font-size="11.00" fill="#000000">15 &gt;</text>
</a>
</g>
</g>
<!-- User -->
<g id="node2" class="node">
<title>User</title>
<g id="a_node2"><a xlink:href="../../tables/User.html" xlink:title="User" target="_top">
<polygon fill="#ffffff" stroke="transparent" points="8,-71.5 8,-154.5 112,-154.5 112,-71.5 8,-71.5"/>
<polygon fill="#f5f5f5" stroke="transparent" points="8,-131 8,-154 112,-154 112,-131 8,-131"/>
<polygon fill="none" stroke="#000000" points="8,-131 8,-154 112,-154 112,-131 8,-131"/>
<text text-anchor="start" x="13" y="-139.6" font-family="Helvetica,sans-Serif" font-weight="bold" font-size="11.00" fill="#000000">User</text>
<text text-anchor="start" x="77.0437" y="-139.1" font-family="Helvetica,sans-Serif" font-size="11.00" fill="#000000">[table]</text>
<polygon fill="none" stroke="#000000" points="8,-109 8,-131 112,-131 112,-109 8,-109"/>
<image xlink:href="../../images/primaryKeys.png" width="11px" height="12px" preserveAspectRatio="xMinYMin meet" x="13" y="-126"/>
<text text-anchor="start" x="28" y="-116.1" font-family="Helvetica,sans-Serif" font-size="11.00" fill="#000000">userid_pk</text>
<polygon fill="none" stroke="#000000" points="8,-90 8,-109 112,-109 112,-90 8,-90"/>
<text text-anchor="start" x="11" y="-96.1" font-family="Helvetica,sans-Serif" font-size="11.00" fill="#000000">...</text>
<polygon fill="#ffffff" stroke="transparent" points="8,-71 8,-90 30,-90 30,-71 8,-71"/>
<polygon fill="none" stroke="#000000" points="8,-71 8,-90 30,-90 30,-71 8,-71"/>
<text text-anchor="start" x="11" y="-77.1" font-family="Helvetica,sans-Serif" font-size="11.00" fill="#000000"> &#160;</text>
<polygon fill="#ffffff" stroke="transparent" points="30,-71 30,-90 73,-90 73,-71 30,-71"/>
<polygon fill="none" stroke="#000000" points="30,-71 30,-90 73,-90 73,-71 30,-71"/>
<text text-anchor="start" x="37.6105" y="-77.1" font-family="Helvetica,sans-Serif" font-size="11.00" fill="#000000">0 rows</text>
<polygon fill="#ffffff" stroke="transparent" points="73,-71 73,-90 112,-90 112,-71 73,-71"/>
<polygon fill="none" stroke="#000000" points="73,-71 73,-90 112,-90 112,-71 73,-71"/>
<text text-anchor="start" x="81.1755" y="-77.1" font-family="Helvetica,sans-Serif" font-size="11.00" fill="#000000">102 &gt;</text>
</a>
</g>
</g>
<!-- EMPLOYEE&#45;&gt;User -->
<g id="edge1" class="edge">
<title>EMPLOYEE:w&#45;&gt;User:e</title>
<path fill="none" stroke="#000000" d="M147.1662,-173.9697C132.0842,-159.7018 139.9614,-120 112,-120"/>
<polygon fill="#000000" stroke="#000000" points="153.4816,-176.2661 159.7697,-182.3833 157.2408,-177.6331 161,-179 161,-179 161,-179 157.2408,-177.6331 162.2303,-175.6167 153.4816,-176.2661 153.4816,-176.2661"/>
<ellipse fill="none" stroke="#000000" cx="150.4743" cy="-175.1725" rx="3.2" ry="3.2"/>
</g>
<!-- EMPLOYEE&#45;&gt;User -->
<g id="edge2" class="edge">
<title>EMPLOYEE:w&#45;&gt;User:e</title>
<path fill="none" stroke="#000000" d="M147.1217,-152.4631C134.5786,-142.583 133.3196,-120 112,-120"/>
<polygon fill="#000000" stroke="#000000" points="153.396,-154.5142 159.8814,-160.4218 157.198,-155.7571 161,-157 161,-157 161,-157 157.198,-155.7571 162.1186,-153.5782 153.396,-154.5142 153.396,-154.5142"/>
<ellipse fill="none" stroke="#000000" cx="150.3544" cy="-153.5198" rx="3.2" ry="3.2"/>
</g>
<!-- EMPLOYEE_MONTHLY_ATTENDANCE -->
<g id="node3" class="node">
<title>EMPLOYEE_MONTHLY_ATTENDANCE</title>
<g id="a_node3"><a xlink:href="../../tables/EMPLOYEE_MONTHLY_ATTENDANCE.html" xlink:title="EMPLOYEE_MONTHLY_ATTENDANCE" target="_top">
<polygon fill="#ffffff" stroke="transparent" points="424,-25 424,-643 755,-643 755,-25 424,-25"/>
<polygon fill="#f5f5f5" stroke="transparent" points="426.5,-618 426.5,-641 753.5,-641 753.5,-618 426.5,-618"/>
<polygon fill="none" stroke="#000000" points="426.5,-618 426.5,-641 753.5,-641 753.5,-618 426.5,-618"/>
<text text-anchor="start" x="431.5" y="-626.6" font-family="Helvetica,sans-Serif" font-weight="bold" font-size="11.00" fill="#000000">EMPLOYEE_MONTHLY_ATTENDANCE</text>
<text text-anchor="start" x="718.5437" y="-626.1" font-family="Helvetica,sans-Serif" font-size="11.00" fill="#000000">[table]</text>
<polygon fill="none" stroke="#000000" points="426.5,-596 426.5,-618 687.5,-618 687.5,-596 426.5,-596"/>
<image xlink:href="../../images/primaryKeys.png" width="11px" height="12px" preserveAspectRatio="xMinYMin meet" x="431.5" y="-613"/>
<text text-anchor="start" x="446.5" y="-603.1" font-family="Helvetica,sans-Serif" font-size="11.00" fill="#000000">ID</text>
<polygon fill="none" stroke="#000000" points="687.5,-596 687.5,-618 753.5,-618 753.5,-596 687.5,-596"/>
<text text-anchor="start" x="690.5" y="-603.7" font-family="Helvetica,sans-Serif" font-size="11.00" fill="#000000">int[10]</text>
<polygon fill="none" stroke="#000000" points="426.5,-574 426.5,-596 687.5,-596 687.5,-574 426.5,-574"/>
<text text-anchor="start" x="446.5" y="-581.1" font-family="Helvetica,sans-Serif" font-size="11.00" fill="#000000">WORKSPACE_ID</text>
<polygon fill="none" stroke="#000000" points="687.5,-574 687.5,-596 753.5,-596 753.5,-574 687.5,-574"/>
<text text-anchor="start" x="690.5" y="-581.7" font-family="Helvetica,sans-Serif" font-size="11.00" fill="#000000">int[10]</text>
<polygon fill="#ffffff" stroke="transparent" points="426.5,-552 426.5,-574 687.5,-574 687.5,-552 426.5,-552"/>
<polygon fill="none" stroke="#000000" points="426.5,-552 426.5,-574 687.5,-574 687.5,-552 426.5,-552"/>
<image xlink:href="../../images/foreignKeys.png" width="11px" height="12px" preserveAspectRatio="xMinYMin meet" x="431.5" y="-569"/>
<text text-anchor="start" x="446.5" y="-559.1" font-family="Helvetica,sans-Serif" font-size="11.00" fill="#000000">EMPLOYEE_ID</text>
<polygon fill="none" stroke="#000000" points="687.5,-552 687.5,-574 753.5,-574 753.5,-552 687.5,-552"/>
<text text-anchor="start" x="690.5" y="-559.7" font-family="Helvetica,sans-Serif" font-size="11.00" fill="#000000">int[10]</text>
<polygon fill="none" stroke="#000000" points="426.5,-530 426.5,-552 687.5,-552 687.5,-530 426.5,-530"/>
<text text-anchor="start" x="446.5" y="-537.1" font-family="Helvetica,sans-Serif" font-size="11.00" fill="#000000">PAYABLE_DAYS</text>
<polygon fill="none" stroke="#000000" points="687.5,-530 687.5,-552 753.5,-552 753.5,-530 687.5,-530"/>
<text text-anchor="start" x="690.5" y="-537.7" font-family="Helvetica,sans-Serif" font-size="11.00" fill="#000000">int[10]</text>
<polygon fill="none" stroke="#000000" points="426.5,-508 426.5,-530 687.5,-530 687.5,-508 426.5,-508"/>
<text text-anchor="start" x="446.5" y="-515.1" font-family="Helvetica,sans-Serif" font-size="11.00" fill="#000000">WORKING_DAYS</text>
<polygon fill="none" stroke="#000000" points="687.5,-508 687.5,-530 753.5,-530 753.5,-508 687.5,-508"/>
<text text-anchor="start" x="690.5" y="-515.7" font-family="Helvetica,sans-Serif" font-size="11.00" fill="#000000">int[10]</text>
<polygon fill="none" stroke="#000000" points="426.5,-486 426.5,-508 687.5,-508 687.5,-486 426.5,-486"/>
<text text-anchor="start" x="446.5" y="-493.1" font-family="Helvetica,sans-Serif" font-size="11.00" fill="#000000">TOTAL_PAYABLE_DAYS</text>
<polygon fill="none" stroke="#000000" points="687.5,-486 687.5,-508 753.5,-508 753.5,-486 687.5,-486"/>
<text text-anchor="start" x="690.5" y="-493.7" font-family="Helvetica,sans-Serif" font-size="11.00" fill="#000000">int[10]</text>
<polygon fill="none" stroke="#000000" points="426.5,-464 426.5,-486 687.5,-486 687.5,-464 426.5,-464"/>
<text text-anchor="start" x="446.5" y="-471.1" font-family="Helvetica,sans-Serif" font-size="11.00" fill="#000000">TOTAL_WORKED_DAYS</text>
<polygon fill="none" stroke="#000000" points="687.5,-464 687.5,-486 753.5,-486 753.5,-464 687.5,-464"/>
<text text-anchor="start" x="690.5" y="-471.7" font-family="Helvetica,sans-Serif" font-size="11.00" fill="#000000">int[10]</text>
<polygon fill="none" stroke="#000000" points="426.5,-442 426.5,-464 687.5,-464 687.5,-442 426.5,-442"/>
<text text-anchor="start" x="446.5" y="-449.1" font-family="Helvetica,sans-Serif" font-size="11.00" fill="#000000">PAID_LEAVE_IN_DAYS</text>
<polygon fill="none" stroke="#000000" points="687.5,-442 687.5,-464 753.5,-464 753.5,-442 687.5,-442"/>
<text text-anchor="start" x="690.5" y="-449.7" font-family="Helvetica,sans-Serif" font-size="11.00" fill="#000000">int[10]</text>
<polygon fill="none" stroke="#000000" points="426.5,-420 426.5,-442 687.5,-442 687.5,-420 426.5,-420"/>
<text text-anchor="start" x="446.5" y="-427.1" font-family="Helvetica,sans-Serif" font-size="11.00" fill="#000000">GOV_HOLIDAYS_IN_DAYS</text>
<polygon fill="none" stroke="#000000" points="687.5,-420 687.5,-442 753.5,-442 753.5,-420 687.5,-420"/>
<text text-anchor="start" x="690.5" y="-427.7" font-family="Helvetica,sans-Serif" font-size="11.00" fill="#000000">int[10]</text>
<polygon fill="none" stroke="#000000" points="426.5,-398 426.5,-420 687.5,-420 687.5,-398 426.5,-398"/>
<text text-anchor="start" x="446.5" y="-405.1" font-family="Helvetica,sans-Serif" font-size="11.00" fill="#000000">WEEKENDS_IN_DAYS</text>
<polygon fill="none" stroke="#000000" points="687.5,-398 687.5,-420 753.5,-420 753.5,-398 687.5,-398"/>
<text text-anchor="start" x="690.5" y="-405.7" font-family="Helvetica,sans-Serif" font-size="11.00" fill="#000000">int[10]</text>
<polygon fill="none" stroke="#000000" points="426.5,-376 426.5,-398 687.5,-398 687.5,-376 426.5,-376"/>
<text text-anchor="start" x="446.5" y="-383.1" font-family="Helvetica,sans-Serif" font-size="11.00" fill="#000000">TOTAL_PAID_OFF_IN_DAYS</text>
<polygon fill="none" stroke="#000000" points="687.5,-376 687.5,-398 753.5,-398 753.5,-376 687.5,-376"/>
<text text-anchor="start" x="690.5" y="-383.7" font-family="Helvetica,sans-Serif" font-size="11.00" fill="#000000">int[10]</text>
<polygon fill="none" stroke="#000000" points="426.5,-354 426.5,-376 687.5,-376 687.5,-354 426.5,-354"/>
<text text-anchor="start" x="446.5" y="-361.1" font-family="Helvetica,sans-Serif" font-size="11.00" fill="#000000">UNPAID_LEAVE_IN_DAYS</text>
<polygon fill="none" stroke="#000000" points="687.5,-354 687.5,-376 753.5,-376 753.5,-354 687.5,-354"/>
<text text-anchor="start" x="690.5" y="-361.7" font-family="Helvetica,sans-Serif" font-size="11.00" fill="#000000">int[10]</text>
<polygon fill="none" stroke="#000000" points="426.5,-332 426.5,-354 687.5,-354 687.5,-332 426.5,-332"/>
<text text-anchor="start" x="446.5" y="-339.1" font-family="Helvetica,sans-Serif" font-size="11.00" fill="#000000">TOTAL_ABSENT_IN_DAYS</text>
<polygon fill="none" stroke="#000000" points="687.5,-332 687.5,-354 753.5,-354 753.5,-332 687.5,-332"/>
<text text-anchor="start" x="690.5" y="-339.7" font-family="Helvetica,sans-Serif" font-size="11.00" fill="#000000">int[10]</text>
<polygon fill="none" stroke="#000000" points="426.5,-310 426.5,-332 687.5,-332 687.5,-310 426.5,-310"/>
<text text-anchor="start" x="446.5" y="-317.1" font-family="Helvetica,sans-Serif" font-size="11.00" fill="#000000">EXPECTED_PAYABLE_HOURS</text>
<polygon fill="none" stroke="#000000" points="687.5,-310 687.5,-332 753.5,-332 753.5,-310 687.5,-310"/>
<text text-anchor="start" x="690.5" y="-317.7" font-family="Helvetica,sans-Serif" font-size="11.00" fill="#000000">varchar[50]</text>
<polygon fill="none" stroke="#000000" points="426.5,-288 426.5,-310 687.5,-310 687.5,-288 426.5,-288"/>
<text text-anchor="start" x="446.5" y="-295.1" font-family="Helvetica,sans-Serif" font-size="11.00" fill="#000000">ACTUAL_WORKED_HOURS</text>
<polygon fill="none" stroke="#000000" points="687.5,-288 687.5,-310 753.5,-310 753.5,-288 687.5,-288"/>
<text text-anchor="start" x="690.5" y="-295.7" font-family="Helvetica,sans-Serif" font-size="11.00" fill="#000000">varchar[50]</text>
<polygon fill="none" stroke="#000000" points="426.5,-266 426.5,-288 687.5,-288 687.5,-266 426.5,-266"/>
<text text-anchor="start" x="446.5" y="-273.1" font-family="Helvetica,sans-Serif" font-size="11.00" fill="#000000">PAID_LEAVE_IN_HOURS</text>
<polygon fill="none" stroke="#000000" points="687.5,-266 687.5,-288 753.5,-288 753.5,-266 687.5,-266"/>
<text text-anchor="start" x="690.5" y="-273.7" font-family="Helvetica,sans-Serif" font-size="11.00" fill="#000000">varchar[50]</text>
<polygon fill="none" stroke="#000000" points="426.5,-244 426.5,-266 687.5,-266 687.5,-244 426.5,-244"/>
<text text-anchor="start" x="446.5" y="-251.1" font-family="Helvetica,sans-Serif" font-size="11.00" fill="#000000">TOTAL_PAYABLE_HOURS</text>
<polygon fill="none" stroke="#000000" points="687.5,-244 687.5,-266 753.5,-266 753.5,-244 687.5,-244"/>
<text text-anchor="start" x="690.5" y="-251.7" font-family="Helvetica,sans-Serif" font-size="11.00" fill="#000000">varchar[50]</text>
<polygon fill="none" stroke="#000000" points="426.5,-222 426.5,-244 687.5,-244 687.5,-222 426.5,-222"/>
<text text-anchor="start" x="446.5" y="-229.1" font-family="Helvetica,sans-Serif" font-size="11.00" fill="#000000">EXPECTED_WORKING_HOURS</text>
<polygon fill="none" stroke="#000000" points="687.5,-222 687.5,-244 753.5,-244 753.5,-222 687.5,-222"/>
<text text-anchor="start" x="690.5" y="-229.7" font-family="Helvetica,sans-Serif" font-size="11.00" fill="#000000">varchar[50]</text>
<polygon fill="none" stroke="#000000" points="426.5,-200 426.5,-222 687.5,-222 687.5,-200 426.5,-200"/>
<text text-anchor="start" x="446.5" y="-207.1" font-family="Helvetica,sans-Serif" font-size="11.00" fill="#000000">TOTAL_WORKED_HOURS</text>
<polygon fill="none" stroke="#000000" points="687.5,-200 687.5,-222 753.5,-222 753.5,-200 687.5,-200"/>
<text text-anchor="start" x="690.5" y="-207.7" font-family="Helvetica,sans-Serif" font-size="11.00" fill="#000000">varchar[50]</text>
<polygon fill="none" stroke="#000000" points="426.5,-178 426.5,-200 687.5,-200 687.5,-178 426.5,-178"/>
<text text-anchor="start" x="446.5" y="-185.1" font-family="Helvetica,sans-Serif" font-size="11.00" fill="#000000">OVERTIME_HOURS</text>
<polygon fill="none" stroke="#000000" points="687.5,-178 687.5,-200 753.5,-200 753.5,-178 687.5,-178"/>
<text text-anchor="start" x="690.5" y="-185.7" font-family="Helvetica,sans-Serif" font-size="11.00" fill="#000000">varchar[50]</text>
<polygon fill="none" stroke="#000000" points="426.5,-156 426.5,-178 687.5,-178 687.5,-156 426.5,-156"/>
<text text-anchor="start" x="446.5" y="-163.1" font-family="Helvetica,sans-Serif" font-size="11.00" fill="#000000">START_DATE</text>
<polygon fill="none" stroke="#000000" points="687.5,-156 687.5,-178 753.5,-178 753.5,-156 687.5,-156"/>
<text text-anchor="start" x="690.2401" y="-163.7" font-family="Helvetica,sans-Serif" font-size="11.00" fill="#000000">datetime[26]</text>
<polygon fill="none" stroke="#000000" points="426.5,-134 426.5,-156 687.5,-156 687.5,-134 426.5,-134"/>
<text text-anchor="start" x="446.5" y="-141.1" font-family="Helvetica,sans-Serif" font-size="11.00" fill="#000000">END_DATE</text>
<polygon fill="none" stroke="#000000" points="687.5,-134 687.5,-156 753.5,-156 753.5,-134 687.5,-134"/>
<text text-anchor="start" x="690.2401" y="-141.7" font-family="Helvetica,sans-Serif" font-size="11.00" fill="#000000">datetime[26]</text>
<polygon fill="none" stroke="#000000" points="426.5,-112 426.5,-134 687.5,-134 687.5,-112 426.5,-112"/>
<text text-anchor="start" x="446.5" y="-119.1" font-family="Helvetica,sans-Serif" font-size="11.00" fill="#000000">CREATED_TIME</text>
<polygon fill="none" stroke="#000000" points="687.5,-112 687.5,-134 753.5,-134 753.5,-112 687.5,-112"/>
<text text-anchor="start" x="690.2401" y="-119.7" font-family="Helvetica,sans-Serif" font-size="11.00" fill="#000000">datetime[26]</text>
<polygon fill="none" stroke="#000000" points="426.5,-90 426.5,-112 687.5,-112 687.5,-90 426.5,-90"/>
<text text-anchor="start" x="446.5" y="-97.1" font-family="Helvetica,sans-Serif" font-size="11.00" fill="#000000">MODIFIED_TIME</text>
<polygon fill="none" stroke="#000000" points="687.5,-90 687.5,-112 753.5,-112 753.5,-90 687.5,-90"/>
<text text-anchor="start" x="690.2401" y="-97.7" font-family="Helvetica,sans-Serif" font-size="11.00" fill="#000000">datetime[26]</text>
<polygon fill="#ffffff" stroke="transparent" points="426.5,-68 426.5,-90 687.5,-90 687.5,-68 426.5,-68"/>
<polygon fill="none" stroke="#000000" points="426.5,-68 426.5,-90 687.5,-90 687.5,-68 426.5,-68"/>
<image xlink:href="../../images/foreignKeys.png" width="11px" height="12px" preserveAspectRatio="xMinYMin meet" x="431.5" y="-85"/>
<text text-anchor="start" x="446.5" y="-75.1" font-family="Helvetica,sans-Serif" font-size="11.00" fill="#000000">CREATOR</text>
<polygon fill="none" stroke="#000000" points="687.5,-68 687.5,-90 753.5,-90 753.5,-68 687.5,-68"/>
<text text-anchor="start" x="690.5" y="-75.7" font-family="Helvetica,sans-Serif" font-size="11.00" fill="#000000">int[10]</text>
<polygon fill="#ffffff" stroke="transparent" points="426.5,-46 426.5,-68 687.5,-68 687.5,-46 426.5,-46"/>
<polygon fill="none" stroke="#000000" points="426.5,-46 426.5,-68 687.5,-68 687.5,-46 426.5,-46"/>
<image xlink:href="../../images/foreignKeys.png" width="11px" height="12px" preserveAspectRatio="xMinYMin meet" x="431.5" y="-63"/>
<text text-anchor="start" x="446.5" y="-53.1" font-family="Helvetica,sans-Serif" font-size="11.00" fill="#000000">LAST_MODIFIER</text>
<polygon fill="none" stroke="#000000" points="687.5,-46 687.5,-68 753.5,-68 753.5,-46 687.5,-46"/>
<text text-anchor="start" x="690.5" y="-53.7" font-family="Helvetica,sans-Serif" font-size="11.00" fill="#000000">int[10]</text>
<polygon fill="#ffffff" stroke="transparent" points="426.5,-27 426.5,-46 548.5,-46 548.5,-27 426.5,-27"/>
<polygon fill="none" stroke="#000000" points="426.5,-27 426.5,-46 548.5,-46 548.5,-27 426.5,-27"/>
<text text-anchor="start" x="429.5" y="-33.1" font-family="Helvetica,sans-Serif" font-size="11.00" fill="#000000">&lt; 3</text>
<polygon fill="#ffffff" stroke="transparent" points="548.5,-27 548.5,-46 687.5,-46 687.5,-27 548.5,-27"/>
<polygon fill="none" stroke="#000000" points="548.5,-27 548.5,-46 687.5,-46 687.5,-27 548.5,-27"/>
<text text-anchor="start" x="652.1105" y="-33.1" font-family="Helvetica,sans-Serif" font-size="11.00" fill="#000000">0 rows</text>
<polygon fill="#ffffff" stroke="transparent" points="687.5,-27 687.5,-46 753.5,-46 753.5,-27 687.5,-27"/>
<polygon fill="none" stroke="#000000" points="687.5,-27 687.5,-46 753.5,-46 753.5,-27 687.5,-27"/>
<text text-anchor="start" x="734.9053" y="-33.1" font-family="Helvetica,sans-Serif" font-size="11.00" fill="#000000">0 &gt;</text>
<polygon fill="none" stroke="#000000" stroke-width="2" points="425,-26 425,-642 754,-642 754,-26 425,-26"/>
</a>
</g>
</g>
<!-- EMPLOYEE_MONTHLY_ATTENDANCE&#45;&gt;EMPLOYEE -->
<g id="edge4" class="edge">
<title>EMPLOYEE_MONTHLY_ATTENDANCE:w&#45;&gt;EMPLOYEE:e</title>
<path fill="none" stroke="#000000" d="M412.0946,-561.6144C309.6704,-539.7714 503.1854,-267 375,-267"/>
<polygon fill="#000000" stroke="#000000" points="418.5368,-562.234 426.1553,-566.5835 422.5184,-562.617 426.5,-563 426.5,-563 426.5,-563 422.5184,-562.617 426.8447,-559.4165 418.5368,-562.234 418.5368,-562.234"/>
<ellipse fill="none" stroke="#000000" cx="415.3515" cy="-561.9276" rx="3.2" ry="3.2"/>
</g>
<!-- EMPLOYEE_MONTHLY_ATTENDANCE&#45;&gt;User -->
<g id="edge3" class="edge">
<title>EMPLOYEE_MONTHLY_ATTENDANCE:w&#45;&gt;User:e</title>
<path fill="none" stroke="#000000" d="M411.9356,-78.9298C301.6761,-77.8692 265.2703,-65.6041 153,-98 133.1308,-103.7333 132.6798,-120 112,-120"/>
<polygon fill="#000000" stroke="#000000" points="418.5001,-78.9614 426.4826,-82.6 422.5,-78.9807 426.5,-79 426.5,-79 426.5,-79 422.5,-78.9807 426.5174,-75.4 418.5001,-78.9614 418.5001,-78.9614"/>
<ellipse fill="none" stroke="#000000" cx="415.3001" cy="-78.9459" rx="3.2" ry="3.2"/>
</g>
<!-- EMPLOYEE_MONTHLY_ATTENDANCE&#45;&gt;User -->
<g id="edge5" class="edge">
<title>EMPLOYEE_MONTHLY_ATTENDANCE:w&#45;&gt;User:e</title>
<path fill="none" stroke="#000000" d="M411.9096,-56.8124C301.1519,-53.9593 257.6439,-20.2404 153,-72 127.8518,-84.439 140.0564,-120 112,-120"/>
<polygon fill="#000000" stroke="#000000" points="418.5007,-56.8971 426.4537,-60.5997 422.5003,-56.9485 426.5,-57 426.5,-57 426.5,-57 422.5003,-56.9485 426.5463,-53.4003 418.5007,-56.8971 418.5007,-56.8971"/>
<ellipse fill="none" stroke="#000000" cx="415.3009" cy="-56.8559" rx="3.2" ry="3.2"/>
</g>
</g>
</svg>
