<?xml version="1.0" encoding="UTF-8" standalone="no"?>
<!DOCTYPE svg PUBLIC "-//W3C//DTD SVG 1.1//EN"
 "http://www.w3.org/Graphics/SVG/1.1/DTD/svg11.dtd">
<!-- Generated by graphviz version 2.40.1 (20161225.0304)
 -->
<!-- Title: oneDegreeRelationshipsDiagram Pages: 1 -->
<svg width="604pt" height="524pt"
 viewBox="0.00 0.00 604.00 524.03" xmlns="http://www.w3.org/2000/svg" xmlns:xlink="http://www.w3.org/1999/xlink">
<g id="graph0" class="graph" transform="scale(1 1) rotate(0) translate(4 520.0324)">
<title>oneDegreeRelationshipsDiagram</title>
<polygon fill="#ffffff" stroke="transparent" points="-4,4 -4,-520.0324 600,-520.0324 600,4 -4,4"/>
<!-- DEPARTMENT -->
<g id="node1" class="node">
<title>DEPARTMENT</title>
<g id="a_node1"><a xlink:href="../../tables/DEPARTMENT.html" xlink:title="DEPARTMENT" target="_top">
<polygon fill="#ffffff" stroke="transparent" points="162,-385.0324 162,-512.0324 334,-512.0324 334,-385.0324 162,-385.0324"/>
<polygon fill="#f5f5f5" stroke="transparent" points="162,-488.5324 162,-511.5324 334,-511.5324 334,-488.5324 162,-488.5324"/>
<polygon fill="none" stroke="#000000" points="162,-488.5324 162,-511.5324 334,-511.5324 334,-488.5324 162,-488.5324"/>
<text text-anchor="start" x="167" y="-497.1324" font-family="Helvetica,sans-Serif" font-weight="bold" font-size="11.00" fill="#000000">DEPARTMENT</text>
<text text-anchor="start" x="299.0437" y="-496.6324" font-family="Helvetica,sans-Serif" font-size="11.00" fill="#000000">[table]</text>
<polygon fill="none" stroke="#000000" points="162,-466.5324 162,-488.5324 334,-488.5324 334,-466.5324 162,-466.5324"/>
<image xlink:href="../../images/primaryKeys.png" width="11px" height="12px" preserveAspectRatio="xMinYMin meet" x="167" y="-483.532"/>
<text text-anchor="start" x="182" y="-473.6324" font-family="Helvetica,sans-Serif" font-size="11.00" fill="#000000">ID</text>
<polygon fill="#ffffff" stroke="transparent" points="162,-444.5324 162,-466.5324 334,-466.5324 334,-444.5324 162,-444.5324"/>
<polygon fill="none" stroke="#000000" points="162,-444.5324 162,-466.5324 334,-466.5324 334,-444.5324 162,-444.5324"/>
<image xlink:href="../../images/foreignKeys.png" width="11px" height="12px" preserveAspectRatio="xMinYMin meet" x="167" y="-461.532"/>
<text text-anchor="start" x="182" y="-451.6324" font-family="Helvetica,sans-Serif" font-size="11.00" fill="#000000">CREATOR</text>
<polygon fill="#ffffff" stroke="transparent" points="162,-422.5324 162,-444.5324 334,-444.5324 334,-422.5324 162,-422.5324"/>
<polygon fill="none" stroke="#000000" points="162,-422.5324 162,-444.5324 334,-444.5324 334,-422.5324 162,-422.5324"/>
<image xlink:href="../../images/foreignKeys.png" width="11px" height="12px" preserveAspectRatio="xMinYMin meet" x="167" y="-439.532"/>
<text text-anchor="start" x="182" y="-429.6324" font-family="Helvetica,sans-Serif" font-size="11.00" fill="#000000">LAST_MODIFIER</text>
<polygon fill="none" stroke="#000000" points="162,-403.5324 162,-422.5324 334,-422.5324 334,-403.5324 162,-403.5324"/>
<text text-anchor="start" x="165" y="-409.6324" font-family="Helvetica,sans-Serif" font-size="11.00" fill="#000000">...</text>
<polygon fill="#ffffff" stroke="transparent" points="162,-384.5324 162,-403.5324 229,-403.5324 229,-384.5324 162,-384.5324"/>
<polygon fill="none" stroke="#000000" points="162,-384.5324 162,-403.5324 229,-403.5324 229,-384.5324 162,-384.5324"/>
<text text-anchor="start" x="165" y="-390.6324" font-family="Helvetica,sans-Serif" font-size="11.00" fill="#000000">&lt; 2</text>
<polygon fill="#ffffff" stroke="transparent" points="229,-384.5324 229,-403.5324 290,-403.5324 290,-384.5324 229,-384.5324"/>
<polygon fill="none" stroke="#000000" points="229,-384.5324 229,-403.5324 290,-403.5324 290,-384.5324 229,-384.5324"/>
<text text-anchor="start" x="254.6105" y="-390.6324" font-family="Helvetica,sans-Serif" font-size="11.00" fill="#000000">0 rows</text>
<polygon fill="#ffffff" stroke="transparent" points="290,-384.5324 290,-403.5324 334,-403.5324 334,-384.5324 290,-384.5324"/>
<polygon fill="none" stroke="#000000" points="290,-384.5324 290,-403.5324 334,-403.5324 334,-384.5324 290,-384.5324"/>
<text text-anchor="start" x="315.4053" y="-390.6324" font-family="Helvetica,sans-Serif" font-size="11.00" fill="#000000">7 &gt;</text>
</a>
</g>
</g>
<!-- User -->
<g id="node2" class="node">
<title>User</title>
<g id="a_node2"><a xlink:href="../../tables/User.html" xlink:title="User" target="_top">
<polygon fill="#ffffff" stroke="transparent" points="8,-174.0324 8,-257.0324 112,-257.0324 112,-174.0324 8,-174.0324"/>
<polygon fill="#f5f5f5" stroke="transparent" points="8,-233.5324 8,-256.5324 112,-256.5324 112,-233.5324 8,-233.5324"/>
<polygon fill="none" stroke="#000000" points="8,-233.5324 8,-256.5324 112,-256.5324 112,-233.5324 8,-233.5324"/>
<text text-anchor="start" x="13" y="-242.1324" font-family="Helvetica,sans-Serif" font-weight="bold" font-size="11.00" fill="#000000">User</text>
<text text-anchor="start" x="77.0437" y="-241.6324" font-family="Helvetica,sans-Serif" font-size="11.00" fill="#000000">[table]</text>
<polygon fill="none" stroke="#000000" points="8,-211.5324 8,-233.5324 112,-233.5324 112,-211.5324 8,-211.5324"/>
<image xlink:href="../../images/primaryKeys.png" width="11px" height="12px" preserveAspectRatio="xMinYMin meet" x="13" y="-228.532"/>
<text text-anchor="start" x="28" y="-218.6324" font-family="Helvetica,sans-Serif" font-size="11.00" fill="#000000">userid_pk</text>
<polygon fill="none" stroke="#000000" points="8,-192.5324 8,-211.5324 112,-211.5324 112,-192.5324 8,-192.5324"/>
<text text-anchor="start" x="11" y="-198.6324" font-family="Helvetica,sans-Serif" font-size="11.00" fill="#000000">...</text>
<polygon fill="#ffffff" stroke="transparent" points="8,-173.5324 8,-192.5324 30,-192.5324 30,-173.5324 8,-173.5324"/>
<polygon fill="none" stroke="#000000" points="8,-173.5324 8,-192.5324 30,-192.5324 30,-173.5324 8,-173.5324"/>
<text text-anchor="start" x="11" y="-179.6324" font-family="Helvetica,sans-Serif" font-size="11.00" fill="#000000"> &#160;</text>
<polygon fill="#ffffff" stroke="transparent" points="30,-173.5324 30,-192.5324 73,-192.5324 73,-173.5324 30,-173.5324"/>
<polygon fill="none" stroke="#000000" points="30,-173.5324 30,-192.5324 73,-192.5324 73,-173.5324 30,-173.5324"/>
<text text-anchor="start" x="37.6105" y="-179.6324" font-family="Helvetica,sans-Serif" font-size="11.00" fill="#000000">0 rows</text>
<polygon fill="#ffffff" stroke="transparent" points="73,-173.5324 73,-192.5324 112,-192.5324 112,-173.5324 73,-173.5324"/>
<polygon fill="none" stroke="#000000" points="73,-173.5324 73,-192.5324 112,-192.5324 112,-173.5324 73,-173.5324"/>
<text text-anchor="start" x="81.1755" y="-179.6324" font-family="Helvetica,sans-Serif" font-size="11.00" fill="#000000">102 &gt;</text>
</a>
</g>
</g>
<!-- DEPARTMENT&#45;&gt;User -->
<g id="edge1" class="edge">
<title>DEPARTMENT:w&#45;&gt;User:e</title>
<path fill="none" stroke="#000000" d="M147.3994,-453.6569C72.41,-431.6062 212.3278,-222.5324 112,-222.5324"/>
<polygon fill="#000000" stroke="#000000" points="154.0652,-454.5131 161.5413,-459.1031 158.0326,-455.0228 162,-455.5324 162,-455.5324 162,-455.5324 158.0326,-455.0228 162.4587,-451.9618 154.0652,-454.5131 154.0652,-454.5131"/>
<ellipse fill="none" stroke="#000000" cx="150.8913" cy="-454.1054" rx="3.2" ry="3.2"/>
</g>
<!-- DEPARTMENT&#45;&gt;User -->
<g id="edge2" class="edge">
<title>DEPARTMENT:w&#45;&gt;User:e</title>
<path fill="none" stroke="#000000" d="M147.4258,-431.4441C81.5327,-409.5303 202.7278,-222.5324 112,-222.5324"/>
<polygon fill="#000000" stroke="#000000" points="154.0809,-432.3976 161.4893,-437.096 158.0404,-432.965 162,-433.5324 162,-433.5324 162,-433.5324 158.0404,-432.965 162.5107,-429.9688 154.0809,-432.3976 154.0809,-432.3976"/>
<ellipse fill="none" stroke="#000000" cx="150.9132" cy="-431.9437" rx="3.2" ry="3.2"/>
</g>
<!-- DESIGNATION -->
<g id="node3" class="node">
<title>DESIGNATION</title>
<g id="a_node3"><a xlink:href="../../tables/DESIGNATION.html" xlink:title="DESIGNATION" target="_top">
<polygon fill="#ffffff" stroke="transparent" points="161,-237.0324 161,-364.0324 335,-364.0324 335,-237.0324 161,-237.0324"/>
<polygon fill="#f5f5f5" stroke="transparent" points="161,-340.5324 161,-363.5324 335,-363.5324 335,-340.5324 161,-340.5324"/>
<polygon fill="none" stroke="#000000" points="161,-340.5324 161,-363.5324 335,-363.5324 335,-340.5324 161,-340.5324"/>
<text text-anchor="start" x="166" y="-349.1324" font-family="Helvetica,sans-Serif" font-weight="bold" font-size="11.00" fill="#000000">DESIGNATION</text>
<text text-anchor="start" x="300.0437" y="-348.6324" font-family="Helvetica,sans-Serif" font-size="11.00" fill="#000000">[table]</text>
<polygon fill="none" stroke="#000000" points="161,-318.5324 161,-340.5324 335,-340.5324 335,-318.5324 161,-318.5324"/>
<image xlink:href="../../images/primaryKeys.png" width="11px" height="12px" preserveAspectRatio="xMinYMin meet" x="166" y="-335.532"/>
<text text-anchor="start" x="181" y="-325.6324" font-family="Helvetica,sans-Serif" font-size="11.00" fill="#000000">ID</text>
<polygon fill="#ffffff" stroke="transparent" points="161,-296.5324 161,-318.5324 335,-318.5324 335,-296.5324 161,-296.5324"/>
<polygon fill="none" stroke="#000000" points="161,-296.5324 161,-318.5324 335,-318.5324 335,-296.5324 161,-296.5324"/>
<image xlink:href="../../images/foreignKeys.png" width="11px" height="12px" preserveAspectRatio="xMinYMin meet" x="166" y="-313.532"/>
<text text-anchor="start" x="181" y="-303.6324" font-family="Helvetica,sans-Serif" font-size="11.00" fill="#000000">CREATOR</text>
<polygon fill="#ffffff" stroke="transparent" points="161,-274.5324 161,-296.5324 335,-296.5324 335,-274.5324 161,-274.5324"/>
<polygon fill="none" stroke="#000000" points="161,-274.5324 161,-296.5324 335,-296.5324 335,-274.5324 161,-274.5324"/>
<image xlink:href="../../images/foreignKeys.png" width="11px" height="12px" preserveAspectRatio="xMinYMin meet" x="166" y="-291.532"/>
<text text-anchor="start" x="181" y="-281.6324" font-family="Helvetica,sans-Serif" font-size="11.00" fill="#000000">LAST_MODIFIER</text>
<polygon fill="none" stroke="#000000" points="161,-255.5324 161,-274.5324 335,-274.5324 335,-255.5324 161,-255.5324"/>
<text text-anchor="start" x="164" y="-261.6324" font-family="Helvetica,sans-Serif" font-size="11.00" fill="#000000">...</text>
<polygon fill="#ffffff" stroke="transparent" points="161,-236.5324 161,-255.5324 229,-255.5324 229,-236.5324 161,-236.5324"/>
<polygon fill="none" stroke="#000000" points="161,-236.5324 161,-255.5324 229,-255.5324 229,-236.5324 161,-236.5324"/>
<text text-anchor="start" x="164" y="-242.6324" font-family="Helvetica,sans-Serif" font-size="11.00" fill="#000000">&lt; 2</text>
<polygon fill="#ffffff" stroke="transparent" points="229,-236.5324 229,-255.5324 290,-255.5324 290,-236.5324 229,-236.5324"/>
<polygon fill="none" stroke="#000000" points="229,-236.5324 229,-255.5324 290,-255.5324 290,-236.5324 229,-236.5324"/>
<text text-anchor="start" x="254.6105" y="-242.6324" font-family="Helvetica,sans-Serif" font-size="11.00" fill="#000000">0 rows</text>
<polygon fill="#ffffff" stroke="transparent" points="290,-236.5324 290,-255.5324 335,-255.5324 335,-236.5324 290,-236.5324"/>
<polygon fill="none" stroke="#000000" points="290,-236.5324 290,-255.5324 335,-255.5324 335,-236.5324 290,-236.5324"/>
<text text-anchor="start" x="316.4053" y="-242.6324" font-family="Helvetica,sans-Serif" font-size="11.00" fill="#000000">3 &gt;</text>
</a>
</g>
</g>
<!-- DESIGNATION&#45;&gt;User -->
<g id="edge3" class="edge">
<title>DESIGNATION:w&#45;&gt;User:e</title>
<path fill="none" stroke="#000000" d="M147.0028,-302.9625C126.5234,-285.3071 149.4734,-222.5324 112,-222.5324"/>
<polygon fill="#000000" stroke="#000000" points="153.3951,-305.0494 159.8827,-310.9546 157.1975,-306.2909 161,-307.5324 161,-307.5324 161,-307.5324 157.1975,-306.2909 162.1173,-304.1102 153.3951,-305.0494 153.3951,-305.0494"/>
<ellipse fill="none" stroke="#000000" cx="150.3531" cy="-304.0563" rx="3.2" ry="3.2"/>
</g>
<!-- DESIGNATION&#45;&gt;User -->
<g id="edge4" class="edge">
<title>DESIGNATION:w&#45;&gt;User:e</title>
<path fill="none" stroke="#000000" d="M147.2151,-280.5889C131.3751,-265.7373 141.3754,-222.5324 112,-222.5324"/>
<polygon fill="#000000" stroke="#000000" points="153.4696,-282.8319 159.7847,-288.9211 157.2348,-284.1821 161,-285.5324 161,-285.5324 161,-285.5324 157.2348,-284.1821 162.2153,-282.1437 153.4696,-282.8319 153.4696,-282.8319"/>
<ellipse fill="none" stroke="#000000" cx="150.4574" cy="-281.7516" rx="3.2" ry="3.2"/>
</g>
<!-- EXCEPTIONS -->
<g id="node4" class="node">
<title>EXCEPTIONS</title>
<g id="a_node4"><a xlink:href="../../tables/EXCEPTIONS.html" xlink:title="EXCEPTIONS" target="_top">
<polygon fill="#ffffff" stroke="transparent" points="384,-39.5324 384,-305.5324 588,-305.5324 588,-39.5324 384,-39.5324"/>
<polygon fill="#f5f5f5" stroke="transparent" points="386,-280.5324 386,-303.5324 586,-303.5324 586,-280.5324 386,-280.5324"/>
<polygon fill="none" stroke="#000000" points="386,-280.5324 386,-303.5324 586,-303.5324 586,-280.5324 386,-280.5324"/>
<text text-anchor="start" x="391" y="-289.1324" font-family="Helvetica,sans-Serif" font-weight="bold" font-size="11.00" fill="#000000">EXCEPTIONS</text>
<text text-anchor="start" x="551.0437" y="-288.6324" font-family="Helvetica,sans-Serif" font-size="11.00" fill="#000000">[table]</text>
<polygon fill="none" stroke="#000000" points="386,-258.5324 386,-280.5324 520,-280.5324 520,-258.5324 386,-258.5324"/>
<image xlink:href="../../images/primaryKeys.png" width="11px" height="12px" preserveAspectRatio="xMinYMin meet" x="391" y="-275.532"/>
<text text-anchor="start" x="406" y="-265.6324" font-family="Helvetica,sans-Serif" font-size="11.00" fill="#000000">ID</text>
<polygon fill="none" stroke="#000000" points="520,-258.5324 520,-280.5324 586,-280.5324 586,-258.5324 520,-258.5324"/>
<text text-anchor="start" x="523" y="-266.2324" font-family="Helvetica,sans-Serif" font-size="11.00" fill="#000000">int[10]</text>
<polygon fill="none" stroke="#000000" points="386,-236.5324 386,-258.5324 520,-258.5324 520,-236.5324 386,-236.5324"/>
<text text-anchor="start" x="406" y="-243.6324" font-family="Helvetica,sans-Serif" font-size="11.00" fill="#000000">WORKSPACE_ID</text>
<polygon fill="none" stroke="#000000" points="520,-236.5324 520,-258.5324 586,-258.5324 586,-236.5324 520,-236.5324"/>
<text text-anchor="start" x="523" y="-244.2324" font-family="Helvetica,sans-Serif" font-size="11.00" fill="#000000">int[10]</text>
<polygon fill="#ffffff" stroke="transparent" points="386,-214.5324 386,-236.5324 520,-236.5324 520,-214.5324 386,-214.5324"/>
<polygon fill="none" stroke="#000000" points="386,-214.5324 386,-236.5324 520,-236.5324 520,-214.5324 386,-214.5324"/>
<image xlink:href="../../images/foreignKeys.png" width="11px" height="12px" preserveAspectRatio="xMinYMin meet" x="391" y="-231.532"/>
<text text-anchor="start" x="406" y="-221.6324" font-family="Helvetica,sans-Serif" font-size="11.00" fill="#000000">DEPARTMENT_ID</text>
<polygon fill="none" stroke="#000000" points="520,-214.5324 520,-236.5324 586,-236.5324 586,-214.5324 520,-214.5324"/>
<text text-anchor="start" x="523" y="-222.2324" font-family="Helvetica,sans-Serif" font-size="11.00" fill="#000000">int[10]</text>
<polygon fill="#ffffff" stroke="transparent" points="386,-192.5324 386,-214.5324 520,-214.5324 520,-192.5324 386,-192.5324"/>
<polygon fill="none" stroke="#000000" points="386,-192.5324 386,-214.5324 520,-214.5324 520,-192.5324 386,-192.5324"/>
<image xlink:href="../../images/foreignKeys.png" width="11px" height="12px" preserveAspectRatio="xMinYMin meet" x="391" y="-209.532"/>
<text text-anchor="start" x="406" y="-199.6324" font-family="Helvetica,sans-Serif" font-size="11.00" fill="#000000">DESIGNATION_ID</text>
<polygon fill="none" stroke="#000000" points="520,-192.5324 520,-214.5324 586,-214.5324 586,-192.5324 520,-192.5324"/>
<text text-anchor="start" x="523" y="-200.2324" font-family="Helvetica,sans-Serif" font-size="11.00" fill="#000000">int[10]</text>
<polygon fill="#ffffff" stroke="transparent" points="386,-170.5324 386,-192.5324 520,-192.5324 520,-170.5324 386,-170.5324"/>
<polygon fill="none" stroke="#000000" points="386,-170.5324 386,-192.5324 520,-192.5324 520,-170.5324 386,-170.5324"/>
<image xlink:href="../../images/foreignKeys.png" width="11px" height="12px" preserveAspectRatio="xMinYMin meet" x="391" y="-187.532"/>
<text text-anchor="start" x="406" y="-177.6324" font-family="Helvetica,sans-Serif" font-size="11.00" fill="#000000">LOCATION_ID</text>
<polygon fill="none" stroke="#000000" points="520,-170.5324 520,-192.5324 586,-192.5324 586,-170.5324 520,-170.5324"/>
<text text-anchor="start" x="523" y="-178.2324" font-family="Helvetica,sans-Serif" font-size="11.00" fill="#000000">int[10]</text>
<polygon fill="none" stroke="#000000" points="386,-148.5324 386,-170.5324 520,-170.5324 520,-148.5324 386,-148.5324"/>
<text text-anchor="start" x="406" y="-155.6324" font-family="Helvetica,sans-Serif" font-size="11.00" fill="#000000">ROLE</text>
<polygon fill="none" stroke="#000000" points="520,-148.5324 520,-170.5324 586,-170.5324 586,-148.5324 520,-148.5324"/>
<text text-anchor="start" x="523" y="-156.2324" font-family="Helvetica,sans-Serif" font-size="11.00" fill="#000000">varchar[55]</text>
<polygon fill="none" stroke="#000000" points="386,-126.5324 386,-148.5324 520,-148.5324 520,-126.5324 386,-126.5324"/>
<text text-anchor="start" x="406" y="-133.6324" font-family="Helvetica,sans-Serif" font-size="11.00" fill="#000000">CREATED_TIME</text>
<polygon fill="none" stroke="#000000" points="520,-126.5324 520,-148.5324 586,-148.5324 586,-126.5324 520,-126.5324"/>
<text text-anchor="start" x="522.7401" y="-134.2324" font-family="Helvetica,sans-Serif" font-size="11.00" fill="#000000">datetime[26]</text>
<polygon fill="none" stroke="#000000" points="386,-104.5324 386,-126.5324 520,-126.5324 520,-104.5324 386,-104.5324"/>
<text text-anchor="start" x="406" y="-111.6324" font-family="Helvetica,sans-Serif" font-size="11.00" fill="#000000">MODIFIED_TIME</text>
<polygon fill="none" stroke="#000000" points="520,-104.5324 520,-126.5324 586,-126.5324 586,-104.5324 520,-104.5324"/>
<text text-anchor="start" x="522.7401" y="-112.2324" font-family="Helvetica,sans-Serif" font-size="11.00" fill="#000000">datetime[26]</text>
<polygon fill="#ffffff" stroke="transparent" points="386,-82.5324 386,-104.5324 520,-104.5324 520,-82.5324 386,-82.5324"/>
<polygon fill="none" stroke="#000000" points="386,-82.5324 386,-104.5324 520,-104.5324 520,-82.5324 386,-82.5324"/>
<image xlink:href="../../images/foreignKeys.png" width="11px" height="12px" preserveAspectRatio="xMinYMin meet" x="391" y="-99.5324"/>
<text text-anchor="start" x="406" y="-89.6324" font-family="Helvetica,sans-Serif" font-size="11.00" fill="#000000">CREATOR</text>
<polygon fill="none" stroke="#000000" points="520,-82.5324 520,-104.5324 586,-104.5324 586,-82.5324 520,-82.5324"/>
<text text-anchor="start" x="523" y="-90.2324" font-family="Helvetica,sans-Serif" font-size="11.00" fill="#000000">int[10]</text>
<polygon fill="#ffffff" stroke="transparent" points="386,-60.5324 386,-82.5324 520,-82.5324 520,-60.5324 386,-60.5324"/>
<polygon fill="none" stroke="#000000" points="386,-60.5324 386,-82.5324 520,-82.5324 520,-60.5324 386,-60.5324"/>
<image xlink:href="../../images/foreignKeys.png" width="11px" height="12px" preserveAspectRatio="xMinYMin meet" x="391" y="-77.5324"/>
<text text-anchor="start" x="406" y="-67.6324" font-family="Helvetica,sans-Serif" font-size="11.00" fill="#000000">LAST_MODIFIER</text>
<polygon fill="none" stroke="#000000" points="520,-60.5324 520,-82.5324 586,-82.5324 586,-60.5324 520,-60.5324"/>
<text text-anchor="start" x="523" y="-68.2324" font-family="Helvetica,sans-Serif" font-size="11.00" fill="#000000">int[10]</text>
<polygon fill="#ffffff" stroke="transparent" points="386,-41.5324 386,-60.5324 444,-60.5324 444,-41.5324 386,-41.5324"/>
<polygon fill="none" stroke="#000000" points="386,-41.5324 386,-60.5324 444,-60.5324 444,-41.5324 386,-41.5324"/>
<text text-anchor="start" x="389" y="-47.6324" font-family="Helvetica,sans-Serif" font-size="11.00" fill="#000000">&lt; 5</text>
<polygon fill="#ffffff" stroke="transparent" points="444,-41.5324 444,-60.5324 520,-60.5324 520,-41.5324 444,-41.5324"/>
<polygon fill="none" stroke="#000000" points="444,-41.5324 444,-60.5324 520,-60.5324 520,-41.5324 444,-41.5324"/>
<text text-anchor="start" x="484.6105" y="-47.6324" font-family="Helvetica,sans-Serif" font-size="11.00" fill="#000000">0 rows</text>
<polygon fill="#ffffff" stroke="transparent" points="520,-41.5324 520,-60.5324 586,-60.5324 586,-41.5324 520,-41.5324"/>
<polygon fill="none" stroke="#000000" points="520,-41.5324 520,-60.5324 586,-60.5324 586,-41.5324 520,-41.5324"/>
<text text-anchor="start" x="567.4053" y="-47.6324" font-family="Helvetica,sans-Serif" font-size="11.00" fill="#000000">0 &gt;</text>
<polygon fill="none" stroke="#000000" stroke-width="2" points="385,-40.5324 385,-304.5324 587,-304.5324 587,-40.5324 385,-40.5324"/>
</a>
</g>
</g>
<!-- EXCEPTIONS&#45;&gt;DEPARTMENT -->
<g id="edge6" class="edge">
<title>EXCEPTIONS:w&#45;&gt;DEPARTMENT:e</title>
<path fill="none" stroke="#000000" d="M371.5189,-227.2083C287.8865,-249.0726 442.8873,-477.5324 334,-477.5324"/>
<polygon fill="#000000" stroke="#000000" points="378.053,-226.4521 386.4139,-229.1086 382.0265,-225.9923 386,-225.5324 386,-225.5324 386,-225.5324 382.0265,-225.9923 385.5861,-221.9563 378.053,-226.4521 378.053,-226.4521"/>
<ellipse fill="none" stroke="#000000" cx="374.8743" cy="-226.82" rx="3.2" ry="3.2"/>
</g>
<!-- EXCEPTIONS&#45;&gt;User -->
<g id="edge5" class="edge">
<title>EXCEPTIONS:w&#45;&gt;User:e</title>
<path fill="none" stroke="#000000" d="M371.6787,-90.9798C362.5832,-87.3596 357.0317,-80.9096 343,-78.5324 259.7419,-64.4274 220.3928,-27.6494 153,-78.5324 99.8934,-118.629 178.5436,-222.5324 112,-222.5324"/>
<polygon fill="#000000" stroke="#000000" points="378.1241,-92.1286 385.3683,-97.0766 382.0621,-92.8305 386,-93.5324 386,-93.5324 386,-93.5324 382.0621,-92.8305 386.6317,-89.9883 378.1241,-92.1286 378.1241,-92.1286"/>
<ellipse fill="none" stroke="#000000" cx="374.9738" cy="-91.5671" rx="3.2" ry="3.2"/>
</g>
<!-- EXCEPTIONS&#45;&gt;User -->
<g id="edge8" class="edge">
<title>EXCEPTIONS:w&#45;&gt;User:e</title>
<path fill="none" stroke="#000000" d="M371.9116,-68.1483C362.5615,-62.9308 358.0002,-53.1469 343,-49.5324 260.9052,-29.7508 219.2393,2.8433 153,-49.5324 91.0168,-98.5429 191.0187,-222.5324 112,-222.5324"/>
<polygon fill="#000000" stroke="#000000" points="378.2213,-69.6639 385.1592,-75.0329 382.1106,-70.5982 386,-71.5324 386,-71.5324 386,-71.5324 382.1106,-70.5982 386.8408,-68.032 378.2213,-69.6639 378.2213,-69.6639"/>
<ellipse fill="none" stroke="#000000" cx="375.1098" cy="-68.9165" rx="3.2" ry="3.2"/>
</g>
<!-- EXCEPTIONS&#45;&gt;DESIGNATION -->
<g id="edge7" class="edge">
<title>EXCEPTIONS:w&#45;&gt;DESIGNATION:e</title>
<path fill="none" stroke="#000000" d="M371.7844,-206.9026C337.9826,-226.9402 389.5136,-329.5324 335,-329.5324"/>
<polygon fill="#000000" stroke="#000000" points="378.2158,-205.3779 386.8305,-207.0353 382.1079,-204.4552 386,-203.5324 386,-203.5324 386,-203.5324 382.1079,-204.4552 385.1695,-200.0295 378.2158,-205.3779 378.2158,-205.3779"/>
<ellipse fill="none" stroke="#000000" cx="375.1021" cy="-206.1161" rx="3.2" ry="3.2"/>
</g>
<!-- LOCATION -->
<g id="node5" class="node">
<title>LOCATION</title>
<g id="a_node5"><a xlink:href="../../tables/LOCATION.html" xlink:title="LOCATION" target="_top">
<polygon fill="#ffffff" stroke="transparent" points="172,-89.0324 172,-216.0324 324,-216.0324 324,-89.0324 172,-89.0324"/>
<polygon fill="#f5f5f5" stroke="transparent" points="172,-192.5324 172,-215.5324 324,-215.5324 324,-192.5324 172,-192.5324"/>
<polygon fill="none" stroke="#000000" points="172,-192.5324 172,-215.5324 324,-215.5324 324,-192.5324 172,-192.5324"/>
<text text-anchor="start" x="177" y="-201.1324" font-family="Helvetica,sans-Serif" font-weight="bold" font-size="11.00" fill="#000000">LOCATION</text>
<text text-anchor="start" x="289.0437" y="-200.6324" font-family="Helvetica,sans-Serif" font-size="11.00" fill="#000000">[table]</text>
<polygon fill="none" stroke="#000000" points="172,-170.5324 172,-192.5324 324,-192.5324 324,-170.5324 172,-170.5324"/>
<image xlink:href="../../images/primaryKeys.png" width="11px" height="12px" preserveAspectRatio="xMinYMin meet" x="177" y="-187.532"/>
<text text-anchor="start" x="192" y="-177.6324" font-family="Helvetica,sans-Serif" font-size="11.00" fill="#000000">ID</text>
<polygon fill="#ffffff" stroke="transparent" points="172,-148.5324 172,-170.5324 324,-170.5324 324,-148.5324 172,-148.5324"/>
<polygon fill="none" stroke="#000000" points="172,-148.5324 172,-170.5324 324,-170.5324 324,-148.5324 172,-148.5324"/>
<image xlink:href="../../images/foreignKeys.png" width="11px" height="12px" preserveAspectRatio="xMinYMin meet" x="177" y="-165.532"/>
<text text-anchor="start" x="192" y="-155.6324" font-family="Helvetica,sans-Serif" font-size="11.00" fill="#000000">CREATOR</text>
<polygon fill="#ffffff" stroke="transparent" points="172,-126.5324 172,-148.5324 324,-148.5324 324,-126.5324 172,-126.5324"/>
<polygon fill="none" stroke="#000000" points="172,-126.5324 172,-148.5324 324,-148.5324 324,-126.5324 172,-126.5324"/>
<image xlink:href="../../images/foreignKeys.png" width="11px" height="12px" preserveAspectRatio="xMinYMin meet" x="177" y="-143.532"/>
<text text-anchor="start" x="192" y="-133.6324" font-family="Helvetica,sans-Serif" font-size="11.00" fill="#000000">LAST_MODIFIER</text>
<polygon fill="none" stroke="#000000" points="172,-107.5324 172,-126.5324 324,-126.5324 324,-107.5324 172,-107.5324"/>
<text text-anchor="start" x="175" y="-113.6324" font-family="Helvetica,sans-Serif" font-size="11.00" fill="#000000">...</text>
<polygon fill="#ffffff" stroke="transparent" points="172,-88.5324 172,-107.5324 229,-107.5324 229,-88.5324 172,-88.5324"/>
<polygon fill="none" stroke="#000000" points="172,-88.5324 172,-107.5324 229,-107.5324 229,-88.5324 172,-88.5324"/>
<text text-anchor="start" x="175" y="-94.6324" font-family="Helvetica,sans-Serif" font-size="11.00" fill="#000000">&lt; 2</text>
<polygon fill="#ffffff" stroke="transparent" points="229,-88.5324 229,-107.5324 285,-107.5324 285,-88.5324 229,-88.5324"/>
<polygon fill="none" stroke="#000000" points="229,-88.5324 229,-107.5324 285,-107.5324 285,-88.5324 229,-88.5324"/>
<text text-anchor="start" x="249.6105" y="-94.6324" font-family="Helvetica,sans-Serif" font-size="11.00" fill="#000000">0 rows</text>
<polygon fill="#ffffff" stroke="transparent" points="285,-88.5324 285,-107.5324 324,-107.5324 324,-88.5324 285,-88.5324"/>
<polygon fill="none" stroke="#000000" points="285,-88.5324 285,-107.5324 324,-107.5324 324,-88.5324 285,-88.5324"/>
<text text-anchor="start" x="305.4053" y="-94.6324" font-family="Helvetica,sans-Serif" font-size="11.00" fill="#000000">5 &gt;</text>
</a>
</g>
</g>
<!-- EXCEPTIONS&#45;&gt;LOCATION -->
<g id="edge9" class="edge">
<title>EXCEPTIONS:w&#45;&gt;LOCATION:e</title>
<path fill="none" stroke="#000000" d="M371.42,-181.5324C354.7931,-181.5324 345.9583,-181.5324 324,-181.5324"/>
<polygon fill="#000000" stroke="#000000" points="378,-181.5325 386,-185.1324 382,-181.5325 386,-181.5324 386,-181.5324 386,-181.5324 382,-181.5325 386,-177.9324 378,-181.5325 378,-181.5325"/>
<ellipse fill="none" stroke="#000000" cx="374.8" cy="-181.5325" rx="3.2" ry="3.2"/>
</g>
<!-- LOCATION&#45;&gt;User -->
<g id="edge10" class="edge">
<title>LOCATION:w&#45;&gt;User:e</title>
<path fill="none" stroke="#000000" d="M157.8312,-163.4734C137.3149,-177.2656 144.776,-222.5324 112,-222.5324"/>
<polygon fill="#000000" stroke="#000000" points="164.2926,-161.6762 172.9647,-163.0008 168.1463,-160.6043 172,-159.5324 172,-159.5324 172,-159.5324 168.1463,-160.6043 171.0353,-156.0641 164.2926,-161.6762 164.2926,-161.6762"/>
<ellipse fill="none" stroke="#000000" cx="161.2096" cy="-162.5337" rx="3.2" ry="3.2"/>
</g>
<!-- LOCATION&#45;&gt;User -->
<g id="edge11" class="edge">
<title>LOCATION:w&#45;&gt;User:e</title>
<path fill="none" stroke="#000000" d="M158.0421,-141.1848C132.6492,-157.4543 152.4613,-222.5324 112,-222.5324"/>
<polygon fill="#000000" stroke="#000000" points="164.2606,-139.5576 172.9113,-141.0152 168.1303,-138.545 172,-137.5324 172,-137.5324 172,-137.5324 168.1303,-138.545 171.0887,-134.0497 164.2606,-139.5576 164.2606,-139.5576"/>
<ellipse fill="none" stroke="#000000" cx="161.1648" cy="-140.3677" rx="3.2" ry="3.2"/>
</g>
</g>
</svg>
