<?xml version="1.0" encoding="UTF-8" standalone="no"?>
<!DOCTYPE svg PUBLIC "-//W3C//DTD SVG 1.1//EN"
 "http://www.w3.org/Graphics/SVG/1.1/DTD/svg11.dtd">
<!-- Generated by graphviz version 2.40.1 (20161225.0304)
 -->
<!-- Title: oneDegreeRelationshipsDiagram Pages: 1 -->
<svg width="581pt" height="595pt"
 viewBox="0.00 0.00 581.00 594.50" xmlns="http://www.w3.org/2000/svg" xmlns:xlink="http://www.w3.org/1999/xlink">
<g id="graph0" class="graph" transform="scale(1 1) rotate(0) translate(4 590.5)">
<title>oneDegreeRelationshipsDiagram</title>
<polygon fill="#ffffff" stroke="transparent" points="-4,4 -4,-590.5 577,-590.5 577,4 -4,4"/>
<!-- EXIT_DETAILS -->
<g id="node1" class="node">
<title>EXIT_DETAILS</title>
<g id="a_node1"><a xlink:href="../../tables/EXIT_DETAILS.html" xlink:title="EXIT_DETAILS" target="_top">
<polygon fill="#ffffff" stroke="transparent" points="161,-30.5 161,-582.5 565,-582.5 565,-30.5 161,-30.5"/>
<polygon fill="#f5f5f5" stroke="transparent" points="163,-557.5 163,-580.5 563,-580.5 563,-557.5 163,-557.5"/>
<polygon fill="none" stroke="#000000" points="163,-557.5 163,-580.5 563,-580.5 563,-557.5 163,-557.5"/>
<text text-anchor="start" x="168" y="-566.1" font-family="Helvetica,sans-Serif" font-weight="bold" font-size="11.00" fill="#000000">EXIT_DETAILS</text>
<text text-anchor="start" x="528.0437" y="-565.6" font-family="Helvetica,sans-Serif" font-size="11.00" fill="#000000">[table]</text>
<polygon fill="none" stroke="#000000" points="163,-535.5 163,-557.5 496,-557.5 496,-535.5 163,-535.5"/>
<image xlink:href="../../images/primaryKeys.png" width="11px" height="12px" preserveAspectRatio="xMinYMin meet" x="168" y="-552.5"/>
<text text-anchor="start" x="183" y="-542.6" font-family="Helvetica,sans-Serif" font-size="11.00" fill="#000000">ID</text>
<polygon fill="none" stroke="#000000" points="496,-535.5 496,-557.5 563,-557.5 563,-535.5 496,-535.5"/>
<text text-anchor="start" x="499" y="-543.2" font-family="Helvetica,sans-Serif" font-size="11.00" fill="#000000">int[10]</text>
<polygon fill="none" stroke="#000000" points="163,-513.5 163,-535.5 496,-535.5 496,-513.5 163,-513.5"/>
<text text-anchor="start" x="183" y="-520.6" font-family="Helvetica,sans-Serif" font-size="11.00" fill="#000000">WORKSPACE_ID</text>
<polygon fill="none" stroke="#000000" points="496,-513.5 496,-535.5 563,-535.5 563,-513.5 496,-513.5"/>
<text text-anchor="start" x="499" y="-521.2" font-family="Helvetica,sans-Serif" font-size="11.00" fill="#000000">int[10]</text>
<polygon fill="none" stroke="#000000" points="163,-491.5 163,-513.5 496,-513.5 496,-491.5 163,-491.5"/>
<text text-anchor="start" x="183" y="-498.6" font-family="Helvetica,sans-Serif" font-size="11.00" fill="#000000">EMPLOYEE_ID</text>
<polygon fill="none" stroke="#000000" points="496,-491.5 496,-513.5 563,-513.5 563,-491.5 496,-491.5"/>
<text text-anchor="start" x="499" y="-499.2" font-family="Helvetica,sans-Serif" font-size="11.00" fill="#000000">varchar[50]</text>
<polygon fill="none" stroke="#000000" points="163,-469.5 163,-491.5 496,-491.5 496,-469.5 163,-469.5"/>
<text text-anchor="start" x="183" y="-476.6" font-family="Helvetica,sans-Serif" font-size="11.00" fill="#000000">INTERVIEWER</text>
<polygon fill="none" stroke="#000000" points="496,-469.5 496,-491.5 563,-491.5 563,-469.5 496,-469.5"/>
<text text-anchor="start" x="499" y="-477.2" font-family="Helvetica,sans-Serif" font-size="11.00" fill="#000000">varchar[50]</text>
<polygon fill="none" stroke="#000000" points="163,-447.5 163,-469.5 496,-469.5 496,-447.5 163,-447.5"/>
<text text-anchor="start" x="183" y="-454.6" font-family="Helvetica,sans-Serif" font-size="11.00" fill="#000000">SEPARATION_DATE</text>
<polygon fill="none" stroke="#000000" points="496,-447.5 496,-469.5 563,-469.5 563,-447.5 496,-447.5"/>
<text text-anchor="start" x="499" y="-455.2" font-family="Helvetica,sans-Serif" font-size="11.00" fill="#000000">datetime[26]</text>
<polygon fill="none" stroke="#000000" points="163,-425.5 163,-447.5 496,-447.5 496,-425.5 163,-425.5"/>
<text text-anchor="start" x="183" y="-432.6" font-family="Helvetica,sans-Serif" font-size="11.00" fill="#000000">REASON_FOR_LEAVING</text>
<polygon fill="none" stroke="#000000" points="496,-425.5 496,-447.5 563,-447.5 563,-425.5 496,-425.5"/>
<text text-anchor="start" x="499" y="-433.2" font-family="Helvetica,sans-Serif" font-size="11.00" fill="#000000">enum[28]</text>
<polygon fill="none" stroke="#000000" points="163,-403.5 163,-425.5 496,-425.5 496,-403.5 163,-403.5"/>
<text text-anchor="start" x="183" y="-410.6" font-family="Helvetica,sans-Serif" font-size="11.00" fill="#000000">WORKING_FOR_ORGANIZATION_AGAIN</text>
<polygon fill="none" stroke="#000000" points="496,-403.5 496,-425.5 563,-425.5 563,-403.5 496,-403.5"/>
<text text-anchor="start" x="499" y="-411.2" font-family="Helvetica,sans-Serif" font-size="11.00" fill="#000000">enum[3]</text>
<polygon fill="none" stroke="#000000" points="163,-381.5 163,-403.5 496,-403.5 496,-381.5 163,-381.5"/>
<text text-anchor="start" x="183" y="-388.6" font-family="Helvetica,sans-Serif" font-size="11.00" fill="#000000">ORGANIZATION_IMPROVEMENT_SUGGESTIONS</text>
<polygon fill="none" stroke="#000000" points="496,-381.5 496,-403.5 563,-403.5 563,-381.5 496,-381.5"/>
<text text-anchor="start" x="498.9365" y="-389.2" font-family="Helvetica,sans-Serif" font-size="11.00" fill="#000000">varchar[100]</text>
<polygon fill="none" stroke="#000000" points="163,-359.5 163,-381.5 496,-381.5 496,-359.5 163,-359.5"/>
<text text-anchor="start" x="183" y="-366.6" font-family="Helvetica,sans-Serif" font-size="11.00" fill="#000000">LIKED_MOST_ABOUT_ORGANIZATION</text>
<polygon fill="none" stroke="#000000" points="496,-359.5 496,-381.5 563,-381.5 563,-359.5 496,-359.5"/>
<text text-anchor="start" x="498.9365" y="-367.2" font-family="Helvetica,sans-Serif" font-size="11.00" fill="#000000">varchar[100]</text>
<polygon fill="none" stroke="#000000" points="163,-337.5 163,-359.5 496,-359.5 496,-337.5 163,-337.5"/>
<text text-anchor="start" x="183" y="-344.6" font-family="Helvetica,sans-Serif" font-size="11.00" fill="#000000">ADDITIONAL_COMMENTS</text>
<polygon fill="none" stroke="#000000" points="496,-337.5 496,-359.5 563,-359.5 563,-337.5 496,-337.5"/>
<text text-anchor="start" x="498.9365" y="-345.2" font-family="Helvetica,sans-Serif" font-size="11.00" fill="#000000">varchar[100]</text>
<polygon fill="none" stroke="#000000" points="163,-315.5 163,-337.5 496,-337.5 496,-315.5 163,-315.5"/>
<text text-anchor="start" x="183" y="-322.6" font-family="Helvetica,sans-Serif" font-size="11.00" fill="#000000">COMPANY_VEHICLE_HANDED_IN</text>
<polygon fill="none" stroke="#000000" points="496,-315.5 496,-337.5 563,-337.5 563,-315.5 496,-315.5"/>
<text text-anchor="start" x="498.9365" y="-323.2" font-family="Helvetica,sans-Serif" font-size="11.00" fill="#000000">varchar[100]</text>
<polygon fill="none" stroke="#000000" points="163,-293.5 163,-315.5 496,-315.5 496,-293.5 163,-293.5"/>
<text text-anchor="start" x="183" y="-300.6" font-family="Helvetica,sans-Serif" font-size="11.00" fill="#000000">ALL_LIBRARY_BOOKS_SUBMITTED</text>
<polygon fill="none" stroke="#000000" points="496,-293.5 496,-315.5 563,-315.5 563,-293.5 496,-293.5"/>
<text text-anchor="start" x="498.9365" y="-301.2" font-family="Helvetica,sans-Serif" font-size="11.00" fill="#000000">varchar[100]</text>
<polygon fill="none" stroke="#000000" points="163,-271.5 163,-293.5 496,-293.5 496,-271.5 163,-271.5"/>
<text text-anchor="start" x="183" y="-278.6" font-family="Helvetica,sans-Serif" font-size="11.00" fill="#000000">EXIT_INTERVIEW_CONDUCTED</text>
<polygon fill="none" stroke="#000000" points="496,-271.5 496,-293.5 563,-293.5 563,-271.5 496,-271.5"/>
<text text-anchor="start" x="498.9365" y="-279.2" font-family="Helvetica,sans-Serif" font-size="11.00" fill="#000000">varchar[100]</text>
<polygon fill="none" stroke="#000000" points="163,-249.5 163,-271.5 496,-271.5 496,-249.5 163,-249.5"/>
<text text-anchor="start" x="183" y="-256.6" font-family="Helvetica,sans-Serif" font-size="11.00" fill="#000000">RESIGNATION_LETTER_SUBMITTED</text>
<polygon fill="none" stroke="#000000" points="496,-249.5 496,-271.5 563,-271.5 563,-249.5 496,-249.5"/>
<text text-anchor="start" x="498.9365" y="-257.2" font-family="Helvetica,sans-Serif" font-size="11.00" fill="#000000">varchar[100]</text>
<polygon fill="none" stroke="#000000" points="163,-227.5 163,-249.5 496,-249.5 496,-227.5 163,-227.5"/>
<text text-anchor="start" x="183" y="-234.6" font-family="Helvetica,sans-Serif" font-size="11.00" fill="#000000">ALL_EQUIPMENTS_HANDED_IN</text>
<polygon fill="none" stroke="#000000" points="496,-227.5 496,-249.5 563,-249.5 563,-227.5 496,-227.5"/>
<text text-anchor="start" x="498.9365" y="-235.2" font-family="Helvetica,sans-Serif" font-size="11.00" fill="#000000">varchar[100]</text>
<polygon fill="none" stroke="#000000" points="163,-205.5 163,-227.5 496,-227.5 496,-205.5 163,-205.5"/>
<text text-anchor="start" x="183" y="-212.6" font-family="Helvetica,sans-Serif" font-size="11.00" fill="#000000">SECURITY</text>
<polygon fill="none" stroke="#000000" points="496,-205.5 496,-227.5 563,-227.5 563,-205.5 496,-205.5"/>
<text text-anchor="start" x="498.9365" y="-213.2" font-family="Helvetica,sans-Serif" font-size="11.00" fill="#000000">varchar[100]</text>
<polygon fill="none" stroke="#000000" points="163,-183.5 163,-205.5 496,-205.5 496,-183.5 163,-183.5"/>
<text text-anchor="start" x="183" y="-190.6" font-family="Helvetica,sans-Serif" font-size="11.00" fill="#000000">NOTICE_PERIOD_FOLLOWED</text>
<polygon fill="none" stroke="#000000" points="496,-183.5 496,-205.5 563,-205.5 563,-183.5 496,-183.5"/>
<text text-anchor="start" x="498.9365" y="-191.2" font-family="Helvetica,sans-Serif" font-size="11.00" fill="#000000">varchar[100]</text>
<polygon fill="none" stroke="#000000" points="163,-161.5 163,-183.5 496,-183.5 496,-161.5 163,-161.5"/>
<text text-anchor="start" x="183" y="-168.6" font-family="Helvetica,sans-Serif" font-size="11.00" fill="#000000">MANAGER_SUPERVISOR_CLEARANCE</text>
<polygon fill="none" stroke="#000000" points="496,-161.5 496,-183.5 563,-183.5 563,-161.5 496,-161.5"/>
<text text-anchor="start" x="498.9365" y="-169.2" font-family="Helvetica,sans-Serif" font-size="11.00" fill="#000000">varchar[100]</text>
<polygon fill="none" stroke="#000000" points="163,-139.5 163,-161.5 496,-161.5 496,-139.5 163,-139.5"/>
<text text-anchor="start" x="183" y="-146.6" font-family="Helvetica,sans-Serif" font-size="11.00" fill="#000000">APPROVAL_STATUS</text>
<polygon fill="none" stroke="#000000" points="496,-139.5 496,-161.5 563,-161.5 563,-139.5 496,-139.5"/>
<text text-anchor="start" x="499" y="-147.2" font-family="Helvetica,sans-Serif" font-size="11.00" fill="#000000">enum[12]</text>
<polygon fill="none" stroke="#000000" points="163,-117.5 163,-139.5 496,-139.5 496,-117.5 163,-117.5"/>
<text text-anchor="start" x="183" y="-124.6" font-family="Helvetica,sans-Serif" font-size="11.00" fill="#000000">CREATED_TIME</text>
<polygon fill="none" stroke="#000000" points="496,-117.5 496,-139.5 563,-139.5 563,-117.5 496,-117.5"/>
<text text-anchor="start" x="499" y="-125.2" font-family="Helvetica,sans-Serif" font-size="11.00" fill="#000000">datetime[26]</text>
<polygon fill="none" stroke="#000000" points="163,-95.5 163,-117.5 496,-117.5 496,-95.5 163,-95.5"/>
<text text-anchor="start" x="183" y="-102.6" font-family="Helvetica,sans-Serif" font-size="11.00" fill="#000000">MODIFIED_TIME</text>
<polygon fill="none" stroke="#000000" points="496,-95.5 496,-117.5 563,-117.5 563,-95.5 496,-95.5"/>
<text text-anchor="start" x="499" y="-103.2" font-family="Helvetica,sans-Serif" font-size="11.00" fill="#000000">datetime[26]</text>
<polygon fill="#ffffff" stroke="transparent" points="163,-73.5 163,-95.5 496,-95.5 496,-73.5 163,-73.5"/>
<polygon fill="none" stroke="#000000" points="163,-73.5 163,-95.5 496,-95.5 496,-73.5 163,-73.5"/>
<image xlink:href="../../images/foreignKeys.png" width="11px" height="12px" preserveAspectRatio="xMinYMin meet" x="168" y="-90.5"/>
<text text-anchor="start" x="183" y="-80.6" font-family="Helvetica,sans-Serif" font-size="11.00" fill="#000000">CREATOR</text>
<polygon fill="none" stroke="#000000" points="496,-73.5 496,-95.5 563,-95.5 563,-73.5 496,-73.5"/>
<text text-anchor="start" x="499" y="-81.2" font-family="Helvetica,sans-Serif" font-size="11.00" fill="#000000">int[10]</text>
<polygon fill="#ffffff" stroke="transparent" points="163,-51.5 163,-73.5 496,-73.5 496,-51.5 163,-51.5"/>
<polygon fill="none" stroke="#000000" points="163,-51.5 163,-73.5 496,-73.5 496,-51.5 163,-51.5"/>
<image xlink:href="../../images/foreignKeys.png" width="11px" height="12px" preserveAspectRatio="xMinYMin meet" x="168" y="-68.5"/>
<text text-anchor="start" x="183" y="-58.6" font-family="Helvetica,sans-Serif" font-size="11.00" fill="#000000">LAST_MODIFIER</text>
<polygon fill="none" stroke="#000000" points="496,-51.5 496,-73.5 563,-73.5 563,-51.5 496,-51.5"/>
<text text-anchor="start" x="499" y="-59.2" font-family="Helvetica,sans-Serif" font-size="11.00" fill="#000000">int[10]</text>
<polygon fill="#ffffff" stroke="transparent" points="163,-32.5 163,-51.5 321,-51.5 321,-32.5 163,-32.5"/>
<polygon fill="none" stroke="#000000" points="163,-32.5 163,-51.5 321,-51.5 321,-32.5 163,-32.5"/>
<text text-anchor="start" x="166" y="-38.6" font-family="Helvetica,sans-Serif" font-size="11.00" fill="#000000">&lt; 2</text>
<polygon fill="#ffffff" stroke="transparent" points="321,-32.5 321,-51.5 496,-51.5 496,-32.5 321,-32.5"/>
<polygon fill="none" stroke="#000000" points="321,-32.5 321,-51.5 496,-51.5 496,-32.5 321,-32.5"/>
<text text-anchor="start" x="460.6105" y="-38.6" font-family="Helvetica,sans-Serif" font-size="11.00" fill="#000000">0 rows</text>
<polygon fill="#ffffff" stroke="transparent" points="496,-32.5 496,-51.5 563,-51.5 563,-32.5 496,-32.5"/>
<polygon fill="none" stroke="#000000" points="496,-32.5 496,-51.5 563,-51.5 563,-32.5 496,-32.5"/>
<text text-anchor="start" x="544.4053" y="-38.6" font-family="Helvetica,sans-Serif" font-size="11.00" fill="#000000">0 &gt;</text>
<polygon fill="none" stroke="#000000" stroke-width="2" points="162,-31.5 162,-581.5 564,-581.5 564,-31.5 162,-31.5"/>
</a>
</g>
</g>
<!-- User -->
<g id="node2" class="node">
<title>User</title>
<g id="a_node2"><a xlink:href="../../tables/User.html" xlink:title="User" target="_top">
<polygon fill="#ffffff" stroke="transparent" points="8,-25 8,-108 112,-108 112,-25 8,-25"/>
<polygon fill="#f5f5f5" stroke="transparent" points="8,-84.5 8,-107.5 112,-107.5 112,-84.5 8,-84.5"/>
<polygon fill="none" stroke="#000000" points="8,-84.5 8,-107.5 112,-107.5 112,-84.5 8,-84.5"/>
<text text-anchor="start" x="13" y="-93.1" font-family="Helvetica,sans-Serif" font-weight="bold" font-size="11.00" fill="#000000">User</text>
<text text-anchor="start" x="77.0437" y="-92.6" font-family="Helvetica,sans-Serif" font-size="11.00" fill="#000000">[table]</text>
<polygon fill="none" stroke="#000000" points="8,-62.5 8,-84.5 112,-84.5 112,-62.5 8,-62.5"/>
<image xlink:href="../../images/primaryKeys.png" width="11px" height="12px" preserveAspectRatio="xMinYMin meet" x="13" y="-79.5"/>
<text text-anchor="start" x="28" y="-69.6" font-family="Helvetica,sans-Serif" font-size="11.00" fill="#000000">userid_pk</text>
<polygon fill="none" stroke="#000000" points="8,-43.5 8,-62.5 112,-62.5 112,-43.5 8,-43.5"/>
<text text-anchor="start" x="11" y="-49.6" font-family="Helvetica,sans-Serif" font-size="11.00" fill="#000000">...</text>
<polygon fill="#ffffff" stroke="transparent" points="8,-24.5 8,-43.5 30,-43.5 30,-24.5 8,-24.5"/>
<polygon fill="none" stroke="#000000" points="8,-24.5 8,-43.5 30,-43.5 30,-24.5 8,-24.5"/>
<text text-anchor="start" x="11" y="-30.6" font-family="Helvetica,sans-Serif" font-size="11.00" fill="#000000"> &#160;</text>
<polygon fill="#ffffff" stroke="transparent" points="30,-24.5 30,-43.5 73,-43.5 73,-24.5 30,-24.5"/>
<polygon fill="none" stroke="#000000" points="30,-24.5 30,-43.5 73,-43.5 73,-24.5 30,-24.5"/>
<text text-anchor="start" x="37.6105" y="-30.6" font-family="Helvetica,sans-Serif" font-size="11.00" fill="#000000">0 rows</text>
<polygon fill="#ffffff" stroke="transparent" points="73,-24.5 73,-43.5 112,-43.5 112,-24.5 73,-24.5"/>
<polygon fill="none" stroke="#000000" points="73,-24.5 73,-43.5 112,-43.5 112,-24.5 73,-24.5"/>
<text text-anchor="start" x="81.1755" y="-30.6" font-family="Helvetica,sans-Serif" font-size="11.00" fill="#000000">102 &gt;</text>
</a>
</g>
</g>
<!-- EXIT_DETAILS&#45;&gt;User -->
<g id="edge1" class="edge">
<title>EXIT_DETAILS:w&#45;&gt;User:e</title>
<path fill="none" stroke="#000000" d="M148.5097,-82.7813C136.3398,-79.6875 129.3909,-73.5 112,-73.5"/>
<polygon fill="#000000" stroke="#000000" points="155.0557,-83.5576 162.5759,-88.0749 159.0278,-84.0288 163,-84.5 163,-84.5 163,-84.5 159.0278,-84.0288 163.4241,-80.9251 155.0557,-83.5576 155.0557,-83.5576"/>
<ellipse fill="none" stroke="#000000" cx="151.878" cy="-83.1807" rx="3.2" ry="3.2"/>
</g>
<!-- EXIT_DETAILS&#45;&gt;User -->
<g id="edge2" class="edge">
<title>EXIT_DETAILS:w&#45;&gt;User:e</title>
<path fill="none" stroke="#000000" d="M148.5097,-64.2188C136.3398,-67.3125 129.3909,-73.5 112,-73.5"/>
<polygon fill="#000000" stroke="#000000" points="155.0557,-63.4424 163.4241,-66.0749 159.0278,-62.9712 163,-62.5 163,-62.5 163,-62.5 159.0278,-62.9712 162.5759,-58.9251 155.0557,-63.4424 155.0557,-63.4424"/>
<ellipse fill="none" stroke="#000000" cx="151.878" cy="-63.8193" rx="3.2" ry="3.2"/>
</g>
</g>
</svg>
