<?xml version="1.0" encoding="UTF-8" standalone="no"?>
<!DOCTYPE svg PUBLIC "-//W3C//DTD SVG 1.1//EN"
 "http://www.w3.org/Graphics/SVG/1.1/DTD/svg11.dtd">
<!-- Generated by graphviz version 2.40.1 (20161225.0304)
 -->
<!-- Title: oneDegreeRelationshipsDiagram Pages: 1 -->
<svg width="697pt" height="749pt"
 viewBox="0.00 0.00 697.00 748.50" xmlns="http://www.w3.org/2000/svg" xmlns:xlink="http://www.w3.org/1999/xlink">
<g id="graph0" class="graph" transform="scale(1 1) rotate(0) translate(4 744.5)">
<title>oneDegreeRelationshipsDiagram</title>
<polygon fill="#ffffff" stroke="transparent" points="-4,4 -4,-744.5 693,-744.5 693,4 -4,4"/>
<!-- GENERAL_SETTINGS_LEAVE -->
<g id="node1" class="node">
<title>GENERAL_SETTINGS_LEAVE</title>
<g id="a_node1"><a xlink:href="../../tables/GENERAL_SETTINGS_LEAVE.html" xlink:title="GENERAL_SETTINGS_LEAVE" target="_top">
<polygon fill="#ffffff" stroke="transparent" points="161,-30.5 161,-736.5 681,-736.5 681,-30.5 161,-30.5"/>
<polygon fill="#f5f5f5" stroke="transparent" points="163,-711.5 163,-734.5 679,-734.5 679,-711.5 163,-711.5"/>
<polygon fill="none" stroke="#000000" points="163,-711.5 163,-734.5 679,-734.5 679,-711.5 163,-711.5"/>
<text text-anchor="start" x="168" y="-720.1" font-family="Helvetica,sans-Serif" font-weight="bold" font-size="11.00" fill="#000000">GENERAL_SETTINGS_LEAVE</text>
<text text-anchor="start" x="644.0437" y="-719.6" font-family="Helvetica,sans-Serif" font-size="11.00" fill="#000000">[table]</text>
<polygon fill="none" stroke="#000000" points="163,-689.5 163,-711.5 568,-711.5 568,-689.5 163,-689.5"/>
<image xlink:href="../../images/primaryKeys.png" width="11px" height="12px" preserveAspectRatio="xMinYMin meet" x="168" y="-706.5"/>
<text text-anchor="start" x="183" y="-696.6" font-family="Helvetica,sans-Serif" font-size="11.00" fill="#000000">ID</text>
<polygon fill="none" stroke="#000000" points="568,-689.5 568,-711.5 679,-711.5 679,-689.5 568,-689.5"/>
<text text-anchor="start" x="571" y="-697.2" font-family="Helvetica,sans-Serif" font-size="11.00" fill="#000000">int[10]</text>
<polygon fill="none" stroke="#000000" points="163,-667.5 163,-689.5 568,-689.5 568,-667.5 163,-667.5"/>
<text text-anchor="start" x="183" y="-674.6" font-family="Helvetica,sans-Serif" font-size="11.00" fill="#000000">WORKSPACE_ID</text>
<polygon fill="none" stroke="#000000" points="568,-667.5 568,-689.5 679,-689.5 679,-667.5 568,-667.5"/>
<text text-anchor="start" x="571" y="-675.2" font-family="Helvetica,sans-Serif" font-size="11.00" fill="#000000">int[10]</text>
<polygon fill="none" stroke="#000000" points="163,-645.5 163,-667.5 568,-667.5 568,-645.5 163,-645.5"/>
<text text-anchor="start" x="183" y="-652.6" font-family="Helvetica,sans-Serif" font-size="11.00" fill="#000000">CONSECUTIVE_LEAVES_CONSIDERED_AS_LEAVE</text>
<polygon fill="none" stroke="#000000" points="568,-645.5 568,-667.5 679,-667.5 679,-645.5 568,-645.5"/>
<text text-anchor="start" x="571" y="-653.2" font-family="Helvetica,sans-Serif" font-size="11.00" fill="#000000">int[10]</text>
<polygon fill="none" stroke="#000000" points="163,-623.5 163,-645.5 568,-645.5 568,-623.5 163,-623.5"/>
<text text-anchor="start" x="183" y="-630.6" font-family="Helvetica,sans-Serif" font-size="11.00" fill="#000000">APPLICABLE_LEAVE_TYPES</text>
<polygon fill="none" stroke="#000000" points="568,-623.5 568,-645.5 679,-645.5 679,-623.5 568,-623.5"/>
<text text-anchor="start" x="571" y="-631.2" font-family="Helvetica,sans-Serif" font-size="11.00" fill="#000000">enum[18]</text>
<polygon fill="none" stroke="#000000" points="163,-601.5 163,-623.5 568,-623.5 568,-601.5 163,-601.5"/>
<text text-anchor="start" x="183" y="-608.6" font-family="Helvetica,sans-Serif" font-size="11.00" fill="#000000">COMPENSATORY_REQUEST_ENTRY_MODE</text>
<polygon fill="none" stroke="#000000" points="568,-601.5 568,-623.5 679,-623.5 679,-601.5 568,-601.5"/>
<text text-anchor="start" x="571" y="-609.2" font-family="Helvetica,sans-Serif" font-size="11.00" fill="#000000">enum[9]</text>
<polygon fill="none" stroke="#000000" points="163,-579.5 163,-601.5 568,-601.5 568,-579.5 163,-579.5"/>
<text text-anchor="start" x="183" y="-586.6" font-family="Helvetica,sans-Serif" font-size="11.00" fill="#000000">ADD_COMPENSATORY_REQUEST_FOR_FUTURE_DATE</text>
<polygon fill="none" stroke="#000000" points="568,-579.5 568,-601.5 679,-601.5 679,-579.5 568,-579.5"/>
<text text-anchor="start" x="571" y="-587.2" font-family="Helvetica,sans-Serif" font-size="11.00" fill="#000000">bit[1]</text>
<polygon fill="none" stroke="#000000" points="163,-557.5 163,-579.5 568,-579.5 568,-557.5 163,-557.5"/>
<text text-anchor="start" x="183" y="-564.6" font-family="Helvetica,sans-Serif" font-size="11.00" fill="#000000">LEAVE_CREDITED_ON_WEEKEND</text>
<polygon fill="none" stroke="#000000" points="568,-557.5 568,-579.5 679,-579.5 679,-557.5 568,-557.5"/>
<text text-anchor="start" x="571" y="-565.2" font-family="Helvetica,sans-Serif" font-size="11.00" fill="#000000">double[22]</text>
<polygon fill="none" stroke="#000000" points="163,-535.5 163,-557.5 568,-557.5 568,-535.5 163,-535.5"/>
<text text-anchor="start" x="183" y="-542.6" font-family="Helvetica,sans-Serif" font-size="11.00" fill="#000000">LEAVE_CREDITED_ON_HOLIDAYS</text>
<polygon fill="none" stroke="#000000" points="568,-535.5 568,-557.5 679,-557.5 679,-535.5 568,-535.5"/>
<text text-anchor="start" x="571" y="-543.2" font-family="Helvetica,sans-Serif" font-size="11.00" fill="#000000">double[22]</text>
<polygon fill="none" stroke="#000000" points="163,-513.5 163,-535.5 568,-535.5 568,-513.5 163,-513.5"/>
<text text-anchor="start" x="183" y="-520.6" font-family="Helvetica,sans-Serif" font-size="11.00" fill="#000000">CREDITED_LEAVE_EXPIRATION_DAYS</text>
<polygon fill="none" stroke="#000000" points="568,-513.5 568,-535.5 679,-535.5 679,-513.5 568,-513.5"/>
<text text-anchor="start" x="571" y="-521.2" font-family="Helvetica,sans-Serif" font-size="11.00" fill="#000000">int[10]</text>
<polygon fill="none" stroke="#000000" points="163,-491.5 163,-513.5 568,-513.5 568,-491.5 163,-491.5"/>
<text text-anchor="start" x="183" y="-498.6" font-family="Helvetica,sans-Serif" font-size="11.00" fill="#000000">UNITS_ALLOWED</text>
<polygon fill="none" stroke="#000000" points="568,-491.5 568,-513.5 679,-513.5 679,-491.5 568,-491.5"/>
<text text-anchor="start" x="571" y="-499.2" font-family="Helvetica,sans-Serif" font-size="11.00" fill="#000000">enum[8]</text>
<polygon fill="none" stroke="#000000" points="163,-469.5 163,-491.5 568,-491.5 568,-469.5 163,-469.5"/>
<text text-anchor="start" x="183" y="-476.6" font-family="Helvetica,sans-Serif" font-size="11.00" fill="#000000">DURATIONS_ALLOWED</text>
<polygon fill="none" stroke="#000000" points="568,-469.5 568,-491.5 679,-491.5 679,-469.5 568,-469.5"/>
<text text-anchor="start" x="571" y="-477.2" font-family="Helvetica,sans-Serif" font-size="11.00" fill="#000000">enum[8]</text>
<polygon fill="none" stroke="#000000" points="163,-447.5 163,-469.5 568,-469.5 568,-447.5 163,-447.5"/>
<text text-anchor="start" x="183" y="-454.6" font-family="Helvetica,sans-Serif" font-size="11.00" fill="#000000">TIME_INPUT_ALLOWED</text>
<polygon fill="none" stroke="#000000" points="568,-447.5 568,-469.5 679,-469.5 679,-447.5 568,-447.5"/>
<text text-anchor="start" x="571" y="-455.2" font-family="Helvetica,sans-Serif" font-size="11.00" fill="#000000">bit[1]</text>
<polygon fill="none" stroke="#000000" points="163,-425.5 163,-447.5 568,-447.5 568,-425.5 163,-425.5"/>
<text text-anchor="start" x="183" y="-432.6" font-family="Helvetica,sans-Serif" font-size="11.00" fill="#000000">MAKE_REASON_MANDATORY</text>
<polygon fill="none" stroke="#000000" points="568,-425.5 568,-447.5 679,-447.5 679,-425.5 568,-425.5"/>
<text text-anchor="start" x="571" y="-433.2" font-family="Helvetica,sans-Serif" font-size="11.00" fill="#000000">bit[1]</text>
<polygon fill="none" stroke="#000000" points="163,-403.5 163,-425.5 568,-425.5 568,-403.5 163,-403.5"/>
<text text-anchor="start" x="183" y="-410.6" font-family="Helvetica,sans-Serif" font-size="11.00" fill="#000000">RESOURCE_AVAILABILITY_REPORT_ACCESS</text>
<polygon fill="none" stroke="#000000" points="568,-403.5 568,-425.5 679,-425.5 679,-403.5 568,-403.5"/>
<text text-anchor="start" x="571" y="-411.2" font-family="Helvetica,sans-Serif" font-size="11.00" fill="#000000">enum[10]</text>
<polygon fill="none" stroke="#000000" points="163,-381.5 163,-403.5 568,-403.5 568,-381.5 163,-381.5"/>
<text text-anchor="start" x="183" y="-388.6" font-family="Helvetica,sans-Serif" font-size="11.00" fill="#000000">ENABLE_PAYROLL_REPORT_FOR_ADMIN</text>
<polygon fill="none" stroke="#000000" points="568,-381.5 568,-403.5 679,-403.5 679,-381.5 568,-381.5"/>
<text text-anchor="start" x="571" y="-389.2" font-family="Helvetica,sans-Serif" font-size="11.00" fill="#000000">bit[1]</text>
<polygon fill="none" stroke="#000000" points="163,-359.5 163,-381.5 568,-381.5 568,-359.5 163,-359.5"/>
<text text-anchor="start" x="183" y="-366.6" font-family="Helvetica,sans-Serif" font-size="11.00" fill="#000000">INCLUDE_WEEKENDS</text>
<polygon fill="none" stroke="#000000" points="568,-359.5 568,-381.5 679,-381.5 679,-359.5 568,-359.5"/>
<text text-anchor="start" x="571" y="-367.2" font-family="Helvetica,sans-Serif" font-size="11.00" fill="#000000">bit[1]</text>
<polygon fill="none" stroke="#000000" points="163,-337.5 163,-359.5 568,-359.5 568,-337.5 163,-337.5"/>
<text text-anchor="start" x="183" y="-344.6" font-family="Helvetica,sans-Serif" font-size="11.00" fill="#000000">INCLUDE_HOLIDAYS</text>
<polygon fill="none" stroke="#000000" points="568,-337.5 568,-359.5 679,-359.5 679,-337.5 568,-337.5"/>
<text text-anchor="start" x="571" y="-345.2" font-family="Helvetica,sans-Serif" font-size="11.00" fill="#000000">bit[1]</text>
<polygon fill="none" stroke="#000000" points="163,-315.5 163,-337.5 568,-337.5 568,-315.5 163,-315.5"/>
<text text-anchor="start" x="183" y="-322.6" font-family="Helvetica,sans-Serif" font-size="11.00" fill="#000000">UNPAID_LEAVE_MARKED_AS</text>
<polygon fill="none" stroke="#000000" points="568,-315.5 568,-337.5 679,-337.5 679,-315.5 568,-315.5"/>
<text text-anchor="start" x="571" y="-323.2" font-family="Helvetica,sans-Serif" font-size="11.00" fill="#000000">bit[1]</text>
<polygon fill="none" stroke="#000000" points="163,-293.5 163,-315.5 568,-315.5 568,-293.5 163,-293.5"/>
<text text-anchor="start" x="183" y="-300.6" font-family="Helvetica,sans-Serif" font-size="11.00" fill="#000000">ENABLE_PASSWORD_PROTECTION</text>
<polygon fill="none" stroke="#000000" points="568,-293.5 568,-315.5 679,-315.5 679,-293.5 568,-293.5"/>
<text text-anchor="start" x="571" y="-301.2" font-family="Helvetica,sans-Serif" font-size="11.00" fill="#000000">bit[1]</text>
<polygon fill="none" stroke="#000000" points="163,-271.5 163,-293.5 568,-293.5 568,-271.5 163,-271.5"/>
<text text-anchor="start" x="183" y="-278.6" font-family="Helvetica,sans-Serif" font-size="11.00" fill="#000000">ALLOW_LEAVE_REQUEST_UNTIL_NEXT</text>
<polygon fill="none" stroke="#000000" points="568,-271.5 568,-293.5 679,-293.5 679,-271.5 568,-271.5"/>
<text text-anchor="start" x="571" y="-279.2" font-family="Helvetica,sans-Serif" font-size="11.00" fill="#000000">enum[13]</text>
<polygon fill="none" stroke="#000000" points="163,-249.5 163,-271.5 568,-271.5 568,-249.5 163,-249.5"/>
<text text-anchor="start" x="183" y="-256.6" font-family="Helvetica,sans-Serif" font-size="11.00" fill="#000000">PAST_LEAVES_WITHIN_CURRENT_PAY_PERIOD</text>
<polygon fill="none" stroke="#000000" points="568,-249.5 568,-271.5 679,-271.5 679,-249.5 568,-249.5"/>
<text text-anchor="start" x="571" y="-257.2" font-family="Helvetica,sans-Serif" font-size="11.00" fill="#000000">enum[10]</text>
<polygon fill="none" stroke="#000000" points="163,-227.5 163,-249.5 568,-249.5 568,-227.5 163,-227.5"/>
<text text-anchor="start" x="183" y="-234.6" font-family="Helvetica,sans-Serif" font-size="11.00" fill="#000000">CURRENT_DAY_AND_UPCOMING_LEAVE_REQUESTS</text>
<polygon fill="none" stroke="#000000" points="568,-227.5 568,-249.5 679,-249.5 679,-227.5 568,-227.5"/>
<text text-anchor="start" x="571" y="-235.2" font-family="Helvetica,sans-Serif" font-size="11.00" fill="#000000">enum[10]</text>
<polygon fill="none" stroke="#000000" points="163,-205.5 163,-227.5 568,-227.5 568,-205.5 163,-205.5"/>
<text text-anchor="start" x="183" y="-212.6" font-family="Helvetica,sans-Serif" font-size="11.00" fill="#000000">MAKE_REASON_FOR_LEAVE_CANCELLATION_MANDATORY</text>
<polygon fill="none" stroke="#000000" points="568,-205.5 568,-227.5 679,-227.5 679,-205.5 568,-205.5"/>
<text text-anchor="start" x="571" y="-213.2" font-family="Helvetica,sans-Serif" font-size="11.00" fill="#000000">bit[1]</text>
<polygon fill="none" stroke="#000000" points="163,-183.5 163,-205.5 568,-205.5 568,-183.5 163,-183.5"/>
<text text-anchor="start" x="183" y="-190.6" font-family="Helvetica,sans-Serif" font-size="11.00" fill="#000000">LEAVE_DISPLAY_FORMAT</text>
<polygon fill="none" stroke="#000000" points="568,-183.5 568,-205.5 679,-205.5 679,-183.5 568,-183.5"/>
<text text-anchor="start" x="571" y="-191.2" font-family="Helvetica,sans-Serif" font-size="11.00" fill="#000000">enum[9]</text>
<polygon fill="none" stroke="#000000" points="163,-161.5 163,-183.5 568,-183.5 568,-161.5 163,-161.5"/>
<text text-anchor="start" x="183" y="-168.6" font-family="Helvetica,sans-Serif" font-size="11.00" fill="#000000">REMINDER_EMAIL</text>
<polygon fill="none" stroke="#000000" points="568,-161.5 568,-183.5 679,-183.5 679,-161.5 568,-161.5"/>
<text text-anchor="start" x="571" y="-169.2" font-family="Helvetica,sans-Serif" font-size="11.00" fill="#000000">bit[1]</text>
<polygon fill="none" stroke="#000000" points="163,-139.5 163,-161.5 568,-161.5 568,-139.5 163,-139.5"/>
<text text-anchor="start" x="183" y="-146.6" font-family="Helvetica,sans-Serif" font-size="11.00" fill="#000000">CUSTOMIZE_EMAIL_TEMPLATE</text>
<polygon fill="none" stroke="#000000" points="568,-139.5 568,-161.5 679,-161.5 679,-139.5 568,-139.5"/>
<text text-anchor="start" x="570.6115" y="-147.2" font-family="Helvetica,sans-Serif" font-size="11.00" fill="#000000">longtext[2147483647]</text>
<polygon fill="none" stroke="#000000" points="163,-117.5 163,-139.5 568,-139.5 568,-117.5 163,-117.5"/>
<text text-anchor="start" x="183" y="-124.6" font-family="Helvetica,sans-Serif" font-size="11.00" fill="#000000">CREATED_TIME</text>
<polygon fill="none" stroke="#000000" points="568,-117.5 568,-139.5 679,-139.5 679,-117.5 568,-117.5"/>
<text text-anchor="start" x="571" y="-125.2" font-family="Helvetica,sans-Serif" font-size="11.00" fill="#000000">datetime[26]</text>
<polygon fill="none" stroke="#000000" points="163,-95.5 163,-117.5 568,-117.5 568,-95.5 163,-95.5"/>
<text text-anchor="start" x="183" y="-102.6" font-family="Helvetica,sans-Serif" font-size="11.00" fill="#000000">MODIFIED_TIME</text>
<polygon fill="none" stroke="#000000" points="568,-95.5 568,-117.5 679,-117.5 679,-95.5 568,-95.5"/>
<text text-anchor="start" x="571" y="-103.2" font-family="Helvetica,sans-Serif" font-size="11.00" fill="#000000">datetime[26]</text>
<polygon fill="#ffffff" stroke="transparent" points="163,-73.5 163,-95.5 568,-95.5 568,-73.5 163,-73.5"/>
<polygon fill="none" stroke="#000000" points="163,-73.5 163,-95.5 568,-95.5 568,-73.5 163,-73.5"/>
<image xlink:href="../../images/foreignKeys.png" width="11px" height="12px" preserveAspectRatio="xMinYMin meet" x="168" y="-90.5"/>
<text text-anchor="start" x="183" y="-80.6" font-family="Helvetica,sans-Serif" font-size="11.00" fill="#000000">CREATOR</text>
<polygon fill="none" stroke="#000000" points="568,-73.5 568,-95.5 679,-95.5 679,-73.5 568,-73.5"/>
<text text-anchor="start" x="571" y="-81.2" font-family="Helvetica,sans-Serif" font-size="11.00" fill="#000000">int[10]</text>
<polygon fill="#ffffff" stroke="transparent" points="163,-51.5 163,-73.5 568,-73.5 568,-51.5 163,-51.5"/>
<polygon fill="none" stroke="#000000" points="163,-51.5 163,-73.5 568,-73.5 568,-51.5 163,-51.5"/>
<image xlink:href="../../images/foreignKeys.png" width="11px" height="12px" preserveAspectRatio="xMinYMin meet" x="168" y="-68.5"/>
<text text-anchor="start" x="183" y="-58.6" font-family="Helvetica,sans-Serif" font-size="11.00" fill="#000000">LAST_MODIFIER</text>
<polygon fill="none" stroke="#000000" points="568,-51.5 568,-73.5 679,-73.5 679,-51.5 568,-51.5"/>
<text text-anchor="start" x="571" y="-59.2" font-family="Helvetica,sans-Serif" font-size="11.00" fill="#000000">int[10]</text>
<polygon fill="#ffffff" stroke="transparent" points="163,-32.5 163,-51.5 357,-51.5 357,-32.5 163,-32.5"/>
<polygon fill="none" stroke="#000000" points="163,-32.5 163,-51.5 357,-51.5 357,-32.5 163,-32.5"/>
<text text-anchor="start" x="166" y="-38.6" font-family="Helvetica,sans-Serif" font-size="11.00" fill="#000000">&lt; 2</text>
<polygon fill="#ffffff" stroke="transparent" points="357,-32.5 357,-51.5 568,-51.5 568,-32.5 357,-32.5"/>
<polygon fill="none" stroke="#000000" points="357,-32.5 357,-51.5 568,-51.5 568,-32.5 357,-32.5"/>
<text text-anchor="start" x="532.6105" y="-38.6" font-family="Helvetica,sans-Serif" font-size="11.00" fill="#000000">0 rows</text>
<polygon fill="#ffffff" stroke="transparent" points="568,-32.5 568,-51.5 679,-51.5 679,-32.5 568,-32.5"/>
<polygon fill="none" stroke="#000000" points="568,-32.5 568,-51.5 679,-51.5 679,-32.5 568,-32.5"/>
<text text-anchor="start" x="660.4053" y="-38.6" font-family="Helvetica,sans-Serif" font-size="11.00" fill="#000000">0 &gt;</text>
<polygon fill="none" stroke="#000000" stroke-width="2" points="162,-31.5 162,-735.5 680,-735.5 680,-31.5 162,-31.5"/>
</a>
</g>
</g>
<!-- User -->
<g id="node2" class="node">
<title>User</title>
<g id="a_node2"><a xlink:href="../../tables/User.html" xlink:title="User" target="_top">
<polygon fill="#ffffff" stroke="transparent" points="8,-25 8,-108 112,-108 112,-25 8,-25"/>
<polygon fill="#f5f5f5" stroke="transparent" points="8,-84.5 8,-107.5 112,-107.5 112,-84.5 8,-84.5"/>
<polygon fill="none" stroke="#000000" points="8,-84.5 8,-107.5 112,-107.5 112,-84.5 8,-84.5"/>
<text text-anchor="start" x="13" y="-93.1" font-family="Helvetica,sans-Serif" font-weight="bold" font-size="11.00" fill="#000000">User</text>
<text text-anchor="start" x="77.0437" y="-92.6" font-family="Helvetica,sans-Serif" font-size="11.00" fill="#000000">[table]</text>
<polygon fill="none" stroke="#000000" points="8,-62.5 8,-84.5 112,-84.5 112,-62.5 8,-62.5"/>
<image xlink:href="../../images/primaryKeys.png" width="11px" height="12px" preserveAspectRatio="xMinYMin meet" x="13" y="-79.5"/>
<text text-anchor="start" x="28" y="-69.6" font-family="Helvetica,sans-Serif" font-size="11.00" fill="#000000">userid_pk</text>
<polygon fill="none" stroke="#000000" points="8,-43.5 8,-62.5 112,-62.5 112,-43.5 8,-43.5"/>
<text text-anchor="start" x="11" y="-49.6" font-family="Helvetica,sans-Serif" font-size="11.00" fill="#000000">...</text>
<polygon fill="#ffffff" stroke="transparent" points="8,-24.5 8,-43.5 30,-43.5 30,-24.5 8,-24.5"/>
<polygon fill="none" stroke="#000000" points="8,-24.5 8,-43.5 30,-43.5 30,-24.5 8,-24.5"/>
<text text-anchor="start" x="11" y="-30.6" font-family="Helvetica,sans-Serif" font-size="11.00" fill="#000000"> &#160;</text>
<polygon fill="#ffffff" stroke="transparent" points="30,-24.5 30,-43.5 73,-43.5 73,-24.5 30,-24.5"/>
<polygon fill="none" stroke="#000000" points="30,-24.5 30,-43.5 73,-43.5 73,-24.5 30,-24.5"/>
<text text-anchor="start" x="37.6105" y="-30.6" font-family="Helvetica,sans-Serif" font-size="11.00" fill="#000000">0 rows</text>
<polygon fill="#ffffff" stroke="transparent" points="73,-24.5 73,-43.5 112,-43.5 112,-24.5 73,-24.5"/>
<polygon fill="none" stroke="#000000" points="73,-24.5 73,-43.5 112,-43.5 112,-24.5 73,-24.5"/>
<text text-anchor="start" x="81.1755" y="-30.6" font-family="Helvetica,sans-Serif" font-size="11.00" fill="#000000">102 &gt;</text>
</a>
</g>
</g>
<!-- GENERAL_SETTINGS_LEAVE&#45;&gt;User -->
<g id="edge1" class="edge">
<title>GENERAL_SETTINGS_LEAVE:w&#45;&gt;User:e</title>
<path fill="none" stroke="#000000" d="M148.5097,-82.7813C136.3398,-79.6875 129.3909,-73.5 112,-73.5"/>
<polygon fill="#000000" stroke="#000000" points="155.0557,-83.5576 162.5759,-88.0749 159.0278,-84.0288 163,-84.5 163,-84.5 163,-84.5 159.0278,-84.0288 163.4241,-80.9251 155.0557,-83.5576 155.0557,-83.5576"/>
<ellipse fill="none" stroke="#000000" cx="151.878" cy="-83.1807" rx="3.2" ry="3.2"/>
</g>
<!-- GENERAL_SETTINGS_LEAVE&#45;&gt;User -->
<g id="edge2" class="edge">
<title>GENERAL_SETTINGS_LEAVE:w&#45;&gt;User:e</title>
<path fill="none" stroke="#000000" d="M148.5097,-64.2188C136.3398,-67.3125 129.3909,-73.5 112,-73.5"/>
<polygon fill="#000000" stroke="#000000" points="155.0557,-63.4424 163.4241,-66.0749 159.0278,-62.9712 163,-62.5 163,-62.5 163,-62.5 159.0278,-62.9712 162.5759,-58.9251 155.0557,-63.4424 155.0557,-63.4424"/>
<ellipse fill="none" stroke="#000000" cx="151.878" cy="-63.8193" rx="3.2" ry="3.2"/>
</g>
</g>
</svg>
