<?xml version="1.0" encoding="UTF-8" standalone="no"?>
<!DOCTYPE svg PUBLIC "-//W3C//DTD SVG 1.1//EN"
 "http://www.w3.org/Graphics/SVG/1.1/DTD/svg11.dtd">
<!-- Generated by graphviz version 2.40.1 (20161225.0304)
 -->
<!-- Title: oneDegreeRelationshipsDiagram Pages: 1 -->
<svg width="493pt" height="397pt"
 viewBox="0.00 0.00 493.00 396.50" xmlns="http://www.w3.org/2000/svg" xmlns:xlink="http://www.w3.org/1999/xlink">
<g id="graph0" class="graph" transform="scale(1 1) rotate(0) translate(4 392.5)">
<title>oneDegreeRelationshipsDiagram</title>
<polygon fill="#ffffff" stroke="transparent" points="-4,4 -4,-392.5 489,-392.5 489,4 -4,4"/>
<!-- HOLIDAY -->
<g id="node1" class="node">
<title>HOLIDAY</title>
<g id="a_node1"><a xlink:href="../../tables/HOLIDAY.html" xlink:title="HOLIDAY" target="_top">
<polygon fill="#ffffff" stroke="transparent" points="161,-30.5 161,-384.5 477,-384.5 477,-30.5 161,-30.5"/>
<polygon fill="#f5f5f5" stroke="transparent" points="163,-359.5 163,-382.5 475,-382.5 475,-359.5 163,-359.5"/>
<polygon fill="none" stroke="#000000" points="163,-359.5 163,-382.5 475,-382.5 475,-359.5 163,-359.5"/>
<text text-anchor="start" x="168" y="-368.1" font-family="Helvetica,sans-Serif" font-weight="bold" font-size="11.00" fill="#000000">HOLIDAY</text>
<text text-anchor="start" x="440.0437" y="-367.6" font-family="Helvetica,sans-Serif" font-size="11.00" fill="#000000">[table]</text>
<polygon fill="none" stroke="#000000" points="163,-337.5 163,-359.5 408,-359.5 408,-337.5 163,-337.5"/>
<image xlink:href="../../images/primaryKeys.png" width="11px" height="12px" preserveAspectRatio="xMinYMin meet" x="168" y="-354.5"/>
<text text-anchor="start" x="183" y="-344.6" font-family="Helvetica,sans-Serif" font-size="11.00" fill="#000000">ID</text>
<polygon fill="none" stroke="#000000" points="408,-337.5 408,-359.5 475,-359.5 475,-337.5 408,-337.5"/>
<text text-anchor="start" x="411" y="-345.2" font-family="Helvetica,sans-Serif" font-size="11.00" fill="#000000">int[10]</text>
<polygon fill="none" stroke="#000000" points="163,-315.5 163,-337.5 408,-337.5 408,-315.5 163,-315.5"/>
<text text-anchor="start" x="183" y="-322.6" font-family="Helvetica,sans-Serif" font-size="11.00" fill="#000000">WORKSPACE_ID</text>
<polygon fill="none" stroke="#000000" points="408,-315.5 408,-337.5 475,-337.5 475,-315.5 408,-315.5"/>
<text text-anchor="start" x="411" y="-323.2" font-family="Helvetica,sans-Serif" font-size="11.00" fill="#000000">int[10]</text>
<polygon fill="none" stroke="#000000" points="163,-293.5 163,-315.5 408,-315.5 408,-293.5 163,-293.5"/>
<text text-anchor="start" x="183" y="-300.6" font-family="Helvetica,sans-Serif" font-size="11.00" fill="#000000">NAME</text>
<polygon fill="none" stroke="#000000" points="408,-293.5 408,-315.5 475,-315.5 475,-293.5 408,-293.5"/>
<text text-anchor="start" x="410.9365" y="-301.2" font-family="Helvetica,sans-Serif" font-size="11.00" fill="#000000">varchar[100]</text>
<polygon fill="none" stroke="#000000" points="163,-271.5 163,-293.5 408,-293.5 408,-271.5 163,-271.5"/>
<text text-anchor="start" x="183" y="-278.6" font-family="Helvetica,sans-Serif" font-size="11.00" fill="#000000">date</text>
<polygon fill="none" stroke="#000000" points="408,-271.5 408,-293.5 475,-293.5 475,-271.5 408,-271.5"/>
<text text-anchor="start" x="411" y="-279.2" font-family="Helvetica,sans-Serif" font-size="11.00" fill="#000000">datetime[26]</text>
<polygon fill="none" stroke="#000000" points="163,-249.5 163,-271.5 408,-271.5 408,-249.5 163,-249.5"/>
<text text-anchor="start" x="183" y="-256.6" font-family="Helvetica,sans-Serif" font-size="11.00" fill="#000000">RESTRICTED</text>
<polygon fill="none" stroke="#000000" points="408,-249.5 408,-271.5 475,-271.5 475,-249.5 408,-249.5"/>
<text text-anchor="start" x="411" y="-257.2" font-family="Helvetica,sans-Serif" font-size="11.00" fill="#000000">bit[1]</text>
<polygon fill="none" stroke="#000000" points="163,-227.5 163,-249.5 408,-249.5 408,-227.5 163,-227.5"/>
<text text-anchor="start" x="183" y="-234.6" font-family="Helvetica,sans-Serif" font-size="11.00" fill="#000000">APPLICABLE_FOR</text>
<polygon fill="none" stroke="#000000" points="408,-227.5 408,-249.5 475,-249.5 475,-227.5 408,-227.5"/>
<text text-anchor="start" x="411" y="-235.2" font-family="Helvetica,sans-Serif" font-size="11.00" fill="#000000">enum[21]</text>
<polygon fill="none" stroke="#000000" points="163,-205.5 163,-227.5 408,-227.5 408,-205.5 163,-205.5"/>
<text text-anchor="start" x="183" y="-212.6" font-family="Helvetica,sans-Serif" font-size="11.00" fill="#000000">DESCRIPTION</text>
<polygon fill="none" stroke="#000000" points="408,-205.5 408,-227.5 475,-227.5 475,-205.5 408,-205.5"/>
<text text-anchor="start" x="410.9365" y="-213.2" font-family="Helvetica,sans-Serif" font-size="11.00" fill="#000000">varchar[255]</text>
<polygon fill="none" stroke="#000000" points="163,-183.5 163,-205.5 408,-205.5 408,-183.5 163,-183.5"/>
<text text-anchor="start" x="183" y="-190.6" font-family="Helvetica,sans-Serif" font-size="11.00" fill="#000000">REMINDER_DAYS</text>
<polygon fill="none" stroke="#000000" points="408,-183.5 408,-205.5 475,-205.5 475,-183.5 408,-183.5"/>
<text text-anchor="start" x="411" y="-191.2" font-family="Helvetica,sans-Serif" font-size="11.00" fill="#000000">enum[6]</text>
<polygon fill="none" stroke="#000000" points="163,-161.5 163,-183.5 408,-183.5 408,-161.5 163,-161.5"/>
<text text-anchor="start" x="183" y="-168.6" font-family="Helvetica,sans-Serif" font-size="11.00" fill="#000000">NOTIFY_APPLICABLE_EMPLOYEES</text>
<polygon fill="none" stroke="#000000" points="408,-161.5 408,-183.5 475,-183.5 475,-161.5 408,-161.5"/>
<text text-anchor="start" x="411" y="-169.2" font-family="Helvetica,sans-Serif" font-size="11.00" fill="#000000">bit[1]</text>
<polygon fill="none" stroke="#000000" points="163,-139.5 163,-161.5 408,-161.5 408,-139.5 163,-139.5"/>
<text text-anchor="start" x="183" y="-146.6" font-family="Helvetica,sans-Serif" font-size="11.00" fill="#000000">REPROCESS_LEAVE_HOLIDAY</text>
<polygon fill="none" stroke="#000000" points="408,-139.5 408,-161.5 475,-161.5 475,-139.5 408,-139.5"/>
<text text-anchor="start" x="411" y="-147.2" font-family="Helvetica,sans-Serif" font-size="11.00" fill="#000000">bit[1]</text>
<polygon fill="none" stroke="#000000" points="163,-117.5 163,-139.5 408,-139.5 408,-117.5 163,-117.5"/>
<text text-anchor="start" x="183" y="-124.6" font-family="Helvetica,sans-Serif" font-size="11.00" fill="#000000">CREATED_TIME</text>
<polygon fill="none" stroke="#000000" points="408,-117.5 408,-139.5 475,-139.5 475,-117.5 408,-117.5"/>
<text text-anchor="start" x="411" y="-125.2" font-family="Helvetica,sans-Serif" font-size="11.00" fill="#000000">datetime[26]</text>
<polygon fill="none" stroke="#000000" points="163,-95.5 163,-117.5 408,-117.5 408,-95.5 163,-95.5"/>
<text text-anchor="start" x="183" y="-102.6" font-family="Helvetica,sans-Serif" font-size="11.00" fill="#000000">MODIFIED_TIME</text>
<polygon fill="none" stroke="#000000" points="408,-95.5 408,-117.5 475,-117.5 475,-95.5 408,-95.5"/>
<text text-anchor="start" x="411" y="-103.2" font-family="Helvetica,sans-Serif" font-size="11.00" fill="#000000">datetime[26]</text>
<polygon fill="#ffffff" stroke="transparent" points="163,-73.5 163,-95.5 408,-95.5 408,-73.5 163,-73.5"/>
<polygon fill="none" stroke="#000000" points="163,-73.5 163,-95.5 408,-95.5 408,-73.5 163,-73.5"/>
<image xlink:href="../../images/foreignKeys.png" width="11px" height="12px" preserveAspectRatio="xMinYMin meet" x="168" y="-90.5"/>
<text text-anchor="start" x="183" y="-80.6" font-family="Helvetica,sans-Serif" font-size="11.00" fill="#000000">CREATOR</text>
<polygon fill="none" stroke="#000000" points="408,-73.5 408,-95.5 475,-95.5 475,-73.5 408,-73.5"/>
<text text-anchor="start" x="411" y="-81.2" font-family="Helvetica,sans-Serif" font-size="11.00" fill="#000000">int[10]</text>
<polygon fill="#ffffff" stroke="transparent" points="163,-51.5 163,-73.5 408,-73.5 408,-51.5 163,-51.5"/>
<polygon fill="none" stroke="#000000" points="163,-51.5 163,-73.5 408,-73.5 408,-51.5 163,-51.5"/>
<image xlink:href="../../images/foreignKeys.png" width="11px" height="12px" preserveAspectRatio="xMinYMin meet" x="168" y="-68.5"/>
<text text-anchor="start" x="183" y="-58.6" font-family="Helvetica,sans-Serif" font-size="11.00" fill="#000000">LAST_MODIFIER</text>
<polygon fill="none" stroke="#000000" points="408,-51.5 408,-73.5 475,-73.5 475,-51.5 408,-51.5"/>
<text text-anchor="start" x="411" y="-59.2" font-family="Helvetica,sans-Serif" font-size="11.00" fill="#000000">int[10]</text>
<polygon fill="#ffffff" stroke="transparent" points="163,-32.5 163,-51.5 277,-51.5 277,-32.5 163,-32.5"/>
<polygon fill="none" stroke="#000000" points="163,-32.5 163,-51.5 277,-51.5 277,-32.5 163,-32.5"/>
<text text-anchor="start" x="166" y="-38.6" font-family="Helvetica,sans-Serif" font-size="11.00" fill="#000000">&lt; 2</text>
<polygon fill="#ffffff" stroke="transparent" points="277,-32.5 277,-51.5 408,-51.5 408,-32.5 277,-32.5"/>
<polygon fill="none" stroke="#000000" points="277,-32.5 277,-51.5 408,-51.5 408,-32.5 277,-32.5"/>
<text text-anchor="start" x="372.6105" y="-38.6" font-family="Helvetica,sans-Serif" font-size="11.00" fill="#000000">0 rows</text>
<polygon fill="#ffffff" stroke="transparent" points="408,-32.5 408,-51.5 475,-51.5 475,-32.5 408,-32.5"/>
<polygon fill="none" stroke="#000000" points="408,-32.5 408,-51.5 475,-51.5 475,-32.5 408,-32.5"/>
<text text-anchor="start" x="456.4053" y="-38.6" font-family="Helvetica,sans-Serif" font-size="11.00" fill="#000000">0 &gt;</text>
<polygon fill="none" stroke="#000000" stroke-width="2" points="162,-31.5 162,-383.5 476,-383.5 476,-31.5 162,-31.5"/>
</a>
</g>
</g>
<!-- User -->
<g id="node2" class="node">
<title>User</title>
<g id="a_node2"><a xlink:href="../../tables/User.html" xlink:title="User" target="_top">
<polygon fill="#ffffff" stroke="transparent" points="8,-25 8,-108 112,-108 112,-25 8,-25"/>
<polygon fill="#f5f5f5" stroke="transparent" points="8,-84.5 8,-107.5 112,-107.5 112,-84.5 8,-84.5"/>
<polygon fill="none" stroke="#000000" points="8,-84.5 8,-107.5 112,-107.5 112,-84.5 8,-84.5"/>
<text text-anchor="start" x="13" y="-93.1" font-family="Helvetica,sans-Serif" font-weight="bold" font-size="11.00" fill="#000000">User</text>
<text text-anchor="start" x="77.0437" y="-92.6" font-family="Helvetica,sans-Serif" font-size="11.00" fill="#000000">[table]</text>
<polygon fill="none" stroke="#000000" points="8,-62.5 8,-84.5 112,-84.5 112,-62.5 8,-62.5"/>
<image xlink:href="../../images/primaryKeys.png" width="11px" height="12px" preserveAspectRatio="xMinYMin meet" x="13" y="-79.5"/>
<text text-anchor="start" x="28" y="-69.6" font-family="Helvetica,sans-Serif" font-size="11.00" fill="#000000">userid_pk</text>
<polygon fill="none" stroke="#000000" points="8,-43.5 8,-62.5 112,-62.5 112,-43.5 8,-43.5"/>
<text text-anchor="start" x="11" y="-49.6" font-family="Helvetica,sans-Serif" font-size="11.00" fill="#000000">...</text>
<polygon fill="#ffffff" stroke="transparent" points="8,-24.5 8,-43.5 30,-43.5 30,-24.5 8,-24.5"/>
<polygon fill="none" stroke="#000000" points="8,-24.5 8,-43.5 30,-43.5 30,-24.5 8,-24.5"/>
<text text-anchor="start" x="11" y="-30.6" font-family="Helvetica,sans-Serif" font-size="11.00" fill="#000000"> &#160;</text>
<polygon fill="#ffffff" stroke="transparent" points="30,-24.5 30,-43.5 73,-43.5 73,-24.5 30,-24.5"/>
<polygon fill="none" stroke="#000000" points="30,-24.5 30,-43.5 73,-43.5 73,-24.5 30,-24.5"/>
<text text-anchor="start" x="37.6105" y="-30.6" font-family="Helvetica,sans-Serif" font-size="11.00" fill="#000000">0 rows</text>
<polygon fill="#ffffff" stroke="transparent" points="73,-24.5 73,-43.5 112,-43.5 112,-24.5 73,-24.5"/>
<polygon fill="none" stroke="#000000" points="73,-24.5 73,-43.5 112,-43.5 112,-24.5 73,-24.5"/>
<text text-anchor="start" x="81.1755" y="-30.6" font-family="Helvetica,sans-Serif" font-size="11.00" fill="#000000">102 &gt;</text>
</a>
</g>
</g>
<!-- HOLIDAY&#45;&gt;User -->
<g id="edge1" class="edge">
<title>HOLIDAY:w&#45;&gt;User:e</title>
<path fill="none" stroke="#000000" d="M148.5097,-82.7813C136.3398,-79.6875 129.3909,-73.5 112,-73.5"/>
<polygon fill="#000000" stroke="#000000" points="155.0557,-83.5576 162.5759,-88.0749 159.0278,-84.0288 163,-84.5 163,-84.5 163,-84.5 159.0278,-84.0288 163.4241,-80.9251 155.0557,-83.5576 155.0557,-83.5576"/>
<ellipse fill="none" stroke="#000000" cx="151.878" cy="-83.1807" rx="3.2" ry="3.2"/>
</g>
<!-- HOLIDAY&#45;&gt;User -->
<g id="edge2" class="edge">
<title>HOLIDAY:w&#45;&gt;User:e</title>
<path fill="none" stroke="#000000" d="M148.5097,-64.2188C136.3398,-67.3125 129.3909,-73.5 112,-73.5"/>
<polygon fill="#000000" stroke="#000000" points="155.0557,-63.4424 163.4241,-66.0749 159.0278,-62.9712 163,-62.5 163,-62.5 163,-62.5 159.0278,-62.9712 162.5759,-58.9251 155.0557,-63.4424 155.0557,-63.4424"/>
<ellipse fill="none" stroke="#000000" cx="151.878" cy="-63.8193" rx="3.2" ry="3.2"/>
</g>
</g>
</svg>
