<?xml version="1.0" encoding="UTF-8" standalone="no"?>
<!DOCTYPE svg PUBLIC "-//W3C//DTD SVG 1.1//EN"
 "http://www.w3.org/Graphics/SVG/1.1/DTD/svg11.dtd">
<!-- Generated by graphviz version 2.40.1 (20161225.0304)
 -->
<!-- Title: oneDegreeRelationshipsDiagram Pages: 1 -->
<svg width="790pt" height="985pt"
 viewBox="0.00 0.00 790.00 985.00" xmlns="http://www.w3.org/2000/svg" xmlns:xlink="http://www.w3.org/1999/xlink">
<g id="graph0" class="graph" transform="scale(1 1) rotate(0) translate(4 981)">
<title>oneDegreeRelationshipsDiagram</title>
<polygon fill="#ffffff" stroke="transparent" points="-4,4 -4,-981 786,-981 786,4 -4,4"/>
<!-- EMPLOYEE -->
<g id="node1" class="node">
<title>EMPLOYEE</title>
<g id="a_node1"><a xlink:href="../../tables/EMPLOYEE.html" xlink:title="EMPLOYEE" target="_top">
<polygon fill="#ffffff" stroke="transparent" points="161,-103.5 161,-296.5 375,-296.5 375,-103.5 161,-103.5"/>
<polygon fill="#f5f5f5" stroke="transparent" points="161,-273 161,-296 375,-296 375,-273 161,-273"/>
<polygon fill="none" stroke="#000000" points="161,-273 161,-296 375,-296 375,-273 161,-273"/>
<text text-anchor="start" x="166" y="-281.6" font-family="Helvetica,sans-Serif" font-weight="bold" font-size="11.00" fill="#000000">EMPLOYEE</text>
<text text-anchor="start" x="340.0437" y="-281.1" font-family="Helvetica,sans-Serif" font-size="11.00" fill="#000000">[table]</text>
<polygon fill="none" stroke="#000000" points="161,-251 161,-273 375,-273 375,-251 161,-251"/>
<image xlink:href="../../images/primaryKeys.png" width="11px" height="12px" preserveAspectRatio="xMinYMin meet" x="166" y="-268"/>
<text text-anchor="start" x="181" y="-258.1" font-family="Helvetica,sans-Serif" font-size="11.00" fill="#000000">ID</text>
<polygon fill="#ffffff" stroke="transparent" points="161,-229 161,-251 375,-251 375,-229 161,-229"/>
<polygon fill="none" stroke="#000000" points="161,-229 161,-251 375,-251 375,-229 161,-229"/>
<image xlink:href="../../images/foreignKeys.png" width="11px" height="12px" preserveAspectRatio="xMinYMin meet" x="166" y="-246"/>
<text text-anchor="start" x="181" y="-236.1" font-family="Helvetica,sans-Serif" font-size="11.00" fill="#000000">DEPARTMENT_ID</text>
<polygon fill="#ffffff" stroke="transparent" points="161,-207 161,-229 375,-229 375,-207 161,-207"/>
<polygon fill="none" stroke="#000000" points="161,-207 161,-229 375,-229 375,-207 161,-207"/>
<image xlink:href="../../images/foreignKeys.png" width="11px" height="12px" preserveAspectRatio="xMinYMin meet" x="166" y="-224"/>
<text text-anchor="start" x="181" y="-214.1" font-family="Helvetica,sans-Serif" font-size="11.00" fill="#000000">LOCATION_ID</text>
<polygon fill="#ffffff" stroke="transparent" points="161,-185 161,-207 375,-207 375,-185 161,-185"/>
<polygon fill="none" stroke="#000000" points="161,-185 161,-207 375,-207 375,-185 161,-185"/>
<image xlink:href="../../images/foreignKeys.png" width="11px" height="12px" preserveAspectRatio="xMinYMin meet" x="166" y="-202"/>
<text text-anchor="start" x="181" y="-192.1" font-family="Helvetica,sans-Serif" font-size="11.00" fill="#000000">DESIGNATION_ID</text>
<polygon fill="#ffffff" stroke="transparent" points="161,-163 161,-185 375,-185 375,-163 161,-163"/>
<polygon fill="none" stroke="#000000" points="161,-163 161,-185 375,-185 375,-163 161,-163"/>
<image xlink:href="../../images/foreignKeys.png" width="11px" height="12px" preserveAspectRatio="xMinYMin meet" x="166" y="-180"/>
<text text-anchor="start" x="181" y="-170.1" font-family="Helvetica,sans-Serif" font-size="11.00" fill="#000000">CREATOR</text>
<polygon fill="#ffffff" stroke="transparent" points="161,-141 161,-163 375,-163 375,-141 161,-141"/>
<polygon fill="none" stroke="#000000" points="161,-141 161,-163 375,-163 375,-141 161,-141"/>
<image xlink:href="../../images/foreignKeys.png" width="11px" height="12px" preserveAspectRatio="xMinYMin meet" x="166" y="-158"/>
<text text-anchor="start" x="181" y="-148.1" font-family="Helvetica,sans-Serif" font-size="11.00" fill="#000000">LAST_MODIFIER</text>
<polygon fill="none" stroke="#000000" points="161,-122 161,-141 375,-141 375,-122 161,-122"/>
<text text-anchor="start" x="164" y="-128.1" font-family="Helvetica,sans-Serif" font-size="11.00" fill="#000000">...</text>
<polygon fill="#ffffff" stroke="transparent" points="161,-103 161,-122 246,-122 246,-103 161,-103"/>
<polygon fill="none" stroke="#000000" points="161,-103 161,-122 246,-122 246,-103 161,-103"/>
<text text-anchor="start" x="164" y="-109.1" font-family="Helvetica,sans-Serif" font-size="11.00" fill="#000000">&lt; 5</text>
<polygon fill="#ffffff" stroke="transparent" points="246,-103 246,-122 316,-122 316,-103 246,-103"/>
<polygon fill="none" stroke="#000000" points="246,-103 246,-122 316,-122 316,-103 246,-103"/>
<text text-anchor="start" x="280.6105" y="-109.1" font-family="Helvetica,sans-Serif" font-size="11.00" fill="#000000">0 rows</text>
<polygon fill="#ffffff" stroke="transparent" points="316,-103 316,-122 375,-122 375,-103 316,-103"/>
<polygon fill="none" stroke="#000000" points="316,-103 316,-122 375,-122 375,-103 316,-103"/>
<text text-anchor="start" x="350.2904" y="-109.1" font-family="Helvetica,sans-Serif" font-size="11.00" fill="#000000">15 &gt;</text>
</a>
</g>
</g>
<!-- User -->
<g id="node2" class="node">
<title>User</title>
<g id="a_node2"><a xlink:href="../../tables/User.html" xlink:title="User" target="_top">
<polygon fill="#ffffff" stroke="transparent" points="8,-66.5 8,-149.5 112,-149.5 112,-66.5 8,-66.5"/>
<polygon fill="#f5f5f5" stroke="transparent" points="8,-126 8,-149 112,-149 112,-126 8,-126"/>
<polygon fill="none" stroke="#000000" points="8,-126 8,-149 112,-149 112,-126 8,-126"/>
<text text-anchor="start" x="13" y="-134.6" font-family="Helvetica,sans-Serif" font-weight="bold" font-size="11.00" fill="#000000">User</text>
<text text-anchor="start" x="77.0437" y="-134.1" font-family="Helvetica,sans-Serif" font-size="11.00" fill="#000000">[table]</text>
<polygon fill="none" stroke="#000000" points="8,-104 8,-126 112,-126 112,-104 8,-104"/>
<image xlink:href="../../images/primaryKeys.png" width="11px" height="12px" preserveAspectRatio="xMinYMin meet" x="13" y="-121"/>
<text text-anchor="start" x="28" y="-111.1" font-family="Helvetica,sans-Serif" font-size="11.00" fill="#000000">userid_pk</text>
<polygon fill="none" stroke="#000000" points="8,-85 8,-104 112,-104 112,-85 8,-85"/>
<text text-anchor="start" x="11" y="-91.1" font-family="Helvetica,sans-Serif" font-size="11.00" fill="#000000">...</text>
<polygon fill="#ffffff" stroke="transparent" points="8,-66 8,-85 30,-85 30,-66 8,-66"/>
<polygon fill="none" stroke="#000000" points="8,-66 8,-85 30,-85 30,-66 8,-66"/>
<text text-anchor="start" x="11" y="-72.1" font-family="Helvetica,sans-Serif" font-size="11.00" fill="#000000"> &#160;</text>
<polygon fill="#ffffff" stroke="transparent" points="30,-66 30,-85 73,-85 73,-66 30,-66"/>
<polygon fill="none" stroke="#000000" points="30,-66 30,-85 73,-85 73,-66 30,-66"/>
<text text-anchor="start" x="37.6105" y="-72.1" font-family="Helvetica,sans-Serif" font-size="11.00" fill="#000000">0 rows</text>
<polygon fill="#ffffff" stroke="transparent" points="73,-66 73,-85 112,-85 112,-66 73,-66"/>
<polygon fill="none" stroke="#000000" points="73,-66 73,-85 112,-85 112,-66 73,-66"/>
<text text-anchor="start" x="81.1755" y="-72.1" font-family="Helvetica,sans-Serif" font-size="11.00" fill="#000000">102 &gt;</text>
</a>
</g>
</g>
<!-- EMPLOYEE&#45;&gt;User -->
<g id="edge1" class="edge">
<title>EMPLOYEE:w&#45;&gt;User:e</title>
<path fill="none" stroke="#000000" d="M147.1662,-168.9697C132.0842,-154.7018 139.9614,-115 112,-115"/>
<polygon fill="#000000" stroke="#000000" points="153.4816,-171.2661 159.7697,-177.3833 157.2408,-172.6331 161,-174 161,-174 161,-174 157.2408,-172.6331 162.2303,-170.6167 153.4816,-171.2661 153.4816,-171.2661"/>
<ellipse fill="none" stroke="#000000" cx="150.4743" cy="-170.1725" rx="3.2" ry="3.2"/>
</g>
<!-- EMPLOYEE&#45;&gt;User -->
<g id="edge2" class="edge">
<title>EMPLOYEE:w&#45;&gt;User:e</title>
<path fill="none" stroke="#000000" d="M147.1217,-147.4631C134.5786,-137.583 133.3196,-115 112,-115"/>
<polygon fill="#000000" stroke="#000000" points="153.396,-149.5142 159.8814,-155.4218 157.198,-150.7571 161,-152 161,-152 161,-152 157.198,-150.7571 162.1186,-148.5782 153.396,-149.5142 153.396,-149.5142"/>
<ellipse fill="none" stroke="#000000" cx="150.3544" cy="-148.5198" rx="3.2" ry="3.2"/>
</g>
<!-- HR_LETTERS -->
<g id="node3" class="node">
<title>HR_LETTERS</title>
<g id="a_node3"><a xlink:href="../../tables/HR_LETTERS.html" xlink:title="HR_LETTERS" target="_top">
<polygon fill="#ffffff" stroke="transparent" points="424,-25 424,-973 774,-973 774,-25 424,-25"/>
<polygon fill="#f5f5f5" stroke="transparent" points="426,-948 426,-971 772,-971 772,-948 426,-948"/>
<polygon fill="none" stroke="#000000" points="426,-948 426,-971 772,-971 772,-948 426,-948"/>
<text text-anchor="start" x="431" y="-956.6" font-family="Helvetica,sans-Serif" font-weight="bold" font-size="11.00" fill="#000000">HR_LETTERS</text>
<text text-anchor="start" x="737.0437" y="-956.1" font-family="Helvetica,sans-Serif" font-size="11.00" fill="#000000">[table]</text>
<polygon fill="none" stroke="#000000" points="426,-926 426,-948 705,-948 705,-926 426,-926"/>
<image xlink:href="../../images/primaryKeys.png" width="11px" height="12px" preserveAspectRatio="xMinYMin meet" x="431" y="-943"/>
<text text-anchor="start" x="446" y="-933.1" font-family="Helvetica,sans-Serif" font-size="11.00" fill="#000000">ID</text>
<polygon fill="none" stroke="#000000" points="705,-926 705,-948 772,-948 772,-926 705,-926"/>
<text text-anchor="start" x="708" y="-933.7" font-family="Helvetica,sans-Serif" font-size="11.00" fill="#000000">int[10]</text>
<polygon fill="none" stroke="#000000" points="426,-904 426,-926 705,-926 705,-904 426,-904"/>
<text text-anchor="start" x="446" y="-911.1" font-family="Helvetica,sans-Serif" font-size="11.00" fill="#000000">WORKSPACE_ID</text>
<polygon fill="none" stroke="#000000" points="705,-904 705,-926 772,-926 772,-904 705,-904"/>
<text text-anchor="start" x="708" y="-911.7" font-family="Helvetica,sans-Serif" font-size="11.00" fill="#000000">int[10]</text>
<polygon fill="none" stroke="#000000" points="426,-882 426,-904 705,-904 705,-882 426,-882"/>
<text text-anchor="start" x="446" y="-889.1" font-family="Helvetica,sans-Serif" font-size="11.00" fill="#000000">DATE_OF_JOINING</text>
<polygon fill="none" stroke="#000000" points="705,-882 705,-904 772,-904 772,-882 705,-882"/>
<text text-anchor="start" x="708" y="-889.7" font-family="Helvetica,sans-Serif" font-size="11.00" fill="#000000">datetime[26]</text>
<polygon fill="none" stroke="#000000" points="426,-860 426,-882 705,-882 705,-860 426,-860"/>
<text text-anchor="start" x="446" y="-867.1" font-family="Helvetica,sans-Serif" font-size="11.00" fill="#000000">DESIGNATION_ID</text>
<polygon fill="none" stroke="#000000" points="705,-860 705,-882 772,-882 772,-860 705,-860"/>
<text text-anchor="start" x="708" y="-867.7" font-family="Helvetica,sans-Serif" font-size="11.00" fill="#000000">int[10]</text>
<polygon fill="none" stroke="#000000" points="426,-838 426,-860 705,-860 705,-838 426,-838"/>
<text text-anchor="start" x="446" y="-845.1" font-family="Helvetica,sans-Serif" font-size="11.00" fill="#000000">DATE_OF_REQUEST</text>
<polygon fill="none" stroke="#000000" points="705,-838 705,-860 772,-860 772,-838 705,-838"/>
<text text-anchor="start" x="708" y="-845.7" font-family="Helvetica,sans-Serif" font-size="11.00" fill="#000000">datetime[26]</text>
<polygon fill="none" stroke="#000000" points="426,-816 426,-838 705,-838 705,-816 426,-816"/>
<text text-anchor="start" x="446" y="-823.1" font-family="Helvetica,sans-Serif" font-size="11.00" fill="#000000">IS_CHANGE_IN_PRESENT_ADDRESS</text>
<polygon fill="none" stroke="#000000" points="705,-816 705,-838 772,-838 772,-816 705,-816"/>
<text text-anchor="start" x="708" y="-823.7" font-family="Helvetica,sans-Serif" font-size="11.00" fill="#000000">bit[1]</text>
<polygon fill="none" stroke="#000000" points="426,-794 426,-816 705,-816 705,-794 426,-794"/>
<text text-anchor="start" x="446" y="-801.1" font-family="Helvetica,sans-Serif" font-size="11.00" fill="#000000">ADDRESS_LINE1</text>
<polygon fill="none" stroke="#000000" points="705,-794 705,-816 772,-816 772,-794 705,-794"/>
<text text-anchor="start" x="707.9365" y="-801.7" font-family="Helvetica,sans-Serif" font-size="11.00" fill="#000000">varchar[255]</text>
<polygon fill="none" stroke="#000000" points="426,-772 426,-794 705,-794 705,-772 426,-772"/>
<text text-anchor="start" x="446" y="-779.1" font-family="Helvetica,sans-Serif" font-size="11.00" fill="#000000">ADDRESS_LINE2</text>
<polygon fill="none" stroke="#000000" points="705,-772 705,-794 772,-794 772,-772 705,-772"/>
<text text-anchor="start" x="707.9365" y="-779.7" font-family="Helvetica,sans-Serif" font-size="11.00" fill="#000000">varchar[255]</text>
<polygon fill="none" stroke="#000000" points="426,-750 426,-772 705,-772 705,-750 426,-750"/>
<text text-anchor="start" x="446" y="-757.1" font-family="Helvetica,sans-Serif" font-size="11.00" fill="#000000">CITY</text>
<polygon fill="none" stroke="#000000" points="705,-750 705,-772 772,-772 772,-750 705,-750"/>
<text text-anchor="start" x="707.9365" y="-757.7" font-family="Helvetica,sans-Serif" font-size="11.00" fill="#000000">varchar[255]</text>
<polygon fill="none" stroke="#000000" points="426,-728 426,-750 705,-750 705,-728 426,-728"/>
<text text-anchor="start" x="446" y="-735.1" font-family="Helvetica,sans-Serif" font-size="11.00" fill="#000000">STATE</text>
<polygon fill="none" stroke="#000000" points="705,-728 705,-750 772,-750 772,-728 705,-728"/>
<text text-anchor="start" x="707.9365" y="-735.7" font-family="Helvetica,sans-Serif" font-size="11.00" fill="#000000">varchar[255]</text>
<polygon fill="none" stroke="#000000" points="426,-706 426,-728 705,-728 705,-706 426,-706"/>
<text text-anchor="start" x="446" y="-713.1" font-family="Helvetica,sans-Serif" font-size="11.00" fill="#000000">COUNTRY</text>
<polygon fill="none" stroke="#000000" points="705,-706 705,-728 772,-728 772,-706 705,-706"/>
<text text-anchor="start" x="707.9365" y="-713.7" font-family="Helvetica,sans-Serif" font-size="11.00" fill="#000000">varchar[255]</text>
<polygon fill="none" stroke="#000000" points="426,-684 426,-706 705,-706 705,-684 426,-684"/>
<text text-anchor="start" x="446" y="-691.1" font-family="Helvetica,sans-Serif" font-size="11.00" fill="#000000">POSTAL_CODE</text>
<polygon fill="none" stroke="#000000" points="705,-684 705,-706 772,-706 772,-684 705,-684"/>
<text text-anchor="start" x="707.9365" y="-691.7" font-family="Helvetica,sans-Serif" font-size="11.00" fill="#000000">varchar[255]</text>
<polygon fill="none" stroke="#000000" points="426,-662 426,-684 705,-684 705,-662 426,-662"/>
<text text-anchor="start" x="446" y="-669.1" font-family="Helvetica,sans-Serif" font-size="11.00" fill="#000000">DEPARTMENT</text>
<polygon fill="none" stroke="#000000" points="705,-662 705,-684 772,-684 772,-662 705,-662"/>
<text text-anchor="start" x="707.9365" y="-669.7" font-family="Helvetica,sans-Serif" font-size="11.00" fill="#000000">varchar[255]</text>
<polygon fill="none" stroke="#000000" points="426,-640 426,-662 705,-662 705,-640 426,-640"/>
<text text-anchor="start" x="446" y="-647.1" font-family="Helvetica,sans-Serif" font-size="11.00" fill="#000000">CURRENT_EXPERIENCE</text>
<polygon fill="none" stroke="#000000" points="705,-640 705,-662 772,-662 772,-640 705,-640"/>
<text text-anchor="start" x="707.9365" y="-647.7" font-family="Helvetica,sans-Serif" font-size="11.00" fill="#000000">varchar[255]</text>
<polygon fill="none" stroke="#000000" points="426,-618 426,-640 705,-640 705,-618 426,-618"/>
<text text-anchor="start" x="446" y="-625.1" font-family="Helvetica,sans-Serif" font-size="11.00" fill="#000000">LETTER_TYPE</text>
<polygon fill="none" stroke="#000000" points="705,-618 705,-640 772,-640 772,-618 705,-618"/>
<text text-anchor="start" x="708" y="-625.7" font-family="Helvetica,sans-Serif" font-size="11.00" fill="#000000">enum[30]</text>
<polygon fill="none" stroke="#000000" points="426,-596 426,-618 705,-618 705,-596 426,-596"/>
<text text-anchor="start" x="446" y="-603.1" font-family="Helvetica,sans-Serif" font-size="11.00" fill="#000000">SCHOOL_LEAVING_CERTIFICATE</text>
<polygon fill="none" stroke="#000000" points="705,-596 705,-618 772,-618 772,-596 705,-596"/>
<text text-anchor="start" x="707.9365" y="-603.7" font-family="Helvetica,sans-Serif" font-size="11.00" fill="#000000">varchar[255]</text>
<polygon fill="none" stroke="#000000" points="426,-574 426,-596 705,-596 705,-574 426,-574"/>
<text text-anchor="start" x="446" y="-581.1" font-family="Helvetica,sans-Serif" font-size="11.00" fill="#000000">MARKSHEETS</text>
<polygon fill="none" stroke="#000000" points="705,-574 705,-596 772,-596 772,-574 705,-574"/>
<text text-anchor="start" x="707.9365" y="-581.7" font-family="Helvetica,sans-Serif" font-size="11.00" fill="#000000">varchar[255]</text>
<polygon fill="none" stroke="#000000" points="426,-552 426,-574 705,-574 705,-552 426,-552"/>
<text text-anchor="start" x="446" y="-559.1" font-family="Helvetica,sans-Serif" font-size="11.00" fill="#000000">PASSPORT</text>
<polygon fill="none" stroke="#000000" points="705,-552 705,-574 772,-574 772,-552 705,-552"/>
<text text-anchor="start" x="707.9365" y="-559.7" font-family="Helvetica,sans-Serif" font-size="11.00" fill="#000000">varchar[255]</text>
<polygon fill="none" stroke="#000000" points="426,-530 426,-552 705,-552 705,-530 426,-530"/>
<text text-anchor="start" x="446" y="-537.1" font-family="Helvetica,sans-Serif" font-size="11.00" fill="#000000">AADHAR_CARD</text>
<polygon fill="none" stroke="#000000" points="705,-530 705,-552 772,-552 772,-530 705,-530"/>
<text text-anchor="start" x="707.9365" y="-537.7" font-family="Helvetica,sans-Serif" font-size="11.00" fill="#000000">varchar[255]</text>
<polygon fill="none" stroke="#000000" points="426,-508 426,-530 705,-530 705,-508 426,-508"/>
<text text-anchor="start" x="446" y="-515.1" font-family="Helvetica,sans-Serif" font-size="11.00" fill="#000000">RESUME</text>
<polygon fill="none" stroke="#000000" points="705,-508 705,-530 772,-530 772,-508 705,-508"/>
<text text-anchor="start" x="707.9365" y="-515.7" font-family="Helvetica,sans-Serif" font-size="11.00" fill="#000000">varchar[255]</text>
<polygon fill="none" stroke="#000000" points="426,-486 426,-508 705,-508 705,-486 426,-486"/>
<text text-anchor="start" x="446" y="-493.1" font-family="Helvetica,sans-Serif" font-size="11.00" fill="#000000">COVER_LETTER</text>
<polygon fill="none" stroke="#000000" points="705,-486 705,-508 772,-508 772,-486 705,-486"/>
<text text-anchor="start" x="707.9365" y="-493.7" font-family="Helvetica,sans-Serif" font-size="11.00" fill="#000000">varchar[255]</text>
<polygon fill="none" stroke="#000000" points="426,-464 426,-486 705,-486 705,-464 426,-464"/>
<text text-anchor="start" x="446" y="-471.1" font-family="Helvetica,sans-Serif" font-size="11.00" fill="#000000">EMPLOYMENT_VERIFICATION_LETTERS</text>
<polygon fill="none" stroke="#000000" points="705,-464 705,-486 772,-486 772,-464 705,-464"/>
<text text-anchor="start" x="707.9365" y="-471.7" font-family="Helvetica,sans-Serif" font-size="11.00" fill="#000000">varchar[255]</text>
<polygon fill="none" stroke="#000000" points="426,-442 426,-464 705,-464 705,-442 426,-442"/>
<text text-anchor="start" x="446" y="-449.1" font-family="Helvetica,sans-Serif" font-size="11.00" fill="#000000">SKILLS_CERTIFICATES</text>
<polygon fill="none" stroke="#000000" points="705,-442 705,-464 772,-464 772,-442 705,-442"/>
<text text-anchor="start" x="707.9365" y="-449.7" font-family="Helvetica,sans-Serif" font-size="11.00" fill="#000000">varchar[255]</text>
<polygon fill="none" stroke="#000000" points="426,-420 426,-442 705,-442 705,-420 426,-420"/>
<text text-anchor="start" x="446" y="-427.1" font-family="Helvetica,sans-Serif" font-size="11.00" fill="#000000">PERFORMANCE_APPRAISALS</text>
<polygon fill="none" stroke="#000000" points="705,-420 705,-442 772,-442 772,-420 705,-420"/>
<text text-anchor="start" x="707.9365" y="-427.7" font-family="Helvetica,sans-Serif" font-size="11.00" fill="#000000">varchar[255]</text>
<polygon fill="none" stroke="#000000" points="426,-398 426,-420 705,-420 705,-398 426,-398"/>
<text text-anchor="start" x="446" y="-405.1" font-family="Helvetica,sans-Serif" font-size="11.00" fill="#000000">BANK_STATEMENTS</text>
<polygon fill="none" stroke="#000000" points="705,-398 705,-420 772,-420 772,-398 705,-398"/>
<text text-anchor="start" x="707.9365" y="-405.7" font-family="Helvetica,sans-Serif" font-size="11.00" fill="#000000">varchar[255]</text>
<polygon fill="none" stroke="#000000" points="426,-376 426,-398 705,-398 705,-376 426,-376"/>
<text text-anchor="start" x="446" y="-383.1" font-family="Helvetica,sans-Serif" font-size="11.00" fill="#000000">LEASE_AGREEMENT</text>
<polygon fill="none" stroke="#000000" points="705,-376 705,-398 772,-398 772,-376 705,-376"/>
<text text-anchor="start" x="707.9365" y="-383.7" font-family="Helvetica,sans-Serif" font-size="11.00" fill="#000000">varchar[255]</text>
<polygon fill="none" stroke="#000000" points="426,-354 426,-376 705,-376 705,-354 426,-354"/>
<text text-anchor="start" x="446" y="-361.1" font-family="Helvetica,sans-Serif" font-size="11.00" fill="#000000">VOTER_REGISTRATION_CARD</text>
<polygon fill="none" stroke="#000000" points="705,-354 705,-376 772,-376 772,-354 705,-354"/>
<text text-anchor="start" x="707.9365" y="-361.7" font-family="Helvetica,sans-Serif" font-size="11.00" fill="#000000">varchar[255]</text>
<polygon fill="none" stroke="#000000" points="426,-332 426,-354 705,-354 705,-332 426,-332"/>
<text text-anchor="start" x="446" y="-339.1" font-family="Helvetica,sans-Serif" font-size="11.00" fill="#000000">SALARY</text>
<polygon fill="none" stroke="#000000" points="705,-332 705,-354 772,-354 772,-332 705,-332"/>
<text text-anchor="start" x="707.9365" y="-339.7" font-family="Helvetica,sans-Serif" font-size="11.00" fill="#000000">varchar[255]</text>
<polygon fill="none" stroke="#000000" points="426,-310 426,-332 705,-332 705,-310 426,-310"/>
<text text-anchor="start" x="446" y="-317.1" font-family="Helvetica,sans-Serif" font-size="11.00" fill="#000000">BENEFITS</text>
<polygon fill="none" stroke="#000000" points="705,-310 705,-332 772,-332 772,-310 705,-310"/>
<text text-anchor="start" x="707.9365" y="-317.7" font-family="Helvetica,sans-Serif" font-size="11.00" fill="#000000">varchar[255]</text>
<polygon fill="none" stroke="#000000" points="426,-288 426,-310 705,-310 705,-288 426,-288"/>
<text text-anchor="start" x="446" y="-295.1" font-family="Helvetica,sans-Serif" font-size="11.00" fill="#000000">PROBATION_PERIOD</text>
<polygon fill="none" stroke="#000000" points="705,-288 705,-310 772,-310 772,-288 705,-288"/>
<text text-anchor="start" x="707.9365" y="-295.7" font-family="Helvetica,sans-Serif" font-size="11.00" fill="#000000">varchar[255]</text>
<polygon fill="none" stroke="#000000" points="426,-266 426,-288 705,-288 705,-266 426,-266"/>
<text text-anchor="start" x="446" y="-273.1" font-family="Helvetica,sans-Serif" font-size="11.00" fill="#000000">NOTICE_PERIOD</text>
<polygon fill="none" stroke="#000000" points="705,-266 705,-288 772,-288 772,-266 705,-266"/>
<text text-anchor="start" x="707.9365" y="-273.7" font-family="Helvetica,sans-Serif" font-size="11.00" fill="#000000">varchar[255]</text>
<polygon fill="none" stroke="#000000" points="426,-244 426,-266 705,-266 705,-244 426,-244"/>
<text text-anchor="start" x="446" y="-251.1" font-family="Helvetica,sans-Serif" font-size="11.00" fill="#000000">REPORTING_MANAGER</text>
<polygon fill="none" stroke="#000000" points="705,-244 705,-266 772,-266 772,-244 705,-244"/>
<text text-anchor="start" x="707.9365" y="-251.7" font-family="Helvetica,sans-Serif" font-size="11.00" fill="#000000">varchar[255]</text>
<polygon fill="none" stroke="#000000" points="426,-222 426,-244 705,-244 705,-222 426,-222"/>
<text text-anchor="start" x="446" y="-229.1" font-family="Helvetica,sans-Serif" font-size="11.00" fill="#000000">WORK_SCHEDULE</text>
<polygon fill="none" stroke="#000000" points="705,-222 705,-244 772,-244 772,-222 705,-222"/>
<text text-anchor="start" x="707.9365" y="-229.7" font-family="Helvetica,sans-Serif" font-size="11.00" fill="#000000">varchar[255]</text>
<polygon fill="none" stroke="#000000" points="426,-200 426,-222 705,-222 705,-200 426,-200"/>
<text text-anchor="start" x="446" y="-207.1" font-family="Helvetica,sans-Serif" font-size="11.00" fill="#000000">REASONS_FOR_TERMINATION</text>
<polygon fill="none" stroke="#000000" points="705,-200 705,-222 772,-222 772,-200 705,-200"/>
<text text-anchor="start" x="707.9365" y="-207.7" font-family="Helvetica,sans-Serif" font-size="11.00" fill="#000000">varchar[255]</text>
<polygon fill="none" stroke="#000000" points="426,-178 426,-200 705,-200 705,-178 426,-178"/>
<text text-anchor="start" x="446" y="-185.1" font-family="Helvetica,sans-Serif" font-size="11.00" fill="#000000">EFFECTIVE_DATE_OF_TERMINATION</text>
<polygon fill="none" stroke="#000000" points="705,-178 705,-200 772,-200 772,-178 705,-178"/>
<text text-anchor="start" x="708" y="-185.7" font-family="Helvetica,sans-Serif" font-size="11.00" fill="#000000">datetime[26]</text>
<polygon fill="none" stroke="#000000" points="426,-156 426,-178 705,-178 705,-156 426,-156"/>
<text text-anchor="start" x="446" y="-163.1" font-family="Helvetica,sans-Serif" font-size="11.00" fill="#000000">DRIVER_LICENSE</text>
<polygon fill="none" stroke="#000000" points="705,-156 705,-178 772,-178 772,-156 705,-156"/>
<text text-anchor="start" x="708" y="-163.7" font-family="Helvetica,sans-Serif" font-size="11.00" fill="#000000">datetime[26]</text>
<polygon fill="#ffffff" stroke="transparent" points="426,-134 426,-156 705,-156 705,-134 426,-134"/>
<polygon fill="none" stroke="#000000" points="426,-134 426,-156 705,-156 705,-134 426,-134"/>
<image xlink:href="../../images/foreignKeys.png" width="11px" height="12px" preserveAspectRatio="xMinYMin meet" x="431" y="-151"/>
<text text-anchor="start" x="446" y="-141.1" font-family="Helvetica,sans-Serif" font-size="11.00" fill="#000000">EMPLOYEE_ID</text>
<polygon fill="none" stroke="#000000" points="705,-134 705,-156 772,-156 772,-134 705,-134"/>
<text text-anchor="start" x="708" y="-141.7" font-family="Helvetica,sans-Serif" font-size="11.00" fill="#000000">int[10]</text>
<polygon fill="none" stroke="#000000" points="426,-112 426,-134 705,-134 705,-112 426,-112"/>
<text text-anchor="start" x="446" y="-119.1" font-family="Helvetica,sans-Serif" font-size="11.00" fill="#000000">CREATED_TIME</text>
<polygon fill="none" stroke="#000000" points="705,-112 705,-134 772,-134 772,-112 705,-112"/>
<text text-anchor="start" x="708" y="-119.7" font-family="Helvetica,sans-Serif" font-size="11.00" fill="#000000">datetime[26]</text>
<polygon fill="none" stroke="#000000" points="426,-90 426,-112 705,-112 705,-90 426,-90"/>
<text text-anchor="start" x="446" y="-97.1" font-family="Helvetica,sans-Serif" font-size="11.00" fill="#000000">MODIFIED_TIME</text>
<polygon fill="none" stroke="#000000" points="705,-90 705,-112 772,-112 772,-90 705,-90"/>
<text text-anchor="start" x="708" y="-97.7" font-family="Helvetica,sans-Serif" font-size="11.00" fill="#000000">datetime[26]</text>
<polygon fill="#ffffff" stroke="transparent" points="426,-68 426,-90 705,-90 705,-68 426,-68"/>
<polygon fill="none" stroke="#000000" points="426,-68 426,-90 705,-90 705,-68 426,-68"/>
<image xlink:href="../../images/foreignKeys.png" width="11px" height="12px" preserveAspectRatio="xMinYMin meet" x="431" y="-85"/>
<text text-anchor="start" x="446" y="-75.1" font-family="Helvetica,sans-Serif" font-size="11.00" fill="#000000">CREATOR</text>
<polygon fill="none" stroke="#000000" points="705,-68 705,-90 772,-90 772,-68 705,-68"/>
<text text-anchor="start" x="708" y="-75.7" font-family="Helvetica,sans-Serif" font-size="11.00" fill="#000000">int[10]</text>
<polygon fill="#ffffff" stroke="transparent" points="426,-46 426,-68 705,-68 705,-46 426,-46"/>
<polygon fill="none" stroke="#000000" points="426,-46 426,-68 705,-68 705,-46 426,-46"/>
<image xlink:href="../../images/foreignKeys.png" width="11px" height="12px" preserveAspectRatio="xMinYMin meet" x="431" y="-63"/>
<text text-anchor="start" x="446" y="-53.1" font-family="Helvetica,sans-Serif" font-size="11.00" fill="#000000">LAST_MODIFIER</text>
<polygon fill="none" stroke="#000000" points="705,-46 705,-68 772,-68 772,-46 705,-46"/>
<text text-anchor="start" x="708" y="-53.7" font-family="Helvetica,sans-Serif" font-size="11.00" fill="#000000">int[10]</text>
<polygon fill="#ffffff" stroke="transparent" points="426,-27 426,-46 557,-46 557,-27 426,-27"/>
<polygon fill="none" stroke="#000000" points="426,-27 426,-46 557,-46 557,-27 426,-27"/>
<text text-anchor="start" x="429" y="-33.1" font-family="Helvetica,sans-Serif" font-size="11.00" fill="#000000">&lt; 3</text>
<polygon fill="#ffffff" stroke="transparent" points="557,-27 557,-46 705,-46 705,-27 557,-27"/>
<polygon fill="none" stroke="#000000" points="557,-27 557,-46 705,-46 705,-27 557,-27"/>
<text text-anchor="start" x="669.6105" y="-33.1" font-family="Helvetica,sans-Serif" font-size="11.00" fill="#000000">0 rows</text>
<polygon fill="#ffffff" stroke="transparent" points="705,-27 705,-46 772,-46 772,-27 705,-27"/>
<polygon fill="none" stroke="#000000" points="705,-27 705,-46 772,-46 772,-27 705,-27"/>
<text text-anchor="start" x="753.4053" y="-33.1" font-family="Helvetica,sans-Serif" font-size="11.00" fill="#000000">0 &gt;</text>
<polygon fill="none" stroke="#000000" stroke-width="2" points="425,-26 425,-972 773,-972 773,-26 425,-26"/>
</a>
</g>
</g>
<!-- HR_LETTERS&#45;&gt;EMPLOYEE -->
<g id="edge4" class="edge">
<title>HR_LETTERS:w&#45;&gt;EMPLOYEE:e</title>
<path fill="none" stroke="#000000" d="M411.7491,-148.6299C381.1221,-168.3782 425.7427,-262 375,-262"/>
<polygon fill="#000000" stroke="#000000" points="418.2475,-146.9747 426.8886,-148.4886 422.1238,-145.9873 426,-145 426,-145 426,-145 422.1238,-145.9873 425.1114,-141.5114 418.2475,-146.9747 418.2475,-146.9747"/>
<ellipse fill="none" stroke="#000000" cx="415.1465" cy="-147.7646" rx="3.2" ry="3.2"/>
</g>
<!-- HR_LETTERS&#45;&gt;User -->
<g id="edge3" class="edge">
<title>HR_LETTERS:w&#45;&gt;User:e</title>
<path fill="none" stroke="#000000" d="M411.4782,-78.9108C301.5402,-77.5585 265.2306,-61.7142 153,-93 133.0797,-98.553 132.6798,-115 112,-115"/>
<polygon fill="#000000" stroke="#000000" points="418.0002,-78.9508 425.9779,-82.5999 422.0001,-78.9754 426,-79 426,-79 426,-79 422.0001,-78.9754 426.0221,-75.4001 418.0002,-78.9508 418.0002,-78.9508"/>
<ellipse fill="none" stroke="#000000" cx="414.8002" cy="-78.9312" rx="3.2" ry="3.2"/>
</g>
<!-- HR_LETTERS&#45;&gt;User -->
<g id="edge5" class="edge">
<title>HR_LETTERS:w&#45;&gt;User:e</title>
<path fill="none" stroke="#000000" d="M411.4462,-56.8135C301.0006,-53.9767 258.4067,-20.4114 153,-70 128.5176,-81.5178 139.0564,-115 112,-115"/>
<polygon fill="#000000" stroke="#000000" points="418.0007,-56.8975 425.9539,-60.5997 422.0003,-56.9487 426,-57 426,-57 426,-57 422.0003,-56.9487 426.0461,-53.4003 418.0007,-56.8975 418.0007,-56.8975"/>
<ellipse fill="none" stroke="#000000" cx="414.8009" cy="-56.8565" rx="3.2" ry="3.2"/>
</g>
</g>
</svg>
