<?xml version="1.0" encoding="UTF-8" standalone="no"?>
<!DOCTYPE svg PUBLIC "-//W3C//DTD SVG 1.1//EN"
 "http://www.w3.org/Graphics/SVG/1.1/DTD/svg11.dtd">
<!-- Generated by graphviz version 2.40.1 (20161225.0304)
 -->
<!-- Title: oneDegreeRelationshipsDiagram Pages: 1 -->
<svg width="981pt" height="650pt"
 viewBox="0.00 0.00 981.00 649.69" xmlns="http://www.w3.org/2000/svg" xmlns:xlink="http://www.w3.org/1999/xlink">
<g id="graph0" class="graph" transform="scale(1 1) rotate(0) translate(4 645.6865)">
<title>oneDegreeRelationshipsDiagram</title>
<polygon fill="#ffffff" stroke="transparent" points="-4,4 -4,-645.6865 977,-645.6865 977,4 -4,4"/>
<!-- APPLICANT -->
<g id="node1" class="node">
<title>APPLICANT</title>
<g id="a_node1"><a xlink:href="../../tables/APPLICANT.html" xlink:title="APPLICANT" target="_top">
<polygon fill="#ffffff" stroke="transparent" points="398.5,-510.6865 398.5,-637.6865 589.5,-637.6865 589.5,-510.6865 398.5,-510.6865"/>
<polygon fill="#f5f5f5" stroke="transparent" points="399,-614.1865 399,-637.1865 590,-637.1865 590,-614.1865 399,-614.1865"/>
<polygon fill="none" stroke="#000000" points="399,-614.1865 399,-637.1865 590,-637.1865 590,-614.1865 399,-614.1865"/>
<text text-anchor="start" x="404" y="-622.7865" font-family="Helvetica,sans-Serif" font-weight="bold" font-size="11.00" fill="#000000">APPLICANT</text>
<text text-anchor="start" x="555.0437" y="-622.2865" font-family="Helvetica,sans-Serif" font-size="11.00" fill="#000000">[table]</text>
<polygon fill="none" stroke="#000000" points="399,-592.1865 399,-614.1865 590,-614.1865 590,-592.1865 399,-592.1865"/>
<image xlink:href="../../images/primaryKeys.png" width="11px" height="12px" preserveAspectRatio="xMinYMin meet" x="404" y="-609.186"/>
<text text-anchor="start" x="419" y="-599.2865" font-family="Helvetica,sans-Serif" font-size="11.00" fill="#000000">ID</text>
<polygon fill="#ffffff" stroke="transparent" points="399,-570.1865 399,-592.1865 590,-592.1865 590,-570.1865 399,-570.1865"/>
<polygon fill="none" stroke="#000000" points="399,-570.1865 399,-592.1865 590,-592.1865 590,-570.1865 399,-570.1865"/>
<image xlink:href="../../images/foreignKeys.png" width="11px" height="12px" preserveAspectRatio="xMinYMin meet" x="404" y="-587.186"/>
<text text-anchor="start" x="419" y="-577.2865" font-family="Helvetica,sans-Serif" font-size="11.00" fill="#000000">CREATOR</text>
<polygon fill="#ffffff" stroke="transparent" points="399,-548.1865 399,-570.1865 590,-570.1865 590,-548.1865 399,-548.1865"/>
<polygon fill="none" stroke="#000000" points="399,-548.1865 399,-570.1865 590,-570.1865 590,-548.1865 399,-548.1865"/>
<image xlink:href="../../images/foreignKeys.png" width="11px" height="12px" preserveAspectRatio="xMinYMin meet" x="404" y="-565.186"/>
<text text-anchor="start" x="419" y="-555.2865" font-family="Helvetica,sans-Serif" font-size="11.00" fill="#000000">LAST_MODIFIER</text>
<polygon fill="none" stroke="#000000" points="399,-529.1865 399,-548.1865 590,-548.1865 590,-529.1865 399,-529.1865"/>
<text text-anchor="start" x="402" y="-535.2865" font-family="Helvetica,sans-Serif" font-size="11.00" fill="#000000">...</text>
<polygon fill="#ffffff" stroke="transparent" points="399,-510.1865 399,-529.1865 475,-529.1865 475,-510.1865 399,-510.1865"/>
<polygon fill="none" stroke="#000000" points="399,-510.1865 399,-529.1865 475,-529.1865 475,-510.1865 399,-510.1865"/>
<text text-anchor="start" x="402" y="-516.2865" font-family="Helvetica,sans-Serif" font-size="11.00" fill="#000000">&lt; 2</text>
<polygon fill="#ffffff" stroke="transparent" points="475,-510.1865 475,-529.1865 541,-529.1865 541,-510.1865 475,-510.1865"/>
<polygon fill="none" stroke="#000000" points="475,-510.1865 475,-529.1865 541,-529.1865 541,-510.1865 475,-510.1865"/>
<text text-anchor="start" x="505.6105" y="-516.2865" font-family="Helvetica,sans-Serif" font-size="11.00" fill="#000000">0 rows</text>
<polygon fill="#ffffff" stroke="transparent" points="541,-510.1865 541,-529.1865 590,-529.1865 590,-510.1865 541,-510.1865"/>
<polygon fill="none" stroke="#000000" points="541,-510.1865 541,-529.1865 590,-529.1865 590,-510.1865 541,-510.1865"/>
<text text-anchor="start" x="571.4053" y="-516.2865" font-family="Helvetica,sans-Serif" font-size="11.00" fill="#000000">3 &gt;</text>
</a>
</g>
</g>
<!-- User -->
<g id="node2" class="node">
<title>User</title>
<g id="a_node2"><a xlink:href="../../tables/User.html" xlink:title="User" target="_top">
<polygon fill="#ffffff" stroke="transparent" points="8,-234.6865 8,-317.6865 112,-317.6865 112,-234.6865 8,-234.6865"/>
<polygon fill="#f5f5f5" stroke="transparent" points="8,-294.1865 8,-317.1865 112,-317.1865 112,-294.1865 8,-294.1865"/>
<polygon fill="none" stroke="#000000" points="8,-294.1865 8,-317.1865 112,-317.1865 112,-294.1865 8,-294.1865"/>
<text text-anchor="start" x="13" y="-302.7865" font-family="Helvetica,sans-Serif" font-weight="bold" font-size="11.00" fill="#000000">User</text>
<text text-anchor="start" x="77.0437" y="-302.2865" font-family="Helvetica,sans-Serif" font-size="11.00" fill="#000000">[table]</text>
<polygon fill="none" stroke="#000000" points="8,-272.1865 8,-294.1865 112,-294.1865 112,-272.1865 8,-272.1865"/>
<image xlink:href="../../images/primaryKeys.png" width="11px" height="12px" preserveAspectRatio="xMinYMin meet" x="13" y="-289.186"/>
<text text-anchor="start" x="28" y="-279.2865" font-family="Helvetica,sans-Serif" font-size="11.00" fill="#000000">userid_pk</text>
<polygon fill="none" stroke="#000000" points="8,-253.1865 8,-272.1865 112,-272.1865 112,-253.1865 8,-253.1865"/>
<text text-anchor="start" x="11" y="-259.2865" font-family="Helvetica,sans-Serif" font-size="11.00" fill="#000000">...</text>
<polygon fill="#ffffff" stroke="transparent" points="8,-234.1865 8,-253.1865 30,-253.1865 30,-234.1865 8,-234.1865"/>
<polygon fill="none" stroke="#000000" points="8,-234.1865 8,-253.1865 30,-253.1865 30,-234.1865 8,-234.1865"/>
<text text-anchor="start" x="11" y="-240.2865" font-family="Helvetica,sans-Serif" font-size="11.00" fill="#000000"> &#160;</text>
<polygon fill="#ffffff" stroke="transparent" points="30,-234.1865 30,-253.1865 73,-253.1865 73,-234.1865 30,-234.1865"/>
<polygon fill="none" stroke="#000000" points="30,-234.1865 30,-253.1865 73,-253.1865 73,-234.1865 30,-234.1865"/>
<text text-anchor="start" x="37.6105" y="-240.2865" font-family="Helvetica,sans-Serif" font-size="11.00" fill="#000000">0 rows</text>
<polygon fill="#ffffff" stroke="transparent" points="73,-234.1865 73,-253.1865 112,-253.1865 112,-234.1865 73,-234.1865"/>
<polygon fill="none" stroke="#000000" points="73,-234.1865 73,-253.1865 112,-253.1865 112,-234.1865 73,-234.1865"/>
<text text-anchor="start" x="81.1755" y="-240.2865" font-family="Helvetica,sans-Serif" font-size="11.00" fill="#000000">102 &gt;</text>
</a>
</g>
</g>
<!-- APPLICANT&#45;&gt;User -->
<g id="edge1" class="edge">
<title>APPLICANT:w&#45;&gt;User:e</title>
<path fill="none" stroke="#000000" d="M384.5532,-581.2266C279.6347,-581.7613 225.7434,-586.2209 153,-504.1865 86.7209,-429.442 211.8982,-283.1865 112,-283.1865"/>
<polygon fill="#000000" stroke="#000000" points="391,-581.2087 399.01,-584.7864 395,-581.1976 399,-581.1865 399,-581.1865 399,-581.1865 395,-581.1976 398.99,-577.5865 391,-581.2087 391,-581.2087"/>
<ellipse fill="none" stroke="#000000" cx="387.8" cy="-581.2176" rx="3.2" ry="3.2"/>
</g>
<!-- APPLICANT&#45;&gt;User -->
<g id="edge2" class="edge">
<title>APPLICANT:w&#45;&gt;User:e</title>
<path fill="none" stroke="#000000" d="M384.6857,-556.633C364.9253,-548.3261 365.4033,-521.6585 341,-505.1865 264.5333,-453.5719 213.4823,-486.8506 153,-417.1865 112.1692,-370.1571 174.2809,-283.1865 112,-283.1865"/>
<polygon fill="#000000" stroke="#000000" points="391.1243,-557.7815 398.3678,-562.7305 395.0622,-558.484 399,-559.1865 399,-559.1865 399,-559.1865 395.0622,-558.484 399.6322,-555.6424 391.1243,-557.7815 391.1243,-557.7815"/>
<ellipse fill="none" stroke="#000000" cx="387.9741" cy="-557.2195" rx="3.2" ry="3.2"/>
</g>
<!-- DEPARTMENT -->
<g id="node3" class="node">
<title>DEPARTMENT</title>
<g id="a_node3"><a xlink:href="../../tables/DEPARTMENT.html" xlink:title="DEPARTMENT" target="_top">
<polygon fill="#ffffff" stroke="transparent" points="161,-223.6865 161,-350.6865 333,-350.6865 333,-223.6865 161,-223.6865"/>
<polygon fill="#f5f5f5" stroke="transparent" points="161,-327.1865 161,-350.1865 333,-350.1865 333,-327.1865 161,-327.1865"/>
<polygon fill="none" stroke="#000000" points="161,-327.1865 161,-350.1865 333,-350.1865 333,-327.1865 161,-327.1865"/>
<text text-anchor="start" x="166" y="-335.7865" font-family="Helvetica,sans-Serif" font-weight="bold" font-size="11.00" fill="#000000">DEPARTMENT</text>
<text text-anchor="start" x="298.0437" y="-335.2865" font-family="Helvetica,sans-Serif" font-size="11.00" fill="#000000">[table]</text>
<polygon fill="none" stroke="#000000" points="161,-305.1865 161,-327.1865 333,-327.1865 333,-305.1865 161,-305.1865"/>
<image xlink:href="../../images/primaryKeys.png" width="11px" height="12px" preserveAspectRatio="xMinYMin meet" x="166" y="-322.186"/>
<text text-anchor="start" x="181" y="-312.2865" font-family="Helvetica,sans-Serif" font-size="11.00" fill="#000000">ID</text>
<polygon fill="#ffffff" stroke="transparent" points="161,-283.1865 161,-305.1865 333,-305.1865 333,-283.1865 161,-283.1865"/>
<polygon fill="none" stroke="#000000" points="161,-283.1865 161,-305.1865 333,-305.1865 333,-283.1865 161,-283.1865"/>
<image xlink:href="../../images/foreignKeys.png" width="11px" height="12px" preserveAspectRatio="xMinYMin meet" x="166" y="-300.186"/>
<text text-anchor="start" x="181" y="-290.2865" font-family="Helvetica,sans-Serif" font-size="11.00" fill="#000000">CREATOR</text>
<polygon fill="#ffffff" stroke="transparent" points="161,-261.1865 161,-283.1865 333,-283.1865 333,-261.1865 161,-261.1865"/>
<polygon fill="none" stroke="#000000" points="161,-261.1865 161,-283.1865 333,-283.1865 333,-261.1865 161,-261.1865"/>
<image xlink:href="../../images/foreignKeys.png" width="11px" height="12px" preserveAspectRatio="xMinYMin meet" x="166" y="-278.186"/>
<text text-anchor="start" x="181" y="-268.2865" font-family="Helvetica,sans-Serif" font-size="11.00" fill="#000000">LAST_MODIFIER</text>
<polygon fill="none" stroke="#000000" points="161,-242.1865 161,-261.1865 333,-261.1865 333,-242.1865 161,-242.1865"/>
<text text-anchor="start" x="164" y="-248.2865" font-family="Helvetica,sans-Serif" font-size="11.00" fill="#000000">...</text>
<polygon fill="#ffffff" stroke="transparent" points="161,-223.1865 161,-242.1865 228,-242.1865 228,-223.1865 161,-223.1865"/>
<polygon fill="none" stroke="#000000" points="161,-223.1865 161,-242.1865 228,-242.1865 228,-223.1865 161,-223.1865"/>
<text text-anchor="start" x="164" y="-229.2865" font-family="Helvetica,sans-Serif" font-size="11.00" fill="#000000">&lt; 2</text>
<polygon fill="#ffffff" stroke="transparent" points="228,-223.1865 228,-242.1865 289,-242.1865 289,-223.1865 228,-223.1865"/>
<polygon fill="none" stroke="#000000" points="228,-223.1865 228,-242.1865 289,-242.1865 289,-223.1865 228,-223.1865"/>
<text text-anchor="start" x="253.6105" y="-229.2865" font-family="Helvetica,sans-Serif" font-size="11.00" fill="#000000">0 rows</text>
<polygon fill="#ffffff" stroke="transparent" points="289,-223.1865 289,-242.1865 333,-242.1865 333,-223.1865 289,-223.1865"/>
<polygon fill="none" stroke="#000000" points="289,-223.1865 289,-242.1865 333,-242.1865 333,-223.1865 289,-223.1865"/>
<text text-anchor="start" x="314.4053" y="-229.2865" font-family="Helvetica,sans-Serif" font-size="11.00" fill="#000000">7 &gt;</text>
</a>
</g>
</g>
<!-- DEPARTMENT&#45;&gt;User -->
<g id="edge3" class="edge">
<title>DEPARTMENT:w&#45;&gt;User:e</title>
<path fill="none" stroke="#000000" d="M146.7027,-292.37C135.2382,-289.2457 128.5655,-283.1865 112,-283.1865"/>
<polygon fill="#000000" stroke="#000000" points="153.0638,-293.1781 160.5463,-297.7577 157.0319,-293.6823 161,-294.1865 161,-294.1865 161,-294.1865 157.0319,-293.6823 161.4537,-290.6152 153.0638,-293.1781 153.0638,-293.1781"/>
<ellipse fill="none" stroke="#000000" cx="149.8893" cy="-292.7748" rx="3.2" ry="3.2"/>
</g>
<!-- DEPARTMENT&#45;&gt;User -->
<g id="edge4" class="edge">
<title>DEPARTMENT:w&#45;&gt;User:e</title>
<path fill="none" stroke="#000000" d="M146.7027,-274.0029C135.2382,-277.1272 128.5655,-283.1865 112,-283.1865"/>
<polygon fill="#000000" stroke="#000000" points="153.0638,-273.1948 161.4537,-275.7577 157.0319,-272.6906 161,-272.1865 161,-272.1865 161,-272.1865 157.0319,-272.6906 160.5463,-268.6152 153.0638,-273.1948 153.0638,-273.1948"/>
<ellipse fill="none" stroke="#000000" cx="149.8893" cy="-273.5981" rx="3.2" ry="3.2"/>
</g>
<!-- EMPLOYEE -->
<g id="node4" class="node">
<title>EMPLOYEE</title>
<g id="a_node4"><a xlink:href="../../tables/EMPLOYEE.html" xlink:title="EMPLOYEE" target="_top">
<polygon fill="#ffffff" stroke="transparent" points="387,-98.6865 387,-291.6865 601,-291.6865 601,-98.6865 387,-98.6865"/>
<polygon fill="#f5f5f5" stroke="transparent" points="387,-268.1865 387,-291.1865 601,-291.1865 601,-268.1865 387,-268.1865"/>
<polygon fill="none" stroke="#000000" points="387,-268.1865 387,-291.1865 601,-291.1865 601,-268.1865 387,-268.1865"/>
<text text-anchor="start" x="392" y="-276.7865" font-family="Helvetica,sans-Serif" font-weight="bold" font-size="11.00" fill="#000000">EMPLOYEE</text>
<text text-anchor="start" x="566.0437" y="-276.2865" font-family="Helvetica,sans-Serif" font-size="11.00" fill="#000000">[table]</text>
<polygon fill="none" stroke="#000000" points="387,-246.1865 387,-268.1865 601,-268.1865 601,-246.1865 387,-246.1865"/>
<image xlink:href="../../images/primaryKeys.png" width="11px" height="12px" preserveAspectRatio="xMinYMin meet" x="392" y="-263.186"/>
<text text-anchor="start" x="407" y="-253.2865" font-family="Helvetica,sans-Serif" font-size="11.00" fill="#000000">ID</text>
<polygon fill="#ffffff" stroke="transparent" points="387,-224.1865 387,-246.1865 601,-246.1865 601,-224.1865 387,-224.1865"/>
<polygon fill="none" stroke="#000000" points="387,-224.1865 387,-246.1865 601,-246.1865 601,-224.1865 387,-224.1865"/>
<image xlink:href="../../images/foreignKeys.png" width="11px" height="12px" preserveAspectRatio="xMinYMin meet" x="392" y="-241.186"/>
<text text-anchor="start" x="407" y="-231.2865" font-family="Helvetica,sans-Serif" font-size="11.00" fill="#000000">DEPARTMENT_ID</text>
<polygon fill="#ffffff" stroke="transparent" points="387,-202.1865 387,-224.1865 601,-224.1865 601,-202.1865 387,-202.1865"/>
<polygon fill="none" stroke="#000000" points="387,-202.1865 387,-224.1865 601,-224.1865 601,-202.1865 387,-202.1865"/>
<image xlink:href="../../images/foreignKeys.png" width="11px" height="12px" preserveAspectRatio="xMinYMin meet" x="392" y="-219.186"/>
<text text-anchor="start" x="407" y="-209.2865" font-family="Helvetica,sans-Serif" font-size="11.00" fill="#000000">LOCATION_ID</text>
<polygon fill="#ffffff" stroke="transparent" points="387,-180.1865 387,-202.1865 601,-202.1865 601,-180.1865 387,-180.1865"/>
<polygon fill="none" stroke="#000000" points="387,-180.1865 387,-202.1865 601,-202.1865 601,-180.1865 387,-180.1865"/>
<image xlink:href="../../images/foreignKeys.png" width="11px" height="12px" preserveAspectRatio="xMinYMin meet" x="392" y="-197.186"/>
<text text-anchor="start" x="407" y="-187.2865" font-family="Helvetica,sans-Serif" font-size="11.00" fill="#000000">DESIGNATION_ID</text>
<polygon fill="#ffffff" stroke="transparent" points="387,-158.1865 387,-180.1865 601,-180.1865 601,-158.1865 387,-158.1865"/>
<polygon fill="none" stroke="#000000" points="387,-158.1865 387,-180.1865 601,-180.1865 601,-158.1865 387,-158.1865"/>
<image xlink:href="../../images/foreignKeys.png" width="11px" height="12px" preserveAspectRatio="xMinYMin meet" x="392" y="-175.186"/>
<text text-anchor="start" x="407" y="-165.2865" font-family="Helvetica,sans-Serif" font-size="11.00" fill="#000000">CREATOR</text>
<polygon fill="#ffffff" stroke="transparent" points="387,-136.1865 387,-158.1865 601,-158.1865 601,-136.1865 387,-136.1865"/>
<polygon fill="none" stroke="#000000" points="387,-136.1865 387,-158.1865 601,-158.1865 601,-136.1865 387,-136.1865"/>
<image xlink:href="../../images/foreignKeys.png" width="11px" height="12px" preserveAspectRatio="xMinYMin meet" x="392" y="-153.186"/>
<text text-anchor="start" x="407" y="-143.2865" font-family="Helvetica,sans-Serif" font-size="11.00" fill="#000000">LAST_MODIFIER</text>
<polygon fill="none" stroke="#000000" points="387,-117.1865 387,-136.1865 601,-136.1865 601,-117.1865 387,-117.1865"/>
<text text-anchor="start" x="390" y="-123.2865" font-family="Helvetica,sans-Serif" font-size="11.00" fill="#000000">...</text>
<polygon fill="#ffffff" stroke="transparent" points="387,-98.1865 387,-117.1865 472,-117.1865 472,-98.1865 387,-98.1865"/>
<polygon fill="none" stroke="#000000" points="387,-98.1865 387,-117.1865 472,-117.1865 472,-98.1865 387,-98.1865"/>
<text text-anchor="start" x="390" y="-104.2865" font-family="Helvetica,sans-Serif" font-size="11.00" fill="#000000">&lt; 5</text>
<polygon fill="#ffffff" stroke="transparent" points="472,-98.1865 472,-117.1865 542,-117.1865 542,-98.1865 472,-98.1865"/>
<polygon fill="none" stroke="#000000" points="472,-98.1865 472,-117.1865 542,-117.1865 542,-98.1865 472,-98.1865"/>
<text text-anchor="start" x="506.6105" y="-104.2865" font-family="Helvetica,sans-Serif" font-size="11.00" fill="#000000">0 rows</text>
<polygon fill="#ffffff" stroke="transparent" points="542,-98.1865 542,-117.1865 601,-117.1865 601,-98.1865 542,-98.1865"/>
<polygon fill="none" stroke="#000000" points="542,-98.1865 542,-117.1865 601,-117.1865 601,-98.1865 542,-98.1865"/>
<text text-anchor="start" x="576.2904" y="-104.2865" font-family="Helvetica,sans-Serif" font-size="11.00" fill="#000000">15 &gt;</text>
</a>
</g>
</g>
<!-- EMPLOYEE&#45;&gt;User -->
<g id="edge5" class="edge">
<title>EMPLOYEE:w&#45;&gt;User:e</title>
<path fill="none" stroke="#000000" d="M372.5305,-169.0847C277.1744,-167.7715 235.4742,-155.1246 153,-213.1865 123.5182,-233.9416 148.0548,-283.1865 112,-283.1865"/>
<polygon fill="#000000" stroke="#000000" points="379.0002,-169.1301 386.9747,-172.7864 383.0001,-169.1583 387,-169.1865 387,-169.1865 387,-169.1865 383.0001,-169.1583 387.0253,-165.5865 379.0002,-169.1301 379.0002,-169.1301"/>
<ellipse fill="none" stroke="#000000" cx="375.8003" cy="-169.1076" rx="3.2" ry="3.2"/>
</g>
<!-- EMPLOYEE&#45;&gt;User -->
<g id="edge7" class="edge">
<title>EMPLOYEE:w&#45;&gt;User:e</title>
<path fill="none" stroke="#000000" d="M372.4137,-146.8836C278.1388,-142.9806 231.6914,-103.6467 153,-164.1865 108.6628,-198.2965 167.94,-283.1865 112,-283.1865"/>
<polygon fill="#000000" stroke="#000000" points="379.0017,-147.0204 386.9253,-150.7857 383.0009,-147.1034 387,-147.1865 387,-147.1865 387,-147.1865 383.0009,-147.1034 387.0747,-143.5872 379.0017,-147.0204 379.0017,-147.0204"/>
<ellipse fill="none" stroke="#000000" cx="375.8024" cy="-146.9539" rx="3.2" ry="3.2"/>
</g>
<!-- EMPLOYEE&#45;&gt;DEPARTMENT -->
<g id="edge6" class="edge">
<title>EMPLOYEE:w&#45;&gt;DEPARTMENT:e</title>
<path fill="none" stroke="#000000" d="M373.1171,-239.3146C351.2123,-255.8208 370.3513,-316.1865 333,-316.1865"/>
<polygon fill="#000000" stroke="#000000" points="379.3318,-237.4667 388.0261,-238.6371 383.1659,-236.3266 387,-235.1865 387,-235.1865 387,-235.1865 383.1659,-236.3266 385.9739,-231.7358 379.3318,-237.4667 379.3318,-237.4667"/>
<ellipse fill="none" stroke="#000000" cx="376.2646" cy="-238.3787" rx="3.2" ry="3.2"/>
</g>
<!-- INTERVIEW -->
<g id="node5" class="node">
<title>INTERVIEW</title>
<g id="a_node5"><a xlink:href="../../tables/INTERVIEW.html" xlink:title="INTERVIEW" target="_top">
<polygon fill="#ffffff" stroke="transparent" points="655,-148.1865 655,-568.1865 965,-568.1865 965,-148.1865 655,-148.1865"/>
<polygon fill="#f5f5f5" stroke="transparent" points="657,-543.1865 657,-566.1865 963,-566.1865 963,-543.1865 657,-543.1865"/>
<polygon fill="none" stroke="#000000" points="657,-543.1865 657,-566.1865 963,-566.1865 963,-543.1865 657,-543.1865"/>
<text text-anchor="start" x="662" y="-551.7865" font-family="Helvetica,sans-Serif" font-weight="bold" font-size="11.00" fill="#000000">INTERVIEW</text>
<text text-anchor="start" x="928.0437" y="-551.2865" font-family="Helvetica,sans-Serif" font-size="11.00" fill="#000000">[table]</text>
<polygon fill="none" stroke="#000000" points="657,-521.1865 657,-543.1865 896,-543.1865 896,-521.1865 657,-521.1865"/>
<image xlink:href="../../images/primaryKeys.png" width="11px" height="12px" preserveAspectRatio="xMinYMin meet" x="662" y="-538.186"/>
<text text-anchor="start" x="677" y="-528.2865" font-family="Helvetica,sans-Serif" font-size="11.00" fill="#000000">ID</text>
<polygon fill="none" stroke="#000000" points="896,-521.1865 896,-543.1865 963,-543.1865 963,-521.1865 896,-521.1865"/>
<text text-anchor="start" x="899" y="-528.8865" font-family="Helvetica,sans-Serif" font-size="11.00" fill="#000000">int[10]</text>
<polygon fill="none" stroke="#000000" points="657,-499.1865 657,-521.1865 896,-521.1865 896,-499.1865 657,-499.1865"/>
<text text-anchor="start" x="677" y="-506.2865" font-family="Helvetica,sans-Serif" font-size="11.00" fill="#000000">WORKSPACE_ID</text>
<polygon fill="none" stroke="#000000" points="896,-499.1865 896,-521.1865 963,-521.1865 963,-499.1865 896,-499.1865"/>
<text text-anchor="start" x="899" y="-506.8865" font-family="Helvetica,sans-Serif" font-size="11.00" fill="#000000">int[10]</text>
<polygon fill="none" stroke="#000000" points="657,-477.1865 657,-499.1865 896,-499.1865 896,-477.1865 657,-477.1865"/>
<text text-anchor="start" x="677" y="-484.2865" font-family="Helvetica,sans-Serif" font-size="11.00" fill="#000000">NAME</text>
<polygon fill="none" stroke="#000000" points="896,-477.1865 896,-499.1865 963,-499.1865 963,-477.1865 896,-477.1865"/>
<text text-anchor="start" x="898.9365" y="-484.8865" font-family="Helvetica,sans-Serif" font-size="11.00" fill="#000000">varchar[100]</text>
<polygon fill="#ffffff" stroke="transparent" points="657,-455.1865 657,-477.1865 896,-477.1865 896,-455.1865 657,-455.1865"/>
<polygon fill="none" stroke="#000000" points="657,-455.1865 657,-477.1865 896,-477.1865 896,-455.1865 657,-455.1865"/>
<image xlink:href="../../images/foreignKeys.png" width="11px" height="12px" preserveAspectRatio="xMinYMin meet" x="662" y="-472.186"/>
<text text-anchor="start" x="677" y="-462.2865" font-family="Helvetica,sans-Serif" font-size="11.00" fill="#000000">CANDIDATE_ID</text>
<polygon fill="none" stroke="#000000" points="896,-455.1865 896,-477.1865 963,-477.1865 963,-455.1865 896,-455.1865"/>
<text text-anchor="start" x="899" y="-462.8865" font-family="Helvetica,sans-Serif" font-size="11.00" fill="#000000">int[10]</text>
<polygon fill="#ffffff" stroke="transparent" points="657,-433.1865 657,-455.1865 896,-455.1865 896,-433.1865 657,-433.1865"/>
<polygon fill="none" stroke="#000000" points="657,-433.1865 657,-455.1865 896,-455.1865 896,-433.1865 657,-433.1865"/>
<image xlink:href="../../images/foreignKeys.png" width="11px" height="12px" preserveAspectRatio="xMinYMin meet" x="662" y="-450.186"/>
<text text-anchor="start" x="677" y="-440.2865" font-family="Helvetica,sans-Serif" font-size="11.00" fill="#000000">JOB_OPENING_ID</text>
<polygon fill="none" stroke="#000000" points="896,-433.1865 896,-455.1865 963,-455.1865 963,-433.1865 896,-433.1865"/>
<text text-anchor="start" x="899" y="-440.8865" font-family="Helvetica,sans-Serif" font-size="11.00" fill="#000000">int[10]</text>
<polygon fill="none" stroke="#000000" points="657,-411.1865 657,-433.1865 896,-433.1865 896,-411.1865 657,-411.1865"/>
<text text-anchor="start" x="677" y="-418.2865" font-family="Helvetica,sans-Serif" font-size="11.00" fill="#000000">FROM_DATE</text>
<polygon fill="none" stroke="#000000" points="896,-411.1865 896,-433.1865 963,-433.1865 963,-411.1865 896,-411.1865"/>
<text text-anchor="start" x="899" y="-418.8865" font-family="Helvetica,sans-Serif" font-size="11.00" fill="#000000">datetime[26]</text>
<polygon fill="none" stroke="#000000" points="657,-389.1865 657,-411.1865 896,-411.1865 896,-389.1865 657,-389.1865"/>
<text text-anchor="start" x="677" y="-396.2865" font-family="Helvetica,sans-Serif" font-size="11.00" fill="#000000">INTERVIEW_OWNER</text>
<polygon fill="none" stroke="#000000" points="896,-389.1865 896,-411.1865 963,-411.1865 963,-389.1865 896,-389.1865"/>
<text text-anchor="start" x="898.9365" y="-396.8865" font-family="Helvetica,sans-Serif" font-size="11.00" fill="#000000">varchar[100]</text>
<polygon fill="none" stroke="#000000" points="657,-367.1865 657,-389.1865 896,-389.1865 896,-367.1865 657,-367.1865"/>
<text text-anchor="start" x="677" y="-374.2865" font-family="Helvetica,sans-Serif" font-size="11.00" fill="#000000">LOCATION</text>
<polygon fill="none" stroke="#000000" points="896,-367.1865 896,-389.1865 963,-389.1865 963,-367.1865 896,-367.1865"/>
<text text-anchor="start" x="898.9365" y="-374.8865" font-family="Helvetica,sans-Serif" font-size="11.00" fill="#000000">varchar[100]</text>
<polygon fill="none" stroke="#000000" points="657,-345.1865 657,-367.1865 896,-367.1865 896,-345.1865 657,-345.1865"/>
<text text-anchor="start" x="677" y="-352.2865" font-family="Helvetica,sans-Serif" font-size="11.00" fill="#000000">COMMENTS_FOR_INTERVIEWERS</text>
<polygon fill="none" stroke="#000000" points="896,-345.1865 896,-367.1865 963,-367.1865 963,-345.1865 896,-345.1865"/>
<text text-anchor="start" x="898.9365" y="-352.8865" font-family="Helvetica,sans-Serif" font-size="11.00" fill="#000000">varchar[100]</text>
<polygon fill="none" stroke="#000000" points="657,-323.1865 657,-345.1865 896,-345.1865 896,-323.1865 657,-323.1865"/>
<text text-anchor="start" x="677" y="-330.2865" font-family="Helvetica,sans-Serif" font-size="11.00" fill="#000000">DEPARTMENT_NAME</text>
<polygon fill="none" stroke="#000000" points="896,-323.1865 896,-345.1865 963,-345.1865 963,-323.1865 896,-323.1865"/>
<text text-anchor="start" x="898.9365" y="-330.8865" font-family="Helvetica,sans-Serif" font-size="11.00" fill="#000000">varchar[100]</text>
<polygon fill="none" stroke="#000000" points="657,-301.1865 657,-323.1865 896,-323.1865 896,-301.1865 657,-301.1865"/>
<text text-anchor="start" x="677" y="-308.2865" font-family="Helvetica,sans-Serif" font-size="11.00" fill="#000000">TO_DATE</text>
<polygon fill="none" stroke="#000000" points="896,-301.1865 896,-323.1865 963,-323.1865 963,-301.1865 896,-301.1865"/>
<text text-anchor="start" x="899" y="-308.8865" font-family="Helvetica,sans-Serif" font-size="11.00" fill="#000000">datetime[26]</text>
<polygon fill="#ffffff" stroke="transparent" points="657,-279.1865 657,-301.1865 896,-301.1865 896,-279.1865 657,-279.1865"/>
<polygon fill="none" stroke="#000000" points="657,-279.1865 657,-301.1865 896,-301.1865 896,-279.1865 657,-279.1865"/>
<image xlink:href="../../images/foreignKeys.png" width="11px" height="12px" preserveAspectRatio="xMinYMin meet" x="662" y="-296.186"/>
<text text-anchor="start" x="677" y="-286.2865" font-family="Helvetica,sans-Serif" font-size="11.00" fill="#000000">DEPARTMENT_ID</text>
<polygon fill="none" stroke="#000000" points="896,-279.1865 896,-301.1865 963,-301.1865 963,-279.1865 896,-279.1865"/>
<text text-anchor="start" x="899" y="-286.8865" font-family="Helvetica,sans-Serif" font-size="11.00" fill="#000000">int[10]</text>
<polygon fill="#ffffff" stroke="transparent" points="657,-257.1865 657,-279.1865 896,-279.1865 896,-257.1865 657,-257.1865"/>
<polygon fill="none" stroke="#000000" points="657,-257.1865 657,-279.1865 896,-279.1865 896,-257.1865 657,-257.1865"/>
<image xlink:href="../../images/foreignKeys.png" width="11px" height="12px" preserveAspectRatio="xMinYMin meet" x="662" y="-274.186"/>
<text text-anchor="start" x="677" y="-264.2865" font-family="Helvetica,sans-Serif" font-size="11.00" fill="#000000">INTERVIEWER</text>
<polygon fill="none" stroke="#000000" points="896,-257.1865 896,-279.1865 963,-279.1865 963,-257.1865 896,-257.1865"/>
<text text-anchor="start" x="899" y="-264.8865" font-family="Helvetica,sans-Serif" font-size="11.00" fill="#000000">int[10]</text>
<polygon fill="none" stroke="#000000" points="657,-235.1865 657,-257.1865 896,-257.1865 896,-235.1865 657,-235.1865"/>
<text text-anchor="start" x="677" y="-242.2865" font-family="Helvetica,sans-Serif" font-size="11.00" fill="#000000">CREATED_TIME</text>
<polygon fill="none" stroke="#000000" points="896,-235.1865 896,-257.1865 963,-257.1865 963,-235.1865 896,-235.1865"/>
<text text-anchor="start" x="899" y="-242.8865" font-family="Helvetica,sans-Serif" font-size="11.00" fill="#000000">datetime[26]</text>
<polygon fill="none" stroke="#000000" points="657,-213.1865 657,-235.1865 896,-235.1865 896,-213.1865 657,-213.1865"/>
<text text-anchor="start" x="677" y="-220.2865" font-family="Helvetica,sans-Serif" font-size="11.00" fill="#000000">MODIFIED_TIME</text>
<polygon fill="none" stroke="#000000" points="896,-213.1865 896,-235.1865 963,-235.1865 963,-213.1865 896,-213.1865"/>
<text text-anchor="start" x="899" y="-220.8865" font-family="Helvetica,sans-Serif" font-size="11.00" fill="#000000">datetime[26]</text>
<polygon fill="#ffffff" stroke="transparent" points="657,-191.1865 657,-213.1865 896,-213.1865 896,-191.1865 657,-191.1865"/>
<polygon fill="none" stroke="#000000" points="657,-191.1865 657,-213.1865 896,-213.1865 896,-191.1865 657,-191.1865"/>
<image xlink:href="../../images/foreignKeys.png" width="11px" height="12px" preserveAspectRatio="xMinYMin meet" x="662" y="-208.186"/>
<text text-anchor="start" x="677" y="-198.2865" font-family="Helvetica,sans-Serif" font-size="11.00" fill="#000000">CREATOR</text>
<polygon fill="none" stroke="#000000" points="896,-191.1865 896,-213.1865 963,-213.1865 963,-191.1865 896,-191.1865"/>
<text text-anchor="start" x="899" y="-198.8865" font-family="Helvetica,sans-Serif" font-size="11.00" fill="#000000">int[10]</text>
<polygon fill="#ffffff" stroke="transparent" points="657,-169.1865 657,-191.1865 896,-191.1865 896,-169.1865 657,-169.1865"/>
<polygon fill="none" stroke="#000000" points="657,-169.1865 657,-191.1865 896,-191.1865 896,-169.1865 657,-169.1865"/>
<image xlink:href="../../images/foreignKeys.png" width="11px" height="12px" preserveAspectRatio="xMinYMin meet" x="662" y="-186.186"/>
<text text-anchor="start" x="677" y="-176.2865" font-family="Helvetica,sans-Serif" font-size="11.00" fill="#000000">LAST_MODIFIER</text>
<polygon fill="none" stroke="#000000" points="896,-169.1865 896,-191.1865 963,-191.1865 963,-169.1865 896,-169.1865"/>
<text text-anchor="start" x="899" y="-176.8865" font-family="Helvetica,sans-Serif" font-size="11.00" fill="#000000">int[10]</text>
<polygon fill="#ffffff" stroke="transparent" points="657,-150.1865 657,-169.1865 768,-169.1865 768,-150.1865 657,-150.1865"/>
<polygon fill="none" stroke="#000000" points="657,-150.1865 657,-169.1865 768,-169.1865 768,-150.1865 657,-150.1865"/>
<text text-anchor="start" x="660" y="-156.2865" font-family="Helvetica,sans-Serif" font-size="11.00" fill="#000000">&lt; 6</text>
<polygon fill="#ffffff" stroke="transparent" points="768,-150.1865 768,-169.1865 896,-169.1865 896,-150.1865 768,-150.1865"/>
<polygon fill="none" stroke="#000000" points="768,-150.1865 768,-169.1865 896,-169.1865 896,-150.1865 768,-150.1865"/>
<text text-anchor="start" x="860.6105" y="-156.2865" font-family="Helvetica,sans-Serif" font-size="11.00" fill="#000000">0 rows</text>
<polygon fill="#ffffff" stroke="transparent" points="896,-150.1865 896,-169.1865 963,-169.1865 963,-150.1865 896,-150.1865"/>
<polygon fill="none" stroke="#000000" points="896,-150.1865 896,-169.1865 963,-169.1865 963,-150.1865 896,-150.1865"/>
<text text-anchor="start" x="944.4053" y="-156.2865" font-family="Helvetica,sans-Serif" font-size="11.00" fill="#000000">0 &gt;</text>
<polygon fill="none" stroke="#000000" stroke-width="2" points="656,-149.1865 656,-567.1865 964,-567.1865 964,-149.1865 656,-149.1865"/>
</a>
</g>
</g>
<!-- INTERVIEW&#45;&gt;APPLICANT -->
<g id="edge8" class="edge">
<title>INTERVIEW:w&#45;&gt;APPLICANT:e</title>
<path fill="none" stroke="#000000" d="M642.646,-468.9231C599.7741,-488.2319 652.0878,-603.1865 590,-603.1865"/>
<polygon fill="#000000" stroke="#000000" points="649.1415,-467.6847 657.6742,-469.7228 653.0708,-466.9356 657,-466.1865 657,-466.1865 657,-466.1865 653.0708,-466.9356 656.3258,-462.6501 649.1415,-467.6847 649.1415,-467.6847"/>
<ellipse fill="none" stroke="#000000" cx="645.9982" cy="-468.284" rx="3.2" ry="3.2"/>
</g>
<!-- INTERVIEW&#45;&gt;User -->
<g id="edge9" class="edge">
<title>INTERVIEW:w&#45;&gt;User:e</title>
<path fill="none" stroke="#000000" d="M642.5203,-199.1806C614.1797,-184.0092 653.4925,-115.4987 614,-88.1865 526.2696,-27.5139 480.2395,-78.6495 374,-88.1865 274.5817,-97.1111 226.3324,-60.4664 153,-128.1865 100.6494,-176.5305 183.2582,-283.1865 112,-283.1865"/>
<polygon fill="#000000" stroke="#000000" points="649.167,-200.5603 656.2683,-205.7113 653.0835,-201.3734 657,-202.1865 657,-202.1865 657,-202.1865 653.0835,-201.3734 657.7317,-198.6616 649.167,-200.5603 649.167,-200.5603"/>
<ellipse fill="none" stroke="#000000" cx="646.0338" cy="-199.9099" rx="3.2" ry="3.2"/>
</g>
<!-- INTERVIEW&#45;&gt;User -->
<g id="edge13" class="edge">
<title>INTERVIEW:w&#45;&gt;User:e</title>
<path fill="none" stroke="#000000" d="M642.5108,-177.393C611.2584,-162.0766 655.9764,-87.8989 614,-58.1865 530.2604,1.0875 228.7202,-13.9609 153,-83.1865 86.0312,-144.4112 202.7374,-283.1865 112,-283.1865"/>
<polygon fill="#000000" stroke="#000000" points="649.1447,-178.6719 656.3185,-183.7214 653.0723,-179.4292 657,-180.1865 657,-180.1865 657,-180.1865 653.0723,-179.4292 657.6815,-176.6515 649.1447,-178.6719 649.1447,-178.6719"/>
<ellipse fill="none" stroke="#000000" cx="646.0025" cy="-178.0661" rx="3.2" ry="3.2"/>
</g>
<!-- INTERVIEW&#45;&gt;DEPARTMENT -->
<g id="edge10" class="edge">
<title>INTERVIEW:w&#45;&gt;DEPARTMENT:e</title>
<path fill="none" stroke="#000000" d="M642.4813,-292.2339C633.4945,-295.0376 627.6176,-299.9754 614,-302.1865 490.5726,-322.2271 458.0438,-316.1865 333,-316.1865"/>
<polygon fill="#000000" stroke="#000000" points="649.0784,-291.3036 657.5027,-293.7512 653.0392,-290.745 657,-290.1865 657,-290.1865 657,-290.1865 653.0392,-290.745 656.4973,-286.6217 649.0784,-291.3036 649.0784,-291.3036"/>
<ellipse fill="none" stroke="#000000" cx="645.9097" cy="-291.7504" rx="3.2" ry="3.2"/>
</g>
<!-- INTERVIEW&#45;&gt;EMPLOYEE -->
<g id="edge11" class="edge">
<title>INTERVIEW:w&#45;&gt;EMPLOYEE:e</title>
<path fill="none" stroke="#000000" d="M642.3869,-266.7484C628.2157,-263.7667 620.6179,-257.1865 601,-257.1865"/>
<polygon fill="#000000" stroke="#000000" points="649.0385,-267.4029 656.6474,-271.7691 653.0192,-267.7947 657,-268.1865 657,-268.1865 657,-268.1865 653.0192,-267.7947 657.3526,-264.6038 649.0385,-267.4029 649.0385,-267.4029"/>
<ellipse fill="none" stroke="#000000" cx="645.8538" cy="-267.0895" rx="3.2" ry="3.2"/>
</g>
<!-- JOB_OPENING -->
<g id="node6" class="node">
<title>JOB_OPENING</title>
<g id="a_node6"><a xlink:href="../../tables/JOB_OPENING.html" xlink:title="JOB_OPENING" target="_top">
<polygon fill="#ffffff" stroke="transparent" points="382,-340.6865 382,-489.6865 606,-489.6865 606,-340.6865 382,-340.6865"/>
<polygon fill="#f5f5f5" stroke="transparent" points="382,-466.1865 382,-489.1865 606,-489.1865 606,-466.1865 382,-466.1865"/>
<polygon fill="none" stroke="#000000" points="382,-466.1865 382,-489.1865 606,-489.1865 606,-466.1865 382,-466.1865"/>
<text text-anchor="start" x="387" y="-474.7865" font-family="Helvetica,sans-Serif" font-weight="bold" font-size="11.00" fill="#000000">JOB_OPENING</text>
<text text-anchor="start" x="571.0437" y="-474.2865" font-family="Helvetica,sans-Serif" font-size="11.00" fill="#000000">[table]</text>
<polygon fill="none" stroke="#000000" points="382,-444.1865 382,-466.1865 606,-466.1865 606,-444.1865 382,-444.1865"/>
<image xlink:href="../../images/primaryKeys.png" width="11px" height="12px" preserveAspectRatio="xMinYMin meet" x="387" y="-461.186"/>
<text text-anchor="start" x="402" y="-451.2865" font-family="Helvetica,sans-Serif" font-size="11.00" fill="#000000">ID</text>
<polygon fill="#ffffff" stroke="transparent" points="382,-422.1865 382,-444.1865 606,-444.1865 606,-422.1865 382,-422.1865"/>
<polygon fill="none" stroke="#000000" points="382,-422.1865 382,-444.1865 606,-444.1865 606,-422.1865 382,-422.1865"/>
<image xlink:href="../../images/foreignKeys.png" width="11px" height="12px" preserveAspectRatio="xMinYMin meet" x="387" y="-439.186"/>
<text text-anchor="start" x="402" y="-429.2865" font-family="Helvetica,sans-Serif" font-size="11.00" fill="#000000">DEPARTMENT_ID</text>
<polygon fill="#ffffff" stroke="transparent" points="382,-400.1865 382,-422.1865 606,-422.1865 606,-400.1865 382,-400.1865"/>
<polygon fill="none" stroke="#000000" points="382,-400.1865 382,-422.1865 606,-422.1865 606,-400.1865 382,-400.1865"/>
<image xlink:href="../../images/foreignKeys.png" width="11px" height="12px" preserveAspectRatio="xMinYMin meet" x="387" y="-417.186"/>
<text text-anchor="start" x="402" y="-407.2865" font-family="Helvetica,sans-Serif" font-size="11.00" fill="#000000">CREATOR</text>
<polygon fill="#ffffff" stroke="transparent" points="382,-378.1865 382,-400.1865 606,-400.1865 606,-378.1865 382,-378.1865"/>
<polygon fill="none" stroke="#000000" points="382,-378.1865 382,-400.1865 606,-400.1865 606,-378.1865 382,-378.1865"/>
<image xlink:href="../../images/foreignKeys.png" width="11px" height="12px" preserveAspectRatio="xMinYMin meet" x="387" y="-395.186"/>
<text text-anchor="start" x="402" y="-385.2865" font-family="Helvetica,sans-Serif" font-size="11.00" fill="#000000">LAST_MODIFIER</text>
<polygon fill="none" stroke="#000000" points="382,-359.1865 382,-378.1865 606,-378.1865 606,-359.1865 382,-359.1865"/>
<text text-anchor="start" x="385" y="-365.2865" font-family="Helvetica,sans-Serif" font-size="11.00" fill="#000000">...</text>
<polygon fill="#ffffff" stroke="transparent" points="382,-340.1865 382,-359.1865 475,-359.1865 475,-340.1865 382,-340.1865"/>
<polygon fill="none" stroke="#000000" points="382,-340.1865 382,-359.1865 475,-359.1865 475,-340.1865 382,-340.1865"/>
<text text-anchor="start" x="385" y="-346.2865" font-family="Helvetica,sans-Serif" font-size="11.00" fill="#000000">&lt; 3</text>
<polygon fill="#ffffff" stroke="transparent" points="475,-340.1865 475,-359.1865 549,-359.1865 549,-340.1865 475,-340.1865"/>
<polygon fill="none" stroke="#000000" points="475,-340.1865 475,-359.1865 549,-359.1865 549,-340.1865 475,-340.1865"/>
<text text-anchor="start" x="513.6105" y="-346.2865" font-family="Helvetica,sans-Serif" font-size="11.00" fill="#000000">0 rows</text>
<polygon fill="#ffffff" stroke="transparent" points="549,-340.1865 549,-359.1865 606,-359.1865 606,-340.1865 549,-340.1865"/>
<polygon fill="none" stroke="#000000" points="549,-340.1865 549,-359.1865 606,-359.1865 606,-340.1865 549,-340.1865"/>
<text text-anchor="start" x="587.4053" y="-346.2865" font-family="Helvetica,sans-Serif" font-size="11.00" fill="#000000">3 &gt;</text>
</a>
</g>
</g>
<!-- INTERVIEW&#45;&gt;JOB_OPENING -->
<g id="edge12" class="edge">
<title>INTERVIEW:w&#45;&gt;JOB_OPENING:e</title>
<path fill="none" stroke="#000000" d="M642.5097,-445.9052C630.3398,-448.999 623.3909,-455.1865 606,-455.1865"/>
<polygon fill="#000000" stroke="#000000" points="649.0557,-445.1288 657.4241,-447.7614 653.0278,-444.6576 657,-444.1865 657,-444.1865 657,-444.1865 653.0278,-444.6576 656.5759,-440.6115 649.0557,-445.1288 649.0557,-445.1288"/>
<ellipse fill="none" stroke="#000000" cx="645.878" cy="-445.5057" rx="3.2" ry="3.2"/>
</g>
<!-- JOB_OPENING&#45;&gt;User -->
<g id="edge14" class="edge">
<title>JOB_OPENING:w&#45;&gt;User:e</title>
<path fill="none" stroke="#000000" d="M367.4191,-411.4545C275.2455,-414.8287 230.4956,-447.9465 153,-389.1865 112.7497,-358.6672 162.5124,-283.1865 112,-283.1865"/>
<polygon fill="#000000" stroke="#000000" points="374.0014,-411.3335 382.0662,-414.7858 378.0007,-411.26 382,-411.1865 382,-411.1865 382,-411.1865 378.0007,-411.26 381.9338,-407.5871 374.0014,-411.3335 374.0014,-411.3335"/>
<ellipse fill="none" stroke="#000000" cx="370.8019" cy="-411.3924" rx="3.2" ry="3.2"/>
</g>
<!-- JOB_OPENING&#45;&gt;User -->
<g id="edge16" class="edge">
<title>JOB_OPENING:w&#45;&gt;User:e</title>
<path fill="none" stroke="#000000" d="M367.4049,-389.1917C308.6237,-389.1625 191.6463,-387.868 153,-361.1865 120.7709,-338.9353 151.1641,-283.1865 112,-283.1865"/>
<polygon fill="#000000" stroke="#000000" points="374,-389.1894 382.0013,-392.7865 378,-389.1879 382,-389.1865 382,-389.1865 382,-389.1865 378,-389.1879 381.9987,-385.5865 374,-389.1894 374,-389.1894"/>
<ellipse fill="none" stroke="#000000" cx="370.8" cy="-389.1906" rx="3.2" ry="3.2"/>
</g>
<!-- JOB_OPENING&#45;&gt;DEPARTMENT -->
<g id="edge15" class="edge">
<title>JOB_OPENING:w&#45;&gt;DEPARTMENT:e</title>
<path fill="none" stroke="#000000" d="M367.8892,-429.5566C337.7353,-409.8082 383.4302,-316.1865 333,-316.1865"/>
<polygon fill="#000000" stroke="#000000" points="374.2522,-431.1934 381.1031,-436.6729 378.1261,-432.1899 382,-433.1865 382,-433.1865 382,-433.1865 378.1261,-432.1899 382.8969,-429.7 374.2522,-431.1934 374.2522,-431.1934"/>
<ellipse fill="none" stroke="#000000" cx="371.1531" cy="-430.3961" rx="3.2" ry="3.2"/>
</g>
</g>
</svg>
