<?xml version="1.0" encoding="UTF-8" standalone="no"?>
<!DOCTYPE svg PUBLIC "-//W3C//DTD SVG 1.1//EN"
 "http://www.w3.org/Graphics/SVG/1.1/DTD/svg11.dtd">
<!-- Generated by graphviz version 2.40.1 (20161225.0304)
 -->
<!-- Title: oneDegreeRelationshipsDiagram Pages: 1 -->
<svg width="690pt" height="464pt"
 viewBox="0.00 0.00 690.00 464.28" xmlns="http://www.w3.org/2000/svg" xmlns:xlink="http://www.w3.org/1999/xlink">
<g id="graph0" class="graph" transform="scale(1 1) rotate(0) translate(4 460.2788)">
<title>oneDegreeRelationshipsDiagram</title>
<polygon fill="#ffffff" stroke="transparent" points="-4,4 -4,-460.2788 686,-460.2788 686,4 -4,4"/>
<!-- APPLICANT -->
<g id="node1" class="node">
<title>APPLICANT</title>
<g id="a_node1"><a xlink:href="../../tables/APPLICANT.html" xlink:title="APPLICANT" target="_top">
<polygon fill="#ffffff" stroke="transparent" points="177.5,-266.7788 177.5,-393.7788 368.5,-393.7788 368.5,-266.7788 177.5,-266.7788"/>
<polygon fill="#f5f5f5" stroke="transparent" points="178,-370.2788 178,-393.2788 369,-393.2788 369,-370.2788 178,-370.2788"/>
<polygon fill="none" stroke="#000000" points="178,-370.2788 178,-393.2788 369,-393.2788 369,-370.2788 178,-370.2788"/>
<text text-anchor="start" x="183" y="-378.8788" font-family="Helvetica,sans-Serif" font-weight="bold" font-size="11.00" fill="#000000">APPLICANT</text>
<text text-anchor="start" x="334.0437" y="-378.3788" font-family="Helvetica,sans-Serif" font-size="11.00" fill="#000000">[table]</text>
<polygon fill="none" stroke="#000000" points="178,-348.2788 178,-370.2788 369,-370.2788 369,-348.2788 178,-348.2788"/>
<image xlink:href="../../images/primaryKeys.png" width="11px" height="12px" preserveAspectRatio="xMinYMin meet" x="183" y="-365.279"/>
<text text-anchor="start" x="198" y="-355.3788" font-family="Helvetica,sans-Serif" font-size="11.00" fill="#000000">ID</text>
<polygon fill="#ffffff" stroke="transparent" points="178,-326.2788 178,-348.2788 369,-348.2788 369,-326.2788 178,-326.2788"/>
<polygon fill="none" stroke="#000000" points="178,-326.2788 178,-348.2788 369,-348.2788 369,-326.2788 178,-326.2788"/>
<image xlink:href="../../images/foreignKeys.png" width="11px" height="12px" preserveAspectRatio="xMinYMin meet" x="183" y="-343.279"/>
<text text-anchor="start" x="198" y="-333.3788" font-family="Helvetica,sans-Serif" font-size="11.00" fill="#000000">CREATOR</text>
<polygon fill="#ffffff" stroke="transparent" points="178,-304.2788 178,-326.2788 369,-326.2788 369,-304.2788 178,-304.2788"/>
<polygon fill="none" stroke="#000000" points="178,-304.2788 178,-326.2788 369,-326.2788 369,-304.2788 178,-304.2788"/>
<image xlink:href="../../images/foreignKeys.png" width="11px" height="12px" preserveAspectRatio="xMinYMin meet" x="183" y="-321.279"/>
<text text-anchor="start" x="198" y="-311.3788" font-family="Helvetica,sans-Serif" font-size="11.00" fill="#000000">LAST_MODIFIER</text>
<polygon fill="none" stroke="#000000" points="178,-285.2788 178,-304.2788 369,-304.2788 369,-285.2788 178,-285.2788"/>
<text text-anchor="start" x="181" y="-291.3788" font-family="Helvetica,sans-Serif" font-size="11.00" fill="#000000">...</text>
<polygon fill="#ffffff" stroke="transparent" points="178,-266.2788 178,-285.2788 254,-285.2788 254,-266.2788 178,-266.2788"/>
<polygon fill="none" stroke="#000000" points="178,-266.2788 178,-285.2788 254,-285.2788 254,-266.2788 178,-266.2788"/>
<text text-anchor="start" x="181" y="-272.3788" font-family="Helvetica,sans-Serif" font-size="11.00" fill="#000000">&lt; 2</text>
<polygon fill="#ffffff" stroke="transparent" points="254,-266.2788 254,-285.2788 320,-285.2788 320,-266.2788 254,-266.2788"/>
<polygon fill="none" stroke="#000000" points="254,-266.2788 254,-285.2788 320,-285.2788 320,-266.2788 254,-266.2788"/>
<text text-anchor="start" x="284.6105" y="-272.3788" font-family="Helvetica,sans-Serif" font-size="11.00" fill="#000000">0 rows</text>
<polygon fill="#ffffff" stroke="transparent" points="320,-266.2788 320,-285.2788 369,-285.2788 369,-266.2788 320,-266.2788"/>
<polygon fill="none" stroke="#000000" points="320,-266.2788 320,-285.2788 369,-285.2788 369,-266.2788 320,-266.2788"/>
<text text-anchor="start" x="350.4053" y="-272.3788" font-family="Helvetica,sans-Serif" font-size="11.00" fill="#000000">3 &gt;</text>
</a>
</g>
</g>
<!-- User -->
<g id="node2" class="node">
<title>User</title>
<g id="a_node2"><a xlink:href="../../tables/User.html" xlink:title="User" target="_top">
<polygon fill="#ffffff" stroke="transparent" points="8,-107.7788 8,-190.7788 112,-190.7788 112,-107.7788 8,-107.7788"/>
<polygon fill="#f5f5f5" stroke="transparent" points="8,-167.2788 8,-190.2788 112,-190.2788 112,-167.2788 8,-167.2788"/>
<polygon fill="none" stroke="#000000" points="8,-167.2788 8,-190.2788 112,-190.2788 112,-167.2788 8,-167.2788"/>
<text text-anchor="start" x="13" y="-175.8788" font-family="Helvetica,sans-Serif" font-weight="bold" font-size="11.00" fill="#000000">User</text>
<text text-anchor="start" x="77.0437" y="-175.3788" font-family="Helvetica,sans-Serif" font-size="11.00" fill="#000000">[table]</text>
<polygon fill="none" stroke="#000000" points="8,-145.2788 8,-167.2788 112,-167.2788 112,-145.2788 8,-145.2788"/>
<image xlink:href="../../images/primaryKeys.png" width="11px" height="12px" preserveAspectRatio="xMinYMin meet" x="13" y="-162.279"/>
<text text-anchor="start" x="28" y="-152.3788" font-family="Helvetica,sans-Serif" font-size="11.00" fill="#000000">userid_pk</text>
<polygon fill="none" stroke="#000000" points="8,-126.2788 8,-145.2788 112,-145.2788 112,-126.2788 8,-126.2788"/>
<text text-anchor="start" x="11" y="-132.3788" font-family="Helvetica,sans-Serif" font-size="11.00" fill="#000000">...</text>
<polygon fill="#ffffff" stroke="transparent" points="8,-107.2788 8,-126.2788 30,-126.2788 30,-107.2788 8,-107.2788"/>
<polygon fill="none" stroke="#000000" points="8,-107.2788 8,-126.2788 30,-126.2788 30,-107.2788 8,-107.2788"/>
<text text-anchor="start" x="11" y="-113.3788" font-family="Helvetica,sans-Serif" font-size="11.00" fill="#000000"> &#160;</text>
<polygon fill="#ffffff" stroke="transparent" points="30,-107.2788 30,-126.2788 73,-126.2788 73,-107.2788 30,-107.2788"/>
<polygon fill="none" stroke="#000000" points="30,-107.2788 30,-126.2788 73,-126.2788 73,-107.2788 30,-107.2788"/>
<text text-anchor="start" x="37.6105" y="-113.3788" font-family="Helvetica,sans-Serif" font-size="11.00" fill="#000000">0 rows</text>
<polygon fill="#ffffff" stroke="transparent" points="73,-107.2788 73,-126.2788 112,-126.2788 112,-107.2788 73,-107.2788"/>
<polygon fill="none" stroke="#000000" points="73,-107.2788 73,-126.2788 112,-126.2788 112,-107.2788 73,-107.2788"/>
<text text-anchor="start" x="81.1755" y="-113.3788" font-family="Helvetica,sans-Serif" font-size="11.00" fill="#000000">102 &gt;</text>
</a>
</g>
</g>
<!-- APPLICANT&#45;&gt;User -->
<g id="edge1" class="edge">
<title>APPLICANT:w&#45;&gt;User:e</title>
<path fill="none" stroke="#000000" d="M163.7201,-335.12C105.149,-314.6987 192.1068,-156.2788 112,-156.2788"/>
<polygon fill="#000000" stroke="#000000" points="170.0899,-336.0829 177.4619,-340.8383 174.0449,-336.6808 178,-337.2788 178,-337.2788 178,-337.2788 174.0449,-336.6808 178.5381,-333.7192 170.0899,-336.0829 170.0899,-336.0829"/>
<ellipse fill="none" stroke="#000000" cx="166.9258" cy="-335.6046" rx="3.2" ry="3.2"/>
</g>
<!-- APPLICANT&#45;&gt;User -->
<g id="edge2" class="edge">
<title>APPLICANT:w&#45;&gt;User:e</title>
<path fill="none" stroke="#000000" d="M163.5327,-312.7813C113.5042,-292.5531 182.8342,-156.2788 112,-156.2788"/>
<polygon fill="#000000" stroke="#000000" points="170.1166,-313.9178 177.3876,-318.8263 174.0583,-314.5983 178,-315.2788 178,-315.2788 178,-315.2788 174.0583,-314.5983 178.6124,-311.7313 170.1166,-313.9178 170.1166,-313.9178"/>
<ellipse fill="none" stroke="#000000" cx="166.9632" cy="-313.3734" rx="3.2" ry="3.2"/>
</g>
<!-- JOB_APPLICATION -->
<g id="node3" class="node">
<title>JOB_APPLICATION</title>
<g id="a_node3"><a xlink:href="../../tables/JOB_APPLICATION.html" xlink:title="JOB_APPLICATION" target="_top">
<polygon fill="#ffffff" stroke="transparent" points="434,-54.2788 434,-452.2788 674,-452.2788 674,-54.2788 434,-54.2788"/>
<polygon fill="#f5f5f5" stroke="transparent" points="436,-427.2788 436,-450.2788 672,-450.2788 672,-427.2788 436,-427.2788"/>
<polygon fill="none" stroke="#000000" points="436,-427.2788 436,-450.2788 672,-450.2788 672,-427.2788 436,-427.2788"/>
<text text-anchor="start" x="441" y="-435.8788" font-family="Helvetica,sans-Serif" font-weight="bold" font-size="11.00" fill="#000000">JOB_APPLICATION</text>
<text text-anchor="start" x="637.0437" y="-435.3788" font-family="Helvetica,sans-Serif" font-size="11.00" fill="#000000">[table]</text>
<polygon fill="none" stroke="#000000" points="436,-405.2788 436,-427.2788 605,-427.2788 605,-405.2788 436,-405.2788"/>
<image xlink:href="../../images/primaryKeys.png" width="11px" height="12px" preserveAspectRatio="xMinYMin meet" x="441" y="-422.279"/>
<text text-anchor="start" x="456" y="-412.3788" font-family="Helvetica,sans-Serif" font-size="11.00" fill="#000000">ID</text>
<polygon fill="none" stroke="#000000" points="605,-405.2788 605,-427.2788 672,-427.2788 672,-405.2788 605,-405.2788"/>
<text text-anchor="start" x="608" y="-412.9788" font-family="Helvetica,sans-Serif" font-size="11.00" fill="#000000">int[10]</text>
<polygon fill="none" stroke="#000000" points="436,-383.2788 436,-405.2788 605,-405.2788 605,-383.2788 436,-383.2788"/>
<text text-anchor="start" x="456" y="-390.3788" font-family="Helvetica,sans-Serif" font-size="11.00" fill="#000000">WORKSPACE_ID</text>
<polygon fill="none" stroke="#000000" points="605,-383.2788 605,-405.2788 672,-405.2788 672,-383.2788 605,-383.2788"/>
<text text-anchor="start" x="608" y="-390.9788" font-family="Helvetica,sans-Serif" font-size="11.00" fill="#000000">int[10]</text>
<polygon fill="none" stroke="#000000" points="436,-361.2788 436,-383.2788 605,-383.2788 605,-361.2788 436,-361.2788"/>
<text text-anchor="start" x="456" y="-368.3788" font-family="Helvetica,sans-Serif" font-size="11.00" fill="#000000">FIRST_NAME</text>
<polygon fill="none" stroke="#000000" points="605,-361.2788 605,-383.2788 672,-383.2788 672,-361.2788 605,-361.2788"/>
<text text-anchor="start" x="607.9365" y="-368.9788" font-family="Helvetica,sans-Serif" font-size="11.00" fill="#000000">varchar[255]</text>
<polygon fill="none" stroke="#000000" points="436,-339.2788 436,-361.2788 605,-361.2788 605,-339.2788 436,-339.2788"/>
<text text-anchor="start" x="456" y="-346.3788" font-family="Helvetica,sans-Serif" font-size="11.00" fill="#000000">LAST_NAME</text>
<polygon fill="none" stroke="#000000" points="605,-339.2788 605,-361.2788 672,-361.2788 672,-339.2788 605,-339.2788"/>
<text text-anchor="start" x="607.9365" y="-346.9788" font-family="Helvetica,sans-Serif" font-size="11.00" fill="#000000">varchar[255]</text>
<polygon fill="none" stroke="#000000" points="436,-317.2788 436,-339.2788 605,-339.2788 605,-317.2788 436,-317.2788"/>
<text text-anchor="start" x="456" y="-324.3788" font-family="Helvetica,sans-Serif" font-size="11.00" fill="#000000">REFERRED_BY</text>
<polygon fill="none" stroke="#000000" points="605,-317.2788 605,-339.2788 672,-339.2788 672,-317.2788 605,-317.2788"/>
<text text-anchor="start" x="607.9365" y="-324.9788" font-family="Helvetica,sans-Serif" font-size="11.00" fill="#000000">varchar[255]</text>
<polygon fill="none" stroke="#000000" points="436,-295.2788 436,-317.2788 605,-317.2788 605,-295.2788 436,-295.2788"/>
<text text-anchor="start" x="456" y="-302.3788" font-family="Helvetica,sans-Serif" font-size="11.00" fill="#000000">MOBILE</text>
<polygon fill="none" stroke="#000000" points="605,-295.2788 605,-317.2788 672,-317.2788 672,-295.2788 605,-295.2788"/>
<text text-anchor="start" x="608" y="-302.9788" font-family="Helvetica,sans-Serif" font-size="11.00" fill="#000000">varchar[50]</text>
<polygon fill="none" stroke="#000000" points="436,-273.2788 436,-295.2788 605,-295.2788 605,-273.2788 436,-273.2788"/>
<text text-anchor="start" x="456" y="-280.3788" font-family="Helvetica,sans-Serif" font-size="11.00" fill="#000000">EMAIL_ID</text>
<polygon fill="none" stroke="#000000" points="605,-273.2788 605,-295.2788 672,-295.2788 672,-273.2788 605,-273.2788"/>
<text text-anchor="start" x="608" y="-280.9788" font-family="Helvetica,sans-Serif" font-size="11.00" fill="#000000">varchar[50]</text>
<polygon fill="none" stroke="#000000" points="436,-251.2788 436,-273.2788 605,-273.2788 605,-251.2788 436,-251.2788"/>
<text text-anchor="start" x="456" y="-258.3788" font-family="Helvetica,sans-Serif" font-size="11.00" fill="#000000">APPLICATION_STATUS</text>
<polygon fill="none" stroke="#000000" points="605,-251.2788 605,-273.2788 672,-273.2788 672,-251.2788 605,-251.2788"/>
<text text-anchor="start" x="608" y="-258.9788" font-family="Helvetica,sans-Serif" font-size="11.00" fill="#000000">enum[27]</text>
<polygon fill="none" stroke="#000000" points="436,-229.2788 436,-251.2788 605,-251.2788 605,-229.2788 436,-229.2788"/>
<text text-anchor="start" x="456" y="-236.3788" font-family="Helvetica,sans-Serif" font-size="11.00" fill="#000000">RELATIONSHIP</text>
<polygon fill="none" stroke="#000000" points="605,-229.2788 605,-251.2788 672,-251.2788 672,-229.2788 605,-229.2788"/>
<text text-anchor="start" x="608" y="-236.9788" font-family="Helvetica,sans-Serif" font-size="11.00" fill="#000000">enum[38]</text>
<polygon fill="none" stroke="#000000" points="436,-207.2788 436,-229.2788 605,-229.2788 605,-207.2788 436,-207.2788"/>
<text text-anchor="start" x="456" y="-214.3788" font-family="Helvetica,sans-Serif" font-size="11.00" fill="#000000">RESUME</text>
<polygon fill="none" stroke="#000000" points="605,-207.2788 605,-229.2788 672,-229.2788 672,-207.2788 605,-207.2788"/>
<text text-anchor="start" x="607.9365" y="-214.9788" font-family="Helvetica,sans-Serif" font-size="11.00" fill="#000000">varchar[200]</text>
<polygon fill="#ffffff" stroke="transparent" points="436,-185.2788 436,-207.2788 605,-207.2788 605,-185.2788 436,-185.2788"/>
<polygon fill="none" stroke="#000000" points="436,-185.2788 436,-207.2788 605,-207.2788 605,-185.2788 436,-185.2788"/>
<image xlink:href="../../images/foreignKeys.png" width="11px" height="12px" preserveAspectRatio="xMinYMin meet" x="441" y="-202.279"/>
<text text-anchor="start" x="456" y="-192.3788" font-family="Helvetica,sans-Serif" font-size="11.00" fill="#000000">APPLICANT_ID</text>
<polygon fill="none" stroke="#000000" points="605,-185.2788 605,-207.2788 672,-207.2788 672,-185.2788 605,-185.2788"/>
<text text-anchor="start" x="608" y="-192.9788" font-family="Helvetica,sans-Serif" font-size="11.00" fill="#000000">int[10]</text>
<polygon fill="#ffffff" stroke="transparent" points="436,-163.2788 436,-185.2788 605,-185.2788 605,-163.2788 436,-163.2788"/>
<polygon fill="none" stroke="#000000" points="436,-163.2788 436,-185.2788 605,-185.2788 605,-163.2788 436,-163.2788"/>
<image xlink:href="../../images/foreignKeys.png" width="11px" height="12px" preserveAspectRatio="xMinYMin meet" x="441" y="-180.279"/>
<text text-anchor="start" x="456" y="-170.3788" font-family="Helvetica,sans-Serif" font-size="11.00" fill="#000000">JOB_OPENING_ID</text>
<polygon fill="none" stroke="#000000" points="605,-163.2788 605,-185.2788 672,-185.2788 672,-163.2788 605,-163.2788"/>
<text text-anchor="start" x="608" y="-170.9788" font-family="Helvetica,sans-Serif" font-size="11.00" fill="#000000">int[10]</text>
<polygon fill="none" stroke="#000000" points="436,-141.2788 436,-163.2788 605,-163.2788 605,-141.2788 436,-141.2788"/>
<text text-anchor="start" x="456" y="-148.3788" font-family="Helvetica,sans-Serif" font-size="11.00" fill="#000000">CREATED_TIME</text>
<polygon fill="none" stroke="#000000" points="605,-141.2788 605,-163.2788 672,-163.2788 672,-141.2788 605,-141.2788"/>
<text text-anchor="start" x="608" y="-148.9788" font-family="Helvetica,sans-Serif" font-size="11.00" fill="#000000">datetime[26]</text>
<polygon fill="none" stroke="#000000" points="436,-119.2788 436,-141.2788 605,-141.2788 605,-119.2788 436,-119.2788"/>
<text text-anchor="start" x="456" y="-126.3788" font-family="Helvetica,sans-Serif" font-size="11.00" fill="#000000">MODIFIED_TIME</text>
<polygon fill="none" stroke="#000000" points="605,-119.2788 605,-141.2788 672,-141.2788 672,-119.2788 605,-119.2788"/>
<text text-anchor="start" x="608" y="-126.9788" font-family="Helvetica,sans-Serif" font-size="11.00" fill="#000000">datetime[26]</text>
<polygon fill="#ffffff" stroke="transparent" points="436,-97.2788 436,-119.2788 605,-119.2788 605,-97.2788 436,-97.2788"/>
<polygon fill="none" stroke="#000000" points="436,-97.2788 436,-119.2788 605,-119.2788 605,-97.2788 436,-97.2788"/>
<image xlink:href="../../images/foreignKeys.png" width="11px" height="12px" preserveAspectRatio="xMinYMin meet" x="441" y="-114.279"/>
<text text-anchor="start" x="456" y="-104.3788" font-family="Helvetica,sans-Serif" font-size="11.00" fill="#000000">CREATOR</text>
<polygon fill="none" stroke="#000000" points="605,-97.2788 605,-119.2788 672,-119.2788 672,-97.2788 605,-97.2788"/>
<text text-anchor="start" x="608" y="-104.9788" font-family="Helvetica,sans-Serif" font-size="11.00" fill="#000000">int[10]</text>
<polygon fill="#ffffff" stroke="transparent" points="436,-75.2788 436,-97.2788 605,-97.2788 605,-75.2788 436,-75.2788"/>
<polygon fill="none" stroke="#000000" points="436,-75.2788 436,-97.2788 605,-97.2788 605,-75.2788 436,-75.2788"/>
<image xlink:href="../../images/foreignKeys.png" width="11px" height="12px" preserveAspectRatio="xMinYMin meet" x="441" y="-92.2788"/>
<text text-anchor="start" x="456" y="-82.3788" font-family="Helvetica,sans-Serif" font-size="11.00" fill="#000000">LAST_MODIFIER</text>
<polygon fill="none" stroke="#000000" points="605,-75.2788 605,-97.2788 672,-97.2788 672,-75.2788 605,-75.2788"/>
<text text-anchor="start" x="608" y="-82.9788" font-family="Helvetica,sans-Serif" font-size="11.00" fill="#000000">int[10]</text>
<polygon fill="#ffffff" stroke="transparent" points="436,-56.2788 436,-75.2788 512,-75.2788 512,-56.2788 436,-56.2788"/>
<polygon fill="none" stroke="#000000" points="436,-56.2788 436,-75.2788 512,-75.2788 512,-56.2788 436,-56.2788"/>
<text text-anchor="start" x="439" y="-62.3788" font-family="Helvetica,sans-Serif" font-size="11.00" fill="#000000">&lt; 4</text>
<polygon fill="#ffffff" stroke="transparent" points="512,-56.2788 512,-75.2788 605,-75.2788 605,-56.2788 512,-56.2788"/>
<polygon fill="none" stroke="#000000" points="512,-56.2788 512,-75.2788 605,-75.2788 605,-56.2788 512,-56.2788"/>
<text text-anchor="start" x="569.6105" y="-62.3788" font-family="Helvetica,sans-Serif" font-size="11.00" fill="#000000">0 rows</text>
<polygon fill="#ffffff" stroke="transparent" points="605,-56.2788 605,-75.2788 672,-75.2788 672,-56.2788 605,-56.2788"/>
<polygon fill="none" stroke="#000000" points="605,-56.2788 605,-75.2788 672,-75.2788 672,-56.2788 605,-56.2788"/>
<text text-anchor="start" x="653.4053" y="-62.3788" font-family="Helvetica,sans-Serif" font-size="11.00" fill="#000000">0 &gt;</text>
<polygon fill="none" stroke="#000000" stroke-width="2" points="435,-55.2788 435,-451.2788 673,-451.2788 673,-55.2788 435,-55.2788"/>
</a>
</g>
</g>
<!-- JOB_APPLICATION&#45;&gt;APPLICANT -->
<g id="edge3" class="edge">
<title>JOB_APPLICATION:w&#45;&gt;APPLICANT:e</title>
<path fill="none" stroke="#000000" d="M421.5241,-198.7095C369.7545,-218.9861 441.6654,-359.2788 369,-359.2788"/>
<polygon fill="#000000" stroke="#000000" points="428.1104,-197.6036 436.5962,-199.8291 432.0552,-196.9412 436,-196.2788 436,-196.2788 436,-196.2788 432.0552,-196.9412 435.4038,-192.7285 428.1104,-197.6036 428.1104,-197.6036"/>
<ellipse fill="none" stroke="#000000" cx="424.9546" cy="-198.1335" rx="3.2" ry="3.2"/>
</g>
<!-- JOB_APPLICATION&#45;&gt;User -->
<g id="edge4" class="edge">
<title>JOB_APPLICATION:w&#45;&gt;User:e</title>
<path fill="none" stroke="#000000" d="M421.9116,-104.8947C412.5615,-99.6772 408.0002,-89.8932 393,-86.2788 289.3013,-61.2915 245.5423,-33.2344 153,-86.2788 121.7194,-104.2085 148.0548,-156.2788 112,-156.2788"/>
<polygon fill="#000000" stroke="#000000" points="428.2213,-106.4103 435.1592,-111.7792 432.1106,-107.3445 436,-108.2788 436,-108.2788 436,-108.2788 432.1106,-107.3445 436.8408,-104.7784 428.2213,-106.4103 428.2213,-106.4103"/>
<ellipse fill="none" stroke="#000000" cx="425.1098" cy="-105.6628" rx="3.2" ry="3.2"/>
</g>
<!-- JOB_APPLICATION&#45;&gt;User -->
<g id="edge6" class="edge">
<title>JOB_APPLICATION:w&#45;&gt;User:e</title>
<path fill="none" stroke="#000000" d="M421.951,-82.1395C412.2957,-75.1844 409.3252,-61.4108 393,-56.2788 291.2429,-24.2901 241.5832,3.1417 153,-56.2788 113.1085,-83.0375 160.035,-156.2788 112,-156.2788"/>
<polygon fill="#000000" stroke="#000000" points="428.3261,-84.0178 434.9825,-89.732 432.1631,-85.1483 436,-86.2788 436,-86.2788 436,-86.2788 432.1631,-85.1483 437.0175,-82.8256 428.3261,-84.0178 428.3261,-84.0178"/>
<ellipse fill="none" stroke="#000000" cx="425.2566" cy="-83.1134" rx="3.2" ry="3.2"/>
</g>
<!-- JOB_OPENING -->
<g id="node4" class="node">
<title>JOB_OPENING</title>
<g id="a_node4"><a xlink:href="../../tables/JOB_OPENING.html" xlink:title="JOB_OPENING" target="_top">
<polygon fill="#ffffff" stroke="transparent" points="161,-96.7788 161,-245.7788 385,-245.7788 385,-96.7788 161,-96.7788"/>
<polygon fill="#f5f5f5" stroke="transparent" points="161,-222.2788 161,-245.2788 385,-245.2788 385,-222.2788 161,-222.2788"/>
<polygon fill="none" stroke="#000000" points="161,-222.2788 161,-245.2788 385,-245.2788 385,-222.2788 161,-222.2788"/>
<text text-anchor="start" x="166" y="-230.8788" font-family="Helvetica,sans-Serif" font-weight="bold" font-size="11.00" fill="#000000">JOB_OPENING</text>
<text text-anchor="start" x="350.0437" y="-230.3788" font-family="Helvetica,sans-Serif" font-size="11.00" fill="#000000">[table]</text>
<polygon fill="none" stroke="#000000" points="161,-200.2788 161,-222.2788 385,-222.2788 385,-200.2788 161,-200.2788"/>
<image xlink:href="../../images/primaryKeys.png" width="11px" height="12px" preserveAspectRatio="xMinYMin meet" x="166" y="-217.279"/>
<text text-anchor="start" x="181" y="-207.3788" font-family="Helvetica,sans-Serif" font-size="11.00" fill="#000000">ID</text>
<polygon fill="#ffffff" stroke="transparent" points="161,-178.2788 161,-200.2788 385,-200.2788 385,-178.2788 161,-178.2788"/>
<polygon fill="none" stroke="#000000" points="161,-178.2788 161,-200.2788 385,-200.2788 385,-178.2788 161,-178.2788"/>
<image xlink:href="../../images/foreignKeys.png" width="11px" height="12px" preserveAspectRatio="xMinYMin meet" x="166" y="-195.279"/>
<text text-anchor="start" x="181" y="-185.3788" font-family="Helvetica,sans-Serif" font-size="11.00" fill="#000000">DEPARTMENT_ID</text>
<polygon fill="#ffffff" stroke="transparent" points="161,-156.2788 161,-178.2788 385,-178.2788 385,-156.2788 161,-156.2788"/>
<polygon fill="none" stroke="#000000" points="161,-156.2788 161,-178.2788 385,-178.2788 385,-156.2788 161,-156.2788"/>
<image xlink:href="../../images/foreignKeys.png" width="11px" height="12px" preserveAspectRatio="xMinYMin meet" x="166" y="-173.279"/>
<text text-anchor="start" x="181" y="-163.3788" font-family="Helvetica,sans-Serif" font-size="11.00" fill="#000000">CREATOR</text>
<polygon fill="#ffffff" stroke="transparent" points="161,-134.2788 161,-156.2788 385,-156.2788 385,-134.2788 161,-134.2788"/>
<polygon fill="none" stroke="#000000" points="161,-134.2788 161,-156.2788 385,-156.2788 385,-134.2788 161,-134.2788"/>
<image xlink:href="../../images/foreignKeys.png" width="11px" height="12px" preserveAspectRatio="xMinYMin meet" x="166" y="-151.279"/>
<text text-anchor="start" x="181" y="-141.3788" font-family="Helvetica,sans-Serif" font-size="11.00" fill="#000000">LAST_MODIFIER</text>
<polygon fill="none" stroke="#000000" points="161,-115.2788 161,-134.2788 385,-134.2788 385,-115.2788 161,-115.2788"/>
<text text-anchor="start" x="164" y="-121.3788" font-family="Helvetica,sans-Serif" font-size="11.00" fill="#000000">...</text>
<polygon fill="#ffffff" stroke="transparent" points="161,-96.2788 161,-115.2788 254,-115.2788 254,-96.2788 161,-96.2788"/>
<polygon fill="none" stroke="#000000" points="161,-96.2788 161,-115.2788 254,-115.2788 254,-96.2788 161,-96.2788"/>
<text text-anchor="start" x="164" y="-102.3788" font-family="Helvetica,sans-Serif" font-size="11.00" fill="#000000">&lt; 3</text>
<polygon fill="#ffffff" stroke="transparent" points="254,-96.2788 254,-115.2788 328,-115.2788 328,-96.2788 254,-96.2788"/>
<polygon fill="none" stroke="#000000" points="254,-96.2788 254,-115.2788 328,-115.2788 328,-96.2788 254,-96.2788"/>
<text text-anchor="start" x="292.6105" y="-102.3788" font-family="Helvetica,sans-Serif" font-size="11.00" fill="#000000">0 rows</text>
<polygon fill="#ffffff" stroke="transparent" points="328,-96.2788 328,-115.2788 385,-115.2788 385,-96.2788 328,-96.2788"/>
<polygon fill="none" stroke="#000000" points="328,-96.2788 328,-115.2788 385,-115.2788 385,-96.2788 328,-96.2788"/>
<text text-anchor="start" x="366.4053" y="-102.3788" font-family="Helvetica,sans-Serif" font-size="11.00" fill="#000000">3 &gt;</text>
</a>
</g>
</g>
<!-- JOB_APPLICATION&#45;&gt;JOB_OPENING -->
<g id="edge5" class="edge">
<title>JOB_APPLICATION:w&#45;&gt;JOB_OPENING:e</title>
<path fill="none" stroke="#000000" d="M422.0658,-178.5232C408.64,-188.2419 407.0965,-211.2788 385,-211.2788"/>
<polygon fill="#000000" stroke="#000000" points="428.3471,-176.6099 437.049,-177.7226 432.1736,-175.4443 436,-174.2788 436,-174.2788 436,-174.2788 432.1736,-175.4443 434.951,-170.835 428.3471,-176.6099 428.3471,-176.6099"/>
<ellipse fill="none" stroke="#000000" cx="425.286" cy="-177.5423" rx="3.2" ry="3.2"/>
</g>
<!-- JOB_OPENING&#45;&gt;User -->
<g id="edge7" class="edge">
<title>JOB_OPENING:w&#45;&gt;User:e</title>
<path fill="none" stroke="#000000" d="M146.7027,-165.4624C135.2382,-162.3381 128.5655,-156.2788 112,-156.2788"/>
<polygon fill="#000000" stroke="#000000" points="153.0638,-166.2705 160.5463,-170.8501 157.0319,-166.7746 161,-167.2788 161,-167.2788 161,-167.2788 157.0319,-166.7746 161.4537,-163.7075 153.0638,-166.2705 153.0638,-166.2705"/>
<ellipse fill="none" stroke="#000000" cx="149.8893" cy="-165.8671" rx="3.2" ry="3.2"/>
</g>
<!-- JOB_OPENING&#45;&gt;User -->
<g id="edge8" class="edge">
<title>JOB_OPENING:w&#45;&gt;User:e</title>
<path fill="none" stroke="#000000" d="M146.7027,-147.0952C135.2382,-150.2195 128.5655,-156.2788 112,-156.2788"/>
<polygon fill="#000000" stroke="#000000" points="153.0638,-146.2871 161.4537,-148.8501 157.0319,-145.7829 161,-145.2788 161,-145.2788 161,-145.2788 157.0319,-145.7829 160.5463,-141.7075 153.0638,-146.2871 153.0638,-146.2871"/>
<ellipse fill="none" stroke="#000000" cx="149.8893" cy="-146.6904" rx="3.2" ry="3.2"/>
</g>
</g>
</svg>
