<?xml version="1.0" encoding="UTF-8" standalone="no"?>
<!DOCTYPE svg PUBLIC "-//W3C//DTD SVG 1.1//EN"
 "http://www.w3.org/Graphics/SVG/1.1/DTD/svg11.dtd">
<!-- Generated by graphviz version 2.40.1 (20161225.0304)
 -->
<!-- Title: oneDegreeRelationshipsDiagram Pages: 1 -->
<svg width="635pt" height="574pt"
 viewBox="0.00 0.00 635.00 573.50" xmlns="http://www.w3.org/2000/svg" xmlns:xlink="http://www.w3.org/1999/xlink">
<g id="graph0" class="graph" transform="scale(1 1) rotate(0) translate(4 569.5)">
<title>oneDegreeRelationshipsDiagram</title>
<polygon fill="#ffffff" stroke="transparent" points="-4,4 -4,-569.5 631,-569.5 631,4 -4,4"/>
<!-- JOBS -->
<g id="node1" class="node">
<title>JOBS</title>
<g id="a_node1"><a xlink:href="../../tables/JOBS.html" xlink:title="JOBS" target="_top">
<polygon fill="#ffffff" stroke="transparent" points="161,-119.5 161,-561.5 428,-561.5 428,-119.5 161,-119.5"/>
<polygon fill="#f5f5f5" stroke="transparent" points="163.5,-536.5 163.5,-559.5 426.5,-559.5 426.5,-536.5 163.5,-536.5"/>
<polygon fill="none" stroke="#000000" points="163.5,-536.5 163.5,-559.5 426.5,-559.5 426.5,-536.5 163.5,-536.5"/>
<text text-anchor="start" x="168.1357" y="-545.1" font-family="Helvetica,sans-Serif" font-weight="bold" font-size="11.00" fill="#000000">JOBS</text>
<text text-anchor="start" x="391.5437" y="-544.6" font-family="Helvetica,sans-Serif" font-size="11.00" fill="#000000">[table]</text>
<polygon fill="none" stroke="#000000" points="163.5,-514.5 163.5,-536.5 315.5,-536.5 315.5,-514.5 163.5,-514.5"/>
<image xlink:href="../../images/primaryKeys.png" width="11px" height="12px" preserveAspectRatio="xMinYMin meet" x="168.5" y="-531.5"/>
<text text-anchor="start" x="183.5" y="-521.6" font-family="Helvetica,sans-Serif" font-size="11.00" fill="#000000">ID</text>
<polygon fill="none" stroke="#000000" points="315.5,-514.5 315.5,-536.5 426.5,-536.5 426.5,-514.5 315.5,-514.5"/>
<text text-anchor="start" x="318.5" y="-522.2" font-family="Helvetica,sans-Serif" font-size="11.00" fill="#000000">int[10]</text>
<polygon fill="none" stroke="#000000" points="163.5,-492.5 163.5,-514.5 315.5,-514.5 315.5,-492.5 163.5,-492.5"/>
<text text-anchor="start" x="183.5" y="-499.6" font-family="Helvetica,sans-Serif" font-size="11.00" fill="#000000">WORKSPACE_ID</text>
<polygon fill="none" stroke="#000000" points="315.5,-492.5 315.5,-514.5 426.5,-514.5 426.5,-492.5 315.5,-492.5"/>
<text text-anchor="start" x="318.5" y="-500.2" font-family="Helvetica,sans-Serif" font-size="11.00" fill="#000000">int[10]</text>
<polygon fill="none" stroke="#000000" points="163.5,-470.5 163.5,-492.5 315.5,-492.5 315.5,-470.5 163.5,-470.5"/>
<text text-anchor="start" x="183.5" y="-477.6" font-family="Helvetica,sans-Serif" font-size="11.00" fill="#000000">JOB_NAME</text>
<polygon fill="none" stroke="#000000" points="315.5,-470.5 315.5,-492.5 426.5,-492.5 426.5,-470.5 315.5,-470.5"/>
<text text-anchor="start" x="318.5" y="-478.2" font-family="Helvetica,sans-Serif" font-size="11.00" fill="#000000">varchar[50]</text>
<polygon fill="none" stroke="#000000" points="163.5,-448.5 163.5,-470.5 315.5,-470.5 315.5,-448.5 163.5,-448.5"/>
<text text-anchor="start" x="183.5" y="-455.6" font-family="Helvetica,sans-Serif" font-size="11.00" fill="#000000">PROJECT</text>
<polygon fill="none" stroke="#000000" points="315.5,-448.5 315.5,-470.5 426.5,-470.5 426.5,-448.5 315.5,-448.5"/>
<text text-anchor="start" x="318.5" y="-456.2" font-family="Helvetica,sans-Serif" font-size="11.00" fill="#000000">varchar[50]</text>
<polygon fill="none" stroke="#000000" points="163.5,-426.5 163.5,-448.5 315.5,-448.5 315.5,-426.5 163.5,-426.5"/>
<text text-anchor="start" x="183.5" y="-433.6" font-family="Helvetica,sans-Serif" font-size="11.00" fill="#000000">START_DATE</text>
<polygon fill="none" stroke="#000000" points="315.5,-426.5 315.5,-448.5 426.5,-448.5 426.5,-426.5 315.5,-426.5"/>
<text text-anchor="start" x="318.5" y="-434.2" font-family="Helvetica,sans-Serif" font-size="11.00" fill="#000000">datetime[26]</text>
<polygon fill="none" stroke="#000000" points="163.5,-404.5 163.5,-426.5 315.5,-426.5 315.5,-404.5 163.5,-404.5"/>
<text text-anchor="start" x="183.5" y="-411.6" font-family="Helvetica,sans-Serif" font-size="11.00" fill="#000000">END_DATE</text>
<polygon fill="none" stroke="#000000" points="315.5,-404.5 315.5,-426.5 426.5,-426.5 426.5,-404.5 315.5,-404.5"/>
<text text-anchor="start" x="318.5" y="-412.2" font-family="Helvetica,sans-Serif" font-size="11.00" fill="#000000">datetime[26]</text>
<polygon fill="none" stroke="#000000" points="163.5,-382.5 163.5,-404.5 315.5,-404.5 315.5,-382.5 163.5,-382.5"/>
<text text-anchor="start" x="183.5" y="-389.6" font-family="Helvetica,sans-Serif" font-size="11.00" fill="#000000">hours</text>
<polygon fill="none" stroke="#000000" points="315.5,-382.5 315.5,-404.5 426.5,-404.5 426.5,-382.5 315.5,-382.5"/>
<text text-anchor="start" x="318.5" y="-390.2" font-family="Helvetica,sans-Serif" font-size="11.00" fill="#000000">double[22]</text>
<polygon fill="none" stroke="#000000" points="163.5,-360.5 163.5,-382.5 315.5,-382.5 315.5,-360.5 163.5,-360.5"/>
<text text-anchor="start" x="183.5" y="-367.6" font-family="Helvetica,sans-Serif" font-size="11.00" fill="#000000">RATE_PER_HOUR</text>
<polygon fill="none" stroke="#000000" points="315.5,-360.5 315.5,-382.5 426.5,-382.5 426.5,-360.5 315.5,-360.5"/>
<text text-anchor="start" x="318.5" y="-368.2" font-family="Helvetica,sans-Serif" font-size="11.00" fill="#000000">double[22]</text>
<polygon fill="none" stroke="#000000" points="163.5,-338.5 163.5,-360.5 315.5,-360.5 315.5,-338.5 163.5,-338.5"/>
<text text-anchor="start" x="183.5" y="-345.6" font-family="Helvetica,sans-Serif" font-size="11.00" fill="#000000">DESCRIPTION</text>
<polygon fill="none" stroke="#000000" points="315.5,-338.5 315.5,-360.5 426.5,-360.5 426.5,-338.5 315.5,-338.5"/>
<text text-anchor="start" x="318.1115" y="-346.2" font-family="Helvetica,sans-Serif" font-size="11.00" fill="#000000">longtext[2147483647]</text>
<polygon fill="none" stroke="#000000" points="163.5,-316.5 163.5,-338.5 315.5,-338.5 315.5,-316.5 163.5,-316.5"/>
<text text-anchor="start" x="183.5" y="-323.6" font-family="Helvetica,sans-Serif" font-size="11.00" fill="#000000">STATUS</text>
<polygon fill="none" stroke="#000000" points="315.5,-316.5 315.5,-338.5 426.5,-338.5 426.5,-316.5 315.5,-316.5"/>
<text text-anchor="start" x="318.5" y="-324.2" font-family="Helvetica,sans-Serif" font-size="11.00" fill="#000000">enum[11]</text>
<polygon fill="none" stroke="#000000" points="163.5,-294.5 163.5,-316.5 315.5,-316.5 315.5,-294.5 163.5,-294.5"/>
<text text-anchor="start" x="183.5" y="-301.6" font-family="Helvetica,sans-Serif" font-size="11.00" fill="#000000">REMINDER</text>
<polygon fill="none" stroke="#000000" points="315.5,-294.5 315.5,-316.5 426.5,-316.5 426.5,-294.5 315.5,-294.5"/>
<text text-anchor="start" x="318.5" y="-302.2" font-family="Helvetica,sans-Serif" font-size="11.00" fill="#000000">varchar[100]</text>
<polygon fill="none" stroke="#000000" points="163.5,-272.5 163.5,-294.5 315.5,-294.5 315.5,-272.5 163.5,-272.5"/>
<text text-anchor="start" x="183.5" y="-279.6" font-family="Helvetica,sans-Serif" font-size="11.00" fill="#000000">REMINDER_TIME</text>
<polygon fill="none" stroke="#000000" points="315.5,-272.5 315.5,-294.5 426.5,-294.5 426.5,-272.5 315.5,-272.5"/>
<text text-anchor="start" x="318.5" y="-280.2" font-family="Helvetica,sans-Serif" font-size="11.00" fill="#000000">datetime[26]</text>
<polygon fill="none" stroke="#000000" points="163.5,-250.5 163.5,-272.5 315.5,-272.5 315.5,-250.5 163.5,-250.5"/>
<text text-anchor="start" x="183.5" y="-257.6" font-family="Helvetica,sans-Serif" font-size="11.00" fill="#000000">BILLABLE_STATUS</text>
<polygon fill="none" stroke="#000000" points="315.5,-250.5 315.5,-272.5 426.5,-272.5 426.5,-250.5 315.5,-250.5"/>
<text text-anchor="start" x="318.5" y="-258.2" font-family="Helvetica,sans-Serif" font-size="11.00" fill="#000000">enum[3]</text>
<polygon fill="none" stroke="#000000" points="163.5,-228.5 163.5,-250.5 315.5,-250.5 315.5,-228.5 163.5,-228.5"/>
<text text-anchor="start" x="183.5" y="-235.6" font-family="Helvetica,sans-Serif" font-size="11.00" fill="#000000">APPROVAL_STATUS</text>
<polygon fill="none" stroke="#000000" points="315.5,-228.5 315.5,-250.5 426.5,-250.5 426.5,-228.5 315.5,-228.5"/>
<text text-anchor="start" x="318.5" y="-236.2" font-family="Helvetica,sans-Serif" font-size="11.00" fill="#000000">enum[12]</text>
<polygon fill="none" stroke="#000000" points="163.5,-206.5 163.5,-228.5 315.5,-228.5 315.5,-206.5 163.5,-206.5"/>
<text text-anchor="start" x="183.5" y="-213.6" font-family="Helvetica,sans-Serif" font-size="11.00" fill="#000000">CREATED_TIME</text>
<polygon fill="none" stroke="#000000" points="315.5,-206.5 315.5,-228.5 426.5,-228.5 426.5,-206.5 315.5,-206.5"/>
<text text-anchor="start" x="318.5" y="-214.2" font-family="Helvetica,sans-Serif" font-size="11.00" fill="#000000">datetime[26]</text>
<polygon fill="none" stroke="#000000" points="163.5,-184.5 163.5,-206.5 315.5,-206.5 315.5,-184.5 163.5,-184.5"/>
<text text-anchor="start" x="183.5" y="-191.6" font-family="Helvetica,sans-Serif" font-size="11.00" fill="#000000">MODIFIED_TIME</text>
<polygon fill="none" stroke="#000000" points="315.5,-184.5 315.5,-206.5 426.5,-206.5 426.5,-184.5 315.5,-184.5"/>
<text text-anchor="start" x="318.5" y="-192.2" font-family="Helvetica,sans-Serif" font-size="11.00" fill="#000000">datetime[26]</text>
<polygon fill="#ffffff" stroke="transparent" points="163.5,-162.5 163.5,-184.5 315.5,-184.5 315.5,-162.5 163.5,-162.5"/>
<polygon fill="none" stroke="#000000" points="163.5,-162.5 163.5,-184.5 315.5,-184.5 315.5,-162.5 163.5,-162.5"/>
<image xlink:href="../../images/foreignKeys.png" width="11px" height="12px" preserveAspectRatio="xMinYMin meet" x="168.5" y="-179.5"/>
<text text-anchor="start" x="183.5" y="-169.6" font-family="Helvetica,sans-Serif" font-size="11.00" fill="#000000">CREATOR</text>
<polygon fill="none" stroke="#000000" points="315.5,-162.5 315.5,-184.5 426.5,-184.5 426.5,-162.5 315.5,-162.5"/>
<text text-anchor="start" x="318.5" y="-170.2" font-family="Helvetica,sans-Serif" font-size="11.00" fill="#000000">int[10]</text>
<polygon fill="#ffffff" stroke="transparent" points="163.5,-140.5 163.5,-162.5 315.5,-162.5 315.5,-140.5 163.5,-140.5"/>
<polygon fill="none" stroke="#000000" points="163.5,-140.5 163.5,-162.5 315.5,-162.5 315.5,-140.5 163.5,-140.5"/>
<image xlink:href="../../images/foreignKeys.png" width="11px" height="12px" preserveAspectRatio="xMinYMin meet" x="168.5" y="-157.5"/>
<text text-anchor="start" x="183.5" y="-147.6" font-family="Helvetica,sans-Serif" font-size="11.00" fill="#000000">LAST_MODIFIER</text>
<polygon fill="none" stroke="#000000" points="315.5,-140.5 315.5,-162.5 426.5,-162.5 426.5,-140.5 315.5,-140.5"/>
<text text-anchor="start" x="318.5" y="-148.2" font-family="Helvetica,sans-Serif" font-size="11.00" fill="#000000">int[10]</text>
<polygon fill="#ffffff" stroke="transparent" points="163.5,-121.5 163.5,-140.5 230.5,-140.5 230.5,-121.5 163.5,-121.5"/>
<polygon fill="none" stroke="#000000" points="163.5,-121.5 163.5,-140.5 230.5,-140.5 230.5,-121.5 163.5,-121.5"/>
<text text-anchor="start" x="166.5" y="-127.6" font-family="Helvetica,sans-Serif" font-size="11.00" fill="#000000">&lt; 2</text>
<polygon fill="#ffffff" stroke="transparent" points="230.5,-121.5 230.5,-140.5 315.5,-140.5 315.5,-121.5 230.5,-121.5"/>
<polygon fill="none" stroke="#000000" points="230.5,-121.5 230.5,-140.5 315.5,-140.5 315.5,-121.5 230.5,-121.5"/>
<text text-anchor="start" x="280.1105" y="-127.6" font-family="Helvetica,sans-Serif" font-size="11.00" fill="#000000">0 rows</text>
<polygon fill="#ffffff" stroke="transparent" points="315.5,-121.5 315.5,-140.5 426.5,-140.5 426.5,-121.5 315.5,-121.5"/>
<polygon fill="none" stroke="#000000" points="315.5,-121.5 315.5,-140.5 426.5,-140.5 426.5,-121.5 315.5,-121.5"/>
<text text-anchor="start" x="407.9053" y="-127.6" font-family="Helvetica,sans-Serif" font-size="11.00" fill="#000000">1 &gt;</text>
<polygon fill="none" stroke="#000000" stroke-width="2" points="162,-120.5 162,-560.5 427,-560.5 427,-120.5 162,-120.5"/>
</a>
</g>
</g>
<!-- User -->
<g id="node2" class="node">
<title>User</title>
<g id="a_node2"><a xlink:href="../../tables/User.html" xlink:title="User" target="_top">
<polygon fill="#ffffff" stroke="transparent" points="8,-75 8,-158 112,-158 112,-75 8,-75"/>
<polygon fill="#f5f5f5" stroke="transparent" points="8,-134.5 8,-157.5 112,-157.5 112,-134.5 8,-134.5"/>
<polygon fill="none" stroke="#000000" points="8,-134.5 8,-157.5 112,-157.5 112,-134.5 8,-134.5"/>
<text text-anchor="start" x="13" y="-143.1" font-family="Helvetica,sans-Serif" font-weight="bold" font-size="11.00" fill="#000000">User</text>
<text text-anchor="start" x="77.0437" y="-142.6" font-family="Helvetica,sans-Serif" font-size="11.00" fill="#000000">[table]</text>
<polygon fill="none" stroke="#000000" points="8,-112.5 8,-134.5 112,-134.5 112,-112.5 8,-112.5"/>
<image xlink:href="../../images/primaryKeys.png" width="11px" height="12px" preserveAspectRatio="xMinYMin meet" x="13" y="-129.5"/>
<text text-anchor="start" x="28" y="-119.6" font-family="Helvetica,sans-Serif" font-size="11.00" fill="#000000">userid_pk</text>
<polygon fill="none" stroke="#000000" points="8,-93.5 8,-112.5 112,-112.5 112,-93.5 8,-93.5"/>
<text text-anchor="start" x="11" y="-99.6" font-family="Helvetica,sans-Serif" font-size="11.00" fill="#000000">...</text>
<polygon fill="#ffffff" stroke="transparent" points="8,-74.5 8,-93.5 30,-93.5 30,-74.5 8,-74.5"/>
<polygon fill="none" stroke="#000000" points="8,-74.5 8,-93.5 30,-93.5 30,-74.5 8,-74.5"/>
<text text-anchor="start" x="11" y="-80.6" font-family="Helvetica,sans-Serif" font-size="11.00" fill="#000000"> &#160;</text>
<polygon fill="#ffffff" stroke="transparent" points="30,-74.5 30,-93.5 73,-93.5 73,-74.5 30,-74.5"/>
<polygon fill="none" stroke="#000000" points="30,-74.5 30,-93.5 73,-93.5 73,-74.5 30,-74.5"/>
<text text-anchor="start" x="37.6105" y="-80.6" font-family="Helvetica,sans-Serif" font-size="11.00" fill="#000000">0 rows</text>
<polygon fill="#ffffff" stroke="transparent" points="73,-74.5 73,-93.5 112,-93.5 112,-74.5 73,-74.5"/>
<polygon fill="none" stroke="#000000" points="73,-74.5 73,-93.5 112,-93.5 112,-74.5 73,-74.5"/>
<text text-anchor="start" x="81.1755" y="-80.6" font-family="Helvetica,sans-Serif" font-size="11.00" fill="#000000">102 &gt;</text>
</a>
</g>
</g>
<!-- JOBS&#45;&gt;User -->
<g id="edge1" class="edge">
<title>JOBS:w&#45;&gt;User:e</title>
<path fill="none" stroke="#000000" d="M149.6347,-168.8857C134.6579,-156.5078 137.9203,-123.5 112,-123.5"/>
<polygon fill="#000000" stroke="#000000" points="155.9093,-170.9738 162.3632,-176.9158 159.7046,-172.2369 163.5,-173.5 163.5,-173.5 163.5,-173.5 159.7046,-172.2369 164.6368,-170.0842 155.9093,-170.9738 155.9093,-170.9738"/>
<ellipse fill="none" stroke="#000000" cx="152.873" cy="-169.9634" rx="3.2" ry="3.2"/>
</g>
<!-- JOBS&#45;&gt;User -->
<g id="edge2" class="edge">
<title>JOBS:w&#45;&gt;User:e</title>
<path fill="none" stroke="#000000" d="M149.2773,-147.8395C136.3531,-140.2498 132.1505,-123.5 112,-123.5"/>
<polygon fill="#000000" stroke="#000000" points="155.7525,-149.506 162.6027,-154.9864 159.6262,-150.503 163.5,-151.5 163.5,-151.5 163.5,-151.5 159.6262,-150.503 164.3973,-148.0136 155.7525,-149.506 155.7525,-149.506"/>
<ellipse fill="none" stroke="#000000" cx="152.6535" cy="-148.7084" rx="3.2" ry="3.2"/>
</g>
<!-- TIME_LOGS -->
<g id="node3" class="node">
<title>TIME_LOGS</title>
<g id="a_node3"><a xlink:href="../../tables/TIME_LOGS.html" xlink:title="TIME_LOGS" target="_top">
<polygon fill="#ffffff" stroke="transparent" points="477,-25 477,-196 619,-196 619,-25 477,-25"/>
<polygon fill="#f5f5f5" stroke="transparent" points="477,-172.5 477,-195.5 619,-195.5 619,-172.5 477,-172.5"/>
<polygon fill="none" stroke="#000000" points="477,-172.5 477,-195.5 619,-195.5 619,-172.5 477,-172.5"/>
<text text-anchor="start" x="482" y="-181.1" font-family="Helvetica,sans-Serif" font-weight="bold" font-size="11.00" fill="#000000">TIME_LOGS</text>
<text text-anchor="start" x="584.0437" y="-180.6" font-family="Helvetica,sans-Serif" font-size="11.00" fill="#000000">[table]</text>
<polygon fill="none" stroke="#000000" points="477,-150.5 477,-172.5 619,-172.5 619,-150.5 477,-150.5"/>
<image xlink:href="../../images/primaryKeys.png" width="11px" height="12px" preserveAspectRatio="xMinYMin meet" x="482" y="-167.5"/>
<text text-anchor="start" x="497" y="-157.6" font-family="Helvetica,sans-Serif" font-size="11.00" fill="#000000">ID</text>
<polygon fill="#ffffff" stroke="transparent" points="477,-128.5 477,-150.5 619,-150.5 619,-128.5 477,-128.5"/>
<polygon fill="none" stroke="#000000" points="477,-128.5 477,-150.5 619,-150.5 619,-128.5 477,-128.5"/>
<image xlink:href="../../images/foreignKeys.png" width="11px" height="12px" preserveAspectRatio="xMinYMin meet" x="482" y="-145.5"/>
<text text-anchor="start" x="497" y="-135.6" font-family="Helvetica,sans-Serif" font-size="11.00" fill="#000000">PROJECT</text>
<polygon fill="#ffffff" stroke="transparent" points="477,-106.5 477,-128.5 619,-128.5 619,-106.5 477,-106.5"/>
<polygon fill="none" stroke="#000000" points="477,-106.5 477,-128.5 619,-128.5 619,-106.5 477,-106.5"/>
<image xlink:href="../../images/foreignKeys.png" width="11px" height="12px" preserveAspectRatio="xMinYMin meet" x="482" y="-123.5"/>
<text text-anchor="start" x="497" y="-113.6" font-family="Helvetica,sans-Serif" font-size="11.00" fill="#000000">JOB_ID</text>
<polygon fill="#ffffff" stroke="transparent" points="477,-84.5 477,-106.5 619,-106.5 619,-84.5 477,-84.5"/>
<polygon fill="none" stroke="#000000" points="477,-84.5 477,-106.5 619,-106.5 619,-84.5 477,-84.5"/>
<image xlink:href="../../images/foreignKeys.png" width="11px" height="12px" preserveAspectRatio="xMinYMin meet" x="482" y="-101.5"/>
<text text-anchor="start" x="497" y="-91.6" font-family="Helvetica,sans-Serif" font-size="11.00" fill="#000000">CREATOR</text>
<polygon fill="#ffffff" stroke="transparent" points="477,-62.5 477,-84.5 619,-84.5 619,-62.5 477,-62.5"/>
<polygon fill="none" stroke="#000000" points="477,-62.5 477,-84.5 619,-84.5 619,-62.5 477,-62.5"/>
<image xlink:href="../../images/foreignKeys.png" width="11px" height="12px" preserveAspectRatio="xMinYMin meet" x="482" y="-79.5"/>
<text text-anchor="start" x="497" y="-69.6" font-family="Helvetica,sans-Serif" font-size="11.00" fill="#000000">LAST_MODIFIER</text>
<polygon fill="none" stroke="#000000" points="477,-43.5 477,-62.5 619,-62.5 619,-43.5 477,-43.5"/>
<text text-anchor="start" x="480" y="-49.6" font-family="Helvetica,sans-Serif" font-size="11.00" fill="#000000">...</text>
<polygon fill="#ffffff" stroke="transparent" points="477,-24.5 477,-43.5 533,-43.5 533,-24.5 477,-24.5"/>
<polygon fill="none" stroke="#000000" points="477,-24.5 477,-43.5 533,-43.5 533,-24.5 477,-24.5"/>
<text text-anchor="start" x="480" y="-30.6" font-family="Helvetica,sans-Serif" font-size="11.00" fill="#000000">&lt; 4</text>
<polygon fill="#ffffff" stroke="transparent" points="533,-24.5 533,-43.5 589,-43.5 589,-24.5 533,-24.5"/>
<polygon fill="none" stroke="#000000" points="533,-24.5 533,-43.5 589,-43.5 589,-24.5 533,-24.5"/>
<text text-anchor="start" x="553.6105" y="-30.6" font-family="Helvetica,sans-Serif" font-size="11.00" fill="#000000">0 rows</text>
<polygon fill="#ffffff" stroke="transparent" points="589,-24.5 589,-43.5 619,-43.5 619,-24.5 589,-24.5"/>
<polygon fill="none" stroke="#000000" points="589,-24.5 589,-43.5 619,-43.5 619,-24.5 589,-24.5"/>
<text text-anchor="start" x="609.8862" y="-30.6" font-family="Helvetica,sans-Serif" font-size="11.00" fill="#000000"> &#160;</text>
</a>
</g>
</g>
<!-- TIME_LOGS&#45;&gt;JOBS -->
<g id="edge4" class="edge">
<title>TIME_LOGS:w&#45;&gt;JOBS:e</title>
<path fill="none" stroke="#000000" d="M463.1537,-121.5381C400.3681,-163.9117 512.5055,-525.5 426.5,-525.5"/>
<polygon fill="#000000" stroke="#000000" points="469.3199,-119.7398 478.0079,-120.956 473.16,-118.6199 477,-117.5 477,-117.5 477,-117.5 473.16,-118.6199 475.9921,-114.044 469.3199,-119.7398 469.3199,-119.7398"/>
<ellipse fill="none" stroke="#000000" cx="466.2479" cy="-120.6358" rx="3.2" ry="3.2"/>
</g>
<!-- TIME_LOGS&#45;&gt;User -->
<g id="edge3" class="edge">
<title>TIME_LOGS:w&#45;&gt;User:e</title>
<path fill="none" stroke="#000000" d="M462.5834,-95.4577C330.1321,-94.6798 289.8038,-83.7405 153,-109.5 134.0773,-113.0631 131.2553,-123.5 112,-123.5"/>
<polygon fill="#000000" stroke="#000000" points="469,-95.4765 476.9894,-99.1 473,-95.4882 477,-95.5 477,-95.5 477,-95.5 473,-95.4882 477.0106,-91.9 469,-95.4765 469,-95.4765"/>
<ellipse fill="none" stroke="#000000" cx="465.8" cy="-95.467" rx="3.2" ry="3.2"/>
</g>
<!-- TIME_LOGS&#45;&gt;User -->
<g id="edge5" class="edge">
<title>TIME_LOGS:w&#45;&gt;User:e</title>
<path fill="none" stroke="#000000" d="M462.5549,-73.3779C329.6137,-71.1254 282.7821,-39.0371 153,-89.5 130.9365,-98.0789 135.6727,-123.5 112,-123.5"/>
<polygon fill="#000000" stroke="#000000" points="469.0003,-73.4323 476.9696,-77.0999 473.0001,-73.4662 477,-73.5 477,-73.5 477,-73.5 473.0001,-73.4662 477.0304,-69.9001 469.0003,-73.4323 469.0003,-73.4323"/>
<ellipse fill="none" stroke="#000000" cx="465.8004" cy="-73.4053" rx="3.2" ry="3.2"/>
</g>
</g>
</svg>
