<?xml version="1.0" encoding="UTF-8" standalone="no"?>
<!DOCTYPE svg PUBLIC "-//W3C//DTD SVG 1.1//EN"
 "http://www.w3.org/Graphics/SVG/1.1/DTD/svg11.dtd">
<!-- Generated by graphviz version 2.40.1 (20161225.0304)
 -->
<!-- Title: oneDegreeRelationshipsDiagram Pages: 1 -->
<svg width="427pt" height="507pt"
 viewBox="0.00 0.00 427.00 506.50" xmlns="http://www.w3.org/2000/svg" xmlns:xlink="http://www.w3.org/1999/xlink">
<g id="graph0" class="graph" transform="scale(1 1) rotate(0) translate(4 502.5)">
<title>oneDegreeRelationshipsDiagram</title>
<polygon fill="#ffffff" stroke="transparent" points="-4,4 -4,-502.5 423,-502.5 423,4 -4,4"/>
<!-- LEAVE_ENTITLEMENT -->
<g id="node1" class="node">
<title>LEAVE_ENTITLEMENT</title>
<g id="a_node1"><a xlink:href="../../tables/LEAVE_ENTITLEMENT.html" xlink:title="LEAVE_ENTITLEMENT" target="_top">
<polygon fill="#ffffff" stroke="transparent" points="161,-30.5 161,-494.5 411,-494.5 411,-30.5 161,-30.5"/>
<polygon fill="#f5f5f5" stroke="transparent" points="163,-469.5 163,-492.5 409,-492.5 409,-469.5 163,-469.5"/>
<polygon fill="none" stroke="#000000" points="163,-469.5 163,-492.5 409,-492.5 409,-469.5 163,-469.5"/>
<text text-anchor="start" x="168" y="-478.1" font-family="Helvetica,sans-Serif" font-weight="bold" font-size="11.00" fill="#000000">LEAVE_ENTITLEMENT</text>
<text text-anchor="start" x="374.0437" y="-477.6" font-family="Helvetica,sans-Serif" font-size="11.00" fill="#000000">[table]</text>
<polygon fill="none" stroke="#000000" points="163,-447.5 163,-469.5 343,-469.5 343,-447.5 163,-447.5"/>
<image xlink:href="../../images/primaryKeys.png" width="11px" height="12px" preserveAspectRatio="xMinYMin meet" x="168" y="-464.5"/>
<text text-anchor="start" x="183" y="-454.6" font-family="Helvetica,sans-Serif" font-size="11.00" fill="#000000">ID</text>
<polygon fill="none" stroke="#000000" points="343,-447.5 343,-469.5 409,-469.5 409,-447.5 343,-447.5"/>
<text text-anchor="start" x="346" y="-455.2" font-family="Helvetica,sans-Serif" font-size="11.00" fill="#000000">int[10]</text>
<polygon fill="none" stroke="#000000" points="163,-425.5 163,-447.5 343,-447.5 343,-425.5 163,-425.5"/>
<text text-anchor="start" x="183" y="-432.6" font-family="Helvetica,sans-Serif" font-size="11.00" fill="#000000">WORKSPACE_ID</text>
<polygon fill="none" stroke="#000000" points="343,-425.5 343,-447.5 409,-447.5 409,-425.5 343,-425.5"/>
<text text-anchor="start" x="346" y="-433.2" font-family="Helvetica,sans-Serif" font-size="11.00" fill="#000000">int[10]</text>
<polygon fill="none" stroke="#000000" points="163,-403.5 163,-425.5 343,-425.5 343,-403.5 163,-403.5"/>
<text text-anchor="start" x="183" y="-410.6" font-family="Helvetica,sans-Serif" font-size="11.00" fill="#000000">DATE_OF_JOINING</text>
<polygon fill="none" stroke="#000000" points="343,-403.5 343,-425.5 409,-425.5 409,-403.5 343,-403.5"/>
<text text-anchor="start" x="345.7401" y="-411.2" font-family="Helvetica,sans-Serif" font-size="11.00" fill="#000000">datetime[26]</text>
<polygon fill="none" stroke="#000000" points="163,-381.5 163,-403.5 343,-403.5 343,-381.5 163,-381.5"/>
<text text-anchor="start" x="183" y="-388.6" font-family="Helvetica,sans-Serif" font-size="11.00" fill="#000000">ACTUAL</text>
<polygon fill="none" stroke="#000000" points="343,-381.5 343,-403.5 409,-403.5 409,-381.5 343,-381.5"/>
<text text-anchor="start" x="346" y="-389.2" font-family="Helvetica,sans-Serif" font-size="11.00" fill="#000000">enum[8]</text>
<polygon fill="none" stroke="#000000" points="163,-359.5 163,-381.5 343,-381.5 343,-359.5 163,-359.5"/>
<text text-anchor="start" x="183" y="-366.6" font-family="Helvetica,sans-Serif" font-size="11.00" fill="#000000">ACTUAL_YEAR</text>
<polygon fill="none" stroke="#000000" points="343,-359.5 343,-381.5 409,-381.5 409,-359.5 343,-359.5"/>
<text text-anchor="start" x="346" y="-367.2" font-family="Helvetica,sans-Serif" font-size="11.00" fill="#000000">varchar[50]</text>
<polygon fill="none" stroke="#000000" points="163,-337.5 163,-359.5 343,-359.5 343,-337.5 163,-337.5"/>
<text text-anchor="start" x="183" y="-344.6" font-family="Helvetica,sans-Serif" font-size="11.00" fill="#000000">ACTUAL_ON</text>
<polygon fill="none" stroke="#000000" points="343,-337.5 343,-359.5 409,-359.5 409,-337.5 343,-337.5"/>
<text text-anchor="start" x="346" y="-345.2" font-family="Helvetica,sans-Serif" font-size="11.00" fill="#000000">enum[19]</text>
<polygon fill="none" stroke="#000000" points="163,-315.5 163,-337.5 343,-337.5 343,-315.5 163,-315.5"/>
<text text-anchor="start" x="183" y="-322.6" font-family="Helvetica,sans-Serif" font-size="11.00" fill="#000000">ACTUAL_NO_OF_DAYS</text>
<polygon fill="none" stroke="#000000" points="343,-315.5 343,-337.5 409,-337.5 409,-315.5 343,-315.5"/>
<text text-anchor="start" x="346" y="-323.2" font-family="Helvetica,sans-Serif" font-size="11.00" fill="#000000">int[10]</text>
<polygon fill="none" stroke="#000000" points="163,-293.5 163,-315.5 343,-315.5 343,-293.5 163,-293.5"/>
<text text-anchor="start" x="183" y="-300.6" font-family="Helvetica,sans-Serif" font-size="11.00" fill="#000000">RESET</text>
<polygon fill="none" stroke="#000000" points="343,-293.5 343,-315.5 409,-315.5 409,-293.5 343,-293.5"/>
<text text-anchor="start" x="346" y="-301.2" font-family="Helvetica,sans-Serif" font-size="11.00" fill="#000000">enum[8]</text>
<polygon fill="none" stroke="#000000" points="163,-271.5 163,-293.5 343,-293.5 343,-271.5 163,-271.5"/>
<text text-anchor="start" x="183" y="-278.6" font-family="Helvetica,sans-Serif" font-size="11.00" fill="#000000">RESET_YEAR</text>
<polygon fill="none" stroke="#000000" points="343,-271.5 343,-293.5 409,-293.5 409,-271.5 343,-271.5"/>
<text text-anchor="start" x="346" y="-279.2" font-family="Helvetica,sans-Serif" font-size="11.00" fill="#000000">varchar[50]</text>
<polygon fill="none" stroke="#000000" points="163,-249.5 163,-271.5 343,-271.5 343,-249.5 163,-249.5"/>
<text text-anchor="start" x="183" y="-256.6" font-family="Helvetica,sans-Serif" font-size="11.00" fill="#000000">RESET_ON</text>
<polygon fill="none" stroke="#000000" points="343,-249.5 343,-271.5 409,-271.5 409,-249.5 343,-249.5"/>
<text text-anchor="start" x="346" y="-257.2" font-family="Helvetica,sans-Serif" font-size="11.00" fill="#000000">enum[19]</text>
<polygon fill="none" stroke="#000000" points="163,-227.5 163,-249.5 343,-249.5 343,-227.5 163,-227.5"/>
<text text-anchor="start" x="183" y="-234.6" font-family="Helvetica,sans-Serif" font-size="11.00" fill="#000000">CARRY_FORWARD</text>
<polygon fill="none" stroke="#000000" points="343,-227.5 343,-249.5 409,-249.5 409,-227.5 343,-227.5"/>
<text text-anchor="start" x="346" y="-235.2" font-family="Helvetica,sans-Serif" font-size="11.00" fill="#000000">int[10]</text>
<polygon fill="none" stroke="#000000" points="163,-205.5 163,-227.5 343,-227.5 343,-205.5 163,-205.5"/>
<text text-anchor="start" x="183" y="-212.6" font-family="Helvetica,sans-Serif" font-size="11.00" fill="#000000">ENCASHMENT</text>
<polygon fill="none" stroke="#000000" points="343,-205.5 343,-227.5 409,-227.5 409,-205.5 343,-205.5"/>
<text text-anchor="start" x="346" y="-213.2" font-family="Helvetica,sans-Serif" font-size="11.00" fill="#000000">int[10]</text>
<polygon fill="none" stroke="#000000" points="163,-183.5 163,-205.5 343,-205.5 343,-183.5 163,-183.5"/>
<text text-anchor="start" x="183" y="-190.6" font-family="Helvetica,sans-Serif" font-size="11.00" fill="#000000">OPENING_BALANCE</text>
<polygon fill="none" stroke="#000000" points="343,-183.5 343,-205.5 409,-205.5 409,-183.5 343,-183.5"/>
<text text-anchor="start" x="346" y="-191.2" font-family="Helvetica,sans-Serif" font-size="11.00" fill="#000000">int[10]</text>
<polygon fill="none" stroke="#000000" points="163,-161.5 163,-183.5 343,-183.5 343,-161.5 163,-161.5"/>
<text text-anchor="start" x="183" y="-168.6" font-family="Helvetica,sans-Serif" font-size="11.00" fill="#000000">MAXIMUM_BALANCE</text>
<polygon fill="none" stroke="#000000" points="343,-161.5 343,-183.5 409,-183.5 409,-161.5 343,-161.5"/>
<text text-anchor="start" x="346" y="-169.2" font-family="Helvetica,sans-Serif" font-size="11.00" fill="#000000">int[10]</text>
<polygon fill="none" stroke="#000000" points="163,-139.5 163,-161.5 343,-161.5 343,-139.5 163,-139.5"/>
<text text-anchor="start" x="183" y="-146.6" font-family="Helvetica,sans-Serif" font-size="11.00" fill="#000000">DEDUCTIBLE_HOLIDAYS</text>
<polygon fill="none" stroke="#000000" points="343,-139.5 343,-161.5 409,-161.5 409,-139.5 343,-139.5"/>
<text text-anchor="start" x="346" y="-147.2" font-family="Helvetica,sans-Serif" font-size="11.00" fill="#000000">bit[1]</text>
<polygon fill="none" stroke="#000000" points="163,-117.5 163,-139.5 343,-139.5 343,-117.5 163,-117.5"/>
<text text-anchor="start" x="183" y="-124.6" font-family="Helvetica,sans-Serif" font-size="11.00" fill="#000000">CREATED_TIME</text>
<polygon fill="none" stroke="#000000" points="343,-117.5 343,-139.5 409,-139.5 409,-117.5 343,-117.5"/>
<text text-anchor="start" x="345.7401" y="-125.2" font-family="Helvetica,sans-Serif" font-size="11.00" fill="#000000">datetime[26]</text>
<polygon fill="none" stroke="#000000" points="163,-95.5 163,-117.5 343,-117.5 343,-95.5 163,-95.5"/>
<text text-anchor="start" x="183" y="-102.6" font-family="Helvetica,sans-Serif" font-size="11.00" fill="#000000">MODIFIED_TIME</text>
<polygon fill="none" stroke="#000000" points="343,-95.5 343,-117.5 409,-117.5 409,-95.5 343,-95.5"/>
<text text-anchor="start" x="345.7401" y="-103.2" font-family="Helvetica,sans-Serif" font-size="11.00" fill="#000000">datetime[26]</text>
<polygon fill="#ffffff" stroke="transparent" points="163,-73.5 163,-95.5 343,-95.5 343,-73.5 163,-73.5"/>
<polygon fill="none" stroke="#000000" points="163,-73.5 163,-95.5 343,-95.5 343,-73.5 163,-73.5"/>
<image xlink:href="../../images/foreignKeys.png" width="11px" height="12px" preserveAspectRatio="xMinYMin meet" x="168" y="-90.5"/>
<text text-anchor="start" x="183" y="-80.6" font-family="Helvetica,sans-Serif" font-size="11.00" fill="#000000">CREATOR</text>
<polygon fill="none" stroke="#000000" points="343,-73.5 343,-95.5 409,-95.5 409,-73.5 343,-73.5"/>
<text text-anchor="start" x="346" y="-81.2" font-family="Helvetica,sans-Serif" font-size="11.00" fill="#000000">int[10]</text>
<polygon fill="#ffffff" stroke="transparent" points="163,-51.5 163,-73.5 343,-73.5 343,-51.5 163,-51.5"/>
<polygon fill="none" stroke="#000000" points="163,-51.5 163,-73.5 343,-73.5 343,-51.5 163,-51.5"/>
<image xlink:href="../../images/foreignKeys.png" width="11px" height="12px" preserveAspectRatio="xMinYMin meet" x="168" y="-68.5"/>
<text text-anchor="start" x="183" y="-58.6" font-family="Helvetica,sans-Serif" font-size="11.00" fill="#000000">LAST_MODIFIER</text>
<polygon fill="none" stroke="#000000" points="343,-51.5 343,-73.5 409,-73.5 409,-51.5 343,-51.5"/>
<text text-anchor="start" x="346" y="-59.2" font-family="Helvetica,sans-Serif" font-size="11.00" fill="#000000">int[10]</text>
<polygon fill="#ffffff" stroke="transparent" points="163,-32.5 163,-51.5 244,-51.5 244,-32.5 163,-32.5"/>
<polygon fill="none" stroke="#000000" points="163,-32.5 163,-51.5 244,-51.5 244,-32.5 163,-32.5"/>
<text text-anchor="start" x="166" y="-38.6" font-family="Helvetica,sans-Serif" font-size="11.00" fill="#000000">&lt; 2</text>
<polygon fill="#ffffff" stroke="transparent" points="244,-32.5 244,-51.5 343,-51.5 343,-32.5 244,-32.5"/>
<polygon fill="none" stroke="#000000" points="244,-32.5 244,-51.5 343,-51.5 343,-32.5 244,-32.5"/>
<text text-anchor="start" x="307.6105" y="-38.6" font-family="Helvetica,sans-Serif" font-size="11.00" fill="#000000">0 rows</text>
<polygon fill="#ffffff" stroke="transparent" points="343,-32.5 343,-51.5 409,-51.5 409,-32.5 343,-32.5"/>
<polygon fill="none" stroke="#000000" points="343,-32.5 343,-51.5 409,-51.5 409,-32.5 343,-32.5"/>
<text text-anchor="start" x="390.4053" y="-38.6" font-family="Helvetica,sans-Serif" font-size="11.00" fill="#000000">0 &gt;</text>
<polygon fill="none" stroke="#000000" stroke-width="2" points="162,-31.5 162,-493.5 410,-493.5 410,-31.5 162,-31.5"/>
</a>
</g>
</g>
<!-- User -->
<g id="node2" class="node">
<title>User</title>
<g id="a_node2"><a xlink:href="../../tables/User.html" xlink:title="User" target="_top">
<polygon fill="#ffffff" stroke="transparent" points="8,-25 8,-108 112,-108 112,-25 8,-25"/>
<polygon fill="#f5f5f5" stroke="transparent" points="8,-84.5 8,-107.5 112,-107.5 112,-84.5 8,-84.5"/>
<polygon fill="none" stroke="#000000" points="8,-84.5 8,-107.5 112,-107.5 112,-84.5 8,-84.5"/>
<text text-anchor="start" x="13" y="-93.1" font-family="Helvetica,sans-Serif" font-weight="bold" font-size="11.00" fill="#000000">User</text>
<text text-anchor="start" x="77.0437" y="-92.6" font-family="Helvetica,sans-Serif" font-size="11.00" fill="#000000">[table]</text>
<polygon fill="none" stroke="#000000" points="8,-62.5 8,-84.5 112,-84.5 112,-62.5 8,-62.5"/>
<image xlink:href="../../images/primaryKeys.png" width="11px" height="12px" preserveAspectRatio="xMinYMin meet" x="13" y="-79.5"/>
<text text-anchor="start" x="28" y="-69.6" font-family="Helvetica,sans-Serif" font-size="11.00" fill="#000000">userid_pk</text>
<polygon fill="none" stroke="#000000" points="8,-43.5 8,-62.5 112,-62.5 112,-43.5 8,-43.5"/>
<text text-anchor="start" x="11" y="-49.6" font-family="Helvetica,sans-Serif" font-size="11.00" fill="#000000">...</text>
<polygon fill="#ffffff" stroke="transparent" points="8,-24.5 8,-43.5 30,-43.5 30,-24.5 8,-24.5"/>
<polygon fill="none" stroke="#000000" points="8,-24.5 8,-43.5 30,-43.5 30,-24.5 8,-24.5"/>
<text text-anchor="start" x="11" y="-30.6" font-family="Helvetica,sans-Serif" font-size="11.00" fill="#000000"> &#160;</text>
<polygon fill="#ffffff" stroke="transparent" points="30,-24.5 30,-43.5 73,-43.5 73,-24.5 30,-24.5"/>
<polygon fill="none" stroke="#000000" points="30,-24.5 30,-43.5 73,-43.5 73,-24.5 30,-24.5"/>
<text text-anchor="start" x="37.6105" y="-30.6" font-family="Helvetica,sans-Serif" font-size="11.00" fill="#000000">0 rows</text>
<polygon fill="#ffffff" stroke="transparent" points="73,-24.5 73,-43.5 112,-43.5 112,-24.5 73,-24.5"/>
<polygon fill="none" stroke="#000000" points="73,-24.5 73,-43.5 112,-43.5 112,-24.5 73,-24.5"/>
<text text-anchor="start" x="81.1755" y="-30.6" font-family="Helvetica,sans-Serif" font-size="11.00" fill="#000000">102 &gt;</text>
</a>
</g>
</g>
<!-- LEAVE_ENTITLEMENT&#45;&gt;User -->
<g id="edge1" class="edge">
<title>LEAVE_ENTITLEMENT:w&#45;&gt;User:e</title>
<path fill="none" stroke="#000000" d="M148.5097,-82.7813C136.3398,-79.6875 129.3909,-73.5 112,-73.5"/>
<polygon fill="#000000" stroke="#000000" points="155.0557,-83.5576 162.5759,-88.0749 159.0278,-84.0288 163,-84.5 163,-84.5 163,-84.5 159.0278,-84.0288 163.4241,-80.9251 155.0557,-83.5576 155.0557,-83.5576"/>
<ellipse fill="none" stroke="#000000" cx="151.878" cy="-83.1807" rx="3.2" ry="3.2"/>
</g>
<!-- LEAVE_ENTITLEMENT&#45;&gt;User -->
<g id="edge2" class="edge">
<title>LEAVE_ENTITLEMENT:w&#45;&gt;User:e</title>
<path fill="none" stroke="#000000" d="M148.5097,-64.2188C136.3398,-67.3125 129.3909,-73.5 112,-73.5"/>
<polygon fill="#000000" stroke="#000000" points="155.0557,-63.4424 163.4241,-66.0749 159.0278,-62.9712 163,-62.5 163,-62.5 163,-62.5 159.0278,-62.9712 162.5759,-58.9251 155.0557,-63.4424 155.0557,-63.4424"/>
<ellipse fill="none" stroke="#000000" cx="151.878" cy="-63.8193" rx="3.2" ry="3.2"/>
</g>
</g>
</svg>
