<?xml version="1.0" encoding="UTF-8" standalone="no"?>
<!DOCTYPE svg PUBLIC "-//W3C//DTD SVG 1.1//EN"
 "http://www.w3.org/Graphics/SVG/1.1/DTD/svg11.dtd">
<!-- Generated by graphviz version 2.40.1 (20161225.0304)
 -->
<!-- Title: oneDegreeRelationshipsDiagram Pages: 1 -->
<svg width="688pt" height="460pt"
 viewBox="0.00 0.00 688.00 459.50" xmlns="http://www.w3.org/2000/svg" xmlns:xlink="http://www.w3.org/1999/xlink">
<g id="graph0" class="graph" transform="scale(1 1) rotate(0) translate(4 455.5)">
<title>oneDegreeRelationshipsDiagram</title>
<polygon fill="#ffffff" stroke="transparent" points="-4,4 -4,-455.5 684,-455.5 684,4 -4,4"/>
<!-- EMPLOYEE -->
<g id="node1" class="node">
<title>EMPLOYEE</title>
<g id="a_node1"><a xlink:href="../../tables/EMPLOYEE.html" xlink:title="EMPLOYEE" target="_top">
<polygon fill="#ffffff" stroke="transparent" points="161,-254.5 161,-447.5 375,-447.5 375,-254.5 161,-254.5"/>
<polygon fill="#f5f5f5" stroke="transparent" points="161,-424 161,-447 375,-447 375,-424 161,-424"/>
<polygon fill="none" stroke="#000000" points="161,-424 161,-447 375,-447 375,-424 161,-424"/>
<text text-anchor="start" x="166" y="-432.6" font-family="Helvetica,sans-Serif" font-weight="bold" font-size="11.00" fill="#000000">EMPLOYEE</text>
<text text-anchor="start" x="340.0437" y="-432.1" font-family="Helvetica,sans-Serif" font-size="11.00" fill="#000000">[table]</text>
<polygon fill="none" stroke="#000000" points="161,-402 161,-424 375,-424 375,-402 161,-402"/>
<image xlink:href="../../images/primaryKeys.png" width="11px" height="12px" preserveAspectRatio="xMinYMin meet" x="166" y="-419"/>
<text text-anchor="start" x="181" y="-409.1" font-family="Helvetica,sans-Serif" font-size="11.00" fill="#000000">ID</text>
<polygon fill="#ffffff" stroke="transparent" points="161,-380 161,-402 375,-402 375,-380 161,-380"/>
<polygon fill="none" stroke="#000000" points="161,-380 161,-402 375,-402 375,-380 161,-380"/>
<image xlink:href="../../images/foreignKeys.png" width="11px" height="12px" preserveAspectRatio="xMinYMin meet" x="166" y="-397"/>
<text text-anchor="start" x="181" y="-387.1" font-family="Helvetica,sans-Serif" font-size="11.00" fill="#000000">DEPARTMENT_ID</text>
<polygon fill="#ffffff" stroke="transparent" points="161,-358 161,-380 375,-380 375,-358 161,-358"/>
<polygon fill="none" stroke="#000000" points="161,-358 161,-380 375,-380 375,-358 161,-358"/>
<image xlink:href="../../images/foreignKeys.png" width="11px" height="12px" preserveAspectRatio="xMinYMin meet" x="166" y="-375"/>
<text text-anchor="start" x="181" y="-365.1" font-family="Helvetica,sans-Serif" font-size="11.00" fill="#000000">LOCATION_ID</text>
<polygon fill="#ffffff" stroke="transparent" points="161,-336 161,-358 375,-358 375,-336 161,-336"/>
<polygon fill="none" stroke="#000000" points="161,-336 161,-358 375,-358 375,-336 161,-336"/>
<image xlink:href="../../images/foreignKeys.png" width="11px" height="12px" preserveAspectRatio="xMinYMin meet" x="166" y="-353"/>
<text text-anchor="start" x="181" y="-343.1" font-family="Helvetica,sans-Serif" font-size="11.00" fill="#000000">DESIGNATION_ID</text>
<polygon fill="#ffffff" stroke="transparent" points="161,-314 161,-336 375,-336 375,-314 161,-314"/>
<polygon fill="none" stroke="#000000" points="161,-314 161,-336 375,-336 375,-314 161,-314"/>
<image xlink:href="../../images/foreignKeys.png" width="11px" height="12px" preserveAspectRatio="xMinYMin meet" x="166" y="-331"/>
<text text-anchor="start" x="181" y="-321.1" font-family="Helvetica,sans-Serif" font-size="11.00" fill="#000000">CREATOR</text>
<polygon fill="#ffffff" stroke="transparent" points="161,-292 161,-314 375,-314 375,-292 161,-292"/>
<polygon fill="none" stroke="#000000" points="161,-292 161,-314 375,-314 375,-292 161,-292"/>
<image xlink:href="../../images/foreignKeys.png" width="11px" height="12px" preserveAspectRatio="xMinYMin meet" x="166" y="-309"/>
<text text-anchor="start" x="181" y="-299.1" font-family="Helvetica,sans-Serif" font-size="11.00" fill="#000000">LAST_MODIFIER</text>
<polygon fill="none" stroke="#000000" points="161,-273 161,-292 375,-292 375,-273 161,-273"/>
<text text-anchor="start" x="164" y="-279.1" font-family="Helvetica,sans-Serif" font-size="11.00" fill="#000000">...</text>
<polygon fill="#ffffff" stroke="transparent" points="161,-254 161,-273 246,-273 246,-254 161,-254"/>
<polygon fill="none" stroke="#000000" points="161,-254 161,-273 246,-273 246,-254 161,-254"/>
<text text-anchor="start" x="164" y="-260.1" font-family="Helvetica,sans-Serif" font-size="11.00" fill="#000000">&lt; 5</text>
<polygon fill="#ffffff" stroke="transparent" points="246,-254 246,-273 316,-273 316,-254 246,-254"/>
<polygon fill="none" stroke="#000000" points="246,-254 246,-273 316,-273 316,-254 246,-254"/>
<text text-anchor="start" x="280.6105" y="-260.1" font-family="Helvetica,sans-Serif" font-size="11.00" fill="#000000">0 rows</text>
<polygon fill="#ffffff" stroke="transparent" points="316,-254 316,-273 375,-273 375,-254 316,-254"/>
<polygon fill="none" stroke="#000000" points="316,-254 316,-273 375,-273 375,-254 316,-254"/>
<text text-anchor="start" x="350.2904" y="-260.1" font-family="Helvetica,sans-Serif" font-size="11.00" fill="#000000">15 &gt;</text>
</a>
</g>
</g>
<!-- User -->
<g id="node2" class="node">
<title>User</title>
<g id="a_node2"><a xlink:href="../../tables/User.html" xlink:title="User" target="_top">
<polygon fill="#ffffff" stroke="transparent" points="8,-117.5 8,-200.5 112,-200.5 112,-117.5 8,-117.5"/>
<polygon fill="#f5f5f5" stroke="transparent" points="8,-177 8,-200 112,-200 112,-177 8,-177"/>
<polygon fill="none" stroke="#000000" points="8,-177 8,-200 112,-200 112,-177 8,-177"/>
<text text-anchor="start" x="13" y="-185.6" font-family="Helvetica,sans-Serif" font-weight="bold" font-size="11.00" fill="#000000">User</text>
<text text-anchor="start" x="77.0437" y="-185.1" font-family="Helvetica,sans-Serif" font-size="11.00" fill="#000000">[table]</text>
<polygon fill="none" stroke="#000000" points="8,-155 8,-177 112,-177 112,-155 8,-155"/>
<image xlink:href="../../images/primaryKeys.png" width="11px" height="12px" preserveAspectRatio="xMinYMin meet" x="13" y="-172"/>
<text text-anchor="start" x="28" y="-162.1" font-family="Helvetica,sans-Serif" font-size="11.00" fill="#000000">userid_pk</text>
<polygon fill="none" stroke="#000000" points="8,-136 8,-155 112,-155 112,-136 8,-136"/>
<text text-anchor="start" x="11" y="-142.1" font-family="Helvetica,sans-Serif" font-size="11.00" fill="#000000">...</text>
<polygon fill="#ffffff" stroke="transparent" points="8,-117 8,-136 30,-136 30,-117 8,-117"/>
<polygon fill="none" stroke="#000000" points="8,-117 8,-136 30,-136 30,-117 8,-117"/>
<text text-anchor="start" x="11" y="-123.1" font-family="Helvetica,sans-Serif" font-size="11.00" fill="#000000"> &#160;</text>
<polygon fill="#ffffff" stroke="transparent" points="30,-117 30,-136 73,-136 73,-117 30,-117"/>
<polygon fill="none" stroke="#000000" points="30,-117 30,-136 73,-136 73,-117 30,-117"/>
<text text-anchor="start" x="37.6105" y="-123.1" font-family="Helvetica,sans-Serif" font-size="11.00" fill="#000000">0 rows</text>
<polygon fill="#ffffff" stroke="transparent" points="73,-117 73,-136 112,-136 112,-117 73,-117"/>
<polygon fill="none" stroke="#000000" points="73,-117 73,-136 112,-136 112,-117 73,-117"/>
<text text-anchor="start" x="81.1755" y="-123.1" font-family="Helvetica,sans-Serif" font-size="11.00" fill="#000000">102 &gt;</text>
</a>
</g>
</g>
<!-- EMPLOYEE&#45;&gt;User -->
<g id="edge1" class="edge">
<title>EMPLOYEE:w&#45;&gt;User:e</title>
<path fill="none" stroke="#000000" d="M146.6688,-322.2403C101.4508,-301.1267 180.1692,-166 112,-166"/>
<polygon fill="#000000" stroke="#000000" points="153.1443,-323.4872 160.3192,-328.5351 157.0722,-324.2436 161,-325 161,-325 161,-325 157.0722,-324.2436 161.6808,-321.4649 153.1443,-323.4872 153.1443,-323.4872"/>
<ellipse fill="none" stroke="#000000" cx="150.0021" cy="-322.8821" rx="3.2" ry="3.2"/>
</g>
<!-- EMPLOYEE&#45;&gt;User -->
<g id="edge2" class="edge">
<title>EMPLOYEE:w&#45;&gt;User:e</title>
<path fill="none" stroke="#000000" d="M146.8714,-299.8812C109.5981,-279.4887 170.8564,-166 112,-166"/>
<polygon fill="#000000" stroke="#000000" points="153.1881,-301.2755 160.224,-306.5154 157.094,-302.1378 161,-303 161,-303 161,-303 157.094,-302.1378 161.776,-299.4846 153.1881,-301.2755 153.1881,-301.2755"/>
<ellipse fill="none" stroke="#000000" cx="150.0633" cy="-300.5857" rx="3.2" ry="3.2"/>
</g>
<!-- LEAVE_TYPE -->
<g id="node3" class="node">
<title>LEAVE_TYPE</title>
<g id="a_node3"><a xlink:href="../../tables/LEAVE_TYPE.html" xlink:title="LEAVE_TYPE" target="_top">
<polygon fill="#ffffff" stroke="transparent" points="172.5,-106.5 172.5,-233.5 363.5,-233.5 363.5,-106.5 172.5,-106.5"/>
<polygon fill="#f5f5f5" stroke="transparent" points="173,-210 173,-233 364,-233 364,-210 173,-210"/>
<polygon fill="none" stroke="#000000" points="173,-210 173,-233 364,-233 364,-210 173,-210"/>
<text text-anchor="start" x="178" y="-218.6" font-family="Helvetica,sans-Serif" font-weight="bold" font-size="11.00" fill="#000000">LEAVE_TYPE</text>
<text text-anchor="start" x="329.0437" y="-218.1" font-family="Helvetica,sans-Serif" font-size="11.00" fill="#000000">[table]</text>
<polygon fill="none" stroke="#000000" points="173,-188 173,-210 364,-210 364,-188 173,-188"/>
<image xlink:href="../../images/primaryKeys.png" width="11px" height="12px" preserveAspectRatio="xMinYMin meet" x="178" y="-205"/>
<text text-anchor="start" x="193" y="-195.1" font-family="Helvetica,sans-Serif" font-size="11.00" fill="#000000">ID</text>
<polygon fill="#ffffff" stroke="transparent" points="173,-166 173,-188 364,-188 364,-166 173,-166"/>
<polygon fill="none" stroke="#000000" points="173,-166 173,-188 364,-188 364,-166 173,-166"/>
<image xlink:href="../../images/foreignKeys.png" width="11px" height="12px" preserveAspectRatio="xMinYMin meet" x="178" y="-183"/>
<text text-anchor="start" x="193" y="-173.1" font-family="Helvetica,sans-Serif" font-size="11.00" fill="#000000">CREATOR</text>
<polygon fill="#ffffff" stroke="transparent" points="173,-144 173,-166 364,-166 364,-144 173,-144"/>
<polygon fill="none" stroke="#000000" points="173,-144 173,-166 364,-166 364,-144 173,-144"/>
<image xlink:href="../../images/foreignKeys.png" width="11px" height="12px" preserveAspectRatio="xMinYMin meet" x="178" y="-161"/>
<text text-anchor="start" x="193" y="-151.1" font-family="Helvetica,sans-Serif" font-size="11.00" fill="#000000">LAST_MODIFIER</text>
<polygon fill="none" stroke="#000000" points="173,-125 173,-144 364,-144 364,-125 173,-125"/>
<text text-anchor="start" x="176" y="-131.1" font-family="Helvetica,sans-Serif" font-size="11.00" fill="#000000">...</text>
<polygon fill="#ffffff" stroke="transparent" points="173,-106 173,-125 249,-125 249,-106 173,-106"/>
<polygon fill="none" stroke="#000000" points="173,-106 173,-125 249,-125 249,-106 173,-106"/>
<text text-anchor="start" x="176" y="-112.1" font-family="Helvetica,sans-Serif" font-size="11.00" fill="#000000">&lt; 2</text>
<polygon fill="#ffffff" stroke="transparent" points="249,-106 249,-125 315,-125 315,-106 249,-106"/>
<polygon fill="none" stroke="#000000" points="249,-106 249,-125 315,-125 315,-106 249,-106"/>
<text text-anchor="start" x="279.6105" y="-112.1" font-family="Helvetica,sans-Serif" font-size="11.00" fill="#000000">0 rows</text>
<polygon fill="#ffffff" stroke="transparent" points="315,-106 315,-125 364,-125 364,-106 315,-106"/>
<polygon fill="none" stroke="#000000" points="315,-106 315,-125 364,-125 364,-106 315,-106"/>
<text text-anchor="start" x="345.4053" y="-112.1" font-family="Helvetica,sans-Serif" font-size="11.00" fill="#000000">1 &gt;</text>
</a>
</g>
</g>
<!-- LEAVE_TYPE&#45;&gt;User -->
<g id="edge3" class="edge">
<title>LEAVE_TYPE:w&#45;&gt;User:e</title>
<path fill="none" stroke="#000000" d="M158.5291,-175.8228C142.1604,-172.9851 133.9526,-166 112,-166"/>
<polygon fill="#000000" stroke="#000000" points="165.0263,-176.3513 172.7081,-180.5881 169.0132,-176.6756 173,-177 173,-177 173,-177 169.0132,-176.6756 173.2919,-173.4119 165.0263,-176.3513 165.0263,-176.3513"/>
<ellipse fill="none" stroke="#000000" cx="161.8369" cy="-176.0918" rx="3.2" ry="3.2"/>
</g>
<!-- LEAVE_TYPE&#45;&gt;User -->
<g id="edge4" class="edge">
<title>LEAVE_TYPE:w&#45;&gt;User:e</title>
<path fill="none" stroke="#000000" d="M158.5291,-156.1772C142.1604,-159.0149 133.9526,-166 112,-166"/>
<polygon fill="#000000" stroke="#000000" points="165.0263,-155.6487 173.2919,-158.5881 169.0132,-155.3244 173,-155 173,-155 173,-155 169.0132,-155.3244 172.7081,-151.4119 165.0263,-155.6487 165.0263,-155.6487"/>
<ellipse fill="none" stroke="#000000" cx="161.8369" cy="-155.9082" rx="3.2" ry="3.2"/>
</g>
<!-- LEAVES -->
<g id="node4" class="node">
<title>LEAVES</title>
<g id="a_node4"><a xlink:href="../../tables/LEAVES.html" xlink:title="LEAVES" target="_top">
<polygon fill="#ffffff" stroke="transparent" points="424,-25 424,-445 672,-445 672,-25 424,-25"/>
<polygon fill="#f5f5f5" stroke="transparent" points="426,-420 426,-443 670,-443 670,-420 426,-420"/>
<polygon fill="none" stroke="#000000" points="426,-420 426,-443 670,-443 670,-420 426,-420"/>
<text text-anchor="start" x="431" y="-428.6" font-family="Helvetica,sans-Serif" font-weight="bold" font-size="11.00" fill="#000000">LEAVES</text>
<text text-anchor="start" x="635.0437" y="-428.1" font-family="Helvetica,sans-Serif" font-size="11.00" fill="#000000">[table]</text>
<polygon fill="none" stroke="#000000" points="426,-398 426,-420 603,-420 603,-398 426,-398"/>
<image xlink:href="../../images/primaryKeys.png" width="11px" height="12px" preserveAspectRatio="xMinYMin meet" x="431" y="-415"/>
<text text-anchor="start" x="446" y="-405.1" font-family="Helvetica,sans-Serif" font-size="11.00" fill="#000000">ID</text>
<polygon fill="none" stroke="#000000" points="603,-398 603,-420 670,-420 670,-398 603,-398"/>
<text text-anchor="start" x="606" y="-405.7" font-family="Helvetica,sans-Serif" font-size="11.00" fill="#000000">int[10]</text>
<polygon fill="none" stroke="#000000" points="426,-376 426,-398 603,-398 603,-376 426,-376"/>
<text text-anchor="start" x="446" y="-383.1" font-family="Helvetica,sans-Serif" font-size="11.00" fill="#000000">WORKSPACE_ID</text>
<polygon fill="none" stroke="#000000" points="603,-376 603,-398 670,-398 670,-376 603,-376"/>
<text text-anchor="start" x="606" y="-383.7" font-family="Helvetica,sans-Serif" font-size="11.00" fill="#000000">int[10]</text>
<polygon fill="#ffffff" stroke="transparent" points="426,-354 426,-376 603,-376 603,-354 426,-354"/>
<polygon fill="none" stroke="#000000" points="426,-354 426,-376 603,-376 603,-354 426,-354"/>
<image xlink:href="../../images/foreignKeys.png" width="11px" height="12px" preserveAspectRatio="xMinYMin meet" x="431" y="-371"/>
<text text-anchor="start" x="446" y="-361.1" font-family="Helvetica,sans-Serif" font-size="11.00" fill="#000000">EMPLOYEE_ID</text>
<polygon fill="none" stroke="#000000" points="603,-354 603,-376 670,-376 670,-354 603,-354"/>
<text text-anchor="start" x="606" y="-361.7" font-family="Helvetica,sans-Serif" font-size="11.00" fill="#000000">int[10]</text>
<polygon fill="#ffffff" stroke="transparent" points="426,-332 426,-354 603,-354 603,-332 426,-332"/>
<polygon fill="none" stroke="#000000" points="426,-332 426,-354 603,-354 603,-332 426,-332"/>
<image xlink:href="../../images/foreignKeys.png" width="11px" height="12px" preserveAspectRatio="xMinYMin meet" x="431" y="-349"/>
<text text-anchor="start" x="446" y="-339.1" font-family="Helvetica,sans-Serif" font-size="11.00" fill="#000000">LEAVE_TYPE_ID</text>
<polygon fill="none" stroke="#000000" points="603,-332 603,-354 670,-354 670,-332 603,-332"/>
<text text-anchor="start" x="606" y="-339.7" font-family="Helvetica,sans-Serif" font-size="11.00" fill="#000000">int[10]</text>
<polygon fill="none" stroke="#000000" points="426,-310 426,-332 603,-332 603,-310 426,-310"/>
<text text-anchor="start" x="446" y="-317.1" font-family="Helvetica,sans-Serif" font-size="11.00" fill="#000000">IS_HALF_DAY_ENABLED</text>
<polygon fill="none" stroke="#000000" points="603,-310 603,-332 670,-332 670,-310 603,-310"/>
<text text-anchor="start" x="606" y="-317.7" font-family="Helvetica,sans-Serif" font-size="11.00" fill="#000000">bit[1]</text>
<polygon fill="none" stroke="#000000" points="426,-288 426,-310 603,-310 603,-288 426,-288"/>
<text text-anchor="start" x="446" y="-295.1" font-family="Helvetica,sans-Serif" font-size="11.00" fill="#000000">FROM_DATE</text>
<polygon fill="none" stroke="#000000" points="603,-288 603,-310 670,-310 670,-288 603,-288"/>
<text text-anchor="start" x="606" y="-295.7" font-family="Helvetica,sans-Serif" font-size="11.00" fill="#000000">datetime[26]</text>
<polygon fill="none" stroke="#000000" points="426,-266 426,-288 603,-288 603,-266 426,-266"/>
<text text-anchor="start" x="446" y="-273.1" font-family="Helvetica,sans-Serif" font-size="11.00" fill="#000000">TO_DATE</text>
<polygon fill="none" stroke="#000000" points="603,-266 603,-288 670,-288 670,-266 603,-266"/>
<text text-anchor="start" x="606" y="-273.7" font-family="Helvetica,sans-Serif" font-size="11.00" fill="#000000">datetime[26]</text>
<polygon fill="none" stroke="#000000" points="426,-244 426,-266 603,-266 603,-244 426,-244"/>
<text text-anchor="start" x="446" y="-251.1" font-family="Helvetica,sans-Serif" font-size="11.00" fill="#000000">TEAM_EMAIL_ID</text>
<polygon fill="none" stroke="#000000" points="603,-244 603,-266 670,-266 670,-244 603,-244"/>
<text text-anchor="start" x="606" y="-251.7" font-family="Helvetica,sans-Serif" font-size="11.00" fill="#000000">varchar[50]</text>
<polygon fill="none" stroke="#000000" points="426,-222 426,-244 603,-244 603,-222 426,-222"/>
<text text-anchor="start" x="446" y="-229.1" font-family="Helvetica,sans-Serif" font-size="11.00" fill="#000000">DATE_OF_REQUEST</text>
<polygon fill="none" stroke="#000000" points="603,-222 603,-244 670,-244 670,-222 603,-222"/>
<text text-anchor="start" x="606" y="-229.7" font-family="Helvetica,sans-Serif" font-size="11.00" fill="#000000">datetime[26]</text>
<polygon fill="none" stroke="#000000" points="426,-200 426,-222 603,-222 603,-200 426,-200"/>
<text text-anchor="start" x="446" y="-207.1" font-family="Helvetica,sans-Serif" font-size="11.00" fill="#000000">LEAVE_TAKEN</text>
<polygon fill="none" stroke="#000000" points="603,-200 603,-222 670,-222 670,-200 603,-200"/>
<text text-anchor="start" x="606" y="-207.7" font-family="Helvetica,sans-Serif" font-size="11.00" fill="#000000">double[22]</text>
<polygon fill="none" stroke="#000000" points="426,-178 426,-200 603,-200 603,-178 426,-178"/>
<text text-anchor="start" x="446" y="-185.1" font-family="Helvetica,sans-Serif" font-size="11.00" fill="#000000">UNIT</text>
<polygon fill="none" stroke="#000000" points="603,-178 603,-200 670,-200 670,-178 603,-178"/>
<text text-anchor="start" x="606" y="-185.7" font-family="Helvetica,sans-Serif" font-size="11.00" fill="#000000">enum[8]</text>
<polygon fill="none" stroke="#000000" points="426,-156 426,-178 603,-178 603,-156 426,-156"/>
<text text-anchor="start" x="446" y="-163.1" font-family="Helvetica,sans-Serif" font-size="11.00" fill="#000000">REASON_FOR_LEAVE</text>
<polygon fill="none" stroke="#000000" points="603,-156 603,-178 670,-178 670,-156 603,-156"/>
<text text-anchor="start" x="605.9365" y="-163.7" font-family="Helvetica,sans-Serif" font-size="11.00" fill="#000000">varchar[255]</text>
<polygon fill="none" stroke="#000000" points="426,-134 426,-156 603,-156 603,-134 426,-134"/>
<text text-anchor="start" x="446" y="-141.1" font-family="Helvetica,sans-Serif" font-size="11.00" fill="#000000">APPROVAL_STATUS</text>
<polygon fill="none" stroke="#000000" points="603,-134 603,-156 670,-156 670,-134 603,-134"/>
<text text-anchor="start" x="606" y="-141.7" font-family="Helvetica,sans-Serif" font-size="11.00" fill="#000000">enum[12]</text>
<polygon fill="none" stroke="#000000" points="426,-112 426,-134 603,-134 603,-112 426,-112"/>
<text text-anchor="start" x="446" y="-119.1" font-family="Helvetica,sans-Serif" font-size="11.00" fill="#000000">CREATED_TIME</text>
<polygon fill="none" stroke="#000000" points="603,-112 603,-134 670,-134 670,-112 603,-112"/>
<text text-anchor="start" x="606" y="-119.7" font-family="Helvetica,sans-Serif" font-size="11.00" fill="#000000">datetime[26]</text>
<polygon fill="none" stroke="#000000" points="426,-90 426,-112 603,-112 603,-90 426,-90"/>
<text text-anchor="start" x="446" y="-97.1" font-family="Helvetica,sans-Serif" font-size="11.00" fill="#000000">MODIFIED_TIME</text>
<polygon fill="none" stroke="#000000" points="603,-90 603,-112 670,-112 670,-90 603,-90"/>
<text text-anchor="start" x="606" y="-97.7" font-family="Helvetica,sans-Serif" font-size="11.00" fill="#000000">datetime[26]</text>
<polygon fill="#ffffff" stroke="transparent" points="426,-68 426,-90 603,-90 603,-68 426,-68"/>
<polygon fill="none" stroke="#000000" points="426,-68 426,-90 603,-90 603,-68 426,-68"/>
<image xlink:href="../../images/foreignKeys.png" width="11px" height="12px" preserveAspectRatio="xMinYMin meet" x="431" y="-85"/>
<text text-anchor="start" x="446" y="-75.1" font-family="Helvetica,sans-Serif" font-size="11.00" fill="#000000">CREATOR</text>
<polygon fill="none" stroke="#000000" points="603,-68 603,-90 670,-90 670,-68 603,-68"/>
<text text-anchor="start" x="606" y="-75.7" font-family="Helvetica,sans-Serif" font-size="11.00" fill="#000000">int[10]</text>
<polygon fill="#ffffff" stroke="transparent" points="426,-46 426,-68 603,-68 603,-46 426,-46"/>
<polygon fill="none" stroke="#000000" points="426,-46 426,-68 603,-68 603,-46 426,-46"/>
<image xlink:href="../../images/foreignKeys.png" width="11px" height="12px" preserveAspectRatio="xMinYMin meet" x="431" y="-63"/>
<text text-anchor="start" x="446" y="-53.1" font-family="Helvetica,sans-Serif" font-size="11.00" fill="#000000">LAST_MODIFIER</text>
<polygon fill="none" stroke="#000000" points="603,-46 603,-68 670,-68 670,-46 603,-46"/>
<text text-anchor="start" x="606" y="-53.7" font-family="Helvetica,sans-Serif" font-size="11.00" fill="#000000">int[10]</text>
<polygon fill="#ffffff" stroke="transparent" points="426,-27 426,-46 506,-46 506,-27 426,-27"/>
<polygon fill="none" stroke="#000000" points="426,-27 426,-46 506,-46 506,-27 426,-27"/>
<text text-anchor="start" x="429" y="-33.1" font-family="Helvetica,sans-Serif" font-size="11.00" fill="#000000">&lt; 4</text>
<polygon fill="#ffffff" stroke="transparent" points="506,-27 506,-46 603,-46 603,-27 506,-27"/>
<polygon fill="none" stroke="#000000" points="506,-27 506,-46 603,-46 603,-27 506,-27"/>
<text text-anchor="start" x="567.6105" y="-33.1" font-family="Helvetica,sans-Serif" font-size="11.00" fill="#000000">0 rows</text>
<polygon fill="#ffffff" stroke="transparent" points="603,-27 603,-46 670,-46 670,-27 603,-27"/>
<polygon fill="none" stroke="#000000" points="603,-27 603,-46 670,-46 670,-27 603,-27"/>
<text text-anchor="start" x="651.4053" y="-33.1" font-family="Helvetica,sans-Serif" font-size="11.00" fill="#000000">0 &gt;</text>
<polygon fill="none" stroke="#000000" stroke-width="2" points="425,-26 425,-444 671,-444 671,-26 425,-26"/>
</a>
</g>
</g>
<!-- LEAVES&#45;&gt;EMPLOYEE -->
<g id="edge6" class="edge">
<title>LEAVES:w&#45;&gt;EMPLOYEE:e</title>
<path fill="none" stroke="#000000" d="M411.9801,-369.7779C397.6524,-381.9189 400.0475,-413 375,-413"/>
<polygon fill="#000000" stroke="#000000" points="418.4277,-367.5807 427.1613,-368.4076 422.2138,-366.2903 426,-365 426,-365 426,-365 422.2138,-366.2903 424.8387,-361.5924 418.4277,-367.5807 418.4277,-367.5807"/>
<ellipse fill="none" stroke="#000000" cx="415.3987" cy="-368.6129" rx="3.2" ry="3.2"/>
</g>
<!-- LEAVES&#45;&gt;User -->
<g id="edge5" class="edge">
<title>LEAVES:w&#45;&gt;User:e</title>
<path fill="none" stroke="#000000" d="M411.3394,-78.7905C342.5939,-77.0973 201.0289,-66.4495 153,-96 122.292,-114.8936 148.0548,-166 112,-166"/>
<polygon fill="#000000" stroke="#000000" points="418.0008,-78.8857 425.9485,-82.5996 422.0004,-78.9428 426,-79 426,-79 426,-79 422.0004,-78.9428 426.0515,-75.4004 418.0008,-78.8857 418.0008,-78.8857"/>
<ellipse fill="none" stroke="#000000" cx="414.8011" cy="-78.8399" rx="3.2" ry="3.2"/>
</g>
<!-- LEAVES&#45;&gt;User -->
<g id="edge7" class="edge">
<title>LEAVES:w&#45;&gt;User:e</title>
<path fill="none" stroke="#000000" d="M411.3894,-56.743C300.1419,-52.8313 248.7315,-6.5102 153,-73 115.899,-98.7683 157.1718,-166 112,-166"/>
<polygon fill="#000000" stroke="#000000" points="418.0012,-56.8592 425.9367,-60.5994 422.0006,-56.9296 426,-57 426,-57 426,-57 422.0006,-56.9296 426.0633,-53.4006 418.0012,-56.8592 418.0012,-56.8592"/>
<ellipse fill="none" stroke="#000000" cx="414.8017" cy="-56.8029" rx="3.2" ry="3.2"/>
</g>
<!-- LEAVES&#45;&gt;LEAVE_TYPE -->
<g id="edge8" class="edge">
<title>LEAVES:w&#45;&gt;LEAVE_TYPE:e</title>
<path fill="none" stroke="#000000" d="M411.6582,-340.252C368.0224,-320.344 427.9641,-199 364,-199"/>
<polygon fill="#000000" stroke="#000000" points="418.1429,-341.4945 425.3225,-346.5357 422.0715,-342.2472 426,-343 426,-343 426,-343 422.0715,-342.2472 426.6775,-339.4643 418.1429,-341.4945 418.1429,-341.4945"/>
<ellipse fill="none" stroke="#000000" cx="415.0001" cy="-340.8923" rx="3.2" ry="3.2"/>
</g>
</g>
</svg>
