<?xml version="1.0" encoding="UTF-8" standalone="no"?>
<!DOCTYPE svg PUBLIC "-//W3C//DTD SVG 1.1//EN"
 "http://www.w3.org/Graphics/SVG/1.1/DTD/svg11.dtd">
<!-- Generated by graphviz version 2.40.1 (20161225.0304)
 -->
<!-- Title: oneDegreeRelationshipsDiagram Pages: 1 -->
<svg width="665pt" height="530pt"
 viewBox="0.00 0.00 665.00 529.50" xmlns="http://www.w3.org/2000/svg" xmlns:xlink="http://www.w3.org/1999/xlink">
<g id="graph0" class="graph" transform="scale(1 1) rotate(0) translate(4 525.5)">
<title>oneDegreeRelationshipsDiagram</title>
<polygon fill="#ffffff" stroke="transparent" points="-4,4 -4,-525.5 661,-525.5 661,4 -4,4"/>
<!-- LEAVE_TYPE -->
<g id="node1" class="node">
<title>LEAVE_TYPE</title>
<g id="a_node1"><a xlink:href="../../tables/LEAVE_TYPE.html" xlink:title="LEAVE_TYPE" target="_top">
<polygon fill="#ffffff" stroke="transparent" points="161,-119.5 161,-517.5 423,-517.5 423,-119.5 161,-119.5"/>
<polygon fill="#f5f5f5" stroke="transparent" points="163,-492.5 163,-515.5 421,-515.5 421,-492.5 163,-492.5"/>
<polygon fill="none" stroke="#000000" points="163,-492.5 163,-515.5 421,-515.5 421,-492.5 163,-492.5"/>
<text text-anchor="start" x="168" y="-501.1" font-family="Helvetica,sans-Serif" font-weight="bold" font-size="11.00" fill="#000000">LEAVE_TYPE</text>
<text text-anchor="start" x="386.0437" y="-500.6" font-family="Helvetica,sans-Serif" font-size="11.00" fill="#000000">[table]</text>
<polygon fill="none" stroke="#000000" points="163,-470.5 163,-492.5 354,-492.5 354,-470.5 163,-470.5"/>
<image xlink:href="../../images/primaryKeys.png" width="11px" height="12px" preserveAspectRatio="xMinYMin meet" x="168" y="-487.5"/>
<text text-anchor="start" x="183" y="-477.6" font-family="Helvetica,sans-Serif" font-size="11.00" fill="#000000">ID</text>
<polygon fill="none" stroke="#000000" points="354,-470.5 354,-492.5 421,-492.5 421,-470.5 354,-470.5"/>
<text text-anchor="start" x="357" y="-478.2" font-family="Helvetica,sans-Serif" font-size="11.00" fill="#000000">int[10]</text>
<polygon fill="none" stroke="#000000" points="163,-448.5 163,-470.5 354,-470.5 354,-448.5 163,-448.5"/>
<text text-anchor="start" x="183" y="-455.6" font-family="Helvetica,sans-Serif" font-size="11.00" fill="#000000">WORKSPACE_ID</text>
<polygon fill="none" stroke="#000000" points="354,-448.5 354,-470.5 421,-470.5 421,-448.5 354,-448.5"/>
<text text-anchor="start" x="357" y="-456.2" font-family="Helvetica,sans-Serif" font-size="11.00" fill="#000000">int[10]</text>
<polygon fill="none" stroke="#000000" points="163,-426.5 163,-448.5 354,-448.5 354,-426.5 163,-426.5"/>
<text text-anchor="start" x="183" y="-433.6" font-family="Helvetica,sans-Serif" font-size="11.00" fill="#000000">NAME</text>
<polygon fill="none" stroke="#000000" points="354,-426.5 354,-448.5 421,-448.5 421,-426.5 354,-426.5"/>
<text text-anchor="start" x="357" y="-434.2" font-family="Helvetica,sans-Serif" font-size="11.00" fill="#000000">varchar[50]</text>
<polygon fill="none" stroke="#000000" points="163,-404.5 163,-426.5 354,-426.5 354,-404.5 163,-404.5"/>
<text text-anchor="start" x="183" y="-411.6" font-family="Helvetica,sans-Serif" font-size="11.00" fill="#000000">CODE</text>
<polygon fill="none" stroke="#000000" points="354,-404.5 354,-426.5 421,-426.5 421,-404.5 354,-404.5"/>
<text text-anchor="start" x="357" y="-412.2" font-family="Helvetica,sans-Serif" font-size="11.00" fill="#000000">int[10]</text>
<polygon fill="none" stroke="#000000" points="163,-382.5 163,-404.5 354,-404.5 354,-382.5 163,-382.5"/>
<text text-anchor="start" x="183" y="-389.6" font-family="Helvetica,sans-Serif" font-size="11.00" fill="#000000">LEAVE_TYPE</text>
<polygon fill="none" stroke="#000000" points="354,-382.5 354,-404.5 421,-404.5 421,-382.5 354,-382.5"/>
<text text-anchor="start" x="357" y="-390.2" font-family="Helvetica,sans-Serif" font-size="11.00" fill="#000000">enum[8]</text>
<polygon fill="none" stroke="#000000" points="163,-360.5 163,-382.5 354,-382.5 354,-360.5 163,-360.5"/>
<text text-anchor="start" x="183" y="-367.6" font-family="Helvetica,sans-Serif" font-size="11.00" fill="#000000">UNIT</text>
<polygon fill="none" stroke="#000000" points="354,-360.5 354,-382.5 421,-382.5 421,-360.5 354,-360.5"/>
<text text-anchor="start" x="357" y="-368.2" font-family="Helvetica,sans-Serif" font-size="11.00" fill="#000000">enum[8]</text>
<polygon fill="none" stroke="#000000" points="163,-338.5 163,-360.5 354,-360.5 354,-338.5 163,-338.5"/>
<text text-anchor="start" x="183" y="-345.6" font-family="Helvetica,sans-Serif" font-size="11.00" fill="#000000">APPROVAL_STATUS</text>
<polygon fill="none" stroke="#000000" points="354,-338.5 354,-360.5 421,-360.5 421,-338.5 354,-338.5"/>
<text text-anchor="start" x="357" y="-346.2" font-family="Helvetica,sans-Serif" font-size="11.00" fill="#000000">enum[12]</text>
<polygon fill="none" stroke="#000000" points="163,-316.5 163,-338.5 354,-338.5 354,-316.5 163,-316.5"/>
<text text-anchor="start" x="183" y="-323.6" font-family="Helvetica,sans-Serif" font-size="11.00" fill="#000000">BALANCED_BASED_ON</text>
<polygon fill="none" stroke="#000000" points="354,-316.5 354,-338.5 421,-338.5 421,-316.5 354,-316.5"/>
<text text-anchor="start" x="357" y="-324.2" font-family="Helvetica,sans-Serif" font-size="11.00" fill="#000000">bit[1]</text>
<polygon fill="none" stroke="#000000" points="163,-294.5 163,-316.5 354,-316.5 354,-294.5 163,-294.5"/>
<text text-anchor="start" x="183" y="-301.6" font-family="Helvetica,sans-Serif" font-size="11.00" fill="#000000">DESCRIPTION</text>
<polygon fill="none" stroke="#000000" points="354,-294.5 354,-316.5 421,-316.5 421,-294.5 354,-294.5"/>
<text text-anchor="start" x="356.9365" y="-302.2" font-family="Helvetica,sans-Serif" font-size="11.00" fill="#000000">varchar[255]</text>
<polygon fill="none" stroke="#000000" points="163,-272.5 163,-294.5 354,-294.5 354,-272.5 163,-272.5"/>
<text text-anchor="start" x="183" y="-279.6" font-family="Helvetica,sans-Serif" font-size="11.00" fill="#000000">validity</text>
<polygon fill="none" stroke="#000000" points="354,-272.5 354,-294.5 421,-294.5 421,-272.5 354,-272.5"/>
<text text-anchor="start" x="357" y="-280.2" font-family="Helvetica,sans-Serif" font-size="11.00" fill="#000000">datetime[26]</text>
<polygon fill="none" stroke="#000000" points="163,-250.5 163,-272.5 354,-272.5 354,-250.5 163,-250.5"/>
<text text-anchor="start" x="183" y="-257.6" font-family="Helvetica,sans-Serif" font-size="11.00" fill="#000000">IS_LEAVE_TYPE_ENABLED</text>
<polygon fill="none" stroke="#000000" points="354,-250.5 354,-272.5 421,-272.5 421,-250.5 354,-250.5"/>
<text text-anchor="start" x="357" y="-258.2" font-family="Helvetica,sans-Serif" font-size="11.00" fill="#000000">bit[1]</text>
<polygon fill="none" stroke="#000000" points="163,-228.5 163,-250.5 354,-250.5 354,-228.5 163,-228.5"/>
<text text-anchor="start" x="183" y="-235.6" font-family="Helvetica,sans-Serif" font-size="11.00" fill="#000000">LEAVE_TYPE_ID</text>
<polygon fill="none" stroke="#000000" points="354,-228.5 354,-250.5 421,-250.5 421,-228.5 354,-228.5"/>
<text text-anchor="start" x="357" y="-236.2" font-family="Helvetica,sans-Serif" font-size="11.00" fill="#000000">int[10]</text>
<polygon fill="none" stroke="#000000" points="163,-206.5 163,-228.5 354,-228.5 354,-206.5 163,-206.5"/>
<text text-anchor="start" x="183" y="-213.6" font-family="Helvetica,sans-Serif" font-size="11.00" fill="#000000">CREATED_TIME</text>
<polygon fill="none" stroke="#000000" points="354,-206.5 354,-228.5 421,-228.5 421,-206.5 354,-206.5"/>
<text text-anchor="start" x="357" y="-214.2" font-family="Helvetica,sans-Serif" font-size="11.00" fill="#000000">datetime[26]</text>
<polygon fill="none" stroke="#000000" points="163,-184.5 163,-206.5 354,-206.5 354,-184.5 163,-184.5"/>
<text text-anchor="start" x="183" y="-191.6" font-family="Helvetica,sans-Serif" font-size="11.00" fill="#000000">MODIFIED_TIME</text>
<polygon fill="none" stroke="#000000" points="354,-184.5 354,-206.5 421,-206.5 421,-184.5 354,-184.5"/>
<text text-anchor="start" x="357" y="-192.2" font-family="Helvetica,sans-Serif" font-size="11.00" fill="#000000">datetime[26]</text>
<polygon fill="#ffffff" stroke="transparent" points="163,-162.5 163,-184.5 354,-184.5 354,-162.5 163,-162.5"/>
<polygon fill="none" stroke="#000000" points="163,-162.5 163,-184.5 354,-184.5 354,-162.5 163,-162.5"/>
<image xlink:href="../../images/foreignKeys.png" width="11px" height="12px" preserveAspectRatio="xMinYMin meet" x="168" y="-179.5"/>
<text text-anchor="start" x="183" y="-169.6" font-family="Helvetica,sans-Serif" font-size="11.00" fill="#000000">CREATOR</text>
<polygon fill="none" stroke="#000000" points="354,-162.5 354,-184.5 421,-184.5 421,-162.5 354,-162.5"/>
<text text-anchor="start" x="357" y="-170.2" font-family="Helvetica,sans-Serif" font-size="11.00" fill="#000000">int[10]</text>
<polygon fill="#ffffff" stroke="transparent" points="163,-140.5 163,-162.5 354,-162.5 354,-140.5 163,-140.5"/>
<polygon fill="none" stroke="#000000" points="163,-140.5 163,-162.5 354,-162.5 354,-140.5 163,-140.5"/>
<image xlink:href="../../images/foreignKeys.png" width="11px" height="12px" preserveAspectRatio="xMinYMin meet" x="168" y="-157.5"/>
<text text-anchor="start" x="183" y="-147.6" font-family="Helvetica,sans-Serif" font-size="11.00" fill="#000000">LAST_MODIFIER</text>
<polygon fill="none" stroke="#000000" points="354,-140.5 354,-162.5 421,-162.5 421,-140.5 354,-140.5"/>
<text text-anchor="start" x="357" y="-148.2" font-family="Helvetica,sans-Serif" font-size="11.00" fill="#000000">int[10]</text>
<polygon fill="#ffffff" stroke="transparent" points="163,-121.5 163,-140.5 250,-140.5 250,-121.5 163,-121.5"/>
<polygon fill="none" stroke="#000000" points="163,-121.5 163,-140.5 250,-140.5 250,-121.5 163,-121.5"/>
<text text-anchor="start" x="166" y="-127.6" font-family="Helvetica,sans-Serif" font-size="11.00" fill="#000000">&lt; 2</text>
<polygon fill="#ffffff" stroke="transparent" points="250,-121.5 250,-140.5 354,-140.5 354,-121.5 250,-121.5"/>
<polygon fill="none" stroke="#000000" points="250,-121.5 250,-140.5 354,-140.5 354,-121.5 250,-121.5"/>
<text text-anchor="start" x="318.6105" y="-127.6" font-family="Helvetica,sans-Serif" font-size="11.00" fill="#000000">0 rows</text>
<polygon fill="#ffffff" stroke="transparent" points="354,-121.5 354,-140.5 421,-140.5 421,-121.5 354,-121.5"/>
<polygon fill="none" stroke="#000000" points="354,-121.5 354,-140.5 421,-140.5 421,-121.5 354,-121.5"/>
<text text-anchor="start" x="402.4053" y="-127.6" font-family="Helvetica,sans-Serif" font-size="11.00" fill="#000000">1 &gt;</text>
<polygon fill="none" stroke="#000000" stroke-width="2" points="162,-120.5 162,-516.5 422,-516.5 422,-120.5 162,-120.5"/>
</a>
</g>
</g>
<!-- User -->
<g id="node2" class="node">
<title>User</title>
<g id="a_node2"><a xlink:href="../../tables/User.html" xlink:title="User" target="_top">
<polygon fill="#ffffff" stroke="transparent" points="8,-75 8,-158 112,-158 112,-75 8,-75"/>
<polygon fill="#f5f5f5" stroke="transparent" points="8,-134.5 8,-157.5 112,-157.5 112,-134.5 8,-134.5"/>
<polygon fill="none" stroke="#000000" points="8,-134.5 8,-157.5 112,-157.5 112,-134.5 8,-134.5"/>
<text text-anchor="start" x="13" y="-143.1" font-family="Helvetica,sans-Serif" font-weight="bold" font-size="11.00" fill="#000000">User</text>
<text text-anchor="start" x="77.0437" y="-142.6" font-family="Helvetica,sans-Serif" font-size="11.00" fill="#000000">[table]</text>
<polygon fill="none" stroke="#000000" points="8,-112.5 8,-134.5 112,-134.5 112,-112.5 8,-112.5"/>
<image xlink:href="../../images/primaryKeys.png" width="11px" height="12px" preserveAspectRatio="xMinYMin meet" x="13" y="-129.5"/>
<text text-anchor="start" x="28" y="-119.6" font-family="Helvetica,sans-Serif" font-size="11.00" fill="#000000">userid_pk</text>
<polygon fill="none" stroke="#000000" points="8,-93.5 8,-112.5 112,-112.5 112,-93.5 8,-93.5"/>
<text text-anchor="start" x="11" y="-99.6" font-family="Helvetica,sans-Serif" font-size="11.00" fill="#000000">...</text>
<polygon fill="#ffffff" stroke="transparent" points="8,-74.5 8,-93.5 30,-93.5 30,-74.5 8,-74.5"/>
<polygon fill="none" stroke="#000000" points="8,-74.5 8,-93.5 30,-93.5 30,-74.5 8,-74.5"/>
<text text-anchor="start" x="11" y="-80.6" font-family="Helvetica,sans-Serif" font-size="11.00" fill="#000000"> &#160;</text>
<polygon fill="#ffffff" stroke="transparent" points="30,-74.5 30,-93.5 73,-93.5 73,-74.5 30,-74.5"/>
<polygon fill="none" stroke="#000000" points="30,-74.5 30,-93.5 73,-93.5 73,-74.5 30,-74.5"/>
<text text-anchor="start" x="37.6105" y="-80.6" font-family="Helvetica,sans-Serif" font-size="11.00" fill="#000000">0 rows</text>
<polygon fill="#ffffff" stroke="transparent" points="73,-74.5 73,-93.5 112,-93.5 112,-74.5 73,-74.5"/>
<polygon fill="none" stroke="#000000" points="73,-74.5 73,-93.5 112,-93.5 112,-74.5 73,-74.5"/>
<text text-anchor="start" x="81.1755" y="-80.6" font-family="Helvetica,sans-Serif" font-size="11.00" fill="#000000">102 &gt;</text>
</a>
</g>
</g>
<!-- LEAVE_TYPE&#45;&gt;User -->
<g id="edge1" class="edge">
<title>LEAVE_TYPE:w&#45;&gt;User:e</title>
<path fill="none" stroke="#000000" d="M149.2263,-168.8857C134.3844,-156.5078 137.791,-123.5 112,-123.5"/>
<polygon fill="#000000" stroke="#000000" points="155.4143,-170.9587 161.8564,-176.9135 159.2072,-172.2294 163,-173.5 163,-173.5 163,-173.5 159.2072,-172.2294 164.1436,-170.0865 155.4143,-170.9587 155.4143,-170.9587"/>
<ellipse fill="none" stroke="#000000" cx="152.3801" cy="-169.9422" rx="3.2" ry="3.2"/>
</g>
<!-- LEAVE_TYPE&#45;&gt;User -->
<g id="edge2" class="edge">
<title>LEAVE_TYPE:w&#45;&gt;User:e</title>
<path fill="none" stroke="#000000" d="M148.8987,-147.8395C136.1024,-140.2498 131.9996,-123.5 112,-123.5"/>
<polygon fill="#000000" stroke="#000000" points="155.2566,-149.4899 162.0954,-154.9845 159.1283,-150.4949 163,-151.5 163,-151.5 163,-151.5 159.1283,-150.4949 163.9046,-148.0155 155.2566,-149.4899 155.2566,-149.4899"/>
<ellipse fill="none" stroke="#000000" cx="152.1593" cy="-148.6858" rx="3.2" ry="3.2"/>
</g>
<!-- LEAVES -->
<g id="node3" class="node">
<title>LEAVES</title>
<g id="a_node3"><a xlink:href="../../tables/LEAVES.html" xlink:title="LEAVES" target="_top">
<polygon fill="#ffffff" stroke="transparent" points="472,-25 472,-196 649,-196 649,-25 472,-25"/>
<polygon fill="#f5f5f5" stroke="transparent" points="472.5,-172.5 472.5,-195.5 649.5,-195.5 649.5,-172.5 472.5,-172.5"/>
<polygon fill="none" stroke="#000000" points="472.5,-172.5 472.5,-195.5 649.5,-195.5 649.5,-172.5 472.5,-172.5"/>
<text text-anchor="start" x="477.5" y="-181.1" font-family="Helvetica,sans-Serif" font-weight="bold" font-size="11.00" fill="#000000">LEAVES</text>
<text text-anchor="start" x="614.5437" y="-180.6" font-family="Helvetica,sans-Serif" font-size="11.00" fill="#000000">[table]</text>
<polygon fill="none" stroke="#000000" points="472.5,-150.5 472.5,-172.5 649.5,-172.5 649.5,-150.5 472.5,-150.5"/>
<image xlink:href="../../images/primaryKeys.png" width="11px" height="12px" preserveAspectRatio="xMinYMin meet" x="477.5" y="-167.5"/>
<text text-anchor="start" x="492.5" y="-157.6" font-family="Helvetica,sans-Serif" font-size="11.00" fill="#000000">ID</text>
<polygon fill="#ffffff" stroke="transparent" points="472.5,-128.5 472.5,-150.5 649.5,-150.5 649.5,-128.5 472.5,-128.5"/>
<polygon fill="none" stroke="#000000" points="472.5,-128.5 472.5,-150.5 649.5,-150.5 649.5,-128.5 472.5,-128.5"/>
<image xlink:href="../../images/foreignKeys.png" width="11px" height="12px" preserveAspectRatio="xMinYMin meet" x="477.5" y="-145.5"/>
<text text-anchor="start" x="492.5" y="-135.6" font-family="Helvetica,sans-Serif" font-size="11.00" fill="#000000">EMPLOYEE_ID</text>
<polygon fill="#ffffff" stroke="transparent" points="472.5,-106.5 472.5,-128.5 649.5,-128.5 649.5,-106.5 472.5,-106.5"/>
<polygon fill="none" stroke="#000000" points="472.5,-106.5 472.5,-128.5 649.5,-128.5 649.5,-106.5 472.5,-106.5"/>
<image xlink:href="../../images/foreignKeys.png" width="11px" height="12px" preserveAspectRatio="xMinYMin meet" x="477.5" y="-123.5"/>
<text text-anchor="start" x="492.5" y="-113.6" font-family="Helvetica,sans-Serif" font-size="11.00" fill="#000000">LEAVE_TYPE_ID</text>
<polygon fill="#ffffff" stroke="transparent" points="472.5,-84.5 472.5,-106.5 649.5,-106.5 649.5,-84.5 472.5,-84.5"/>
<polygon fill="none" stroke="#000000" points="472.5,-84.5 472.5,-106.5 649.5,-106.5 649.5,-84.5 472.5,-84.5"/>
<image xlink:href="../../images/foreignKeys.png" width="11px" height="12px" preserveAspectRatio="xMinYMin meet" x="477.5" y="-101.5"/>
<text text-anchor="start" x="492.5" y="-91.6" font-family="Helvetica,sans-Serif" font-size="11.00" fill="#000000">CREATOR</text>
<polygon fill="#ffffff" stroke="transparent" points="472.5,-62.5 472.5,-84.5 649.5,-84.5 649.5,-62.5 472.5,-62.5"/>
<polygon fill="none" stroke="#000000" points="472.5,-62.5 472.5,-84.5 649.5,-84.5 649.5,-62.5 472.5,-62.5"/>
<image xlink:href="../../images/foreignKeys.png" width="11px" height="12px" preserveAspectRatio="xMinYMin meet" x="477.5" y="-79.5"/>
<text text-anchor="start" x="492.5" y="-69.6" font-family="Helvetica,sans-Serif" font-size="11.00" fill="#000000">LAST_MODIFIER</text>
<polygon fill="none" stroke="#000000" points="472.5,-43.5 472.5,-62.5 649.5,-62.5 649.5,-43.5 472.5,-43.5"/>
<text text-anchor="start" x="475.5" y="-49.6" font-family="Helvetica,sans-Serif" font-size="11.00" fill="#000000">...</text>
<polygon fill="#ffffff" stroke="transparent" points="472.5,-24.5 472.5,-43.5 546.5,-43.5 546.5,-24.5 472.5,-24.5"/>
<polygon fill="none" stroke="#000000" points="472.5,-24.5 472.5,-43.5 546.5,-43.5 546.5,-24.5 472.5,-24.5"/>
<text text-anchor="start" x="475.5" y="-30.6" font-family="Helvetica,sans-Serif" font-size="11.00" fill="#000000">&lt; 4</text>
<polygon fill="#ffffff" stroke="transparent" points="546.5,-24.5 546.5,-43.5 610.5,-43.5 610.5,-24.5 546.5,-24.5"/>
<polygon fill="none" stroke="#000000" points="546.5,-24.5 546.5,-43.5 610.5,-43.5 610.5,-24.5 546.5,-24.5"/>
<text text-anchor="start" x="575.1105" y="-30.6" font-family="Helvetica,sans-Serif" font-size="11.00" fill="#000000">0 rows</text>
<polygon fill="#ffffff" stroke="transparent" points="610.5,-24.5 610.5,-43.5 649.5,-43.5 649.5,-24.5 610.5,-24.5"/>
<polygon fill="none" stroke="#000000" points="610.5,-24.5 610.5,-43.5 649.5,-43.5 649.5,-24.5 610.5,-24.5"/>
<text text-anchor="start" x="640.3862" y="-30.6" font-family="Helvetica,sans-Serif" font-size="11.00" fill="#000000"> &#160;</text>
</a>
</g>
</g>
<!-- LEAVES&#45;&gt;LEAVE_TYPE -->
<g id="edge5" class="edge">
<title>LEAVES:w&#45;&gt;LEAVE_TYPE:e</title>
<path fill="none" stroke="#000000" d="M458.6725,-122.1023C404.8121,-164.2386 497.2695,-481.5 421,-481.5"/>
<polygon fill="#000000" stroke="#000000" points="464.9094,-120.0265 473.6369,-120.9158 468.7047,-118.7632 472.5,-117.5 472.5,-117.5 472.5,-117.5 468.7047,-118.7632 471.3631,-114.0842 464.9094,-120.0265 464.9094,-120.0265"/>
<ellipse fill="none" stroke="#000000" cx="461.8732" cy="-121.0371" rx="3.2" ry="3.2"/>
</g>
<!-- LEAVES&#45;&gt;User -->
<g id="edge3" class="edge">
<title>LEAVES:w&#45;&gt;User:e</title>
<path fill="none" stroke="#000000" d="M457.8874,-95.4564C327.5876,-94.6799 287.7632,-84.0823 153,-109.5 134.0783,-113.0688 131.2553,-123.5 112,-123.5"/>
<polygon fill="#000000" stroke="#000000" points="464.5,-95.4761 472.4892,-99.1 468.5,-95.4881 472.5,-95.5 472.5,-95.5 472.5,-95.5 468.5,-95.4881 472.5108,-91.9 464.5,-95.4761 464.5,-95.4761"/>
<ellipse fill="none" stroke="#000000" cx="461.3" cy="-95.4665" rx="3.2" ry="3.2"/>
</g>
<!-- LEAVES&#45;&gt;User -->
<g id="edge4" class="edge">
<title>LEAVES:w&#45;&gt;User:e</title>
<path fill="none" stroke="#000000" d="M457.8565,-73.3798C327.0619,-71.2269 281.1421,-41.4705 153,-90.5 131.1531,-98.859 135.3915,-123.5 112,-123.5"/>
<polygon fill="#000000" stroke="#000000" points="464.5003,-73.4343 472.4704,-77.0999 468.5001,-73.4671 472.5,-73.5 472.5,-73.5 472.5,-73.5 468.5001,-73.4671 472.5296,-69.9001 464.5003,-73.4343 464.5003,-73.4343"/>
<ellipse fill="none" stroke="#000000" cx="461.3004" cy="-73.408" rx="3.2" ry="3.2"/>
</g>
</g>
</svg>
