<?xml version="1.0" encoding="UTF-8" standalone="no"?>
<!DOCTYPE svg PUBLIC "-//W3C//DTD SVG 1.1//EN"
 "http://www.w3.org/Graphics/SVG/1.1/DTD/svg11.dtd">
<!-- Generated by graphviz version 2.40.1 (20161225.0304)
 -->
<!-- Title: oneDegreeRelationshipsDiagram Pages: 1 -->
<svg width="940pt" height="894pt"
 viewBox="0.00 0.00 940.00 894.00" xmlns="http://www.w3.org/2000/svg" xmlns:xlink="http://www.w3.org/1999/xlink">
<g id="graph0" class="graph" transform="scale(1 1) rotate(0) translate(4 890)">
<title>oneDegreeRelationshipsDiagram</title>
<polygon fill="#ffffff" stroke="transparent" points="-4,4 -4,-890 936,-890 936,4 -4,4"/>
<!-- APPLICABLE -->
<g id="node1" class="node">
<title>APPLICABLE</title>
<g id="a_node1"><a xlink:href="../../tables/APPLICABLE.html" xlink:title="APPLICABLE" target="_top">
<polygon fill="#ffffff" stroke="transparent" points="752,-564 752,-779 924,-779 924,-564 752,-564"/>
<polygon fill="#f5f5f5" stroke="transparent" points="752,-755.5 752,-778.5 924,-778.5 924,-755.5 752,-755.5"/>
<polygon fill="none" stroke="#000000" points="752,-755.5 752,-778.5 924,-778.5 924,-755.5 752,-755.5"/>
<text text-anchor="start" x="757" y="-764.1" font-family="Helvetica,sans-Serif" font-weight="bold" font-size="11.00" fill="#000000">APPLICABLE</text>
<text text-anchor="start" x="889.0437" y="-763.6" font-family="Helvetica,sans-Serif" font-size="11.00" fill="#000000">[table]</text>
<polygon fill="none" stroke="#000000" points="752,-733.5 752,-755.5 924,-755.5 924,-733.5 752,-733.5"/>
<image xlink:href="../../images/primaryKeys.png" width="11px" height="12px" preserveAspectRatio="xMinYMin meet" x="757" y="-750.5"/>
<text text-anchor="start" x="772" y="-740.6" font-family="Helvetica,sans-Serif" font-size="11.00" fill="#000000">ID</text>
<polygon fill="#ffffff" stroke="transparent" points="752,-711.5 752,-733.5 924,-733.5 924,-711.5 752,-711.5"/>
<polygon fill="none" stroke="#000000" points="752,-711.5 752,-733.5 924,-733.5 924,-711.5 752,-711.5"/>
<image xlink:href="../../images/foreignKeys.png" width="11px" height="12px" preserveAspectRatio="xMinYMin meet" x="757" y="-728.5"/>
<text text-anchor="start" x="772" y="-718.6" font-family="Helvetica,sans-Serif" font-size="11.00" fill="#000000">DEPARTMENT_ID</text>
<polygon fill="#ffffff" stroke="transparent" points="752,-689.5 752,-711.5 924,-711.5 924,-689.5 752,-689.5"/>
<polygon fill="none" stroke="#000000" points="752,-689.5 752,-711.5 924,-711.5 924,-689.5 752,-689.5"/>
<image xlink:href="../../images/foreignKeys.png" width="11px" height="12px" preserveAspectRatio="xMinYMin meet" x="757" y="-706.5"/>
<text text-anchor="start" x="772" y="-696.6" font-family="Helvetica,sans-Serif" font-size="11.00" fill="#000000">DESIGNATION_ID</text>
<polygon fill="#ffffff" stroke="transparent" points="752,-667.5 752,-689.5 924,-689.5 924,-667.5 752,-667.5"/>
<polygon fill="none" stroke="#000000" points="752,-667.5 752,-689.5 924,-689.5 924,-667.5 752,-667.5"/>
<image xlink:href="../../images/foreignKeys.png" width="11px" height="12px" preserveAspectRatio="xMinYMin meet" x="757" y="-684.5"/>
<text text-anchor="start" x="772" y="-674.6" font-family="Helvetica,sans-Serif" font-size="11.00" fill="#000000">LOCATION_ID</text>
<polygon fill="#ffffff" stroke="transparent" points="752,-645.5 752,-667.5 924,-667.5 924,-645.5 752,-645.5"/>
<polygon fill="none" stroke="#000000" points="752,-645.5 752,-667.5 924,-667.5 924,-645.5 752,-645.5"/>
<image xlink:href="../../images/foreignKeys.png" width="11px" height="12px" preserveAspectRatio="xMinYMin meet" x="757" y="-662.5"/>
<text text-anchor="start" x="772" y="-652.6" font-family="Helvetica,sans-Serif" font-size="11.00" fill="#000000">EMPLOYEE_ID</text>
<polygon fill="#ffffff" stroke="transparent" points="752,-623.5 752,-645.5 924,-645.5 924,-623.5 752,-623.5"/>
<polygon fill="none" stroke="#000000" points="752,-623.5 752,-645.5 924,-645.5 924,-623.5 752,-623.5"/>
<image xlink:href="../../images/foreignKeys.png" width="11px" height="12px" preserveAspectRatio="xMinYMin meet" x="757" y="-640.5"/>
<text text-anchor="start" x="772" y="-630.6" font-family="Helvetica,sans-Serif" font-size="11.00" fill="#000000">CREATOR</text>
<polygon fill="#ffffff" stroke="transparent" points="752,-601.5 752,-623.5 924,-623.5 924,-601.5 752,-601.5"/>
<polygon fill="none" stroke="#000000" points="752,-601.5 752,-623.5 924,-623.5 924,-601.5 752,-601.5"/>
<image xlink:href="../../images/foreignKeys.png" width="11px" height="12px" preserveAspectRatio="xMinYMin meet" x="757" y="-618.5"/>
<text text-anchor="start" x="772" y="-608.6" font-family="Helvetica,sans-Serif" font-size="11.00" fill="#000000">LAST_MODIFIER</text>
<polygon fill="none" stroke="#000000" points="752,-582.5 752,-601.5 924,-601.5 924,-582.5 752,-582.5"/>
<text text-anchor="start" x="755" y="-588.6" font-family="Helvetica,sans-Serif" font-size="11.00" fill="#000000">...</text>
<polygon fill="#ffffff" stroke="transparent" points="752,-563.5 752,-582.5 823,-582.5 823,-563.5 752,-563.5"/>
<polygon fill="none" stroke="#000000" points="752,-563.5 752,-582.5 823,-582.5 823,-563.5 752,-563.5"/>
<text text-anchor="start" x="755" y="-569.6" font-family="Helvetica,sans-Serif" font-size="11.00" fill="#000000">&lt; 6</text>
<polygon fill="#ffffff" stroke="transparent" points="823,-563.5 823,-582.5 886,-582.5 886,-563.5 823,-563.5"/>
<polygon fill="none" stroke="#000000" points="823,-563.5 823,-582.5 886,-582.5 886,-563.5 823,-563.5"/>
<text text-anchor="start" x="850.6105" y="-569.6" font-family="Helvetica,sans-Serif" font-size="11.00" fill="#000000">0 rows</text>
<polygon fill="#ffffff" stroke="transparent" points="886,-563.5 886,-582.5 924,-582.5 924,-563.5 886,-563.5"/>
<polygon fill="none" stroke="#000000" points="886,-563.5 886,-582.5 924,-582.5 924,-563.5 886,-563.5"/>
<text text-anchor="start" x="914.8862" y="-569.6" font-family="Helvetica,sans-Serif" font-size="11.00" fill="#000000"> &#160;</text>
</a>
</g>
</g>
<!-- User -->
<g id="node2" class="node">
<title>User</title>
<g id="a_node2"><a xlink:href="../../tables/User.html" xlink:title="User" target="_top">
<polygon fill="#ffffff" stroke="transparent" points="8,-188 8,-271 112,-271 112,-188 8,-188"/>
<polygon fill="#f5f5f5" stroke="transparent" points="8,-247.5 8,-270.5 112,-270.5 112,-247.5 8,-247.5"/>
<polygon fill="none" stroke="#000000" points="8,-247.5 8,-270.5 112,-270.5 112,-247.5 8,-247.5"/>
<text text-anchor="start" x="13" y="-256.1" font-family="Helvetica,sans-Serif" font-weight="bold" font-size="11.00" fill="#000000">User</text>
<text text-anchor="start" x="77.0437" y="-255.6" font-family="Helvetica,sans-Serif" font-size="11.00" fill="#000000">[table]</text>
<polygon fill="none" stroke="#000000" points="8,-225.5 8,-247.5 112,-247.5 112,-225.5 8,-225.5"/>
<image xlink:href="../../images/primaryKeys.png" width="11px" height="12px" preserveAspectRatio="xMinYMin meet" x="13" y="-242.5"/>
<text text-anchor="start" x="28" y="-232.6" font-family="Helvetica,sans-Serif" font-size="11.00" fill="#000000">userid_pk</text>
<polygon fill="none" stroke="#000000" points="8,-206.5 8,-225.5 112,-225.5 112,-206.5 8,-206.5"/>
<text text-anchor="start" x="11" y="-212.6" font-family="Helvetica,sans-Serif" font-size="11.00" fill="#000000">...</text>
<polygon fill="#ffffff" stroke="transparent" points="8,-187.5 8,-206.5 30,-206.5 30,-187.5 8,-187.5"/>
<polygon fill="none" stroke="#000000" points="8,-187.5 8,-206.5 30,-206.5 30,-187.5 8,-187.5"/>
<text text-anchor="start" x="11" y="-193.6" font-family="Helvetica,sans-Serif" font-size="11.00" fill="#000000"> &#160;</text>
<polygon fill="#ffffff" stroke="transparent" points="30,-187.5 30,-206.5 73,-206.5 73,-187.5 30,-187.5"/>
<polygon fill="none" stroke="#000000" points="30,-187.5 30,-206.5 73,-206.5 73,-187.5 30,-187.5"/>
<text text-anchor="start" x="37.6105" y="-193.6" font-family="Helvetica,sans-Serif" font-size="11.00" fill="#000000">0 rows</text>
<polygon fill="#ffffff" stroke="transparent" points="73,-187.5 73,-206.5 112,-206.5 112,-187.5 73,-187.5"/>
<polygon fill="none" stroke="#000000" points="73,-187.5 73,-206.5 112,-206.5 112,-187.5 73,-187.5"/>
<text text-anchor="start" x="81.1755" y="-193.6" font-family="Helvetica,sans-Serif" font-size="11.00" fill="#000000">102 &gt;</text>
</a>
</g>
</g>
<!-- APPLICABLE&#45;&gt;User -->
<g id="edge1" class="edge">
<title>APPLICABLE:w&#45;&gt;User:e</title>
<path fill="none" stroke="#000000" d="M737.4768,-634.7613C633.8494,-637.6717 199.3083,-663.1158 153,-620.5 89.8519,-562.3871 197.8184,-236.5 112,-236.5"/>
<polygon fill="#000000" stroke="#000000" points="744.0013,-634.644 752.0648,-638.0994 748.0006,-634.572 752,-634.5 752,-634.5 752,-634.5 748.0006,-634.572 751.9352,-630.9006 744.0013,-634.644 744.0013,-634.644"/>
<ellipse fill="none" stroke="#000000" cx="740.8018" cy="-634.7016" rx="3.2" ry="3.2"/>
</g>
<!-- APPLICABLE&#45;&gt;User -->
<g id="edge3" class="edge">
<title>APPLICABLE:w&#45;&gt;User:e</title>
<path fill="none" stroke="#000000" d="M737.5087,-612.6005C644.1796,-613.4142 175.8012,-618.377 153,-597.5 93.4523,-542.9776 192.738,-236.5 112,-236.5"/>
<polygon fill="#000000" stroke="#000000" points="744.0002,-612.5555 752.025,-616.0999 748.0001,-612.5278 752,-612.5 752,-612.5 752,-612.5 748.0001,-612.5278 751.975,-608.9001 744.0002,-612.5555 744.0002,-612.5555"/>
<ellipse fill="none" stroke="#000000" cx="740.8003" cy="-612.5777" rx="3.2" ry="3.2"/>
</g>
<!-- EMPLOYEE -->
<g id="node3" class="node">
<title>EMPLOYEE</title>
<g id="a_node3"><a xlink:href="../../tables/EMPLOYEE.html" xlink:title="EMPLOYEE" target="_top">
<polygon fill="#ffffff" stroke="transparent" points="461,-689 461,-882 675,-882 675,-689 461,-689"/>
<polygon fill="#f5f5f5" stroke="transparent" points="461,-858.5 461,-881.5 675,-881.5 675,-858.5 461,-858.5"/>
<polygon fill="none" stroke="#000000" points="461,-858.5 461,-881.5 675,-881.5 675,-858.5 461,-858.5"/>
<text text-anchor="start" x="466" y="-867.1" font-family="Helvetica,sans-Serif" font-weight="bold" font-size="11.00" fill="#000000">EMPLOYEE</text>
<text text-anchor="start" x="640.0437" y="-866.6" font-family="Helvetica,sans-Serif" font-size="11.00" fill="#000000">[table]</text>
<polygon fill="none" stroke="#000000" points="461,-836.5 461,-858.5 675,-858.5 675,-836.5 461,-836.5"/>
<image xlink:href="../../images/primaryKeys.png" width="11px" height="12px" preserveAspectRatio="xMinYMin meet" x="466" y="-853.5"/>
<text text-anchor="start" x="481" y="-843.6" font-family="Helvetica,sans-Serif" font-size="11.00" fill="#000000">ID</text>
<polygon fill="#ffffff" stroke="transparent" points="461,-814.5 461,-836.5 675,-836.5 675,-814.5 461,-814.5"/>
<polygon fill="none" stroke="#000000" points="461,-814.5 461,-836.5 675,-836.5 675,-814.5 461,-814.5"/>
<image xlink:href="../../images/foreignKeys.png" width="11px" height="12px" preserveAspectRatio="xMinYMin meet" x="466" y="-831.5"/>
<text text-anchor="start" x="481" y="-821.6" font-family="Helvetica,sans-Serif" font-size="11.00" fill="#000000">DEPARTMENT_ID</text>
<polygon fill="#ffffff" stroke="transparent" points="461,-792.5 461,-814.5 675,-814.5 675,-792.5 461,-792.5"/>
<polygon fill="none" stroke="#000000" points="461,-792.5 461,-814.5 675,-814.5 675,-792.5 461,-792.5"/>
<image xlink:href="../../images/foreignKeys.png" width="11px" height="12px" preserveAspectRatio="xMinYMin meet" x="466" y="-809.5"/>
<text text-anchor="start" x="481" y="-799.6" font-family="Helvetica,sans-Serif" font-size="11.00" fill="#000000">LOCATION_ID</text>
<polygon fill="#ffffff" stroke="transparent" points="461,-770.5 461,-792.5 675,-792.5 675,-770.5 461,-770.5"/>
<polygon fill="none" stroke="#000000" points="461,-770.5 461,-792.5 675,-792.5 675,-770.5 461,-770.5"/>
<image xlink:href="../../images/foreignKeys.png" width="11px" height="12px" preserveAspectRatio="xMinYMin meet" x="466" y="-787.5"/>
<text text-anchor="start" x="481" y="-777.6" font-family="Helvetica,sans-Serif" font-size="11.00" fill="#000000">DESIGNATION_ID</text>
<polygon fill="#ffffff" stroke="transparent" points="461,-748.5 461,-770.5 675,-770.5 675,-748.5 461,-748.5"/>
<polygon fill="none" stroke="#000000" points="461,-748.5 461,-770.5 675,-770.5 675,-748.5 461,-748.5"/>
<image xlink:href="../../images/foreignKeys.png" width="11px" height="12px" preserveAspectRatio="xMinYMin meet" x="466" y="-765.5"/>
<text text-anchor="start" x="481" y="-755.6" font-family="Helvetica,sans-Serif" font-size="11.00" fill="#000000">CREATOR</text>
<polygon fill="#ffffff" stroke="transparent" points="461,-726.5 461,-748.5 675,-748.5 675,-726.5 461,-726.5"/>
<polygon fill="none" stroke="#000000" points="461,-726.5 461,-748.5 675,-748.5 675,-726.5 461,-726.5"/>
<image xlink:href="../../images/foreignKeys.png" width="11px" height="12px" preserveAspectRatio="xMinYMin meet" x="466" y="-743.5"/>
<text text-anchor="start" x="481" y="-733.6" font-family="Helvetica,sans-Serif" font-size="11.00" fill="#000000">LAST_MODIFIER</text>
<polygon fill="none" stroke="#000000" points="461,-707.5 461,-726.5 675,-726.5 675,-707.5 461,-707.5"/>
<text text-anchor="start" x="464" y="-713.6" font-family="Helvetica,sans-Serif" font-size="11.00" fill="#000000">...</text>
<polygon fill="#ffffff" stroke="transparent" points="461,-688.5 461,-707.5 546,-707.5 546,-688.5 461,-688.5"/>
<polygon fill="none" stroke="#000000" points="461,-688.5 461,-707.5 546,-707.5 546,-688.5 461,-688.5"/>
<text text-anchor="start" x="464" y="-694.6" font-family="Helvetica,sans-Serif" font-size="11.00" fill="#000000">&lt; 5</text>
<polygon fill="#ffffff" stroke="transparent" points="546,-688.5 546,-707.5 616,-707.5 616,-688.5 546,-688.5"/>
<polygon fill="none" stroke="#000000" points="546,-688.5 546,-707.5 616,-707.5 616,-688.5 546,-688.5"/>
<text text-anchor="start" x="580.6105" y="-694.6" font-family="Helvetica,sans-Serif" font-size="11.00" fill="#000000">0 rows</text>
<polygon fill="#ffffff" stroke="transparent" points="616,-688.5 616,-707.5 675,-707.5 675,-688.5 616,-688.5"/>
<polygon fill="none" stroke="#000000" points="616,-688.5 616,-707.5 675,-707.5 675,-688.5 616,-688.5"/>
<text text-anchor="start" x="650.2904" y="-694.6" font-family="Helvetica,sans-Serif" font-size="11.00" fill="#000000">15 &gt;</text>
</a>
</g>
</g>
<!-- APPLICABLE&#45;&gt;EMPLOYEE -->
<g id="edge2" class="edge">
<title>APPLICABLE:w&#45;&gt;EMPLOYEE:e</title>
<path fill="none" stroke="#000000" d="M737.4601,-658.5158C672.5908,-678.9287 760.9858,-847.5 675,-847.5"/>
<polygon fill="#000000" stroke="#000000" points="744.0758,-657.5986 752.4944,-660.0659 748.0379,-657.0493 752,-656.5 752,-656.5 752,-656.5 748.0379,-657.0493 751.5056,-652.9341 744.0758,-657.5986 744.0758,-657.5986"/>
<ellipse fill="none" stroke="#000000" cx="740.9061" cy="-658.0381" rx="3.2" ry="3.2"/>
</g>
<!-- LOCATION -->
<g id="node4" class="node">
<title>LOCATION</title>
<g id="a_node4"><a xlink:href="../../tables/LOCATION.html" xlink:title="LOCATION" target="_top">
<polygon fill="#ffffff" stroke="transparent" points="161,-232.5 161,-586.5 384,-586.5 384,-232.5 161,-232.5"/>
<polygon fill="#f5f5f5" stroke="transparent" points="163.5,-561.5 163.5,-584.5 382.5,-584.5 382.5,-561.5 163.5,-561.5"/>
<polygon fill="none" stroke="#000000" points="163.5,-561.5 163.5,-584.5 382.5,-584.5 382.5,-561.5 163.5,-561.5"/>
<text text-anchor="start" x="168.5" y="-570.1" font-family="Helvetica,sans-Serif" font-weight="bold" font-size="11.00" fill="#000000">LOCATION</text>
<text text-anchor="start" x="347.5437" y="-569.6" font-family="Helvetica,sans-Serif" font-size="11.00" fill="#000000">[table]</text>
<polygon fill="none" stroke="#000000" points="163.5,-539.5 163.5,-561.5 315.5,-561.5 315.5,-539.5 163.5,-539.5"/>
<image xlink:href="../../images/primaryKeys.png" width="11px" height="12px" preserveAspectRatio="xMinYMin meet" x="168.5" y="-556.5"/>
<text text-anchor="start" x="183.5" y="-546.6" font-family="Helvetica,sans-Serif" font-size="11.00" fill="#000000">ID</text>
<polygon fill="none" stroke="#000000" points="315.5,-539.5 315.5,-561.5 382.5,-561.5 382.5,-539.5 315.5,-539.5"/>
<text text-anchor="start" x="318.5" y="-547.2" font-family="Helvetica,sans-Serif" font-size="11.00" fill="#000000">int[10]</text>
<polygon fill="none" stroke="#000000" points="163.5,-517.5 163.5,-539.5 315.5,-539.5 315.5,-517.5 163.5,-517.5"/>
<text text-anchor="start" x="183.5" y="-524.6" font-family="Helvetica,sans-Serif" font-size="11.00" fill="#000000">WORKSPACE_ID</text>
<polygon fill="none" stroke="#000000" points="315.5,-517.5 315.5,-539.5 382.5,-539.5 382.5,-517.5 315.5,-517.5"/>
<text text-anchor="start" x="318.5" y="-525.2" font-family="Helvetica,sans-Serif" font-size="11.00" fill="#000000">int[10]</text>
<polygon fill="none" stroke="#000000" points="163.5,-495.5 163.5,-517.5 315.5,-517.5 315.5,-495.5 163.5,-495.5"/>
<text text-anchor="start" x="183.5" y="-502.6" font-family="Helvetica,sans-Serif" font-size="11.00" fill="#000000">NAME</text>
<polygon fill="none" stroke="#000000" points="315.5,-495.5 315.5,-517.5 382.5,-517.5 382.5,-495.5 315.5,-495.5"/>
<text text-anchor="start" x="318.4365" y="-503.2" font-family="Helvetica,sans-Serif" font-size="11.00" fill="#000000">varchar[100]</text>
<polygon fill="none" stroke="#000000" points="163.5,-473.5 163.5,-495.5 315.5,-495.5 315.5,-473.5 163.5,-473.5"/>
<text text-anchor="start" x="183.5" y="-480.6" font-family="Helvetica,sans-Serif" font-size="11.00" fill="#000000">MAIL_ALIAS</text>
<polygon fill="none" stroke="#000000" points="315.5,-473.5 315.5,-495.5 382.5,-495.5 382.5,-473.5 315.5,-473.5"/>
<text text-anchor="start" x="318.4365" y="-481.2" font-family="Helvetica,sans-Serif" font-size="11.00" fill="#000000">varchar[100]</text>
<polygon fill="none" stroke="#000000" points="163.5,-451.5 163.5,-473.5 315.5,-473.5 315.5,-451.5 163.5,-451.5"/>
<text text-anchor="start" x="183.5" y="-458.6" font-family="Helvetica,sans-Serif" font-size="11.00" fill="#000000">COUNTRY</text>
<polygon fill="none" stroke="#000000" points="315.5,-451.5 315.5,-473.5 382.5,-473.5 382.5,-451.5 315.5,-451.5"/>
<text text-anchor="start" x="318.5" y="-459.2" font-family="Helvetica,sans-Serif" font-size="11.00" fill="#000000">varchar[50]</text>
<polygon fill="none" stroke="#000000" points="163.5,-429.5 163.5,-451.5 315.5,-451.5 315.5,-429.5 163.5,-429.5"/>
<text text-anchor="start" x="183.5" y="-436.6" font-family="Helvetica,sans-Serif" font-size="11.00" fill="#000000">DESCRIPTION</text>
<polygon fill="none" stroke="#000000" points="315.5,-429.5 315.5,-451.5 382.5,-451.5 382.5,-429.5 315.5,-429.5"/>
<text text-anchor="start" x="318.4365" y="-437.2" font-family="Helvetica,sans-Serif" font-size="11.00" fill="#000000">varchar[100]</text>
<polygon fill="none" stroke="#000000" points="163.5,-407.5 163.5,-429.5 315.5,-429.5 315.5,-407.5 163.5,-407.5"/>
<text text-anchor="start" x="183.5" y="-414.6" font-family="Helvetica,sans-Serif" font-size="11.00" fill="#000000">STATE_PROVINCE</text>
<polygon fill="none" stroke="#000000" points="315.5,-407.5 315.5,-429.5 382.5,-429.5 382.5,-407.5 315.5,-407.5"/>
<text text-anchor="start" x="318.5" y="-415.2" font-family="Helvetica,sans-Serif" font-size="11.00" fill="#000000">varchar[50]</text>
<polygon fill="none" stroke="#000000" points="163.5,-385.5 163.5,-407.5 315.5,-407.5 315.5,-385.5 163.5,-385.5"/>
<text text-anchor="start" x="183.5" y="-392.6" font-family="Helvetica,sans-Serif" font-size="11.00" fill="#000000">TIME_ZONE</text>
<polygon fill="none" stroke="#000000" points="315.5,-385.5 315.5,-407.5 382.5,-407.5 382.5,-385.5 315.5,-385.5"/>
<text text-anchor="start" x="318.5" y="-393.2" font-family="Helvetica,sans-Serif" font-size="11.00" fill="#000000">varchar[50]</text>
<polygon fill="none" stroke="#000000" points="163.5,-363.5 163.5,-385.5 315.5,-385.5 315.5,-363.5 163.5,-363.5"/>
<text text-anchor="start" x="183.5" y="-370.6" font-family="Helvetica,sans-Serif" font-size="11.00" fill="#000000">LOCATION_ID</text>
<polygon fill="none" stroke="#000000" points="315.5,-363.5 315.5,-385.5 382.5,-385.5 382.5,-363.5 315.5,-363.5"/>
<text text-anchor="start" x="318.5" y="-371.2" font-family="Helvetica,sans-Serif" font-size="11.00" fill="#000000">varchar[50]</text>
<polygon fill="none" stroke="#000000" points="163.5,-341.5 163.5,-363.5 315.5,-363.5 315.5,-341.5 163.5,-341.5"/>
<text text-anchor="start" x="183.5" y="-348.6" font-family="Helvetica,sans-Serif" font-size="11.00" fill="#000000">APPROVAL_STATUS</text>
<polygon fill="none" stroke="#000000" points="315.5,-341.5 315.5,-363.5 382.5,-363.5 382.5,-341.5 315.5,-341.5"/>
<text text-anchor="start" x="318.5" y="-349.2" font-family="Helvetica,sans-Serif" font-size="11.00" fill="#000000">enum[12]</text>
<polygon fill="none" stroke="#000000" points="163.5,-319.5 163.5,-341.5 315.5,-341.5 315.5,-319.5 163.5,-319.5"/>
<text text-anchor="start" x="183.5" y="-326.6" font-family="Helvetica,sans-Serif" font-size="11.00" fill="#000000">CREATED_TIME</text>
<polygon fill="none" stroke="#000000" points="315.5,-319.5 315.5,-341.5 382.5,-341.5 382.5,-319.5 315.5,-319.5"/>
<text text-anchor="start" x="318.5" y="-327.2" font-family="Helvetica,sans-Serif" font-size="11.00" fill="#000000">datetime[26]</text>
<polygon fill="none" stroke="#000000" points="163.5,-297.5 163.5,-319.5 315.5,-319.5 315.5,-297.5 163.5,-297.5"/>
<text text-anchor="start" x="183.5" y="-304.6" font-family="Helvetica,sans-Serif" font-size="11.00" fill="#000000">MODIFIED_TIME</text>
<polygon fill="none" stroke="#000000" points="315.5,-297.5 315.5,-319.5 382.5,-319.5 382.5,-297.5 315.5,-297.5"/>
<text text-anchor="start" x="318.5" y="-305.2" font-family="Helvetica,sans-Serif" font-size="11.00" fill="#000000">datetime[26]</text>
<polygon fill="#ffffff" stroke="transparent" points="163.5,-275.5 163.5,-297.5 315.5,-297.5 315.5,-275.5 163.5,-275.5"/>
<polygon fill="none" stroke="#000000" points="163.5,-275.5 163.5,-297.5 315.5,-297.5 315.5,-275.5 163.5,-275.5"/>
<image xlink:href="../../images/foreignKeys.png" width="11px" height="12px" preserveAspectRatio="xMinYMin meet" x="168.5" y="-292.5"/>
<text text-anchor="start" x="183.5" y="-282.6" font-family="Helvetica,sans-Serif" font-size="11.00" fill="#000000">CREATOR</text>
<polygon fill="none" stroke="#000000" points="315.5,-275.5 315.5,-297.5 382.5,-297.5 382.5,-275.5 315.5,-275.5"/>
<text text-anchor="start" x="318.5" y="-283.2" font-family="Helvetica,sans-Serif" font-size="11.00" fill="#000000">int[10]</text>
<polygon fill="#ffffff" stroke="transparent" points="163.5,-253.5 163.5,-275.5 315.5,-275.5 315.5,-253.5 163.5,-253.5"/>
<polygon fill="none" stroke="#000000" points="163.5,-253.5 163.5,-275.5 315.5,-275.5 315.5,-253.5 163.5,-253.5"/>
<image xlink:href="../../images/foreignKeys.png" width="11px" height="12px" preserveAspectRatio="xMinYMin meet" x="168.5" y="-270.5"/>
<text text-anchor="start" x="183.5" y="-260.6" font-family="Helvetica,sans-Serif" font-size="11.00" fill="#000000">LAST_MODIFIER</text>
<polygon fill="none" stroke="#000000" points="315.5,-253.5 315.5,-275.5 382.5,-275.5 382.5,-253.5 315.5,-253.5"/>
<text text-anchor="start" x="318.5" y="-261.2" font-family="Helvetica,sans-Serif" font-size="11.00" fill="#000000">int[10]</text>
<polygon fill="#ffffff" stroke="transparent" points="163.5,-234.5 163.5,-253.5 230.5,-253.5 230.5,-234.5 163.5,-234.5"/>
<polygon fill="none" stroke="#000000" points="163.5,-234.5 163.5,-253.5 230.5,-253.5 230.5,-234.5 163.5,-234.5"/>
<text text-anchor="start" x="166.5" y="-240.6" font-family="Helvetica,sans-Serif" font-size="11.00" fill="#000000">&lt; 2</text>
<polygon fill="#ffffff" stroke="transparent" points="230.5,-234.5 230.5,-253.5 315.5,-253.5 315.5,-234.5 230.5,-234.5"/>
<polygon fill="none" stroke="#000000" points="230.5,-234.5 230.5,-253.5 315.5,-253.5 315.5,-234.5 230.5,-234.5"/>
<text text-anchor="start" x="280.1105" y="-240.6" font-family="Helvetica,sans-Serif" font-size="11.00" fill="#000000">0 rows</text>
<polygon fill="#ffffff" stroke="transparent" points="315.5,-234.5 315.5,-253.5 382.5,-253.5 382.5,-234.5 315.5,-234.5"/>
<polygon fill="none" stroke="#000000" points="315.5,-234.5 315.5,-253.5 382.5,-253.5 382.5,-234.5 315.5,-234.5"/>
<text text-anchor="start" x="363.9053" y="-240.6" font-family="Helvetica,sans-Serif" font-size="11.00" fill="#000000">5 &gt;</text>
<polygon fill="none" stroke="#000000" stroke-width="2" points="162,-233.5 162,-585.5 383,-585.5 383,-233.5 162,-233.5"/>
</a>
</g>
</g>
<!-- APPLICABLE&#45;&gt;LOCATION -->
<g id="edge4" class="edge">
<title>APPLICABLE:w&#45;&gt;LOCATION:e</title>
<path fill="none" stroke="#000000" d="M737.3501,-678.4499C598.4078,-677.4618 552.0616,-661.4054 425,-590.5 402.349,-577.8599 408.4392,-550.5 382.5,-550.5"/>
<polygon fill="#000000" stroke="#000000" points="744,-678.4726 751.9877,-682.1 748,-678.4863 752,-678.5 752,-678.5 752,-678.5 748,-678.4863 752.0123,-674.9 744,-678.4726 744,-678.4726"/>
<ellipse fill="none" stroke="#000000" cx="740.8001" cy="-678.4616" rx="3.2" ry="3.2"/>
</g>
<!-- EMPLOYEE&#45;&gt;User -->
<g id="edge8" class="edge">
<title>EMPLOYEE:w&#45;&gt;User:e</title>
<path fill="none" stroke="#000000" d="M446.5987,-759.6797C316.9495,-762.8858 243.9279,-806.7577 153,-708.5 117.2455,-669.8633 164.6419,-236.5 112,-236.5"/>
<polygon fill="#000000" stroke="#000000" points="453.0006,-759.5998 461.0449,-763.0997 457.0003,-759.5499 461,-759.5 461,-759.5 461,-759.5 457.0003,-759.5499 460.9551,-755.9003 453.0006,-759.5998 453.0006,-759.5998"/>
<ellipse fill="none" stroke="#000000" cx="449.8009" cy="-759.6398" rx="3.2" ry="3.2"/>
</g>
<!-- EMPLOYEE&#45;&gt;User -->
<g id="edge9" class="edge">
<title>EMPLOYEE:w&#45;&gt;User:e</title>
<path fill="none" stroke="#000000" d="M446.4813,-736.1278C425.6378,-731.7906 418.1415,-718.1531 392,-709.5 287.8208,-675.0158 224.3813,-730.8497 153,-647.5 93.2956,-577.7851 203.7867,-236.5 112,-236.5"/>
<polygon fill="#000000" stroke="#000000" points="453.0355,-736.7472 460.6613,-741.084 457.0177,-737.1236 461,-737.5 461,-737.5 461,-737.5 457.0177,-737.1236 461.3387,-733.916 453.0355,-736.7472 453.0355,-736.7472"/>
<ellipse fill="none" stroke="#000000" cx="449.8497" cy="-736.4461" rx="3.2" ry="3.2"/>
</g>
<!-- EMPLOYEE&#45;&gt;LOCATION -->
<g id="edge10" class="edge">
<title>EMPLOYEE:w&#45;&gt;LOCATION:e</title>
<path fill="none" stroke="#000000" d="M447.6188,-797.9804C408.2722,-760.9817 436.1925,-550.5 382.5,-550.5"/>
<polygon fill="#000000" stroke="#000000" points="453.6044,-800.4494 459.6272,-806.828 457.3022,-801.9747 461,-803.5 461,-803.5 461,-803.5 457.3022,-801.9747 462.3728,-800.172 453.6044,-800.4494 453.6044,-800.4494"/>
<ellipse fill="none" stroke="#000000" cx="450.6462" cy="-799.2292" rx="3.2" ry="3.2"/>
</g>
<!-- LOCATION&#45;&gt;User -->
<g id="edge14" class="edge">
<title>LOCATION:w&#45;&gt;User:e</title>
<path fill="none" stroke="#000000" d="M149.6347,-281.8857C134.6579,-269.5078 137.9203,-236.5 112,-236.5"/>
<polygon fill="#000000" stroke="#000000" points="155.9093,-283.9738 162.3632,-289.9158 159.7046,-285.2369 163.5,-286.5 163.5,-286.5 163.5,-286.5 159.7046,-285.2369 164.6368,-283.0842 155.9093,-283.9738 155.9093,-283.9738"/>
<ellipse fill="none" stroke="#000000" cx="152.873" cy="-282.9634" rx="3.2" ry="3.2"/>
</g>
<!-- LOCATION&#45;&gt;User -->
<g id="edge15" class="edge">
<title>LOCATION:w&#45;&gt;User:e</title>
<path fill="none" stroke="#000000" d="M149.2773,-260.8395C136.3531,-253.2498 132.1505,-236.5 112,-236.5"/>
<polygon fill="#000000" stroke="#000000" points="155.7525,-262.506 162.6027,-267.9864 159.6262,-263.503 163.5,-264.5 163.5,-264.5 163.5,-264.5 159.6262,-263.503 164.3973,-261.0136 155.7525,-262.506 155.7525,-262.506"/>
<ellipse fill="none" stroke="#000000" cx="152.6535" cy="-261.7084" rx="3.2" ry="3.2"/>
</g>
<!-- CANDIDATE -->
<g id="node5" class="node">
<title>CANDIDATE</title>
<g id="a_node5"><a xlink:href="../../tables/CANDIDATE.html" xlink:title="CANDIDATE" target="_top">
<polygon fill="#ffffff" stroke="transparent" points="465,-409 465,-580 671,-580 671,-409 465,-409"/>
<polygon fill="#f5f5f5" stroke="transparent" points="465,-556.5 465,-579.5 671,-579.5 671,-556.5 465,-556.5"/>
<polygon fill="none" stroke="#000000" points="465,-556.5 465,-579.5 671,-579.5 671,-556.5 465,-556.5"/>
<text text-anchor="start" x="470" y="-565.1" font-family="Helvetica,sans-Serif" font-weight="bold" font-size="11.00" fill="#000000">CANDIDATE</text>
<text text-anchor="start" x="636.0437" y="-564.6" font-family="Helvetica,sans-Serif" font-size="11.00" fill="#000000">[table]</text>
<polygon fill="none" stroke="#000000" points="465,-534.5 465,-556.5 671,-556.5 671,-534.5 465,-534.5"/>
<image xlink:href="../../images/primaryKeys.png" width="11px" height="12px" preserveAspectRatio="xMinYMin meet" x="470" y="-551.5"/>
<text text-anchor="start" x="485" y="-541.6" font-family="Helvetica,sans-Serif" font-size="11.00" fill="#000000">ID</text>
<polygon fill="#ffffff" stroke="transparent" points="465,-512.5 465,-534.5 671,-534.5 671,-512.5 465,-512.5"/>
<polygon fill="none" stroke="#000000" points="465,-512.5 465,-534.5 671,-534.5 671,-512.5 465,-512.5"/>
<image xlink:href="../../images/foreignKeys.png" width="11px" height="12px" preserveAspectRatio="xMinYMin meet" x="470" y="-529.5"/>
<text text-anchor="start" x="485" y="-519.6" font-family="Helvetica,sans-Serif" font-size="11.00" fill="#000000">LOCATION_ID</text>
<polygon fill="#ffffff" stroke="transparent" points="465,-490.5 465,-512.5 671,-512.5 671,-490.5 465,-490.5"/>
<polygon fill="none" stroke="#000000" points="465,-490.5 465,-512.5 671,-512.5 671,-490.5 465,-490.5"/>
<image xlink:href="../../images/foreignKeys.png" width="11px" height="12px" preserveAspectRatio="xMinYMin meet" x="470" y="-507.5"/>
<text text-anchor="start" x="485" y="-497.6" font-family="Helvetica,sans-Serif" font-size="11.00" fill="#000000">DEPARTMENT_ID</text>
<polygon fill="#ffffff" stroke="transparent" points="465,-468.5 465,-490.5 671,-490.5 671,-468.5 465,-468.5"/>
<polygon fill="none" stroke="#000000" points="465,-468.5 465,-490.5 671,-490.5 671,-468.5 465,-468.5"/>
<image xlink:href="../../images/foreignKeys.png" width="11px" height="12px" preserveAspectRatio="xMinYMin meet" x="470" y="-485.5"/>
<text text-anchor="start" x="485" y="-475.6" font-family="Helvetica,sans-Serif" font-size="11.00" fill="#000000">CREATOR</text>
<polygon fill="#ffffff" stroke="transparent" points="465,-446.5 465,-468.5 671,-468.5 671,-446.5 465,-446.5"/>
<polygon fill="none" stroke="#000000" points="465,-446.5 465,-468.5 671,-468.5 671,-446.5 465,-446.5"/>
<image xlink:href="../../images/foreignKeys.png" width="11px" height="12px" preserveAspectRatio="xMinYMin meet" x="470" y="-463.5"/>
<text text-anchor="start" x="485" y="-453.6" font-family="Helvetica,sans-Serif" font-size="11.00" fill="#000000">LAST_MODIFIER</text>
<polygon fill="none" stroke="#000000" points="465,-427.5 465,-446.5 671,-446.5 671,-427.5 465,-427.5"/>
<text text-anchor="start" x="468" y="-433.6" font-family="Helvetica,sans-Serif" font-size="11.00" fill="#000000">...</text>
<polygon fill="#ffffff" stroke="transparent" points="465,-408.5 465,-427.5 549,-427.5 549,-408.5 465,-408.5"/>
<polygon fill="none" stroke="#000000" points="465,-408.5 465,-427.5 549,-427.5 549,-408.5 465,-408.5"/>
<text text-anchor="start" x="468" y="-414.6" font-family="Helvetica,sans-Serif" font-size="11.00" fill="#000000">&lt; 4</text>
<polygon fill="#ffffff" stroke="transparent" points="549,-408.5 549,-427.5 618,-427.5 618,-408.5 549,-408.5"/>
<polygon fill="none" stroke="#000000" points="549,-408.5 549,-427.5 618,-427.5 618,-408.5 549,-408.5"/>
<text text-anchor="start" x="582.6105" y="-414.6" font-family="Helvetica,sans-Serif" font-size="11.00" fill="#000000">0 rows</text>
<polygon fill="#ffffff" stroke="transparent" points="618,-408.5 618,-427.5 671,-427.5 671,-408.5 618,-408.5"/>
<polygon fill="none" stroke="#000000" points="618,-408.5 618,-427.5 671,-427.5 671,-408.5 618,-408.5"/>
<text text-anchor="start" x="652.4053" y="-414.6" font-family="Helvetica,sans-Serif" font-size="11.00" fill="#000000">2 &gt;</text>
</a>
</g>
</g>
<!-- CANDIDATE&#45;&gt;User -->
<g id="edge5" class="edge">
<title>CANDIDATE:w&#45;&gt;User:e</title>
<path fill="none" stroke="#000000" d="M450.6757,-476.9548C428.0322,-467.1961 435.8705,-431.0818 425,-398.5 399.8124,-323.0056 453.2416,-273.3261 392,-222.5 351.1305,-188.5813 205.3939,-213.8013 153,-222.5 134.0047,-225.6537 131.2553,-236.5 112,-236.5"/>
<polygon fill="#000000" stroke="#000000" points="457.1234,-478.1004 464.3702,-483.0445 461.0617,-478.8002 465,-479.5 465,-479.5 465,-479.5 461.0617,-478.8002 465.6298,-475.9555 457.1234,-478.1004 457.1234,-478.1004"/>
<ellipse fill="none" stroke="#000000" cx="453.9727" cy="-477.5406" rx="3.2" ry="3.2"/>
</g>
<!-- CANDIDATE&#45;&gt;User -->
<g id="edge6" class="edge">
<title>CANDIDATE:w&#45;&gt;User:e</title>
<path fill="none" stroke="#000000" d="M450.5536,-454.5754C434.0804,-446.4101 434.5686,-422.3958 425,-398.5 391.999,-316.0863 459.7611,-258.8544 392,-201.5 351.461,-167.187 202.8306,-183.1234 153,-201.5 130.521,-209.7898 135.9588,-236.5 112,-236.5"/>
<polygon fill="#000000" stroke="#000000" points="457.1591,-455.9126 464.2857,-461.0284 461.0795,-456.7063 465,-457.5 465,-457.5 465,-457.5 461.0795,-456.7063 465.7143,-453.9716 457.1591,-455.9126 457.1591,-455.9126"/>
<ellipse fill="none" stroke="#000000" cx="454.0227" cy="-455.2777" rx="3.2" ry="3.2"/>
</g>
<!-- CANDIDATE&#45;&gt;LOCATION -->
<g id="edge7" class="edge">
<title>CANDIDATE:w&#45;&gt;LOCATION:e</title>
<path fill="none" stroke="#000000" d="M450.5111,-524.9516C424.2606,-530.5598 415.655,-550.5 382.5,-550.5"/>
<polygon fill="#000000" stroke="#000000" points="457.0399,-524.2976 465.3589,-527.0821 461.0199,-523.8988 465,-523.5 465,-523.5 465,-523.5 461.0199,-523.8988 464.6411,-519.9179 457.0399,-524.2976 457.0399,-524.2976"/>
<ellipse fill="none" stroke="#000000" cx="453.8558" cy="-524.6166" rx="3.2" ry="3.2"/>
</g>
<!-- EXCEPTIONS -->
<g id="node6" class="node">
<title>EXCEPTIONS</title>
<g id="a_node6"><a xlink:href="../../tables/EXCEPTIONS.html" xlink:title="EXCEPTIONS" target="_top">
<polygon fill="#ffffff" stroke="transparent" points="501,-195 501,-388 635,-388 635,-195 501,-195"/>
<polygon fill="#f5f5f5" stroke="transparent" points="501,-364.5 501,-387.5 635,-387.5 635,-364.5 501,-364.5"/>
<polygon fill="none" stroke="#000000" points="501,-364.5 501,-387.5 635,-387.5 635,-364.5 501,-364.5"/>
<text text-anchor="start" x="506" y="-373.1" font-family="Helvetica,sans-Serif" font-weight="bold" font-size="11.00" fill="#000000">EXCEPTIONS</text>
<text text-anchor="start" x="600.0437" y="-372.6" font-family="Helvetica,sans-Serif" font-size="11.00" fill="#000000">[table]</text>
<polygon fill="none" stroke="#000000" points="501,-342.5 501,-364.5 635,-364.5 635,-342.5 501,-342.5"/>
<image xlink:href="../../images/primaryKeys.png" width="11px" height="12px" preserveAspectRatio="xMinYMin meet" x="506" y="-359.5"/>
<text text-anchor="start" x="521" y="-349.6" font-family="Helvetica,sans-Serif" font-size="11.00" fill="#000000">ID</text>
<polygon fill="#ffffff" stroke="transparent" points="501,-320.5 501,-342.5 635,-342.5 635,-320.5 501,-320.5"/>
<polygon fill="none" stroke="#000000" points="501,-320.5 501,-342.5 635,-342.5 635,-320.5 501,-320.5"/>
<image xlink:href="../../images/foreignKeys.png" width="11px" height="12px" preserveAspectRatio="xMinYMin meet" x="506" y="-337.5"/>
<text text-anchor="start" x="521" y="-327.6" font-family="Helvetica,sans-Serif" font-size="11.00" fill="#000000">DEPARTMENT_ID</text>
<polygon fill="#ffffff" stroke="transparent" points="501,-298.5 501,-320.5 635,-320.5 635,-298.5 501,-298.5"/>
<polygon fill="none" stroke="#000000" points="501,-298.5 501,-320.5 635,-320.5 635,-298.5 501,-298.5"/>
<image xlink:href="../../images/foreignKeys.png" width="11px" height="12px" preserveAspectRatio="xMinYMin meet" x="506" y="-315.5"/>
<text text-anchor="start" x="521" y="-305.6" font-family="Helvetica,sans-Serif" font-size="11.00" fill="#000000">DESIGNATION_ID</text>
<polygon fill="#ffffff" stroke="transparent" points="501,-276.5 501,-298.5 635,-298.5 635,-276.5 501,-276.5"/>
<polygon fill="none" stroke="#000000" points="501,-276.5 501,-298.5 635,-298.5 635,-276.5 501,-276.5"/>
<image xlink:href="../../images/foreignKeys.png" width="11px" height="12px" preserveAspectRatio="xMinYMin meet" x="506" y="-293.5"/>
<text text-anchor="start" x="521" y="-283.6" font-family="Helvetica,sans-Serif" font-size="11.00" fill="#000000">LOCATION_ID</text>
<polygon fill="#ffffff" stroke="transparent" points="501,-254.5 501,-276.5 635,-276.5 635,-254.5 501,-254.5"/>
<polygon fill="none" stroke="#000000" points="501,-254.5 501,-276.5 635,-276.5 635,-254.5 501,-254.5"/>
<image xlink:href="../../images/foreignKeys.png" width="11px" height="12px" preserveAspectRatio="xMinYMin meet" x="506" y="-271.5"/>
<text text-anchor="start" x="521" y="-261.6" font-family="Helvetica,sans-Serif" font-size="11.00" fill="#000000">CREATOR</text>
<polygon fill="#ffffff" stroke="transparent" points="501,-232.5 501,-254.5 635,-254.5 635,-232.5 501,-232.5"/>
<polygon fill="none" stroke="#000000" points="501,-232.5 501,-254.5 635,-254.5 635,-232.5 501,-232.5"/>
<image xlink:href="../../images/foreignKeys.png" width="11px" height="12px" preserveAspectRatio="xMinYMin meet" x="506" y="-249.5"/>
<text text-anchor="start" x="521" y="-239.6" font-family="Helvetica,sans-Serif" font-size="11.00" fill="#000000">LAST_MODIFIER</text>
<polygon fill="none" stroke="#000000" points="501,-213.5 501,-232.5 635,-232.5 635,-213.5 501,-213.5"/>
<text text-anchor="start" x="504" y="-219.6" font-family="Helvetica,sans-Serif" font-size="11.00" fill="#000000">...</text>
<polygon fill="#ffffff" stroke="transparent" points="501,-194.5 501,-213.5 553,-213.5 553,-194.5 501,-194.5"/>
<polygon fill="none" stroke="#000000" points="501,-194.5 501,-213.5 553,-213.5 553,-194.5 501,-194.5"/>
<text text-anchor="start" x="504" y="-200.6" font-family="Helvetica,sans-Serif" font-size="11.00" fill="#000000">&lt; 5</text>
<polygon fill="#ffffff" stroke="transparent" points="553,-194.5 553,-213.5 607,-213.5 607,-194.5 553,-194.5"/>
<polygon fill="none" stroke="#000000" points="553,-194.5 553,-213.5 607,-213.5 607,-194.5 553,-194.5"/>
<text text-anchor="start" x="571.6105" y="-200.6" font-family="Helvetica,sans-Serif" font-size="11.00" fill="#000000">0 rows</text>
<polygon fill="#ffffff" stroke="transparent" points="607,-194.5 607,-213.5 635,-213.5 635,-194.5 607,-194.5"/>
<polygon fill="none" stroke="#000000" points="607,-194.5 607,-213.5 635,-213.5 635,-194.5 607,-194.5"/>
<text text-anchor="start" x="625.8862" y="-200.6" font-family="Helvetica,sans-Serif" font-size="11.00" fill="#000000"> &#160;</text>
</a>
</g>
</g>
<!-- EXCEPTIONS&#45;&gt;User -->
<g id="edge11" class="edge">
<title>EXCEPTIONS:w&#45;&gt;User:e</title>
<path fill="none" stroke="#000000" d="M486.4609,-264.0543C439.0095,-253.8027 446.9276,-191.9132 392,-171.5 292.4314,-134.4965 246.0128,-120.1991 153,-171.5 123.0917,-187.9958 146.1558,-236.5 112,-236.5"/>
<polygon fill="#000000" stroke="#000000" points="493.0393,-264.7083 500.6438,-269.0823 497.0196,-265.1042 501,-265.5 501,-265.5 501,-265.5 497.0196,-265.1042 501.3562,-261.9177 493.0393,-264.7083 493.0393,-264.7083"/>
<ellipse fill="none" stroke="#000000" cx="489.855" cy="-264.3917" rx="3.2" ry="3.2"/>
</g>
<!-- EXCEPTIONS&#45;&gt;User -->
<g id="edge12" class="edge">
<title>EXCEPTIONS:w&#45;&gt;User:e</title>
<path fill="none" stroke="#000000" d="M486.2768,-242.1492C456.8825,-236.1872 450.8363,-211.3326 425,-184.5 407.548,-166.375 414.3843,-149.9903 392,-138.5 344.7504,-114.2458 197.2124,-109.0713 153,-138.5 113.6969,-164.661 159.2137,-236.5 112,-236.5"/>
<polygon fill="#000000" stroke="#000000" points="493.0335,-242.769 500.6711,-247.0849 497.0167,-243.1345 501,-243.5 501,-243.5 501,-243.5 497.0167,-243.1345 501.3289,-239.9151 493.0335,-242.769 493.0335,-242.769"/>
<ellipse fill="none" stroke="#000000" cx="489.8468" cy="-242.4767" rx="3.2" ry="3.2"/>
</g>
<!-- EXCEPTIONS&#45;&gt;LOCATION -->
<g id="edge13" class="edge">
<title>EXCEPTIONS:w&#45;&gt;LOCATION:e</title>
<path fill="none" stroke="#000000" d="M486.4776,-288.8328C442.563,-297.6881 448.0064,-349.1852 425,-398.5 395.3436,-462.0692 452.6466,-550.5 382.5,-550.5"/>
<polygon fill="#000000" stroke="#000000" points="493.0335,-288.2312 501.329,-291.0849 497.0167,-287.8656 501,-287.5 501,-287.5 501,-287.5 497.0167,-287.8656 500.671,-283.9151 493.0335,-288.2312 493.0335,-288.2312"/>
<ellipse fill="none" stroke="#000000" cx="489.8469" cy="-288.5236" rx="3.2" ry="3.2"/>
</g>
<!-- PAYROLL -->
<g id="node7" class="node">
<title>PAYROLL</title>
<g id="a_node7"><a xlink:href="../../tables/PAYROLL.html" xlink:title="PAYROLL" target="_top">
<polygon fill="#ffffff" stroke="transparent" points="433,-25 433,-174 703,-174 703,-25 433,-25"/>
<polygon fill="#f5f5f5" stroke="transparent" points="433,-150.5 433,-173.5 703,-173.5 703,-150.5 433,-150.5"/>
<polygon fill="none" stroke="#000000" points="433,-150.5 433,-173.5 703,-173.5 703,-150.5 433,-150.5"/>
<text text-anchor="start" x="438" y="-159.1" font-family="Helvetica,sans-Serif" font-weight="bold" font-size="11.00" fill="#000000">PAYROLL</text>
<text text-anchor="start" x="668.0437" y="-158.6" font-family="Helvetica,sans-Serif" font-size="11.00" fill="#000000">[table]</text>
<polygon fill="none" stroke="#000000" points="433,-128.5 433,-150.5 703,-150.5 703,-128.5 433,-128.5"/>
<image xlink:href="../../images/primaryKeys.png" width="11px" height="12px" preserveAspectRatio="xMinYMin meet" x="438" y="-145.5"/>
<text text-anchor="start" x="453" y="-135.6" font-family="Helvetica,sans-Serif" font-size="11.00" fill="#000000">ID</text>
<polygon fill="#ffffff" stroke="transparent" points="433,-106.5 433,-128.5 703,-128.5 703,-106.5 433,-106.5"/>
<polygon fill="none" stroke="#000000" points="433,-106.5 433,-128.5 703,-128.5 703,-106.5 433,-106.5"/>
<image xlink:href="../../images/foreignKeys.png" width="11px" height="12px" preserveAspectRatio="xMinYMin meet" x="438" y="-123.5"/>
<text text-anchor="start" x="453" y="-113.6" font-family="Helvetica,sans-Serif" font-size="11.00" fill="#000000">LOCATION_ID</text>
<polygon fill="#ffffff" stroke="transparent" points="433,-84.5 433,-106.5 703,-106.5 703,-84.5 433,-84.5"/>
<polygon fill="none" stroke="#000000" points="433,-84.5 433,-106.5 703,-106.5 703,-84.5 433,-84.5"/>
<image xlink:href="../../images/foreignKeys.png" width="11px" height="12px" preserveAspectRatio="xMinYMin meet" x="438" y="-101.5"/>
<text text-anchor="start" x="453" y="-91.6" font-family="Helvetica,sans-Serif" font-size="11.00" fill="#000000">CREATOR</text>
<polygon fill="#ffffff" stroke="transparent" points="433,-62.5 433,-84.5 703,-84.5 703,-62.5 433,-62.5"/>
<polygon fill="none" stroke="#000000" points="433,-62.5 433,-84.5 703,-84.5 703,-62.5 433,-62.5"/>
<image xlink:href="../../images/foreignKeys.png" width="11px" height="12px" preserveAspectRatio="xMinYMin meet" x="438" y="-79.5"/>
<text text-anchor="start" x="453" y="-69.6" font-family="Helvetica,sans-Serif" font-size="11.00" fill="#000000">LAST_MODIFIER</text>
<polygon fill="none" stroke="#000000" points="433,-43.5 433,-62.5 703,-62.5 703,-43.5 433,-43.5"/>
<text text-anchor="start" x="436" y="-49.6" font-family="Helvetica,sans-Serif" font-size="11.00" fill="#000000">...</text>
<polygon fill="#ffffff" stroke="transparent" points="433,-24.5 433,-43.5 553,-43.5 553,-24.5 433,-24.5"/>
<polygon fill="none" stroke="#000000" points="433,-24.5 433,-43.5 553,-43.5 553,-24.5 433,-24.5"/>
<text text-anchor="start" x="436" y="-30.6" font-family="Helvetica,sans-Serif" font-size="11.00" fill="#000000">&lt; 3</text>
<polygon fill="#ffffff" stroke="transparent" points="553,-24.5 553,-43.5 641,-43.5 641,-24.5 553,-24.5"/>
<polygon fill="none" stroke="#000000" points="553,-24.5 553,-43.5 641,-43.5 641,-24.5 553,-24.5"/>
<text text-anchor="start" x="605.6105" y="-30.6" font-family="Helvetica,sans-Serif" font-size="11.00" fill="#000000">0 rows</text>
<polygon fill="#ffffff" stroke="transparent" points="641,-24.5 641,-43.5 703,-43.5 703,-24.5 641,-24.5"/>
<polygon fill="none" stroke="#000000" points="641,-24.5 641,-43.5 703,-43.5 703,-24.5 641,-24.5"/>
<text text-anchor="start" x="693.8862" y="-30.6" font-family="Helvetica,sans-Serif" font-size="11.00" fill="#000000"> &#160;</text>
</a>
</g>
</g>
<!-- PAYROLL&#45;&gt;User -->
<g id="edge16" class="edge">
<title>PAYROLL:w&#45;&gt;User:e</title>
<path fill="none" stroke="#000000" d="M418.3524,-95.2433C347.5611,-93.0972 198.9043,-79.0811 153,-114.5 107.7116,-149.4437 169.2023,-236.5 112,-236.5"/>
<polygon fill="#000000" stroke="#000000" points="425.0012,-95.3598 432.9369,-99.0994 429.0006,-95.4299 433,-95.5 433,-95.5 433,-95.5 429.0006,-95.4299 433.0631,-91.9006 425.0012,-95.3598 425.0012,-95.3598"/>
<ellipse fill="none" stroke="#000000" cx="421.8017" cy="-95.3037" rx="3.2" ry="3.2"/>
</g>
<!-- PAYROLL&#45;&gt;User -->
<g id="edge17" class="edge">
<title>PAYROLL:w&#45;&gt;User:e</title>
<path fill="none" stroke="#000000" d="M418.3459,-73.2056C303.6762,-68.6049 246.2977,-12.6512 153,-87.5 99.4262,-130.48 180.6836,-236.5 112,-236.5"/>
<polygon fill="#000000" stroke="#000000" points="425.0016,-73.3392 432.9277,-77.0993 429.0008,-73.4196 433,-73.5 433,-73.5 433,-73.5 429.0008,-73.4196 433.0723,-69.9007 425.0016,-73.3392 425.0016,-73.3392"/>
<ellipse fill="none" stroke="#000000" cx="421.8023" cy="-73.2749" rx="3.2" ry="3.2"/>
</g>
<!-- PAYROLL&#45;&gt;LOCATION -->
<g id="edge18" class="edge">
<title>PAYROLL:w&#45;&gt;LOCATION:e</title>
<path fill="none" stroke="#000000" d="M418.7627,-121.51C351.5826,-165.1616 473.8874,-550.5 382.5,-550.5"/>
<polygon fill="#000000" stroke="#000000" points="425.2996,-119.6689 433.976,-120.9652 429.1498,-118.5845 433,-117.5 433,-117.5 433,-117.5 429.1498,-118.5845 432.024,-114.0348 425.2996,-119.6689 425.2996,-119.6689"/>
<ellipse fill="none" stroke="#000000" cx="422.2195" cy="-120.5365" rx="3.2" ry="3.2"/>
</g>
</g>
</svg>
