<?xml version="1.0" encoding="UTF-8" standalone="no"?>
<!DOCTYPE svg PUBLIC "-//W3C//DTD SVG 1.1//EN"
 "http://www.w3.org/Graphics/SVG/1.1/DTD/svg11.dtd">
<!-- Generated by graphviz version 2.40.1 (20161225.0304)
 -->
<!-- Title: oneDegreeRelationshipsDiagram Pages: 1 -->
<svg width="937pt" height="462pt"
 viewBox="0.00 0.00 937.00 462.13" xmlns="http://www.w3.org/2000/svg" xmlns:xlink="http://www.w3.org/1999/xlink">
<g id="graph0" class="graph" transform="scale(1 1) rotate(0) translate(4 458.1302)">
<title>oneDegreeRelationshipsDiagram</title>
<polygon fill="#ffffff" stroke="transparent" points="-4,4 -4,-458.1302 933,-458.1302 933,4 -4,4"/>
<!-- APPLICANT -->
<g id="node1" class="node">
<title>APPLICANT</title>
<g id="a_node1"><a xlink:href="../../tables/APPLICANT.html" xlink:title="APPLICANT" target="_top">
<polygon fill="#ffffff" stroke="transparent" points="398.5,-103.5 398.5,-230.5 589.5,-230.5 589.5,-103.5 398.5,-103.5"/>
<polygon fill="#f5f5f5" stroke="transparent" points="399,-207 399,-230 590,-230 590,-207 399,-207"/>
<polygon fill="none" stroke="#000000" points="399,-207 399,-230 590,-230 590,-207 399,-207"/>
<text text-anchor="start" x="404" y="-215.6" font-family="Helvetica,sans-Serif" font-weight="bold" font-size="11.00" fill="#000000">APPLICANT</text>
<text text-anchor="start" x="555.0437" y="-215.1" font-family="Helvetica,sans-Serif" font-size="11.00" fill="#000000">[table]</text>
<polygon fill="none" stroke="#000000" points="399,-185 399,-207 590,-207 590,-185 399,-185"/>
<image xlink:href="../../images/primaryKeys.png" width="11px" height="12px" preserveAspectRatio="xMinYMin meet" x="404" y="-202"/>
<text text-anchor="start" x="419" y="-192.1" font-family="Helvetica,sans-Serif" font-size="11.00" fill="#000000">ID</text>
<polygon fill="#ffffff" stroke="transparent" points="399,-163 399,-185 590,-185 590,-163 399,-163"/>
<polygon fill="none" stroke="#000000" points="399,-163 399,-185 590,-185 590,-163 399,-163"/>
<image xlink:href="../../images/foreignKeys.png" width="11px" height="12px" preserveAspectRatio="xMinYMin meet" x="404" y="-180"/>
<text text-anchor="start" x="419" y="-170.1" font-family="Helvetica,sans-Serif" font-size="11.00" fill="#000000">CREATOR</text>
<polygon fill="#ffffff" stroke="transparent" points="399,-141 399,-163 590,-163 590,-141 399,-141"/>
<polygon fill="none" stroke="#000000" points="399,-141 399,-163 590,-163 590,-141 399,-141"/>
<image xlink:href="../../images/foreignKeys.png" width="11px" height="12px" preserveAspectRatio="xMinYMin meet" x="404" y="-158"/>
<text text-anchor="start" x="419" y="-148.1" font-family="Helvetica,sans-Serif" font-size="11.00" fill="#000000">LAST_MODIFIER</text>
<polygon fill="none" stroke="#000000" points="399,-122 399,-141 590,-141 590,-122 399,-122"/>
<text text-anchor="start" x="402" y="-128.1" font-family="Helvetica,sans-Serif" font-size="11.00" fill="#000000">...</text>
<polygon fill="#ffffff" stroke="transparent" points="399,-103 399,-122 475,-122 475,-103 399,-103"/>
<polygon fill="none" stroke="#000000" points="399,-103 399,-122 475,-122 475,-103 399,-103"/>
<text text-anchor="start" x="402" y="-109.1" font-family="Helvetica,sans-Serif" font-size="11.00" fill="#000000">&lt; 2</text>
<polygon fill="#ffffff" stroke="transparent" points="475,-103 475,-122 541,-122 541,-103 475,-103"/>
<polygon fill="none" stroke="#000000" points="475,-103 475,-122 541,-122 541,-103 475,-103"/>
<text text-anchor="start" x="505.6105" y="-109.1" font-family="Helvetica,sans-Serif" font-size="11.00" fill="#000000">0 rows</text>
<polygon fill="#ffffff" stroke="transparent" points="541,-103 541,-122 590,-122 590,-103 541,-103"/>
<polygon fill="none" stroke="#000000" points="541,-103 541,-122 590,-122 590,-103 541,-103"/>
<text text-anchor="start" x="571.4053" y="-109.1" font-family="Helvetica,sans-Serif" font-size="11.00" fill="#000000">3 &gt;</text>
</a>
</g>
</g>
<!-- User -->
<g id="node2" class="node">
<title>User</title>
<g id="a_node2"><a xlink:href="../../tables/User.html" xlink:title="User" target="_top">
<polygon fill="#ffffff" stroke="transparent" points="8,-140.5 8,-223.5 112,-223.5 112,-140.5 8,-140.5"/>
<polygon fill="#f5f5f5" stroke="transparent" points="8,-200 8,-223 112,-223 112,-200 8,-200"/>
<polygon fill="none" stroke="#000000" points="8,-200 8,-223 112,-223 112,-200 8,-200"/>
<text text-anchor="start" x="13" y="-208.6" font-family="Helvetica,sans-Serif" font-weight="bold" font-size="11.00" fill="#000000">User</text>
<text text-anchor="start" x="77.0437" y="-208.1" font-family="Helvetica,sans-Serif" font-size="11.00" fill="#000000">[table]</text>
<polygon fill="none" stroke="#000000" points="8,-178 8,-200 112,-200 112,-178 8,-178"/>
<image xlink:href="../../images/primaryKeys.png" width="11px" height="12px" preserveAspectRatio="xMinYMin meet" x="13" y="-195"/>
<text text-anchor="start" x="28" y="-185.1" font-family="Helvetica,sans-Serif" font-size="11.00" fill="#000000">userid_pk</text>
<polygon fill="none" stroke="#000000" points="8,-159 8,-178 112,-178 112,-159 8,-159"/>
<text text-anchor="start" x="11" y="-165.1" font-family="Helvetica,sans-Serif" font-size="11.00" fill="#000000">...</text>
<polygon fill="#ffffff" stroke="transparent" points="8,-140 8,-159 30,-159 30,-140 8,-140"/>
<polygon fill="none" stroke="#000000" points="8,-140 8,-159 30,-159 30,-140 8,-140"/>
<text text-anchor="start" x="11" y="-146.1" font-family="Helvetica,sans-Serif" font-size="11.00" fill="#000000"> &#160;</text>
<polygon fill="#ffffff" stroke="transparent" points="30,-140 30,-159 73,-159 73,-140 30,-140"/>
<polygon fill="none" stroke="#000000" points="30,-140 30,-159 73,-159 73,-140 30,-140"/>
<text text-anchor="start" x="37.6105" y="-146.1" font-family="Helvetica,sans-Serif" font-size="11.00" fill="#000000">0 rows</text>
<polygon fill="#ffffff" stroke="transparent" points="73,-140 73,-159 112,-159 112,-140 73,-140"/>
<polygon fill="none" stroke="#000000" points="73,-140 73,-159 112,-159 112,-140 73,-140"/>
<text text-anchor="start" x="81.1755" y="-146.1" font-family="Helvetica,sans-Serif" font-size="11.00" fill="#000000">102 &gt;</text>
</a>
</g>
</g>
<!-- APPLICANT&#45;&gt;User -->
<g id="edge1" class="edge">
<title>APPLICANT:w&#45;&gt;User:e</title>
<path fill="none" stroke="#000000" d="M384.4605,-174.0669C268.6595,-175.149 234.7402,-189 112,-189"/>
<polygon fill="#000000" stroke="#000000" points="391.0001,-174.0369 399.0166,-177.6 395,-174.0184 399,-174 399,-174 399,-174 395,-174.0184 398.9834,-170.4 391.0001,-174.0369 391.0001,-174.0369"/>
<ellipse fill="none" stroke="#000000" cx="387.8001" cy="-174.0516" rx="3.2" ry="3.2"/>
</g>
<!-- APPLICANT&#45;&gt;User -->
<g id="edge2" class="edge">
<title>APPLICANT:w&#45;&gt;User:e</title>
<path fill="none" stroke="#000000" d="M384.3861,-151.9672C286.4193,-151.5373 254.7315,-147.4181 153,-172 133.8253,-176.6333 131.7265,-189 112,-189"/>
<polygon fill="#000000" stroke="#000000" points="391,-151.982 398.9919,-155.6 395,-151.991 399,-152 399,-152 399,-152 395,-151.991 399.0081,-148.4 391,-151.982 391,-151.982"/>
<ellipse fill="none" stroke="#000000" cx="387.8" cy="-151.9748" rx="3.2" ry="3.2"/>
</g>
<!-- DEPARTMENT -->
<g id="node3" class="node">
<title>DEPARTMENT</title>
<g id="a_node3"><a xlink:href="../../tables/DEPARTMENT.html" xlink:title="DEPARTMENT" target="_top">
<polygon fill="#ffffff" stroke="transparent" points="161,-254.5 161,-381.5 333,-381.5 333,-254.5 161,-254.5"/>
<polygon fill="#f5f5f5" stroke="transparent" points="161,-358 161,-381 333,-381 333,-358 161,-358"/>
<polygon fill="none" stroke="#000000" points="161,-358 161,-381 333,-381 333,-358 161,-358"/>
<text text-anchor="start" x="166" y="-366.6" font-family="Helvetica,sans-Serif" font-weight="bold" font-size="11.00" fill="#000000">DEPARTMENT</text>
<text text-anchor="start" x="298.0437" y="-366.1" font-family="Helvetica,sans-Serif" font-size="11.00" fill="#000000">[table]</text>
<polygon fill="none" stroke="#000000" points="161,-336 161,-358 333,-358 333,-336 161,-336"/>
<image xlink:href="../../images/primaryKeys.png" width="11px" height="12px" preserveAspectRatio="xMinYMin meet" x="166" y="-353"/>
<text text-anchor="start" x="181" y="-343.1" font-family="Helvetica,sans-Serif" font-size="11.00" fill="#000000">ID</text>
<polygon fill="#ffffff" stroke="transparent" points="161,-314 161,-336 333,-336 333,-314 161,-314"/>
<polygon fill="none" stroke="#000000" points="161,-314 161,-336 333,-336 333,-314 161,-314"/>
<image xlink:href="../../images/foreignKeys.png" width="11px" height="12px" preserveAspectRatio="xMinYMin meet" x="166" y="-331"/>
<text text-anchor="start" x="181" y="-321.1" font-family="Helvetica,sans-Serif" font-size="11.00" fill="#000000">CREATOR</text>
<polygon fill="#ffffff" stroke="transparent" points="161,-292 161,-314 333,-314 333,-292 161,-292"/>
<polygon fill="none" stroke="#000000" points="161,-292 161,-314 333,-314 333,-292 161,-292"/>
<image xlink:href="../../images/foreignKeys.png" width="11px" height="12px" preserveAspectRatio="xMinYMin meet" x="166" y="-309"/>
<text text-anchor="start" x="181" y="-299.1" font-family="Helvetica,sans-Serif" font-size="11.00" fill="#000000">LAST_MODIFIER</text>
<polygon fill="none" stroke="#000000" points="161,-273 161,-292 333,-292 333,-273 161,-273"/>
<text text-anchor="start" x="164" y="-279.1" font-family="Helvetica,sans-Serif" font-size="11.00" fill="#000000">...</text>
<polygon fill="#ffffff" stroke="transparent" points="161,-254 161,-273 228,-273 228,-254 161,-254"/>
<polygon fill="none" stroke="#000000" points="161,-254 161,-273 228,-273 228,-254 161,-254"/>
<text text-anchor="start" x="164" y="-260.1" font-family="Helvetica,sans-Serif" font-size="11.00" fill="#000000">&lt; 2</text>
<polygon fill="#ffffff" stroke="transparent" points="228,-254 228,-273 289,-273 289,-254 228,-254"/>
<polygon fill="none" stroke="#000000" points="228,-254 228,-273 289,-273 289,-254 228,-254"/>
<text text-anchor="start" x="253.6105" y="-260.1" font-family="Helvetica,sans-Serif" font-size="11.00" fill="#000000">0 rows</text>
<polygon fill="#ffffff" stroke="transparent" points="289,-254 289,-273 333,-273 333,-254 289,-254"/>
<polygon fill="none" stroke="#000000" points="289,-254 289,-273 333,-273 333,-254 289,-254"/>
<text text-anchor="start" x="314.4053" y="-260.1" font-family="Helvetica,sans-Serif" font-size="11.00" fill="#000000">7 &gt;</text>
</a>
</g>
</g>
<!-- DEPARTMENT&#45;&gt;User -->
<g id="edge3" class="edge">
<title>DEPARTMENT:w&#45;&gt;User:e</title>
<path fill="none" stroke="#000000" d="M146.4835,-321.6382C110.3941,-300.6953 170.2247,-189 112,-189"/>
<polygon fill="#000000" stroke="#000000" points="153.2063,-323.195 160.1878,-328.5072 157.1031,-324.0975 161,-325 161,-325 161,-325 157.1031,-324.0975 161.8122,-321.4928 153.2063,-323.195 153.2063,-323.195"/>
<ellipse fill="none" stroke="#000000" cx="150.0888" cy="-322.4731" rx="3.2" ry="3.2"/>
</g>
<!-- DEPARTMENT&#45;&gt;User -->
<g id="edge4" class="edge">
<title>DEPARTMENT:w&#45;&gt;User:e</title>
<path fill="none" stroke="#000000" d="M146.7787,-299.207C117.8671,-279.4263 161.1168,-189 112,-189"/>
<polygon fill="#000000" stroke="#000000" points="153.2702,-300.9383 160.0723,-306.4784 157.1351,-301.9692 161,-303 161,-303 161,-303 157.1351,-301.9692 161.9277,-299.5216 153.2702,-300.9383 153.2702,-300.9383"/>
<ellipse fill="none" stroke="#000000" cx="150.1783" cy="-300.1137" rx="3.2" ry="3.2"/>
</g>
<!-- JOB_OPENING -->
<g id="node4" class="node">
<title>JOB_OPENING</title>
<g id="a_node4"><a xlink:href="../../tables/JOB_OPENING.html" xlink:title="JOB_OPENING" target="_top">
<polygon fill="#ffffff" stroke="transparent" points="382,-251.5 382,-400.5 606,-400.5 606,-251.5 382,-251.5"/>
<polygon fill="#f5f5f5" stroke="transparent" points="382,-377 382,-400 606,-400 606,-377 382,-377"/>
<polygon fill="none" stroke="#000000" points="382,-377 382,-400 606,-400 606,-377 382,-377"/>
<text text-anchor="start" x="387" y="-385.6" font-family="Helvetica,sans-Serif" font-weight="bold" font-size="11.00" fill="#000000">JOB_OPENING</text>
<text text-anchor="start" x="571.0437" y="-385.1" font-family="Helvetica,sans-Serif" font-size="11.00" fill="#000000">[table]</text>
<polygon fill="none" stroke="#000000" points="382,-355 382,-377 606,-377 606,-355 382,-355"/>
<image xlink:href="../../images/primaryKeys.png" width="11px" height="12px" preserveAspectRatio="xMinYMin meet" x="387" y="-372"/>
<text text-anchor="start" x="402" y="-362.1" font-family="Helvetica,sans-Serif" font-size="11.00" fill="#000000">ID</text>
<polygon fill="#ffffff" stroke="transparent" points="382,-333 382,-355 606,-355 606,-333 382,-333"/>
<polygon fill="none" stroke="#000000" points="382,-333 382,-355 606,-355 606,-333 382,-333"/>
<image xlink:href="../../images/foreignKeys.png" width="11px" height="12px" preserveAspectRatio="xMinYMin meet" x="387" y="-350"/>
<text text-anchor="start" x="402" y="-340.1" font-family="Helvetica,sans-Serif" font-size="11.00" fill="#000000">DEPARTMENT_ID</text>
<polygon fill="#ffffff" stroke="transparent" points="382,-311 382,-333 606,-333 606,-311 382,-311"/>
<polygon fill="none" stroke="#000000" points="382,-311 382,-333 606,-333 606,-311 382,-311"/>
<image xlink:href="../../images/foreignKeys.png" width="11px" height="12px" preserveAspectRatio="xMinYMin meet" x="387" y="-328"/>
<text text-anchor="start" x="402" y="-318.1" font-family="Helvetica,sans-Serif" font-size="11.00" fill="#000000">CREATOR</text>
<polygon fill="#ffffff" stroke="transparent" points="382,-289 382,-311 606,-311 606,-289 382,-289"/>
<polygon fill="none" stroke="#000000" points="382,-289 382,-311 606,-311 606,-289 382,-289"/>
<image xlink:href="../../images/foreignKeys.png" width="11px" height="12px" preserveAspectRatio="xMinYMin meet" x="387" y="-306"/>
<text text-anchor="start" x="402" y="-296.1" font-family="Helvetica,sans-Serif" font-size="11.00" fill="#000000">LAST_MODIFIER</text>
<polygon fill="none" stroke="#000000" points="382,-270 382,-289 606,-289 606,-270 382,-270"/>
<text text-anchor="start" x="385" y="-276.1" font-family="Helvetica,sans-Serif" font-size="11.00" fill="#000000">...</text>
<polygon fill="#ffffff" stroke="transparent" points="382,-251 382,-270 475,-270 475,-251 382,-251"/>
<polygon fill="none" stroke="#000000" points="382,-251 382,-270 475,-270 475,-251 382,-251"/>
<text text-anchor="start" x="385" y="-257.1" font-family="Helvetica,sans-Serif" font-size="11.00" fill="#000000">&lt; 3</text>
<polygon fill="#ffffff" stroke="transparent" points="475,-251 475,-270 549,-270 549,-251 475,-251"/>
<polygon fill="none" stroke="#000000" points="475,-251 475,-270 549,-270 549,-251 475,-251"/>
<text text-anchor="start" x="513.6105" y="-257.1" font-family="Helvetica,sans-Serif" font-size="11.00" fill="#000000">0 rows</text>
<polygon fill="#ffffff" stroke="transparent" points="549,-251 549,-270 606,-270 606,-251 549,-251"/>
<polygon fill="none" stroke="#000000" points="549,-251 549,-270 606,-270 606,-251 549,-251"/>
<text text-anchor="start" x="587.4053" y="-257.1" font-family="Helvetica,sans-Serif" font-size="11.00" fill="#000000">3 &gt;</text>
</a>
</g>
</g>
<!-- JOB_OPENING&#45;&gt;User -->
<g id="edge5" class="edge">
<title>JOB_OPENING:w&#45;&gt;User:e</title>
<path fill="none" stroke="#000000" d="M367.7251,-317.9375C350.9937,-304.7923 367.5473,-263.1589 341,-244 272.3312,-194.4424 232.6507,-241.7598 153,-213 133.1403,-205.8292 133.1146,-189 112,-189"/>
<polygon fill="#000000" stroke="#000000" points="374.3055,-319.8102 381.0146,-325.4625 378.1528,-320.9051 382,-322 382,-322 382,-322 378.1528,-320.9051 382.9854,-318.5375 374.3055,-319.8102 374.3055,-319.8102"/>
<ellipse fill="none" stroke="#000000" cx="371.2277" cy="-318.9343" rx="3.2" ry="3.2"/>
</g>
<!-- JOB_OPENING&#45;&gt;User -->
<g id="edge7" class="edge">
<title>JOB_OPENING:w&#45;&gt;User:e</title>
<path fill="none" stroke="#000000" d="M367.8279,-296.2576C348.7546,-282.5603 370.4028,-234.8728 341,-214 330.5643,-206.5918 124.7978,-189 112,-189"/>
<polygon fill="#000000" stroke="#000000" points="374.2651,-297.9574 381.0808,-303.4807 378.1326,-298.9787 382,-300 382,-300 382,-300 378.1326,-298.9787 382.9192,-296.5193 374.2651,-297.9574 374.2651,-297.9574"/>
<ellipse fill="none" stroke="#000000" cx="371.1712" cy="-297.1404" rx="3.2" ry="3.2"/>
</g>
<!-- JOB_OPENING&#45;&gt;DEPARTMENT -->
<g id="edge6" class="edge">
<title>JOB_OPENING:w&#45;&gt;DEPARTMENT:e</title>
<path fill="none" stroke="#000000" d="M367.4797,-344.5226C356.1714,-345.3821 349.023,-347 333,-347"/>
<polygon fill="#000000" stroke="#000000" points="374.0052,-344.2878 382.1295,-347.5977 378.0026,-344.1439 382,-344 382,-344 382,-344 378.0026,-344.1439 381.8705,-340.4023 374.0052,-344.2878 374.0052,-344.2878"/>
<ellipse fill="none" stroke="#000000" cx="370.8072" cy="-344.4029" rx="3.2" ry="3.2"/>
</g>
<!-- OFFERS -->
<g id="node5" class="node">
<title>OFFERS</title>
<g id="a_node5"><a xlink:href="../../tables/OFFERS.html" xlink:title="OFFERS" target="_top">
<polygon fill="#ffffff" stroke="transparent" points="655,-25 655,-379 921,-379 921,-25 655,-25"/>
<polygon fill="#f5f5f5" stroke="transparent" points="657,-354 657,-377 919,-377 919,-354 657,-354"/>
<polygon fill="none" stroke="#000000" points="657,-354 657,-377 919,-377 919,-354 657,-354"/>
<text text-anchor="start" x="662" y="-362.6" font-family="Helvetica,sans-Serif" font-weight="bold" font-size="11.00" fill="#000000">OFFERS</text>
<text text-anchor="start" x="884.0437" y="-362.1" font-family="Helvetica,sans-Serif" font-size="11.00" fill="#000000">[table]</text>
<polygon fill="none" stroke="#000000" points="657,-332 657,-354 852,-354 852,-332 657,-332"/>
<image xlink:href="../../images/primaryKeys.png" width="11px" height="12px" preserveAspectRatio="xMinYMin meet" x="662" y="-349"/>
<text text-anchor="start" x="677" y="-339.1" font-family="Helvetica,sans-Serif" font-size="11.00" fill="#000000">ID</text>
<polygon fill="none" stroke="#000000" points="852,-332 852,-354 919,-354 919,-332 852,-332"/>
<text text-anchor="start" x="855" y="-339.7" font-family="Helvetica,sans-Serif" font-size="11.00" fill="#000000">int[10]</text>
<polygon fill="none" stroke="#000000" points="657,-310 657,-332 852,-332 852,-310 657,-310"/>
<text text-anchor="start" x="677" y="-317.1" font-family="Helvetica,sans-Serif" font-size="11.00" fill="#000000">WORKSPACE_ID</text>
<polygon fill="none" stroke="#000000" points="852,-310 852,-332 919,-332 919,-310 852,-310"/>
<text text-anchor="start" x="855" y="-317.7" font-family="Helvetica,sans-Serif" font-size="11.00" fill="#000000">int[10]</text>
<polygon fill="#ffffff" stroke="transparent" points="657,-288 657,-310 852,-310 852,-288 657,-288"/>
<polygon fill="none" stroke="#000000" points="657,-288 657,-310 852,-310 852,-288 657,-288"/>
<image xlink:href="../../images/foreignKeys.png" width="11px" height="12px" preserveAspectRatio="xMinYMin meet" x="662" y="-305"/>
<text text-anchor="start" x="677" y="-295.1" font-family="Helvetica,sans-Serif" font-size="11.00" fill="#000000">POSTING_TITLE</text>
<polygon fill="none" stroke="#000000" points="852,-288 852,-310 919,-310 919,-288 852,-288"/>
<text text-anchor="start" x="855" y="-295.7" font-family="Helvetica,sans-Serif" font-size="11.00" fill="#000000">int[10]</text>
<polygon fill="#ffffff" stroke="transparent" points="657,-266 657,-288 852,-288 852,-266 657,-266"/>
<polygon fill="none" stroke="#000000" points="657,-266 657,-288 852,-288 852,-266 657,-266"/>
<image xlink:href="../../images/foreignKeys.png" width="11px" height="12px" preserveAspectRatio="xMinYMin meet" x="662" y="-283"/>
<text text-anchor="start" x="677" y="-273.1" font-family="Helvetica,sans-Serif" font-size="11.00" fill="#000000">DEPARTMENT_ID</text>
<polygon fill="none" stroke="#000000" points="852,-266 852,-288 919,-288 919,-266 852,-266"/>
<text text-anchor="start" x="855" y="-273.7" font-family="Helvetica,sans-Serif" font-size="11.00" fill="#000000">int[10]</text>
<polygon fill="#ffffff" stroke="transparent" points="657,-244 657,-266 852,-266 852,-244 657,-244"/>
<polygon fill="none" stroke="#000000" points="657,-244 657,-266 852,-266 852,-244 657,-244"/>
<image xlink:href="../../images/foreignKeys.png" width="11px" height="12px" preserveAspectRatio="xMinYMin meet" x="662" y="-261"/>
<text text-anchor="start" x="677" y="-251.1" font-family="Helvetica,sans-Serif" font-size="11.00" fill="#000000">CANDIDATE_ID</text>
<polygon fill="none" stroke="#000000" points="852,-244 852,-266 919,-266 919,-244 852,-244"/>
<text text-anchor="start" x="855" y="-251.7" font-family="Helvetica,sans-Serif" font-size="11.00" fill="#000000">int[10]</text>
<polygon fill="none" stroke="#000000" points="657,-222 657,-244 852,-244 852,-222 657,-222"/>
<text text-anchor="start" x="677" y="-229.1" font-family="Helvetica,sans-Serif" font-size="11.00" fill="#000000">COMPENSATION_AMOUNT</text>
<polygon fill="none" stroke="#000000" points="852,-222 852,-244 919,-244 919,-222 852,-222"/>
<text text-anchor="start" x="855" y="-229.7" font-family="Helvetica,sans-Serif" font-size="11.00" fill="#000000">double[22]</text>
<polygon fill="none" stroke="#000000" points="657,-200 657,-222 852,-222 852,-200 657,-200"/>
<text text-anchor="start" x="677" y="-207.1" font-family="Helvetica,sans-Serif" font-size="11.00" fill="#000000">EMPLOYMENT_TYPE</text>
<polygon fill="none" stroke="#000000" points="852,-200 852,-222 919,-222 919,-200 852,-200"/>
<text text-anchor="start" x="855" y="-207.7" font-family="Helvetica,sans-Serif" font-size="11.00" fill="#000000">enum[10]</text>
<polygon fill="none" stroke="#000000" points="657,-178 657,-200 852,-200 852,-178 657,-178"/>
<text text-anchor="start" x="677" y="-185.1" font-family="Helvetica,sans-Serif" font-size="11.00" fill="#000000">EXPECTED_JOINING_DATE</text>
<polygon fill="none" stroke="#000000" points="852,-178 852,-200 919,-200 919,-178 852,-178"/>
<text text-anchor="start" x="855" y="-185.7" font-family="Helvetica,sans-Serif" font-size="11.00" fill="#000000">datetime[26]</text>
<polygon fill="none" stroke="#000000" points="657,-156 657,-178 852,-178 852,-156 657,-156"/>
<text text-anchor="start" x="677" y="-163.1" font-family="Helvetica,sans-Serif" font-size="11.00" fill="#000000">OFFERS_EXPIRY</text>
<polygon fill="none" stroke="#000000" points="852,-156 852,-178 919,-178 919,-156 852,-156"/>
<text text-anchor="start" x="855" y="-163.7" font-family="Helvetica,sans-Serif" font-size="11.00" fill="#000000">datetime[26]</text>
<polygon fill="none" stroke="#000000" points="657,-134 657,-156 852,-156 852,-134 657,-134"/>
<text text-anchor="start" x="677" y="-141.1" font-family="Helvetica,sans-Serif" font-size="11.00" fill="#000000">OFFER_OWNER</text>
<polygon fill="none" stroke="#000000" points="852,-134 852,-156 919,-156 919,-134 852,-134"/>
<text text-anchor="start" x="854.9365" y="-141.7" font-family="Helvetica,sans-Serif" font-size="11.00" fill="#000000">varchar[255]</text>
<polygon fill="none" stroke="#000000" points="657,-112 657,-134 852,-134 852,-112 657,-112"/>
<text text-anchor="start" x="677" y="-119.1" font-family="Helvetica,sans-Serif" font-size="11.00" fill="#000000">CREATED_TIME</text>
<polygon fill="none" stroke="#000000" points="852,-112 852,-134 919,-134 919,-112 852,-112"/>
<text text-anchor="start" x="855" y="-119.7" font-family="Helvetica,sans-Serif" font-size="11.00" fill="#000000">datetime[26]</text>
<polygon fill="none" stroke="#000000" points="657,-90 657,-112 852,-112 852,-90 657,-90"/>
<text text-anchor="start" x="677" y="-97.1" font-family="Helvetica,sans-Serif" font-size="11.00" fill="#000000">MODIFIED_TIME</text>
<polygon fill="none" stroke="#000000" points="852,-90 852,-112 919,-112 919,-90 852,-90"/>
<text text-anchor="start" x="855" y="-97.7" font-family="Helvetica,sans-Serif" font-size="11.00" fill="#000000">datetime[26]</text>
<polygon fill="#ffffff" stroke="transparent" points="657,-68 657,-90 852,-90 852,-68 657,-68"/>
<polygon fill="none" stroke="#000000" points="657,-68 657,-90 852,-90 852,-68 657,-68"/>
<image xlink:href="../../images/foreignKeys.png" width="11px" height="12px" preserveAspectRatio="xMinYMin meet" x="662" y="-85"/>
<text text-anchor="start" x="677" y="-75.1" font-family="Helvetica,sans-Serif" font-size="11.00" fill="#000000">CREATOR</text>
<polygon fill="none" stroke="#000000" points="852,-68 852,-90 919,-90 919,-68 852,-68"/>
<text text-anchor="start" x="855" y="-75.7" font-family="Helvetica,sans-Serif" font-size="11.00" fill="#000000">int[10]</text>
<polygon fill="#ffffff" stroke="transparent" points="657,-46 657,-68 852,-68 852,-46 657,-46"/>
<polygon fill="none" stroke="#000000" points="657,-46 657,-68 852,-68 852,-46 657,-46"/>
<image xlink:href="../../images/foreignKeys.png" width="11px" height="12px" preserveAspectRatio="xMinYMin meet" x="662" y="-63"/>
<text text-anchor="start" x="677" y="-53.1" font-family="Helvetica,sans-Serif" font-size="11.00" fill="#000000">LAST_MODIFIER</text>
<polygon fill="none" stroke="#000000" points="852,-46 852,-68 919,-68 919,-46 852,-46"/>
<text text-anchor="start" x="855" y="-53.7" font-family="Helvetica,sans-Serif" font-size="11.00" fill="#000000">int[10]</text>
<polygon fill="#ffffff" stroke="transparent" points="657,-27 657,-46 746,-46 746,-27 657,-27"/>
<polygon fill="none" stroke="#000000" points="657,-27 657,-46 746,-46 746,-27 657,-27"/>
<text text-anchor="start" x="660" y="-33.1" font-family="Helvetica,sans-Serif" font-size="11.00" fill="#000000">&lt; 5</text>
<polygon fill="#ffffff" stroke="transparent" points="746,-27 746,-46 852,-46 852,-27 746,-27"/>
<polygon fill="none" stroke="#000000" points="746,-27 746,-46 852,-46 852,-27 746,-27"/>
<text text-anchor="start" x="816.6105" y="-33.1" font-family="Helvetica,sans-Serif" font-size="11.00" fill="#000000">0 rows</text>
<polygon fill="#ffffff" stroke="transparent" points="852,-27 852,-46 919,-46 919,-27 852,-27"/>
<polygon fill="none" stroke="#000000" points="852,-27 852,-46 919,-46 919,-27 852,-27"/>
<text text-anchor="start" x="900.4053" y="-33.1" font-family="Helvetica,sans-Serif" font-size="11.00" fill="#000000">0 &gt;</text>
<polygon fill="none" stroke="#000000" stroke-width="2" points="656,-26 656,-378 920,-378 920,-26 656,-26"/>
</a>
</g>
</g>
<!-- OFFERS&#45;&gt;APPLICANT -->
<g id="edge8" class="edge">
<title>OFFERS:w&#45;&gt;APPLICANT:e</title>
<path fill="none" stroke="#000000" d="M642.7426,-251.6589C619.8068,-239.1778 623.943,-196 590,-196"/>
<polygon fill="#000000" stroke="#000000" points="649.211,-253.1747 656.1786,-258.505 653.1055,-254.0873 657,-255 657,-255 657,-255 653.1055,-254.0873 657.8214,-251.495 649.211,-253.1747 649.211,-253.1747"/>
<ellipse fill="none" stroke="#000000" cx="646.0954" cy="-252.4445" rx="3.2" ry="3.2"/>
</g>
<!-- OFFERS&#45;&gt;User -->
<g id="edge9" class="edge">
<title>OFFERS:w&#45;&gt;User:e</title>
<path fill="none" stroke="#000000" d="M642.3109,-78.9806C528.3191,-78.6839 493.5914,-75.3325 374,-93 273.8685,-107.7927 241.1067,-98.1768 153,-148 130.5681,-160.685 137.7701,-189 112,-189"/>
<polygon fill="#000000" stroke="#000000" points="649,-78.9894 656.9952,-82.6 653,-78.9947 657,-79 657,-79 657,-79 653,-78.9947 657.0048,-75.4 649,-78.9894 649,-78.9894"/>
<ellipse fill="none" stroke="#000000" cx="645.8" cy="-78.9851" rx="3.2" ry="3.2"/>
</g>
<!-- OFFERS&#45;&gt;User -->
<g id="edge11" class="edge">
<title>OFFERS:w&#45;&gt;User:e</title>
<path fill="none" stroke="#000000" d="M642.3773,-56.8673C428.0975,-52.981 331.4865,34.0486 153,-94 115.6345,-120.8065 157.9866,-189 112,-189"/>
<polygon fill="#000000" stroke="#000000" points="649.0003,-56.9274 656.9673,-60.5999 653.0002,-56.9637 657,-57 657,-57 657,-57 653.0002,-56.9637 657.0327,-53.4001 649.0003,-56.9274 649.0003,-56.9274"/>
<ellipse fill="none" stroke="#000000" cx="645.8005" cy="-56.8983" rx="3.2" ry="3.2"/>
</g>
<!-- OFFERS&#45;&gt;DEPARTMENT -->
<g id="edge10" class="edge">
<title>OFFERS:w&#45;&gt;DEPARTMENT:e</title>
<path fill="none" stroke="#000000" d="M642.6971,-279.4317C606.5333,-294.6846 659.7967,-377.5991 614,-411 527.8192,-473.8542 467.5822,-462.1874 374,-411 344.3631,-394.7893 366.7807,-347 333,-347"/>
<polygon fill="#000000" stroke="#000000" points="649.1132,-278.3409 657.6034,-280.5491 653.0566,-277.6705 657,-277 657,-277 657,-277 653.0566,-277.6705 656.3966,-273.4509 649.1132,-278.3409 649.1132,-278.3409"/>
<ellipse fill="none" stroke="#000000" cx="645.9584" cy="-278.8773" rx="3.2" ry="3.2"/>
</g>
<!-- OFFERS&#45;&gt;JOB_OPENING -->
<g id="edge12" class="edge">
<title>OFFERS:w&#45;&gt;JOB_OPENING:e</title>
<path fill="none" stroke="#000000" d="M642.9871,-303.8185C625.7522,-319.181 637.2834,-366 606,-366"/>
<polygon fill="#000000" stroke="#000000" points="649.4348,-301.6014 658.1706,-302.4044 653.2174,-300.3007 657,-299 657,-299 657,-299 653.2174,-300.3007 655.8294,-295.5956 649.4348,-301.6014 649.4348,-301.6014"/>
<ellipse fill="none" stroke="#000000" cx="646.4087" cy="-302.642" rx="3.2" ry="3.2"/>
</g>
</g>
</svg>
