<?xml version="1.0" encoding="UTF-8" standalone="no"?>
<!DOCTYPE svg PUBLIC "-//W3C//DTD SVG 1.1//EN"
 "http://www.w3.org/Graphics/SVG/1.1/DTD/svg11.dtd">
<!-- Generated by graphviz version 2.40.1 (20161225.0304)
 -->
<!-- Title: oneDegreeRelationshipsDiagram Pages: 1 -->
<svg width="718pt" height="369pt"
 viewBox="0.00 0.00 718.00 369.00" xmlns="http://www.w3.org/2000/svg" xmlns:xlink="http://www.w3.org/1999/xlink">
<g id="graph0" class="graph" transform="scale(1 1) rotate(0) translate(4 365)">
<title>oneDegreeRelationshipsDiagram</title>
<polygon fill="#ffffff" stroke="transparent" points="-4,4 -4,-365 714,-365 714,4 -4,4"/>
<!-- LOCATION -->
<g id="node1" class="node">
<title>LOCATION</title>
<g id="a_node1"><a xlink:href="../../tables/LOCATION.html" xlink:title="LOCATION" target="_top">
<polygon fill="#ffffff" stroke="transparent" points="161,-103.5 161,-230.5 313,-230.5 313,-103.5 161,-103.5"/>
<polygon fill="#f5f5f5" stroke="transparent" points="161,-207 161,-230 313,-230 313,-207 161,-207"/>
<polygon fill="none" stroke="#000000" points="161,-207 161,-230 313,-230 313,-207 161,-207"/>
<text text-anchor="start" x="166" y="-215.6" font-family="Helvetica,sans-Serif" font-weight="bold" font-size="11.00" fill="#000000">LOCATION</text>
<text text-anchor="start" x="278.0437" y="-215.1" font-family="Helvetica,sans-Serif" font-size="11.00" fill="#000000">[table]</text>
<polygon fill="none" stroke="#000000" points="161,-185 161,-207 313,-207 313,-185 161,-185"/>
<image xlink:href="../../images/primaryKeys.png" width="11px" height="12px" preserveAspectRatio="xMinYMin meet" x="166" y="-202"/>
<text text-anchor="start" x="181" y="-192.1" font-family="Helvetica,sans-Serif" font-size="11.00" fill="#000000">ID</text>
<polygon fill="#ffffff" stroke="transparent" points="161,-163 161,-185 313,-185 313,-163 161,-163"/>
<polygon fill="none" stroke="#000000" points="161,-163 161,-185 313,-185 313,-163 161,-163"/>
<image xlink:href="../../images/foreignKeys.png" width="11px" height="12px" preserveAspectRatio="xMinYMin meet" x="166" y="-180"/>
<text text-anchor="start" x="181" y="-170.1" font-family="Helvetica,sans-Serif" font-size="11.00" fill="#000000">CREATOR</text>
<polygon fill="#ffffff" stroke="transparent" points="161,-141 161,-163 313,-163 313,-141 161,-141"/>
<polygon fill="none" stroke="#000000" points="161,-141 161,-163 313,-163 313,-141 161,-141"/>
<image xlink:href="../../images/foreignKeys.png" width="11px" height="12px" preserveAspectRatio="xMinYMin meet" x="166" y="-158"/>
<text text-anchor="start" x="181" y="-148.1" font-family="Helvetica,sans-Serif" font-size="11.00" fill="#000000">LAST_MODIFIER</text>
<polygon fill="none" stroke="#000000" points="161,-122 161,-141 313,-141 313,-122 161,-122"/>
<text text-anchor="start" x="164" y="-128.1" font-family="Helvetica,sans-Serif" font-size="11.00" fill="#000000">...</text>
<polygon fill="#ffffff" stroke="transparent" points="161,-103 161,-122 218,-122 218,-103 161,-103"/>
<polygon fill="none" stroke="#000000" points="161,-103 161,-122 218,-122 218,-103 161,-103"/>
<text text-anchor="start" x="164" y="-109.1" font-family="Helvetica,sans-Serif" font-size="11.00" fill="#000000">&lt; 2</text>
<polygon fill="#ffffff" stroke="transparent" points="218,-103 218,-122 274,-122 274,-103 218,-103"/>
<polygon fill="none" stroke="#000000" points="218,-103 218,-122 274,-122 274,-103 218,-103"/>
<text text-anchor="start" x="238.6105" y="-109.1" font-family="Helvetica,sans-Serif" font-size="11.00" fill="#000000">0 rows</text>
<polygon fill="#ffffff" stroke="transparent" points="274,-103 274,-122 313,-122 313,-103 274,-103"/>
<polygon fill="none" stroke="#000000" points="274,-103 274,-122 313,-122 313,-103 274,-103"/>
<text text-anchor="start" x="294.4053" y="-109.1" font-family="Helvetica,sans-Serif" font-size="11.00" fill="#000000">5 &gt;</text>
</a>
</g>
</g>
<!-- User -->
<g id="node2" class="node">
<title>User</title>
<g id="a_node2"><a xlink:href="../../tables/User.html" xlink:title="User" target="_top">
<polygon fill="#ffffff" stroke="transparent" points="8,-66.5 8,-149.5 112,-149.5 112,-66.5 8,-66.5"/>
<polygon fill="#f5f5f5" stroke="transparent" points="8,-126 8,-149 112,-149 112,-126 8,-126"/>
<polygon fill="none" stroke="#000000" points="8,-126 8,-149 112,-149 112,-126 8,-126"/>
<text text-anchor="start" x="13" y="-134.6" font-family="Helvetica,sans-Serif" font-weight="bold" font-size="11.00" fill="#000000">User</text>
<text text-anchor="start" x="77.0437" y="-134.1" font-family="Helvetica,sans-Serif" font-size="11.00" fill="#000000">[table]</text>
<polygon fill="none" stroke="#000000" points="8,-104 8,-126 112,-126 112,-104 8,-104"/>
<image xlink:href="../../images/primaryKeys.png" width="11px" height="12px" preserveAspectRatio="xMinYMin meet" x="13" y="-121"/>
<text text-anchor="start" x="28" y="-111.1" font-family="Helvetica,sans-Serif" font-size="11.00" fill="#000000">userid_pk</text>
<polygon fill="none" stroke="#000000" points="8,-85 8,-104 112,-104 112,-85 8,-85"/>
<text text-anchor="start" x="11" y="-91.1" font-family="Helvetica,sans-Serif" font-size="11.00" fill="#000000">...</text>
<polygon fill="#ffffff" stroke="transparent" points="8,-66 8,-85 30,-85 30,-66 8,-66"/>
<polygon fill="none" stroke="#000000" points="8,-66 8,-85 30,-85 30,-66 8,-66"/>
<text text-anchor="start" x="11" y="-72.1" font-family="Helvetica,sans-Serif" font-size="11.00" fill="#000000"> &#160;</text>
<polygon fill="#ffffff" stroke="transparent" points="30,-66 30,-85 73,-85 73,-66 30,-66"/>
<polygon fill="none" stroke="#000000" points="30,-66 30,-85 73,-85 73,-66 30,-66"/>
<text text-anchor="start" x="37.6105" y="-72.1" font-family="Helvetica,sans-Serif" font-size="11.00" fill="#000000">0 rows</text>
<polygon fill="#ffffff" stroke="transparent" points="73,-66 73,-85 112,-85 112,-66 73,-66"/>
<polygon fill="none" stroke="#000000" points="73,-66 73,-85 112,-85 112,-66 73,-66"/>
<text text-anchor="start" x="81.1755" y="-72.1" font-family="Helvetica,sans-Serif" font-size="11.00" fill="#000000">102 &gt;</text>
</a>
</g>
</g>
<!-- LOCATION&#45;&gt;User -->
<g id="edge1" class="edge">
<title>LOCATION:w&#45;&gt;User:e</title>
<path fill="none" stroke="#000000" d="M147.1662,-168.9697C132.0842,-154.7018 139.9614,-115 112,-115"/>
<polygon fill="#000000" stroke="#000000" points="153.4816,-171.2661 159.7697,-177.3833 157.2408,-172.6331 161,-174 161,-174 161,-174 157.2408,-172.6331 162.2303,-170.6167 153.4816,-171.2661 153.4816,-171.2661"/>
<ellipse fill="none" stroke="#000000" cx="150.4743" cy="-170.1725" rx="3.2" ry="3.2"/>
</g>
<!-- LOCATION&#45;&gt;User -->
<g id="edge2" class="edge">
<title>LOCATION:w&#45;&gt;User:e</title>
<path fill="none" stroke="#000000" d="M147.1217,-147.4631C134.5786,-137.583 133.3196,-115 112,-115"/>
<polygon fill="#000000" stroke="#000000" points="153.396,-149.5142 159.8814,-155.4218 157.198,-150.7571 161,-152 161,-152 161,-152 157.198,-150.7571 162.1186,-148.5782 153.396,-149.5142 153.396,-149.5142"/>
<ellipse fill="none" stroke="#000000" cx="150.3544" cy="-148.5198" rx="3.2" ry="3.2"/>
</g>
<!-- PAYROLL -->
<g id="node3" class="node">
<title>PAYROLL</title>
<g id="a_node3"><a xlink:href="../../tables/PAYROLL.html" xlink:title="PAYROLL" target="_top">
<polygon fill="#ffffff" stroke="transparent" points="362,-25 362,-357 702,-357 702,-25 362,-25"/>
<polygon fill="#f5f5f5" stroke="transparent" points="364,-332 364,-355 700,-355 700,-332 364,-332"/>
<polygon fill="none" stroke="#000000" points="364,-332 364,-355 700,-355 700,-332 364,-332"/>
<text text-anchor="start" x="369" y="-340.6" font-family="Helvetica,sans-Serif" font-weight="bold" font-size="11.00" fill="#000000">PAYROLL</text>
<text text-anchor="start" x="665.0437" y="-340.1" font-family="Helvetica,sans-Serif" font-size="11.00" fill="#000000">[table]</text>
<polygon fill="none" stroke="#000000" points="364,-310 364,-332 634,-332 634,-310 364,-310"/>
<image xlink:href="../../images/primaryKeys.png" width="11px" height="12px" preserveAspectRatio="xMinYMin meet" x="369" y="-327"/>
<text text-anchor="start" x="384" y="-317.1" font-family="Helvetica,sans-Serif" font-size="11.00" fill="#000000">ID</text>
<polygon fill="none" stroke="#000000" points="634,-310 634,-332 700,-332 700,-310 634,-310"/>
<text text-anchor="start" x="637" y="-317.7" font-family="Helvetica,sans-Serif" font-size="11.00" fill="#000000">int[10]</text>
<polygon fill="none" stroke="#000000" points="364,-288 364,-310 634,-310 634,-288 364,-288"/>
<text text-anchor="start" x="384" y="-295.1" font-family="Helvetica,sans-Serif" font-size="11.00" fill="#000000">WORKSPACE_ID</text>
<polygon fill="none" stroke="#000000" points="634,-288 634,-310 700,-310 700,-288 634,-288"/>
<text text-anchor="start" x="637" y="-295.7" font-family="Helvetica,sans-Serif" font-size="11.00" fill="#000000">int[10]</text>
<polygon fill="none" stroke="#000000" points="364,-266 364,-288 634,-288 634,-266 364,-266"/>
<text text-anchor="start" x="384" y="-273.1" font-family="Helvetica,sans-Serif" font-size="11.00" fill="#000000">PAY_PERIOD_NAME</text>
<polygon fill="none" stroke="#000000" points="634,-266 634,-288 700,-288 700,-266 634,-266"/>
<text text-anchor="start" x="637" y="-273.7" font-family="Helvetica,sans-Serif" font-size="11.00" fill="#000000">varchar[30]</text>
<polygon fill="none" stroke="#000000" points="364,-244 364,-266 634,-266 634,-244 364,-244"/>
<text text-anchor="start" x="384" y="-251.1" font-family="Helvetica,sans-Serif" font-size="11.00" fill="#000000">PAY_PERIOD_TYPE</text>
<polygon fill="none" stroke="#000000" points="634,-244 634,-266 700,-266 700,-244 634,-244"/>
<text text-anchor="start" x="637" y="-251.7" font-family="Helvetica,sans-Serif" font-size="11.00" fill="#000000">enum[9]</text>
<polygon fill="none" stroke="#000000" points="364,-222 364,-244 634,-244 634,-222 364,-222"/>
<text text-anchor="start" x="384" y="-229.1" font-family="Helvetica,sans-Serif" font-size="11.00" fill="#000000">START_DATE</text>
<polygon fill="none" stroke="#000000" points="634,-222 634,-244 700,-244 700,-222 634,-222"/>
<text text-anchor="start" x="636.7401" y="-229.7" font-family="Helvetica,sans-Serif" font-size="11.00" fill="#000000">datetime[26]</text>
<polygon fill="none" stroke="#000000" points="364,-200 364,-222 634,-222 634,-200 364,-200"/>
<text text-anchor="start" x="384" y="-207.1" font-family="Helvetica,sans-Serif" font-size="11.00" fill="#000000">END_DATE</text>
<polygon fill="none" stroke="#000000" points="634,-200 634,-222 700,-222 700,-200 634,-200"/>
<text text-anchor="start" x="636.7401" y="-207.7" font-family="Helvetica,sans-Serif" font-size="11.00" fill="#000000">datetime[26]</text>
<polygon fill="none" stroke="#000000" points="364,-178 364,-200 634,-200 634,-178 364,-178"/>
<text text-anchor="start" x="384" y="-185.1" font-family="Helvetica,sans-Serif" font-size="11.00" fill="#000000">PAYROLL_DAY</text>
<polygon fill="none" stroke="#000000" points="634,-178 634,-200 700,-200 700,-178 634,-178"/>
<text text-anchor="start" x="637" y="-185.7" font-family="Helvetica,sans-Serif" font-size="11.00" fill="#000000">varchar[10]</text>
<polygon fill="none" stroke="#000000" points="364,-156 364,-178 634,-178 634,-156 364,-156"/>
<text text-anchor="start" x="384" y="-163.1" font-family="Helvetica,sans-Serif" font-size="11.00" fill="#000000">PAYROLL_REPORT_GENERATION_DAY</text>
<polygon fill="none" stroke="#000000" points="634,-156 634,-178 700,-178 700,-156 634,-156"/>
<text text-anchor="start" x="637" y="-163.7" font-family="Helvetica,sans-Serif" font-size="11.00" fill="#000000">varchar[10]</text>
<polygon fill="#ffffff" stroke="transparent" points="364,-134 364,-156 634,-156 634,-134 364,-134"/>
<polygon fill="none" stroke="#000000" points="364,-134 364,-156 634,-156 634,-134 364,-134"/>
<image xlink:href="../../images/foreignKeys.png" width="11px" height="12px" preserveAspectRatio="xMinYMin meet" x="369" y="-151"/>
<text text-anchor="start" x="384" y="-141.1" font-family="Helvetica,sans-Serif" font-size="11.00" fill="#000000">LOCATION_ID</text>
<polygon fill="none" stroke="#000000" points="634,-134 634,-156 700,-156 700,-134 634,-134"/>
<text text-anchor="start" x="637" y="-141.7" font-family="Helvetica,sans-Serif" font-size="11.00" fill="#000000">int[10]</text>
<polygon fill="none" stroke="#000000" points="364,-112 364,-134 634,-134 634,-112 364,-112"/>
<text text-anchor="start" x="384" y="-119.1" font-family="Helvetica,sans-Serif" font-size="11.00" fill="#000000">CREATED_TIME</text>
<polygon fill="none" stroke="#000000" points="634,-112 634,-134 700,-134 700,-112 634,-112"/>
<text text-anchor="start" x="636.7401" y="-119.7" font-family="Helvetica,sans-Serif" font-size="11.00" fill="#000000">datetime[26]</text>
<polygon fill="none" stroke="#000000" points="364,-90 364,-112 634,-112 634,-90 364,-90"/>
<text text-anchor="start" x="384" y="-97.1" font-family="Helvetica,sans-Serif" font-size="11.00" fill="#000000">MODIFIED_TIME</text>
<polygon fill="none" stroke="#000000" points="634,-90 634,-112 700,-112 700,-90 634,-90"/>
<text text-anchor="start" x="636.7401" y="-97.7" font-family="Helvetica,sans-Serif" font-size="11.00" fill="#000000">datetime[26]</text>
<polygon fill="#ffffff" stroke="transparent" points="364,-68 364,-90 634,-90 634,-68 364,-68"/>
<polygon fill="none" stroke="#000000" points="364,-68 364,-90 634,-90 634,-68 364,-68"/>
<image xlink:href="../../images/foreignKeys.png" width="11px" height="12px" preserveAspectRatio="xMinYMin meet" x="369" y="-85"/>
<text text-anchor="start" x="384" y="-75.1" font-family="Helvetica,sans-Serif" font-size="11.00" fill="#000000">CREATOR</text>
<polygon fill="none" stroke="#000000" points="634,-68 634,-90 700,-90 700,-68 634,-68"/>
<text text-anchor="start" x="637" y="-75.7" font-family="Helvetica,sans-Serif" font-size="11.00" fill="#000000">int[10]</text>
<polygon fill="#ffffff" stroke="transparent" points="364,-46 364,-68 634,-68 634,-46 364,-46"/>
<polygon fill="none" stroke="#000000" points="364,-46 364,-68 634,-68 634,-46 364,-46"/>
<image xlink:href="../../images/foreignKeys.png" width="11px" height="12px" preserveAspectRatio="xMinYMin meet" x="369" y="-63"/>
<text text-anchor="start" x="384" y="-53.1" font-family="Helvetica,sans-Serif" font-size="11.00" fill="#000000">LAST_MODIFIER</text>
<polygon fill="none" stroke="#000000" points="634,-46 634,-68 700,-68 700,-46 634,-46"/>
<text text-anchor="start" x="637" y="-53.7" font-family="Helvetica,sans-Serif" font-size="11.00" fill="#000000">int[10]</text>
<polygon fill="#ffffff" stroke="transparent" points="364,-27 364,-46 490,-46 490,-27 364,-27"/>
<polygon fill="none" stroke="#000000" points="364,-27 364,-46 490,-46 490,-27 364,-27"/>
<text text-anchor="start" x="367" y="-33.1" font-family="Helvetica,sans-Serif" font-size="11.00" fill="#000000">&lt; 3</text>
<polygon fill="#ffffff" stroke="transparent" points="490,-27 490,-46 634,-46 634,-27 490,-27"/>
<polygon fill="none" stroke="#000000" points="490,-27 490,-46 634,-46 634,-27 490,-27"/>
<text text-anchor="start" x="598.6105" y="-33.1" font-family="Helvetica,sans-Serif" font-size="11.00" fill="#000000">0 rows</text>
<polygon fill="#ffffff" stroke="transparent" points="634,-27 634,-46 700,-46 700,-27 634,-27"/>
<polygon fill="none" stroke="#000000" points="634,-27 634,-46 700,-46 700,-27 634,-27"/>
<text text-anchor="start" x="681.4053" y="-33.1" font-family="Helvetica,sans-Serif" font-size="11.00" fill="#000000">0 &gt;</text>
<polygon fill="none" stroke="#000000" stroke-width="2" points="363,-26 363,-356 701,-356 701,-26 363,-26"/>
</a>
</g>
</g>
<!-- PAYROLL&#45;&gt;LOCATION -->
<g id="edge5" class="edge">
<title>PAYROLL:w&#45;&gt;LOCATION:e</title>
<path fill="none" stroke="#000000" d="M350.137,-149.7065C335.2732,-162.332 339.0451,-196 313,-196"/>
<polygon fill="#000000" stroke="#000000" points="356.4247,-147.5719 365.1573,-148.4089 360.2123,-146.2859 364,-145 364,-145 364,-145 360.2123,-146.2859 362.8427,-141.5911 356.4247,-147.5719 356.4247,-147.5719"/>
<ellipse fill="none" stroke="#000000" cx="353.3945" cy="-148.6006" rx="3.2" ry="3.2"/>
</g>
<!-- PAYROLL&#45;&gt;User -->
<g id="edge3" class="edge">
<title>PAYROLL:w&#45;&gt;User:e</title>
<path fill="none" stroke="#000000" d="M349.4183,-78.9046C266.9668,-77.8291 238.4879,-68.4759 153,-93 133.122,-98.7025 132.6798,-115 112,-115"/>
<polygon fill="#000000" stroke="#000000" points="356.0002,-78.9476 363.9764,-82.5999 360.0001,-78.9738 364,-79 364,-79 364,-79 360.0001,-78.9738 364.0236,-75.4001 356.0002,-78.9476 356.0002,-78.9476"/>
<ellipse fill="none" stroke="#000000" cx="352.8002" cy="-78.9266" rx="3.2" ry="3.2"/>
</g>
<!-- PAYROLL&#45;&gt;User -->
<g id="edge4" class="edge">
<title>PAYROLL:w&#45;&gt;User:e</title>
<path fill="none" stroke="#000000" d="M349.3674,-56.8078C266.3905,-54.6303 233.6487,-35.37 153,-73 129.3604,-84.03 138.0863,-115 112,-115"/>
<polygon fill="#000000" stroke="#000000" points="356.0007,-56.8949 363.9527,-60.5997 360.0003,-56.9474 364,-57 364,-57 364,-57 360.0003,-56.9474 364.0473,-53.4003 356.0007,-56.8949 356.0007,-56.8949"/>
<ellipse fill="none" stroke="#000000" cx="352.801" cy="-56.8529" rx="3.2" ry="3.2"/>
</g>
</g>
</svg>
