<?xml version="1.0" encoding="UTF-8" standalone="no"?>
<!DOCTYPE svg PUBLIC "-//W3C//DTD SVG 1.1//EN"
 "http://www.w3.org/Graphics/SVG/1.1/DTD/svg11.dtd">
<!-- Generated by graphviz version 2.40.1 (20161225.0304)
 -->
<!-- Title: oneDegreeRelationshipsDiagram Pages: 1 -->
<svg width="591pt" height="486pt"
 viewBox="0.00 0.00 591.00 485.50" xmlns="http://www.w3.org/2000/svg" xmlns:xlink="http://www.w3.org/1999/xlink">
<g id="graph0" class="graph" transform="scale(1 1) rotate(0) translate(4 481.5)">
<title>oneDegreeRelationshipsDiagram</title>
<polygon fill="#ffffff" stroke="transparent" points="-4,4 -4,-481.5 587,-481.5 587,4 -4,4"/>
<!-- PROJECTS -->
<g id="node1" class="node">
<title>PROJECTS</title>
<g id="a_node1"><a xlink:href="../../tables/PROJECTS.html" xlink:title="PROJECTS" target="_top">
<polygon fill="#ffffff" stroke="transparent" points="161,-119.5 161,-473.5 384,-473.5 384,-119.5 161,-119.5"/>
<polygon fill="#f5f5f5" stroke="transparent" points="163.5,-448.5 163.5,-471.5 382.5,-471.5 382.5,-448.5 163.5,-448.5"/>
<polygon fill="none" stroke="#000000" points="163.5,-448.5 163.5,-471.5 382.5,-471.5 382.5,-448.5 163.5,-448.5"/>
<text text-anchor="start" x="168.5" y="-457.1" font-family="Helvetica,sans-Serif" font-weight="bold" font-size="11.00" fill="#000000">PROJECTS</text>
<text text-anchor="start" x="347.5437" y="-456.6" font-family="Helvetica,sans-Serif" font-size="11.00" fill="#000000">[table]</text>
<polygon fill="none" stroke="#000000" points="163.5,-426.5 163.5,-448.5 315.5,-448.5 315.5,-426.5 163.5,-426.5"/>
<image xlink:href="../../images/primaryKeys.png" width="11px" height="12px" preserveAspectRatio="xMinYMin meet" x="168.5" y="-443.5"/>
<text text-anchor="start" x="183.5" y="-433.6" font-family="Helvetica,sans-Serif" font-size="11.00" fill="#000000">ID</text>
<polygon fill="none" stroke="#000000" points="315.5,-426.5 315.5,-448.5 382.5,-448.5 382.5,-426.5 315.5,-426.5"/>
<text text-anchor="start" x="318.5" y="-434.2" font-family="Helvetica,sans-Serif" font-size="11.00" fill="#000000">int[10]</text>
<polygon fill="none" stroke="#000000" points="163.5,-404.5 163.5,-426.5 315.5,-426.5 315.5,-404.5 163.5,-404.5"/>
<text text-anchor="start" x="183.5" y="-411.6" font-family="Helvetica,sans-Serif" font-size="11.00" fill="#000000">WORKSPACE_ID</text>
<polygon fill="none" stroke="#000000" points="315.5,-404.5 315.5,-426.5 382.5,-426.5 382.5,-404.5 315.5,-404.5"/>
<text text-anchor="start" x="318.5" y="-412.2" font-family="Helvetica,sans-Serif" font-size="11.00" fill="#000000">int[10]</text>
<polygon fill="none" stroke="#000000" points="163.5,-382.5 163.5,-404.5 315.5,-404.5 315.5,-382.5 163.5,-382.5"/>
<text text-anchor="start" x="183.5" y="-389.6" font-family="Helvetica,sans-Serif" font-size="11.00" fill="#000000">PROJECT_NAME</text>
<polygon fill="none" stroke="#000000" points="315.5,-382.5 315.5,-404.5 382.5,-404.5 382.5,-382.5 315.5,-382.5"/>
<text text-anchor="start" x="318.4365" y="-390.2" font-family="Helvetica,sans-Serif" font-size="11.00" fill="#000000">varchar[100]</text>
<polygon fill="none" stroke="#000000" points="163.5,-360.5 163.5,-382.5 315.5,-382.5 315.5,-360.5 163.5,-360.5"/>
<text text-anchor="start" x="183.5" y="-367.6" font-family="Helvetica,sans-Serif" font-size="11.00" fill="#000000">CLIENT_NAME</text>
<polygon fill="none" stroke="#000000" points="315.5,-360.5 315.5,-382.5 382.5,-382.5 382.5,-360.5 315.5,-360.5"/>
<text text-anchor="start" x="318.4365" y="-368.2" font-family="Helvetica,sans-Serif" font-size="11.00" fill="#000000">varchar[100]</text>
<polygon fill="none" stroke="#000000" points="163.5,-338.5 163.5,-360.5 315.5,-360.5 315.5,-338.5 163.5,-338.5"/>
<text text-anchor="start" x="183.5" y="-345.6" font-family="Helvetica,sans-Serif" font-size="11.00" fill="#000000">PROJECT_COST</text>
<polygon fill="none" stroke="#000000" points="315.5,-338.5 315.5,-360.5 382.5,-360.5 382.5,-338.5 315.5,-338.5"/>
<text text-anchor="start" x="318.5" y="-346.2" font-family="Helvetica,sans-Serif" font-size="11.00" fill="#000000">double[22]</text>
<polygon fill="none" stroke="#000000" points="163.5,-316.5 163.5,-338.5 315.5,-338.5 315.5,-316.5 163.5,-316.5"/>
<text text-anchor="start" x="183.5" y="-323.6" font-family="Helvetica,sans-Serif" font-size="11.00" fill="#000000">STATUS</text>
<polygon fill="none" stroke="#000000" points="315.5,-316.5 315.5,-338.5 382.5,-338.5 382.5,-316.5 315.5,-316.5"/>
<text text-anchor="start" x="318.5" y="-324.2" font-family="Helvetica,sans-Serif" font-size="11.00" fill="#000000">enum[12]</text>
<polygon fill="none" stroke="#000000" points="163.5,-294.5 163.5,-316.5 315.5,-316.5 315.5,-294.5 163.5,-294.5"/>
<text text-anchor="start" x="183.5" y="-301.6" font-family="Helvetica,sans-Serif" font-size="11.00" fill="#000000">APPROVAL_STATUS</text>
<polygon fill="none" stroke="#000000" points="315.5,-294.5 315.5,-316.5 382.5,-316.5 382.5,-294.5 315.5,-294.5"/>
<text text-anchor="start" x="318.5" y="-302.2" font-family="Helvetica,sans-Serif" font-size="11.00" fill="#000000">enum[12]</text>
<polygon fill="none" stroke="#000000" points="163.5,-272.5 163.5,-294.5 315.5,-294.5 315.5,-272.5 163.5,-272.5"/>
<text text-anchor="start" x="183.5" y="-279.6" font-family="Helvetica,sans-Serif" font-size="11.00" fill="#000000">PROJECT_HEAD</text>
<polygon fill="none" stroke="#000000" points="315.5,-272.5 315.5,-294.5 382.5,-294.5 382.5,-272.5 315.5,-272.5"/>
<text text-anchor="start" x="318.5" y="-280.2" font-family="Helvetica,sans-Serif" font-size="11.00" fill="#000000">varchar[50]</text>
<polygon fill="none" stroke="#000000" points="163.5,-250.5 163.5,-272.5 315.5,-272.5 315.5,-250.5 163.5,-250.5"/>
<text text-anchor="start" x="183.5" y="-257.6" font-family="Helvetica,sans-Serif" font-size="11.00" fill="#000000">PROJECT_MANAGER</text>
<polygon fill="none" stroke="#000000" points="315.5,-250.5 315.5,-272.5 382.5,-272.5 382.5,-250.5 315.5,-250.5"/>
<text text-anchor="start" x="318.5" y="-258.2" font-family="Helvetica,sans-Serif" font-size="11.00" fill="#000000">varchar[50]</text>
<polygon fill="none" stroke="#000000" points="163.5,-228.5 163.5,-250.5 315.5,-250.5 315.5,-228.5 163.5,-228.5"/>
<text text-anchor="start" x="183.5" y="-235.6" font-family="Helvetica,sans-Serif" font-size="11.00" fill="#000000">DESCRIPTION</text>
<polygon fill="none" stroke="#000000" points="315.5,-228.5 315.5,-250.5 382.5,-250.5 382.5,-228.5 315.5,-228.5"/>
<text text-anchor="start" x="318.4365" y="-236.2" font-family="Helvetica,sans-Serif" font-size="11.00" fill="#000000">varchar[100]</text>
<polygon fill="none" stroke="#000000" points="163.5,-206.5 163.5,-228.5 315.5,-228.5 315.5,-206.5 163.5,-206.5"/>
<text text-anchor="start" x="183.5" y="-213.6" font-family="Helvetica,sans-Serif" font-size="11.00" fill="#000000">CREATED_TIME</text>
<polygon fill="none" stroke="#000000" points="315.5,-206.5 315.5,-228.5 382.5,-228.5 382.5,-206.5 315.5,-206.5"/>
<text text-anchor="start" x="318.5" y="-214.2" font-family="Helvetica,sans-Serif" font-size="11.00" fill="#000000">datetime[26]</text>
<polygon fill="none" stroke="#000000" points="163.5,-184.5 163.5,-206.5 315.5,-206.5 315.5,-184.5 163.5,-184.5"/>
<text text-anchor="start" x="183.5" y="-191.6" font-family="Helvetica,sans-Serif" font-size="11.00" fill="#000000">MODIFIED_TIME</text>
<polygon fill="none" stroke="#000000" points="315.5,-184.5 315.5,-206.5 382.5,-206.5 382.5,-184.5 315.5,-184.5"/>
<text text-anchor="start" x="318.5" y="-192.2" font-family="Helvetica,sans-Serif" font-size="11.00" fill="#000000">datetime[26]</text>
<polygon fill="#ffffff" stroke="transparent" points="163.5,-162.5 163.5,-184.5 315.5,-184.5 315.5,-162.5 163.5,-162.5"/>
<polygon fill="none" stroke="#000000" points="163.5,-162.5 163.5,-184.5 315.5,-184.5 315.5,-162.5 163.5,-162.5"/>
<image xlink:href="../../images/foreignKeys.png" width="11px" height="12px" preserveAspectRatio="xMinYMin meet" x="168.5" y="-179.5"/>
<text text-anchor="start" x="183.5" y="-169.6" font-family="Helvetica,sans-Serif" font-size="11.00" fill="#000000">CREATOR</text>
<polygon fill="none" stroke="#000000" points="315.5,-162.5 315.5,-184.5 382.5,-184.5 382.5,-162.5 315.5,-162.5"/>
<text text-anchor="start" x="318.5" y="-170.2" font-family="Helvetica,sans-Serif" font-size="11.00" fill="#000000">int[10]</text>
<polygon fill="#ffffff" stroke="transparent" points="163.5,-140.5 163.5,-162.5 315.5,-162.5 315.5,-140.5 163.5,-140.5"/>
<polygon fill="none" stroke="#000000" points="163.5,-140.5 163.5,-162.5 315.5,-162.5 315.5,-140.5 163.5,-140.5"/>
<image xlink:href="../../images/foreignKeys.png" width="11px" height="12px" preserveAspectRatio="xMinYMin meet" x="168.5" y="-157.5"/>
<text text-anchor="start" x="183.5" y="-147.6" font-family="Helvetica,sans-Serif" font-size="11.00" fill="#000000">LAST_MODIFIER</text>
<polygon fill="none" stroke="#000000" points="315.5,-140.5 315.5,-162.5 382.5,-162.5 382.5,-140.5 315.5,-140.5"/>
<text text-anchor="start" x="318.5" y="-148.2" font-family="Helvetica,sans-Serif" font-size="11.00" fill="#000000">int[10]</text>
<polygon fill="#ffffff" stroke="transparent" points="163.5,-121.5 163.5,-140.5 230.5,-140.5 230.5,-121.5 163.5,-121.5"/>
<polygon fill="none" stroke="#000000" points="163.5,-121.5 163.5,-140.5 230.5,-140.5 230.5,-121.5 163.5,-121.5"/>
<text text-anchor="start" x="166.5" y="-127.6" font-family="Helvetica,sans-Serif" font-size="11.00" fill="#000000">&lt; 2</text>
<polygon fill="#ffffff" stroke="transparent" points="230.5,-121.5 230.5,-140.5 315.5,-140.5 315.5,-121.5 230.5,-121.5"/>
<polygon fill="none" stroke="#000000" points="230.5,-121.5 230.5,-140.5 315.5,-140.5 315.5,-121.5 230.5,-121.5"/>
<text text-anchor="start" x="280.1105" y="-127.6" font-family="Helvetica,sans-Serif" font-size="11.00" fill="#000000">0 rows</text>
<polygon fill="#ffffff" stroke="transparent" points="315.5,-121.5 315.5,-140.5 382.5,-140.5 382.5,-121.5 315.5,-121.5"/>
<polygon fill="none" stroke="#000000" points="315.5,-121.5 315.5,-140.5 382.5,-140.5 382.5,-121.5 315.5,-121.5"/>
<text text-anchor="start" x="363.9053" y="-127.6" font-family="Helvetica,sans-Serif" font-size="11.00" fill="#000000">1 &gt;</text>
<polygon fill="none" stroke="#000000" stroke-width="2" points="162,-120.5 162,-472.5 383,-472.5 383,-120.5 162,-120.5"/>
</a>
</g>
</g>
<!-- User -->
<g id="node2" class="node">
<title>User</title>
<g id="a_node2"><a xlink:href="../../tables/User.html" xlink:title="User" target="_top">
<polygon fill="#ffffff" stroke="transparent" points="8,-75 8,-158 112,-158 112,-75 8,-75"/>
<polygon fill="#f5f5f5" stroke="transparent" points="8,-134.5 8,-157.5 112,-157.5 112,-134.5 8,-134.5"/>
<polygon fill="none" stroke="#000000" points="8,-134.5 8,-157.5 112,-157.5 112,-134.5 8,-134.5"/>
<text text-anchor="start" x="13" y="-143.1" font-family="Helvetica,sans-Serif" font-weight="bold" font-size="11.00" fill="#000000">User</text>
<text text-anchor="start" x="77.0437" y="-142.6" font-family="Helvetica,sans-Serif" font-size="11.00" fill="#000000">[table]</text>
<polygon fill="none" stroke="#000000" points="8,-112.5 8,-134.5 112,-134.5 112,-112.5 8,-112.5"/>
<image xlink:href="../../images/primaryKeys.png" width="11px" height="12px" preserveAspectRatio="xMinYMin meet" x="13" y="-129.5"/>
<text text-anchor="start" x="28" y="-119.6" font-family="Helvetica,sans-Serif" font-size="11.00" fill="#000000">userid_pk</text>
<polygon fill="none" stroke="#000000" points="8,-93.5 8,-112.5 112,-112.5 112,-93.5 8,-93.5"/>
<text text-anchor="start" x="11" y="-99.6" font-family="Helvetica,sans-Serif" font-size="11.00" fill="#000000">...</text>
<polygon fill="#ffffff" stroke="transparent" points="8,-74.5 8,-93.5 30,-93.5 30,-74.5 8,-74.5"/>
<polygon fill="none" stroke="#000000" points="8,-74.5 8,-93.5 30,-93.5 30,-74.5 8,-74.5"/>
<text text-anchor="start" x="11" y="-80.6" font-family="Helvetica,sans-Serif" font-size="11.00" fill="#000000"> &#160;</text>
<polygon fill="#ffffff" stroke="transparent" points="30,-74.5 30,-93.5 73,-93.5 73,-74.5 30,-74.5"/>
<polygon fill="none" stroke="#000000" points="30,-74.5 30,-93.5 73,-93.5 73,-74.5 30,-74.5"/>
<text text-anchor="start" x="37.6105" y="-80.6" font-family="Helvetica,sans-Serif" font-size="11.00" fill="#000000">0 rows</text>
<polygon fill="#ffffff" stroke="transparent" points="73,-74.5 73,-93.5 112,-93.5 112,-74.5 73,-74.5"/>
<polygon fill="none" stroke="#000000" points="73,-74.5 73,-93.5 112,-93.5 112,-74.5 73,-74.5"/>
<text text-anchor="start" x="81.1755" y="-80.6" font-family="Helvetica,sans-Serif" font-size="11.00" fill="#000000">102 &gt;</text>
</a>
</g>
</g>
<!-- PROJECTS&#45;&gt;User -->
<g id="edge1" class="edge">
<title>PROJECTS:w&#45;&gt;User:e</title>
<path fill="none" stroke="#000000" d="M149.6347,-168.8857C134.6579,-156.5078 137.9203,-123.5 112,-123.5"/>
<polygon fill="#000000" stroke="#000000" points="155.9093,-170.9738 162.3632,-176.9158 159.7046,-172.2369 163.5,-173.5 163.5,-173.5 163.5,-173.5 159.7046,-172.2369 164.6368,-170.0842 155.9093,-170.9738 155.9093,-170.9738"/>
<ellipse fill="none" stroke="#000000" cx="152.873" cy="-169.9634" rx="3.2" ry="3.2"/>
</g>
<!-- PROJECTS&#45;&gt;User -->
<g id="edge2" class="edge">
<title>PROJECTS:w&#45;&gt;User:e</title>
<path fill="none" stroke="#000000" d="M149.2773,-147.8395C136.3531,-140.2498 132.1505,-123.5 112,-123.5"/>
<polygon fill="#000000" stroke="#000000" points="155.7525,-149.506 162.6027,-154.9864 159.6262,-150.503 163.5,-151.5 163.5,-151.5 163.5,-151.5 159.6262,-150.503 164.3973,-148.0136 155.7525,-149.506 155.7525,-149.506"/>
<ellipse fill="none" stroke="#000000" cx="152.6535" cy="-148.7084" rx="3.2" ry="3.2"/>
</g>
<!-- TIME_LOGS -->
<g id="node3" class="node">
<title>TIME_LOGS</title>
<g id="a_node3"><a xlink:href="../../tables/TIME_LOGS.html" xlink:title="TIME_LOGS" target="_top">
<polygon fill="#ffffff" stroke="transparent" points="433,-25 433,-196 575,-196 575,-25 433,-25"/>
<polygon fill="#f5f5f5" stroke="transparent" points="433,-172.5 433,-195.5 575,-195.5 575,-172.5 433,-172.5"/>
<polygon fill="none" stroke="#000000" points="433,-172.5 433,-195.5 575,-195.5 575,-172.5 433,-172.5"/>
<text text-anchor="start" x="438" y="-181.1" font-family="Helvetica,sans-Serif" font-weight="bold" font-size="11.00" fill="#000000">TIME_LOGS</text>
<text text-anchor="start" x="540.0437" y="-180.6" font-family="Helvetica,sans-Serif" font-size="11.00" fill="#000000">[table]</text>
<polygon fill="none" stroke="#000000" points="433,-150.5 433,-172.5 575,-172.5 575,-150.5 433,-150.5"/>
<image xlink:href="../../images/primaryKeys.png" width="11px" height="12px" preserveAspectRatio="xMinYMin meet" x="438" y="-167.5"/>
<text text-anchor="start" x="453" y="-157.6" font-family="Helvetica,sans-Serif" font-size="11.00" fill="#000000">ID</text>
<polygon fill="#ffffff" stroke="transparent" points="433,-128.5 433,-150.5 575,-150.5 575,-128.5 433,-128.5"/>
<polygon fill="none" stroke="#000000" points="433,-128.5 433,-150.5 575,-150.5 575,-128.5 433,-128.5"/>
<image xlink:href="../../images/foreignKeys.png" width="11px" height="12px" preserveAspectRatio="xMinYMin meet" x="438" y="-145.5"/>
<text text-anchor="start" x="453" y="-135.6" font-family="Helvetica,sans-Serif" font-size="11.00" fill="#000000">PROJECT</text>
<polygon fill="#ffffff" stroke="transparent" points="433,-106.5 433,-128.5 575,-128.5 575,-106.5 433,-106.5"/>
<polygon fill="none" stroke="#000000" points="433,-106.5 433,-128.5 575,-128.5 575,-106.5 433,-106.5"/>
<image xlink:href="../../images/foreignKeys.png" width="11px" height="12px" preserveAspectRatio="xMinYMin meet" x="438" y="-123.5"/>
<text text-anchor="start" x="453" y="-113.6" font-family="Helvetica,sans-Serif" font-size="11.00" fill="#000000">JOB_ID</text>
<polygon fill="#ffffff" stroke="transparent" points="433,-84.5 433,-106.5 575,-106.5 575,-84.5 433,-84.5"/>
<polygon fill="none" stroke="#000000" points="433,-84.5 433,-106.5 575,-106.5 575,-84.5 433,-84.5"/>
<image xlink:href="../../images/foreignKeys.png" width="11px" height="12px" preserveAspectRatio="xMinYMin meet" x="438" y="-101.5"/>
<text text-anchor="start" x="453" y="-91.6" font-family="Helvetica,sans-Serif" font-size="11.00" fill="#000000">CREATOR</text>
<polygon fill="#ffffff" stroke="transparent" points="433,-62.5 433,-84.5 575,-84.5 575,-62.5 433,-62.5"/>
<polygon fill="none" stroke="#000000" points="433,-62.5 433,-84.5 575,-84.5 575,-62.5 433,-62.5"/>
<image xlink:href="../../images/foreignKeys.png" width="11px" height="12px" preserveAspectRatio="xMinYMin meet" x="438" y="-79.5"/>
<text text-anchor="start" x="453" y="-69.6" font-family="Helvetica,sans-Serif" font-size="11.00" fill="#000000">LAST_MODIFIER</text>
<polygon fill="none" stroke="#000000" points="433,-43.5 433,-62.5 575,-62.5 575,-43.5 433,-43.5"/>
<text text-anchor="start" x="436" y="-49.6" font-family="Helvetica,sans-Serif" font-size="11.00" fill="#000000">...</text>
<polygon fill="#ffffff" stroke="transparent" points="433,-24.5 433,-43.5 489,-43.5 489,-24.5 433,-24.5"/>
<polygon fill="none" stroke="#000000" points="433,-24.5 433,-43.5 489,-43.5 489,-24.5 433,-24.5"/>
<text text-anchor="start" x="436" y="-30.6" font-family="Helvetica,sans-Serif" font-size="11.00" fill="#000000">&lt; 4</text>
<polygon fill="#ffffff" stroke="transparent" points="489,-24.5 489,-43.5 545,-43.5 545,-24.5 489,-24.5"/>
<polygon fill="none" stroke="#000000" points="489,-24.5 489,-43.5 545,-43.5 545,-24.5 489,-24.5"/>
<text text-anchor="start" x="509.6105" y="-30.6" font-family="Helvetica,sans-Serif" font-size="11.00" fill="#000000">0 rows</text>
<polygon fill="#ffffff" stroke="transparent" points="545,-24.5 545,-43.5 575,-43.5 575,-24.5 545,-24.5"/>
<polygon fill="none" stroke="#000000" points="545,-24.5 545,-43.5 575,-43.5 575,-24.5 545,-24.5"/>
<text text-anchor="start" x="565.8862" y="-30.6" font-family="Helvetica,sans-Serif" font-size="11.00" fill="#000000"> &#160;</text>
</a>
</g>
</g>
<!-- TIME_LOGS&#45;&gt;PROJECTS -->
<g id="edge5" class="edge">
<title>TIME_LOGS:w&#45;&gt;PROJECTS:e</title>
<path fill="none" stroke="#000000" d="M418.5144,-140.8949C315.5724,-162.8855 511.4542,-437.5 382.5,-437.5"/>
<polygon fill="#000000" stroke="#000000" points="425.0368,-140.2669 433.3451,-143.0834 429.0184,-139.8834 433,-139.5 433,-139.5 433,-139.5 429.0184,-139.8834 432.6549,-135.9166 425.0368,-140.2669 425.0368,-140.2669"/>
<ellipse fill="none" stroke="#000000" cx="421.8516" cy="-140.5736" rx="3.2" ry="3.2"/>
</g>
<!-- TIME_LOGS&#45;&gt;User -->
<g id="edge3" class="edge">
<title>TIME_LOGS:w&#45;&gt;User:e</title>
<path fill="none" stroke="#000000" d="M418.4622,-95.4572C305.6118,-94.7944 270.4697,-86.9686 153,-109.5 134.0894,-113.1272 131.2553,-123.5 112,-123.5"/>
<polygon fill="#000000" stroke="#000000" points="425,-95.4764 432.9894,-99.1 429,-95.4882 433,-95.5 433,-95.5 433,-95.5 429,-95.4882 433.0106,-91.9 425,-95.4764 425,-95.4764"/>
<ellipse fill="none" stroke="#000000" cx="421.8" cy="-95.4669" rx="3.2" ry="3.2"/>
</g>
<!-- TIME_LOGS&#45;&gt;User -->
<g id="edge4" class="edge">
<title>TIME_LOGS:w&#45;&gt;User:e</title>
<path fill="none" stroke="#000000" d="M418.4241,-73.3796C305.0714,-71.5046 264.888,-48.942 153,-91.5 131.3947,-99.7178 135.1154,-123.5 112,-123.5"/>
<polygon fill="#000000" stroke="#000000" points="425.0003,-73.4339 432.9702,-77.0999 429.0001,-73.4669 433,-73.5 433,-73.5 433,-73.5 429.0001,-73.4669 433.0298,-69.9001 425.0003,-73.4339 425.0003,-73.4339"/>
<ellipse fill="none" stroke="#000000" cx="421.8004" cy="-73.4074" rx="3.2" ry="3.2"/>
</g>
</g>
</svg>
