<?xml version="1.0" encoding="UTF-8" standalone="no"?>
<!DOCTYPE svg PUBLIC "-//W3C//DTD SVG 1.1//EN"
 "http://www.w3.org/Graphics/SVG/1.1/DTD/svg11.dtd">
<!-- Generated by graphviz version 2.40.1 (20161225.0304)
 -->
<!-- Title: oneDegreeRelationshipsDiagram Pages: 1 -->
<svg width="568pt" height="705pt"
 viewBox="0.00 0.00 568.00 704.50" xmlns="http://www.w3.org/2000/svg" xmlns:xlink="http://www.w3.org/1999/xlink">
<g id="graph0" class="graph" transform="scale(1 1) rotate(0) translate(4 700.5)">
<title>oneDegreeRelationshipsDiagram</title>
<polygon fill="#ffffff" stroke="transparent" points="-4,4 -4,-700.5 564,-700.5 564,4 -4,4"/>
<!-- RESTRICTIONS -->
<g id="node1" class="node">
<title>RESTRICTIONS</title>
<g id="a_node1"><a xlink:href="../../tables/RESTRICTIONS.html" xlink:title="RESTRICTIONS" target="_top">
<polygon fill="#ffffff" stroke="transparent" points="161,-30.5 161,-692.5 552,-692.5 552,-30.5 161,-30.5"/>
<polygon fill="#f5f5f5" stroke="transparent" points="163.5,-667.5 163.5,-690.5 550.5,-690.5 550.5,-667.5 163.5,-667.5"/>
<polygon fill="none" stroke="#000000" points="163.5,-667.5 163.5,-690.5 550.5,-690.5 550.5,-667.5 163.5,-667.5"/>
<text text-anchor="start" x="168.5" y="-676.1" font-family="Helvetica,sans-Serif" font-weight="bold" font-size="11.00" fill="#000000">RESTRICTIONS</text>
<text text-anchor="start" x="515.5437" y="-675.6" font-family="Helvetica,sans-Serif" font-size="11.00" fill="#000000">[table]</text>
<polygon fill="none" stroke="#000000" points="163.5,-645.5 163.5,-667.5 483.5,-667.5 483.5,-645.5 163.5,-645.5"/>
<image xlink:href="../../images/primaryKeys.png" width="11px" height="12px" preserveAspectRatio="xMinYMin meet" x="168.5" y="-662.5"/>
<text text-anchor="start" x="183.5" y="-652.6" font-family="Helvetica,sans-Serif" font-size="11.00" fill="#000000">ID</text>
<polygon fill="none" stroke="#000000" points="483.5,-645.5 483.5,-667.5 550.5,-667.5 550.5,-645.5 483.5,-645.5"/>
<text text-anchor="start" x="486.5" y="-653.2" font-family="Helvetica,sans-Serif" font-size="11.00" fill="#000000">int[10]</text>
<polygon fill="none" stroke="#000000" points="163.5,-623.5 163.5,-645.5 483.5,-645.5 483.5,-623.5 163.5,-623.5"/>
<text text-anchor="start" x="183.5" y="-630.6" font-family="Helvetica,sans-Serif" font-size="11.00" fill="#000000">WORKSPACE_ID</text>
<polygon fill="none" stroke="#000000" points="483.5,-623.5 483.5,-645.5 550.5,-645.5 550.5,-623.5 483.5,-623.5"/>
<text text-anchor="start" x="486.5" y="-631.2" font-family="Helvetica,sans-Serif" font-size="11.00" fill="#000000">int[10]</text>
<polygon fill="none" stroke="#000000" points="163.5,-601.5 163.5,-623.5 483.5,-623.5 483.5,-601.5 163.5,-601.5"/>
<text text-anchor="start" x="183.5" y="-608.6" font-family="Helvetica,sans-Serif" font-size="11.00" fill="#000000">WEEKEND_BETWEEN_LEAVE_PERIOD</text>
<polygon fill="none" stroke="#000000" points="483.5,-601.5 483.5,-623.5 550.5,-623.5 550.5,-601.5 483.5,-601.5"/>
<text text-anchor="start" x="486.5" y="-609.2" font-family="Helvetica,sans-Serif" font-size="11.00" fill="#000000">bit[1]</text>
<polygon fill="none" stroke="#000000" points="163.5,-579.5 163.5,-601.5 483.5,-601.5 483.5,-579.5 163.5,-579.5"/>
<text text-anchor="start" x="183.5" y="-586.6" font-family="Helvetica,sans-Serif" font-size="11.00" fill="#000000">HOLIDAY_BETWEEN_LEAVE_PERIOD</text>
<polygon fill="none" stroke="#000000" points="483.5,-579.5 483.5,-601.5 550.5,-601.5 550.5,-579.5 483.5,-579.5"/>
<text text-anchor="start" x="486.5" y="-587.2" font-family="Helvetica,sans-Serif" font-size="11.00" fill="#000000">bit[1]</text>
<polygon fill="none" stroke="#000000" points="163.5,-557.5 163.5,-579.5 483.5,-579.5 483.5,-557.5 163.5,-557.5"/>
<text text-anchor="start" x="183.5" y="-564.6" font-family="Helvetica,sans-Serif" font-size="11.00" fill="#000000">EXCEED_LEAVE_BALANCE</text>
<polygon fill="none" stroke="#000000" points="483.5,-557.5 483.5,-579.5 550.5,-579.5 550.5,-557.5 483.5,-557.5"/>
<text text-anchor="start" x="486.5" y="-565.2" font-family="Helvetica,sans-Serif" font-size="11.00" fill="#000000">int[10]</text>
<polygon fill="none" stroke="#000000" points="163.5,-535.5 163.5,-557.5 483.5,-557.5 483.5,-535.5 163.5,-535.5"/>
<text text-anchor="start" x="183.5" y="-542.6" font-family="Helvetica,sans-Serif" font-size="11.00" fill="#000000">ALLOW_USERS_TO_VIEW</text>
<polygon fill="none" stroke="#000000" points="483.5,-535.5 483.5,-557.5 550.5,-557.5 550.5,-535.5 483.5,-535.5"/>
<text text-anchor="start" x="486.5" y="-543.2" font-family="Helvetica,sans-Serif" font-size="11.00" fill="#000000">enum[14]</text>
<polygon fill="none" stroke="#000000" points="163.5,-513.5 163.5,-535.5 483.5,-535.5 483.5,-513.5 163.5,-513.5"/>
<text text-anchor="start" x="183.5" y="-520.6" font-family="Helvetica,sans-Serif" font-size="11.00" fill="#000000">BALANCE_TO_BE_DISPLAYED</text>
<polygon fill="none" stroke="#000000" points="483.5,-513.5 483.5,-535.5 550.5,-535.5 550.5,-513.5 483.5,-513.5"/>
<text text-anchor="start" x="486.5" y="-521.2" font-family="Helvetica,sans-Serif" font-size="11.00" fill="#000000">enum[11]</text>
<polygon fill="none" stroke="#000000" points="163.5,-491.5 163.5,-513.5 483.5,-513.5 483.5,-491.5 163.5,-491.5"/>
<text text-anchor="start" x="183.5" y="-498.6" font-family="Helvetica,sans-Serif" font-size="11.00" fill="#000000">DURATION_ALLOWED</text>
<polygon fill="none" stroke="#000000" points="483.5,-491.5 483.5,-513.5 550.5,-513.5 550.5,-491.5 483.5,-491.5"/>
<text text-anchor="start" x="486.5" y="-499.2" font-family="Helvetica,sans-Serif" font-size="11.00" fill="#000000">enum[8]</text>
<polygon fill="none" stroke="#000000" points="163.5,-469.5 163.5,-491.5 483.5,-491.5 483.5,-469.5 163.5,-469.5"/>
<text text-anchor="start" x="183.5" y="-476.6" font-family="Helvetica,sans-Serif" font-size="11.00" fill="#000000">PAST_DATES</text>
<polygon fill="none" stroke="#000000" points="483.5,-469.5 483.5,-491.5 550.5,-491.5 550.5,-469.5 483.5,-469.5"/>
<text text-anchor="start" x="486.5" y="-477.2" font-family="Helvetica,sans-Serif" font-size="11.00" fill="#000000">int[10]</text>
<polygon fill="none" stroke="#000000" points="163.5,-447.5 163.5,-469.5 483.5,-469.5 483.5,-447.5 163.5,-447.5"/>
<text text-anchor="start" x="183.5" y="-454.6" font-family="Helvetica,sans-Serif" font-size="11.00" fill="#000000">FUTURE_DATE</text>
<polygon fill="none" stroke="#000000" points="483.5,-447.5 483.5,-469.5 550.5,-469.5 550.5,-447.5 483.5,-447.5"/>
<text text-anchor="start" x="486.5" y="-455.2" font-family="Helvetica,sans-Serif" font-size="11.00" fill="#000000">int[10]</text>
<polygon fill="none" stroke="#000000" points="163.5,-425.5 163.5,-447.5 483.5,-447.5 483.5,-425.5 163.5,-425.5"/>
<text text-anchor="start" x="183.5" y="-432.6" font-family="Helvetica,sans-Serif" font-size="11.00" fill="#000000">ALLOW_ONLY_ADMINISTRATORS</text>
<polygon fill="none" stroke="#000000" points="483.5,-425.5 483.5,-447.5 550.5,-447.5 550.5,-425.5 483.5,-425.5"/>
<text text-anchor="start" x="486.5" y="-433.2" font-family="Helvetica,sans-Serif" font-size="11.00" fill="#000000">bit[1]</text>
<polygon fill="none" stroke="#000000" points="163.5,-403.5 163.5,-425.5 483.5,-425.5 483.5,-403.5 163.5,-403.5"/>
<text text-anchor="start" x="183.5" y="-410.6" font-family="Helvetica,sans-Serif" font-size="11.00" fill="#000000">MIN_LEAVE_PER_APPLICATION</text>
<polygon fill="none" stroke="#000000" points="483.5,-403.5 483.5,-425.5 550.5,-425.5 550.5,-403.5 483.5,-403.5"/>
<text text-anchor="start" x="486.5" y="-411.2" font-family="Helvetica,sans-Serif" font-size="11.00" fill="#000000">int[10]</text>
<polygon fill="none" stroke="#000000" points="163.5,-381.5 163.5,-403.5 483.5,-403.5 483.5,-381.5 163.5,-381.5"/>
<text text-anchor="start" x="183.5" y="-388.6" font-family="Helvetica,sans-Serif" font-size="11.00" fill="#000000">MAX_LEAVE_PER_APPLICATION</text>
<polygon fill="none" stroke="#000000" points="483.5,-381.5 483.5,-403.5 550.5,-403.5 550.5,-381.5 483.5,-381.5"/>
<text text-anchor="start" x="486.5" y="-389.2" font-family="Helvetica,sans-Serif" font-size="11.00" fill="#000000">int[10]</text>
<polygon fill="none" stroke="#000000" points="163.5,-359.5 163.5,-381.5 483.5,-381.5 483.5,-359.5 163.5,-359.5"/>
<text text-anchor="start" x="183.5" y="-366.6" font-family="Helvetica,sans-Serif" font-size="11.00" fill="#000000">MAX_CONSECUTIVE_DAYS_ALLOWED</text>
<polygon fill="none" stroke="#000000" points="483.5,-359.5 483.5,-381.5 550.5,-381.5 550.5,-359.5 483.5,-359.5"/>
<text text-anchor="start" x="486.5" y="-367.2" font-family="Helvetica,sans-Serif" font-size="11.00" fill="#000000">int[10]</text>
<polygon fill="none" stroke="#000000" points="163.5,-337.5 163.5,-359.5 483.5,-359.5 483.5,-337.5 163.5,-337.5"/>
<text text-anchor="start" x="183.5" y="-344.6" font-family="Helvetica,sans-Serif" font-size="11.00" fill="#000000">MIN_GAP_BETWEEN_APPLICATIONS</text>
<polygon fill="none" stroke="#000000" points="483.5,-337.5 483.5,-359.5 550.5,-359.5 550.5,-337.5 483.5,-337.5"/>
<text text-anchor="start" x="486.5" y="-345.2" font-family="Helvetica,sans-Serif" font-size="11.00" fill="#000000">int[10]</text>
<polygon fill="none" stroke="#000000" points="163.5,-315.5 163.5,-337.5 483.5,-337.5 483.5,-315.5 163.5,-315.5"/>
<text text-anchor="start" x="183.5" y="-322.6" font-family="Helvetica,sans-Serif" font-size="11.00" fill="#000000">ENABLE_FILE_UPLOAD</text>
<polygon fill="none" stroke="#000000" points="483.5,-315.5 483.5,-337.5 550.5,-337.5 550.5,-315.5 483.5,-315.5"/>
<text text-anchor="start" x="486.5" y="-323.2" font-family="Helvetica,sans-Serif" font-size="11.00" fill="#000000">bit[1]</text>
<polygon fill="none" stroke="#000000" points="163.5,-293.5 163.5,-315.5 483.5,-315.5 483.5,-293.5 163.5,-293.5"/>
<text text-anchor="start" x="183.5" y="-300.6" font-family="Helvetica,sans-Serif" font-size="11.00" fill="#000000">MAX_APPLICATIONS_ALLOWED</text>
<polygon fill="none" stroke="#000000" points="483.5,-293.5 483.5,-315.5 550.5,-315.5 550.5,-293.5 483.5,-293.5"/>
<text text-anchor="start" x="486.5" y="-301.2" font-family="Helvetica,sans-Serif" font-size="11.00" fill="#000000">enum[9]</text>
<polygon fill="none" stroke="#000000" points="163.5,-271.5 163.5,-293.5 483.5,-293.5 483.5,-271.5 163.5,-271.5"/>
<text text-anchor="start" x="183.5" y="-278.6" font-family="Helvetica,sans-Serif" font-size="11.00" fill="#000000">LEAVE_APPLICABLE_ON</text>
<polygon fill="none" stroke="#000000" points="483.5,-271.5 483.5,-293.5 550.5,-293.5 550.5,-271.5 483.5,-271.5"/>
<text text-anchor="start" x="486.4365" y="-279.2" font-family="Helvetica,sans-Serif" font-size="11.00" fill="#000000">varchar[100]</text>
<polygon fill="none" stroke="#000000" points="163.5,-249.5 163.5,-271.5 483.5,-271.5 483.5,-249.5 163.5,-249.5"/>
<text text-anchor="start" x="183.5" y="-256.6" font-family="Helvetica,sans-Serif" font-size="11.00" fill="#000000">LEAVE_CANNOT_BE_TAKEN_TOGETHER_WITH</text>
<polygon fill="none" stroke="#000000" points="483.5,-249.5 483.5,-271.5 550.5,-271.5 550.5,-249.5 483.5,-249.5"/>
<text text-anchor="start" x="486.4365" y="-257.2" font-family="Helvetica,sans-Serif" font-size="11.00" fill="#000000">varchar[100]</text>
<polygon fill="none" stroke="#000000" points="163.5,-227.5 163.5,-249.5 483.5,-249.5 483.5,-227.5 163.5,-227.5"/>
<text text-anchor="start" x="183.5" y="-234.6" font-family="Helvetica,sans-Serif" font-size="11.00" fill="#000000">MIN_LEAVE_PER_APPLICATION_DAYS</text>
<polygon fill="none" stroke="#000000" points="483.5,-227.5 483.5,-249.5 550.5,-249.5 550.5,-227.5 483.5,-227.5"/>
<text text-anchor="start" x="486.5" y="-235.2" font-family="Helvetica,sans-Serif" font-size="11.00" fill="#000000">int[10]</text>
<polygon fill="none" stroke="#000000" points="163.5,-205.5 163.5,-227.5 483.5,-227.5 483.5,-205.5 163.5,-205.5"/>
<text text-anchor="start" x="183.5" y="-212.6" font-family="Helvetica,sans-Serif" font-size="11.00" fill="#000000">MAX_LEAVE_PER_APPLICATION_DAYS</text>
<polygon fill="none" stroke="#000000" points="483.5,-205.5 483.5,-227.5 550.5,-227.5 550.5,-205.5 483.5,-205.5"/>
<text text-anchor="start" x="486.5" y="-213.2" font-family="Helvetica,sans-Serif" font-size="11.00" fill="#000000">int[10]</text>
<polygon fill="none" stroke="#000000" points="163.5,-183.5 163.5,-205.5 483.5,-205.5 483.5,-183.5 163.5,-183.5"/>
<text text-anchor="start" x="183.5" y="-190.6" font-family="Helvetica,sans-Serif" font-size="11.00" fill="#000000">MAX_CONSECUTIVE_DAYS_ALLOWED_DAYS</text>
<polygon fill="none" stroke="#000000" points="483.5,-183.5 483.5,-205.5 550.5,-205.5 550.5,-183.5 483.5,-183.5"/>
<text text-anchor="start" x="486.5" y="-191.2" font-family="Helvetica,sans-Serif" font-size="11.00" fill="#000000">int[10]</text>
<polygon fill="none" stroke="#000000" points="163.5,-161.5 163.5,-183.5 483.5,-183.5 483.5,-161.5 163.5,-161.5"/>
<text text-anchor="start" x="183.5" y="-168.6" font-family="Helvetica,sans-Serif" font-size="11.00" fill="#000000">MIN_GAP_BETWEEN_APPLICATIONS_DAYS</text>
<polygon fill="none" stroke="#000000" points="483.5,-161.5 483.5,-183.5 550.5,-183.5 550.5,-161.5 483.5,-161.5"/>
<text text-anchor="start" x="486.5" y="-169.2" font-family="Helvetica,sans-Serif" font-size="11.00" fill="#000000">int[10]</text>
<polygon fill="none" stroke="#000000" points="163.5,-139.5 163.5,-161.5 483.5,-161.5 483.5,-139.5 163.5,-139.5"/>
<text text-anchor="start" x="183.5" y="-146.6" font-family="Helvetica,sans-Serif" font-size="11.00" fill="#000000">ENABLE_FILE_UPLOAD_DAYS</text>
<polygon fill="none" stroke="#000000" points="483.5,-139.5 483.5,-161.5 550.5,-161.5 550.5,-139.5 483.5,-139.5"/>
<text text-anchor="start" x="486.5" y="-147.2" font-family="Helvetica,sans-Serif" font-size="11.00" fill="#000000">int[10]</text>
<polygon fill="none" stroke="#000000" points="163.5,-117.5 163.5,-139.5 483.5,-139.5 483.5,-117.5 163.5,-117.5"/>
<text text-anchor="start" x="183.5" y="-124.6" font-family="Helvetica,sans-Serif" font-size="11.00" fill="#000000">CREATED_TIME</text>
<polygon fill="none" stroke="#000000" points="483.5,-117.5 483.5,-139.5 550.5,-139.5 550.5,-117.5 483.5,-117.5"/>
<text text-anchor="start" x="486.5" y="-125.2" font-family="Helvetica,sans-Serif" font-size="11.00" fill="#000000">datetime[26]</text>
<polygon fill="none" stroke="#000000" points="163.5,-95.5 163.5,-117.5 483.5,-117.5 483.5,-95.5 163.5,-95.5"/>
<text text-anchor="start" x="183.5" y="-102.6" font-family="Helvetica,sans-Serif" font-size="11.00" fill="#000000">MODIFIED_TIME</text>
<polygon fill="none" stroke="#000000" points="483.5,-95.5 483.5,-117.5 550.5,-117.5 550.5,-95.5 483.5,-95.5"/>
<text text-anchor="start" x="486.5" y="-103.2" font-family="Helvetica,sans-Serif" font-size="11.00" fill="#000000">datetime[26]</text>
<polygon fill="#ffffff" stroke="transparent" points="163.5,-73.5 163.5,-95.5 483.5,-95.5 483.5,-73.5 163.5,-73.5"/>
<polygon fill="none" stroke="#000000" points="163.5,-73.5 163.5,-95.5 483.5,-95.5 483.5,-73.5 163.5,-73.5"/>
<image xlink:href="../../images/foreignKeys.png" width="11px" height="12px" preserveAspectRatio="xMinYMin meet" x="168.5" y="-90.5"/>
<text text-anchor="start" x="183.5" y="-80.6" font-family="Helvetica,sans-Serif" font-size="11.00" fill="#000000">CREATOR</text>
<polygon fill="none" stroke="#000000" points="483.5,-73.5 483.5,-95.5 550.5,-95.5 550.5,-73.5 483.5,-73.5"/>
<text text-anchor="start" x="486.5" y="-81.2" font-family="Helvetica,sans-Serif" font-size="11.00" fill="#000000">int[10]</text>
<polygon fill="#ffffff" stroke="transparent" points="163.5,-51.5 163.5,-73.5 483.5,-73.5 483.5,-51.5 163.5,-51.5"/>
<polygon fill="none" stroke="#000000" points="163.5,-51.5 163.5,-73.5 483.5,-73.5 483.5,-51.5 163.5,-51.5"/>
<image xlink:href="../../images/foreignKeys.png" width="11px" height="12px" preserveAspectRatio="xMinYMin meet" x="168.5" y="-68.5"/>
<text text-anchor="start" x="183.5" y="-58.6" font-family="Helvetica,sans-Serif" font-size="11.00" fill="#000000">LAST_MODIFIER</text>
<polygon fill="none" stroke="#000000" points="483.5,-51.5 483.5,-73.5 550.5,-73.5 550.5,-51.5 483.5,-51.5"/>
<text text-anchor="start" x="486.5" y="-59.2" font-family="Helvetica,sans-Serif" font-size="11.00" fill="#000000">int[10]</text>
<polygon fill="#ffffff" stroke="transparent" points="163.5,-32.5 163.5,-51.5 314.5,-51.5 314.5,-32.5 163.5,-32.5"/>
<polygon fill="none" stroke="#000000" points="163.5,-32.5 163.5,-51.5 314.5,-51.5 314.5,-32.5 163.5,-32.5"/>
<text text-anchor="start" x="166.5" y="-38.6" font-family="Helvetica,sans-Serif" font-size="11.00" fill="#000000">&lt; 2</text>
<polygon fill="#ffffff" stroke="transparent" points="314.5,-32.5 314.5,-51.5 483.5,-51.5 483.5,-32.5 314.5,-32.5"/>
<polygon fill="none" stroke="#000000" points="314.5,-32.5 314.5,-51.5 483.5,-51.5 483.5,-32.5 314.5,-32.5"/>
<text text-anchor="start" x="448.1105" y="-38.6" font-family="Helvetica,sans-Serif" font-size="11.00" fill="#000000">0 rows</text>
<polygon fill="#ffffff" stroke="transparent" points="483.5,-32.5 483.5,-51.5 550.5,-51.5 550.5,-32.5 483.5,-32.5"/>
<polygon fill="none" stroke="#000000" points="483.5,-32.5 483.5,-51.5 550.5,-51.5 550.5,-32.5 483.5,-32.5"/>
<text text-anchor="start" x="531.9053" y="-38.6" font-family="Helvetica,sans-Serif" font-size="11.00" fill="#000000">0 &gt;</text>
<polygon fill="none" stroke="#000000" stroke-width="2" points="162,-31.5 162,-691.5 551,-691.5 551,-31.5 162,-31.5"/>
</a>
</g>
</g>
<!-- User -->
<g id="node2" class="node">
<title>User</title>
<g id="a_node2"><a xlink:href="../../tables/User.html" xlink:title="User" target="_top">
<polygon fill="#ffffff" stroke="transparent" points="8,-25 8,-108 112,-108 112,-25 8,-25"/>
<polygon fill="#f5f5f5" stroke="transparent" points="8,-84.5 8,-107.5 112,-107.5 112,-84.5 8,-84.5"/>
<polygon fill="none" stroke="#000000" points="8,-84.5 8,-107.5 112,-107.5 112,-84.5 8,-84.5"/>
<text text-anchor="start" x="13" y="-93.1" font-family="Helvetica,sans-Serif" font-weight="bold" font-size="11.00" fill="#000000">User</text>
<text text-anchor="start" x="77.0437" y="-92.6" font-family="Helvetica,sans-Serif" font-size="11.00" fill="#000000">[table]</text>
<polygon fill="none" stroke="#000000" points="8,-62.5 8,-84.5 112,-84.5 112,-62.5 8,-62.5"/>
<image xlink:href="../../images/primaryKeys.png" width="11px" height="12px" preserveAspectRatio="xMinYMin meet" x="13" y="-79.5"/>
<text text-anchor="start" x="28" y="-69.6" font-family="Helvetica,sans-Serif" font-size="11.00" fill="#000000">userid_pk</text>
<polygon fill="none" stroke="#000000" points="8,-43.5 8,-62.5 112,-62.5 112,-43.5 8,-43.5"/>
<text text-anchor="start" x="11" y="-49.6" font-family="Helvetica,sans-Serif" font-size="11.00" fill="#000000">...</text>
<polygon fill="#ffffff" stroke="transparent" points="8,-24.5 8,-43.5 30,-43.5 30,-24.5 8,-24.5"/>
<polygon fill="none" stroke="#000000" points="8,-24.5 8,-43.5 30,-43.5 30,-24.5 8,-24.5"/>
<text text-anchor="start" x="11" y="-30.6" font-family="Helvetica,sans-Serif" font-size="11.00" fill="#000000"> &#160;</text>
<polygon fill="#ffffff" stroke="transparent" points="30,-24.5 30,-43.5 73,-43.5 73,-24.5 30,-24.5"/>
<polygon fill="none" stroke="#000000" points="30,-24.5 30,-43.5 73,-43.5 73,-24.5 30,-24.5"/>
<text text-anchor="start" x="37.6105" y="-30.6" font-family="Helvetica,sans-Serif" font-size="11.00" fill="#000000">0 rows</text>
<polygon fill="#ffffff" stroke="transparent" points="73,-24.5 73,-43.5 112,-43.5 112,-24.5 73,-24.5"/>
<polygon fill="none" stroke="#000000" points="73,-24.5 73,-43.5 112,-43.5 112,-24.5 73,-24.5"/>
<text text-anchor="start" x="81.1755" y="-30.6" font-family="Helvetica,sans-Serif" font-size="11.00" fill="#000000">102 &gt;</text>
</a>
</g>
</g>
<!-- RESTRICTIONS&#45;&gt;User -->
<g id="edge1" class="edge">
<title>RESTRICTIONS:w&#45;&gt;User:e</title>
<path fill="none" stroke="#000000" d="M148.8704,-82.7813C136.5803,-79.6875 129.5539,-73.5 112,-73.5"/>
<polygon fill="#000000" stroke="#000000" points="155.5546,-83.5665 163.0799,-88.0754 159.5273,-84.0332 163.5,-84.5 163.5,-84.5 163.5,-84.5 159.5273,-84.0332 163.9201,-80.9246 155.5546,-83.5665 155.5546,-83.5665"/>
<ellipse fill="none" stroke="#000000" cx="152.3765" cy="-83.1931" rx="3.2" ry="3.2"/>
</g>
<!-- RESTRICTIONS&#45;&gt;User -->
<g id="edge2" class="edge">
<title>RESTRICTIONS:w&#45;&gt;User:e</title>
<path fill="none" stroke="#000000" d="M148.8704,-64.2188C136.5803,-67.3125 129.5539,-73.5 112,-73.5"/>
<polygon fill="#000000" stroke="#000000" points="155.5546,-63.4335 163.9201,-66.0754 159.5273,-62.9668 163.5,-62.5 163.5,-62.5 163.5,-62.5 159.5273,-62.9668 163.0799,-58.9246 155.5546,-63.4335 155.5546,-63.4335"/>
<ellipse fill="none" stroke="#000000" cx="152.3765" cy="-63.8069" rx="3.2" ry="3.2"/>
</g>
</g>
</svg>
