<?xml version="1.0" encoding="UTF-8" standalone="no"?>
<!DOCTYPE svg PUBLIC "-//W3C//DTD SVG 1.1//EN"
 "http://www.w3.org/Graphics/SVG/1.1/DTD/svg11.dtd">
<!-- Generated by graphviz version 2.40.1 (20161225.0304)
 -->
<!-- Title: oneDegreeRelationshipsDiagram Pages: 1 -->
<svg width="729pt" height="376pt"
 viewBox="0.00 0.00 729.00 375.50" xmlns="http://www.w3.org/2000/svg" xmlns:xlink="http://www.w3.org/1999/xlink">
<g id="graph0" class="graph" transform="scale(1 1) rotate(0) translate(4 371.5)">
<title>oneDegreeRelationshipsDiagram</title>
<polygon fill="#ffffff" stroke="transparent" points="-4,4 -4,-371.5 725,-371.5 725,4 -4,4"/>
<!-- CITY -->
<g id="node1" class="node">
<title>CITY</title>
<g id="a_node1"><a xlink:href="../../tables/CITY.html" xlink:title="CITY" target="_top">
<polygon fill="#ffffff" stroke="transparent" points="586,-25 586,-174 713,-174 713,-25 586,-25"/>
<polygon fill="#f5f5f5" stroke="transparent" points="586.5,-150.5 586.5,-173.5 713.5,-173.5 713.5,-150.5 586.5,-150.5"/>
<polygon fill="none" stroke="#000000" points="586.5,-150.5 586.5,-173.5 713.5,-173.5 713.5,-150.5 586.5,-150.5"/>
<text text-anchor="start" x="591.5" y="-159.1" font-family="Helvetica,sans-Serif" font-weight="bold" font-size="11.00" fill="#000000">CITY</text>
<text text-anchor="start" x="678.5437" y="-158.6" font-family="Helvetica,sans-Serif" font-size="11.00" fill="#000000">[table]</text>
<polygon fill="none" stroke="#000000" points="586.5,-128.5 586.5,-150.5 713.5,-150.5 713.5,-128.5 586.5,-128.5"/>
<image xlink:href="../../images/primaryKeys.png" width="11px" height="12px" preserveAspectRatio="xMinYMin meet" x="591.5" y="-145.5"/>
<text text-anchor="start" x="606.5" y="-135.6" font-family="Helvetica,sans-Serif" font-size="11.00" fill="#000000">ID</text>
<polygon fill="#ffffff" stroke="transparent" points="586.5,-106.5 586.5,-128.5 713.5,-128.5 713.5,-106.5 586.5,-106.5"/>
<polygon fill="none" stroke="#000000" points="586.5,-106.5 586.5,-128.5 713.5,-128.5 713.5,-106.5 586.5,-106.5"/>
<image xlink:href="../../images/foreignKeys.png" width="11px" height="12px" preserveAspectRatio="xMinYMin meet" x="591.5" y="-123.5"/>
<text text-anchor="start" x="606.5" y="-113.6" font-family="Helvetica,sans-Serif" font-size="11.00" fill="#000000">STATE_ID</text>
<polygon fill="#ffffff" stroke="transparent" points="586.5,-84.5 586.5,-106.5 713.5,-106.5 713.5,-84.5 586.5,-84.5"/>
<polygon fill="none" stroke="#000000" points="586.5,-84.5 586.5,-106.5 713.5,-106.5 713.5,-84.5 586.5,-84.5"/>
<image xlink:href="../../images/foreignKeys.png" width="11px" height="12px" preserveAspectRatio="xMinYMin meet" x="591.5" y="-101.5"/>
<text text-anchor="start" x="606.5" y="-91.6" font-family="Helvetica,sans-Serif" font-size="11.00" fill="#000000">CREATOR</text>
<polygon fill="#ffffff" stroke="transparent" points="586.5,-62.5 586.5,-84.5 713.5,-84.5 713.5,-62.5 586.5,-62.5"/>
<polygon fill="none" stroke="#000000" points="586.5,-62.5 586.5,-84.5 713.5,-84.5 713.5,-62.5 586.5,-62.5"/>
<image xlink:href="../../images/foreignKeys.png" width="11px" height="12px" preserveAspectRatio="xMinYMin meet" x="591.5" y="-79.5"/>
<text text-anchor="start" x="606.5" y="-69.6" font-family="Helvetica,sans-Serif" font-size="11.00" fill="#000000">LAST_MODIFIER</text>
<polygon fill="none" stroke="#000000" points="586.5,-43.5 586.5,-62.5 713.5,-62.5 713.5,-43.5 586.5,-43.5"/>
<text text-anchor="start" x="589.5" y="-49.6" font-family="Helvetica,sans-Serif" font-size="11.00" fill="#000000">...</text>
<polygon fill="#ffffff" stroke="transparent" points="586.5,-24.5 586.5,-43.5 635.5,-43.5 635.5,-24.5 586.5,-24.5"/>
<polygon fill="none" stroke="#000000" points="586.5,-24.5 586.5,-43.5 635.5,-43.5 635.5,-24.5 586.5,-24.5"/>
<text text-anchor="start" x="589.5" y="-30.6" font-family="Helvetica,sans-Serif" font-size="11.00" fill="#000000">&lt; 3</text>
<polygon fill="#ffffff" stroke="transparent" points="635.5,-24.5 635.5,-43.5 687.5,-43.5 687.5,-24.5 635.5,-24.5"/>
<polygon fill="none" stroke="#000000" points="635.5,-24.5 635.5,-43.5 687.5,-43.5 687.5,-24.5 635.5,-24.5"/>
<text text-anchor="start" x="652.1105" y="-30.6" font-family="Helvetica,sans-Serif" font-size="11.00" fill="#000000">0 rows</text>
<polygon fill="#ffffff" stroke="transparent" points="687.5,-24.5 687.5,-43.5 713.5,-43.5 713.5,-24.5 687.5,-24.5"/>
<polygon fill="none" stroke="#000000" points="687.5,-24.5 687.5,-43.5 713.5,-43.5 713.5,-24.5 687.5,-24.5"/>
<text text-anchor="start" x="704.3862" y="-30.6" font-family="Helvetica,sans-Serif" font-size="11.00" fill="#000000"> &#160;</text>
</a>
</g>
</g>
<!-- User -->
<g id="node2" class="node">
<title>User</title>
<g id="a_node2"><a xlink:href="../../tables/User.html" xlink:title="User" target="_top">
<polygon fill="#ffffff" stroke="transparent" points="8,-104 8,-187 112,-187 112,-104 8,-104"/>
<polygon fill="#f5f5f5" stroke="transparent" points="8,-163.5 8,-186.5 112,-186.5 112,-163.5 8,-163.5"/>
<polygon fill="none" stroke="#000000" points="8,-163.5 8,-186.5 112,-186.5 112,-163.5 8,-163.5"/>
<text text-anchor="start" x="13" y="-172.1" font-family="Helvetica,sans-Serif" font-weight="bold" font-size="11.00" fill="#000000">User</text>
<text text-anchor="start" x="77.0437" y="-171.6" font-family="Helvetica,sans-Serif" font-size="11.00" fill="#000000">[table]</text>
<polygon fill="none" stroke="#000000" points="8,-141.5 8,-163.5 112,-163.5 112,-141.5 8,-141.5"/>
<image xlink:href="../../images/primaryKeys.png" width="11px" height="12px" preserveAspectRatio="xMinYMin meet" x="13" y="-158.5"/>
<text text-anchor="start" x="28" y="-148.6" font-family="Helvetica,sans-Serif" font-size="11.00" fill="#000000">userid_pk</text>
<polygon fill="none" stroke="#000000" points="8,-122.5 8,-141.5 112,-141.5 112,-122.5 8,-122.5"/>
<text text-anchor="start" x="11" y="-128.6" font-family="Helvetica,sans-Serif" font-size="11.00" fill="#000000">...</text>
<polygon fill="#ffffff" stroke="transparent" points="8,-103.5 8,-122.5 30,-122.5 30,-103.5 8,-103.5"/>
<polygon fill="none" stroke="#000000" points="8,-103.5 8,-122.5 30,-122.5 30,-103.5 8,-103.5"/>
<text text-anchor="start" x="11" y="-109.6" font-family="Helvetica,sans-Serif" font-size="11.00" fill="#000000"> &#160;</text>
<polygon fill="#ffffff" stroke="transparent" points="30,-103.5 30,-122.5 73,-122.5 73,-103.5 30,-103.5"/>
<polygon fill="none" stroke="#000000" points="30,-103.5 30,-122.5 73,-122.5 73,-103.5 30,-103.5"/>
<text text-anchor="start" x="37.6105" y="-109.6" font-family="Helvetica,sans-Serif" font-size="11.00" fill="#000000">0 rows</text>
<polygon fill="#ffffff" stroke="transparent" points="73,-103.5 73,-122.5 112,-122.5 112,-103.5 73,-103.5"/>
<polygon fill="none" stroke="#000000" points="73,-103.5 73,-122.5 112,-122.5 112,-103.5 73,-103.5"/>
<text text-anchor="start" x="81.1755" y="-109.6" font-family="Helvetica,sans-Serif" font-size="11.00" fill="#000000">102 &gt;</text>
</a>
</g>
</g>
<!-- CITY&#45;&gt;User -->
<g id="edge1" class="edge">
<title>CITY:w&#45;&gt;User:e</title>
<path fill="none" stroke="#000000" d="M571.9865,-95.4949C470.0889,-95.4305 438.8636,-94.9951 331,-108.5 281.7454,-114.6668 161.6392,-152.5 112,-152.5"/>
<polygon fill="#000000" stroke="#000000" points="578.5,-95.4971 586.4987,-99.1 582.5,-95.4986 586.5,-95.5 586.5,-95.5 586.5,-95.5 582.5,-95.4986 586.5013,-91.9 578.5,-95.4971 578.5,-95.4971"/>
<ellipse fill="none" stroke="#000000" cx="575.3" cy="-95.496" rx="3.2" ry="3.2"/>
</g>
<!-- CITY&#45;&gt;User -->
<g id="edge2" class="edge">
<title>CITY:w&#45;&gt;User:e</title>
<path fill="none" stroke="#000000" d="M572.009,-73.418C389.6716,-71.356 323.3766,-31.7749 153,-112.5 129.9939,-123.4004 137.4578,-152.5 112,-152.5"/>
<polygon fill="#000000" stroke="#000000" points="578.5001,-73.4547 586.4796,-77.0999 582.5001,-73.4773 586.5,-73.5 586.5,-73.5 586.5,-73.5 582.5001,-73.4773 586.5204,-69.9001 578.5001,-73.4547 578.5001,-73.4547"/>
<ellipse fill="none" stroke="#000000" cx="575.3002" cy="-73.4366" rx="3.2" ry="3.2"/>
</g>
<!-- STATE -->
<g id="node3" class="node">
<title>STATE</title>
<g id="a_node3"><a xlink:href="../../tables/STATE.html" xlink:title="STATE" target="_top">
<polygon fill="#ffffff" stroke="transparent" points="339,-119.5 339,-363.5 537,-363.5 537,-119.5 339,-119.5"/>
<polygon fill="#f5f5f5" stroke="transparent" points="341,-338.5 341,-361.5 535,-361.5 535,-338.5 341,-338.5"/>
<polygon fill="none" stroke="#000000" points="341,-338.5 341,-361.5 535,-361.5 535,-338.5 341,-338.5"/>
<text text-anchor="start" x="346" y="-347.1" font-family="Helvetica,sans-Serif" font-weight="bold" font-size="11.00" fill="#000000">STATE</text>
<text text-anchor="start" x="500.0437" y="-346.6" font-family="Helvetica,sans-Serif" font-size="11.00" fill="#000000">[table]</text>
<polygon fill="none" stroke="#000000" points="341,-316.5 341,-338.5 468,-338.5 468,-316.5 341,-316.5"/>
<image xlink:href="../../images/primaryKeys.png" width="11px" height="12px" preserveAspectRatio="xMinYMin meet" x="346" y="-333.5"/>
<text text-anchor="start" x="361" y="-323.6" font-family="Helvetica,sans-Serif" font-size="11.00" fill="#000000">ID</text>
<polygon fill="none" stroke="#000000" points="468,-316.5 468,-338.5 535,-338.5 535,-316.5 468,-316.5"/>
<text text-anchor="start" x="471" y="-324.2" font-family="Helvetica,sans-Serif" font-size="11.00" fill="#000000">int[10]</text>
<polygon fill="none" stroke="#000000" points="341,-294.5 341,-316.5 468,-316.5 468,-294.5 341,-294.5"/>
<text text-anchor="start" x="361" y="-301.6" font-family="Helvetica,sans-Serif" font-size="11.00" fill="#000000">WORKSPACE_ID</text>
<polygon fill="none" stroke="#000000" points="468,-294.5 468,-316.5 535,-316.5 535,-294.5 468,-294.5"/>
<text text-anchor="start" x="471" y="-302.2" font-family="Helvetica,sans-Serif" font-size="11.00" fill="#000000">int[10]</text>
<polygon fill="#ffffff" stroke="transparent" points="341,-272.5 341,-294.5 468,-294.5 468,-272.5 341,-272.5"/>
<polygon fill="none" stroke="#000000" points="341,-272.5 341,-294.5 468,-294.5 468,-272.5 341,-272.5"/>
<image xlink:href="../../images/foreignKeys.png" width="11px" height="12px" preserveAspectRatio="xMinYMin meet" x="346" y="-289.5"/>
<text text-anchor="start" x="361" y="-279.6" font-family="Helvetica,sans-Serif" font-size="11.00" fill="#000000">COUNTRY_ID</text>
<polygon fill="none" stroke="#000000" points="468,-272.5 468,-294.5 535,-294.5 535,-272.5 468,-272.5"/>
<text text-anchor="start" x="471" y="-280.2" font-family="Helvetica,sans-Serif" font-size="11.00" fill="#000000">int[10]</text>
<polygon fill="none" stroke="#000000" points="341,-250.5 341,-272.5 468,-272.5 468,-250.5 341,-250.5"/>
<text text-anchor="start" x="361" y="-257.6" font-family="Helvetica,sans-Serif" font-size="11.00" fill="#000000">NAME</text>
<polygon fill="none" stroke="#000000" points="468,-250.5 468,-272.5 535,-272.5 535,-250.5 468,-250.5"/>
<text text-anchor="start" x="470.9365" y="-258.2" font-family="Helvetica,sans-Serif" font-size="11.00" fill="#000000">varchar[100]</text>
<polygon fill="none" stroke="#000000" points="341,-228.5 341,-250.5 468,-250.5 468,-228.5 341,-228.5"/>
<text text-anchor="start" x="361" y="-235.6" font-family="Helvetica,sans-Serif" font-size="11.00" fill="#000000">DISPLAY_NAME</text>
<polygon fill="none" stroke="#000000" points="468,-228.5 468,-250.5 535,-250.5 535,-228.5 468,-228.5"/>
<text text-anchor="start" x="470.9365" y="-236.2" font-family="Helvetica,sans-Serif" font-size="11.00" fill="#000000">varchar[100]</text>
<polygon fill="none" stroke="#000000" points="341,-206.5 341,-228.5 468,-228.5 468,-206.5 341,-206.5"/>
<text text-anchor="start" x="361" y="-213.6" font-family="Helvetica,sans-Serif" font-size="11.00" fill="#000000">CREATED_TIME</text>
<polygon fill="none" stroke="#000000" points="468,-206.5 468,-228.5 535,-228.5 535,-206.5 468,-206.5"/>
<text text-anchor="start" x="471" y="-214.2" font-family="Helvetica,sans-Serif" font-size="11.00" fill="#000000">datetime[26]</text>
<polygon fill="none" stroke="#000000" points="341,-184.5 341,-206.5 468,-206.5 468,-184.5 341,-184.5"/>
<text text-anchor="start" x="361" y="-191.6" font-family="Helvetica,sans-Serif" font-size="11.00" fill="#000000">MODIFIED_TIME</text>
<polygon fill="none" stroke="#000000" points="468,-184.5 468,-206.5 535,-206.5 535,-184.5 468,-184.5"/>
<text text-anchor="start" x="471" y="-192.2" font-family="Helvetica,sans-Serif" font-size="11.00" fill="#000000">datetime[26]</text>
<polygon fill="#ffffff" stroke="transparent" points="341,-162.5 341,-184.5 468,-184.5 468,-162.5 341,-162.5"/>
<polygon fill="none" stroke="#000000" points="341,-162.5 341,-184.5 468,-184.5 468,-162.5 341,-162.5"/>
<image xlink:href="../../images/foreignKeys.png" width="11px" height="12px" preserveAspectRatio="xMinYMin meet" x="346" y="-179.5"/>
<text text-anchor="start" x="361" y="-169.6" font-family="Helvetica,sans-Serif" font-size="11.00" fill="#000000">CREATOR</text>
<polygon fill="none" stroke="#000000" points="468,-162.5 468,-184.5 535,-184.5 535,-162.5 468,-162.5"/>
<text text-anchor="start" x="471" y="-170.2" font-family="Helvetica,sans-Serif" font-size="11.00" fill="#000000">int[10]</text>
<polygon fill="#ffffff" stroke="transparent" points="341,-140.5 341,-162.5 468,-162.5 468,-140.5 341,-140.5"/>
<polygon fill="none" stroke="#000000" points="341,-140.5 341,-162.5 468,-162.5 468,-140.5 341,-140.5"/>
<image xlink:href="../../images/foreignKeys.png" width="11px" height="12px" preserveAspectRatio="xMinYMin meet" x="346" y="-157.5"/>
<text text-anchor="start" x="361" y="-147.6" font-family="Helvetica,sans-Serif" font-size="11.00" fill="#000000">LAST_MODIFIER</text>
<polygon fill="none" stroke="#000000" points="468,-140.5 468,-162.5 535,-162.5 535,-140.5 468,-140.5"/>
<text text-anchor="start" x="471" y="-148.2" font-family="Helvetica,sans-Serif" font-size="11.00" fill="#000000">int[10]</text>
<polygon fill="#ffffff" stroke="transparent" points="341,-121.5 341,-140.5 396,-140.5 396,-121.5 341,-121.5"/>
<polygon fill="none" stroke="#000000" points="341,-121.5 341,-140.5 396,-140.5 396,-121.5 341,-121.5"/>
<text text-anchor="start" x="344" y="-127.6" font-family="Helvetica,sans-Serif" font-size="11.00" fill="#000000">&lt; 3</text>
<polygon fill="#ffffff" stroke="transparent" points="396,-121.5 396,-140.5 468,-140.5 468,-121.5 396,-121.5"/>
<polygon fill="none" stroke="#000000" points="396,-121.5 396,-140.5 468,-140.5 468,-121.5 396,-121.5"/>
<text text-anchor="start" x="432.6105" y="-127.6" font-family="Helvetica,sans-Serif" font-size="11.00" fill="#000000">0 rows</text>
<polygon fill="#ffffff" stroke="transparent" points="468,-121.5 468,-140.5 535,-140.5 535,-121.5 468,-121.5"/>
<polygon fill="none" stroke="#000000" points="468,-121.5 468,-140.5 535,-140.5 535,-121.5 468,-121.5"/>
<text text-anchor="start" x="516.4053" y="-127.6" font-family="Helvetica,sans-Serif" font-size="11.00" fill="#000000">1 &gt;</text>
<polygon fill="none" stroke="#000000" stroke-width="2" points="340,-120.5 340,-362.5 536,-362.5 536,-120.5 340,-120.5"/>
</a>
</g>
</g>
<!-- CITY&#45;&gt;STATE -->
<g id="edge3" class="edge">
<title>CITY:w&#45;&gt;STATE:e</title>
<path fill="none" stroke="#000000" d="M571.9513,-119.5784C506.0761,-141.3884 625.4682,-327.5 535,-327.5"/>
<polygon fill="#000000" stroke="#000000" points="578.5804,-118.6314 587.0092,-121.0638 582.5402,-118.0657 586.5,-117.5 586.5,-117.5 586.5,-117.5 582.5402,-118.0657 585.9908,-113.9362 578.5804,-118.6314 578.5804,-118.6314"/>
<ellipse fill="none" stroke="#000000" cx="575.4126" cy="-119.084" rx="3.2" ry="3.2"/>
</g>
<!-- STATE&#45;&gt;User -->
<g id="edge7" class="edge">
<title>STATE:w&#45;&gt;User:e</title>
<path fill="none" stroke="#000000" d="M326.5657,-173.3547C236.2087,-171.4993 209.2144,-152.5 112,-152.5"/>
<polygon fill="#000000" stroke="#000000" points="333.0004,-173.4194 340.9637,-177.0998 337.0002,-173.4597 341,-173.5 341,-173.5 341,-173.5 337.0002,-173.4597 341.0363,-169.9002 333.0004,-173.4194 333.0004,-173.4194"/>
<ellipse fill="none" stroke="#000000" cx="329.8006" cy="-173.3872" rx="3.2" ry="3.2"/>
</g>
<!-- STATE&#45;&gt;User -->
<g id="edge8" class="edge">
<title>STATE:w&#45;&gt;User:e</title>
<path fill="none" stroke="#000000" d="M326.4842,-151.4895C254.6845,-151.3841 231.4907,-150.5429 153,-151.5 134.7737,-151.7222 130.2276,-152.5 112,-152.5"/>
<polygon fill="#000000" stroke="#000000" points="333,-151.4941 340.9974,-155.1 337,-151.4971 341,-151.5 341,-151.5 341,-151.5 337,-151.4971 341.0026,-147.9 333,-151.4941 333,-151.4941"/>
<ellipse fill="none" stroke="#000000" cx="329.8" cy="-151.4918" rx="3.2" ry="3.2"/>
</g>
<!-- COUNTRY -->
<g id="node4" class="node">
<title>COUNTRY</title>
<g id="a_node4"><a xlink:href="../../tables/COUNTRY.html" xlink:title="COUNTRY" target="_top">
<polygon fill="#ffffff" stroke="transparent" points="161,-191 161,-318 290,-318 290,-191 161,-191"/>
<polygon fill="#f5f5f5" stroke="transparent" points="161.5,-294.5 161.5,-317.5 290.5,-317.5 290.5,-294.5 161.5,-294.5"/>
<polygon fill="none" stroke="#000000" points="161.5,-294.5 161.5,-317.5 290.5,-317.5 290.5,-294.5 161.5,-294.5"/>
<text text-anchor="start" x="166.5" y="-303.1" font-family="Helvetica,sans-Serif" font-weight="bold" font-size="11.00" fill="#000000">COUNTRY</text>
<text text-anchor="start" x="255.5437" y="-302.6" font-family="Helvetica,sans-Serif" font-size="11.00" fill="#000000">[table]</text>
<polygon fill="none" stroke="#000000" points="161.5,-272.5 161.5,-294.5 290.5,-294.5 290.5,-272.5 161.5,-272.5"/>
<image xlink:href="../../images/primaryKeys.png" width="11px" height="12px" preserveAspectRatio="xMinYMin meet" x="166.5" y="-289.5"/>
<text text-anchor="start" x="181.5" y="-279.6" font-family="Helvetica,sans-Serif" font-size="11.00" fill="#000000">ID</text>
<polygon fill="#ffffff" stroke="transparent" points="161.5,-250.5 161.5,-272.5 290.5,-272.5 290.5,-250.5 161.5,-250.5"/>
<polygon fill="none" stroke="#000000" points="161.5,-250.5 161.5,-272.5 290.5,-272.5 290.5,-250.5 161.5,-250.5"/>
<image xlink:href="../../images/foreignKeys.png" width="11px" height="12px" preserveAspectRatio="xMinYMin meet" x="166.5" y="-267.5"/>
<text text-anchor="start" x="181.5" y="-257.6" font-family="Helvetica,sans-Serif" font-size="11.00" fill="#000000">CREATOR</text>
<polygon fill="#ffffff" stroke="transparent" points="161.5,-228.5 161.5,-250.5 290.5,-250.5 290.5,-228.5 161.5,-228.5"/>
<polygon fill="none" stroke="#000000" points="161.5,-228.5 161.5,-250.5 290.5,-250.5 290.5,-228.5 161.5,-228.5"/>
<image xlink:href="../../images/foreignKeys.png" width="11px" height="12px" preserveAspectRatio="xMinYMin meet" x="166.5" y="-245.5"/>
<text text-anchor="start" x="181.5" y="-235.6" font-family="Helvetica,sans-Serif" font-size="11.00" fill="#000000">LAST_MODIFIER</text>
<polygon fill="none" stroke="#000000" points="161.5,-209.5 161.5,-228.5 290.5,-228.5 290.5,-209.5 161.5,-209.5"/>
<text text-anchor="start" x="164.5" y="-215.6" font-family="Helvetica,sans-Serif" font-size="11.00" fill="#000000">...</text>
<polygon fill="#ffffff" stroke="transparent" points="161.5,-190.5 161.5,-209.5 206.5,-209.5 206.5,-190.5 161.5,-190.5"/>
<polygon fill="none" stroke="#000000" points="161.5,-190.5 161.5,-209.5 206.5,-209.5 206.5,-190.5 161.5,-190.5"/>
<text text-anchor="start" x="164.5" y="-196.6" font-family="Helvetica,sans-Serif" font-size="11.00" fill="#000000">&lt; 2</text>
<polygon fill="#ffffff" stroke="transparent" points="206.5,-190.5 206.5,-209.5 256.5,-209.5 256.5,-190.5 206.5,-190.5"/>
<polygon fill="none" stroke="#000000" points="206.5,-190.5 206.5,-209.5 256.5,-209.5 256.5,-190.5 206.5,-190.5"/>
<text text-anchor="start" x="221.1105" y="-196.6" font-family="Helvetica,sans-Serif" font-size="11.00" fill="#000000">0 rows</text>
<polygon fill="#ffffff" stroke="transparent" points="256.5,-190.5 256.5,-209.5 290.5,-209.5 290.5,-190.5 256.5,-190.5"/>
<polygon fill="none" stroke="#000000" points="256.5,-190.5 256.5,-209.5 290.5,-209.5 290.5,-190.5 256.5,-190.5"/>
<text text-anchor="start" x="271.9053" y="-196.6" font-family="Helvetica,sans-Serif" font-size="11.00" fill="#000000">1 &gt;</text>
</a>
</g>
</g>
<!-- STATE&#45;&gt;COUNTRY -->
<g id="edge6" class="edge">
<title>STATE:w&#45;&gt;COUNTRY:e</title>
<path fill="none" stroke="#000000" d="M326.4203,-283.5C314.5435,-283.5 307.158,-283.5 290.5,-283.5"/>
<polygon fill="#000000" stroke="#000000" points="333,-283.5001 341,-287.1 337,-283.5 341,-283.5 341,-283.5 341,-283.5 337,-283.5 341,-279.9 333,-283.5001 333,-283.5001"/>
<ellipse fill="none" stroke="#000000" cx="329.8" cy="-283.5001" rx="3.2" ry="3.2"/>
</g>
<!-- COUNTRY&#45;&gt;User -->
<g id="edge4" class="edge">
<title>COUNTRY:w&#45;&gt;User:e</title>
<path fill="none" stroke="#000000" d="M147.3375,-257.6206C119.7751,-238.2034 159.1786,-152.5 112,-152.5"/>
<polygon fill="#000000" stroke="#000000" points="153.7842,-259.3865 160.5489,-264.9721 157.6421,-260.4432 161.5,-261.5 161.5,-261.5 161.5,-261.5 157.6421,-260.4432 162.4511,-258.0279 153.7842,-259.3865 153.7842,-259.3865"/>
<ellipse fill="none" stroke="#000000" cx="150.6979" cy="-258.5411" rx="3.2" ry="3.2"/>
</g>
<!-- COUNTRY&#45;&gt;User -->
<g id="edge5" class="edge">
<title>COUNTRY:w&#45;&gt;User:e</title>
<path fill="none" stroke="#000000" d="M147.5324,-235.066C126.2372,-217.3371 150.405,-152.5 112,-152.5"/>
<polygon fill="#000000" stroke="#000000" points="153.875,-237.0794 160.4107,-242.9313 157.6875,-238.2897 161.5,-239.5 161.5,-239.5 161.5,-239.5 157.6875,-238.2897 162.5893,-236.0687 153.875,-237.0794 153.875,-237.0794"/>
<ellipse fill="none" stroke="#000000" cx="150.825" cy="-236.1112" rx="3.2" ry="3.2"/>
</g>
</g>
</svg>
