<?xml version="1.0" encoding="UTF-8" standalone="no"?>
<!DOCTYPE svg PUBLIC "-//W3C//DTD SVG 1.1//EN"
 "http://www.w3.org/Graphics/SVG/1.1/DTD/svg11.dtd">
<!-- Generated by graphviz version 2.40.1 (20161225.0304)
 -->
<!-- Title: oneDegreeRelationshipsDiagram Pages: 1 -->
<svg width="635pt" height="435pt"
 viewBox="0.00 0.00 635.00 435.00" xmlns="http://www.w3.org/2000/svg" xmlns:xlink="http://www.w3.org/1999/xlink">
<g id="graph0" class="graph" transform="scale(1 1) rotate(0) translate(4 431)">
<title>oneDegreeRelationshipsDiagram</title>
<polygon fill="#ffffff" stroke="transparent" points="-4,4 -4,-431 631,-431 631,4 -4,4"/>
<!-- JOBS -->
<g id="node1" class="node">
<title>JOBS</title>
<g id="a_node1"><a xlink:href="../../tables/JOBS.html" xlink:title="JOBS" target="_top">
<polygon fill="#ffffff" stroke="transparent" points="161,-106.5 161,-233.5 313,-233.5 313,-106.5 161,-106.5"/>
<polygon fill="#f5f5f5" stroke="transparent" points="161,-210 161,-233 313,-233 313,-210 161,-210"/>
<polygon fill="none" stroke="#000000" points="161,-210 161,-233 313,-233 313,-210 161,-210"/>
<text text-anchor="start" x="165.6357" y="-218.6" font-family="Helvetica,sans-Serif" font-weight="bold" font-size="11.00" fill="#000000">JOBS</text>
<text text-anchor="start" x="278.0437" y="-218.1" font-family="Helvetica,sans-Serif" font-size="11.00" fill="#000000">[table]</text>
<polygon fill="none" stroke="#000000" points="161,-188 161,-210 313,-210 313,-188 161,-188"/>
<image xlink:href="../../images/primaryKeys.png" width="11px" height="12px" preserveAspectRatio="xMinYMin meet" x="166" y="-205"/>
<text text-anchor="start" x="181" y="-195.1" font-family="Helvetica,sans-Serif" font-size="11.00" fill="#000000">ID</text>
<polygon fill="#ffffff" stroke="transparent" points="161,-166 161,-188 313,-188 313,-166 161,-166"/>
<polygon fill="none" stroke="#000000" points="161,-166 161,-188 313,-188 313,-166 161,-166"/>
<image xlink:href="../../images/foreignKeys.png" width="11px" height="12px" preserveAspectRatio="xMinYMin meet" x="166" y="-183"/>
<text text-anchor="start" x="181" y="-173.1" font-family="Helvetica,sans-Serif" font-size="11.00" fill="#000000">CREATOR</text>
<polygon fill="#ffffff" stroke="transparent" points="161,-144 161,-166 313,-166 313,-144 161,-144"/>
<polygon fill="none" stroke="#000000" points="161,-144 161,-166 313,-166 313,-144 161,-144"/>
<image xlink:href="../../images/foreignKeys.png" width="11px" height="12px" preserveAspectRatio="xMinYMin meet" x="166" y="-161"/>
<text text-anchor="start" x="181" y="-151.1" font-family="Helvetica,sans-Serif" font-size="11.00" fill="#000000">LAST_MODIFIER</text>
<polygon fill="none" stroke="#000000" points="161,-125 161,-144 313,-144 313,-125 161,-125"/>
<text text-anchor="start" x="164" y="-131.1" font-family="Helvetica,sans-Serif" font-size="11.00" fill="#000000">...</text>
<polygon fill="#ffffff" stroke="transparent" points="161,-106 161,-125 218,-125 218,-106 161,-106"/>
<polygon fill="none" stroke="#000000" points="161,-106 161,-125 218,-125 218,-106 161,-106"/>
<text text-anchor="start" x="164" y="-112.1" font-family="Helvetica,sans-Serif" font-size="11.00" fill="#000000">&lt; 2</text>
<polygon fill="#ffffff" stroke="transparent" points="218,-106 218,-125 274,-125 274,-106 218,-106"/>
<polygon fill="none" stroke="#000000" points="218,-106 218,-125 274,-125 274,-106 218,-106"/>
<text text-anchor="start" x="238.6105" y="-112.1" font-family="Helvetica,sans-Serif" font-size="11.00" fill="#000000">0 rows</text>
<polygon fill="#ffffff" stroke="transparent" points="274,-106 274,-125 313,-125 313,-106 274,-106"/>
<polygon fill="none" stroke="#000000" points="274,-106 274,-125 313,-125 313,-106 274,-106"/>
<text text-anchor="start" x="294.4053" y="-112.1" font-family="Helvetica,sans-Serif" font-size="11.00" fill="#000000">1 &gt;</text>
</a>
</g>
</g>
<!-- User -->
<g id="node2" class="node">
<title>User</title>
<g id="a_node2"><a xlink:href="../../tables/User.html" xlink:title="User" target="_top">
<polygon fill="#ffffff" stroke="transparent" points="8,-117.5 8,-200.5 112,-200.5 112,-117.5 8,-117.5"/>
<polygon fill="#f5f5f5" stroke="transparent" points="8,-177 8,-200 112,-200 112,-177 8,-177"/>
<polygon fill="none" stroke="#000000" points="8,-177 8,-200 112,-200 112,-177 8,-177"/>
<text text-anchor="start" x="13" y="-185.6" font-family="Helvetica,sans-Serif" font-weight="bold" font-size="11.00" fill="#000000">User</text>
<text text-anchor="start" x="77.0437" y="-185.1" font-family="Helvetica,sans-Serif" font-size="11.00" fill="#000000">[table]</text>
<polygon fill="none" stroke="#000000" points="8,-155 8,-177 112,-177 112,-155 8,-155"/>
<image xlink:href="../../images/primaryKeys.png" width="11px" height="12px" preserveAspectRatio="xMinYMin meet" x="13" y="-172"/>
<text text-anchor="start" x="28" y="-162.1" font-family="Helvetica,sans-Serif" font-size="11.00" fill="#000000">userid_pk</text>
<polygon fill="none" stroke="#000000" points="8,-136 8,-155 112,-155 112,-136 8,-136"/>
<text text-anchor="start" x="11" y="-142.1" font-family="Helvetica,sans-Serif" font-size="11.00" fill="#000000">...</text>
<polygon fill="#ffffff" stroke="transparent" points="8,-117 8,-136 30,-136 30,-117 8,-117"/>
<polygon fill="none" stroke="#000000" points="8,-117 8,-136 30,-136 30,-117 8,-117"/>
<text text-anchor="start" x="11" y="-123.1" font-family="Helvetica,sans-Serif" font-size="11.00" fill="#000000"> &#160;</text>
<polygon fill="#ffffff" stroke="transparent" points="30,-117 30,-136 73,-136 73,-117 30,-117"/>
<polygon fill="none" stroke="#000000" points="30,-117 30,-136 73,-136 73,-117 30,-117"/>
<text text-anchor="start" x="37.6105" y="-123.1" font-family="Helvetica,sans-Serif" font-size="11.00" fill="#000000">0 rows</text>
<polygon fill="#ffffff" stroke="transparent" points="73,-117 73,-136 112,-136 112,-117 73,-117"/>
<polygon fill="none" stroke="#000000" points="73,-117 73,-136 112,-136 112,-117 73,-117"/>
<text text-anchor="start" x="81.1755" y="-123.1" font-family="Helvetica,sans-Serif" font-size="11.00" fill="#000000">102 &gt;</text>
</a>
</g>
</g>
<!-- JOBS&#45;&gt;User -->
<g id="edge1" class="edge">
<title>JOBS:w&#45;&gt;User:e</title>
<path fill="none" stroke="#000000" d="M146.7027,-175.1836C135.2382,-172.0593 128.5655,-166 112,-166"/>
<polygon fill="#000000" stroke="#000000" points="153.0638,-175.9917 160.5463,-180.5713 157.0319,-176.4958 161,-177 161,-177 161,-177 157.0319,-176.4958 161.4537,-173.4287 153.0638,-175.9917 153.0638,-175.9917"/>
<ellipse fill="none" stroke="#000000" cx="149.8893" cy="-175.5884" rx="3.2" ry="3.2"/>
</g>
<!-- JOBS&#45;&gt;User -->
<g id="edge2" class="edge">
<title>JOBS:w&#45;&gt;User:e</title>
<path fill="none" stroke="#000000" d="M146.7027,-156.8164C135.2382,-159.9407 128.5655,-166 112,-166"/>
<polygon fill="#000000" stroke="#000000" points="153.0638,-156.0083 161.4537,-158.5713 157.0319,-155.5042 161,-155 161,-155 161,-155 157.0319,-155.5042 160.5463,-151.4287 153.0638,-156.0083 153.0638,-156.0083"/>
<ellipse fill="none" stroke="#000000" cx="149.8893" cy="-156.4116" rx="3.2" ry="3.2"/>
</g>
<!-- PROJECTS -->
<g id="node3" class="node">
<title>PROJECTS</title>
<g id="a_node3"><a xlink:href="../../tables/PROJECTS.html" xlink:title="PROJECTS" target="_top">
<polygon fill="#ffffff" stroke="transparent" points="161,-254.5 161,-381.5 313,-381.5 313,-254.5 161,-254.5"/>
<polygon fill="#f5f5f5" stroke="transparent" points="161,-358 161,-381 313,-381 313,-358 161,-358"/>
<polygon fill="none" stroke="#000000" points="161,-358 161,-381 313,-381 313,-358 161,-358"/>
<text text-anchor="start" x="166" y="-366.6" font-family="Helvetica,sans-Serif" font-weight="bold" font-size="11.00" fill="#000000">PROJECTS</text>
<text text-anchor="start" x="278.0437" y="-366.1" font-family="Helvetica,sans-Serif" font-size="11.00" fill="#000000">[table]</text>
<polygon fill="none" stroke="#000000" points="161,-336 161,-358 313,-358 313,-336 161,-336"/>
<image xlink:href="../../images/primaryKeys.png" width="11px" height="12px" preserveAspectRatio="xMinYMin meet" x="166" y="-353"/>
<text text-anchor="start" x="181" y="-343.1" font-family="Helvetica,sans-Serif" font-size="11.00" fill="#000000">ID</text>
<polygon fill="#ffffff" stroke="transparent" points="161,-314 161,-336 313,-336 313,-314 161,-314"/>
<polygon fill="none" stroke="#000000" points="161,-314 161,-336 313,-336 313,-314 161,-314"/>
<image xlink:href="../../images/foreignKeys.png" width="11px" height="12px" preserveAspectRatio="xMinYMin meet" x="166" y="-331"/>
<text text-anchor="start" x="181" y="-321.1" font-family="Helvetica,sans-Serif" font-size="11.00" fill="#000000">CREATOR</text>
<polygon fill="#ffffff" stroke="transparent" points="161,-292 161,-314 313,-314 313,-292 161,-292"/>
<polygon fill="none" stroke="#000000" points="161,-292 161,-314 313,-314 313,-292 161,-292"/>
<image xlink:href="../../images/foreignKeys.png" width="11px" height="12px" preserveAspectRatio="xMinYMin meet" x="166" y="-309"/>
<text text-anchor="start" x="181" y="-299.1" font-family="Helvetica,sans-Serif" font-size="11.00" fill="#000000">LAST_MODIFIER</text>
<polygon fill="none" stroke="#000000" points="161,-273 161,-292 313,-292 313,-273 161,-273"/>
<text text-anchor="start" x="164" y="-279.1" font-family="Helvetica,sans-Serif" font-size="11.00" fill="#000000">...</text>
<polygon fill="#ffffff" stroke="transparent" points="161,-254 161,-273 218,-273 218,-254 161,-254"/>
<polygon fill="none" stroke="#000000" points="161,-254 161,-273 218,-273 218,-254 161,-254"/>
<text text-anchor="start" x="164" y="-260.1" font-family="Helvetica,sans-Serif" font-size="11.00" fill="#000000">&lt; 2</text>
<polygon fill="#ffffff" stroke="transparent" points="218,-254 218,-273 274,-273 274,-254 218,-254"/>
<polygon fill="none" stroke="#000000" points="218,-254 218,-273 274,-273 274,-254 218,-254"/>
<text text-anchor="start" x="238.6105" y="-260.1" font-family="Helvetica,sans-Serif" font-size="11.00" fill="#000000">0 rows</text>
<polygon fill="#ffffff" stroke="transparent" points="274,-254 274,-273 313,-273 313,-254 274,-254"/>
<polygon fill="none" stroke="#000000" points="274,-254 274,-273 313,-273 313,-254 274,-254"/>
<text text-anchor="start" x="294.4053" y="-260.1" font-family="Helvetica,sans-Serif" font-size="11.00" fill="#000000">1 &gt;</text>
</a>
</g>
</g>
<!-- PROJECTS&#45;&gt;User -->
<g id="edge3" class="edge">
<title>PROJECTS:w&#45;&gt;User:e</title>
<path fill="none" stroke="#000000" d="M146.6688,-322.2403C101.4508,-301.1267 180.1692,-166 112,-166"/>
<polygon fill="#000000" stroke="#000000" points="153.1443,-323.4872 160.3192,-328.5351 157.0722,-324.2436 161,-325 161,-325 161,-325 157.0722,-324.2436 161.6808,-321.4649 153.1443,-323.4872 153.1443,-323.4872"/>
<ellipse fill="none" stroke="#000000" cx="150.0021" cy="-322.8821" rx="3.2" ry="3.2"/>
</g>
<!-- PROJECTS&#45;&gt;User -->
<g id="edge4" class="edge">
<title>PROJECTS:w&#45;&gt;User:e</title>
<path fill="none" stroke="#000000" d="M146.8714,-299.8812C109.5981,-279.4887 170.8564,-166 112,-166"/>
<polygon fill="#000000" stroke="#000000" points="153.1881,-301.2755 160.224,-306.5154 157.094,-302.1378 161,-303 161,-303 161,-303 157.094,-302.1378 161.776,-299.4846 153.1881,-301.2755 153.1881,-301.2755"/>
<ellipse fill="none" stroke="#000000" cx="150.0633" cy="-300.5857" rx="3.2" ry="3.2"/>
</g>
<!-- TIME_LOGS -->
<g id="node4" class="node">
<title>TIME_LOGS</title>
<g id="a_node4"><a xlink:href="../../tables/TIME_LOGS.html" xlink:title="TIME_LOGS" target="_top">
<polygon fill="#ffffff" stroke="transparent" points="362,-25 362,-423 619,-423 619,-25 362,-25"/>
<polygon fill="#f5f5f5" stroke="transparent" points="364.5,-398 364.5,-421 617.5,-421 617.5,-398 364.5,-398"/>
<polygon fill="none" stroke="#000000" points="364.5,-398 364.5,-421 617.5,-421 617.5,-398 364.5,-398"/>
<text text-anchor="start" x="369.5" y="-406.6" font-family="Helvetica,sans-Serif" font-weight="bold" font-size="11.00" fill="#000000">TIME_LOGS</text>
<text text-anchor="start" x="582.5437" y="-406.1" font-family="Helvetica,sans-Serif" font-size="11.00" fill="#000000">[table]</text>
<polygon fill="none" stroke="#000000" points="364.5,-376 364.5,-398 506.5,-398 506.5,-376 364.5,-376"/>
<image xlink:href="../../images/primaryKeys.png" width="11px" height="12px" preserveAspectRatio="xMinYMin meet" x="369.5" y="-393"/>
<text text-anchor="start" x="384.5" y="-383.1" font-family="Helvetica,sans-Serif" font-size="11.00" fill="#000000">ID</text>
<polygon fill="none" stroke="#000000" points="506.5,-376 506.5,-398 617.5,-398 617.5,-376 506.5,-376"/>
<text text-anchor="start" x="509.5" y="-383.7" font-family="Helvetica,sans-Serif" font-size="11.00" fill="#000000">int[10]</text>
<polygon fill="none" stroke="#000000" points="364.5,-354 364.5,-376 506.5,-376 506.5,-354 364.5,-354"/>
<text text-anchor="start" x="384.5" y="-361.1" font-family="Helvetica,sans-Serif" font-size="11.00" fill="#000000">WORKSPACE_ID</text>
<polygon fill="none" stroke="#000000" points="506.5,-354 506.5,-376 617.5,-376 617.5,-354 506.5,-354"/>
<text text-anchor="start" x="509.5" y="-361.7" font-family="Helvetica,sans-Serif" font-size="11.00" fill="#000000">int[10]</text>
<polygon fill="#ffffff" stroke="transparent" points="364.5,-332 364.5,-354 506.5,-354 506.5,-332 364.5,-332"/>
<polygon fill="none" stroke="#000000" points="364.5,-332 364.5,-354 506.5,-354 506.5,-332 364.5,-332"/>
<image xlink:href="../../images/foreignKeys.png" width="11px" height="12px" preserveAspectRatio="xMinYMin meet" x="369.5" y="-349"/>
<text text-anchor="start" x="384.5" y="-339.1" font-family="Helvetica,sans-Serif" font-size="11.00" fill="#000000">PROJECT</text>
<polygon fill="none" stroke="#000000" points="506.5,-332 506.5,-354 617.5,-354 617.5,-332 506.5,-332"/>
<text text-anchor="start" x="509.5" y="-339.7" font-family="Helvetica,sans-Serif" font-size="11.00" fill="#000000">int[10]</text>
<polygon fill="#ffffff" stroke="transparent" points="364.5,-310 364.5,-332 506.5,-332 506.5,-310 364.5,-310"/>
<polygon fill="none" stroke="#000000" points="364.5,-310 364.5,-332 506.5,-332 506.5,-310 364.5,-310"/>
<image xlink:href="../../images/foreignKeys.png" width="11px" height="12px" preserveAspectRatio="xMinYMin meet" x="369.5" y="-327"/>
<text text-anchor="start" x="384.5" y="-317.1" font-family="Helvetica,sans-Serif" font-size="11.00" fill="#000000">JOB_ID</text>
<polygon fill="none" stroke="#000000" points="506.5,-310 506.5,-332 617.5,-332 617.5,-310 506.5,-310"/>
<text text-anchor="start" x="509.5" y="-317.7" font-family="Helvetica,sans-Serif" font-size="11.00" fill="#000000">int[10]</text>
<polygon fill="none" stroke="#000000" points="364.5,-288 364.5,-310 506.5,-310 506.5,-288 364.5,-288"/>
<text text-anchor="start" x="384.5" y="-295.1" font-family="Helvetica,sans-Serif" font-size="11.00" fill="#000000">WORK_ITEM</text>
<polygon fill="none" stroke="#000000" points="506.5,-288 506.5,-310 617.5,-310 617.5,-288 506.5,-288"/>
<text text-anchor="start" x="509.5" y="-295.7" font-family="Helvetica,sans-Serif" font-size="11.00" fill="#000000">varchar[100]</text>
<polygon fill="none" stroke="#000000" points="364.5,-266 364.5,-288 506.5,-288 506.5,-266 364.5,-266"/>
<text text-anchor="start" x="384.5" y="-273.1" font-family="Helvetica,sans-Serif" font-size="11.00" fill="#000000">date</text>
<polygon fill="none" stroke="#000000" points="506.5,-266 506.5,-288 617.5,-288 617.5,-266 506.5,-266"/>
<text text-anchor="start" x="509.5" y="-273.7" font-family="Helvetica,sans-Serif" font-size="11.00" fill="#000000">datetime[26]</text>
<polygon fill="none" stroke="#000000" points="364.5,-244 364.5,-266 506.5,-266 506.5,-244 364.5,-244"/>
<text text-anchor="start" x="384.5" y="-251.1" font-family="Helvetica,sans-Serif" font-size="11.00" fill="#000000">DESCRIPTION</text>
<polygon fill="none" stroke="#000000" points="506.5,-244 506.5,-266 617.5,-266 617.5,-244 506.5,-244"/>
<text text-anchor="start" x="509.1115" y="-251.7" font-family="Helvetica,sans-Serif" font-size="11.00" fill="#000000">longtext[2147483647]</text>
<polygon fill="none" stroke="#000000" points="364.5,-222 364.5,-244 506.5,-244 506.5,-222 364.5,-222"/>
<text text-anchor="start" x="384.5" y="-229.1" font-family="Helvetica,sans-Serif" font-size="11.00" fill="#000000">hours</text>
<polygon fill="none" stroke="#000000" points="506.5,-222 506.5,-244 617.5,-244 617.5,-222 506.5,-222"/>
<text text-anchor="start" x="509.5" y="-229.7" font-family="Helvetica,sans-Serif" font-size="11.00" fill="#000000">double[22]</text>
<polygon fill="none" stroke="#000000" points="364.5,-200 364.5,-222 506.5,-222 506.5,-200 364.5,-200"/>
<text text-anchor="start" x="384.5" y="-207.1" font-family="Helvetica,sans-Serif" font-size="11.00" fill="#000000">BILLABLE_STATUS</text>
<polygon fill="none" stroke="#000000" points="506.5,-200 506.5,-222 617.5,-222 617.5,-200 506.5,-200"/>
<text text-anchor="start" x="509.5" y="-207.7" font-family="Helvetica,sans-Serif" font-size="11.00" fill="#000000">enum[12]</text>
<polygon fill="none" stroke="#000000" points="364.5,-178 364.5,-200 506.5,-200 506.5,-178 364.5,-178"/>
<text text-anchor="start" x="384.5" y="-185.1" font-family="Helvetica,sans-Serif" font-size="11.00" fill="#000000">FROM_TIME</text>
<polygon fill="none" stroke="#000000" points="506.5,-178 506.5,-200 617.5,-200 617.5,-178 506.5,-178"/>
<text text-anchor="start" x="509.5" y="-185.7" font-family="Helvetica,sans-Serif" font-size="11.00" fill="#000000">datetime[26]</text>
<polygon fill="none" stroke="#000000" points="364.5,-156 364.5,-178 506.5,-178 506.5,-156 364.5,-156"/>
<text text-anchor="start" x="384.5" y="-163.1" font-family="Helvetica,sans-Serif" font-size="11.00" fill="#000000">TO_TIME</text>
<polygon fill="none" stroke="#000000" points="506.5,-156 506.5,-178 617.5,-178 617.5,-156 506.5,-156"/>
<text text-anchor="start" x="509.5" y="-163.7" font-family="Helvetica,sans-Serif" font-size="11.00" fill="#000000">datetime[26]</text>
<polygon fill="none" stroke="#000000" points="364.5,-134 364.5,-156 506.5,-156 506.5,-134 364.5,-134"/>
<text text-anchor="start" x="384.5" y="-141.1" font-family="Helvetica,sans-Serif" font-size="11.00" fill="#000000">USER_NAME</text>
<polygon fill="none" stroke="#000000" points="506.5,-134 506.5,-156 617.5,-156 617.5,-134 506.5,-134"/>
<text text-anchor="start" x="509.5" y="-141.7" font-family="Helvetica,sans-Serif" font-size="11.00" fill="#000000">varchar[50]</text>
<polygon fill="none" stroke="#000000" points="364.5,-112 364.5,-134 506.5,-134 506.5,-112 364.5,-112"/>
<text text-anchor="start" x="384.5" y="-119.1" font-family="Helvetica,sans-Serif" font-size="11.00" fill="#000000">CREATED_TIME</text>
<polygon fill="none" stroke="#000000" points="506.5,-112 506.5,-134 617.5,-134 617.5,-112 506.5,-112"/>
<text text-anchor="start" x="509.5" y="-119.7" font-family="Helvetica,sans-Serif" font-size="11.00" fill="#000000">datetime[26]</text>
<polygon fill="none" stroke="#000000" points="364.5,-90 364.5,-112 506.5,-112 506.5,-90 364.5,-90"/>
<text text-anchor="start" x="384.5" y="-97.1" font-family="Helvetica,sans-Serif" font-size="11.00" fill="#000000">MODIFIED_TIME</text>
<polygon fill="none" stroke="#000000" points="506.5,-90 506.5,-112 617.5,-112 617.5,-90 506.5,-90"/>
<text text-anchor="start" x="509.5" y="-97.7" font-family="Helvetica,sans-Serif" font-size="11.00" fill="#000000">datetime[26]</text>
<polygon fill="#ffffff" stroke="transparent" points="364.5,-68 364.5,-90 506.5,-90 506.5,-68 364.5,-68"/>
<polygon fill="none" stroke="#000000" points="364.5,-68 364.5,-90 506.5,-90 506.5,-68 364.5,-68"/>
<image xlink:href="../../images/foreignKeys.png" width="11px" height="12px" preserveAspectRatio="xMinYMin meet" x="369.5" y="-85"/>
<text text-anchor="start" x="384.5" y="-75.1" font-family="Helvetica,sans-Serif" font-size="11.00" fill="#000000">CREATOR</text>
<polygon fill="none" stroke="#000000" points="506.5,-68 506.5,-90 617.5,-90 617.5,-68 506.5,-68"/>
<text text-anchor="start" x="509.5" y="-75.7" font-family="Helvetica,sans-Serif" font-size="11.00" fill="#000000">int[10]</text>
<polygon fill="#ffffff" stroke="transparent" points="364.5,-46 364.5,-68 506.5,-68 506.5,-46 364.5,-46"/>
<polygon fill="none" stroke="#000000" points="364.5,-46 364.5,-68 506.5,-68 506.5,-46 364.5,-46"/>
<image xlink:href="../../images/foreignKeys.png" width="11px" height="12px" preserveAspectRatio="xMinYMin meet" x="369.5" y="-63"/>
<text text-anchor="start" x="384.5" y="-53.1" font-family="Helvetica,sans-Serif" font-size="11.00" fill="#000000">LAST_MODIFIER</text>
<polygon fill="none" stroke="#000000" points="506.5,-46 506.5,-68 617.5,-68 617.5,-46 506.5,-46"/>
<text text-anchor="start" x="509.5" y="-53.7" font-family="Helvetica,sans-Serif" font-size="11.00" fill="#000000">int[10]</text>
<polygon fill="#ffffff" stroke="transparent" points="364.5,-27 364.5,-46 426.5,-46 426.5,-27 364.5,-27"/>
<polygon fill="none" stroke="#000000" points="364.5,-27 364.5,-46 426.5,-46 426.5,-27 364.5,-27"/>
<text text-anchor="start" x="367.5" y="-33.1" font-family="Helvetica,sans-Serif" font-size="11.00" fill="#000000">&lt; 4</text>
<polygon fill="#ffffff" stroke="transparent" points="426.5,-27 426.5,-46 506.5,-46 506.5,-27 426.5,-27"/>
<polygon fill="none" stroke="#000000" points="426.5,-27 426.5,-46 506.5,-46 506.5,-27 426.5,-27"/>
<text text-anchor="start" x="471.1105" y="-33.1" font-family="Helvetica,sans-Serif" font-size="11.00" fill="#000000">0 rows</text>
<polygon fill="#ffffff" stroke="transparent" points="506.5,-27 506.5,-46 617.5,-46 617.5,-27 506.5,-27"/>
<polygon fill="none" stroke="#000000" points="506.5,-27 506.5,-46 617.5,-46 617.5,-27 506.5,-27"/>
<text text-anchor="start" x="598.9053" y="-33.1" font-family="Helvetica,sans-Serif" font-size="11.00" fill="#000000">0 &gt;</text>
<polygon fill="none" stroke="#000000" stroke-width="2" points="363,-26 363,-422 618,-422 618,-26 363,-26"/>
</a>
</g>
</g>
<!-- TIME_LOGS&#45;&gt;JOBS -->
<g id="edge6" class="edge">
<title>TIME_LOGS:w&#45;&gt;JOBS:e</title>
<path fill="none" stroke="#000000" d="M350.1756,-317.4803C317.8037,-297.4772 365.8778,-199 313,-199"/>
<polygon fill="#000000" stroke="#000000" points="356.7311,-319.0911 363.641,-324.496 360.6155,-320.0455 364.5,-321 364.5,-321 364.5,-321 360.6155,-320.0455 365.359,-317.504 356.7311,-319.0911 356.7311,-319.0911"/>
<ellipse fill="none" stroke="#000000" cx="353.6235" cy="-318.3275" rx="3.2" ry="3.2"/>
</g>
<!-- TIME_LOGS&#45;&gt;User -->
<g id="edge5" class="edge">
<title>TIME_LOGS:w&#45;&gt;User:e</title>
<path fill="none" stroke="#000000" d="M350.0417,-78.7406C266.1417,-75.7365 228.6581,-48.5054 153,-96 122.4634,-115.1694 148.0548,-166 112,-166"/>
<polygon fill="#000000" stroke="#000000" points="356.5013,-78.8564 364.4354,-82.5994 360.5006,-78.9282 364.5,-79 364.5,-79 364.5,-79 360.5006,-78.9282 364.5646,-75.4006 356.5013,-78.8564 356.5013,-78.8564"/>
<ellipse fill="none" stroke="#000000" cx="353.3018" cy="-78.799" rx="3.2" ry="3.2"/>
</g>
<!-- TIME_LOGS&#45;&gt;User -->
<g id="edge7" class="edge">
<title>TIME_LOGS:w&#45;&gt;User:e</title>
<path fill="none" stroke="#000000" d="M350.05,-56.6452C266.0509,-52.5231 225.9419,-14.7898 153,-66 113.6865,-93.6008 160.035,-166 112,-166"/>
<polygon fill="#000000" stroke="#000000" points="356.5024,-56.8036 364.4116,-60.5989 360.5012,-56.9018 364.5,-57 364.5,-57 364.5,-57 360.5012,-56.9018 364.5884,-53.4011 356.5024,-56.8036 356.5024,-56.8036"/>
<ellipse fill="none" stroke="#000000" cx="353.3034" cy="-56.725" rx="3.2" ry="3.2"/>
</g>
<!-- TIME_LOGS&#45;&gt;PROJECTS -->
<g id="edge8" class="edge">
<title>TIME_LOGS:w&#45;&gt;PROJECTS:e</title>
<path fill="none" stroke="#000000" d="M349.9962,-343.625C337.6642,-344.75 330.2184,-347 313,-347"/>
<polygon fill="#000000" stroke="#000000" points="356.5074,-343.3445 364.655,-346.5967 360.5037,-343.1722 364.5,-343 364.5,-343 364.5,-343 360.5037,-343.1722 364.345,-339.4033 356.5074,-343.3445 356.5074,-343.3445"/>
<ellipse fill="none" stroke="#000000" cx="353.3104" cy="-343.4823" rx="3.2" ry="3.2"/>
</g>
</g>
</svg>
