<?xml version="1.0" encoding="UTF-8" standalone="no"?>
<!DOCTYPE svg PUBLIC "-//W3C//DTD SVG 1.1//EN"
 "http://www.w3.org/Graphics/SVG/1.1/DTD/svg11.dtd">
<!-- Generated by graphviz version 2.40.1 (20161225.0304)
 -->
<!-- Title: oneDegreeRelationshipsDiagram Pages: 1 -->
<svg width="754pt" height="479pt"
 viewBox="0.00 0.00 754.00 479.00" xmlns="http://www.w3.org/2000/svg" xmlns:xlink="http://www.w3.org/1999/xlink">
<g id="graph0" class="graph" transform="scale(1 1) rotate(0) translate(4 475)">
<title>oneDegreeRelationshipsDiagram</title>
<polygon fill="#ffffff" stroke="transparent" points="-4,4 -4,-475 750,-475 750,4 -4,4"/>
<!-- EMPLOYEE -->
<g id="node1" class="node">
<title>EMPLOYEE</title>
<g id="a_node1"><a xlink:href="../../tables/EMPLOYEE.html" xlink:title="EMPLOYEE" target="_top">
<polygon fill="#ffffff" stroke="transparent" points="161,-108.5 161,-301.5 375,-301.5 375,-108.5 161,-108.5"/>
<polygon fill="#f5f5f5" stroke="transparent" points="161,-278 161,-301 375,-301 375,-278 161,-278"/>
<polygon fill="none" stroke="#000000" points="161,-278 161,-301 375,-301 375,-278 161,-278"/>
<text text-anchor="start" x="166" y="-286.6" font-family="Helvetica,sans-Serif" font-weight="bold" font-size="11.00" fill="#000000">EMPLOYEE</text>
<text text-anchor="start" x="340.0437" y="-286.1" font-family="Helvetica,sans-Serif" font-size="11.00" fill="#000000">[table]</text>
<polygon fill="none" stroke="#000000" points="161,-256 161,-278 375,-278 375,-256 161,-256"/>
<image xlink:href="../../images/primaryKeys.png" width="11px" height="12px" preserveAspectRatio="xMinYMin meet" x="166" y="-273"/>
<text text-anchor="start" x="181" y="-263.1" font-family="Helvetica,sans-Serif" font-size="11.00" fill="#000000">ID</text>
<polygon fill="#ffffff" stroke="transparent" points="161,-234 161,-256 375,-256 375,-234 161,-234"/>
<polygon fill="none" stroke="#000000" points="161,-234 161,-256 375,-256 375,-234 161,-234"/>
<image xlink:href="../../images/foreignKeys.png" width="11px" height="12px" preserveAspectRatio="xMinYMin meet" x="166" y="-251"/>
<text text-anchor="start" x="181" y="-241.1" font-family="Helvetica,sans-Serif" font-size="11.00" fill="#000000">DEPARTMENT_ID</text>
<polygon fill="#ffffff" stroke="transparent" points="161,-212 161,-234 375,-234 375,-212 161,-212"/>
<polygon fill="none" stroke="#000000" points="161,-212 161,-234 375,-234 375,-212 161,-212"/>
<image xlink:href="../../images/foreignKeys.png" width="11px" height="12px" preserveAspectRatio="xMinYMin meet" x="166" y="-229"/>
<text text-anchor="start" x="181" y="-219.1" font-family="Helvetica,sans-Serif" font-size="11.00" fill="#000000">LOCATION_ID</text>
<polygon fill="#ffffff" stroke="transparent" points="161,-190 161,-212 375,-212 375,-190 161,-190"/>
<polygon fill="none" stroke="#000000" points="161,-190 161,-212 375,-212 375,-190 161,-190"/>
<image xlink:href="../../images/foreignKeys.png" width="11px" height="12px" preserveAspectRatio="xMinYMin meet" x="166" y="-207"/>
<text text-anchor="start" x="181" y="-197.1" font-family="Helvetica,sans-Serif" font-size="11.00" fill="#000000">DESIGNATION_ID</text>
<polygon fill="#ffffff" stroke="transparent" points="161,-168 161,-190 375,-190 375,-168 161,-168"/>
<polygon fill="none" stroke="#000000" points="161,-168 161,-190 375,-190 375,-168 161,-168"/>
<image xlink:href="../../images/foreignKeys.png" width="11px" height="12px" preserveAspectRatio="xMinYMin meet" x="166" y="-185"/>
<text text-anchor="start" x="181" y="-175.1" font-family="Helvetica,sans-Serif" font-size="11.00" fill="#000000">CREATOR</text>
<polygon fill="#ffffff" stroke="transparent" points="161,-146 161,-168 375,-168 375,-146 161,-146"/>
<polygon fill="none" stroke="#000000" points="161,-146 161,-168 375,-168 375,-146 161,-146"/>
<image xlink:href="../../images/foreignKeys.png" width="11px" height="12px" preserveAspectRatio="xMinYMin meet" x="166" y="-163"/>
<text text-anchor="start" x="181" y="-153.1" font-family="Helvetica,sans-Serif" font-size="11.00" fill="#000000">LAST_MODIFIER</text>
<polygon fill="none" stroke="#000000" points="161,-127 161,-146 375,-146 375,-127 161,-127"/>
<text text-anchor="start" x="164" y="-133.1" font-family="Helvetica,sans-Serif" font-size="11.00" fill="#000000">...</text>
<polygon fill="#ffffff" stroke="transparent" points="161,-108 161,-127 246,-127 246,-108 161,-108"/>
<polygon fill="none" stroke="#000000" points="161,-108 161,-127 246,-127 246,-108 161,-108"/>
<text text-anchor="start" x="164" y="-114.1" font-family="Helvetica,sans-Serif" font-size="11.00" fill="#000000">&lt; 5</text>
<polygon fill="#ffffff" stroke="transparent" points="246,-108 246,-127 316,-127 316,-108 246,-108"/>
<polygon fill="none" stroke="#000000" points="246,-108 246,-127 316,-127 316,-108 246,-108"/>
<text text-anchor="start" x="280.6105" y="-114.1" font-family="Helvetica,sans-Serif" font-size="11.00" fill="#000000">0 rows</text>
<polygon fill="#ffffff" stroke="transparent" points="316,-108 316,-127 375,-127 375,-108 316,-108"/>
<polygon fill="none" stroke="#000000" points="316,-108 316,-127 375,-127 375,-108 316,-108"/>
<text text-anchor="start" x="350.2904" y="-114.1" font-family="Helvetica,sans-Serif" font-size="11.00" fill="#000000">15 &gt;</text>
</a>
</g>
</g>
<!-- User -->
<g id="node2" class="node">
<title>User</title>
<g id="a_node2"><a xlink:href="../../tables/User.html" xlink:title="User" target="_top">
<polygon fill="#ffffff" stroke="transparent" points="8,-71.5 8,-154.5 112,-154.5 112,-71.5 8,-71.5"/>
<polygon fill="#f5f5f5" stroke="transparent" points="8,-131 8,-154 112,-154 112,-131 8,-131"/>
<polygon fill="none" stroke="#000000" points="8,-131 8,-154 112,-154 112,-131 8,-131"/>
<text text-anchor="start" x="13" y="-139.6" font-family="Helvetica,sans-Serif" font-weight="bold" font-size="11.00" fill="#000000">User</text>
<text text-anchor="start" x="77.0437" y="-139.1" font-family="Helvetica,sans-Serif" font-size="11.00" fill="#000000">[table]</text>
<polygon fill="none" stroke="#000000" points="8,-109 8,-131 112,-131 112,-109 8,-109"/>
<image xlink:href="../../images/primaryKeys.png" width="11px" height="12px" preserveAspectRatio="xMinYMin meet" x="13" y="-126"/>
<text text-anchor="start" x="28" y="-116.1" font-family="Helvetica,sans-Serif" font-size="11.00" fill="#000000">userid_pk</text>
<polygon fill="none" stroke="#000000" points="8,-90 8,-109 112,-109 112,-90 8,-90"/>
<text text-anchor="start" x="11" y="-96.1" font-family="Helvetica,sans-Serif" font-size="11.00" fill="#000000">...</text>
<polygon fill="#ffffff" stroke="transparent" points="8,-71 8,-90 30,-90 30,-71 8,-71"/>
<polygon fill="none" stroke="#000000" points="8,-71 8,-90 30,-90 30,-71 8,-71"/>
<text text-anchor="start" x="11" y="-77.1" font-family="Helvetica,sans-Serif" font-size="11.00" fill="#000000"> &#160;</text>
<polygon fill="#ffffff" stroke="transparent" points="30,-71 30,-90 73,-90 73,-71 30,-71"/>
<polygon fill="none" stroke="#000000" points="30,-71 30,-90 73,-90 73,-71 30,-71"/>
<text text-anchor="start" x="37.6105" y="-77.1" font-family="Helvetica,sans-Serif" font-size="11.00" fill="#000000">0 rows</text>
<polygon fill="#ffffff" stroke="transparent" points="73,-71 73,-90 112,-90 112,-71 73,-71"/>
<polygon fill="none" stroke="#000000" points="73,-71 73,-90 112,-90 112,-71 73,-71"/>
<text text-anchor="start" x="81.1755" y="-77.1" font-family="Helvetica,sans-Serif" font-size="11.00" fill="#000000">102 &gt;</text>
</a>
</g>
</g>
<!-- EMPLOYEE&#45;&gt;User -->
<g id="edge1" class="edge">
<title>EMPLOYEE:w&#45;&gt;User:e</title>
<path fill="none" stroke="#000000" d="M147.1662,-173.9697C132.0842,-159.7018 139.9614,-120 112,-120"/>
<polygon fill="#000000" stroke="#000000" points="153.4816,-176.2661 159.7697,-182.3833 157.2408,-177.6331 161,-179 161,-179 161,-179 157.2408,-177.6331 162.2303,-175.6167 153.4816,-176.2661 153.4816,-176.2661"/>
<ellipse fill="none" stroke="#000000" cx="150.4743" cy="-175.1725" rx="3.2" ry="3.2"/>
</g>
<!-- EMPLOYEE&#45;&gt;User -->
<g id="edge2" class="edge">
<title>EMPLOYEE:w&#45;&gt;User:e</title>
<path fill="none" stroke="#000000" d="M147.1217,-152.4631C134.5786,-142.583 133.3196,-120 112,-120"/>
<polygon fill="#000000" stroke="#000000" points="153.396,-154.5142 159.8814,-160.4218 157.198,-155.7571 161,-157 161,-157 161,-157 157.198,-155.7571 162.1186,-153.5782 153.396,-154.5142 153.396,-154.5142"/>
<ellipse fill="none" stroke="#000000" cx="150.3544" cy="-153.5198" rx="3.2" ry="3.2"/>
</g>
<!-- TRAVEL_REQUEST -->
<g id="node3" class="node">
<title>TRAVEL_REQUEST</title>
<g id="a_node3"><a xlink:href="../../tables/TRAVEL_REQUEST.html" xlink:title="TRAVEL_REQUEST" target="_top">
<polygon fill="#ffffff" stroke="transparent" points="424,-25 424,-467 738,-467 738,-25 424,-25"/>
<polygon fill="#f5f5f5" stroke="transparent" points="426,-442 426,-465 736,-465 736,-442 426,-442"/>
<polygon fill="none" stroke="#000000" points="426,-442 426,-465 736,-465 736,-442 426,-442"/>
<text text-anchor="start" x="431" y="-450.6" font-family="Helvetica,sans-Serif" font-weight="bold" font-size="11.00" fill="#000000">TRAVEL_REQUEST</text>
<text text-anchor="start" x="701.0437" y="-450.1" font-family="Helvetica,sans-Serif" font-size="11.00" fill="#000000">[table]</text>
<polygon fill="none" stroke="#000000" points="426,-420 426,-442 669,-442 669,-420 426,-420"/>
<image xlink:href="../../images/primaryKeys.png" width="11px" height="12px" preserveAspectRatio="xMinYMin meet" x="431" y="-437"/>
<text text-anchor="start" x="446" y="-427.1" font-family="Helvetica,sans-Serif" font-size="11.00" fill="#000000">ID</text>
<polygon fill="none" stroke="#000000" points="669,-420 669,-442 736,-442 736,-420 669,-420"/>
<text text-anchor="start" x="672" y="-427.7" font-family="Helvetica,sans-Serif" font-size="11.00" fill="#000000">int[10]</text>
<polygon fill="none" stroke="#000000" points="426,-398 426,-420 669,-420 669,-398 426,-398"/>
<text text-anchor="start" x="446" y="-405.1" font-family="Helvetica,sans-Serif" font-size="11.00" fill="#000000">WORKSPACE_ID</text>
<polygon fill="none" stroke="#000000" points="669,-398 669,-420 736,-420 736,-398 669,-398"/>
<text text-anchor="start" x="672" y="-405.7" font-family="Helvetica,sans-Serif" font-size="11.00" fill="#000000">int[10]</text>
<polygon fill="#ffffff" stroke="transparent" points="426,-376 426,-398 669,-398 669,-376 426,-376"/>
<polygon fill="none" stroke="#000000" points="426,-376 426,-398 669,-398 669,-376 426,-376"/>
<image xlink:href="../../images/foreignKeys.png" width="11px" height="12px" preserveAspectRatio="xMinYMin meet" x="431" y="-393"/>
<text text-anchor="start" x="446" y="-383.1" font-family="Helvetica,sans-Serif" font-size="11.00" fill="#000000">EMPLOYEE_ID</text>
<polygon fill="none" stroke="#000000" points="669,-376 669,-398 736,-398 736,-376 669,-376"/>
<text text-anchor="start" x="672" y="-383.7" font-family="Helvetica,sans-Serif" font-size="11.00" fill="#000000">int[10]</text>
<polygon fill="none" stroke="#000000" points="426,-354 426,-376 669,-376 669,-354 426,-354"/>
<text text-anchor="start" x="446" y="-361.1" font-family="Helvetica,sans-Serif" font-size="11.00" fill="#000000">TRAVEL_ID</text>
<polygon fill="none" stroke="#000000" points="669,-354 669,-376 736,-376 736,-354 669,-354"/>
<text text-anchor="start" x="672" y="-361.7" font-family="Helvetica,sans-Serif" font-size="11.00" fill="#000000">int[10]</text>
<polygon fill="none" stroke="#000000" points="426,-332 426,-354 669,-354 669,-332 426,-332"/>
<text text-anchor="start" x="446" y="-339.1" font-family="Helvetica,sans-Serif" font-size="11.00" fill="#000000">EMPLOYEE_DEPARTMENT</text>
<polygon fill="none" stroke="#000000" points="669,-332 669,-354 736,-354 736,-332 669,-332"/>
<text text-anchor="start" x="672" y="-339.7" font-family="Helvetica,sans-Serif" font-size="11.00" fill="#000000">varchar[50]</text>
<polygon fill="none" stroke="#000000" points="426,-310 426,-332 669,-332 669,-310 426,-310"/>
<text text-anchor="start" x="446" y="-317.1" font-family="Helvetica,sans-Serif" font-size="11.00" fill="#000000">PLACE_OF_VISIT</text>
<polygon fill="none" stroke="#000000" points="669,-310 669,-332 736,-332 736,-310 669,-310"/>
<text text-anchor="start" x="672" y="-317.7" font-family="Helvetica,sans-Serif" font-size="11.00" fill="#000000">varchar[50]</text>
<polygon fill="none" stroke="#000000" points="426,-288 426,-310 669,-310 669,-288 426,-288"/>
<text text-anchor="start" x="446" y="-295.1" font-family="Helvetica,sans-Serif" font-size="11.00" fill="#000000">EXPECTED_DATE_OF_DEPARTURE</text>
<polygon fill="none" stroke="#000000" points="669,-288 669,-310 736,-310 736,-288 669,-288"/>
<text text-anchor="start" x="672" y="-295.7" font-family="Helvetica,sans-Serif" font-size="11.00" fill="#000000">datetime[26]</text>
<polygon fill="none" stroke="#000000" points="426,-266 426,-288 669,-288 669,-266 426,-266"/>
<text text-anchor="start" x="446" y="-273.1" font-family="Helvetica,sans-Serif" font-size="11.00" fill="#000000">EXPECTED_DATE_OF_ARRIVAL</text>
<polygon fill="none" stroke="#000000" points="669,-266 669,-288 736,-288 736,-266 669,-266"/>
<text text-anchor="start" x="672" y="-273.7" font-family="Helvetica,sans-Serif" font-size="11.00" fill="#000000">datetime[26]</text>
<polygon fill="none" stroke="#000000" points="426,-244 426,-266 669,-266 669,-244 426,-244"/>
<text text-anchor="start" x="446" y="-251.1" font-family="Helvetica,sans-Serif" font-size="11.00" fill="#000000">PURPOSE_OF_VISIT</text>
<polygon fill="none" stroke="#000000" points="669,-244 669,-266 736,-266 736,-244 669,-244"/>
<text text-anchor="start" x="671.9365" y="-251.7" font-family="Helvetica,sans-Serif" font-size="11.00" fill="#000000">varchar[100]</text>
<polygon fill="none" stroke="#000000" points="426,-222 426,-244 669,-244 669,-222 426,-222"/>
<text text-anchor="start" x="446" y="-229.1" font-family="Helvetica,sans-Serif" font-size="11.00" fill="#000000">EXPECTED_DURATION_IN_DAYS</text>
<polygon fill="none" stroke="#000000" points="669,-222 669,-244 736,-244 736,-222 669,-222"/>
<text text-anchor="start" x="672" y="-229.7" font-family="Helvetica,sans-Serif" font-size="11.00" fill="#000000">int[10]</text>
<polygon fill="none" stroke="#000000" points="426,-200 426,-222 669,-222 669,-200 426,-200"/>
<text text-anchor="start" x="446" y="-207.1" font-family="Helvetica,sans-Serif" font-size="11.00" fill="#000000">IS_BILLABLE_TO_CUSTOMER</text>
<polygon fill="none" stroke="#000000" points="669,-200 669,-222 736,-222 736,-200 669,-200"/>
<text text-anchor="start" x="672" y="-207.7" font-family="Helvetica,sans-Serif" font-size="11.00" fill="#000000">varchar[20]</text>
<polygon fill="none" stroke="#000000" points="426,-178 426,-200 669,-200 669,-178 426,-178"/>
<text text-anchor="start" x="446" y="-185.1" font-family="Helvetica,sans-Serif" font-size="11.00" fill="#000000">CUSTOMER_NAME</text>
<polygon fill="none" stroke="#000000" points="669,-178 669,-200 736,-200 736,-178 669,-178"/>
<text text-anchor="start" x="672" y="-185.7" font-family="Helvetica,sans-Serif" font-size="11.00" fill="#000000">varchar[50]</text>
<polygon fill="none" stroke="#000000" points="426,-156 426,-178 669,-178 669,-156 426,-156"/>
<text text-anchor="start" x="446" y="-163.1" font-family="Helvetica,sans-Serif" font-size="11.00" fill="#000000">APPROVAL_STATUS</text>
<polygon fill="none" stroke="#000000" points="669,-156 669,-178 736,-178 736,-156 669,-156"/>
<text text-anchor="start" x="672" y="-163.7" font-family="Helvetica,sans-Serif" font-size="11.00" fill="#000000">enum[12]</text>
<polygon fill="none" stroke="#000000" points="426,-134 426,-156 669,-156 669,-134 426,-134"/>
<text text-anchor="start" x="446" y="-141.1" font-family="Helvetica,sans-Serif" font-size="11.00" fill="#000000">TRAVEL_INITIATE_ID</text>
<polygon fill="none" stroke="#000000" points="669,-134 669,-156 736,-156 736,-134 669,-134"/>
<text text-anchor="start" x="672" y="-141.7" font-family="Helvetica,sans-Serif" font-size="11.00" fill="#000000">varchar[50]</text>
<polygon fill="none" stroke="#000000" points="426,-112 426,-134 669,-134 669,-112 426,-112"/>
<text text-anchor="start" x="446" y="-119.1" font-family="Helvetica,sans-Serif" font-size="11.00" fill="#000000">CREATED_TIME</text>
<polygon fill="none" stroke="#000000" points="669,-112 669,-134 736,-134 736,-112 669,-112"/>
<text text-anchor="start" x="672" y="-119.7" font-family="Helvetica,sans-Serif" font-size="11.00" fill="#000000">datetime[26]</text>
<polygon fill="none" stroke="#000000" points="426,-90 426,-112 669,-112 669,-90 426,-90"/>
<text text-anchor="start" x="446" y="-97.1" font-family="Helvetica,sans-Serif" font-size="11.00" fill="#000000">MODIFIED_TIME</text>
<polygon fill="none" stroke="#000000" points="669,-90 669,-112 736,-112 736,-90 669,-90"/>
<text text-anchor="start" x="672" y="-97.7" font-family="Helvetica,sans-Serif" font-size="11.00" fill="#000000">datetime[26]</text>
<polygon fill="#ffffff" stroke="transparent" points="426,-68 426,-90 669,-90 669,-68 426,-68"/>
<polygon fill="none" stroke="#000000" points="426,-68 426,-90 669,-90 669,-68 426,-68"/>
<image xlink:href="../../images/foreignKeys.png" width="11px" height="12px" preserveAspectRatio="xMinYMin meet" x="431" y="-85"/>
<text text-anchor="start" x="446" y="-75.1" font-family="Helvetica,sans-Serif" font-size="11.00" fill="#000000">CREATOR</text>
<polygon fill="none" stroke="#000000" points="669,-68 669,-90 736,-90 736,-68 669,-68"/>
<text text-anchor="start" x="672" y="-75.7" font-family="Helvetica,sans-Serif" font-size="11.00" fill="#000000">int[10]</text>
<polygon fill="#ffffff" stroke="transparent" points="426,-46 426,-68 669,-68 669,-46 426,-46"/>
<polygon fill="none" stroke="#000000" points="426,-46 426,-68 669,-68 669,-46 426,-46"/>
<image xlink:href="../../images/foreignKeys.png" width="11px" height="12px" preserveAspectRatio="xMinYMin meet" x="431" y="-63"/>
<text text-anchor="start" x="446" y="-53.1" font-family="Helvetica,sans-Serif" font-size="11.00" fill="#000000">LAST_MODIFIER</text>
<polygon fill="none" stroke="#000000" points="669,-46 669,-68 736,-68 736,-46 669,-46"/>
<text text-anchor="start" x="672" y="-53.7" font-family="Helvetica,sans-Serif" font-size="11.00" fill="#000000">int[10]</text>
<polygon fill="#ffffff" stroke="transparent" points="426,-27 426,-46 539,-46 539,-27 426,-27"/>
<polygon fill="none" stroke="#000000" points="426,-27 426,-46 539,-46 539,-27 426,-27"/>
<text text-anchor="start" x="429" y="-33.1" font-family="Helvetica,sans-Serif" font-size="11.00" fill="#000000">&lt; 3</text>
<polygon fill="#ffffff" stroke="transparent" points="539,-27 539,-46 669,-46 669,-27 539,-27"/>
<polygon fill="none" stroke="#000000" points="539,-27 539,-46 669,-46 669,-27 539,-27"/>
<text text-anchor="start" x="633.6105" y="-33.1" font-family="Helvetica,sans-Serif" font-size="11.00" fill="#000000">0 rows</text>
<polygon fill="#ffffff" stroke="transparent" points="669,-27 669,-46 736,-46 736,-27 669,-27"/>
<polygon fill="none" stroke="#000000" points="669,-27 669,-46 736,-46 736,-27 669,-27"/>
<text text-anchor="start" x="717.4053" y="-33.1" font-family="Helvetica,sans-Serif" font-size="11.00" fill="#000000">0 &gt;</text>
<polygon fill="none" stroke="#000000" stroke-width="2" points="425,-26 425,-466 737,-466 737,-26 425,-26"/>
</a>
</g>
</g>
<!-- TRAVEL_REQUEST&#45;&gt;EMPLOYEE -->
<g id="edge4" class="edge">
<title>TRAVEL_REQUEST:w&#45;&gt;EMPLOYEE:e</title>
<path fill="none" stroke="#000000" d="M411.8875,-383.538C379.9655,-363.8628 427.0646,-267 375,-267"/>
<polygon fill="#000000" stroke="#000000" points="418.2304,-385.094 425.1423,-390.4963 422.1152,-386.047 426,-387 426,-387 426,-387 422.1152,-386.047 426.8577,-383.5037 418.2304,-385.094 418.2304,-385.094"/>
<ellipse fill="none" stroke="#000000" cx="415.1225" cy="-384.3316" rx="3.2" ry="3.2"/>
</g>
<!-- TRAVEL_REQUEST&#45;&gt;User -->
<g id="edge3" class="edge">
<title>TRAVEL_REQUEST:w&#45;&gt;User:e</title>
<path fill="none" stroke="#000000" d="M411.4621,-78.93C301.4032,-77.8734 265.064,-65.6559 153,-98 133.1312,-103.7346 132.6798,-120 112,-120"/>
<polygon fill="#000000" stroke="#000000" points="418.0001,-78.9614 425.9826,-82.6 422,-78.9807 426,-79 426,-79 426,-79 422,-78.9807 426.0174,-75.4 418.0001,-78.9614 418.0001,-78.9614"/>
<ellipse fill="none" stroke="#000000" cx="414.8001" cy="-78.946" rx="3.2" ry="3.2"/>
</g>
<!-- TRAVEL_REQUEST&#45;&gt;User -->
<g id="edge5" class="edge">
<title>TRAVEL_REQUEST:w&#45;&gt;User:e</title>
<path fill="none" stroke="#000000" d="M411.4362,-56.8129C300.8803,-53.9666 257.4506,-20.3295 153,-72 127.8524,-84.4402 140.0564,-120 112,-120"/>
<polygon fill="#000000" stroke="#000000" points="418.0007,-56.8972 425.9537,-60.5997 422.0003,-56.9486 426,-57 426,-57 426,-57 422.0003,-56.9486 426.0463,-53.4003 418.0007,-56.8972 418.0007,-56.8972"/>
<ellipse fill="none" stroke="#000000" cx="414.8009" cy="-56.856" rx="3.2" ry="3.2"/>
</g>
</g>
</svg>
