<?xml version="1.0" encoding="UTF-8" standalone="no"?>
<!DOCTYPE svg PUBLIC "-//W3C//DTD SVG 1.1//EN"
 "http://www.w3.org/Graphics/SVG/1.1/DTD/svg11.dtd">
<!-- Generated by graphviz version 2.40.1 (20161225.0304)
 -->
<!-- Title: oneDegreeRelationshipsDiagram Pages: 1 -->
<svg width="670pt" height="309pt"
 viewBox="0.00 0.00 670.00 308.50" xmlns="http://www.w3.org/2000/svg" xmlns:xlink="http://www.w3.org/1999/xlink">
<g id="graph0" class="graph" transform="scale(1 1) rotate(0) translate(4 304.5)">
<title>oneDegreeRelationshipsDiagram</title>
<polygon fill="#ffffff" stroke="transparent" points="-4,4 -4,-304.5 666,-304.5 666,4 -4,4"/>
<!-- EMPLOYEE -->
<g id="node1" class="node">
<title>EMPLOYEE</title>
<g id="a_node1"><a xlink:href="../../tables/EMPLOYEE.html" xlink:title="EMPLOYEE" target="_top">
<polygon fill="#ffffff" stroke="transparent" points="161,-103.5 161,-296.5 375,-296.5 375,-103.5 161,-103.5"/>
<polygon fill="#f5f5f5" stroke="transparent" points="161,-273 161,-296 375,-296 375,-273 161,-273"/>
<polygon fill="none" stroke="#000000" points="161,-273 161,-296 375,-296 375,-273 161,-273"/>
<text text-anchor="start" x="166" y="-281.6" font-family="Helvetica,sans-Serif" font-weight="bold" font-size="11.00" fill="#000000">EMPLOYEE</text>
<text text-anchor="start" x="340.0437" y="-281.1" font-family="Helvetica,sans-Serif" font-size="11.00" fill="#000000">[table]</text>
<polygon fill="none" stroke="#000000" points="161,-251 161,-273 375,-273 375,-251 161,-251"/>
<image xlink:href="../../images/primaryKeys.png" width="11px" height="12px" preserveAspectRatio="xMinYMin meet" x="166" y="-268"/>
<text text-anchor="start" x="181" y="-258.1" font-family="Helvetica,sans-Serif" font-size="11.00" fill="#000000">ID</text>
<polygon fill="#ffffff" stroke="transparent" points="161,-229 161,-251 375,-251 375,-229 161,-229"/>
<polygon fill="none" stroke="#000000" points="161,-229 161,-251 375,-251 375,-229 161,-229"/>
<image xlink:href="../../images/foreignKeys.png" width="11px" height="12px" preserveAspectRatio="xMinYMin meet" x="166" y="-246"/>
<text text-anchor="start" x="181" y="-236.1" font-family="Helvetica,sans-Serif" font-size="11.00" fill="#000000">DEPARTMENT_ID</text>
<polygon fill="#ffffff" stroke="transparent" points="161,-207 161,-229 375,-229 375,-207 161,-207"/>
<polygon fill="none" stroke="#000000" points="161,-207 161,-229 375,-229 375,-207 161,-207"/>
<image xlink:href="../../images/foreignKeys.png" width="11px" height="12px" preserveAspectRatio="xMinYMin meet" x="166" y="-224"/>
<text text-anchor="start" x="181" y="-214.1" font-family="Helvetica,sans-Serif" font-size="11.00" fill="#000000">LOCATION_ID</text>
<polygon fill="#ffffff" stroke="transparent" points="161,-185 161,-207 375,-207 375,-185 161,-185"/>
<polygon fill="none" stroke="#000000" points="161,-185 161,-207 375,-207 375,-185 161,-185"/>
<image xlink:href="../../images/foreignKeys.png" width="11px" height="12px" preserveAspectRatio="xMinYMin meet" x="166" y="-202"/>
<text text-anchor="start" x="181" y="-192.1" font-family="Helvetica,sans-Serif" font-size="11.00" fill="#000000">DESIGNATION_ID</text>
<polygon fill="#ffffff" stroke="transparent" points="161,-163 161,-185 375,-185 375,-163 161,-163"/>
<polygon fill="none" stroke="#000000" points="161,-163 161,-185 375,-185 375,-163 161,-163"/>
<image xlink:href="../../images/foreignKeys.png" width="11px" height="12px" preserveAspectRatio="xMinYMin meet" x="166" y="-180"/>
<text text-anchor="start" x="181" y="-170.1" font-family="Helvetica,sans-Serif" font-size="11.00" fill="#000000">CREATOR</text>
<polygon fill="#ffffff" stroke="transparent" points="161,-141 161,-163 375,-163 375,-141 161,-141"/>
<polygon fill="none" stroke="#000000" points="161,-141 161,-163 375,-163 375,-141 161,-141"/>
<image xlink:href="../../images/foreignKeys.png" width="11px" height="12px" preserveAspectRatio="xMinYMin meet" x="166" y="-158"/>
<text text-anchor="start" x="181" y="-148.1" font-family="Helvetica,sans-Serif" font-size="11.00" fill="#000000">LAST_MODIFIER</text>
<polygon fill="none" stroke="#000000" points="161,-122 161,-141 375,-141 375,-122 161,-122"/>
<text text-anchor="start" x="164" y="-128.1" font-family="Helvetica,sans-Serif" font-size="11.00" fill="#000000">...</text>
<polygon fill="#ffffff" stroke="transparent" points="161,-103 161,-122 246,-122 246,-103 161,-103"/>
<polygon fill="none" stroke="#000000" points="161,-103 161,-122 246,-122 246,-103 161,-103"/>
<text text-anchor="start" x="164" y="-109.1" font-family="Helvetica,sans-Serif" font-size="11.00" fill="#000000">&lt; 5</text>
<polygon fill="#ffffff" stroke="transparent" points="246,-103 246,-122 316,-122 316,-103 246,-103"/>
<polygon fill="none" stroke="#000000" points="246,-103 246,-122 316,-122 316,-103 246,-103"/>
<text text-anchor="start" x="280.6105" y="-109.1" font-family="Helvetica,sans-Serif" font-size="11.00" fill="#000000">0 rows</text>
<polygon fill="#ffffff" stroke="transparent" points="316,-103 316,-122 375,-122 375,-103 316,-103"/>
<polygon fill="none" stroke="#000000" points="316,-103 316,-122 375,-122 375,-103 316,-103"/>
<text text-anchor="start" x="350.2904" y="-109.1" font-family="Helvetica,sans-Serif" font-size="11.00" fill="#000000">15 &gt;</text>
</a>
</g>
</g>
<!-- User -->
<g id="node2" class="node">
<title>User</title>
<g id="a_node2"><a xlink:href="../../tables/User.html" xlink:title="User" target="_top">
<polygon fill="#ffffff" stroke="transparent" points="8,-66.5 8,-149.5 112,-149.5 112,-66.5 8,-66.5"/>
<polygon fill="#f5f5f5" stroke="transparent" points="8,-126 8,-149 112,-149 112,-126 8,-126"/>
<polygon fill="none" stroke="#000000" points="8,-126 8,-149 112,-149 112,-126 8,-126"/>
<text text-anchor="start" x="13" y="-134.6" font-family="Helvetica,sans-Serif" font-weight="bold" font-size="11.00" fill="#000000">User</text>
<text text-anchor="start" x="77.0437" y="-134.1" font-family="Helvetica,sans-Serif" font-size="11.00" fill="#000000">[table]</text>
<polygon fill="none" stroke="#000000" points="8,-104 8,-126 112,-126 112,-104 8,-104"/>
<image xlink:href="../../images/primaryKeys.png" width="11px" height="12px" preserveAspectRatio="xMinYMin meet" x="13" y="-121"/>
<text text-anchor="start" x="28" y="-111.1" font-family="Helvetica,sans-Serif" font-size="11.00" fill="#000000">userid_pk</text>
<polygon fill="none" stroke="#000000" points="8,-85 8,-104 112,-104 112,-85 8,-85"/>
<text text-anchor="start" x="11" y="-91.1" font-family="Helvetica,sans-Serif" font-size="11.00" fill="#000000">...</text>
<polygon fill="#ffffff" stroke="transparent" points="8,-66 8,-85 30,-85 30,-66 8,-66"/>
<polygon fill="none" stroke="#000000" points="8,-66 8,-85 30,-85 30,-66 8,-66"/>
<text text-anchor="start" x="11" y="-72.1" font-family="Helvetica,sans-Serif" font-size="11.00" fill="#000000"> &#160;</text>
<polygon fill="#ffffff" stroke="transparent" points="30,-66 30,-85 73,-85 73,-66 30,-66"/>
<polygon fill="none" stroke="#000000" points="30,-66 30,-85 73,-85 73,-66 30,-66"/>
<text text-anchor="start" x="37.6105" y="-72.1" font-family="Helvetica,sans-Serif" font-size="11.00" fill="#000000">0 rows</text>
<polygon fill="#ffffff" stroke="transparent" points="73,-66 73,-85 112,-85 112,-66 73,-66"/>
<polygon fill="none" stroke="#000000" points="73,-66 73,-85 112,-85 112,-66 73,-66"/>
<text text-anchor="start" x="81.1755" y="-72.1" font-family="Helvetica,sans-Serif" font-size="11.00" fill="#000000">102 &gt;</text>
</a>
</g>
</g>
<!-- EMPLOYEE&#45;&gt;User -->
<g id="edge1" class="edge">
<title>EMPLOYEE:w&#45;&gt;User:e</title>
<path fill="none" stroke="#000000" d="M147.1662,-168.9697C132.0842,-154.7018 139.9614,-115 112,-115"/>
<polygon fill="#000000" stroke="#000000" points="153.4816,-171.2661 159.7697,-177.3833 157.2408,-172.6331 161,-174 161,-174 161,-174 157.2408,-172.6331 162.2303,-170.6167 153.4816,-171.2661 153.4816,-171.2661"/>
<ellipse fill="none" stroke="#000000" cx="150.4743" cy="-170.1725" rx="3.2" ry="3.2"/>
</g>
<!-- EMPLOYEE&#45;&gt;User -->
<g id="edge2" class="edge">
<title>EMPLOYEE:w&#45;&gt;User:e</title>
<path fill="none" stroke="#000000" d="M147.1217,-147.4631C134.5786,-137.583 133.3196,-115 112,-115"/>
<polygon fill="#000000" stroke="#000000" points="153.396,-149.5142 159.8814,-155.4218 157.198,-150.7571 161,-152 161,-152 161,-152 157.198,-150.7571 162.1186,-148.5782 153.396,-149.5142 153.396,-149.5142"/>
<ellipse fill="none" stroke="#000000" cx="150.3544" cy="-148.5198" rx="3.2" ry="3.2"/>
</g>
<!-- TRAVEL_EXPENSE -->
<g id="node3" class="node">
<title>TRAVEL_EXPENSE</title>
<g id="a_node3"><a xlink:href="../../tables/TRAVEL_EXPENSE.html" xlink:title="TRAVEL_EXPENSE" target="_top">
<polygon fill="#ffffff" stroke="transparent" points="424,-25 424,-291 654,-291 654,-25 424,-25"/>
<polygon fill="#f5f5f5" stroke="transparent" points="426,-266 426,-289 652,-289 652,-266 426,-266"/>
<polygon fill="none" stroke="#000000" points="426,-266 426,-289 652,-289 652,-266 426,-266"/>
<text text-anchor="start" x="431" y="-274.6" font-family="Helvetica,sans-Serif" font-weight="bold" font-size="11.00" fill="#000000">TRAVEL_EXPENSE</text>
<text text-anchor="start" x="617.0437" y="-274.1" font-family="Helvetica,sans-Serif" font-size="11.00" fill="#000000">[table]</text>
<polygon fill="none" stroke="#000000" points="426,-244 426,-266 586,-266 586,-244 426,-244"/>
<image xlink:href="../../images/primaryKeys.png" width="11px" height="12px" preserveAspectRatio="xMinYMin meet" x="431" y="-261"/>
<text text-anchor="start" x="446" y="-251.1" font-family="Helvetica,sans-Serif" font-size="11.00" fill="#000000">ID</text>
<polygon fill="none" stroke="#000000" points="586,-244 586,-266 652,-266 652,-244 586,-244"/>
<text text-anchor="start" x="589" y="-251.7" font-family="Helvetica,sans-Serif" font-size="11.00" fill="#000000">int[10]</text>
<polygon fill="none" stroke="#000000" points="426,-222 426,-244 586,-244 586,-222 426,-222"/>
<text text-anchor="start" x="446" y="-229.1" font-family="Helvetica,sans-Serif" font-size="11.00" fill="#000000">WORKSPACE_ID</text>
<polygon fill="none" stroke="#000000" points="586,-222 586,-244 652,-244 652,-222 586,-222"/>
<text text-anchor="start" x="589" y="-229.7" font-family="Helvetica,sans-Serif" font-size="11.00" fill="#000000">int[10]</text>
<polygon fill="#ffffff" stroke="transparent" points="426,-200 426,-222 586,-222 586,-200 426,-200"/>
<polygon fill="none" stroke="#000000" points="426,-200 426,-222 586,-222 586,-200 426,-200"/>
<image xlink:href="../../images/foreignKeys.png" width="11px" height="12px" preserveAspectRatio="xMinYMin meet" x="431" y="-217"/>
<text text-anchor="start" x="446" y="-207.1" font-family="Helvetica,sans-Serif" font-size="11.00" fill="#000000">EMPLOYEE_ID</text>
<polygon fill="none" stroke="#000000" points="586,-200 586,-222 652,-222 652,-200 586,-200"/>
<text text-anchor="start" x="589" y="-207.7" font-family="Helvetica,sans-Serif" font-size="11.00" fill="#000000">int[10]</text>
<polygon fill="none" stroke="#000000" points="426,-178 426,-200 586,-200 586,-178 426,-178"/>
<text text-anchor="start" x="446" y="-185.1" font-family="Helvetica,sans-Serif" font-size="11.00" fill="#000000">TRAVEL_ID</text>
<polygon fill="none" stroke="#000000" points="586,-178 586,-200 652,-200 652,-178 586,-178"/>
<text text-anchor="start" x="589" y="-185.7" font-family="Helvetica,sans-Serif" font-size="11.00" fill="#000000">int[10]</text>
<polygon fill="none" stroke="#000000" points="426,-156 426,-178 586,-178 586,-156 426,-156"/>
<text text-anchor="start" x="446" y="-163.1" font-family="Helvetica,sans-Serif" font-size="11.00" fill="#000000">TRAVEL_EXPENSE_ID</text>
<polygon fill="none" stroke="#000000" points="586,-156 586,-178 652,-178 652,-156 586,-156"/>
<text text-anchor="start" x="589" y="-163.7" font-family="Helvetica,sans-Serif" font-size="11.00" fill="#000000">double[22]</text>
<polygon fill="none" stroke="#000000" points="426,-134 426,-156 586,-156 586,-134 426,-134"/>
<text text-anchor="start" x="446" y="-141.1" font-family="Helvetica,sans-Serif" font-size="11.00" fill="#000000">APPROVAL_STATUS</text>
<polygon fill="none" stroke="#000000" points="586,-134 586,-156 652,-156 652,-134 586,-134"/>
<text text-anchor="start" x="589" y="-141.7" font-family="Helvetica,sans-Serif" font-size="11.00" fill="#000000">enum[12]</text>
<polygon fill="none" stroke="#000000" points="426,-112 426,-134 586,-134 586,-112 426,-112"/>
<text text-anchor="start" x="446" y="-119.1" font-family="Helvetica,sans-Serif" font-size="11.00" fill="#000000">CREATED_TIME</text>
<polygon fill="none" stroke="#000000" points="586,-112 586,-134 652,-134 652,-112 586,-112"/>
<text text-anchor="start" x="588.7401" y="-119.7" font-family="Helvetica,sans-Serif" font-size="11.00" fill="#000000">datetime[26]</text>
<polygon fill="none" stroke="#000000" points="426,-90 426,-112 586,-112 586,-90 426,-90"/>
<text text-anchor="start" x="446" y="-97.1" font-family="Helvetica,sans-Serif" font-size="11.00" fill="#000000">MODIFIED_TIME</text>
<polygon fill="none" stroke="#000000" points="586,-90 586,-112 652,-112 652,-90 586,-90"/>
<text text-anchor="start" x="588.7401" y="-97.7" font-family="Helvetica,sans-Serif" font-size="11.00" fill="#000000">datetime[26]</text>
<polygon fill="#ffffff" stroke="transparent" points="426,-68 426,-90 586,-90 586,-68 426,-68"/>
<polygon fill="none" stroke="#000000" points="426,-68 426,-90 586,-90 586,-68 426,-68"/>
<image xlink:href="../../images/foreignKeys.png" width="11px" height="12px" preserveAspectRatio="xMinYMin meet" x="431" y="-85"/>
<text text-anchor="start" x="446" y="-75.1" font-family="Helvetica,sans-Serif" font-size="11.00" fill="#000000">CREATOR</text>
<polygon fill="none" stroke="#000000" points="586,-68 586,-90 652,-90 652,-68 586,-68"/>
<text text-anchor="start" x="589" y="-75.7" font-family="Helvetica,sans-Serif" font-size="11.00" fill="#000000">int[10]</text>
<polygon fill="#ffffff" stroke="transparent" points="426,-46 426,-68 586,-68 586,-46 426,-46"/>
<polygon fill="none" stroke="#000000" points="426,-46 426,-68 586,-68 586,-46 426,-46"/>
<image xlink:href="../../images/foreignKeys.png" width="11px" height="12px" preserveAspectRatio="xMinYMin meet" x="431" y="-63"/>
<text text-anchor="start" x="446" y="-53.1" font-family="Helvetica,sans-Serif" font-size="11.00" fill="#000000">LAST_MODIFIER</text>
<polygon fill="none" stroke="#000000" points="586,-46 586,-68 652,-68 652,-46 586,-46"/>
<text text-anchor="start" x="589" y="-53.7" font-family="Helvetica,sans-Serif" font-size="11.00" fill="#000000">int[10]</text>
<polygon fill="#ffffff" stroke="transparent" points="426,-27 426,-46 497,-46 497,-27 426,-27"/>
<polygon fill="none" stroke="#000000" points="426,-27 426,-46 497,-46 497,-27 426,-27"/>
<text text-anchor="start" x="429" y="-33.1" font-family="Helvetica,sans-Serif" font-size="11.00" fill="#000000">&lt; 3</text>
<polygon fill="#ffffff" stroke="transparent" points="497,-27 497,-46 586,-46 586,-27 497,-27"/>
<polygon fill="none" stroke="#000000" points="497,-27 497,-46 586,-46 586,-27 497,-27"/>
<text text-anchor="start" x="550.6105" y="-33.1" font-family="Helvetica,sans-Serif" font-size="11.00" fill="#000000">0 rows</text>
<polygon fill="#ffffff" stroke="transparent" points="586,-27 586,-46 652,-46 652,-27 586,-27"/>
<polygon fill="none" stroke="#000000" points="586,-27 586,-46 652,-46 652,-27 586,-27"/>
<text text-anchor="start" x="633.4053" y="-33.1" font-family="Helvetica,sans-Serif" font-size="11.00" fill="#000000">0 &gt;</text>
<polygon fill="none" stroke="#000000" stroke-width="2" points="425,-26 425,-290 653,-290 653,-26 425,-26"/>
</a>
</g>
</g>
<!-- TRAVEL_EXPENSE&#45;&gt;EMPLOYEE -->
<g id="edge4" class="edge">
<title>TRAVEL_EXPENSE:w&#45;&gt;EMPLOYEE:e</title>
<path fill="none" stroke="#000000" d="M412.137,-215.7065C397.2732,-228.332 401.0451,-262 375,-262"/>
<polygon fill="#000000" stroke="#000000" points="418.4247,-213.5719 427.1573,-214.4089 422.2123,-212.2859 426,-211 426,-211 426,-211 422.2123,-212.2859 424.8427,-207.5911 418.4247,-213.5719 418.4247,-213.5719"/>
<ellipse fill="none" stroke="#000000" cx="415.3945" cy="-214.6006" rx="3.2" ry="3.2"/>
</g>
<!-- TRAVEL_EXPENSE&#45;&gt;User -->
<g id="edge3" class="edge">
<title>TRAVEL_EXPENSE:w&#45;&gt;User:e</title>
<path fill="none" stroke="#000000" d="M411.4782,-78.9108C301.5402,-77.5585 265.2306,-61.7142 153,-93 133.0797,-98.553 132.6798,-115 112,-115"/>
<polygon fill="#000000" stroke="#000000" points="418.0002,-78.9508 425.9779,-82.5999 422.0001,-78.9754 426,-79 426,-79 426,-79 422.0001,-78.9754 426.0221,-75.4001 418.0002,-78.9508 418.0002,-78.9508"/>
<ellipse fill="none" stroke="#000000" cx="414.8002" cy="-78.9312" rx="3.2" ry="3.2"/>
</g>
<!-- TRAVEL_EXPENSE&#45;&gt;User -->
<g id="edge5" class="edge">
<title>TRAVEL_EXPENSE:w&#45;&gt;User:e</title>
<path fill="none" stroke="#000000" d="M411.4462,-56.8135C301.0006,-53.9767 258.4067,-20.4114 153,-70 128.5176,-81.5178 139.0564,-115 112,-115"/>
<polygon fill="#000000" stroke="#000000" points="418.0007,-56.8975 425.9539,-60.5997 422.0003,-56.9487 426,-57 426,-57 426,-57 422.0003,-56.9487 426.0461,-53.4003 418.0007,-56.8975 418.0007,-56.8975"/>
<ellipse fill="none" stroke="#000000" cx="414.8009" cy="-56.8565" rx="3.2" ry="3.2"/>
</g>
</g>
</svg>
