<?xml version="1.0" encoding="UTF-8" standalone="no"?><svg xmlns="http://www.w3.org/2000/svg" xmlns:xlink="http://www.w3.org/1999/xlink" contentStyleType="text/css" height="380px" preserveAspectRatio="none" style="width:660px;height:380px;background:#FFFFFF;" version="1.1" viewBox="0 0 660 380" width="660px" zoomAndPan="magnify"><defs/><g><!--class com.enttribe.hrms.integration.service.impl.WorkOrderServiceImpl--><a href="WorkOrderServiceImpl.html" target="_top" title="WorkOrderServiceImpl.html" xlink:actuate="onRequest" xlink:href="WorkOrderServiceImpl.html" xlink:show="new" xlink:title="WorkOrderServiceImpl.html" xlink:type="simple"><g id="elem_com.enttribe.hrms.integration.service.impl.WorkOrderServiceImpl"><rect codeLine="5" fill="#F1F1F1" height="143.7188" id="com.enttribe.hrms.integration.service.impl.WorkOrderServiceImpl" rx="2.5" ry="2.5" style="stroke:#181818;stroke-width:0.5;" width="646" x="7" y="211"/><ellipse cx="220.25" cy="229.9688" fill="#ADD1B2" rx="11" ry="11" style="stroke:#181818;stroke-width:1.0;"/><path d="M223.2188,235.6094 Q222.6406,235.9063 222,236.0469 Q221.3594,236.2031 220.6563,236.2031 Q218.1563,236.2031 216.8281,234.5625 Q215.5156,232.9063 215.5156,229.7813 Q215.5156,226.6563 216.8281,225 Q218.1563,223.3438 220.6563,223.3438 Q221.3594,223.3438 222,223.5 Q222.6563,223.6563 223.2188,223.9531 L223.2188,226.6719 Q222.5938,226.0938 222,225.8281 Q221.4063,225.5469 220.7813,225.5469 Q219.4375,225.5469 218.75,226.625 Q218.0625,227.6875 218.0625,229.7813 Q218.0625,231.875 218.75,232.9531 Q219.4375,234.0156 220.7813,234.0156 Q221.4063,234.0156 222,233.75 Q222.5938,233.4688 223.2188,232.8906 L223.2188,235.6094 Z " fill="#000000"/><text fill="#000000" font-family="sans-serif" font-size="14" lengthAdjust="spacing" textLength="152" x="270.25" y="228.9951">WorkOrderServiceImpl</text><text fill="#000000" font-family="sans-serif" font-size="10" lengthAdjust="spacing" textLength="211" x="240.75" y="241.5791">com.enttribe.hrms.integration.service.impl</text><line style="stroke:#181818;stroke-width:0.5;" x1="8" x2="652" y1="248.9375" y2="248.9375"/><ellipse cx="18" cy="262.5859" fill="#84BE84" rx="3" ry="3" style="stroke:#038048;stroke-width:1.0;"/><text fill="#000000" font-family="sans-serif" font-size="14" lengthAdjust="spacing" textLength="215" x="27" y="265.9326">deleteWorkorder(String): String</text><ellipse cx="18" cy="278.8828" fill="#84BE84" rx="3" ry="3" style="stroke:#038048;stroke-width:1.0;"/><text fill="#000000" font-family="sans-serif" font-size="14" lengthAdjust="spacing" textLength="390" x="27" y="282.2295">create(WorkflowWorkorderWrapper): OrchestratorProject</text><ellipse cx="18" cy="295.1797" fill="#84BE84" rx="3" ry="3" style="stroke:#038048;stroke-width:1.0;"/><text fill="#000000" font-family="sans-serif" font-size="14" lengthAdjust="spacing" textLength="363" x="27" y="298.5264">findByProcessInstanceId(String): OrchestratorProject</text><ellipse cx="18" cy="311.4766" fill="#84BE84" rx="3" ry="3" style="stroke:#038048;stroke-width:1.0;"/><text fill="#000000" font-family="sans-serif" font-size="14" lengthAdjust="spacing" textLength="620" x="27" y="314.8232">findByProcInstaceIdAndStatus(String, Collection&lt;String&gt;): List&lt;OrchestratorProjectTask&gt;</text><ellipse cx="18" cy="327.7734" fill="#84BE84" rx="3" ry="3" style="stroke:#038048;stroke-width:1.0;"/><text fill="#000000" font-family="sans-serif" font-size="14" lengthAdjust="spacing" textLength="440" x="27" y="331.1201">findTaskByWorkorderNo(String): List&lt;OrchestratorProjectTask&gt;</text><ellipse cx="18" cy="344.0703" fill="#84BE84" rx="3" ry="3" style="stroke:#038048;stroke-width:1.0;"/><text fill="#000000" font-family="sans-serif" font-size="14" lengthAdjust="spacing" textLength="366" x="27" y="347.417">complete(String, String, Map&lt;String, Object&gt;): String</text></g></a><!--class com.enttribe.hrms.integration.service.WorkOrderService--><a href="../WorkOrderService.html" target="_top" title="../WorkOrderService.html" xlink:actuate="onRequest" xlink:href="../WorkOrderService.html" xlink:show="new" xlink:title="../WorkOrderService.html" xlink:type="simple"><g id="elem_com.enttribe.hrms.integration.service.WorkOrderService"><rect codeLine="14" fill="#F1F1F1" height="143.7188" id="com.enttribe.hrms.integration.service.WorkOrderService" rx="2.5" ry="2.5" style="stroke:#181818;stroke-width:0.5;" width="644" x="8" y="7"/><ellipse cx="229.25" cy="25.9688" fill="#B4A7E5" rx="11" ry="11" style="stroke:#181818;stroke-width:1.0;"/><path d="M225.1719,21.7344 L225.1719,19.5781 L232.5625,19.5781 L232.5625,21.7344 L230.0938,21.7344 L230.0938,29.8125 L232.5625,29.8125 L232.5625,31.9688 L225.1719,31.9688 L225.1719,29.8125 L227.6406,29.8125 L227.6406,21.7344 L225.1719,21.7344 Z " fill="#000000"/><text fill="#000000" font-family="sans-serif" font-size="14" font-style="italic" lengthAdjust="spacing" textLength="126" x="283.25" y="24.9951">WorkOrderService</text><text fill="#000000" font-family="sans-serif" font-size="10" font-style="italic" lengthAdjust="spacing" textLength="193" x="249.75" y="37.5791">com.enttribe.hrms.integration.service</text><line style="stroke:#181818;stroke-width:0.5;" x1="9" x2="651" y1="44.9375" y2="44.9375"/><ellipse cx="19" cy="58.5859" fill="#84BE84" rx="3" ry="3" style="stroke:#038048;stroke-width:1.0;"/><text fill="#000000" font-family="sans-serif" font-size="14" font-style="italic" lengthAdjust="spacing" textLength="216" x="28" y="61.9326">deleteWorkorder(String): String</text><ellipse cx="19" cy="74.8828" fill="#84BE84" rx="3" ry="3" style="stroke:#038048;stroke-width:1.0;"/><text fill="#000000" font-family="sans-serif" font-size="14" font-style="italic" lengthAdjust="spacing" textLength="391" x="28" y="78.2295">create(WorkflowWorkorderWrapper): OrchestratorProject</text><ellipse cx="19" cy="91.1797" fill="#84BE84" rx="3" ry="3" style="stroke:#038048;stroke-width:1.0;"/><text fill="#000000" font-family="sans-serif" font-size="14" font-style="italic" lengthAdjust="spacing" textLength="618" x="28" y="94.5264">findByProcInstaceIdAndStatus(String, Collection&lt;String&gt;): List&lt;OrchestratorProjectTask&gt;</text><ellipse cx="19" cy="107.4766" fill="#84BE84" rx="3" ry="3" style="stroke:#038048;stroke-width:1.0;"/><text fill="#000000" font-family="sans-serif" font-size="14" font-style="italic" lengthAdjust="spacing" textLength="360" x="28" y="110.8232">findByProcessInstanceId(String): OrchestratorProject</text><ellipse cx="19" cy="123.7734" fill="#84BE84" rx="3" ry="3" style="stroke:#038048;stroke-width:1.0;"/><text fill="#000000" font-family="sans-serif" font-size="14" font-style="italic" lengthAdjust="spacing" textLength="439" x="28" y="127.1201">findTaskByWorkorderNo(String): List&lt;OrchestratorProjectTask&gt;</text><ellipse cx="19" cy="140.0703" fill="#84BE84" rx="3" ry="3" style="stroke:#038048;stroke-width:1.0;"/><text fill="#000000" font-family="sans-serif" font-size="14" font-style="italic" lengthAdjust="spacing" textLength="366" x="28" y="143.417">complete(String, String, Map&lt;String, Object&gt;): String</text></g></a><!--reverse link com.enttribe.hrms.integration.service.WorkOrderService to com.enttribe.hrms.integration.service.impl.WorkOrderServiceImpl--><g id="link_com.enttribe.hrms.integration.service.WorkOrderService_com.enttribe.hrms.integration.service.impl.WorkOrderServiceImpl"><path codeLine="23" d="M330,171.57 C330,184.71 330,198.07 330,210.74 " fill="none" id="com.enttribe.hrms.integration.service.WorkOrderService-backto-com.enttribe.hrms.integration.service.impl.WorkOrderServiceImpl" style="stroke:#181818;stroke-width:1.0;stroke-dasharray:7.0,7.0;"/><polygon fill="none" points="323,171.22,330,151.22,337,171.22,323,171.22" style="stroke:#181818;stroke-width:1.0;"/></g><text fill="#888888" font-family="sans-serif" font-size="10" lengthAdjust="spacing" textLength="186" x="230" y="370.001">UMLDoclet 2.1.0, PlantUML 1.2022.14</text><!--SRC=[jLJRIWCn47ttAmP1g2ZnWa-oB7Xv4TGALNnG7zBih1lD9ajclDJBlpjfQsjhaMfnNn9Evfovv6m000WPlAwH6csmWusEcaC47pmkoJ5Kja30kk4Ub1PTGTDeZLm5WVkuSPe8bZEoBxYxjPDVXdZVZWN63iP7Q_2eRjor7nvlvYRKgXi2UtncLSMQbFMCjrA23LxHWAEia9P14ymVhcObXgkhMR2gk7OtD_3Qxo1zQmKwP4p18GMtEXojlrtTXS5c76WYQiPMYYnTU1enBgDk6ep2Q4TJ8N5_gcSntA7XCRsqljZl2MoGwCWJQoyr5UDySxBxrCJSyqM7DJ_GK68T3e9pmf81PGCe5zbZIvpDq3xNT9zF9aZGVc_Ks6aO5pUdYjnQayOvAkbpFT5DzhblTnCpdnpn-y1KwP9ZAVtzOApVckeNVffE9JPIQcCQ_UwYLzrDSp7yFh-Xld8MyzPNfVysoknSVx3qjD32vfkOvw8-_ADTiZUb5dswXWLW-XEW51rPBawE3uEHZc1RRQdDTJXpshEWiFA8aKItjVe1]--></g></svg>