<?xml version="1.0" encoding="UTF-8" standalone="no"?>
<!DOCTYPE svg PUBLIC "-//W3C//DTD SVG 1.1//EN"
 "http://www.w3.org/Graphics/SVG/1.1/DTD/svg11.dtd">
<!-- Generated by graphviz version 2.40.1 (20161225.0304)
 -->
<!-- Title: orphans Pages: 1 -->
<svg width="287pt" height="987pt"
 viewBox="0.00 0.00 287.00 987.00" xmlns="http://www.w3.org/2000/svg" xmlns:xlink="http://www.w3.org/1999/xlink">
<g id="graph0" class="graph" transform="scale(1 1) rotate(0) translate(4 983)">
<title>orphans</title>
<polygon fill="#ffffff" stroke="transparent" points="-4,4 -4,-983 283,-983 283,4 -4,4"/>
<!-- RESOURCE_FIELD_AUDIT -->
<g id="node1" class="node">
<title>RESOURCE_FIELD_AUDIT</title>
<g id="a_node1"><a xlink:href="../../tables/RESOURCE_FIELD_AUDIT.html" xlink:title="RESOURCE_FIELD_AUDIT" target="_top">
<polygon fill="#ffffff" stroke="transparent" points="11.5,-4 11.5,-644 267.5,-644 267.5,-4 11.5,-4"/>
<polygon fill="#f5f5f5" stroke="transparent" points="13.5,-619 13.5,-642 265.5,-642 265.5,-619 13.5,-619"/>
<polygon fill="none" stroke="#000000" points="13.5,-619 13.5,-642 265.5,-642 265.5,-619 13.5,-619"/>
<text text-anchor="start" x="18.5" y="-627.6" font-family="Helvetica,sans-Serif" font-weight="bold" font-size="11.00" fill="#000000">RESOURCE_FIELD_AUDIT</text>
<text text-anchor="start" x="230.5437" y="-627.1" font-family="Helvetica,sans-Serif" font-size="11.00" fill="#000000">[table]</text>
<polygon fill="none" stroke="#000000" points="13.5,-597 13.5,-619 198.5,-619 198.5,-597 13.5,-597"/>
<image xlink:href="../../images/primaryKeys.png" width="11px" height="12px" preserveAspectRatio="xMinYMin meet" x="18.5" y="-614"/>
<text text-anchor="start" x="33.5" y="-604.1" font-family="Helvetica,sans-Serif" font-size="11.00" fill="#000000">ID</text>
<polygon fill="none" stroke="#000000" points="198.5,-597 198.5,-619 265.5,-619 265.5,-597 198.5,-597"/>
<text text-anchor="start" x="201.5" y="-604.7" font-family="Helvetica,sans-Serif" font-size="11.00" fill="#000000">int[10]</text>
<polygon fill="none" stroke="#000000" points="13.5,-575 13.5,-597 198.5,-597 198.5,-575 13.5,-575"/>
<text text-anchor="start" x="33.5" y="-582.1" font-family="Helvetica,sans-Serif" font-size="11.00" fill="#000000">CREATED_TIME</text>
<polygon fill="none" stroke="#000000" points="198.5,-575 198.5,-597 265.5,-597 265.5,-575 198.5,-575"/>
<text text-anchor="start" x="201.5" y="-582.7" font-family="Helvetica,sans-Serif" font-size="11.00" fill="#000000">datetime[26]</text>
<polygon fill="none" stroke="#000000" points="13.5,-553 13.5,-575 198.5,-575 198.5,-553 13.5,-553"/>
<text text-anchor="start" x="33.5" y="-560.1" font-family="Helvetica,sans-Serif" font-size="11.00" fill="#000000">CREATOR_FK</text>
<polygon fill="none" stroke="#000000" points="198.5,-553 198.5,-575 265.5,-575 265.5,-553 198.5,-553"/>
<text text-anchor="start" x="201.5" y="-560.7" font-family="Helvetica,sans-Serif" font-size="11.00" fill="#000000">int[10]</text>
<polygon fill="none" stroke="#000000" points="13.5,-531 13.5,-553 198.5,-553 198.5,-531 13.5,-531"/>
<text text-anchor="start" x="33.5" y="-538.1" font-family="Helvetica,sans-Serif" font-size="11.00" fill="#000000">CREATOR_NAME</text>
<polygon fill="none" stroke="#000000" points="198.5,-531 198.5,-553 265.5,-553 265.5,-531 198.5,-531"/>
<text text-anchor="start" x="201.4365" y="-538.7" font-family="Helvetica,sans-Serif" font-size="11.00" fill="#000000">varchar[100]</text>
<polygon fill="none" stroke="#000000" points="13.5,-509 13.5,-531 198.5,-531 198.5,-509 13.5,-509"/>
<text text-anchor="start" x="33.5" y="-516.1" font-family="Helvetica,sans-Serif" font-size="11.00" fill="#000000">MODIFIER_FK</text>
<polygon fill="none" stroke="#000000" points="198.5,-509 198.5,-531 265.5,-531 265.5,-509 198.5,-509"/>
<text text-anchor="start" x="201.5" y="-516.7" font-family="Helvetica,sans-Serif" font-size="11.00" fill="#000000">int[10]</text>
<polygon fill="none" stroke="#000000" points="13.5,-487 13.5,-509 198.5,-509 198.5,-487 13.5,-487"/>
<text text-anchor="start" x="33.5" y="-494.1" font-family="Helvetica,sans-Serif" font-size="11.00" fill="#000000">MODIFIER_NAME</text>
<polygon fill="none" stroke="#000000" points="198.5,-487 198.5,-509 265.5,-509 265.5,-487 198.5,-487"/>
<text text-anchor="start" x="201.4365" y="-494.7" font-family="Helvetica,sans-Serif" font-size="11.00" fill="#000000">varchar[100]</text>
<polygon fill="none" stroke="#000000" points="13.5,-465 13.5,-487 198.5,-487 198.5,-465 13.5,-465"/>
<text text-anchor="start" x="33.5" y="-472.1" font-family="Helvetica,sans-Serif" font-size="11.00" fill="#000000">MODIFIED_TIME</text>
<polygon fill="none" stroke="#000000" points="198.5,-465 198.5,-487 265.5,-487 265.5,-465 198.5,-465"/>
<text text-anchor="start" x="201.5" y="-472.7" font-family="Helvetica,sans-Serif" font-size="11.00" fill="#000000">datetime[26]</text>
<polygon fill="none" stroke="#000000" points="13.5,-443 13.5,-465 198.5,-465 198.5,-443 13.5,-443"/>
<text text-anchor="start" x="33.5" y="-450.1" font-family="Helvetica,sans-Serif" font-size="11.00" fill="#000000">USER_NAME</text>
<polygon fill="none" stroke="#000000" points="198.5,-443 198.5,-465 265.5,-465 265.5,-443 198.5,-443"/>
<text text-anchor="start" x="201.4365" y="-450.7" font-family="Helvetica,sans-Serif" font-size="11.00" fill="#000000">varchar[100]</text>
<polygon fill="none" stroke="#000000" points="13.5,-421 13.5,-443 198.5,-443 198.5,-421 13.5,-421"/>
<text text-anchor="start" x="33.5" y="-428.1" font-family="Helvetica,sans-Serif" font-size="11.00" fill="#000000">ACTION</text>
<polygon fill="none" stroke="#000000" points="198.5,-421 198.5,-443 265.5,-443 265.5,-421 198.5,-421"/>
<text text-anchor="start" x="201.4365" y="-428.7" font-family="Helvetica,sans-Serif" font-size="11.00" fill="#000000">varchar[255]</text>
<polygon fill="none" stroke="#000000" points="13.5,-399 13.5,-421 198.5,-421 198.5,-399 13.5,-399"/>
<text text-anchor="start" x="33.5" y="-406.1" font-family="Helvetica,sans-Serif" font-size="11.00" fill="#000000">APPLICATION_NAME</text>
<polygon fill="none" stroke="#000000" points="198.5,-399 198.5,-421 265.5,-421 265.5,-399 198.5,-399"/>
<text text-anchor="start" x="201.4365" y="-406.7" font-family="Helvetica,sans-Serif" font-size="11.00" fill="#000000">varchar[255]</text>
<polygon fill="none" stroke="#000000" points="13.5,-377 13.5,-399 198.5,-399 198.5,-377 13.5,-377"/>
<text text-anchor="start" x="33.5" y="-384.1" font-family="Helvetica,sans-Serif" font-size="11.00" fill="#000000">COLUMN_NAME</text>
<polygon fill="none" stroke="#000000" points="198.5,-377 198.5,-399 265.5,-399 265.5,-377 198.5,-377"/>
<text text-anchor="start" x="201.4365" y="-384.7" font-family="Helvetica,sans-Serif" font-size="11.00" fill="#000000">varchar[255]</text>
<polygon fill="none" stroke="#000000" points="13.5,-355 13.5,-377 198.5,-377 198.5,-355 13.5,-355"/>
<text text-anchor="start" x="33.5" y="-362.1" font-family="Helvetica,sans-Serif" font-size="11.00" fill="#000000">ENTITY_ID</text>
<polygon fill="none" stroke="#000000" points="198.5,-355 198.5,-377 265.5,-377 265.5,-355 198.5,-355"/>
<text text-anchor="start" x="201.4365" y="-362.7" font-family="Helvetica,sans-Serif" font-size="11.00" fill="#000000">varchar[255]</text>
<polygon fill="none" stroke="#000000" points="13.5,-333 13.5,-355 198.5,-355 198.5,-333 13.5,-333"/>
<text text-anchor="start" x="33.5" y="-340.1" font-family="Helvetica,sans-Serif" font-size="11.00" fill="#000000">ENTITY_NAME</text>
<polygon fill="none" stroke="#000000" points="198.5,-333 198.5,-355 265.5,-355 265.5,-333 198.5,-333"/>
<text text-anchor="start" x="201.4365" y="-340.7" font-family="Helvetica,sans-Serif" font-size="11.00" fill="#000000">varchar[255]</text>
<polygon fill="none" stroke="#000000" points="13.5,-311 13.5,-333 198.5,-333 198.5,-311 13.5,-311"/>
<text text-anchor="start" x="33.5" y="-318.1" font-family="Helvetica,sans-Serif" font-size="11.00" fill="#000000">ENTITY_TYPE</text>
<polygon fill="none" stroke="#000000" points="198.5,-311 198.5,-333 265.5,-333 265.5,-311 198.5,-311"/>
<text text-anchor="start" x="201.4365" y="-318.7" font-family="Helvetica,sans-Serif" font-size="11.00" fill="#000000">varchar[255]</text>
<polygon fill="none" stroke="#000000" points="13.5,-289 13.5,-311 198.5,-311 198.5,-289 13.5,-289"/>
<text text-anchor="start" x="33.5" y="-296.1" font-family="Helvetica,sans-Serif" font-size="11.00" fill="#000000">FIELD_KEY</text>
<polygon fill="none" stroke="#000000" points="198.5,-289 198.5,-311 265.5,-311 265.5,-289 198.5,-289"/>
<text text-anchor="start" x="201.4365" y="-296.7" font-family="Helvetica,sans-Serif" font-size="11.00" fill="#000000">varchar[255]</text>
<polygon fill="none" stroke="#000000" points="13.5,-267 13.5,-289 198.5,-289 198.5,-267 13.5,-267"/>
<text text-anchor="start" x="33.5" y="-274.1" font-family="Helvetica,sans-Serif" font-size="11.00" fill="#000000">FIELD_TYPE</text>
<polygon fill="none" stroke="#000000" points="198.5,-267 198.5,-289 265.5,-289 265.5,-267 198.5,-267"/>
<text text-anchor="start" x="201.4365" y="-274.7" font-family="Helvetica,sans-Serif" font-size="11.00" fill="#000000">varchar[255]</text>
<polygon fill="none" stroke="#000000" points="13.5,-245 13.5,-267 198.5,-267 198.5,-245 13.5,-245"/>
<text text-anchor="start" x="33.5" y="-252.1" font-family="Helvetica,sans-Serif" font-size="11.00" fill="#000000">IDENTIFIER1</text>
<polygon fill="none" stroke="#000000" points="198.5,-245 198.5,-267 265.5,-267 265.5,-245 198.5,-245"/>
<text text-anchor="start" x="201.4365" y="-252.7" font-family="Helvetica,sans-Serif" font-size="11.00" fill="#000000">varchar[255]</text>
<polygon fill="none" stroke="#000000" points="13.5,-223 13.5,-245 198.5,-245 198.5,-223 13.5,-223"/>
<text text-anchor="start" x="33.5" y="-230.1" font-family="Helvetica,sans-Serif" font-size="11.00" fill="#000000">IDENTIFIER2</text>
<polygon fill="none" stroke="#000000" points="198.5,-223 198.5,-245 265.5,-245 265.5,-223 198.5,-223"/>
<text text-anchor="start" x="201.4365" y="-230.7" font-family="Helvetica,sans-Serif" font-size="11.00" fill="#000000">varchar[255]</text>
<polygon fill="none" stroke="#000000" points="13.5,-201 13.5,-223 198.5,-223 198.5,-201 13.5,-201"/>
<text text-anchor="start" x="33.5" y="-208.1" font-family="Helvetica,sans-Serif" font-size="11.00" fill="#000000">IDENTIFIER3</text>
<polygon fill="none" stroke="#000000" points="198.5,-201 198.5,-223 265.5,-223 265.5,-201 198.5,-201"/>
<text text-anchor="start" x="201.4365" y="-208.7" font-family="Helvetica,sans-Serif" font-size="11.00" fill="#000000">varchar[255]</text>
<polygon fill="none" stroke="#000000" points="13.5,-179 13.5,-201 198.5,-201 198.5,-179 13.5,-179"/>
<text text-anchor="start" x="33.5" y="-186.1" font-family="Helvetica,sans-Serif" font-size="11.00" fill="#000000">IDENTIFIER4</text>
<polygon fill="none" stroke="#000000" points="198.5,-179 198.5,-201 265.5,-201 265.5,-179 198.5,-179"/>
<text text-anchor="start" x="201.4365" y="-186.7" font-family="Helvetica,sans-Serif" font-size="11.00" fill="#000000">varchar[255]</text>
<polygon fill="none" stroke="#000000" points="13.5,-157 13.5,-179 198.5,-179 198.5,-157 13.5,-157"/>
<text text-anchor="start" x="33.5" y="-164.1" font-family="Helvetica,sans-Serif" font-size="11.00" fill="#000000">LABEL</text>
<polygon fill="none" stroke="#000000" points="198.5,-157 198.5,-179 265.5,-179 265.5,-157 198.5,-157"/>
<text text-anchor="start" x="201.4365" y="-164.7" font-family="Helvetica,sans-Serif" font-size="11.00" fill="#000000">varchar[255]</text>
<polygon fill="none" stroke="#000000" points="13.5,-135 13.5,-157 198.5,-157 198.5,-135 13.5,-135"/>
<text text-anchor="start" x="33.5" y="-142.1" font-family="Helvetica,sans-Serif" font-size="11.00" fill="#000000">NEW_VALUE</text>
<polygon fill="none" stroke="#000000" points="198.5,-135 198.5,-157 265.5,-157 265.5,-135 198.5,-135"/>
<text text-anchor="start" x="201.4365" y="-142.7" font-family="Helvetica,sans-Serif" font-size="11.00" fill="#000000">varchar[255]</text>
<polygon fill="none" stroke="#000000" points="13.5,-113 13.5,-135 198.5,-135 198.5,-113 13.5,-113"/>
<text text-anchor="start" x="33.5" y="-120.1" font-family="Helvetica,sans-Serif" font-size="11.00" fill="#000000">OLD_VALUE</text>
<polygon fill="none" stroke="#000000" points="198.5,-113 198.5,-135 265.5,-135 265.5,-113 198.5,-113"/>
<text text-anchor="start" x="201.4365" y="-120.7" font-family="Helvetica,sans-Serif" font-size="11.00" fill="#000000">varchar[255]</text>
<polygon fill="none" stroke="#000000" points="13.5,-91 13.5,-113 198.5,-113 198.5,-91 13.5,-91"/>
<text text-anchor="start" x="33.5" y="-98.1" font-family="Helvetica,sans-Serif" font-size="11.00" fill="#000000">RESOURCE_NAME</text>
<polygon fill="none" stroke="#000000" points="198.5,-91 198.5,-113 265.5,-113 265.5,-91 198.5,-91"/>
<text text-anchor="start" x="201.4365" y="-98.7" font-family="Helvetica,sans-Serif" font-size="11.00" fill="#000000">varchar[255]</text>
<polygon fill="none" stroke="#000000" points="13.5,-69 13.5,-91 198.5,-91 198.5,-69 13.5,-69"/>
<text text-anchor="start" x="33.5" y="-76.1" font-family="Helvetica,sans-Serif" font-size="11.00" fill="#000000">SEQUENCE</text>
<polygon fill="none" stroke="#000000" points="198.5,-69 198.5,-91 265.5,-91 265.5,-69 198.5,-69"/>
<text text-anchor="start" x="201.4365" y="-76.7" font-family="Helvetica,sans-Serif" font-size="11.00" fill="#000000">varchar[255]</text>
<polygon fill="none" stroke="#000000" points="13.5,-47 13.5,-69 198.5,-69 198.5,-47 13.5,-47"/>
<text text-anchor="start" x="33.5" y="-54.1" font-family="Helvetica,sans-Serif" font-size="11.00" fill="#000000">TASK_CODE</text>
<polygon fill="none" stroke="#000000" points="198.5,-47 198.5,-69 265.5,-69 265.5,-47 198.5,-47"/>
<text text-anchor="start" x="201.4365" y="-54.7" font-family="Helvetica,sans-Serif" font-size="11.00" fill="#000000">varchar[255]</text>
<polygon fill="none" stroke="#000000" points="13.5,-25 13.5,-47 198.5,-47 198.5,-25 13.5,-25"/>
<text text-anchor="start" x="33.5" y="-32.1" font-family="Helvetica,sans-Serif" font-size="11.00" fill="#000000">VIEW_ID</text>
<polygon fill="none" stroke="#000000" points="198.5,-25 198.5,-47 265.5,-47 265.5,-25 198.5,-25"/>
<text text-anchor="start" x="201.4365" y="-32.7" font-family="Helvetica,sans-Serif" font-size="11.00" fill="#000000">varchar[255]</text>
<polygon fill="#ffffff" stroke="transparent" points="13.5,-6 13.5,-25 97.5,-25 97.5,-6 13.5,-6"/>
<polygon fill="none" stroke="#000000" points="13.5,-6 13.5,-25 97.5,-25 97.5,-6 13.5,-6"/>
<text text-anchor="start" x="16.5" y="-12.1" font-family="Helvetica,sans-Serif" font-size="11.00" fill="#000000">&lt; 0</text>
<polygon fill="#ffffff" stroke="transparent" points="97.5,-6 97.5,-25 198.5,-25 198.5,-6 97.5,-6"/>
<polygon fill="none" stroke="#000000" points="97.5,-6 97.5,-25 198.5,-25 198.5,-6 97.5,-6"/>
<text text-anchor="start" x="163.1105" y="-12.1" font-family="Helvetica,sans-Serif" font-size="11.00" fill="#000000">0 rows</text>
<polygon fill="#ffffff" stroke="transparent" points="198.5,-6 198.5,-25 265.5,-25 265.5,-6 198.5,-6"/>
<polygon fill="none" stroke="#000000" points="198.5,-6 198.5,-25 265.5,-25 265.5,-6 198.5,-6"/>
<text text-anchor="start" x="246.9053" y="-12.1" font-family="Helvetica,sans-Serif" font-size="11.00" fill="#000000">0 &gt;</text>
<polygon fill="none" stroke="#000000" stroke-width="2" points="12.5,-5 12.5,-643 266.5,-643 266.5,-5 12.5,-5"/>
</a>
</g>
</g>
<!-- RESOURCE_JSON_AUDIT -->
<g id="node2" class="node">
<title>RESOURCE_JSON_AUDIT</title>
<g id="a_node2"><a xlink:href="../../tables/RESOURCE_JSON_AUDIT.html" xlink:title="RESOURCE_JSON_AUDIT" target="_top">
<polygon fill="#ffffff" stroke="transparent" points="8,-665 8,-975 271,-975 271,-665 8,-665"/>
<polygon fill="#f5f5f5" stroke="transparent" points="10.5,-950 10.5,-973 269.5,-973 269.5,-950 10.5,-950"/>
<polygon fill="none" stroke="#000000" points="10.5,-950 10.5,-973 269.5,-973 269.5,-950 10.5,-950"/>
<text text-anchor="start" x="15.5" y="-958.6" font-family="Helvetica,sans-Serif" font-weight="bold" font-size="11.00" fill="#000000">RESOURCE_JSON_AUDIT</text>
<text text-anchor="start" x="234.5437" y="-958.1" font-family="Helvetica,sans-Serif" font-size="11.00" fill="#000000">[table]</text>
<polygon fill="none" stroke="#000000" points="10.5,-928 10.5,-950 190.5,-950 190.5,-928 10.5,-928"/>
<image xlink:href="../../images/primaryKeys.png" width="11px" height="12px" preserveAspectRatio="xMinYMin meet" x="15.5" y="-945"/>
<text text-anchor="start" x="30.5" y="-935.1" font-family="Helvetica,sans-Serif" font-size="11.00" fill="#000000">ID</text>
<polygon fill="none" stroke="#000000" points="190.5,-928 190.5,-950 269.5,-950 269.5,-928 190.5,-928"/>
<text text-anchor="start" x="193.5" y="-935.7" font-family="Helvetica,sans-Serif" font-size="11.00" fill="#000000">int[10]</text>
<polygon fill="none" stroke="#000000" points="10.5,-906 10.5,-928 190.5,-928 190.5,-906 10.5,-906"/>
<text text-anchor="start" x="30.5" y="-913.1" font-family="Helvetica,sans-Serif" font-size="11.00" fill="#000000">CREATED_TIME</text>
<polygon fill="none" stroke="#000000" points="190.5,-906 190.5,-928 269.5,-928 269.5,-906 190.5,-906"/>
<text text-anchor="start" x="193.5" y="-913.7" font-family="Helvetica,sans-Serif" font-size="11.00" fill="#000000">datetime[26]</text>
<polygon fill="none" stroke="#000000" points="10.5,-884 10.5,-906 190.5,-906 190.5,-884 10.5,-884"/>
<text text-anchor="start" x="30.5" y="-891.1" font-family="Helvetica,sans-Serif" font-size="11.00" fill="#000000">CREATOR_FK</text>
<polygon fill="none" stroke="#000000" points="190.5,-884 190.5,-906 269.5,-906 269.5,-884 190.5,-884"/>
<text text-anchor="start" x="193.5" y="-891.7" font-family="Helvetica,sans-Serif" font-size="11.00" fill="#000000">int[10]</text>
<polygon fill="none" stroke="#000000" points="10.5,-862 10.5,-884 190.5,-884 190.5,-862 10.5,-862"/>
<text text-anchor="start" x="30.5" y="-869.1" font-family="Helvetica,sans-Serif" font-size="11.00" fill="#000000">CREATOR_NAME</text>
<polygon fill="none" stroke="#000000" points="190.5,-862 190.5,-884 269.5,-884 269.5,-862 190.5,-862"/>
<text text-anchor="start" x="193.5" y="-869.7" font-family="Helvetica,sans-Serif" font-size="11.00" fill="#000000">varchar[100]</text>
<polygon fill="none" stroke="#000000" points="10.5,-840 10.5,-862 190.5,-862 190.5,-840 10.5,-840"/>
<text text-anchor="start" x="30.5" y="-847.1" font-family="Helvetica,sans-Serif" font-size="11.00" fill="#000000">MODIFIER_FK</text>
<polygon fill="none" stroke="#000000" points="190.5,-840 190.5,-862 269.5,-862 269.5,-840 190.5,-840"/>
<text text-anchor="start" x="193.5" y="-847.7" font-family="Helvetica,sans-Serif" font-size="11.00" fill="#000000">int[10]</text>
<polygon fill="none" stroke="#000000" points="10.5,-818 10.5,-840 190.5,-840 190.5,-818 10.5,-818"/>
<text text-anchor="start" x="30.5" y="-825.1" font-family="Helvetica,sans-Serif" font-size="11.00" fill="#000000">MODIFIER_NAME</text>
<polygon fill="none" stroke="#000000" points="190.5,-818 190.5,-840 269.5,-840 269.5,-818 190.5,-818"/>
<text text-anchor="start" x="193.5" y="-825.7" font-family="Helvetica,sans-Serif" font-size="11.00" fill="#000000">varchar[100]</text>
<polygon fill="none" stroke="#000000" points="10.5,-796 10.5,-818 190.5,-818 190.5,-796 10.5,-796"/>
<text text-anchor="start" x="30.5" y="-803.1" font-family="Helvetica,sans-Serif" font-size="11.00" fill="#000000">MODIFIED_TIME</text>
<polygon fill="none" stroke="#000000" points="190.5,-796 190.5,-818 269.5,-818 269.5,-796 190.5,-796"/>
<text text-anchor="start" x="193.5" y="-803.7" font-family="Helvetica,sans-Serif" font-size="11.00" fill="#000000">datetime[26]</text>
<polygon fill="none" stroke="#000000" points="10.5,-774 10.5,-796 190.5,-796 190.5,-774 10.5,-774"/>
<text text-anchor="start" x="30.5" y="-781.1" font-family="Helvetica,sans-Serif" font-size="11.00" fill="#000000">USER_NAME</text>
<polygon fill="none" stroke="#000000" points="190.5,-774 190.5,-796 269.5,-796 269.5,-774 190.5,-774"/>
<text text-anchor="start" x="193.5" y="-781.7" font-family="Helvetica,sans-Serif" font-size="11.00" fill="#000000">varchar[100]</text>
<polygon fill="none" stroke="#000000" points="10.5,-752 10.5,-774 190.5,-774 190.5,-752 10.5,-752"/>
<text text-anchor="start" x="30.5" y="-759.1" font-family="Helvetica,sans-Serif" font-size="11.00" fill="#000000">ACTION_TYPE</text>
<polygon fill="none" stroke="#000000" points="190.5,-752 190.5,-774 269.5,-774 269.5,-752 190.5,-752"/>
<text text-anchor="start" x="193.5" y="-759.7" font-family="Helvetica,sans-Serif" font-size="11.00" fill="#000000">varchar[255]</text>
<polygon fill="none" stroke="#000000" points="10.5,-730 10.5,-752 190.5,-752 190.5,-730 10.5,-730"/>
<text text-anchor="start" x="30.5" y="-737.1" font-family="Helvetica,sans-Serif" font-size="11.00" fill="#000000">CONTEXT_JSON</text>
<polygon fill="none" stroke="#000000" points="190.5,-730 190.5,-752 269.5,-752 269.5,-730 190.5,-730"/>
<text text-anchor="start" x="193.3216" y="-737.7" font-family="Helvetica,sans-Serif" font-size="11.00" fill="#000000">varchar[10000]</text>
<polygon fill="none" stroke="#000000" points="10.5,-708 10.5,-730 190.5,-730 190.5,-708 10.5,-708"/>
<text text-anchor="start" x="30.5" y="-715.1" font-family="Helvetica,sans-Serif" font-size="11.00" fill="#000000">PROCESS</text>
<polygon fill="none" stroke="#000000" points="190.5,-708 190.5,-730 269.5,-730 269.5,-708 190.5,-708"/>
<text text-anchor="start" x="193.5" y="-715.7" font-family="Helvetica,sans-Serif" font-size="11.00" fill="#000000">bit[1]</text>
<polygon fill="none" stroke="#000000" points="10.5,-686 10.5,-708 190.5,-708 190.5,-686 10.5,-686"/>
<text text-anchor="start" x="30.5" y="-693.1" font-family="Helvetica,sans-Serif" font-size="11.00" fill="#000000">VIEW_ID</text>
<polygon fill="none" stroke="#000000" points="190.5,-686 190.5,-708 269.5,-708 269.5,-686 190.5,-686"/>
<text text-anchor="start" x="193.5" y="-693.7" font-family="Helvetica,sans-Serif" font-size="11.00" fill="#000000">varchar[50]</text>
<polygon fill="#ffffff" stroke="transparent" points="10.5,-667 10.5,-686 91.5,-686 91.5,-667 10.5,-667"/>
<polygon fill="none" stroke="#000000" points="10.5,-667 10.5,-686 91.5,-686 91.5,-667 10.5,-667"/>
<text text-anchor="start" x="13.5" y="-673.1" font-family="Helvetica,sans-Serif" font-size="11.00" fill="#000000">&lt; 0</text>
<polygon fill="#ffffff" stroke="transparent" points="91.5,-667 91.5,-686 190.5,-686 190.5,-667 91.5,-667"/>
<polygon fill="none" stroke="#000000" points="91.5,-667 91.5,-686 190.5,-686 190.5,-667 91.5,-667"/>
<text text-anchor="start" x="155.1105" y="-673.1" font-family="Helvetica,sans-Serif" font-size="11.00" fill="#000000">0 rows</text>
<polygon fill="#ffffff" stroke="transparent" points="190.5,-667 190.5,-686 269.5,-686 269.5,-667 190.5,-667"/>
<polygon fill="none" stroke="#000000" points="190.5,-667 190.5,-686 269.5,-686 269.5,-667 190.5,-667"/>
<text text-anchor="start" x="250.9053" y="-673.1" font-family="Helvetica,sans-Serif" font-size="11.00" fill="#000000">0 &gt;</text>
<polygon fill="none" stroke="#000000" stroke-width="2" points="9,-666 9,-974 270,-974 270,-666 9,-666"/>
</a>
</g>
</g>
</g>
</svg>
