<?xml version="1.0" encoding="UTF-8" standalone="no"?><svg xmlns="http://www.w3.org/2000/svg" xmlns:xlink="http://www.w3.org/1999/xlink" contentStyleType="text/css" height="449px" preserveAspectRatio="none" style="width:529px;height:449px;background:#FFFFFF;" version="1.1" viewBox="0 0 529 449" width="529px" zoomAndPan="magnify"><defs/><g><!--class com.enttribe.hrms.controller.impl.AttendanceGroupsControllerImpl--><a href="AttendanceGroupsControllerImpl.html" target="_top" title="AttendanceGroupsControllerImpl.html" xlink:actuate="onRequest" xlink:href="AttendanceGroupsControllerImpl.html" xlink:show="new" xlink:title="AttendanceGroupsControllerImpl.html" xlink:type="simple"><g id="elem_com.enttribe.hrms.controller.impl.AttendanceGroupsControllerImpl"><rect codeLine="5" fill="#F1F1F1" height="178.1719" id="com.enttribe.hrms.controller.impl.AttendanceGroupsControllerImpl" rx="2.5" ry="2.5" style="stroke:#181818;stroke-width:0.5;" width="515" x="7" y="245.17"/><ellipse cx="146.25" cy="264.3028" fill="#ADD1B2" rx="11" ry="11" style="stroke:#181818;stroke-width:1.0;"/><path d="M148.7231,270.4459 Q148.1421,270.7447 147.5029,270.8941 Q146.8638,271.0435 146.1582,271.0435 Q143.6514,271.0435 142.3315,269.3917 Q141.0117,267.7398 141.0117,264.6187 Q141.0117,261.4893 142.3315,259.8375 Q143.6514,258.1856 146.1582,258.1856 Q146.8638,258.1856 147.5112,258.335 Q148.1587,258.4845 148.7231,258.7833 L148.7231,261.5059 Q148.0923,260.9249 147.4988,260.6551 Q146.9053,260.3853 146.2744,260.3853 Q144.9297,260.3853 144.2449,261.452 Q143.5601,262.5186 143.5601,264.6187 Q143.5601,266.7105 144.2449,267.7772 Q144.9297,268.8438 146.2744,268.8438 Q146.9053,268.8438 147.4988,268.5741 Q148.0923,268.3043 148.7231,267.7232 Z " fill="#000000"/><text fill="#000000" font-family="sans-serif" font-size="14" lengthAdjust="spacing" textLength="228" x="166.75" y="263.7052">AttendanceGroupsControllerImpl</text><text fill="#000000" font-family="sans-serif" font-size="10" lengthAdjust="spacing" textLength="163" x="199.25" y="276.3262">com.enttribe.hrms.controller.impl</text><line style="stroke:#181818;stroke-width:0.5;" x1="8" x2="521" y1="283.4356" y2="283.4356"/><ellipse cx="18" cy="297.1798" fill="#84BE84" rx="3" ry="3" style="stroke:#038048;stroke-width:1.0;"/><text fill="#000000" font-family="sans-serif" font-size="14" lengthAdjust="spacing" textLength="316" x="27" y="300.9708">create(AttendanceGroups): AttendanceGroups</text><ellipse cx="18" cy="313.668" fill="#84BE84" rx="3" ry="3" style="stroke:#038048;stroke-width:1.0;"/><text fill="#000000" font-family="sans-serif" font-size="14" lengthAdjust="spacing" textLength="132" x="27" y="317.4591">count(String): Long</text><ellipse cx="18" cy="330.1563" fill="#84BE84" rx="3" ry="3" style="stroke:#038048;stroke-width:1.0;"/><text fill="#000000" font-family="sans-serif" font-size="14" lengthAdjust="spacing" textLength="489" x="27" y="333.9473">search(String, Integer, Integer, String, String): List&lt;AttendanceGroups&gt;</text><ellipse cx="18" cy="346.6446" fill="#84BE84" rx="3" ry="3" style="stroke:#038048;stroke-width:1.0;"/><text fill="#000000" font-family="sans-serif" font-size="14" lengthAdjust="spacing" textLength="322" x="27" y="350.4356">update(AttendanceGroups): AttendanceGroups</text><ellipse cx="18" cy="363.1329" fill="#84BE84" rx="3" ry="3" style="stroke:#038048;stroke-width:1.0;"/><text fill="#000000" font-family="sans-serif" font-size="14" lengthAdjust="spacing" textLength="331" x="27" y="366.9239">findById(Integer): Optional&lt;AttendanceGroups&gt;</text><ellipse cx="18" cy="379.6212" fill="#84BE84" rx="3" ry="3" style="stroke:#038048;stroke-width:1.0;"/><text fill="#000000" font-family="sans-serif" font-size="14" lengthAdjust="spacing" textLength="358" x="27" y="383.4122">findAllById(List&lt;Integer&gt;): List&lt;AttendanceGroups&gt;</text><ellipse cx="18" cy="396.1095" fill="#84BE84" rx="3" ry="3" style="stroke:#038048;stroke-width:1.0;"/><text fill="#000000" font-family="sans-serif" font-size="14" lengthAdjust="spacing" textLength="166" x="27" y="399.9005">deleteById(Integer): void</text><ellipse cx="18" cy="412.5977" fill="#84BE84" rx="3" ry="3" style="stroke:#038048;stroke-width:1.0;"/><text fill="#000000" font-family="sans-serif" font-size="14" lengthAdjust="spacing" textLength="214" x="27" y="416.3887">bulkDelete(List&lt;Integer&gt;): void</text></g></a><!--class com.enttribe.hrms.controller.AttendanceGroupsController--><g id="elem_com.enttribe.hrms.controller.AttendanceGroupsController"><rect codeLine="16" fill="#F1F1F1" height="178.1719" id="com.enttribe.hrms.controller.AttendanceGroupsController" rx="2.5" ry="2.5" style="stroke:#181818;stroke-width:0.5;" width="515" x="7" y="7"/><ellipse cx="161.25" cy="26.1328" fill="#B4A7E5" rx="11" ry="11" style="stroke:#181818;stroke-width:1.0;"/><path d="M157.6777,22.3979 L157.6777,20.2397 L165.0571,20.2397 L165.0571,22.3979 L162.5918,22.3979 L162.5918,30.4746 L165.0571,30.4746 L165.0571,32.6328 L157.6777,32.6328 L157.6777,30.4746 L160.1431,30.4746 L160.1431,22.3979 Z " fill="#000000"/><text fill="#000000" font-family="sans-serif" font-size="14" font-style="italic" lengthAdjust="spacing" textLength="198" x="181.75" y="25.5352">AttendanceGroupsController</text><text fill="#000000" font-family="sans-serif" font-size="10" font-style="italic" lengthAdjust="spacing" textLength="139" x="211.25" y="38.1563">com.enttribe.hrms.controller</text><line style="stroke:#181818;stroke-width:0.5;" x1="8" x2="521" y1="45.2656" y2="45.2656"/><ellipse cx="18" cy="59.0098" fill="#84BE84" rx="3" ry="3" style="stroke:#038048;stroke-width:1.0;"/><text fill="#000000" font-family="sans-serif" font-size="14" font-style="italic" lengthAdjust="spacing" textLength="316" x="27" y="62.8008">create(AttendanceGroups): AttendanceGroups</text><ellipse cx="18" cy="75.498" fill="#84BE84" rx="3" ry="3" style="stroke:#038048;stroke-width:1.0;"/><text fill="#000000" font-family="sans-serif" font-size="14" font-style="italic" lengthAdjust="spacing" textLength="132" x="27" y="79.2891">count(String): Long</text><ellipse cx="18" cy="91.9863" fill="#84BE84" rx="3" ry="3" style="stroke:#038048;stroke-width:1.0;"/><text fill="#000000" font-family="sans-serif" font-size="14" font-style="italic" lengthAdjust="spacing" textLength="489" x="27" y="95.7773">search(String, Integer, Integer, String, String): List&lt;AttendanceGroups&gt;</text><ellipse cx="18" cy="108.4746" fill="#84BE84" rx="3" ry="3" style="stroke:#038048;stroke-width:1.0;"/><text fill="#000000" font-family="sans-serif" font-size="14" font-style="italic" lengthAdjust="spacing" textLength="322" x="27" y="112.2656">update(AttendanceGroups): AttendanceGroups</text><ellipse cx="18" cy="124.9629" fill="#84BE84" rx="3" ry="3" style="stroke:#038048;stroke-width:1.0;"/><text fill="#000000" font-family="sans-serif" font-size="14" font-style="italic" lengthAdjust="spacing" textLength="166" x="27" y="128.7539">deleteById(Integer): void</text><ellipse cx="18" cy="141.4512" fill="#84BE84" rx="3" ry="3" style="stroke:#038048;stroke-width:1.0;"/><text fill="#000000" font-family="sans-serif" font-size="14" font-style="italic" lengthAdjust="spacing" textLength="214" x="27" y="145.2422">bulkDelete(List&lt;Integer&gt;): void</text><ellipse cx="18" cy="157.9395" fill="#84BE84" rx="3" ry="3" style="stroke:#038048;stroke-width:1.0;"/><text fill="#000000" font-family="sans-serif" font-size="14" font-style="italic" lengthAdjust="spacing" textLength="331" x="27" y="161.7305">findById(Integer): Optional&lt;AttendanceGroups&gt;</text><ellipse cx="18" cy="174.4277" fill="#84BE84" rx="3" ry="3" style="stroke:#038048;stroke-width:1.0;"/><text fill="#000000" font-family="sans-serif" font-size="14" font-style="italic" lengthAdjust="spacing" textLength="358" x="27" y="178.2188">findAllById(List&lt;Integer&gt;): List&lt;AttendanceGroups&gt;</text></g><!--reverse link com.enttribe.hrms.controller.AttendanceGroupsController to com.enttribe.hrms.controller.impl.AttendanceGroupsControllerImpl--><g id="link_com.enttribe.hrms.controller.AttendanceGroupsController_com.enttribe.hrms.controller.impl.AttendanceGroupsControllerImpl"><path codeLine="27" d="M264.5,206.6 C264.5,219.37 264.5,232.26 264.5,244.69 " fill="none" id="com.enttribe.hrms.controller.AttendanceGroupsController-backto-com.enttribe.hrms.controller.impl.AttendanceGroupsControllerImpl" style="stroke:#181818;stroke-width:1.0;stroke-dasharray:7.0,7.0;"/><polygon fill="none" points="257.5,206.87,264.5,186.87,271.5,206.87,257.5,206.87" style="stroke:#181818;stroke-width:1.0;"/></g><text fill="#888888" font-family="sans-serif" font-size="10" lengthAdjust="spacing" textLength="182" x="166.5" y="439.0098">UMLDoclet 2.1.0, PlantUML 1.2022.14</text><!--SRC=[hPH1IyD048Nl_egX8AHObbOybHAe5gHGKIYUgeVjPj8iRdR3xhHGQ_-xsnYR6B6jqLmIPjwRDqc-10308O7cARgC2vnYnYqdOq4RZMU-3OcC433DQ0snH1MvUZL5IemlvtMXk7FG6ZZvYltULJWaGXrnBV3MccNcRemcQvH2EqupzQGBOJSK9cMeYQoS8qjiwfZOIvdqsXPm1qTLx70Wp6Q71IoXL3q_moQ_czrn8Inomg3kQ_UXNgfup59JCFLxweKNJenUb4s7t8gaw7PWh0aNQ2iNdvtIBnqDwcbXEN6PHRzUCPOwkbwFew28zUBxZAJHN1sAsjc6IkNEVAt27fwmPeGA2MkXAoEZKZ9VgfTHBlisVI_SVg0cVSl67jgJS3iHjUEK_HnHWMR3vuui5xHjnCyN-m6Kghf_fwewl05WLVln5rzLdy90tTECvlg41c0NC3P5Pl36s9__QiKAkFiW83PcTtgycuoCy0yHBbcFTJlmeBWcNuNp5LhddqpGVWS0]--></g></svg>