<?xml version="1.0" encoding="UTF-8" standalone="no"?><svg xmlns="http://www.w3.org/2000/svg" xmlns:xlink="http://www.w3.org/1999/xlink" contentStyleType="text/css" height="449px" preserveAspectRatio="none" style="width:463px;height:449px;background:#FFFFFF;" version="1.1" viewBox="0 0 463 449" width="463px" zoomAndPan="magnify"><defs/><g><!--class com.enttribe.hrms.controller.impl.HrLettersControllerImpl--><a href="HrLettersControllerImpl.html" target="_top" title="HrLettersControllerImpl.html" xlink:actuate="onRequest" xlink:href="HrLettersControllerImpl.html" xlink:show="new" xlink:title="HrLettersControllerImpl.html" xlink:type="simple"><g id="elem_com.enttribe.hrms.controller.impl.HrLettersControllerImpl"><rect codeLine="5" fill="#F1F1F1" height="178.1719" id="com.enttribe.hrms.controller.impl.HrLettersControllerImpl" rx="2.5" ry="2.5" style="stroke:#181818;stroke-width:0.5;" width="449" x="7" y="245.17"/><ellipse cx="145.75" cy="264.3028" fill="#ADD1B2" rx="11" ry="11" style="stroke:#181818;stroke-width:1.0;"/><path d="M148.2231,270.4459 Q147.6421,270.7447 147.0029,270.8941 Q146.3638,271.0435 145.6582,271.0435 Q143.1514,271.0435 141.8315,269.3917 Q140.5117,267.7398 140.5117,264.6187 Q140.5117,261.4893 141.8315,259.8375 Q143.1514,258.1856 145.6582,258.1856 Q146.3638,258.1856 147.0112,258.335 Q147.6587,258.4845 148.2231,258.7833 L148.2231,261.5059 Q147.5923,260.9249 146.9988,260.6551 Q146.4053,260.3853 145.7744,260.3853 Q144.4297,260.3853 143.7449,261.452 Q143.0601,262.5186 143.0601,264.6187 Q143.0601,266.7105 143.7449,267.7772 Q144.4297,268.8438 145.7744,268.8438 Q146.4053,268.8438 146.9988,268.5741 Q147.5923,268.3043 148.2231,267.7232 Z " fill="#000000"/><text fill="#000000" font-family="sans-serif" font-size="14" lengthAdjust="spacing" textLength="162" x="166.75" y="263.7052">HrLettersControllerImpl</text><text fill="#000000" font-family="sans-serif" font-size="10" lengthAdjust="spacing" textLength="163" x="166.25" y="276.3262">com.enttribe.hrms.controller.impl</text><line style="stroke:#181818;stroke-width:0.5;" x1="8" x2="455" y1="283.4356" y2="283.4356"/><ellipse cx="18" cy="297.1798" fill="#84BE84" rx="3" ry="3" style="stroke:#038048;stroke-width:1.0;"/><text fill="#000000" font-family="sans-serif" font-size="14" lengthAdjust="spacing" textLength="184" x="27" y="300.9708">create(HrLetters): HrLetters</text><ellipse cx="18" cy="313.668" fill="#84BE84" rx="3" ry="3" style="stroke:#038048;stroke-width:1.0;"/><text fill="#000000" font-family="sans-serif" font-size="14" lengthAdjust="spacing" textLength="132" x="27" y="317.4591">count(String): Long</text><ellipse cx="18" cy="330.1563" fill="#84BE84" rx="3" ry="3" style="stroke:#038048;stroke-width:1.0;"/><text fill="#000000" font-family="sans-serif" font-size="14" lengthAdjust="spacing" textLength="423" x="27" y="333.9473">search(String, Integer, Integer, String, String): List&lt;HrLetters&gt;</text><ellipse cx="18" cy="346.6446" fill="#84BE84" rx="3" ry="3" style="stroke:#038048;stroke-width:1.0;"/><text fill="#000000" font-family="sans-serif" font-size="14" lengthAdjust="spacing" textLength="190" x="27" y="350.4356">update(HrLetters): HrLetters</text><ellipse cx="18" cy="363.1329" fill="#84BE84" rx="3" ry="3" style="stroke:#038048;stroke-width:1.0;"/><text fill="#000000" font-family="sans-serif" font-size="14" lengthAdjust="spacing" textLength="265" x="27" y="366.9239">findById(Integer): Optional&lt;HrLetters&gt;</text><ellipse cx="18" cy="379.6212" fill="#84BE84" rx="3" ry="3" style="stroke:#038048;stroke-width:1.0;"/><text fill="#000000" font-family="sans-serif" font-size="14" lengthAdjust="spacing" textLength="292" x="27" y="383.4122">findAllById(List&lt;Integer&gt;): List&lt;HrLetters&gt;</text><ellipse cx="18" cy="396.1095" fill="#84BE84" rx="3" ry="3" style="stroke:#038048;stroke-width:1.0;"/><text fill="#000000" font-family="sans-serif" font-size="14" lengthAdjust="spacing" textLength="166" x="27" y="399.9005">deleteById(Integer): void</text><ellipse cx="18" cy="412.5977" fill="#84BE84" rx="3" ry="3" style="stroke:#038048;stroke-width:1.0;"/><text fill="#000000" font-family="sans-serif" font-size="14" lengthAdjust="spacing" textLength="214" x="27" y="416.3887">bulkDelete(List&lt;Integer&gt;): void</text></g></a><!--class com.enttribe.hrms.controller.HrLettersController--><g id="elem_com.enttribe.hrms.controller.HrLettersController"><rect codeLine="16" fill="#F1F1F1" height="178.1719" id="com.enttribe.hrms.controller.HrLettersController" rx="2.5" ry="2.5" style="stroke:#181818;stroke-width:0.5;" width="449" x="7" y="7"/><ellipse cx="157.75" cy="26.1328" fill="#B4A7E5" rx="11" ry="11" style="stroke:#181818;stroke-width:1.0;"/><path d="M154.1777,22.3979 L154.1777,20.2397 L161.5571,20.2397 L161.5571,22.3979 L159.0918,22.3979 L159.0918,30.4746 L161.5571,30.4746 L161.5571,32.6328 L154.1777,32.6328 L154.1777,30.4746 L156.6431,30.4746 L156.6431,22.3979 Z " fill="#000000"/><text fill="#000000" font-family="sans-serif" font-size="14" font-style="italic" lengthAdjust="spacing" textLength="132" x="181.75" y="25.5352">HrLettersController</text><text fill="#000000" font-family="sans-serif" font-size="10" font-style="italic" lengthAdjust="spacing" textLength="139" x="178.25" y="38.1563">com.enttribe.hrms.controller</text><line style="stroke:#181818;stroke-width:0.5;" x1="8" x2="455" y1="45.2656" y2="45.2656"/><ellipse cx="18" cy="59.0098" fill="#84BE84" rx="3" ry="3" style="stroke:#038048;stroke-width:1.0;"/><text fill="#000000" font-family="sans-serif" font-size="14" font-style="italic" lengthAdjust="spacing" textLength="184" x="27" y="62.8008">create(HrLetters): HrLetters</text><ellipse cx="18" cy="75.498" fill="#84BE84" rx="3" ry="3" style="stroke:#038048;stroke-width:1.0;"/><text fill="#000000" font-family="sans-serif" font-size="14" font-style="italic" lengthAdjust="spacing" textLength="132" x="27" y="79.2891">count(String): Long</text><ellipse cx="18" cy="91.9863" fill="#84BE84" rx="3" ry="3" style="stroke:#038048;stroke-width:1.0;"/><text fill="#000000" font-family="sans-serif" font-size="14" font-style="italic" lengthAdjust="spacing" textLength="423" x="27" y="95.7773">search(String, Integer, Integer, String, String): List&lt;HrLetters&gt;</text><ellipse cx="18" cy="108.4746" fill="#84BE84" rx="3" ry="3" style="stroke:#038048;stroke-width:1.0;"/><text fill="#000000" font-family="sans-serif" font-size="14" font-style="italic" lengthAdjust="spacing" textLength="190" x="27" y="112.2656">update(HrLetters): HrLetters</text><ellipse cx="18" cy="124.9629" fill="#84BE84" rx="3" ry="3" style="stroke:#038048;stroke-width:1.0;"/><text fill="#000000" font-family="sans-serif" font-size="14" font-style="italic" lengthAdjust="spacing" textLength="166" x="27" y="128.7539">deleteById(Integer): void</text><ellipse cx="18" cy="141.4512" fill="#84BE84" rx="3" ry="3" style="stroke:#038048;stroke-width:1.0;"/><text fill="#000000" font-family="sans-serif" font-size="14" font-style="italic" lengthAdjust="spacing" textLength="214" x="27" y="145.2422">bulkDelete(List&lt;Integer&gt;): void</text><ellipse cx="18" cy="157.9395" fill="#84BE84" rx="3" ry="3" style="stroke:#038048;stroke-width:1.0;"/><text fill="#000000" font-family="sans-serif" font-size="14" font-style="italic" lengthAdjust="spacing" textLength="265" x="27" y="161.7305">findById(Integer): Optional&lt;HrLetters&gt;</text><ellipse cx="18" cy="174.4277" fill="#84BE84" rx="3" ry="3" style="stroke:#038048;stroke-width:1.0;"/><text fill="#000000" font-family="sans-serif" font-size="14" font-style="italic" lengthAdjust="spacing" textLength="292" x="27" y="178.2188">findAllById(List&lt;Integer&gt;): List&lt;HrLetters&gt;</text></g><!--reverse link com.enttribe.hrms.controller.HrLettersController to com.enttribe.hrms.controller.impl.HrLettersControllerImpl--><g id="link_com.enttribe.hrms.controller.HrLettersController_com.enttribe.hrms.controller.impl.HrLettersControllerImpl"><path codeLine="27" d="M231.5,206.6 C231.5,219.37 231.5,232.26 231.5,244.69 " fill="none" id="com.enttribe.hrms.controller.HrLettersController-backto-com.enttribe.hrms.controller.impl.HrLettersControllerImpl" style="stroke:#181818;stroke-width:1.0;stroke-dasharray:7.0,7.0;"/><polygon fill="none" points="224.5,206.87,231.5,186.87,238.5,206.87,224.5,206.87" style="stroke:#181818;stroke-width:1.0;"/></g><text fill="#888888" font-family="sans-serif" font-size="10" lengthAdjust="spacing" textLength="182" x="133.5" y="439.0098">UMLDoclet 2.1.0, PlantUML 1.2022.14</text><!--SRC=[hPHDIyD048Rl_egX8AHObbOybH9GUx1GKIYUQW_RPD8iRdR3xhHGQ_-xsnYJ6FkHYhbacNdVcTdCGm00B18edg1DUO0JJBdXf0qehV32fI4M8G8cAQqX4YX3MuycIB5suImUI6ujj0PMl6E_T-C_c34IeR7tMf7HKg8P9QbyLRcYwmSwOQY8Z9WZYqrYML18cN3Q5d0B9rNiG2UOJWzaM4o9dCrWams-Uwu2WvpGAmpjFXJdYael5NaJDujQECLOgqMPjCXD4EVP3emKuG9DvV2TAVt2qg1euvUbbcdOO9f8gF1kFGgzl8DJFQKajE9oRzMT_bRAp9Arpdt-iL52b4XOQxFI8YmbywLy6sQoNsKBuVOB4k5I9dAu7GUb8IId-TXJkxBr3PzRCZoWRKC0VXYEi53L_HyMrQgD2AaQJk-ngcwoqhhdJ1phrdF8p6awU_M33yR-_aF9c-AEOOYqthrU7iT37RWF1TUinxeTU9PSaOl2vSeLSBVtsfy0]--></g></svg>