<?xml version="1.0" encoding="UTF-8" standalone="no"?><svg xmlns="http://www.w3.org/2000/svg" xmlns:xlink="http://www.w3.org/1999/xlink" contentStyleType="text/css" height="449px" preserveAspectRatio="none" style="width:447px;height:449px;background:#FFFFFF;" version="1.1" viewBox="0 0 447 449" width="447px" zoomAndPan="magnify"><defs/><g><!--class com.enttribe.hrms.controller.impl.PayrollControllerImpl--><a href="PayrollControllerImpl.html" target="_top" title="PayrollControllerImpl.html" xlink:actuate="onRequest" xlink:href="PayrollControllerImpl.html" xlink:show="new" xlink:title="PayrollControllerImpl.html" xlink:type="simple"><g id="elem_com.enttribe.hrms.controller.impl.PayrollControllerImpl"><rect codeLine="5" fill="#F1F1F1" height="178.1719" id="com.enttribe.hrms.controller.impl.PayrollControllerImpl" rx="2.5" ry="2.5" style="stroke:#181818;stroke-width:0.5;" width="433" x="7" y="245.17"/><ellipse cx="137.75" cy="264.3028" fill="#ADD1B2" rx="11" ry="11" style="stroke:#181818;stroke-width:1.0;"/><path d="M140.2231,270.4459 Q139.6421,270.7447 139.0029,270.8941 Q138.3638,271.0435 137.6582,271.0435 Q135.1514,271.0435 133.8315,269.3917 Q132.5117,267.7398 132.5117,264.6187 Q132.5117,261.4893 133.8315,259.8375 Q135.1514,258.1856 137.6582,258.1856 Q138.3638,258.1856 139.0112,258.335 Q139.6587,258.4845 140.2231,258.7833 L140.2231,261.5059 Q139.5923,260.9249 138.9988,260.6551 Q138.4053,260.3853 137.7744,260.3853 Q136.4297,260.3853 135.7449,261.452 Q135.0601,262.5186 135.0601,264.6187 Q135.0601,266.7105 135.7449,267.7772 Q136.4297,268.8438 137.7744,268.8438 Q138.4053,268.8438 138.9988,268.5741 Q139.5923,268.3043 140.2231,267.7232 Z " fill="#000000"/><text fill="#000000" font-family="sans-serif" font-size="14" lengthAdjust="spacing" textLength="146" x="166.75" y="263.7052">PayrollControllerImpl</text><text fill="#000000" font-family="sans-serif" font-size="10" lengthAdjust="spacing" textLength="163" x="158.25" y="276.3262">com.enttribe.hrms.controller.impl</text><line style="stroke:#181818;stroke-width:0.5;" x1="8" x2="439" y1="283.4356" y2="283.4356"/><ellipse cx="18" cy="297.1798" fill="#84BE84" rx="3" ry="3" style="stroke:#038048;stroke-width:1.0;"/><text fill="#000000" font-family="sans-serif" font-size="14" lengthAdjust="spacing" textLength="152" x="27" y="300.9708">create(Payroll): Payroll</text><ellipse cx="18" cy="313.668" fill="#84BE84" rx="3" ry="3" style="stroke:#038048;stroke-width:1.0;"/><text fill="#000000" font-family="sans-serif" font-size="14" lengthAdjust="spacing" textLength="132" x="27" y="317.4591">count(String): Long</text><ellipse cx="18" cy="330.1563" fill="#84BE84" rx="3" ry="3" style="stroke:#038048;stroke-width:1.0;"/><text fill="#000000" font-family="sans-serif" font-size="14" lengthAdjust="spacing" textLength="407" x="27" y="333.9473">search(String, Integer, Integer, String, String): List&lt;Payroll&gt;</text><ellipse cx="18" cy="346.6446" fill="#84BE84" rx="3" ry="3" style="stroke:#038048;stroke-width:1.0;"/><text fill="#000000" font-family="sans-serif" font-size="14" lengthAdjust="spacing" textLength="158" x="27" y="350.4356">update(Payroll): Payroll</text><ellipse cx="18" cy="363.1329" fill="#84BE84" rx="3" ry="3" style="stroke:#038048;stroke-width:1.0;"/><text fill="#000000" font-family="sans-serif" font-size="14" lengthAdjust="spacing" textLength="249" x="27" y="366.9239">findById(Integer): Optional&lt;Payroll&gt;</text><ellipse cx="18" cy="379.6212" fill="#84BE84" rx="3" ry="3" style="stroke:#038048;stroke-width:1.0;"/><text fill="#000000" font-family="sans-serif" font-size="14" lengthAdjust="spacing" textLength="276" x="27" y="383.4122">findAllById(List&lt;Integer&gt;): List&lt;Payroll&gt;</text><ellipse cx="18" cy="396.1095" fill="#84BE84" rx="3" ry="3" style="stroke:#038048;stroke-width:1.0;"/><text fill="#000000" font-family="sans-serif" font-size="14" lengthAdjust="spacing" textLength="166" x="27" y="399.9005">deleteById(Integer): void</text><ellipse cx="18" cy="412.5977" fill="#84BE84" rx="3" ry="3" style="stroke:#038048;stroke-width:1.0;"/><text fill="#000000" font-family="sans-serif" font-size="14" lengthAdjust="spacing" textLength="214" x="27" y="416.3887">bulkDelete(List&lt;Integer&gt;): void</text></g></a><!--class com.enttribe.hrms.controller.PayrollController--><g id="elem_com.enttribe.hrms.controller.PayrollController"><rect codeLine="16" fill="#F1F1F1" height="178.1719" id="com.enttribe.hrms.controller.PayrollController" rx="2.5" ry="2.5" style="stroke:#181818;stroke-width:0.5;" width="433" x="7" y="7"/><ellipse cx="149.75" cy="26.1328" fill="#B4A7E5" rx="11" ry="11" style="stroke:#181818;stroke-width:1.0;"/><path d="M146.1777,22.3979 L146.1777,20.2397 L153.5571,20.2397 L153.5571,22.3979 L151.0918,22.3979 L151.0918,30.4746 L153.5571,30.4746 L153.5571,32.6328 L146.1777,32.6328 L146.1777,30.4746 L148.6431,30.4746 L148.6431,22.3979 Z " fill="#000000"/><text fill="#000000" font-family="sans-serif" font-size="14" font-style="italic" lengthAdjust="spacing" textLength="116" x="181.75" y="25.5352">PayrollController</text><text fill="#000000" font-family="sans-serif" font-size="10" font-style="italic" lengthAdjust="spacing" textLength="139" x="170.25" y="38.1563">com.enttribe.hrms.controller</text><line style="stroke:#181818;stroke-width:0.5;" x1="8" x2="439" y1="45.2656" y2="45.2656"/><ellipse cx="18" cy="59.0098" fill="#84BE84" rx="3" ry="3" style="stroke:#038048;stroke-width:1.0;"/><text fill="#000000" font-family="sans-serif" font-size="14" font-style="italic" lengthAdjust="spacing" textLength="152" x="27" y="62.8008">create(Payroll): Payroll</text><ellipse cx="18" cy="75.498" fill="#84BE84" rx="3" ry="3" style="stroke:#038048;stroke-width:1.0;"/><text fill="#000000" font-family="sans-serif" font-size="14" font-style="italic" lengthAdjust="spacing" textLength="132" x="27" y="79.2891">count(String): Long</text><ellipse cx="18" cy="91.9863" fill="#84BE84" rx="3" ry="3" style="stroke:#038048;stroke-width:1.0;"/><text fill="#000000" font-family="sans-serif" font-size="14" font-style="italic" lengthAdjust="spacing" textLength="407" x="27" y="95.7773">search(String, Integer, Integer, String, String): List&lt;Payroll&gt;</text><ellipse cx="18" cy="108.4746" fill="#84BE84" rx="3" ry="3" style="stroke:#038048;stroke-width:1.0;"/><text fill="#000000" font-family="sans-serif" font-size="14" font-style="italic" lengthAdjust="spacing" textLength="158" x="27" y="112.2656">update(Payroll): Payroll</text><ellipse cx="18" cy="124.9629" fill="#84BE84" rx="3" ry="3" style="stroke:#038048;stroke-width:1.0;"/><text fill="#000000" font-family="sans-serif" font-size="14" font-style="italic" lengthAdjust="spacing" textLength="166" x="27" y="128.7539">deleteById(Integer): void</text><ellipse cx="18" cy="141.4512" fill="#84BE84" rx="3" ry="3" style="stroke:#038048;stroke-width:1.0;"/><text fill="#000000" font-family="sans-serif" font-size="14" font-style="italic" lengthAdjust="spacing" textLength="214" x="27" y="145.2422">bulkDelete(List&lt;Integer&gt;): void</text><ellipse cx="18" cy="157.9395" fill="#84BE84" rx="3" ry="3" style="stroke:#038048;stroke-width:1.0;"/><text fill="#000000" font-family="sans-serif" font-size="14" font-style="italic" lengthAdjust="spacing" textLength="249" x="27" y="161.7305">findById(Integer): Optional&lt;Payroll&gt;</text><ellipse cx="18" cy="174.4277" fill="#84BE84" rx="3" ry="3" style="stroke:#038048;stroke-width:1.0;"/><text fill="#000000" font-family="sans-serif" font-size="14" font-style="italic" lengthAdjust="spacing" textLength="276" x="27" y="178.2188">findAllById(List&lt;Integer&gt;): List&lt;Payroll&gt;</text></g><!--reverse link com.enttribe.hrms.controller.PayrollController to com.enttribe.hrms.controller.impl.PayrollControllerImpl--><g id="link_com.enttribe.hrms.controller.PayrollController_com.enttribe.hrms.controller.impl.PayrollControllerImpl"><path codeLine="27" d="M223.5,206.6 C223.5,219.37 223.5,232.26 223.5,244.69 " fill="none" id="com.enttribe.hrms.controller.PayrollController-backto-com.enttribe.hrms.controller.impl.PayrollControllerImpl" style="stroke:#181818;stroke-width:1.0;stroke-dasharray:7.0,7.0;"/><polygon fill="none" points="216.5,206.87,223.5,186.87,230.5,206.87,216.5,206.87" style="stroke:#181818;stroke-width:1.0;"/></g><text fill="#888888" font-family="sans-serif" font-size="10" lengthAdjust="spacing" textLength="182" x="125.5" y="439.0098">UMLDoclet 2.1.0, PlantUML 1.2022.14</text><!--SRC=[hPHDQy9048Rl_HM3K8XK5YqzYGJQUX4i5QGdws5DHhDqinjsHy5Q_titwLPJjIQMvhBBlCzy9FCI002B18gdQ3CUuHWpRZXf0qehl78o9296m3IZDSm5ojWUHbEaHBjm4OyajnOQFIlUiTkv2qTyRRIKZrfHVg8Pf9byLLvlXv5E6IeY8sR84fDQ5krG9XpR06wXac8d-y1aSZBE4ahbT0gROkJykOaCSiB0uyqk-5k9q4j5mTZDe1PE7sgrs8iMkOaIhxPWe0WNQ4gNRsMVBoprV9DmNsYPnHLpp8MA7zQ3EF2r7VESaT2AonFrSlfUoYAXQEcpmjz7Y54YuK6BbHRn7fajvLk_m8wAxi3jbo64aypSMUkSAMeQejeBHvLBEzxmcIN38zhMMFSF-Cpcozn_cQ1Siz8FPRXwSsMwpX8FSouots5YVHzwxrouwju7Ot_zLVY6cBiLvbhdnylJiAyZzu7WbdLOkmKZoHMvA5olq5Ztra7p4m00]--></g></svg>