<?xml version="1.0" encoding="UTF-8" standalone="no"?><svg xmlns="http://www.w3.org/2000/svg" xmlns:xlink="http://www.w3.org/1999/xlink" contentStyleType="text/css" height="350px" preserveAspectRatio="none" style="width:611px;height:350px;background:#FFFFFF;" version="1.1" viewBox="0 0 611 350" width="611px" zoomAndPan="magnify"><defs/><g><!--class com.enttribe.hrms.service.impl.ApplicableServiceImpl--><a href="ApplicableServiceImpl.html" target="_top" title="ApplicableServiceImpl.html" xlink:actuate="onRequest" xlink:href="ApplicableServiceImpl.html" xlink:show="new" xlink:title="ApplicableServiceImpl.html" xlink:type="simple"><g id="elem_com.enttribe.hrms.service.impl.ApplicableServiceImpl"><rect codeLine="5" fill="#F1F1F1" height="145.1953" id="com.enttribe.hrms.service.impl.ApplicableServiceImpl" rx="2.5" ry="2.5" style="stroke:#181818;stroke-width:0.5;" width="501" x="45.5" y="179.21"/><ellipse cx="216.75" cy="198.3428" fill="#ADD1B2" rx="11" ry="11" style="stroke:#181818;stroke-width:1.0;"/><path d="M219.2231,204.4859 Q218.6421,204.7847 218.0029,204.9341 Q217.3638,205.0835 216.6582,205.0835 Q214.1514,205.0835 212.8315,203.4317 Q211.5117,201.7798 211.5117,198.6587 Q211.5117,195.5293 212.8315,193.8775 Q214.1514,192.2256 216.6582,192.2256 Q217.3638,192.2256 218.0112,192.375 Q218.6587,192.5245 219.2231,192.8233 L219.2231,195.5459 Q218.5923,194.9649 217.9988,194.6951 Q217.4053,194.4253 216.7744,194.4253 Q215.4297,194.4253 214.7449,195.492 Q214.0601,196.5586 214.0601,198.6587 Q214.0601,200.7505 214.7449,201.8172 Q215.4297,202.8838 216.7744,202.8838 Q217.4053,202.8838 217.9988,202.6141 Q218.5923,202.3443 219.2231,201.7632 Z " fill="#000000"/><text fill="#000000" font-family="sans-serif" font-size="14" lengthAdjust="spacing" textLength="150" x="237.25" y="197.7452">ApplicableServiceImpl</text><text fill="#000000" font-family="sans-serif" font-size="10" lengthAdjust="spacing" textLength="150" x="237.25" y="210.3663">com.enttribe.hrms.service.impl</text><line style="stroke:#181818;stroke-width:0.5;" x1="46.5" x2="545.5" y1="217.4756" y2="217.4756"/><ellipse cx="56.5" cy="231.2198" fill="#84BE84" rx="3" ry="3" style="stroke:#038048;stroke-width:1.0;"/><text fill="#000000" font-family="sans-serif" font-size="14" lengthAdjust="spacing" textLength="379" x="65.5" y="235.0108">ApplicableServiceImpl(GenericRepository&lt;Applicable&gt;)</text><ellipse cx="56.5" cy="247.708" fill="#84BE84" rx="3" ry="3" style="stroke:#038048;stroke-width:1.0;"/><text fill="#000000" font-family="sans-serif" font-size="14" lengthAdjust="spacing" textLength="220" x="65.5" y="251.4991">export(List&lt;Applicable&gt;): byte[]</text><ellipse cx="56.5" cy="264.1963" fill="#84BE84" rx="3" ry="3" style="stroke:#038048;stroke-width:1.0;"/><text fill="#000000" font-family="sans-serif" font-size="14" lengthAdjust="spacing" textLength="222" x="65.5" y="267.9873">importData(MultipartFile): String</text><ellipse cx="56.5" cy="280.6846" fill="#84BE84" rx="3" ry="3" style="stroke:#038048;stroke-width:1.0;"/><text fill="#000000" font-family="sans-serif" font-size="14" lengthAdjust="spacing" textLength="475" x="65.5" y="284.4756">saveData(Excel, Map&lt;String, String&gt;, List&lt;String&gt;): List&lt;Applicable&gt;</text><ellipse cx="56.5" cy="297.1729" fill="#84BE84" rx="3" ry="3" style="stroke:#038048;stroke-width:1.0;"/><text fill="#000000" font-family="sans-serif" font-size="14" lengthAdjust="spacing" textLength="214" x="65.5" y="300.9639">bulkDelete(List&lt;Integer&gt;): void</text><ellipse cx="56.5" cy="313.6612" fill="#84BE84" rx="3" ry="3" style="stroke:#038048;stroke-width:1.0;"/><text fill="#000000" font-family="sans-serif" font-size="14" lengthAdjust="spacing" textLength="204" x="65.5" y="317.4522">create(Applicable): Applicable</text></g></a><!--class com.enttribe.hrms.service.generic.AbstractService--><a href="../generic/AbstractService.html" target="_top" title="../generic/AbstractService.html" xlink:actuate="onRequest" xlink:href="../generic/AbstractService.html" xlink:show="new" xlink:title="../generic/AbstractService.html" xlink:type="simple"><g id="elem_com.enttribe.hrms.service.generic.AbstractService"><rect codeLine="14" fill="#F1F1F1" height="38.2656" id="com.enttribe.hrms.service.generic.AbstractService" rx="2.5" ry="2.5" style="stroke:#181818;stroke-width:0.5;" width="262" x="7" y="43.97"/><ellipse cx="22" cy="63.1028" fill="#A9DCDF" rx="11" ry="11" style="stroke:#181818;stroke-width:1.0;"/><path d="M21.8633,58.451 L20.7095,63.5227 L23.0254,63.5227 Z M20.3691,56.2097 L23.3657,56.2097 L26.7109,68.6028 L24.2622,68.6028 L23.4985,65.5398 L20.2197,65.5398 L19.4727,68.6028 L17.0239,68.6028 Z " fill="#000000"/><text fill="#000000" font-family="sans-serif" font-size="14" font-style="italic" lengthAdjust="spacing" textLength="105" x="66" y="62.5052">AbstractService</text><text fill="#000000" font-family="sans-serif" font-size="10" font-style="italic" lengthAdjust="spacing" textLength="165" x="36" y="75.1263">com.enttribe.hrms.service.generic</text><rect fill="#FFFFFF" height="16.1328" style="stroke:#181818;stroke-width:1.0;stroke-dasharray:2.0,2.0;" width="63" x="209" y="40.97"/><text fill="#000000" font-family="sans-serif" font-size="12" font-style="italic" lengthAdjust="spacing" textLength="61" x="210" y="53.5716">Applicable</text></g></a><!--class com.enttribe.hrms.service.ApplicableService--><a href="../ApplicableService.html" target="_top" title="../ApplicableService.html" xlink:actuate="onRequest" xlink:href="../ApplicableService.html" xlink:show="new" xlink:title="../ApplicableService.html" xlink:type="simple"><g id="elem_com.enttribe.hrms.service.ApplicableService"><rect codeLine="15" fill="#F1F1F1" height="112.2188" id="com.enttribe.hrms.service.ApplicableService" rx="2.5" ry="2.5" style="stroke:#181818;stroke-width:0.5;" width="300" x="304" y="7"/><ellipse cx="386.75" cy="26.1328" fill="#B4A7E5" rx="11" ry="11" style="stroke:#181818;stroke-width:1.0;"/><path d="M383.1777,22.3979 L383.1777,20.2397 L390.5571,20.2397 L390.5571,22.3979 L388.0918,22.3979 L388.0918,30.4746 L390.5571,30.4746 L390.5571,32.6328 L383.1777,32.6328 L383.1777,30.4746 L385.6431,30.4746 L385.6431,22.3979 Z " fill="#000000"/><text fill="#000000" font-family="sans-serif" font-size="14" font-style="italic" lengthAdjust="spacing" textLength="120" x="410.25" y="25.5352">ApplicableService</text><text fill="#000000" font-family="sans-serif" font-size="10" font-style="italic" lengthAdjust="spacing" textLength="126" x="407.25" y="38.1563">com.enttribe.hrms.service</text><line style="stroke:#181818;stroke-width:0.5;" x1="305" x2="603" y1="45.2656" y2="45.2656"/><ellipse cx="315" cy="59.0098" fill="#84BE84" rx="3" ry="3" style="stroke:#038048;stroke-width:1.0;"/><text fill="#000000" font-family="sans-serif" font-size="14" font-style="italic" lengthAdjust="spacing" textLength="274" x="324" y="62.8008">auditHistory(int, Integer, Integer): String</text><ellipse cx="315" cy="75.498" fill="#84BE84" rx="3" ry="3" style="stroke:#038048;stroke-width:1.0;"/><text fill="#000000" font-family="sans-serif" font-size="14" font-style="italic" lengthAdjust="spacing" textLength="222" x="324" y="79.2891">importData(MultipartFile): String</text><ellipse cx="315" cy="91.9863" fill="#84BE84" rx="3" ry="3" style="stroke:#038048;stroke-width:1.0;"/><text fill="#000000" font-family="sans-serif" font-size="14" font-style="italic" lengthAdjust="spacing" textLength="220" x="324" y="95.7773">export(List&lt;Applicable&gt;): byte[]</text><ellipse cx="315" cy="108.4746" fill="#84BE84" rx="3" ry="3" style="stroke:#038048;stroke-width:1.0;"/><text fill="#000000" font-family="sans-serif" font-size="14" font-style="italic" lengthAdjust="spacing" textLength="214" x="324" y="112.2656">bulkDelete(List&lt;Integer&gt;): void</text></g></a><!--reverse link com.enttribe.hrms.service.generic.AbstractService to com.enttribe.hrms.service.impl.ApplicableServiceImpl--><g id="link_com.enttribe.hrms.service.generic.AbstractService_com.enttribe.hrms.service.impl.ApplicableServiceImpl"><path codeLine="22" d="M167.44,98.89 C186.46,121.37 211.92,151.45 235.16,178.91 " fill="none" id="com.enttribe.hrms.service.generic.AbstractService-backto-com.enttribe.hrms.service.impl.ApplicableServiceImpl" style="stroke:#181818;stroke-width:1.0;"/><polygon fill="none" points="162.28,103.63,154.71,83.85,172.97,94.59,162.28,103.63" style="stroke:#181818;stroke-width:1.0;"/></g><!--reverse link com.enttribe.hrms.service.ApplicableService to com.enttribe.hrms.service.impl.ApplicableServiceImpl--><g id="link_com.enttribe.hrms.service.ApplicableService_com.enttribe.hrms.service.impl.ApplicableServiceImpl"><path codeLine="23" d="M393.33,135.8 C381.38,149.92 368.83,164.75 356.87,178.89 " fill="none" id="com.enttribe.hrms.service.ApplicableService-backto-com.enttribe.hrms.service.impl.ApplicableServiceImpl" style="stroke:#181818;stroke-width:1.0;stroke-dasharray:7.0,7.0;"/><polygon fill="none" points="387.78,131.52,406.04,120.77,398.47,140.56,387.78,131.52" style="stroke:#181818;stroke-width:1.0;"/></g><text fill="#888888" font-family="sans-serif" font-size="10" lengthAdjust="spacing" textLength="182" x="207.5" y="340.0733">UMLDoclet 2.1.0, PlantUML 1.2022.14</text><!--SRC=[dPHDQzj048Rl_HL3eA0GPPEKde8m1DnyG0obeIVNXzLwR2zPxIwxOnCtoN_lMDfMhcLY9Rf8cdtcG_E-200W8e6L5KOl5JwWbq6I2s2TnKzy30izHS3Aqnfc6iqqxaOhf8NZS1rNHiO8HqNKl_7ouklWodkZbImDbmuhhV2kykQNJUVd0-KgWPOew1B58bHHn8OJci4Za17UHiJU3Z0UxusB1LLcCe7dUjZDTRANosxGOj3g1teNDUzZNRJSuBZDnYVl0cNtEj9_n2MKQyBnf2LvM2Q7acGsMXhIl6YwrWOPVU1li_CMZNA5DVZjIQ79OIHzqJ1vOWSvr2tJ6zVOdQ2jLYxDun0D4ZPZtbd2EOPDqihfQGkgW9AXjWWJxKlDlJOgop9Ia8gwSgU3jCfUGi-RLH_GEb5YfyFs9xFeGfmby6m7JChNuslUG9YntTyoQf_P3ypSgTbCs0btNVdyTyElS2ANKqsth1oxCEFHSqWA_dleMcWxlx_njhDw6tixgO_LaeNUhJGKBwUd7_eP7EZNLQbu4U9ZdPfMkF4Np9pRt7wExeTEyKxWYxWGvpbyDz8IH-7p2aFKpcR7Vm00]--></g></svg>