<?xml version="1.0" encoding="UTF-8" standalone="no"?><svg xmlns="http://www.w3.org/2000/svg" xmlns:xlink="http://www.w3.org/1999/xlink" contentStyleType="text/css" height="350px" preserveAspectRatio="none" style="width:659px;height:350px;background:#FFFFFF;" version="1.1" viewBox="0 0 659 350" width="659px" zoomAndPan="magnify"><defs/><g><!--class com.enttribe.hrms.service.impl.AttendanceGroupsServiceImpl--><a href="AttendanceGroupsServiceImpl.html" target="_top" title="AttendanceGroupsServiceImpl.html" xlink:actuate="onRequest" xlink:href="AttendanceGroupsServiceImpl.html" xlink:show="new" xlink:title="AttendanceGroupsServiceImpl.html" xlink:type="simple"><g id="elem_com.enttribe.hrms.service.impl.AttendanceGroupsServiceImpl"><rect codeLine="5" fill="#F1F1F1" height="145.1953" id="com.enttribe.hrms.service.impl.AttendanceGroupsServiceImpl" rx="2.5" ry="2.5" style="stroke:#181818;stroke-width:0.5;" width="557" x="52.5" y="179.21"/><ellipse cx="223.75" cy="198.3428" fill="#ADD1B2" rx="11" ry="11" style="stroke:#181818;stroke-width:1.0;"/><path d="M226.2231,204.4859 Q225.6421,204.7847 225.0029,204.9341 Q224.3638,205.0835 223.6582,205.0835 Q221.1514,205.0835 219.8315,203.4317 Q218.5117,201.7798 218.5117,198.6587 Q218.5117,195.5293 219.8315,193.8775 Q221.1514,192.2256 223.6582,192.2256 Q224.3638,192.2256 225.0112,192.375 Q225.6587,192.5245 226.2231,192.8233 L226.2231,195.5459 Q225.5923,194.9649 224.9988,194.6951 Q224.4053,194.4253 223.7744,194.4253 Q222.4297,194.4253 221.7449,195.492 Q221.0601,196.5586 221.0601,198.6587 Q221.0601,200.7505 221.7449,201.8172 Q222.4297,202.8838 223.7744,202.8838 Q224.4053,202.8838 224.9988,202.6141 Q225.5923,202.3443 226.2231,201.7632 Z " fill="#000000"/><text fill="#000000" font-family="sans-serif" font-size="14" lengthAdjust="spacing" textLength="206" x="244.25" y="197.7452">AttendanceGroupsServiceImpl</text><text fill="#000000" font-family="sans-serif" font-size="10" lengthAdjust="spacing" textLength="150" x="272.25" y="210.3663">com.enttribe.hrms.service.impl</text><line style="stroke:#181818;stroke-width:0.5;" x1="53.5" x2="608.5" y1="217.4756" y2="217.4756"/><ellipse cx="63.5" cy="231.2198" fill="#84BE84" rx="3" ry="3" style="stroke:#038048;stroke-width:1.0;"/><text fill="#000000" font-family="sans-serif" font-size="14" lengthAdjust="spacing" textLength="491" x="72.5" y="235.0108">AttendanceGroupsServiceImpl(GenericRepository&lt;AttendanceGroups&gt;)</text><ellipse cx="63.5" cy="247.708" fill="#84BE84" rx="3" ry="3" style="stroke:#038048;stroke-width:1.0;"/><text fill="#000000" font-family="sans-serif" font-size="14" lengthAdjust="spacing" textLength="276" x="72.5" y="251.4991">export(List&lt;AttendanceGroups&gt;): byte[]</text><ellipse cx="63.5" cy="264.1963" fill="#84BE84" rx="3" ry="3" style="stroke:#038048;stroke-width:1.0;"/><text fill="#000000" font-family="sans-serif" font-size="14" lengthAdjust="spacing" textLength="222" x="72.5" y="267.9873">importData(MultipartFile): String</text><ellipse cx="63.5" cy="280.6846" fill="#84BE84" rx="3" ry="3" style="stroke:#038048;stroke-width:1.0;"/><text fill="#000000" font-family="sans-serif" font-size="14" lengthAdjust="spacing" textLength="531" x="72.5" y="284.4756">saveData(Excel, Map&lt;String, String&gt;, List&lt;String&gt;): List&lt;AttendanceGroups&gt;</text><ellipse cx="63.5" cy="297.1729" fill="#84BE84" rx="3" ry="3" style="stroke:#038048;stroke-width:1.0;"/><text fill="#000000" font-family="sans-serif" font-size="14" lengthAdjust="spacing" textLength="214" x="72.5" y="300.9639">bulkDelete(List&lt;Integer&gt;): void</text><ellipse cx="63.5" cy="313.6612" fill="#84BE84" rx="3" ry="3" style="stroke:#038048;stroke-width:1.0;"/><text fill="#000000" font-family="sans-serif" font-size="14" lengthAdjust="spacing" textLength="316" x="72.5" y="317.4522">create(AttendanceGroups): AttendanceGroups</text></g></a><!--class com.enttribe.hrms.service.generic.AbstractService--><a href="../generic/AbstractService.html" target="_top" title="../generic/AbstractService.html" xlink:actuate="onRequest" xlink:href="../generic/AbstractService.html" xlink:show="new" xlink:title="../generic/AbstractService.html" xlink:type="simple"><g id="elem_com.enttribe.hrms.service.generic.AbstractService"><rect codeLine="14" fill="#F1F1F1" height="38.2656" id="com.enttribe.hrms.service.generic.AbstractService" rx="2.5" ry="2.5" style="stroke:#181818;stroke-width:0.5;" width="308" x="7" y="43.97"/><ellipse cx="22" cy="63.1028" fill="#A9DCDF" rx="11" ry="11" style="stroke:#181818;stroke-width:1.0;"/><path d="M21.8633,58.451 L20.7095,63.5227 L23.0254,63.5227 Z M20.3691,56.2097 L23.3657,56.2097 L26.7109,68.6028 L24.2622,68.6028 L23.4985,65.5398 L20.2197,65.5398 L19.4727,68.6028 L17.0239,68.6028 Z " fill="#000000"/><text fill="#000000" font-family="sans-serif" font-size="14" font-style="italic" lengthAdjust="spacing" textLength="105" x="66" y="62.5052">AbstractService</text><text fill="#000000" font-family="sans-serif" font-size="10" font-style="italic" lengthAdjust="spacing" textLength="165" x="36" y="75.1263">com.enttribe.hrms.service.generic</text><rect fill="#FFFFFF" height="16.1328" style="stroke:#181818;stroke-width:1.0;stroke-dasharray:2.0,2.0;" width="109" x="209" y="40.97"/><text fill="#000000" font-family="sans-serif" font-size="12" font-style="italic" lengthAdjust="spacing" textLength="107" x="210" y="53.5716">AttendanceGroups</text></g></a><!--class com.enttribe.hrms.service.AttendanceGroupsService--><a href="../AttendanceGroupsService.html" target="_top" title="../AttendanceGroupsService.html" xlink:actuate="onRequest" xlink:href="../AttendanceGroupsService.html" xlink:show="new" xlink:title="../AttendanceGroupsService.html" xlink:type="simple"><g id="elem_com.enttribe.hrms.service.AttendanceGroupsService"><rect codeLine="15" fill="#F1F1F1" height="112.2188" id="com.enttribe.hrms.service.AttendanceGroupsService" rx="2.5" ry="2.5" style="stroke:#181818;stroke-width:0.5;" width="302" x="350" y="7"/><ellipse cx="408.75" cy="26.1328" fill="#B4A7E5" rx="11" ry="11" style="stroke:#181818;stroke-width:1.0;"/><path d="M405.1777,22.3979 L405.1777,20.2397 L412.5571,20.2397 L412.5571,22.3979 L410.0918,22.3979 L410.0918,30.4746 L412.5571,30.4746 L412.5571,32.6328 L405.1777,32.6328 L405.1777,30.4746 L407.6431,30.4746 L407.6431,22.3979 Z " fill="#000000"/><text fill="#000000" font-family="sans-serif" font-size="14" font-style="italic" lengthAdjust="spacing" textLength="176" x="429.25" y="25.5352">AttendanceGroupsService</text><text fill="#000000" font-family="sans-serif" font-size="10" font-style="italic" lengthAdjust="spacing" textLength="126" x="454.25" y="38.1563">com.enttribe.hrms.service</text><line style="stroke:#181818;stroke-width:0.5;" x1="351" x2="651" y1="45.2656" y2="45.2656"/><ellipse cx="361" cy="59.0098" fill="#84BE84" rx="3" ry="3" style="stroke:#038048;stroke-width:1.0;"/><text fill="#000000" font-family="sans-serif" font-size="14" font-style="italic" lengthAdjust="spacing" textLength="274" x="370" y="62.8008">auditHistory(int, Integer, Integer): String</text><ellipse cx="361" cy="75.498" fill="#84BE84" rx="3" ry="3" style="stroke:#038048;stroke-width:1.0;"/><text fill="#000000" font-family="sans-serif" font-size="14" font-style="italic" lengthAdjust="spacing" textLength="222" x="370" y="79.2891">importData(MultipartFile): String</text><ellipse cx="361" cy="91.9863" fill="#84BE84" rx="3" ry="3" style="stroke:#038048;stroke-width:1.0;"/><text fill="#000000" font-family="sans-serif" font-size="14" font-style="italic" lengthAdjust="spacing" textLength="276" x="370" y="95.7773">export(List&lt;AttendanceGroups&gt;): byte[]</text><ellipse cx="361" cy="108.4746" fill="#84BE84" rx="3" ry="3" style="stroke:#038048;stroke-width:1.0;"/><text fill="#000000" font-family="sans-serif" font-size="14" font-style="italic" lengthAdjust="spacing" textLength="214" x="370" y="112.2656">bulkDelete(List&lt;Integer&gt;): void</text></g></a><!--reverse link com.enttribe.hrms.service.generic.AbstractService to com.enttribe.hrms.service.impl.AttendanceGroupsServiceImpl--><g id="link_com.enttribe.hrms.service.generic.AbstractService_com.enttribe.hrms.service.impl.AttendanceGroupsServiceImpl"><path codeLine="22" d="M192.37,98.56 C212.87,121.08 240.41,151.32 265.54,178.91 " fill="none" id="com.enttribe.hrms.service.generic.AbstractService-backto-com.enttribe.hrms.service.impl.AttendanceGroupsServiceImpl" style="stroke:#181818;stroke-width:1.0;"/><polygon fill="none" points="187.23,103.31,178.94,83.81,197.58,93.88,187.23,103.31" style="stroke:#181818;stroke-width:1.0;"/></g><!--reverse link com.enttribe.hrms.service.AttendanceGroupsService to com.enttribe.hrms.service.impl.AttendanceGroupsServiceImpl--><g id="link_com.enttribe.hrms.service.AttendanceGroupsService_com.enttribe.hrms.service.impl.AttendanceGroupsServiceImpl"><path codeLine="23" d="M436.14,135.34 C423.15,149.6 409.5,164.6 396.49,178.89 " fill="none" id="com.enttribe.hrms.service.AttendanceGroupsService-backto-com.enttribe.hrms.service.impl.AttendanceGroupsServiceImpl" style="stroke:#181818;stroke-width:1.0;stroke-dasharray:7.0,7.0;"/><polygon fill="none" points="430.79,130.81,449.44,120.74,441.15,140.24,430.79,130.81" style="stroke:#181818;stroke-width:1.0;"/></g><text fill="#888888" font-family="sans-serif" font-size="10" lengthAdjust="spacing" textLength="182" x="231.5" y="340.0733">UMLDoclet 2.1.0, PlantUML 1.2022.14</text><!--SRC=[fPHBQ-Cm4CVl-oc6Gi6bhjekUmecK4XVq43PiATi3eeyIKHboKYJqFJntNTYg-lWD8zINsoFVlF-sm000GciB32KKk40I-abEG_MMVp1np3JEG8M9IrXej7aeMqja6QEpPLT6Ha276L1ls3dybVtYWXjBgt2M-_cPHYWNsY5zqLf_jf8NNILAmHQ8g_7A6Q-22BKdD0C7e4Ci1iHE_B0SBZZLCoeCACHl5RbhwxJ7NHoYnQzLh-nT47pd9PPc-wUD97mkNIUaWSTw1Ek0-CbuN3KyDmAypr9CkdF3MbU1jreWumEk7CxRT0W5rY1ryyAJGfzMMOraqQscqALEBvnZC_hQ6AEv-QfXmO9wvBlBU4K_SfruNJUWCgZPAWTYhcsgV9vhxKXnu6yLBGfadWG1tsGCARr8lPe8rAYbM5p22mI8SuZVjx2eqQg9ZJFn4_uKzalyaFws5F_biXrjLiEDnNz-Z7vTpYLyrpJ7M-NjPjmCod4BVz_s1JRkl_X4btt-kA7iEvwY2YZmBwi0yZUpiw-yMlPatNRzh8t8RwJjKwBAoN2nBdLxK__eUSKJmb-YajnaSAZaPRO2iSBz44xcvpy0m00]--></g></svg>