<?xml version="1.0" encoding="UTF-8" standalone="no"?><svg xmlns="http://www.w3.org/2000/svg" xmlns:xlink="http://www.w3.org/1999/xlink" contentStyleType="text/css" height="350px" preserveAspectRatio="none" style="width:659px;height:350px;background:#FFFFFF;" version="1.1" viewBox="0 0 659 350" width="659px" zoomAndPan="magnify"><defs/><g><!--class com.enttribe.hrms.service.impl.CalendarDefinitionServiceImpl--><a href="CalendarDefinitionServiceImpl.html" target="_top" title="CalendarDefinitionServiceImpl.html" xlink:actuate="onRequest" xlink:href="CalendarDefinitionServiceImpl.html" xlink:show="new" xlink:title="CalendarDefinitionServiceImpl.html" xlink:type="simple"><g id="elem_com.enttribe.hrms.service.impl.CalendarDefinitionServiceImpl"><rect codeLine="5" fill="#F1F1F1" height="145.1953" id="com.enttribe.hrms.service.impl.CalendarDefinitionServiceImpl" rx="2.5" ry="2.5" style="stroke:#181818;stroke-width:0.5;" width="558" x="51.5" y="179.21"/><ellipse cx="222.75" cy="198.3428" fill="#ADD1B2" rx="11" ry="11" style="stroke:#181818;stroke-width:1.0;"/><path d="M225.2231,204.4859 Q224.6421,204.7847 224.0029,204.9341 Q223.3638,205.0835 222.6582,205.0835 Q220.1514,205.0835 218.8315,203.4317 Q217.5117,201.7798 217.5117,198.6587 Q217.5117,195.5293 218.8315,193.8775 Q220.1514,192.2256 222.6582,192.2256 Q223.3638,192.2256 224.0112,192.375 Q224.6587,192.5245 225.2231,192.8233 L225.2231,195.5459 Q224.5923,194.9649 223.9988,194.6951 Q223.4053,194.4253 222.7744,194.4253 Q221.4297,194.4253 220.7449,195.492 Q220.0601,196.5586 220.0601,198.6587 Q220.0601,200.7505 220.7449,201.8172 Q221.4297,202.8838 222.7744,202.8838 Q223.4053,202.8838 223.9988,202.6141 Q224.5923,202.3443 225.2231,201.7632 Z " fill="#000000"/><text fill="#000000" font-family="sans-serif" font-size="14" lengthAdjust="spacing" textLength="207" x="243.25" y="197.7452">CalendarDefinitionServiceImpl</text><text fill="#000000" font-family="sans-serif" font-size="10" lengthAdjust="spacing" textLength="150" x="271.75" y="210.3663">com.enttribe.hrms.service.impl</text><line style="stroke:#181818;stroke-width:0.5;" x1="52.5" x2="608.5" y1="217.4756" y2="217.4756"/><ellipse cx="62.5" cy="231.2198" fill="#84BE84" rx="3" ry="3" style="stroke:#038048;stroke-width:1.0;"/><text fill="#000000" font-family="sans-serif" font-size="14" lengthAdjust="spacing" textLength="493" x="71.5" y="235.0108">CalendarDefinitionServiceImpl(GenericRepository&lt;CalendarDefinition&gt;)</text><ellipse cx="62.5" cy="247.708" fill="#84BE84" rx="3" ry="3" style="stroke:#038048;stroke-width:1.0;"/><text fill="#000000" font-family="sans-serif" font-size="14" lengthAdjust="spacing" textLength="277" x="71.5" y="251.4991">export(List&lt;CalendarDefinition&gt;): byte[]</text><ellipse cx="62.5" cy="264.1963" fill="#84BE84" rx="3" ry="3" style="stroke:#038048;stroke-width:1.0;"/><text fill="#000000" font-family="sans-serif" font-size="14" lengthAdjust="spacing" textLength="222" x="71.5" y="267.9873">importData(MultipartFile): String</text><ellipse cx="62.5" cy="280.6846" fill="#84BE84" rx="3" ry="3" style="stroke:#038048;stroke-width:1.0;"/><text fill="#000000" font-family="sans-serif" font-size="14" lengthAdjust="spacing" textLength="532" x="71.5" y="284.4756">saveData(Excel, Map&lt;String, String&gt;, List&lt;String&gt;): List&lt;CalendarDefinition&gt;</text><ellipse cx="62.5" cy="297.1729" fill="#84BE84" rx="3" ry="3" style="stroke:#038048;stroke-width:1.0;"/><text fill="#000000" font-family="sans-serif" font-size="14" lengthAdjust="spacing" textLength="214" x="71.5" y="300.9639">bulkDelete(List&lt;Integer&gt;): void</text><ellipse cx="62.5" cy="313.6612" fill="#84BE84" rx="3" ry="3" style="stroke:#038048;stroke-width:1.0;"/><text fill="#000000" font-family="sans-serif" font-size="14" lengthAdjust="spacing" textLength="318" x="71.5" y="317.4522">create(CalendarDefinition): CalendarDefinition</text></g></a><!--class com.enttribe.hrms.service.generic.AbstractService--><a href="../generic/AbstractService.html" target="_top" title="../generic/AbstractService.html" xlink:actuate="onRequest" xlink:href="../generic/AbstractService.html" xlink:show="new" xlink:title="../generic/AbstractService.html" xlink:type="simple"><g id="elem_com.enttribe.hrms.service.generic.AbstractService"><rect codeLine="14" fill="#F1F1F1" height="38.2656" id="com.enttribe.hrms.service.generic.AbstractService" rx="2.5" ry="2.5" style="stroke:#181818;stroke-width:0.5;" width="307" x="7" y="43.97"/><ellipse cx="22" cy="63.1028" fill="#A9DCDF" rx="11" ry="11" style="stroke:#181818;stroke-width:1.0;"/><path d="M21.8633,58.451 L20.7095,63.5227 L23.0254,63.5227 Z M20.3691,56.2097 L23.3657,56.2097 L26.7109,68.6028 L24.2622,68.6028 L23.4985,65.5398 L20.2197,65.5398 L19.4727,68.6028 L17.0239,68.6028 Z " fill="#000000"/><text fill="#000000" font-family="sans-serif" font-size="14" font-style="italic" lengthAdjust="spacing" textLength="105" x="66" y="62.5052">AbstractService</text><text fill="#000000" font-family="sans-serif" font-size="10" font-style="italic" lengthAdjust="spacing" textLength="165" x="36" y="75.1263">com.enttribe.hrms.service.generic</text><rect fill="#FFFFFF" height="16.1328" style="stroke:#181818;stroke-width:1.0;stroke-dasharray:2.0,2.0;" width="108" x="209" y="40.97"/><text fill="#000000" font-family="sans-serif" font-size="12" font-style="italic" lengthAdjust="spacing" textLength="106" x="210" y="53.5716">CalendarDefinition</text></g></a><!--class com.enttribe.hrms.service.CalendarDefinitionService--><a href="../CalendarDefinitionService.html" target="_top" title="../CalendarDefinitionService.html" xlink:actuate="onRequest" xlink:href="../CalendarDefinitionService.html" xlink:show="new" xlink:title="../CalendarDefinitionService.html" xlink:type="simple"><g id="elem_com.enttribe.hrms.service.CalendarDefinitionService"><rect codeLine="15" fill="#F1F1F1" height="112.2188" id="com.enttribe.hrms.service.CalendarDefinitionService" rx="2.5" ry="2.5" style="stroke:#181818;stroke-width:0.5;" width="303" x="349" y="7"/><ellipse cx="407.75" cy="26.1328" fill="#B4A7E5" rx="11" ry="11" style="stroke:#181818;stroke-width:1.0;"/><path d="M404.1777,22.3979 L404.1777,20.2397 L411.5571,20.2397 L411.5571,22.3979 L409.0918,22.3979 L409.0918,30.4746 L411.5571,30.4746 L411.5571,32.6328 L404.1777,32.6328 L404.1777,30.4746 L406.6431,30.4746 L406.6431,22.3979 Z " fill="#000000"/><text fill="#000000" font-family="sans-serif" font-size="14" font-style="italic" lengthAdjust="spacing" textLength="177" x="428.25" y="25.5352">CalendarDefinitionService</text><text fill="#000000" font-family="sans-serif" font-size="10" font-style="italic" lengthAdjust="spacing" textLength="126" x="453.75" y="38.1563">com.enttribe.hrms.service</text><line style="stroke:#181818;stroke-width:0.5;" x1="350" x2="651" y1="45.2656" y2="45.2656"/><ellipse cx="360" cy="59.0098" fill="#84BE84" rx="3" ry="3" style="stroke:#038048;stroke-width:1.0;"/><text fill="#000000" font-family="sans-serif" font-size="14" font-style="italic" lengthAdjust="spacing" textLength="274" x="369" y="62.8008">auditHistory(int, Integer, Integer): String</text><ellipse cx="360" cy="75.498" fill="#84BE84" rx="3" ry="3" style="stroke:#038048;stroke-width:1.0;"/><text fill="#000000" font-family="sans-serif" font-size="14" font-style="italic" lengthAdjust="spacing" textLength="222" x="369" y="79.2891">importData(MultipartFile): String</text><ellipse cx="360" cy="91.9863" fill="#84BE84" rx="3" ry="3" style="stroke:#038048;stroke-width:1.0;"/><text fill="#000000" font-family="sans-serif" font-size="14" font-style="italic" lengthAdjust="spacing" textLength="277" x="369" y="95.7773">export(List&lt;CalendarDefinition&gt;): byte[]</text><ellipse cx="360" cy="108.4746" fill="#84BE84" rx="3" ry="3" style="stroke:#038048;stroke-width:1.0;"/><text fill="#000000" font-family="sans-serif" font-size="14" font-style="italic" lengthAdjust="spacing" textLength="214" x="369" y="112.2656">bulkDelete(List&lt;Integer&gt;): void</text></g></a><!--reverse link com.enttribe.hrms.service.generic.AbstractService to com.enttribe.hrms.service.impl.CalendarDefinitionServiceImpl--><g id="link_com.enttribe.hrms.service.generic.AbstractService_com.enttribe.hrms.service.impl.CalendarDefinitionServiceImpl"><path codeLine="22" d="M191.87,98.56 C212.37,121.08 239.91,151.32 265.04,178.91 " fill="none" id="com.enttribe.hrms.service.generic.AbstractService-backto-com.enttribe.hrms.service.impl.CalendarDefinitionServiceImpl" style="stroke:#181818;stroke-width:1.0;"/><polygon fill="none" points="186.73,103.31,178.44,83.81,197.08,93.88,186.73,103.31" style="stroke:#181818;stroke-width:1.0;"/></g><!--reverse link com.enttribe.hrms.service.CalendarDefinitionService to com.enttribe.hrms.service.impl.CalendarDefinitionServiceImpl--><g id="link_com.enttribe.hrms.service.CalendarDefinitionService_com.enttribe.hrms.service.impl.CalendarDefinitionServiceImpl"><path codeLine="23" d="M435.64,135.34 C422.65,149.6 409,164.6 395.99,178.89 " fill="none" id="com.enttribe.hrms.service.CalendarDefinitionService-backto-com.enttribe.hrms.service.impl.CalendarDefinitionServiceImpl" style="stroke:#181818;stroke-width:1.0;stroke-dasharray:7.0,7.0;"/><polygon fill="none" points="430.29,130.81,448.94,120.74,440.65,140.24,430.29,130.81" style="stroke:#181818;stroke-width:1.0;"/></g><text fill="#888888" font-family="sans-serif" font-size="10" lengthAdjust="spacing" textLength="182" x="231.5" y="340.0733">UMLDoclet 2.1.0, PlantUML 1.2022.14</text><!--SRC=[fPHHJzim4CVVzobEI9E220QcFQ6e4be7GwBIj8gdqWVNkRRM73kohnKTyDrtJGof6je6qPUsvz__pdVtJm000X9OMM0efS8Xbj9BSXwii_Y5Zs6kSmGiIbh1LAF9mtQqG9ex3bTnPMG8S9G5_GylBxxtVaY3DfU-ZrDjDMbdX-YNMk5jKPe76xdpddA5G4lazGJ5t1T1X9eJci4Za07s8s9l9HYDzfwBEHLcF8QdgedrvsGldzoWHQ_L7onTq3olLTRcUyTDDdmidQVaJWTwbxo4oOfmD6uKt1Gh-f9aCbWOqhmOkjO66Hto3EoiGODSOWN-V5HeKXZ8CgkPDBAz5AhIyH_ds7MJ9kjaOVxsqI1XVUrRIpX3lnOldSuRK7cK3BMJCTaELhgNsYro4iXBHItRNCM3EF9EHfdLApdWbKY9hGhlZO9D8yHP59nj2Q9ZgZOqJyPF-V7fOlmklHpeOMVk-iOxZzikVthTm0kSo4MkwHTlcjsSS4ifn8s__MXRRrFVtR2RgWy_69lYBXQDLlkm8o1xFZtzr4ldGDtTMyoUXVXSvReqhdq9K-VMN_U3kxvJF2lu9Yx4UGg_ZRJ4KVYwH1yuGNBy7m00]--></g></svg>