<?xml version="1.0" encoding="UTF-8" standalone="no"?><svg xmlns="http://www.w3.org/2000/svg" xmlns:xlink="http://www.w3.org/1999/xlink" contentStyleType="text/css" height="350px" preserveAspectRatio="none" style="width:641px;height:350px;background:#FFFFFF;" version="1.1" viewBox="0 0 641 350" width="641px" zoomAndPan="magnify"><defs/><g><!--class com.enttribe.hrms.service.impl.CalendarDetailsServiceImpl--><a href="CalendarDetailsServiceImpl.html" target="_top" title="CalendarDetailsServiceImpl.html" xlink:actuate="onRequest" xlink:href="CalendarDetailsServiceImpl.html" xlink:show="new" xlink:title="CalendarDetailsServiceImpl.html" xlink:type="simple"><g id="elem_com.enttribe.hrms.service.impl.CalendarDetailsServiceImpl"><rect codeLine="5" fill="#F1F1F1" height="145.1953" id="com.enttribe.hrms.service.impl.CalendarDetailsServiceImpl" rx="2.5" ry="2.5" style="stroke:#181818;stroke-width:0.5;" width="477" x="79.5" y="179.21"/><ellipse cx="220.75" cy="198.3428" fill="#ADD1B2" rx="11" ry="11" style="stroke:#181818;stroke-width:1.0;"/><path d="M223.2231,204.4859 Q222.6421,204.7847 222.0029,204.9341 Q221.3638,205.0835 220.6582,205.0835 Q218.1514,205.0835 216.8315,203.4317 Q215.5117,201.7798 215.5117,198.6587 Q215.5117,195.5293 216.8315,193.8775 Q218.1514,192.2256 220.6582,192.2256 Q221.3638,192.2256 222.0112,192.375 Q222.6587,192.5245 223.2231,192.8233 L223.2231,195.5459 Q222.5923,194.9649 221.9988,194.6951 Q221.4053,194.4253 220.7744,194.4253 Q219.4297,194.4253 218.7449,195.492 Q218.0601,196.5586 218.0601,198.6587 Q218.0601,200.7505 218.7449,201.8172 Q219.4297,202.8838 220.7744,202.8838 Q221.4053,202.8838 221.9988,202.6141 Q222.5923,202.3443 223.2231,201.7632 Z " fill="#000000"/><text fill="#000000" font-family="sans-serif" font-size="14" lengthAdjust="spacing" textLength="186" x="241.25" y="197.7452">CalendarDetailsServiceImpl</text><text fill="#000000" font-family="sans-serif" font-size="10" lengthAdjust="spacing" textLength="150" x="259.25" y="210.3663">com.enttribe.hrms.service.impl</text><line style="stroke:#181818;stroke-width:0.5;" x1="80.5" x2="555.5" y1="217.4756" y2="217.4756"/><ellipse cx="90.5" cy="231.2198" fill="#84BE84" rx="3" ry="3" style="stroke:#038048;stroke-width:1.0;"/><text fill="#000000" font-family="sans-serif" font-size="14" lengthAdjust="spacing" textLength="451" x="99.5" y="235.0108">CalendarDetailsServiceImpl(GenericRepository&lt;CalendarDetails&gt;)</text><ellipse cx="90.5" cy="247.708" fill="#84BE84" rx="3" ry="3" style="stroke:#038048;stroke-width:1.0;"/><text fill="#000000" font-family="sans-serif" font-size="14" lengthAdjust="spacing" textLength="256" x="99.5" y="251.4991">export(List&lt;CalendarDetails&gt;): byte[]</text><ellipse cx="90.5" cy="264.1963" fill="#84BE84" rx="3" ry="3" style="stroke:#038048;stroke-width:1.0;"/><text fill="#000000" font-family="sans-serif" font-size="14" lengthAdjust="spacing" textLength="222" x="99.5" y="267.9873">importData(MultipartFile): String</text><ellipse cx="90.5" cy="280.6846" fill="#84BE84" rx="3" ry="3" style="stroke:#038048;stroke-width:1.0;"/><text fill="#000000" font-family="sans-serif" font-size="14" lengthAdjust="spacing" textLength="362" x="99.5" y="284.4756">saveData(Excel, List&lt;String&gt;): List&lt;CalendarDetails&gt;</text><ellipse cx="90.5" cy="297.1729" fill="#84BE84" rx="3" ry="3" style="stroke:#038048;stroke-width:1.0;"/><text fill="#000000" font-family="sans-serif" font-size="14" lengthAdjust="spacing" textLength="214" x="99.5" y="300.9639">bulkDelete(List&lt;Integer&gt;): void</text><ellipse cx="90.5" cy="313.6612" fill="#84BE84" rx="3" ry="3" style="stroke:#038048;stroke-width:1.0;"/><text fill="#000000" font-family="sans-serif" font-size="14" lengthAdjust="spacing" textLength="276" x="99.5" y="317.4522">create(CalendarDetails): CalendarDetails</text></g></a><!--class com.enttribe.hrms.service.generic.AbstractService--><a href="../generic/AbstractService.html" target="_top" title="../generic/AbstractService.html" xlink:actuate="onRequest" xlink:href="../generic/AbstractService.html" xlink:show="new" xlink:title="../generic/AbstractService.html" xlink:type="simple"><g id="elem_com.enttribe.hrms.service.generic.AbstractService"><rect codeLine="14" fill="#F1F1F1" height="38.2656" id="com.enttribe.hrms.service.generic.AbstractService" rx="2.5" ry="2.5" style="stroke:#181818;stroke-width:0.5;" width="292" x="7" y="43.97"/><ellipse cx="22" cy="63.1028" fill="#A9DCDF" rx="11" ry="11" style="stroke:#181818;stroke-width:1.0;"/><path d="M21.8633,58.451 L20.7095,63.5227 L23.0254,63.5227 Z M20.3691,56.2097 L23.3657,56.2097 L26.7109,68.6028 L24.2622,68.6028 L23.4985,65.5398 L20.2197,65.5398 L19.4727,68.6028 L17.0239,68.6028 Z " fill="#000000"/><text fill="#000000" font-family="sans-serif" font-size="14" font-style="italic" lengthAdjust="spacing" textLength="105" x="66" y="62.5052">AbstractService</text><text fill="#000000" font-family="sans-serif" font-size="10" font-style="italic" lengthAdjust="spacing" textLength="165" x="36" y="75.1263">com.enttribe.hrms.service.generic</text><rect fill="#FFFFFF" height="16.1328" style="stroke:#181818;stroke-width:1.0;stroke-dasharray:2.0,2.0;" width="93" x="209" y="40.97"/><text fill="#000000" font-family="sans-serif" font-size="12" font-style="italic" lengthAdjust="spacing" textLength="91" x="210" y="53.5716">CalendarDetails</text></g></a><!--class com.enttribe.hrms.service.CalendarDetailsService--><a href="../CalendarDetailsService.html" target="_top" title="../CalendarDetailsService.html" xlink:actuate="onRequest" xlink:href="../CalendarDetailsService.html" xlink:show="new" xlink:title="../CalendarDetailsService.html" xlink:type="simple"><g id="elem_com.enttribe.hrms.service.CalendarDetailsService"><rect codeLine="15" fill="#F1F1F1" height="112.2188" id="com.enttribe.hrms.service.CalendarDetailsService" rx="2.5" ry="2.5" style="stroke:#181818;stroke-width:0.5;" width="300" x="334" y="7"/><ellipse cx="401.75" cy="26.1328" fill="#B4A7E5" rx="11" ry="11" style="stroke:#181818;stroke-width:1.0;"/><path d="M398.1777,22.3979 L398.1777,20.2397 L405.5571,20.2397 L405.5571,22.3979 L403.0918,22.3979 L403.0918,30.4746 L405.5571,30.4746 L405.5571,32.6328 L398.1777,32.6328 L398.1777,30.4746 L400.6431,30.4746 L400.6431,22.3979 Z " fill="#000000"/><text fill="#000000" font-family="sans-serif" font-size="14" font-style="italic" lengthAdjust="spacing" textLength="156" x="422.25" y="25.5352">CalendarDetailsService</text><text fill="#000000" font-family="sans-serif" font-size="10" font-style="italic" lengthAdjust="spacing" textLength="126" x="437.25" y="38.1563">com.enttribe.hrms.service</text><line style="stroke:#181818;stroke-width:0.5;" x1="335" x2="633" y1="45.2656" y2="45.2656"/><ellipse cx="345" cy="59.0098" fill="#84BE84" rx="3" ry="3" style="stroke:#038048;stroke-width:1.0;"/><text fill="#000000" font-family="sans-serif" font-size="14" font-style="italic" lengthAdjust="spacing" textLength="274" x="354" y="62.8008">auditHistory(int, Integer, Integer): String</text><ellipse cx="345" cy="75.498" fill="#84BE84" rx="3" ry="3" style="stroke:#038048;stroke-width:1.0;"/><text fill="#000000" font-family="sans-serif" font-size="14" font-style="italic" lengthAdjust="spacing" textLength="222" x="354" y="79.2891">importData(MultipartFile): String</text><ellipse cx="345" cy="91.9863" fill="#84BE84" rx="3" ry="3" style="stroke:#038048;stroke-width:1.0;"/><text fill="#000000" font-family="sans-serif" font-size="14" font-style="italic" lengthAdjust="spacing" textLength="256" x="354" y="95.7773">export(List&lt;CalendarDetails&gt;): byte[]</text><ellipse cx="345" cy="108.4746" fill="#84BE84" rx="3" ry="3" style="stroke:#038048;stroke-width:1.0;"/><text fill="#000000" font-family="sans-serif" font-size="14" font-style="italic" lengthAdjust="spacing" textLength="214" x="354" y="112.2656">bulkDelete(List&lt;Integer&gt;): void</text></g></a><!--reverse link com.enttribe.hrms.service.generic.AbstractService to com.enttribe.hrms.service.impl.CalendarDetailsServiceImpl--><g id="link_com.enttribe.hrms.service.generic.AbstractService_com.enttribe.hrms.service.impl.CalendarDetailsServiceImpl"><path codeLine="22" d="M183.45,98.56 C203.35,121.08 230.07,151.32 254.46,178.91 " fill="none" id="com.enttribe.hrms.service.generic.AbstractService-backto-com.enttribe.hrms.service.impl.CalendarDetailsServiceImpl" style="stroke:#181818;stroke-width:1.0;"/><polygon fill="none" points="178.43,103.45,170.43,83.82,188.92,94.18,178.43,103.45" style="stroke:#181818;stroke-width:1.0;"/></g><!--reverse link com.enttribe.hrms.service.CalendarDetailsService to com.enttribe.hrms.service.impl.CalendarDetailsServiceImpl--><g id="link_com.enttribe.hrms.service.CalendarDetailsService_com.enttribe.hrms.service.impl.CalendarDetailsServiceImpl"><path codeLine="23" d="M420.67,135.34 C407.98,149.6 394.65,164.6 381.95,178.89 " fill="none" id="com.enttribe.hrms.service.CalendarDetailsService-backto-com.enttribe.hrms.service.impl.CalendarDetailsServiceImpl" style="stroke:#181818;stroke-width:1.0;stroke-dasharray:7.0,7.0;"/><polygon fill="none" points="415.12,131.04,433.64,120.75,425.58,140.35,415.12,131.04" style="stroke:#181818;stroke-width:1.0;"/></g><text fill="#888888" font-family="sans-serif" font-size="10" lengthAdjust="spacing" textLength="182" x="222.5" y="340.0733">UMLDoclet 2.1.0, PlantUML 1.2022.14</text><!--SRC=[fPHDQzj048Rl_HL3eA0GPvEKde8nXBf90mcKcfuS7yQhiRrqjIjsnoPkal_UqKSZ8zcnq_eYC_FCzoi104HYS9XHp57JY78Co3w0yuu-Y1iM9YMWBESrp0pPDBQj6V72YxcqQuinmb4_cjzqUV5vy0KjkHJ3a1YDZICAAwFfDiljWwkXyu7scIB77CoKr29aKSMAKqR08y08RoDgTnaOZtSxrO8pEvd0KzbxyJlP3IStv2WO_ODo7utiQDrlmOFZ9WyzvZvmScSYTx5BcAwPnfC6boa47o9ZSh-qREGCV6qi2JgIeTsyGIEkg0I_FcgoFIXBL52HUMl59dgwjB-6P8cfwktMCSqf594hRz86r85Ge5OcmLgMCkAbkZvE8mVKt971LUsertdGxUVLklUSlwPKgq9d0w83fSvg-gn5rpeePp2oa32JTs6lYW-POa_tsnDNlMxtTINxz7VhBt22ozJmDxchg3EHINfGt_VrJrTGc_67ot0pwdrQtumyH8srjjuj0UW_dvx- -uTZJz4Tb-i_A_KVDQkYL4WGPjuNZv_tTqElPKNmILseynvyj-XOhF1nHI4QxvBZFm00]--></g></svg>