<?xml version="1.0" encoding="UTF-8" standalone="no"?><svg xmlns="http://www.w3.org/2000/svg" xmlns:xlink="http://www.w3.org/1999/xlink" contentStyleType="text/css" height="350px" preserveAspectRatio="none" style="width:612px;height:350px;background:#FFFFFF;" version="1.1" viewBox="0 0 612 350" width="612px" zoomAndPan="magnify"><defs/><g><!--class com.enttribe.hrms.service.impl.ExceptionsServiceImpl--><a href="ExceptionsServiceImpl.html" target="_top" title="ExceptionsServiceImpl.html" xlink:actuate="onRequest" xlink:href="ExceptionsServiceImpl.html" xlink:show="new" xlink:title="ExceptionsServiceImpl.html" xlink:type="simple"><g id="elem_com.enttribe.hrms.service.impl.ExceptionsServiceImpl"><rect codeLine="5" fill="#F1F1F1" height="145.1953" id="com.enttribe.hrms.service.impl.ExceptionsServiceImpl" rx="2.5" ry="2.5" style="stroke:#181818;stroke-width:0.5;" width="504" x="44.5" y="179.21"/><ellipse cx="215.75" cy="198.3428" fill="#ADD1B2" rx="11" ry="11" style="stroke:#181818;stroke-width:1.0;"/><path d="M218.2231,204.4859 Q217.6421,204.7847 217.0029,204.9341 Q216.3638,205.0835 215.6582,205.0835 Q213.1514,205.0835 211.8315,203.4317 Q210.5117,201.7798 210.5117,198.6587 Q210.5117,195.5293 211.8315,193.8775 Q213.1514,192.2256 215.6582,192.2256 Q216.3638,192.2256 217.0112,192.375 Q217.6587,192.5245 218.2231,192.8233 L218.2231,195.5459 Q217.5923,194.9649 216.9988,194.6951 Q216.4053,194.4253 215.7744,194.4253 Q214.4297,194.4253 213.7449,195.492 Q213.0601,196.5586 213.0601,198.6587 Q213.0601,200.7505 213.7449,201.8172 Q214.4297,202.8838 215.7744,202.8838 Q216.4053,202.8838 216.9988,202.6141 Q217.5923,202.3443 218.2231,201.7632 Z " fill="#000000"/><text fill="#000000" font-family="sans-serif" font-size="14" lengthAdjust="spacing" textLength="153" x="236.25" y="197.7452">ExceptionsServiceImpl</text><text fill="#000000" font-family="sans-serif" font-size="10" lengthAdjust="spacing" textLength="150" x="237.75" y="210.3663">com.enttribe.hrms.service.impl</text><line style="stroke:#181818;stroke-width:0.5;" x1="45.5" x2="547.5" y1="217.4756" y2="217.4756"/><ellipse cx="55.5" cy="231.2198" fill="#84BE84" rx="3" ry="3" style="stroke:#038048;stroke-width:1.0;"/><text fill="#000000" font-family="sans-serif" font-size="14" lengthAdjust="spacing" textLength="385" x="64.5" y="235.0108">ExceptionsServiceImpl(GenericRepository&lt;Exceptions&gt;)</text><ellipse cx="55.5" cy="247.708" fill="#84BE84" rx="3" ry="3" style="stroke:#038048;stroke-width:1.0;"/><text fill="#000000" font-family="sans-serif" font-size="14" lengthAdjust="spacing" textLength="223" x="64.5" y="251.4991">export(List&lt;Exceptions&gt;): byte[]</text><ellipse cx="55.5" cy="264.1963" fill="#84BE84" rx="3" ry="3" style="stroke:#038048;stroke-width:1.0;"/><text fill="#000000" font-family="sans-serif" font-size="14" lengthAdjust="spacing" textLength="222" x="64.5" y="267.9873">importData(MultipartFile): String</text><ellipse cx="55.5" cy="280.6846" fill="#84BE84" rx="3" ry="3" style="stroke:#038048;stroke-width:1.0;"/><text fill="#000000" font-family="sans-serif" font-size="14" lengthAdjust="spacing" textLength="478" x="64.5" y="284.4756">saveData(Excel, Map&lt;String, String&gt;, List&lt;String&gt;): List&lt;Exceptions&gt;</text><ellipse cx="55.5" cy="297.1729" fill="#84BE84" rx="3" ry="3" style="stroke:#038048;stroke-width:1.0;"/><text fill="#000000" font-family="sans-serif" font-size="14" lengthAdjust="spacing" textLength="214" x="64.5" y="300.9639">bulkDelete(List&lt;Integer&gt;): void</text><ellipse cx="55.5" cy="313.6612" fill="#84BE84" rx="3" ry="3" style="stroke:#038048;stroke-width:1.0;"/><text fill="#000000" font-family="sans-serif" font-size="14" lengthAdjust="spacing" textLength="210" x="64.5" y="317.4522">create(Exceptions): Exceptions</text></g></a><!--class com.enttribe.hrms.service.generic.AbstractService--><a href="../generic/AbstractService.html" target="_top" title="../generic/AbstractService.html" xlink:actuate="onRequest" xlink:href="../generic/AbstractService.html" xlink:show="new" xlink:title="../generic/AbstractService.html" xlink:type="simple"><g id="elem_com.enttribe.hrms.service.generic.AbstractService"><rect codeLine="14" fill="#F1F1F1" height="38.2656" id="com.enttribe.hrms.service.generic.AbstractService" rx="2.5" ry="2.5" style="stroke:#181818;stroke-width:0.5;" width="263" x="7" y="43.97"/><ellipse cx="22" cy="63.1028" fill="#A9DCDF" rx="11" ry="11" style="stroke:#181818;stroke-width:1.0;"/><path d="M21.8633,58.451 L20.7095,63.5227 L23.0254,63.5227 Z M20.3691,56.2097 L23.3657,56.2097 L26.7109,68.6028 L24.2622,68.6028 L23.4985,65.5398 L20.2197,65.5398 L19.4727,68.6028 L17.0239,68.6028 Z " fill="#000000"/><text fill="#000000" font-family="sans-serif" font-size="14" font-style="italic" lengthAdjust="spacing" textLength="105" x="66" y="62.5052">AbstractService</text><text fill="#000000" font-family="sans-serif" font-size="10" font-style="italic" lengthAdjust="spacing" textLength="165" x="36" y="75.1263">com.enttribe.hrms.service.generic</text><rect fill="#FFFFFF" height="16.1328" style="stroke:#181818;stroke-width:1.0;stroke-dasharray:2.0,2.0;" width="64" x="209" y="40.97"/><text fill="#000000" font-family="sans-serif" font-size="12" font-style="italic" lengthAdjust="spacing" textLength="62" x="210" y="53.5716">Exceptions</text></g></a><!--class com.enttribe.hrms.service.ExceptionsService--><a href="../ExceptionsService.html" target="_top" title="../ExceptionsService.html" xlink:actuate="onRequest" xlink:href="../ExceptionsService.html" xlink:show="new" xlink:title="../ExceptionsService.html" xlink:type="simple"><g id="elem_com.enttribe.hrms.service.ExceptionsService"><rect codeLine="15" fill="#F1F1F1" height="112.2188" id="com.enttribe.hrms.service.ExceptionsService" rx="2.5" ry="2.5" style="stroke:#181818;stroke-width:0.5;" width="300" x="305.5" y="7"/><ellipse cx="388.25" cy="26.1328" fill="#B4A7E5" rx="11" ry="11" style="stroke:#181818;stroke-width:1.0;"/><path d="M384.6777,22.3979 L384.6777,20.2397 L392.0571,20.2397 L392.0571,22.3979 L389.5918,22.3979 L389.5918,30.4746 L392.0571,30.4746 L392.0571,32.6328 L384.6777,32.6328 L384.6777,30.4746 L387.1431,30.4746 L387.1431,22.3979 Z " fill="#000000"/><text fill="#000000" font-family="sans-serif" font-size="14" font-style="italic" lengthAdjust="spacing" textLength="123" x="410.25" y="25.5352">ExceptionsService</text><text fill="#000000" font-family="sans-serif" font-size="10" font-style="italic" lengthAdjust="spacing" textLength="126" x="408.75" y="38.1563">com.enttribe.hrms.service</text><line style="stroke:#181818;stroke-width:0.5;" x1="306.5" x2="604.5" y1="45.2656" y2="45.2656"/><ellipse cx="316.5" cy="59.0098" fill="#84BE84" rx="3" ry="3" style="stroke:#038048;stroke-width:1.0;"/><text fill="#000000" font-family="sans-serif" font-size="14" font-style="italic" lengthAdjust="spacing" textLength="274" x="325.5" y="62.8008">auditHistory(int, Integer, Integer): String</text><ellipse cx="316.5" cy="75.498" fill="#84BE84" rx="3" ry="3" style="stroke:#038048;stroke-width:1.0;"/><text fill="#000000" font-family="sans-serif" font-size="14" font-style="italic" lengthAdjust="spacing" textLength="222" x="325.5" y="79.2891">importData(MultipartFile): String</text><ellipse cx="316.5" cy="91.9863" fill="#84BE84" rx="3" ry="3" style="stroke:#038048;stroke-width:1.0;"/><text fill="#000000" font-family="sans-serif" font-size="14" font-style="italic" lengthAdjust="spacing" textLength="223" x="325.5" y="95.7773">export(List&lt;Exceptions&gt;): byte[]</text><ellipse cx="316.5" cy="108.4746" fill="#84BE84" rx="3" ry="3" style="stroke:#038048;stroke-width:1.0;"/><text fill="#000000" font-family="sans-serif" font-size="14" font-style="italic" lengthAdjust="spacing" textLength="214" x="325.5" y="112.2656">bulkDelete(List&lt;Integer&gt;): void</text></g></a><!--reverse link com.enttribe.hrms.service.generic.AbstractService to com.enttribe.hrms.service.impl.ExceptionsServiceImpl--><g id="link_com.enttribe.hrms.service.generic.AbstractService_com.enttribe.hrms.service.impl.ExceptionsServiceImpl"><path codeLine="22" d="M167.94,98.89 C186.96,121.37 212.42,151.45 235.66,178.91 " fill="none" id="com.enttribe.hrms.service.generic.AbstractService-backto-com.enttribe.hrms.service.impl.ExceptionsServiceImpl" style="stroke:#181818;stroke-width:1.0;"/><polygon fill="none" points="162.78,103.63,155.21,83.85,173.47,94.59,162.78,103.63" style="stroke:#181818;stroke-width:1.0;"/></g><!--reverse link com.enttribe.hrms.service.ExceptionsService to com.enttribe.hrms.service.impl.ExceptionsServiceImpl--><g id="link_com.enttribe.hrms.service.ExceptionsService_com.enttribe.hrms.service.impl.ExceptionsServiceImpl"><path codeLine="23" d="M394.45,135.8 C382.42,149.92 369.79,164.75 357.75,178.89 " fill="none" id="com.enttribe.hrms.service.ExceptionsService-backto-com.enttribe.hrms.service.impl.ExceptionsServiceImpl" style="stroke:#181818;stroke-width:1.0;stroke-dasharray:7.0,7.0;"/><polygon fill="none" points="388.95,131.46,407.24,120.77,399.61,140.54,388.95,131.46" style="stroke:#181818;stroke-width:1.0;"/></g><text fill="#888888" font-family="sans-serif" font-size="10" lengthAdjust="spacing" textLength="182" x="208.25" y="340.0733">UMLDoclet 2.1.0, PlantUML 1.2022.14</text><!--SRC=[dPJRQkCm48Rlzoc6me9BNVN0NXKJMCZs00qi3RrASw4eaqHKbemq2SssVVUERRLEuz1uwnlResyEdl_700012QpCCHHIuH0BwIKv3zPP_C77iD1J1CmBMiDCevc6xMYEj70ShkBAo13W80lw7rwS_UhzUL9Oa7Os3D6ljCARl30FDfwVzfJB1LeYhoSe5ZuF8jISq0mUW0pmDI9sTe3HQ6TSB2Wtup4yLyEMrz5EBhb2YrwhEonSqBoFTTPmlSCc6vyAvocvrO4-4HSmMHEEnWt9mpBPboIJmTAGvaNJfJR8w92_pSuRDCWLLc1PqQGma4LMCsbaUobKBUCRrzYUeAasMPh7FXeahCUyiOHpz6NIokbf0ogFag6c21FDIyMzrYhBII0l5RNa_XqFuYex2JslLxr7wqY9hGwRdyoY2t4ImPCjC2fVZQzv0tx6Tl_Ag5rctpDpgsOzOIlSTkNp-uPVuKWkfvgkMJbsOSAZfn0L_7XeMsWplxlnDhCw6tipgOlLeeN-Msd8NewFl_KpsDElhLBs8iJtEjMjiFGNp9mhR_U3sxvJl1Cu5sVYD8M_HbhYAFnSeGzS8Jby0m00]--></g></svg>