<?xml version="1.0" encoding="UTF-8" standalone="no"?><svg xmlns="http://www.w3.org/2000/svg" xmlns:xlink="http://www.w3.org/1999/xlink" contentStyleType="text/css" height="350px" preserveAspectRatio="none" style="width:720px;height:350px;background:#FFFFFF;" version="1.1" viewBox="0 0 720 350" width="720px" zoomAndPan="magnify"><defs/><g><!--class com.enttribe.hrms.service.impl.ExceptionalWorkingDayServiceImpl--><a href="ExceptionalWorkingDayServiceImpl.html" target="_top" title="ExceptionalWorkingDayServiceImpl.html" xlink:actuate="onRequest" xlink:href="ExceptionalWorkingDayServiceImpl.html" xlink:show="new" xlink:title="ExceptionalWorkingDayServiceImpl.html" xlink:type="simple"><g id="elem_com.enttribe.hrms.service.impl.ExceptionalWorkingDayServiceImpl"><rect codeLine="5" fill="#F1F1F1" height="145.1953" id="com.enttribe.hrms.service.impl.ExceptionalWorkingDayServiceImpl" rx="2.5" ry="2.5" style="stroke:#181818;stroke-width:0.5;" width="591" x="64" y="179.21"/><ellipse cx="235.25" cy="198.3428" fill="#ADD1B2" rx="11" ry="11" style="stroke:#181818;stroke-width:1.0;"/><path d="M237.7231,204.4859 Q237.1421,204.7847 236.5029,204.9341 Q235.8638,205.0835 235.1582,205.0835 Q232.6514,205.0835 231.3315,203.4317 Q230.0117,201.7798 230.0117,198.6587 Q230.0117,195.5293 231.3315,193.8775 Q232.6514,192.2256 235.1582,192.2256 Q235.8638,192.2256 236.5112,192.375 Q237.1587,192.5245 237.7231,192.8233 L237.7231,195.5459 Q237.0923,194.9649 236.4988,194.6951 Q235.9053,194.4253 235.2744,194.4253 Q233.9297,194.4253 233.2449,195.492 Q232.5601,196.5586 232.5601,198.6587 Q232.5601,200.7505 233.2449,201.8172 Q233.9297,202.8838 235.2744,202.8838 Q235.9053,202.8838 236.4988,202.6141 Q237.0923,202.3443 237.7231,201.7632 Z " fill="#000000"/><text fill="#000000" font-family="sans-serif" font-size="14" lengthAdjust="spacing" textLength="240" x="255.75" y="197.7452">ExceptionalWorkingDayServiceImpl</text><text fill="#000000" font-family="sans-serif" font-size="10" lengthAdjust="spacing" textLength="150" x="300.75" y="210.3663">com.enttribe.hrms.service.impl</text><line style="stroke:#181818;stroke-width:0.5;" x1="65" x2="654" y1="217.4756" y2="217.4756"/><ellipse cx="75" cy="231.2198" fill="#84BE84" rx="3" ry="3" style="stroke:#038048;stroke-width:1.0;"/><text fill="#000000" font-family="sans-serif" font-size="14" lengthAdjust="spacing" textLength="559" x="84" y="235.0108">ExceptionalWorkingDayServiceImpl(GenericRepository&lt;ExceptionalWorkingDay&gt;)</text><ellipse cx="75" cy="247.708" fill="#84BE84" rx="3" ry="3" style="stroke:#038048;stroke-width:1.0;"/><text fill="#000000" font-family="sans-serif" font-size="14" lengthAdjust="spacing" textLength="310" x="84" y="251.4991">export(List&lt;ExceptionalWorkingDay&gt;): byte[]</text><ellipse cx="75" cy="264.1963" fill="#84BE84" rx="3" ry="3" style="stroke:#038048;stroke-width:1.0;"/><text fill="#000000" font-family="sans-serif" font-size="14" lengthAdjust="spacing" textLength="222" x="84" y="267.9873">importData(MultipartFile): String</text><ellipse cx="75" cy="280.6846" fill="#84BE84" rx="3" ry="3" style="stroke:#038048;stroke-width:1.0;"/><text fill="#000000" font-family="sans-serif" font-size="14" lengthAdjust="spacing" textLength="565" x="84" y="284.4756">saveData(Excel, Map&lt;String, String&gt;, List&lt;String&gt;): List&lt;ExceptionalWorkingDay&gt;</text><ellipse cx="75" cy="297.1729" fill="#84BE84" rx="3" ry="3" style="stroke:#038048;stroke-width:1.0;"/><text fill="#000000" font-family="sans-serif" font-size="14" lengthAdjust="spacing" textLength="214" x="84" y="300.9639">bulkDelete(List&lt;Integer&gt;): void</text><ellipse cx="75" cy="313.6612" fill="#84BE84" rx="3" ry="3" style="stroke:#038048;stroke-width:1.0;"/><text fill="#000000" font-family="sans-serif" font-size="14" lengthAdjust="spacing" textLength="384" x="84" y="317.4522">create(ExceptionalWorkingDay): ExceptionalWorkingDay</text></g></a><!--class com.enttribe.hrms.service.generic.AbstractService--><a href="../generic/AbstractService.html" target="_top" title="../generic/AbstractService.html" xlink:actuate="onRequest" xlink:href="../generic/AbstractService.html" xlink:show="new" xlink:title="../generic/AbstractService.html" xlink:type="simple"><g id="elem_com.enttribe.hrms.service.generic.AbstractService"><rect codeLine="14" fill="#F1F1F1" height="38.2656" id="com.enttribe.hrms.service.generic.AbstractService" rx="2.5" ry="2.5" style="stroke:#181818;stroke-width:0.5;" width="335" x="7" y="43.97"/><ellipse cx="22" cy="63.1028" fill="#A9DCDF" rx="11" ry="11" style="stroke:#181818;stroke-width:1.0;"/><path d="M21.8633,58.451 L20.7095,63.5227 L23.0254,63.5227 Z M20.3691,56.2097 L23.3657,56.2097 L26.7109,68.6028 L24.2622,68.6028 L23.4985,65.5398 L20.2197,65.5398 L19.4727,68.6028 L17.0239,68.6028 Z " fill="#000000"/><text fill="#000000" font-family="sans-serif" font-size="14" font-style="italic" lengthAdjust="spacing" textLength="105" x="66" y="62.5052">AbstractService</text><text fill="#000000" font-family="sans-serif" font-size="10" font-style="italic" lengthAdjust="spacing" textLength="165" x="36" y="75.1263">com.enttribe.hrms.service.generic</text><rect fill="#FFFFFF" height="16.1328" style="stroke:#181818;stroke-width:1.0;stroke-dasharray:2.0,2.0;" width="136" x="209" y="40.97"/><text fill="#000000" font-family="sans-serif" font-size="12" font-style="italic" lengthAdjust="spacing" textLength="134" x="210" y="53.5716">ExceptionalWorkingDay</text></g></a><!--class com.enttribe.hrms.service.ExceptionalWorkingDayService--><a href="../ExceptionalWorkingDayService.html" target="_top" title="../ExceptionalWorkingDayService.html" xlink:actuate="onRequest" xlink:href="../ExceptionalWorkingDayService.html" xlink:show="new" xlink:title="../ExceptionalWorkingDayService.html" xlink:type="simple"><g id="elem_com.enttribe.hrms.service.ExceptionalWorkingDayService"><rect codeLine="15" fill="#F1F1F1" height="112.2188" id="com.enttribe.hrms.service.ExceptionalWorkingDayService" rx="2.5" ry="2.5" style="stroke:#181818;stroke-width:0.5;" width="336" x="377.5" y="7"/><ellipse cx="436.25" cy="26.1328" fill="#B4A7E5" rx="11" ry="11" style="stroke:#181818;stroke-width:1.0;"/><path d="M432.6777,22.3979 L432.6777,20.2397 L440.0571,20.2397 L440.0571,22.3979 L437.5918,22.3979 L437.5918,30.4746 L440.0571,30.4746 L440.0571,32.6328 L432.6777,32.6328 L432.6777,30.4746 L435.1431,30.4746 L435.1431,22.3979 Z " fill="#000000"/><text fill="#000000" font-family="sans-serif" font-size="14" font-style="italic" lengthAdjust="spacing" textLength="210" x="456.75" y="25.5352">ExceptionalWorkingDayService</text><text fill="#000000" font-family="sans-serif" font-size="10" font-style="italic" lengthAdjust="spacing" textLength="126" x="498.75" y="38.1563">com.enttribe.hrms.service</text><line style="stroke:#181818;stroke-width:0.5;" x1="378.5" x2="712.5" y1="45.2656" y2="45.2656"/><ellipse cx="388.5" cy="59.0098" fill="#84BE84" rx="3" ry="3" style="stroke:#038048;stroke-width:1.0;"/><text fill="#000000" font-family="sans-serif" font-size="14" font-style="italic" lengthAdjust="spacing" textLength="274" x="397.5" y="62.8008">auditHistory(int, Integer, Integer): String</text><ellipse cx="388.5" cy="75.498" fill="#84BE84" rx="3" ry="3" style="stroke:#038048;stroke-width:1.0;"/><text fill="#000000" font-family="sans-serif" font-size="14" font-style="italic" lengthAdjust="spacing" textLength="222" x="397.5" y="79.2891">importData(MultipartFile): String</text><ellipse cx="388.5" cy="91.9863" fill="#84BE84" rx="3" ry="3" style="stroke:#038048;stroke-width:1.0;"/><text fill="#000000" font-family="sans-serif" font-size="14" font-style="italic" lengthAdjust="spacing" textLength="310" x="397.5" y="95.7773">export(List&lt;ExceptionalWorkingDay&gt;): byte[]</text><ellipse cx="388.5" cy="108.4746" fill="#84BE84" rx="3" ry="3" style="stroke:#038048;stroke-width:1.0;"/><text fill="#000000" font-family="sans-serif" font-size="14" font-style="italic" lengthAdjust="spacing" textLength="214" x="397.5" y="112.2656">bulkDelete(List&lt;Integer&gt;): void</text></g></a><!--reverse link com.enttribe.hrms.service.generic.AbstractService to com.enttribe.hrms.service.impl.ExceptionalWorkingDayServiceImpl--><g id="link_com.enttribe.hrms.service.generic.AbstractService_com.enttribe.hrms.service.impl.ExceptionalWorkingDayServiceImpl"><path codeLine="22" d="M207.98,97.9 C230.36,120.48 260.65,151.05 288.26,178.91 " fill="none" id="com.enttribe.hrms.service.generic.AbstractService-backto-com.enttribe.hrms.service.impl.ExceptionalWorkingDayServiceImpl" style="stroke:#181818;stroke-width:1.0;"/><polygon fill="none" points="203.08,102.9,193.98,83.77,213.03,93.05,203.08,102.9" style="stroke:#181818;stroke-width:1.0;"/></g><!--reverse link com.enttribe.hrms.service.ExceptionalWorkingDayService to com.enttribe.hrms.service.impl.ExceptionalWorkingDayServiceImpl--><g id="link_com.enttribe.hrms.service.ExceptionalWorkingDayService_com.enttribe.hrms.service.impl.ExceptionalWorkingDayServiceImpl"><path codeLine="23" d="M475.45,134.42 C460.97,148.96 445.69,164.29 431.15,178.89 " fill="none" id="com.enttribe.hrms.service.ExceptionalWorkingDayService-backto-com.enttribe.hrms.service.impl.ExceptionalWorkingDayServiceImpl" style="stroke:#181818;stroke-width:1.0;stroke-dasharray:7.0,7.0;"/><polygon fill="none" points="470.05,129.92,489.13,120.69,479.97,139.8,470.05,129.92" style="stroke:#181818;stroke-width:1.0;"/></g><text fill="#888888" font-family="sans-serif" font-size="10" lengthAdjust="spacing" textLength="182" x="262.25" y="340.0733">UMLDoclet 2.1.0, PlantUML 1.2022.14</text><!--SRC=[fPJVQzim4CVVzrSSXO5BNRKTUoecKCX-51eO2sCFMHuKvPA8ofAHBg5Ps_zzPrkRGvBQxfgN9EVFzqvtzvK1008IM9bZAAJ2CHRIIt8UhBFuZX_3IiyHC2ze2mkDPXxsepdIod6uYYiZGu2JBEZVU7trSV3fGM51sbbfVZf_h-roABTZz1kjy3Olp2yRqSk1Shb0I-Jr3CNAvq64cXEQmHEG0TeHqLKC9fCkHAmeDzCfF5RTb9-pBado1IrwhRvZuOBcsMspevB1QPCJ7mhdARdJWLw2hs6s9PnC6n7toAAX99cCreOqhue-QuECZdaaTjcWGMwm0ila9eMHBBAQIICxIA6g7lznZfR3D8bdQtC_H8E4zU5lBU4IVQdVE3rlGELHCdGq7yD7uvNwkJQId0NoKj61esxYWxY1NWPQrXlgy52an5w55sR2PXBY8cekzZJHHbKdcaVa5tovUbwBFXrrTDAMlZvt6t5u1nx_RkCPpkHwhkahxvwDdd1lAKGF_FjnwCTTVNyNxwh-vyBiwlluDZhlrGQ1xEdy_AtlfexIhHlDdeHuS_tw05YQ5HREbLy_HdT3ftXey45SYSiKlXbfYQFmVeC-SBBaz0y0]--></g></svg>