<?xml version="1.0" encoding="UTF-8" standalone="no"?><svg xmlns="http://www.w3.org/2000/svg" xmlns:xlink="http://www.w3.org/1999/xlink" contentStyleType="text/css" height="350px" preserveAspectRatio="none" style="width:603px;height:350px;background:#FFFFFF;" version="1.1" viewBox="0 0 603 350" width="603px" zoomAndPan="magnify"><defs/><g><!--class com.enttribe.hrms.service.impl.HrLettersServiceImpl--><a href="HrLettersServiceImpl.html" target="_top" title="HrLettersServiceImpl.html" xlink:actuate="onRequest" xlink:href="HrLettersServiceImpl.html" xlink:show="new" xlink:title="HrLettersServiceImpl.html" xlink:type="simple"><g id="elem_com.enttribe.hrms.service.impl.HrLettersServiceImpl"><rect codeLine="5" fill="#F1F1F1" height="145.1953" id="com.enttribe.hrms.service.impl.HrLettersServiceImpl" rx="2.5" ry="2.5" style="stroke:#181818;stroke-width:0.5;" width="491" x="44.5" y="179.21"/><ellipse cx="210.75" cy="198.3428" fill="#ADD1B2" rx="11" ry="11" style="stroke:#181818;stroke-width:1.0;"/><path d="M213.2231,204.4859 Q212.6421,204.7847 212.0029,204.9341 Q211.3638,205.0835 210.6582,205.0835 Q208.1514,205.0835 206.8315,203.4317 Q205.5117,201.7798 205.5117,198.6587 Q205.5117,195.5293 206.8315,193.8775 Q208.1514,192.2256 210.6582,192.2256 Q211.3638,192.2256 212.0112,192.375 Q212.6587,192.5245 213.2231,192.8233 L213.2231,195.5459 Q212.5923,194.9649 211.9988,194.6951 Q211.4053,194.4253 210.7744,194.4253 Q209.4297,194.4253 208.7449,195.492 Q208.0601,196.5586 208.0601,198.6587 Q208.0601,200.7505 208.7449,201.8172 Q209.4297,202.8838 210.7744,202.8838 Q211.4053,202.8838 211.9988,202.6141 Q212.5923,202.3443 213.2231,201.7632 Z " fill="#000000"/><text fill="#000000" font-family="sans-serif" font-size="14" lengthAdjust="spacing" textLength="140" x="236.25" y="197.7452">HrLettersServiceImpl</text><text fill="#000000" font-family="sans-serif" font-size="10" lengthAdjust="spacing" textLength="150" x="231.25" y="210.3663">com.enttribe.hrms.service.impl</text><line style="stroke:#181818;stroke-width:0.5;" x1="45.5" x2="534.5" y1="217.4756" y2="217.4756"/><ellipse cx="55.5" cy="231.2198" fill="#84BE84" rx="3" ry="3" style="stroke:#038048;stroke-width:1.0;"/><text fill="#000000" font-family="sans-serif" font-size="14" lengthAdjust="spacing" textLength="359" x="64.5" y="235.0108">HrLettersServiceImpl(GenericRepository&lt;HrLetters&gt;)</text><ellipse cx="55.5" cy="247.708" fill="#84BE84" rx="3" ry="3" style="stroke:#038048;stroke-width:1.0;"/><text fill="#000000" font-family="sans-serif" font-size="14" lengthAdjust="spacing" textLength="210" x="64.5" y="251.4991">export(List&lt;HrLetters&gt;): byte[]</text><ellipse cx="55.5" cy="264.1963" fill="#84BE84" rx="3" ry="3" style="stroke:#038048;stroke-width:1.0;"/><text fill="#000000" font-family="sans-serif" font-size="14" lengthAdjust="spacing" textLength="222" x="64.5" y="267.9873">importData(MultipartFile): String</text><ellipse cx="55.5" cy="280.6846" fill="#84BE84" rx="3" ry="3" style="stroke:#038048;stroke-width:1.0;"/><text fill="#000000" font-family="sans-serif" font-size="14" lengthAdjust="spacing" textLength="465" x="64.5" y="284.4756">saveData(Excel, Map&lt;String, String&gt;, List&lt;String&gt;): List&lt;HrLetters&gt;</text><ellipse cx="55.5" cy="297.1729" fill="#84BE84" rx="3" ry="3" style="stroke:#038048;stroke-width:1.0;"/><text fill="#000000" font-family="sans-serif" font-size="14" lengthAdjust="spacing" textLength="214" x="64.5" y="300.9639">bulkDelete(List&lt;Integer&gt;): void</text><ellipse cx="55.5" cy="313.6612" fill="#84BE84" rx="3" ry="3" style="stroke:#038048;stroke-width:1.0;"/><text fill="#000000" font-family="sans-serif" font-size="14" lengthAdjust="spacing" textLength="184" x="64.5" y="317.4522">create(HrLetters): HrLetters</text></g></a><!--class com.enttribe.hrms.service.generic.AbstractService--><a href="../generic/AbstractService.html" target="_top" title="../generic/AbstractService.html" xlink:actuate="onRequest" xlink:href="../generic/AbstractService.html" xlink:show="new" xlink:title="../generic/AbstractService.html" xlink:type="simple"><g id="elem_com.enttribe.hrms.service.generic.AbstractService"><rect codeLine="14" fill="#F1F1F1" height="38.2656" id="com.enttribe.hrms.service.generic.AbstractService" rx="2.5" ry="2.5" style="stroke:#181818;stroke-width:0.5;" width="254" x="7" y="43.97"/><ellipse cx="22" cy="63.1028" fill="#A9DCDF" rx="11" ry="11" style="stroke:#181818;stroke-width:1.0;"/><path d="M21.8633,58.451 L20.7095,63.5227 L23.0254,63.5227 Z M20.3691,56.2097 L23.3657,56.2097 L26.7109,68.6028 L24.2622,68.6028 L23.4985,65.5398 L20.2197,65.5398 L19.4727,68.6028 L17.0239,68.6028 Z " fill="#000000"/><text fill="#000000" font-family="sans-serif" font-size="14" font-style="italic" lengthAdjust="spacing" textLength="105" x="66" y="62.5052">AbstractService</text><text fill="#000000" font-family="sans-serif" font-size="10" font-style="italic" lengthAdjust="spacing" textLength="165" x="36" y="75.1263">com.enttribe.hrms.service.generic</text><rect fill="#FFFFFF" height="16.1328" style="stroke:#181818;stroke-width:1.0;stroke-dasharray:2.0,2.0;" width="55" x="209" y="40.97"/><text fill="#000000" font-family="sans-serif" font-size="12" font-style="italic" lengthAdjust="spacing" textLength="53" x="210" y="53.5716">HrLetters</text></g></a><!--class com.enttribe.hrms.service.HrLettersService--><a href="../HrLettersService.html" target="_top" title="../HrLettersService.html" xlink:actuate="onRequest" xlink:href="../HrLettersService.html" xlink:show="new" xlink:title="../HrLettersService.html" xlink:type="simple"><g id="elem_com.enttribe.hrms.service.HrLettersService"><rect codeLine="15" fill="#F1F1F1" height="112.2188" id="com.enttribe.hrms.service.HrLettersService" rx="2.5" ry="2.5" style="stroke:#181818;stroke-width:0.5;" width="300" x="296" y="7"/><ellipse cx="378.75" cy="26.1328" fill="#B4A7E5" rx="11" ry="11" style="stroke:#181818;stroke-width:1.0;"/><path d="M375.1777,22.3979 L375.1777,20.2397 L382.5571,20.2397 L382.5571,22.3979 L380.0918,22.3979 L380.0918,30.4746 L382.5571,30.4746 L382.5571,32.6328 L375.1777,32.6328 L375.1777,30.4746 L377.6431,30.4746 L377.6431,22.3979 Z " fill="#000000"/><text fill="#000000" font-family="sans-serif" font-size="14" font-style="italic" lengthAdjust="spacing" textLength="110" x="407.25" y="25.5352">HrLettersService</text><text fill="#000000" font-family="sans-serif" font-size="10" font-style="italic" lengthAdjust="spacing" textLength="126" x="399.25" y="38.1563">com.enttribe.hrms.service</text><line style="stroke:#181818;stroke-width:0.5;" x1="297" x2="595" y1="45.2656" y2="45.2656"/><ellipse cx="307" cy="59.0098" fill="#84BE84" rx="3" ry="3" style="stroke:#038048;stroke-width:1.0;"/><text fill="#000000" font-family="sans-serif" font-size="14" font-style="italic" lengthAdjust="spacing" textLength="274" x="316" y="62.8008">auditHistory(int, Integer, Integer): String</text><ellipse cx="307" cy="75.498" fill="#84BE84" rx="3" ry="3" style="stroke:#038048;stroke-width:1.0;"/><text fill="#000000" font-family="sans-serif" font-size="14" font-style="italic" lengthAdjust="spacing" textLength="222" x="316" y="79.2891">importData(MultipartFile): String</text><ellipse cx="307" cy="91.9863" fill="#84BE84" rx="3" ry="3" style="stroke:#038048;stroke-width:1.0;"/><text fill="#000000" font-family="sans-serif" font-size="14" font-style="italic" lengthAdjust="spacing" textLength="210" x="316" y="95.7773">export(List&lt;HrLetters&gt;): byte[]</text><ellipse cx="307" cy="108.4746" fill="#84BE84" rx="3" ry="3" style="stroke:#038048;stroke-width:1.0;"/><text fill="#000000" font-family="sans-serif" font-size="14" font-style="italic" lengthAdjust="spacing" textLength="214" x="316" y="112.2656">bulkDelete(List&lt;Integer&gt;): void</text></g></a><!--reverse link com.enttribe.hrms.service.generic.AbstractService to com.enttribe.hrms.service.impl.HrLettersServiceImpl--><g id="link_com.enttribe.hrms.service.generic.AbstractService_com.enttribe.hrms.service.impl.HrLettersServiceImpl"><path codeLine="22" d="M163.07,98.89 C181.85,121.37 206.98,151.45 229.93,178.91 " fill="none" id="com.enttribe.hrms.service.generic.AbstractService-backto-com.enttribe.hrms.service.impl.HrLettersServiceImpl" style="stroke:#181818;stroke-width:1.0;"/><polygon fill="none" points="157.95,103.69,150.5,83.85,168.69,94.71,157.95,103.69" style="stroke:#181818;stroke-width:1.0;"/></g><!--reverse link com.enttribe.hrms.service.HrLettersService to com.enttribe.hrms.service.impl.HrLettersServiceImpl--><g id="link_com.enttribe.hrms.service.HrLettersService_com.enttribe.hrms.service.impl.HrLettersServiceImpl"><path codeLine="23" d="M386.1,135.8 C374.29,149.92 361.91,164.75 350.09,178.89 " fill="none" id="com.enttribe.hrms.service.HrLettersService-backto-com.enttribe.hrms.service.impl.HrLettersServiceImpl" style="stroke:#181818;stroke-width:1.0;stroke-dasharray:7.0,7.0;"/><polygon fill="none" points="380.45,131.64,398.65,120.78,391.19,140.62,380.45,131.64" style="stroke:#181818;stroke-width:1.0;"/></g><text fill="#888888" font-family="sans-serif" font-size="10" lengthAdjust="spacing" textLength="182" x="203.5" y="340.0733">UMLDoclet 2.1.0, PlantUML 1.2022.14</text><!--SRC=[dPDDQ-Cm48Rl-ok6Gi6bhjekUoecKCZs0n9ODkmfpK5H9ebOMJBI93JRzh_ln5PZuuJ6hI-MHyzeHlE-1W08I61bZg6G2aTOI2_9UR3EuZVUXgMU8M1Uq0Rc6iqijACvqj9nk8mh8qE0aopeVtXp_QFtu0T8X3wCqA-rmiUyC4ysRb_rbCi5MYAlfoYMFWyYL9pG39w03F0n8WuLWF7uK5WiAJUJ2RoKdMwVyqDOSeyMlLQ_iN11yomssGxhdTMv-5muJyb01se2Dp3T48udDSXzCjYN99FXof3c4TETDiZeYAzb5pKQv1fByEUpGfF2K1PPnQIHxQLGLenVV4QhWVgmwShyxQD1mgh9HqkuGB_DMJizgq7bKJAqEuE1tRgatYfnvJIGbuhsLBwD6t6AdGHUL5C-ed6aHAj2uxuijX2NaRjiSL7oidlDr_TpDla7zkpI-P6EsqTM_RMZ-rvyUP_k6vpBrKpJ0sl6vakuxnIYThl5ldUQ-TqTrypgQkXcJXUFHVTyMcJ8NYykllB_7octfr3sAiINwbI5S6iic3ktVVqP3lfEyK3WkxWMLodyCj8IH-5qpTdQsUJiFm00]--></g></svg>