<?xml version="1.0" encoding="UTF-8" standalone="no"?><svg xmlns="http://www.w3.org/2000/svg" xmlns:xlink="http://www.w3.org/1999/xlink" contentStyleType="text/css" height="350px" preserveAspectRatio="none" style="width:647px;height:350px;background:#FFFFFF;" version="1.1" viewBox="0 0 647 350" width="647px" zoomAndPan="magnify"><defs/><g><!--class com.enttribe.hrms.service.impl.LeaveEntitlementServiceImpl--><a href="LeaveEntitlementServiceImpl.html" target="_top" title="LeaveEntitlementServiceImpl.html" xlink:actuate="onRequest" xlink:href="LeaveEntitlementServiceImpl.html" xlink:show="new" xlink:title="LeaveEntitlementServiceImpl.html" xlink:type="simple"><g id="elem_com.enttribe.hrms.service.impl.LeaveEntitlementServiceImpl"><rect codeLine="5" fill="#F1F1F1" height="145.1953" id="com.enttribe.hrms.service.impl.LeaveEntitlementServiceImpl" rx="2.5" ry="2.5" style="stroke:#181818;stroke-width:0.5;" width="545" x="50.5" y="179.21"/><ellipse cx="221.75" cy="198.3428" fill="#ADD1B2" rx="11" ry="11" style="stroke:#181818;stroke-width:1.0;"/><path d="M224.2231,204.4859 Q223.6421,204.7847 223.0029,204.9341 Q222.3638,205.0835 221.6582,205.0835 Q219.1514,205.0835 217.8315,203.4317 Q216.5117,201.7798 216.5117,198.6587 Q216.5117,195.5293 217.8315,193.8775 Q219.1514,192.2256 221.6582,192.2256 Q222.3638,192.2256 223.0112,192.375 Q223.6587,192.5245 224.2231,192.8233 L224.2231,195.5459 Q223.5923,194.9649 222.9988,194.6951 Q222.4053,194.4253 221.7744,194.4253 Q220.4297,194.4253 219.7449,195.492 Q219.0601,196.5586 219.0601,198.6587 Q219.0601,200.7505 219.7449,201.8172 Q220.4297,202.8838 221.7744,202.8838 Q222.4053,202.8838 222.9988,202.6141 Q223.5923,202.3443 224.2231,201.7632 Z " fill="#000000"/><text fill="#000000" font-family="sans-serif" font-size="14" lengthAdjust="spacing" textLength="194" x="242.25" y="197.7452">LeaveEntitlementServiceImpl</text><text fill="#000000" font-family="sans-serif" font-size="10" lengthAdjust="spacing" textLength="150" x="264.25" y="210.3663">com.enttribe.hrms.service.impl</text><line style="stroke:#181818;stroke-width:0.5;" x1="51.5" x2="594.5" y1="217.4756" y2="217.4756"/><ellipse cx="61.5" cy="231.2198" fill="#84BE84" rx="3" ry="3" style="stroke:#038048;stroke-width:1.0;"/><text fill="#000000" font-family="sans-serif" font-size="14" lengthAdjust="spacing" textLength="467" x="70.5" y="235.0108">LeaveEntitlementServiceImpl(GenericRepository&lt;LeaveEntitlement&gt;)</text><ellipse cx="61.5" cy="247.708" fill="#84BE84" rx="3" ry="3" style="stroke:#038048;stroke-width:1.0;"/><text fill="#000000" font-family="sans-serif" font-size="14" lengthAdjust="spacing" textLength="264" x="70.5" y="251.4991">export(List&lt;LeaveEntitlement&gt;): byte[]</text><ellipse cx="61.5" cy="264.1963" fill="#84BE84" rx="3" ry="3" style="stroke:#038048;stroke-width:1.0;"/><text fill="#000000" font-family="sans-serif" font-size="14" lengthAdjust="spacing" textLength="222" x="70.5" y="267.9873">importData(MultipartFile): String</text><ellipse cx="61.5" cy="280.6846" fill="#84BE84" rx="3" ry="3" style="stroke:#038048;stroke-width:1.0;"/><text fill="#000000" font-family="sans-serif" font-size="14" lengthAdjust="spacing" textLength="519" x="70.5" y="284.4756">saveData(Excel, Map&lt;String, String&gt;, List&lt;String&gt;): List&lt;LeaveEntitlement&gt;</text><ellipse cx="61.5" cy="297.1729" fill="#84BE84" rx="3" ry="3" style="stroke:#038048;stroke-width:1.0;"/><text fill="#000000" font-family="sans-serif" font-size="14" lengthAdjust="spacing" textLength="214" x="70.5" y="300.9639">bulkDelete(List&lt;Integer&gt;): void</text><ellipse cx="61.5" cy="313.6612" fill="#84BE84" rx="3" ry="3" style="stroke:#038048;stroke-width:1.0;"/><text fill="#000000" font-family="sans-serif" font-size="14" lengthAdjust="spacing" textLength="292" x="70.5" y="317.4522">create(LeaveEntitlement): LeaveEntitlement</text></g></a><!--class com.enttribe.hrms.service.generic.AbstractService--><a href="../generic/AbstractService.html" target="_top" title="../generic/AbstractService.html" xlink:actuate="onRequest" xlink:href="../generic/AbstractService.html" xlink:show="new" xlink:title="../generic/AbstractService.html" xlink:type="simple"><g id="elem_com.enttribe.hrms.service.generic.AbstractService"><rect codeLine="14" fill="#F1F1F1" height="38.2656" id="com.enttribe.hrms.service.generic.AbstractService" rx="2.5" ry="2.5" style="stroke:#181818;stroke-width:0.5;" width="298" x="7" y="43.97"/><ellipse cx="22" cy="63.1028" fill="#A9DCDF" rx="11" ry="11" style="stroke:#181818;stroke-width:1.0;"/><path d="M21.8633,58.451 L20.7095,63.5227 L23.0254,63.5227 Z M20.3691,56.2097 L23.3657,56.2097 L26.7109,68.6028 L24.2622,68.6028 L23.4985,65.5398 L20.2197,65.5398 L19.4727,68.6028 L17.0239,68.6028 Z " fill="#000000"/><text fill="#000000" font-family="sans-serif" font-size="14" font-style="italic" lengthAdjust="spacing" textLength="105" x="66" y="62.5052">AbstractService</text><text fill="#000000" font-family="sans-serif" font-size="10" font-style="italic" lengthAdjust="spacing" textLength="165" x="36" y="75.1263">com.enttribe.hrms.service.generic</text><rect fill="#FFFFFF" height="16.1328" style="stroke:#181818;stroke-width:1.0;stroke-dasharray:2.0,2.0;" width="99" x="209" y="40.97"/><text fill="#000000" font-family="sans-serif" font-size="12" font-style="italic" lengthAdjust="spacing" textLength="97" x="210" y="53.5716">LeaveEntitlement</text></g></a><!--class com.enttribe.hrms.service.LeaveEntitlementService--><a href="../LeaveEntitlementService.html" target="_top" title="../LeaveEntitlementService.html" xlink:actuate="onRequest" xlink:href="../LeaveEntitlementService.html" xlink:show="new" xlink:title="../LeaveEntitlementService.html" xlink:type="simple"><g id="elem_com.enttribe.hrms.service.LeaveEntitlementService"><rect codeLine="15" fill="#F1F1F1" height="112.2188" id="com.enttribe.hrms.service.LeaveEntitlementService" rx="2.5" ry="2.5" style="stroke:#181818;stroke-width:0.5;" width="300" x="340" y="7"/><ellipse cx="403.75" cy="26.1328" fill="#B4A7E5" rx="11" ry="11" style="stroke:#181818;stroke-width:1.0;"/><path d="M400.1777,22.3979 L400.1777,20.2397 L407.5571,20.2397 L407.5571,22.3979 L405.0918,22.3979 L405.0918,30.4746 L407.5571,30.4746 L407.5571,32.6328 L400.1777,32.6328 L400.1777,30.4746 L402.6431,30.4746 L402.6431,22.3979 Z " fill="#000000"/><text fill="#000000" font-family="sans-serif" font-size="14" font-style="italic" lengthAdjust="spacing" textLength="164" x="424.25" y="25.5352">LeaveEntitlementService</text><text fill="#000000" font-family="sans-serif" font-size="10" font-style="italic" lengthAdjust="spacing" textLength="126" x="443.25" y="38.1563">com.enttribe.hrms.service</text><line style="stroke:#181818;stroke-width:0.5;" x1="341" x2="639" y1="45.2656" y2="45.2656"/><ellipse cx="351" cy="59.0098" fill="#84BE84" rx="3" ry="3" style="stroke:#038048;stroke-width:1.0;"/><text fill="#000000" font-family="sans-serif" font-size="14" font-style="italic" lengthAdjust="spacing" textLength="274" x="360" y="62.8008">auditHistory(int, Integer, Integer): String</text><ellipse cx="351" cy="75.498" fill="#84BE84" rx="3" ry="3" style="stroke:#038048;stroke-width:1.0;"/><text fill="#000000" font-family="sans-serif" font-size="14" font-style="italic" lengthAdjust="spacing" textLength="222" x="360" y="79.2891">importData(MultipartFile): String</text><ellipse cx="351" cy="91.9863" fill="#84BE84" rx="3" ry="3" style="stroke:#038048;stroke-width:1.0;"/><text fill="#000000" font-family="sans-serif" font-size="14" font-style="italic" lengthAdjust="spacing" textLength="264" x="360" y="95.7773">export(List&lt;LeaveEntitlement&gt;): byte[]</text><ellipse cx="351" cy="108.4746" fill="#84BE84" rx="3" ry="3" style="stroke:#038048;stroke-width:1.0;"/><text fill="#000000" font-family="sans-serif" font-size="14" font-style="italic" lengthAdjust="spacing" textLength="214" x="360" y="112.2656">bulkDelete(List&lt;Integer&gt;): void</text></g></a><!--reverse link com.enttribe.hrms.service.generic.AbstractService to com.enttribe.hrms.service.impl.LeaveEntitlementServiceImpl--><g id="link_com.enttribe.hrms.service.generic.AbstractService_com.enttribe.hrms.service.impl.LeaveEntitlementServiceImpl"><path codeLine="22" d="M186.82,98.56 C206.96,121.08 234.01,151.32 258.69,178.91 " fill="none" id="com.enttribe.hrms.service.generic.AbstractService-backto-com.enttribe.hrms.service.impl.LeaveEntitlementServiceImpl" style="stroke:#181818;stroke-width:1.0;"/><polygon fill="none" points="181.75,103.39,173.63,83.82,192.18,94.06,181.75,103.39" style="stroke:#181818;stroke-width:1.0;"/></g><!--reverse link com.enttribe.hrms.service.LeaveEntitlementService to com.enttribe.hrms.service.impl.LeaveEntitlementServiceImpl--><g id="link_com.enttribe.hrms.service.LeaveEntitlementService_com.enttribe.hrms.service.impl.LeaveEntitlementServiceImpl"><path codeLine="23" d="M426.29,135.34 C413.53,149.6 400.11,164.6 387.33,178.89 " fill="none" id="com.enttribe.hrms.service.LeaveEntitlementService-backto-com.enttribe.hrms.service.impl.LeaveEntitlementServiceImpl" style="stroke:#181818;stroke-width:1.0;stroke-dasharray:7.0,7.0;"/><polygon fill="none" points="420.79,130.99,439.34,120.75,431.22,140.32,420.79,130.99" style="stroke:#181818;stroke-width:1.0;"/></g><text fill="#888888" font-family="sans-serif" font-size="10" lengthAdjust="spacing" textLength="182" x="225.5" y="340.0733">UMLDoclet 2.1.0, PlantUML 1.2022.14</text><!--SRC=[fPHBQ-Cm4CVl-oc6Gi6bhlfWJyK42cbt2mcKXZrbSr2KII8gIqQQXAQFxxvZMrq7ftcKvf9avZVllmq04930oXn38HKEi91UalDWdSKVx8QvdY1WNj0AfXhD9BIjETBSiRcoAoD3WACiw1UyllpPwQ5SugqbJGPpj3H0lzGAx_F2_BMHkkWebmjsajTZ57EV1n5gJcW6Zq06s8s87NLWEDpX5NFApMW4hrNxvUTq1vtyGejUgqSiND2yfrNMfZidJIPyBfodfAS3VS9TmtX5E1mrF8_2V5UIJFeBGvgFGNVQ8AC3djpE6ZHmjWgyVLPeKkZB8gkPDBAT5Ah2yH_d-BoF9kTuOPwwQ92mRldU4ixGbw5BfoSDg3pA4cgbAakqJ5NCUwqDEGxafQ8DaTn4HrpqGSAOrOVOeur8YLQ5pIMmI8GuZ_Xv2uyQgORGl1C_vKTblyWFcMDF_riorzrkSMug-lLZy-zmAXSJJR_vkgpTX8T98Lxv_uzDiQt77oxHzQWlFWZheOU8CWhiopg0xEtix1klbZrLjrqlUnFYErNhibWg4QREbLz_-hskKxmbk1ANuYA51oCjiHMEb-Y3TZOv-GS0]--></g></svg>