<?xml version="1.0" encoding="UTF-8" standalone="no"?><svg xmlns="http://www.w3.org/2000/svg" xmlns:xlink="http://www.w3.org/1999/xlink" contentStyleType="text/css" height="350px" preserveAspectRatio="none" style="width:645px;height:350px;background:#FFFFFF;" version="1.1" viewBox="0 0 645 350" width="645px" zoomAndPan="magnify"><defs/><g><!--class com.enttribe.hrms.service.impl.PayPeriodSettingServiceImpl--><a href="PayPeriodSettingServiceImpl.html" target="_top" title="PayPeriodSettingServiceImpl.html" xlink:actuate="onRequest" xlink:href="PayPeriodSettingServiceImpl.html" xlink:show="new" xlink:title="PayPeriodSettingServiceImpl.html" xlink:type="simple"><g id="elem_com.enttribe.hrms.service.impl.PayPeriodSettingServiceImpl"><rect codeLine="5" fill="#F1F1F1" height="145.1953" id="com.enttribe.hrms.service.impl.PayPeriodSettingServiceImpl" rx="2.5" ry="2.5" style="stroke:#181818;stroke-width:0.5;" width="544" x="49" y="179.21"/><ellipse cx="220.25" cy="198.3428" fill="#ADD1B2" rx="11" ry="11" style="stroke:#181818;stroke-width:1.0;"/><path d="M222.7231,204.4859 Q222.1421,204.7847 221.5029,204.9341 Q220.8638,205.0835 220.1582,205.0835 Q217.6514,205.0835 216.3315,203.4317 Q215.0117,201.7798 215.0117,198.6587 Q215.0117,195.5293 216.3315,193.8775 Q217.6514,192.2256 220.1582,192.2256 Q220.8638,192.2256 221.5112,192.375 Q222.1587,192.5245 222.7231,192.8233 L222.7231,195.5459 Q222.0923,194.9649 221.4988,194.6951 Q220.9053,194.4253 220.2744,194.4253 Q218.9297,194.4253 218.2449,195.492 Q217.5601,196.5586 217.5601,198.6587 Q217.5601,200.7505 218.2449,201.8172 Q218.9297,202.8838 220.2744,202.8838 Q220.9053,202.8838 221.4988,202.6141 Q222.0923,202.3443 222.7231,201.7632 Z " fill="#000000"/><text fill="#000000" font-family="sans-serif" font-size="14" lengthAdjust="spacing" textLength="193" x="240.75" y="197.7452">PayPeriodSettingServiceImpl</text><text fill="#000000" font-family="sans-serif" font-size="10" lengthAdjust="spacing" textLength="150" x="262.25" y="210.3663">com.enttribe.hrms.service.impl</text><line style="stroke:#181818;stroke-width:0.5;" x1="50" x2="592" y1="217.4756" y2="217.4756"/><ellipse cx="60" cy="231.2198" fill="#84BE84" rx="3" ry="3" style="stroke:#038048;stroke-width:1.0;"/><text fill="#000000" font-family="sans-serif" font-size="14" lengthAdjust="spacing" textLength="465" x="69" y="235.0108">PayPeriodSettingServiceImpl(GenericRepository&lt;PayPeriodSetting&gt;)</text><ellipse cx="60" cy="247.708" fill="#84BE84" rx="3" ry="3" style="stroke:#038048;stroke-width:1.0;"/><text fill="#000000" font-family="sans-serif" font-size="14" lengthAdjust="spacing" textLength="263" x="69" y="251.4991">export(List&lt;PayPeriodSetting&gt;): byte[]</text><ellipse cx="60" cy="264.1963" fill="#84BE84" rx="3" ry="3" style="stroke:#038048;stroke-width:1.0;"/><text fill="#000000" font-family="sans-serif" font-size="14" lengthAdjust="spacing" textLength="222" x="69" y="267.9873">importData(MultipartFile): String</text><ellipse cx="60" cy="280.6846" fill="#84BE84" rx="3" ry="3" style="stroke:#038048;stroke-width:1.0;"/><text fill="#000000" font-family="sans-serif" font-size="14" lengthAdjust="spacing" textLength="518" x="69" y="284.4756">saveData(Excel, Map&lt;String, String&gt;, List&lt;String&gt;): List&lt;PayPeriodSetting&gt;</text><ellipse cx="60" cy="297.1729" fill="#84BE84" rx="3" ry="3" style="stroke:#038048;stroke-width:1.0;"/><text fill="#000000" font-family="sans-serif" font-size="14" lengthAdjust="spacing" textLength="214" x="69" y="300.9639">bulkDelete(List&lt;Integer&gt;): void</text><ellipse cx="60" cy="313.6612" fill="#84BE84" rx="3" ry="3" style="stroke:#038048;stroke-width:1.0;"/><text fill="#000000" font-family="sans-serif" font-size="14" lengthAdjust="spacing" textLength="290" x="69" y="317.4522">create(PayPeriodSetting): PayPeriodSetting</text></g></a><!--class com.enttribe.hrms.service.generic.AbstractService--><a href="../generic/AbstractService.html" target="_top" title="../generic/AbstractService.html" xlink:actuate="onRequest" xlink:href="../generic/AbstractService.html" xlink:show="new" xlink:title="../generic/AbstractService.html" xlink:type="simple"><g id="elem_com.enttribe.hrms.service.generic.AbstractService"><rect codeLine="14" fill="#F1F1F1" height="38.2656" id="com.enttribe.hrms.service.generic.AbstractService" rx="2.5" ry="2.5" style="stroke:#181818;stroke-width:0.5;" width="296" x="7" y="43.97"/><ellipse cx="22" cy="63.1028" fill="#A9DCDF" rx="11" ry="11" style="stroke:#181818;stroke-width:1.0;"/><path d="M21.8633,58.451 L20.7095,63.5227 L23.0254,63.5227 Z M20.3691,56.2097 L23.3657,56.2097 L26.7109,68.6028 L24.2622,68.6028 L23.4985,65.5398 L20.2197,65.5398 L19.4727,68.6028 L17.0239,68.6028 Z " fill="#000000"/><text fill="#000000" font-family="sans-serif" font-size="14" font-style="italic" lengthAdjust="spacing" textLength="105" x="66" y="62.5052">AbstractService</text><text fill="#000000" font-family="sans-serif" font-size="10" font-style="italic" lengthAdjust="spacing" textLength="165" x="36" y="75.1263">com.enttribe.hrms.service.generic</text><rect fill="#FFFFFF" height="16.1328" style="stroke:#181818;stroke-width:1.0;stroke-dasharray:2.0,2.0;" width="97" x="209" y="40.97"/><text fill="#000000" font-family="sans-serif" font-size="12" font-style="italic" lengthAdjust="spacing" textLength="95" x="210" y="53.5716">PayPeriodSetting</text></g></a><!--class com.enttribe.hrms.service.PayPeriodSettingService--><a href="../PayPeriodSettingService.html" target="_top" title="../PayPeriodSettingService.html" xlink:actuate="onRequest" xlink:href="../PayPeriodSettingService.html" xlink:show="new" xlink:title="../PayPeriodSettingService.html" xlink:type="simple"><g id="elem_com.enttribe.hrms.service.PayPeriodSettingService"><rect codeLine="15" fill="#F1F1F1" height="112.2188" id="com.enttribe.hrms.service.PayPeriodSettingService" rx="2.5" ry="2.5" style="stroke:#181818;stroke-width:0.5;" width="300" x="338" y="7"/><ellipse cx="402.25" cy="26.1328" fill="#B4A7E5" rx="11" ry="11" style="stroke:#181818;stroke-width:1.0;"/><path d="M398.6777,22.3979 L398.6777,20.2397 L406.0571,20.2397 L406.0571,22.3979 L403.5918,22.3979 L403.5918,30.4746 L406.0571,30.4746 L406.0571,32.6328 L398.6777,32.6328 L398.6777,30.4746 L401.1431,30.4746 L401.1431,22.3979 Z " fill="#000000"/><text fill="#000000" font-family="sans-serif" font-size="14" font-style="italic" lengthAdjust="spacing" textLength="163" x="422.75" y="25.5352">PayPeriodSettingService</text><text fill="#000000" font-family="sans-serif" font-size="10" font-style="italic" lengthAdjust="spacing" textLength="126" x="441.25" y="38.1563">com.enttribe.hrms.service</text><line style="stroke:#181818;stroke-width:0.5;" x1="339" x2="637" y1="45.2656" y2="45.2656"/><ellipse cx="349" cy="59.0098" fill="#84BE84" rx="3" ry="3" style="stroke:#038048;stroke-width:1.0;"/><text fill="#000000" font-family="sans-serif" font-size="14" font-style="italic" lengthAdjust="spacing" textLength="274" x="358" y="62.8008">auditHistory(int, Integer, Integer): String</text><ellipse cx="349" cy="75.498" fill="#84BE84" rx="3" ry="3" style="stroke:#038048;stroke-width:1.0;"/><text fill="#000000" font-family="sans-serif" font-size="14" font-style="italic" lengthAdjust="spacing" textLength="222" x="358" y="79.2891">importData(MultipartFile): String</text><ellipse cx="349" cy="91.9863" fill="#84BE84" rx="3" ry="3" style="stroke:#038048;stroke-width:1.0;"/><text fill="#000000" font-family="sans-serif" font-size="14" font-style="italic" lengthAdjust="spacing" textLength="263" x="358" y="95.7773">export(List&lt;PayPeriodSetting&gt;): byte[]</text><ellipse cx="349" cy="108.4746" fill="#84BE84" rx="3" ry="3" style="stroke:#038048;stroke-width:1.0;"/><text fill="#000000" font-family="sans-serif" font-size="14" font-style="italic" lengthAdjust="spacing" textLength="214" x="358" y="112.2656">bulkDelete(List&lt;Integer&gt;): void</text></g></a><!--reverse link com.enttribe.hrms.service.generic.AbstractService to com.enttribe.hrms.service.impl.PayPeriodSettingServiceImpl--><g id="link_com.enttribe.hrms.service.generic.AbstractService_com.enttribe.hrms.service.impl.PayPeriodSettingServiceImpl"><path codeLine="22" d="M185.63,98.56 C205.65,121.08 232.54,151.32 257.08,178.91 " fill="none" id="com.enttribe.hrms.service.generic.AbstractService-backto-com.enttribe.hrms.service.impl.PayPeriodSettingServiceImpl" style="stroke:#181818;stroke-width:1.0;"/><polygon fill="none" points="180.59,103.42,172.53,83.82,191.05,94.12,180.59,103.42" style="stroke:#181818;stroke-width:1.0;"/></g><!--reverse link com.enttribe.hrms.service.PayPeriodSettingService to com.enttribe.hrms.service.impl.PayPeriodSettingServiceImpl--><g id="link_com.enttribe.hrms.service.PayPeriodSettingService_com.enttribe.hrms.service.impl.PayPeriodSettingServiceImpl"><path codeLine="23" d="M424.29,135.34 C411.53,149.6 398.11,164.6 385.33,178.89 " fill="none" id="com.enttribe.hrms.service.PayPeriodSettingService-backto-com.enttribe.hrms.service.impl.PayPeriodSettingServiceImpl" style="stroke:#181818;stroke-width:1.0;stroke-dasharray:7.0,7.0;"/><polygon fill="none" points="418.79,130.99,437.34,120.75,429.22,140.32,418.79,130.99" style="stroke:#181818;stroke-width:1.0;"/></g><text fill="#888888" font-family="sans-serif" font-size="10" lengthAdjust="spacing" textLength="182" x="224.5" y="340.0733">UMLDoclet 2.1.0, PlantUML 1.2022.14</text><!--SRC=[fPHBQ-Cm4CVl_HH3OS6bhjekFHKJMCZs0Gs43JrbSr3aII9Mbemq2KqVtxqJMrq7ftcKvf9avZVllmq04930oW93AHKEi9HUalDWdSKZTiDCvmXObBI4YKQJXxQrG9evDbTsPMG8S9m5_OpNbrUTlbpsqMkN3v18s-a0_K8hl2zAyzT6wgAZN27G4dazHZ7pHH2XveHcy1XaWDs8s547XiCTNZ6Zmen6y5Arl_gSxg2JMxJiKd-mT47pdfPPc-wSD9dmgNIUaWSTw1Fk6iPBmk6euNaKvhkIPDAR6z9y3BhH1XaTyEHssg11Bh02VpyfD2dqP9dLJ1hPJWfLuVYFStpUHvDpF3V_kcYGi6xvtX9EqQz25qxd3QWyIeRQgPXhcwgOjreRSXp8IqKR8laL7N7H1mbZMXzYZpOY9LeLDfV08X7YFEBdBJngf1f2yqxyX1-L_I8_P8uz_M_9N7UxnRcfw9UFpR_1gPpdckxukgpTX8T98Lxv_uzDiQt77oxHzQWlFWZheOU8CWhiopg0xFNix1klbZrLjrqlUnNYErNhihXI8aoSMtqzzXwwJl6MuAUu51Sfz8sqn5RuiK0VjBF9oJi0]--></g></svg>