<?xml version="1.0" encoding="UTF-8" standalone="no"?><svg xmlns="http://www.w3.org/2000/svg" xmlns:xlink="http://www.w3.org/1999/xlink" contentStyleType="text/css" height="350px" preserveAspectRatio="none" style="width:587px;height:350px;background:#FFFFFF;" version="1.1" viewBox="0 0 587 350" width="587px" zoomAndPan="magnify"><defs/><g><!--class com.enttribe.hrms.service.impl.PayrollServiceImpl--><a href="PayrollServiceImpl.html" target="_top" title="PayrollServiceImpl.html" xlink:actuate="onRequest" xlink:href="PayrollServiceImpl.html" xlink:show="new" xlink:title="PayrollServiceImpl.html" xlink:type="simple"><g id="elem_com.enttribe.hrms.service.impl.PayrollServiceImpl"><rect codeLine="5" fill="#F1F1F1" height="145.1953" id="com.enttribe.hrms.service.impl.PayrollServiceImpl" rx="2.5" ry="2.5" style="stroke:#181818;stroke-width:0.5;" width="475" x="41" y="179.21"/><ellipse cx="199.25" cy="198.3428" fill="#ADD1B2" rx="11" ry="11" style="stroke:#181818;stroke-width:1.0;"/><path d="M201.7231,204.4859 Q201.1421,204.7847 200.5029,204.9341 Q199.8638,205.0835 199.1582,205.0835 Q196.6514,205.0835 195.3315,203.4317 Q194.0117,201.7798 194.0117,198.6587 Q194.0117,195.5293 195.3315,193.8775 Q196.6514,192.2256 199.1582,192.2256 Q199.8638,192.2256 200.5112,192.375 Q201.1587,192.5245 201.7231,192.8233 L201.7231,195.5459 Q201.0923,194.9649 200.4988,194.6951 Q199.9053,194.4253 199.2744,194.4253 Q197.9297,194.4253 197.2449,195.492 Q196.5601,196.5586 196.5601,198.6587 Q196.5601,200.7505 197.2449,201.8172 Q197.9297,202.8838 199.2744,202.8838 Q199.9053,202.8838 200.4988,202.6141 Q201.0923,202.3443 201.7231,201.7632 Z " fill="#000000"/><text fill="#000000" font-family="sans-serif" font-size="14" lengthAdjust="spacing" textLength="124" x="232.75" y="197.7452">PayrollServiceImpl</text><text fill="#000000" font-family="sans-serif" font-size="10" lengthAdjust="spacing" textLength="150" x="219.75" y="210.3663">com.enttribe.hrms.service.impl</text><line style="stroke:#181818;stroke-width:0.5;" x1="42" x2="515" y1="217.4756" y2="217.4756"/><ellipse cx="52" cy="231.2198" fill="#84BE84" rx="3" ry="3" style="stroke:#038048;stroke-width:1.0;"/><text fill="#000000" font-family="sans-serif" font-size="14" lengthAdjust="spacing" textLength="327" x="61" y="235.0108">PayrollServiceImpl(GenericRepository&lt;Payroll&gt;)</text><ellipse cx="52" cy="247.708" fill="#84BE84" rx="3" ry="3" style="stroke:#038048;stroke-width:1.0;"/><text fill="#000000" font-family="sans-serif" font-size="14" lengthAdjust="spacing" textLength="194" x="61" y="251.4991">export(List&lt;Payroll&gt;): byte[]</text><ellipse cx="52" cy="264.1963" fill="#84BE84" rx="3" ry="3" style="stroke:#038048;stroke-width:1.0;"/><text fill="#000000" font-family="sans-serif" font-size="14" lengthAdjust="spacing" textLength="222" x="61" y="267.9873">importData(MultipartFile): String</text><ellipse cx="52" cy="280.6846" fill="#84BE84" rx="3" ry="3" style="stroke:#038048;stroke-width:1.0;"/><text fill="#000000" font-family="sans-serif" font-size="14" lengthAdjust="spacing" textLength="449" x="61" y="284.4756">saveData(Excel, Map&lt;String, String&gt;, List&lt;String&gt;): List&lt;Payroll&gt;</text><ellipse cx="52" cy="297.1729" fill="#84BE84" rx="3" ry="3" style="stroke:#038048;stroke-width:1.0;"/><text fill="#000000" font-family="sans-serif" font-size="14" lengthAdjust="spacing" textLength="214" x="61" y="300.9639">bulkDelete(List&lt;Integer&gt;): void</text><ellipse cx="52" cy="313.6612" fill="#84BE84" rx="3" ry="3" style="stroke:#038048;stroke-width:1.0;"/><text fill="#000000" font-family="sans-serif" font-size="14" lengthAdjust="spacing" textLength="152" x="61" y="317.4522">create(Payroll): Payroll</text></g></a><!--class com.enttribe.hrms.service.generic.AbstractService--><a href="../generic/AbstractService.html" target="_top" title="../generic/AbstractService.html" xlink:actuate="onRequest" xlink:href="../generic/AbstractService.html" xlink:show="new" xlink:title="../generic/AbstractService.html" xlink:type="simple"><g id="elem_com.enttribe.hrms.service.generic.AbstractService"><rect codeLine="14" fill="#F1F1F1" height="38.2656" id="com.enttribe.hrms.service.generic.AbstractService" rx="2.5" ry="2.5" style="stroke:#181818;stroke-width:0.5;" width="239" x="7" y="43.97"/><ellipse cx="22" cy="63.1028" fill="#A9DCDF" rx="11" ry="11" style="stroke:#181818;stroke-width:1.0;"/><path d="M21.8633,58.451 L20.7095,63.5227 L23.0254,63.5227 Z M20.3691,56.2097 L23.3657,56.2097 L26.7109,68.6028 L24.2622,68.6028 L23.4985,65.5398 L20.2197,65.5398 L19.4727,68.6028 L17.0239,68.6028 Z " fill="#000000"/><text fill="#000000" font-family="sans-serif" font-size="14" font-style="italic" lengthAdjust="spacing" textLength="105" x="66" y="62.5052">AbstractService</text><text fill="#000000" font-family="sans-serif" font-size="10" font-style="italic" lengthAdjust="spacing" textLength="165" x="36" y="75.1263">com.enttribe.hrms.service.generic</text><rect fill="#FFFFFF" height="16.1328" style="stroke:#181818;stroke-width:1.0;stroke-dasharray:2.0,2.0;" width="40" x="209" y="40.97"/><text fill="#000000" font-family="sans-serif" font-size="12" font-style="italic" lengthAdjust="spacing" textLength="38" x="210" y="53.5716">Payroll</text></g></a><!--class com.enttribe.hrms.service.PayrollService--><a href="../PayrollService.html" target="_top" title="../PayrollService.html" xlink:actuate="onRequest" xlink:href="../PayrollService.html" xlink:show="new" xlink:title="../PayrollService.html" xlink:type="simple"><g id="elem_com.enttribe.hrms.service.PayrollService"><rect codeLine="15" fill="#F1F1F1" height="112.2188" id="com.enttribe.hrms.service.PayrollService" rx="2.5" ry="2.5" style="stroke:#181818;stroke-width:0.5;" width="300" x="280.5" y="7"/><ellipse cx="363.25" cy="26.1328" fill="#B4A7E5" rx="11" ry="11" style="stroke:#181818;stroke-width:1.0;"/><path d="M359.6777,22.3979 L359.6777,20.2397 L367.0571,20.2397 L367.0571,22.3979 L364.5918,22.3979 L364.5918,30.4746 L367.0571,30.4746 L367.0571,32.6328 L359.6777,32.6328 L359.6777,30.4746 L362.1431,30.4746 L362.1431,22.3979 Z " fill="#000000"/><text fill="#000000" font-family="sans-serif" font-size="14" font-style="italic" lengthAdjust="spacing" textLength="94" x="399.75" y="25.5352">PayrollService</text><text fill="#000000" font-family="sans-serif" font-size="10" font-style="italic" lengthAdjust="spacing" textLength="126" x="383.75" y="38.1563">com.enttribe.hrms.service</text><line style="stroke:#181818;stroke-width:0.5;" x1="281.5" x2="579.5" y1="45.2656" y2="45.2656"/><ellipse cx="291.5" cy="59.0098" fill="#84BE84" rx="3" ry="3" style="stroke:#038048;stroke-width:1.0;"/><text fill="#000000" font-family="sans-serif" font-size="14" font-style="italic" lengthAdjust="spacing" textLength="274" x="300.5" y="62.8008">auditHistory(int, Integer, Integer): String</text><ellipse cx="291.5" cy="75.498" fill="#84BE84" rx="3" ry="3" style="stroke:#038048;stroke-width:1.0;"/><text fill="#000000" font-family="sans-serif" font-size="14" font-style="italic" lengthAdjust="spacing" textLength="222" x="300.5" y="79.2891">importData(MultipartFile): String</text><ellipse cx="291.5" cy="91.9863" fill="#84BE84" rx="3" ry="3" style="stroke:#038048;stroke-width:1.0;"/><text fill="#000000" font-family="sans-serif" font-size="14" font-style="italic" lengthAdjust="spacing" textLength="194" x="300.5" y="95.7773">export(List&lt;Payroll&gt;): byte[]</text><ellipse cx="291.5" cy="108.4746" fill="#84BE84" rx="3" ry="3" style="stroke:#038048;stroke-width:1.0;"/><text fill="#000000" font-family="sans-serif" font-size="14" font-style="italic" lengthAdjust="spacing" textLength="214" x="300.5" y="112.2656">bulkDelete(List&lt;Integer&gt;): void</text></g></a><!--reverse link com.enttribe.hrms.service.generic.AbstractService to com.enttribe.hrms.service.impl.PayrollServiceImpl--><g id="link_com.enttribe.hrms.service.generic.AbstractService_com.enttribe.hrms.service.impl.PayrollServiceImpl"><path codeLine="22" d="M155.09,99.23 C173.36,121.67 197.72,151.59 219.97,178.91 " fill="none" id="com.enttribe.hrms.service.generic.AbstractService-backto-com.enttribe.hrms.service.impl.PayrollServiceImpl" style="stroke:#181818;stroke-width:1.0;"/><polygon fill="none" points="149.78,103.79,142.59,83.86,160.64,94.95,149.78,103.79" style="stroke:#181818;stroke-width:1.0;"/></g><!--reverse link com.enttribe.hrms.service.PayrollService to com.enttribe.hrms.service.impl.PayrollServiceImpl--><g id="link_com.enttribe.hrms.service.PayrollService_com.enttribe.hrms.service.impl.PayrollServiceImpl"><path codeLine="23" d="M371.76,136.26 C360.37,150.25 348.44,164.91 337.05,178.89 " fill="none" id="com.enttribe.hrms.service.PayrollService-backto-com.enttribe.hrms.service.impl.PayrollServiceImpl" style="stroke:#181818;stroke-width:1.0;stroke-dasharray:7.0,7.0;"/><polygon fill="none" points="366.3,131.88,384.35,120.79,377.15,140.72,366.3,131.88" style="stroke:#181818;stroke-width:1.0;"/></g><text fill="#888888" font-family="sans-serif" font-size="10" lengthAdjust="spacing" textLength="182" x="195.75" y="340.0733">UMLDoclet 2.1.0, PlantUML 1.2022.14</text><!--SRC=[dPDDR-8m48Rl_HMZIYkbQkhILKzLXBGIsnQfIDMYdbWEnWnWhMD7ze1AF_vxXyHjW6XBsbmInizyUDuN082015Rc60gfS8Y5z9AS1-ii7l4nBFGK0VE2rZ3JQAPXFveZBHo7oxWoCWGupe9-mgkBo-wzN7jdp13zIYlivuNvQ-DXfwjSBj0IUJr1iV1v4A7YX6Rm66I0pn7HB0-ZKJCe5fIRyHYUonatpsaJIcxGejVg3nOkQDx1EejGzwJEmyV2UKhkTA3w-0ecQyBHkCPuEiPwacGoM1hIl5QwrWOP7V9bxBn6WrnX2Vv-L6XI6CWYgvWqijqKodxn5zVOQL-NcYpDlnuQ9Am6x5l2EVfDnihfQGqgZvAXM86FurT9l5PIoaaWBnKrDFqL3-BkMWawhtPxGDD8YRqE7pTbSOKuZzJv7XL5BcVNV74_OqF_rufjfZumxMx1QhRTMDDtp-zRVOLJkPngkcMTs6e9Jvn2rElZe-cMxVps7jlEQcVWxOmshegU-RAqaBsSdNtzNtwWsPuosOiGt-XHDS6DbM3ctERrCBZhESMhW9_YGdHIk3VI4aVXnmfzqCuc9sy0]--></g></svg>