<?xml version="1.0" encoding="UTF-8" standalone="no"?><svg xmlns="http://www.w3.org/2000/svg" xmlns:xlink="http://www.w3.org/1999/xlink" contentStyleType="text/css" height="350px" preserveAspectRatio="none" style="width:616px;height:350px;background:#FFFFFF;" version="1.1" viewBox="0 0 616 350" width="616px" zoomAndPan="magnify"><defs/><g><!--class com.enttribe.hrms.service.impl.RestrictionsServiceImpl--><a href="RestrictionsServiceImpl.html" target="_top" title="RestrictionsServiceImpl.html" xlink:actuate="onRequest" xlink:href="RestrictionsServiceImpl.html" xlink:show="new" xlink:title="RestrictionsServiceImpl.html" xlink:type="simple"><g id="elem_com.enttribe.hrms.service.impl.RestrictionsServiceImpl"><rect codeLine="5" fill="#F1F1F1" height="145.1953" id="com.enttribe.hrms.service.impl.RestrictionsServiceImpl" rx="2.5" ry="2.5" style="stroke:#181818;stroke-width:0.5;" width="509" x="45" y="179.21"/><ellipse cx="216.25" cy="198.3428" fill="#ADD1B2" rx="11" ry="11" style="stroke:#181818;stroke-width:1.0;"/><path d="M218.7231,204.4859 Q218.1421,204.7847 217.5029,204.9341 Q216.8638,205.0835 216.1582,205.0835 Q213.6514,205.0835 212.3315,203.4317 Q211.0117,201.7798 211.0117,198.6587 Q211.0117,195.5293 212.3315,193.8775 Q213.6514,192.2256 216.1582,192.2256 Q216.8638,192.2256 217.5112,192.375 Q218.1587,192.5245 218.7231,192.8233 L218.7231,195.5459 Q218.0923,194.9649 217.4988,194.6951 Q216.9053,194.4253 216.2744,194.4253 Q214.9297,194.4253 214.2449,195.492 Q213.5601,196.5586 213.5601,198.6587 Q213.5601,200.7505 214.2449,201.8172 Q214.9297,202.8838 216.2744,202.8838 Q216.9053,202.8838 217.4988,202.6141 Q218.0923,202.3443 218.7231,201.7632 Z " fill="#000000"/><text fill="#000000" font-family="sans-serif" font-size="14" lengthAdjust="spacing" textLength="158" x="236.75" y="197.7452">RestrictionsServiceImpl</text><text fill="#000000" font-family="sans-serif" font-size="10" lengthAdjust="spacing" textLength="150" x="240.75" y="210.3663">com.enttribe.hrms.service.impl</text><line style="stroke:#181818;stroke-width:0.5;" x1="46" x2="553" y1="217.4756" y2="217.4756"/><ellipse cx="56" cy="231.2198" fill="#84BE84" rx="3" ry="3" style="stroke:#038048;stroke-width:1.0;"/><text fill="#000000" font-family="sans-serif" font-size="14" lengthAdjust="spacing" textLength="395" x="65" y="235.0108">RestrictionsServiceImpl(GenericRepository&lt;Restrictions&gt;)</text><ellipse cx="56" cy="247.708" fill="#84BE84" rx="3" ry="3" style="stroke:#038048;stroke-width:1.0;"/><text fill="#000000" font-family="sans-serif" font-size="14" lengthAdjust="spacing" textLength="228" x="65" y="251.4991">export(List&lt;Restrictions&gt;): byte[]</text><ellipse cx="56" cy="264.1963" fill="#84BE84" rx="3" ry="3" style="stroke:#038048;stroke-width:1.0;"/><text fill="#000000" font-family="sans-serif" font-size="14" lengthAdjust="spacing" textLength="222" x="65" y="267.9873">importData(MultipartFile): String</text><ellipse cx="56" cy="280.6846" fill="#84BE84" rx="3" ry="3" style="stroke:#038048;stroke-width:1.0;"/><text fill="#000000" font-family="sans-serif" font-size="14" lengthAdjust="spacing" textLength="483" x="65" y="284.4756">saveData(Excel, Map&lt;String, String&gt;, List&lt;String&gt;): List&lt;Restrictions&gt;</text><ellipse cx="56" cy="297.1729" fill="#84BE84" rx="3" ry="3" style="stroke:#038048;stroke-width:1.0;"/><text fill="#000000" font-family="sans-serif" font-size="14" lengthAdjust="spacing" textLength="214" x="65" y="300.9639">bulkDelete(List&lt;Integer&gt;): void</text><ellipse cx="56" cy="313.6612" fill="#84BE84" rx="3" ry="3" style="stroke:#038048;stroke-width:1.0;"/><text fill="#000000" font-family="sans-serif" font-size="14" lengthAdjust="spacing" textLength="220" x="65" y="317.4522">create(Restrictions): Restrictions</text></g></a><!--class com.enttribe.hrms.service.generic.AbstractService--><a href="../generic/AbstractService.html" target="_top" title="../generic/AbstractService.html" xlink:actuate="onRequest" xlink:href="../generic/AbstractService.html" xlink:show="new" xlink:title="../generic/AbstractService.html" xlink:type="simple"><g id="elem_com.enttribe.hrms.service.generic.AbstractService"><rect codeLine="14" fill="#F1F1F1" height="38.2656" id="com.enttribe.hrms.service.generic.AbstractService" rx="2.5" ry="2.5" style="stroke:#181818;stroke-width:0.5;" width="267" x="7" y="43.97"/><ellipse cx="22" cy="63.1028" fill="#A9DCDF" rx="11" ry="11" style="stroke:#181818;stroke-width:1.0;"/><path d="M21.8633,58.451 L20.7095,63.5227 L23.0254,63.5227 Z M20.3691,56.2097 L23.3657,56.2097 L26.7109,68.6028 L24.2622,68.6028 L23.4985,65.5398 L20.2197,65.5398 L19.4727,68.6028 L17.0239,68.6028 Z " fill="#000000"/><text fill="#000000" font-family="sans-serif" font-size="14" font-style="italic" lengthAdjust="spacing" textLength="105" x="66" y="62.5052">AbstractService</text><text fill="#000000" font-family="sans-serif" font-size="10" font-style="italic" lengthAdjust="spacing" textLength="165" x="36" y="75.1263">com.enttribe.hrms.service.generic</text><rect fill="#FFFFFF" height="16.1328" style="stroke:#181818;stroke-width:1.0;stroke-dasharray:2.0,2.0;" width="68" x="209" y="40.97"/><text fill="#000000" font-family="sans-serif" font-size="12" font-style="italic" lengthAdjust="spacing" textLength="66" x="210" y="53.5716">Restrictions</text></g></a><!--class com.enttribe.hrms.service.RestrictionsService--><a href="../RestrictionsService.html" target="_top" title="../RestrictionsService.html" xlink:actuate="onRequest" xlink:href="../RestrictionsService.html" xlink:show="new" xlink:title="../RestrictionsService.html" xlink:type="simple"><g id="elem_com.enttribe.hrms.service.RestrictionsService"><rect codeLine="15" fill="#F1F1F1" height="112.2188" id="com.enttribe.hrms.service.RestrictionsService" rx="2.5" ry="2.5" style="stroke:#181818;stroke-width:0.5;" width="300" x="309.5" y="7"/><ellipse cx="391.25" cy="26.1328" fill="#B4A7E5" rx="11" ry="11" style="stroke:#181818;stroke-width:1.0;"/><path d="M387.6777,22.3979 L387.6777,20.2397 L395.0571,20.2397 L395.0571,22.3979 L392.5918,22.3979 L392.5918,30.4746 L395.0571,30.4746 L395.0571,32.6328 L387.6777,32.6328 L387.6777,30.4746 L390.1431,30.4746 L390.1431,22.3979 Z " fill="#000000"/><text fill="#000000" font-family="sans-serif" font-size="14" font-style="italic" lengthAdjust="spacing" textLength="128" x="411.75" y="25.5352">RestrictionsService</text><text fill="#000000" font-family="sans-serif" font-size="10" font-style="italic" lengthAdjust="spacing" textLength="126" x="412.75" y="38.1563">com.enttribe.hrms.service</text><line style="stroke:#181818;stroke-width:0.5;" x1="310.5" x2="608.5" y1="45.2656" y2="45.2656"/><ellipse cx="320.5" cy="59.0098" fill="#84BE84" rx="3" ry="3" style="stroke:#038048;stroke-width:1.0;"/><text fill="#000000" font-family="sans-serif" font-size="14" font-style="italic" lengthAdjust="spacing" textLength="274" x="329.5" y="62.8008">auditHistory(int, Integer, Integer): String</text><ellipse cx="320.5" cy="75.498" fill="#84BE84" rx="3" ry="3" style="stroke:#038048;stroke-width:1.0;"/><text fill="#000000" font-family="sans-serif" font-size="14" font-style="italic" lengthAdjust="spacing" textLength="222" x="329.5" y="79.2891">importData(MultipartFile): String</text><ellipse cx="320.5" cy="91.9863" fill="#84BE84" rx="3" ry="3" style="stroke:#038048;stroke-width:1.0;"/><text fill="#000000" font-family="sans-serif" font-size="14" font-style="italic" lengthAdjust="spacing" textLength="228" x="329.5" y="95.7773">export(List&lt;Restrictions&gt;): byte[]</text><ellipse cx="320.5" cy="108.4746" fill="#84BE84" rx="3" ry="3" style="stroke:#038048;stroke-width:1.0;"/><text fill="#000000" font-family="sans-serif" font-size="14" font-style="italic" lengthAdjust="spacing" textLength="214" x="329.5" y="112.2656">bulkDelete(List&lt;Integer&gt;): void</text></g></a><!--reverse link com.enttribe.hrms.service.generic.AbstractService to com.enttribe.hrms.service.impl.RestrictionsServiceImpl--><g id="link_com.enttribe.hrms.service.generic.AbstractService_com.enttribe.hrms.service.impl.RestrictionsServiceImpl"><path codeLine="22" d="M170.13,98.89 C189.27,121.37 214.89,151.45 238.27,178.91 " fill="none" id="com.enttribe.hrms.service.generic.AbstractService-backto-com.enttribe.hrms.service.impl.RestrictionsServiceImpl" style="stroke:#181818;stroke-width:1.0;"/><polygon fill="none" points="164.95,103.61,157.31,83.84,175.6,94.53,164.95,103.61" style="stroke:#181818;stroke-width:1.0;"/></g><!--reverse link com.enttribe.hrms.service.RestrictionsService to com.enttribe.hrms.service.impl.RestrictionsServiceImpl--><g id="link_com.enttribe.hrms.service.RestrictionsService_com.enttribe.hrms.service.impl.RestrictionsServiceImpl"><path codeLine="23" d="M398.06,135.8 C385.96,149.92 373.25,164.75 361.14,178.89 " fill="none" id="com.enttribe.hrms.service.RestrictionsService-backto-com.enttribe.hrms.service.impl.RestrictionsServiceImpl" style="stroke:#181818;stroke-width:1.0;stroke-dasharray:7.0,7.0;"/><polygon fill="none" points="392.61,131.4,410.94,120.77,403.24,140.51,392.61,131.4" style="stroke:#181818;stroke-width:1.0;"/></g><text fill="#888888" font-family="sans-serif" font-size="10" lengthAdjust="spacing" textLength="182" x="210.25" y="340.0733">UMLDoclet 2.1.0, PlantUML 1.2022.14</text><!--SRC=[dPHRI-j04CVV_HI384ICwmMV91I4UWCBOZbFFNtORgVjucOtx4wBzVBTppJPOs8ljfgN93E_kUpCFm4024XWPOwXa0gxM4WloNcmpk8Uks6YXmYO5pI7aKOp3ClM76dYs5pQbP4Xm7uMz2jUdbsqdZ2Grugqiw6BVgOLtkU5-MiZSTfIBXTeYQa1YedFWmWL9pI3-o03V8-83JMWrzlW4HFAJRyFRsNBY-je0vdSeaMsFs7XWkQvpBCcsJgiC-1BuJmb3phG4dC9WpbXhr-pt3QpRKaowKmDQHuwtMY3Z7Ovq8vhDCWPbk3rYqAJGaSMMSMaaMsbK1QDRvnZjOSwts1gdjjeaB1gzTuIZj4lmcPE3sjGUPGCDTCmqtmjsOzgxtB0TgbeHG1NqH67kjFYnzNGj-m-KcAfmjU3imY4E8deoH8QTL0UGFCS_8W_WU_5kql_M_fUaxNgSerZLQbl_oVz0KToEjHqnrjaNIPyW1JYDZyVLWNLZDzTXise7mYz6RQByAAOVhnpoDwFZt_vczXISTssidSXVbkjAeSBjS78kSNjJ-UXxHHF1ix5cJXDuT58Iso5Wndwm1cImty0]--></g></svg>